#include <stdint.h>
const uint8_t tiger[] = {
0x4d,0x54,0x68,0x64,0x00,0x00,0x00,0x06,0x00,0x01,0x00,0x09,0x01,0x80,0x4d,0x54,
0x72,0x6b,0x00,0x00,0x00,0x24,0x00,0xff,0x51,0x03,0x07,0xb1,0x88,0x00,0xff,0x58,
0x04,0x04,0x02,0x18,0x08,0x00,0xff,0x58,0x04,0x04,0x02,0x18,0x08,0x00,0xff,0x51,
0x03,0x07,0xb1,0x88,0x8a,0x85,0x50,0xff,0x2f,0x00,0x4d,0x54,0x72,0x6b,0x00,0x00,
0x13,0xe4,0x00,0xff,0x03,0x06,0x4d,0x45,0x4c,0x4f,0x44,0x59,0x00,0xf0,0x0a,0x41,
0x10,0x42,0x12,0x40,0x00,0x7f,0x00,0x41,0xf7,0x8c,0x00,0xf0,0x0a,0x41,0x10,0x42,
0x12,0x40,0x00,0x7f,0x00,0x41,0xf7,0x8c,0x00,0xb0,0x0a,0x40,0x00,0xb0,0x5b,0x50,
0x00,0xb0,0x5d,0x00,0x82,0x97,0x18,0xb0,0x07,0x6e,0x00,0xc0,0x38,0x00,0x90,0x43,
0x75,0x00,0x90,0x4f,0x75,0x81,0x34,0x80,0x4f,0x00,0x00,0x80,0x43,0x00,0x10,0x90,
0x46,0x71,0x00,0x90,0x52,0x71,0x50,0x80,0x52,0x00,0x00,0x80,0x46,0x00,0x10,0x90,
0x43,0x72,0x00,0x90,0x4f,0x72,0x82,0x3c,0x80,0x4f,0x00,0x00,0x80,0x43,0x00,0x84,
0x0c,0x90,0x41,0x79,0x00,0x90,0x4d,0x79,0x81,0x34,0x80,0x4d,0x00,0x00,0x80,0x41,
0x00,0x0c,0x90,0x3f,0x5e,0x00,0x90,0x4b,0x5e,0x81,0x18,0x80,0x4b,0x00,0x00,0x80,
0x3f,0x00,0x28,0x90,0x43,0x60,0x00,0x90,0x4f,0x60,0x81,0x38,0x80,0x4f,0x00,0x00,
0x80,0x43,0x00,0x10,0x90,0x41,0x5f,0x00,0x90,0x4d,0x5f,0x82,0x74,0x80,0x4d,0x00,
0x00,0x80,0x41,0x00,0x0c,0x90,0x3f,0x65,0x00,0x90,0x4b,0x65,0x81,0x40,0x80,0x4b,
0x00,0x00,0x80,0x3f,0x00,0x81,0x30,0x90,0x3f,0x5c,0x00,0x90,0x4b,0x5c,0x81,0x38,
0x80,0x4b,0x00,0x00,0x80,0x3f,0x00,0x14,0x90,0x41,0x5e,0x00,0x90,0x4d,0x5e,0x81,
0x5c,0x80,0x4d,0x00,0x00,0x80,0x41,0x00,0x81,0x18,0x90,0x41,0x5d,0x00,0x90,0x4d,
0x5d,0x82,0x18,0x80,0x4d,0x00,0x00,0x80,0x41,0x00,0x70,0x90,0x41,0x62,0x00,0x90,
0x4d,0x62,0x81,0x38,0x80,0x4d,0x00,0x00,0x80,0x41,0x00,0x08,0x90,0x3f,0x55,0x00,
0x90,0x4b,0x55,0x81,0x24,0x80,0x4b,0x00,0x00,0x80,0x3f,0x00,0x1c,0x90,0x43,0x54,
0x00,0x90,0x4f,0x54,0x81,0x44,0x80,0x4f,0x00,0x00,0x80,0x43,0x00,0x04,0x90,0x41,
0x5c,0x00,0x90,0x4d,0x5c,0x82,0x60,0x80,0x4d,0x00,0x00,0x80,0x41,0x00,0x08,0x90,
0x3f,0x5e,0x00,0x90,0x4b,0x5e,0x81,0x70,0x80,0x4b,0x00,0x00,0x80,0x3f,0x00,0x8a,
0x20,0x90,0x43,0x68,0x00,0x90,0x4f,0x68,0x81,0x00,0x80,0x4f,0x00,0x00,0x80,0x43,
0x00,0x40,0x90,0x43,0x5f,0x00,0x90,0x4f,0x5f,0x81,0x44,0x80,0x4f,0x00,0x00,0x80,
0x43,0x00,0x00,0x90,0x46,0x59,0x00,0x90,0x52,0x59,0x48,0x80,0x52,0x00,0x00,0x80,
0x46,0x00,0x10,0x90,0x48,0x5f,0x00,0x90,0x54,0x5f,0x81,0x64,0x80,0x54,0x00,0x00,
0x80,0x48,0x00,0x40,0x90,0x43,0x64,0x00,0x90,0x4f,0x64,0x81,0x30,0x80,0x4f,0x00,
0x00,0x80,0x43,0x00,0x83,0x18,0x90,0x41,0x68,0x00,0x90,0x4d,0x68,0x81,0x2c,0x80,
0x4d,0x00,0x00,0x80,0x41,0x00,0x1c,0x90,0x3f,0x65,0x00,0x90,0x4b,0x65,0x81,0x24,
0x80,0x4b,0x00,0x00,0x80,0x3f,0x00,0x0c,0x90,0x43,0x5f,0x00,0x90,0x4f,0x5f,0x81,
0x24,0x80,0x4f,0x00,0x00,0x80,0x43,0x00,0x2c,0x90,0x41,0x63,0x00,0x90,0x4d,0x63,
0x82,0x64,0x80,0x4d,0x00,0x00,0x80,0x41,0x00,0x14,0x90,0x3f,0x6a,0x00,0x90,0x4b,
0x6a,0x81,0x4c,0x80,0x4b,0x00,0x00,0x80,0x3f,0x00,0x81,0x24,0x90,0x41,0x68,0x00,
0x90,0x4d,0x68,0x81,0x68,0x80,0x4d,0x00,0x00,0x80,0x41,0x00,0x81,0x24,0x90,0x41,
0x66,0x00,0x90,0x4d,0x66,0x82,0x68,0x80,0x4d,0x00,0x00,0x80,0x41,0x00,0x1c,0x90,
0x3f,0x66,0x00,0x90,0x4b,0x66,0x81,0x3c,0x90,0x41,0x62,0x00,0x90,0x4d,0x62,0x04,
0x80,0x4b,0x00,0x00,0x80,0x3f,0x00,0x81,0x3c,0x80,0x4d,0x00,0x00,0x80,0x41,0x00,
0x08,0x90,0x3f,0x60,0x00,0x90,0x4b,0x60,0x81,0x40,0x90,0x43,0x5c,0x00,0x90,0x4f,
0x5c,0x14,0x80,0x4b,0x00,0x00,0x80,0x3f,0x00,0x81,0x1c,0x80,0x4f,0x00,0x00,0x80,
0x43,0x00,0x14,0x90,0x41,0x61,0x00,0x90,0x4d,0x61,0x83,0x00,0x90,0x3f,0x61,0x00,
0x90,0x4b,0x61,0x04,0x80,0x4d,0x00,0x00,0x80,0x41,0x00,0x83,0x54,0x80,0x4b,0x00,
0x00,0x80,0x3f,0x00,0x89,0x6c,0x90,0x43,0x68,0x00,0x90,0x4f,0x68,0x81,0x78,0x90,
0x46,0x5d,0x00,0x90,0x52,0x5d,0x10,0x80,0x4f,0x00,0x00,0x80,0x43,0x00,0x82,0x1c,
0x80,0x52,0x00,0x00,0x80,0x46,0x00,0x0c,0x90,0x43,0x63,0x00,0x90,0x4f,0x63,0x81,
0x04,0x80,0x4f,0x00,0x00,0x80,0x43,0x00,0x81,0x70,0x90,0x43,0x60,0x00,0x90,0x4f,
0x60,0x81,0x48,0x90,0x41,0x61,0x00,0x90,0x4d,0x61,0x04,0x80,0x4f,0x00,0x00,0x80,
0x43,0x00,0x81,0x40,0x90,0x3f,0x5f,0x00,0x90,0x4b,0x5f,0x04,0x80,0x4d,0x00,0x00,
0x80,0x41,0x00,0x81,0x2c,0x90,0x43,0x58,0x00,0x90,0x4f,0x58,0x14,0x80,0x4b,0x00,
0x00,0x80,0x3f,0x00,0x81,0x34,0x80,0x4f,0x00,0x00,0x80,0x43,0x00,0x10,0x90,0x41,
0x64,0x00,0x90,0x4d,0x64,0x82,0x54,0x80,0x4d,0x00,0x00,0x80,0x41,0x00,0x24,0x90,
0x3f,0x6e,0x00,0x90,0x4b,0x6e,0x81,0x08,0x80,0x4b,0x00,0x00,0x80,0x3f,0x00,0x81,
0x68,0x90,0x3f,0x71,0x00,0x90,0x4b,0x71,0x81,0x44,0x90,0x41,0x62,0x00,0x90,0x4d,
0x62,0x04,0x80,0x4b,0x00,0x00,0x80,0x3f,0x00,0x81,0x5c,0x80,0x4d,0x00,0x00,0x80,
0x41,0x00,0x81,0x28,0x90,0x41,0x62,0x00,0x90,0x4d,0x62,0x81,0x38,0x90,0x3f,0x54,
0x00,0x90,0x4b,0x54,0x08,0x80,0x4d,0x00,0x00,0x80,0x41,0x00,0x81,0x38,0x90,0x41,
0x5f,0x00,0x90,0x4d,0x5f,0x14,0x80,0x4b,0x00,0x00,0x80,0x3f,0x00,0x81,0x2c,0x90,
0x3f,0x55,0x00,0x90,0x4b,0x55,0x08,0x80,0x4d,0x00,0x00,0x80,0x41,0x00,0x82,0x6c,
0x90,0x43,0x4f,0x00,0x90,0x4f,0x4f,0x10,0x80,0x4b,0x00,0x00,0x80,0x3f,0x00,0x81,
0x38,0x90,0x3f,0x54,0x00,0x90,0x4b,0x54,0x04,0x80,0x4f,0x00,0x00,0x80,0x43,0x00,
0x82,0x40,0x80,0x4b,0x00,0x00,0x80,0x3f,0x00,0x8b,0x0c,0x90,0x43,0x70,0x00,0x90,
0x4f,0x70,0x58,0x80,0x4f,0x00,0x00,0x80,0x43,0x00,0x64,0x90,0x43,0x61,0x00,0x90,
0x4f,0x61,0x60,0x90,0x46,0x66,0x00,0x90,0x52,0x66,0x04,0x80,0x4f,0x00,0x00,0x80,
0x43,0x00,0x81,0x04,0x80,0x52,0x00,0x00,0x80,0x46,0x00,0x38,0x90,0x48,0x61,0x00,
0x90,0x54,0x61,0x82,0x08,0x80,0x54,0x00,0x00,0x80,0x48,0x00,0x1c,0x90,0x43,0x6d,
0x00,0x90,0x4f,0x6d,0x81,0x7c,0x80,0x4f,0x00,0x00,0x80,0x43,0x00,0x78,0x90,0x43,
0x60,0x00,0x90,0x4f,0x60,0x81,0x44,0x80,0x4f,0x00,0x00,0x80,0x43,0x00,0x0c,0x90,
0x41,0x56,0x00,0x90,0x4d,0x56,0x81,0x2c,0x80,0x4d,0x00,0x00,0x80,0x41,0x00,0x1c,
0x90,0x3f,0x5e,0x00,0x90,0x4b,0x5e,0x81,0x28,0x90,0x43,0x5b,0x00,0x90,0x4f,0x5b,
0x14,0x80,0x4b,0x00,0x00,0x80,0x3f,0x00,0x81,0x30,0x80,0x4f,0x00,0x00,0x80,0x43,
0x00,0x14,0x90,0x41,0x60,0x00,0x90,0x4d,0x60,0x82,0x64,0x80,0x4d,0x00,0x00,0x80,
0x41,0x00,0x14,0x90,0x3f,0x68,0x00,0x90,0x4b,0x68,0x81,0x54,0x80,0x4b,0x00,0x00,
0x80,0x3f,0x00,0x81,0x24,0x90,0x3f,0x6a,0x00,0x90,0x4b,0x6a,0x81,0x2c,0x80,0x4b,
0x00,0x00,0x80,0x3f,0x00,0x08,0x90,0x41,0x5e,0x00,0x90,0x4d,0x5e,0x81,0x40,0x80,
0x4d,0x00,0x00,0x80,0x41,0x00,0x24,0x90,0x41,0x66,0x00,0x90,0x4d,0x66,0x82,0x5c,
0x80,0x4d,0x00,0x00,0x80,0x41,0x00,0x0c,0x90,0x3f,0x64,0x00,0x90,0x4b,0x64,0x81,
0x3c,0x80,0x4b,0x00,0x00,0x80,0x3f,0x00,0x0c,0x90,0x41,0x61,0x00,0x90,0x4d,0x61,
0x81,0x3c,0x90,0x3f,0x5a,0x00,0x90,0x4b,0x5a,0x04,0x80,0x4d,0x00,0x00,0x80,0x41,
0x00,0x81,0x3c,0x90,0x41,0x60,0x00,0x90,0x4d,0x60,0x14,0x80,0x4b,0x00,0x00,0x80,
0x3f,0x00,0x81,0x24,0x80,0x4d,0x00,0x00,0x80,0x41,0x00,0x04,0x90,0x3f,0x58,0x00,
0x90,0x4b,0x58,0x60,0x90,0x43,0x5e,0x00,0x90,0x4f,0x5e,0x04,0x80,0x4b,0x00,0x00,
0x80,0x3f,0x00,0x81,0x6c,0x80,0x4f,0x00,0x00,0x80,0x43,0x00,0x1c,0x90,0x43,0x58,
0x00,0x90,0x4f,0x58,0x82,0x14,0x80,0x4f,0x00,0x00,0x80,0x43,0x00,0x83,0x74,0x90,
0x41,0x70,0x00,0x90,0x4d,0x70,0x82,0x1c,0x80,0x4d,0x00,0x00,0x80,0x41,0x00,0x10,
0x90,0x43,0x64,0x00,0x90,0x4f,0x64,0x82,0x2c,0x80,0x4f,0x00,0x00,0x80,0x43,0x00,
0x10,0x90,0x44,0x68,0x00,0x90,0x50,0x68,0x82,0x08,0x80,0x50,0x00,0x00,0x80,0x44,
0x00,0x64,0x90,0x44,0x6c,0x00,0x90,0x50,0x6c,0x58,0x80,0x50,0x00,0x00,0x80,0x44,
0x00,0x64,0x90,0x44,0x68,0x00,0x90,0x50,0x68,0x48,0x80,0x50,0x00,0x00,0x80,0x44,
0x00,0x7c,0x90,0x44,0x7d,0x00,0x90,0x50,0x7d,0x81,0x30,0x80,0x50,0x00,0x00,0x80,
0x44,0x00,0x18,0x90,0x43,0x63,0x00,0x90,0x4f,0x63,0x81,0x30,0x80,0x4f,0x00,0x00,
0x80,0x43,0x00,0x08,0x90,0x41,0x66,0x00,0x90,0x4d,0x66,0x81,0x2c,0x80,0x4d,0x00,
0x00,0x80,0x41,0x00,0x0c,0x90,0x3f,0x65,0x00,0x90,0x4b,0x65,0x74,0x80,0x4b,0x00,
0x00,0x80,0x3f,0x00,0x64,0x90,0x3f,0x5e,0x00,0x90,0x4b,0x5e,0x81,0x3c,0x90,0x41,
0x5e,0x00,0x90,0x4d,0x5e,0x04,0x80,0x4b,0x00,0x00,0x80,0x3f,0x00,0x81,0x2c,0x80,
0x4d,0x00,0x00,0x80,0x41,0x00,0x08,0x90,0x43,0x5f,0x00,0x90,0x4f,0x5f,0x81,0x3c,
0x80,0x4f,0x00,0x00,0x80,0x43,0x00,0x08,0x90,0x41,0x61,0x00,0x90,0x4d,0x61,0x82,
0x28,0x80,0x4d,0x00,0x00,0x80,0x41,0x00,0x64,0x90,0x41,0x70,0x00,0x90,0x4d,0x70,
0x82,0x04,0x80,0x4d,0x00,0x00,0x80,0x41,0x00,0x10,0x90,0x43,0x72,0x00,0x90,0x4f,
0x72,0x82,0x28,0x80,0x4f,0x00,0x00,0x80,0x43,0x00,0x08,0x90,0x44,0x75,0x00,0x90,
0x50,0x75,0x82,0x00,0x80,0x50,0x00,0x00,0x80,0x44,0x00,0x58,0x90,0x44,0x75,0x00,
0x90,0x50,0x75,0x78,0x80,0x50,0x00,0x00,0x80,0x44,0x00,0x50,0x90,0x44,0x6a,0x00,
0x90,0x50,0x6a,0x5c,0x80,0x50,0x00,0x00,0x80,0x44,0x00,0x6c,0x90,0x44,0x79,0x00,
0x90,0x50,0x79,0x81,0x2c,0x80,0x50,0x00,0x00,0x80,0x44,0x00,0x14,0x90,0x43,0x68,
0x00,0x90,0x4f,0x68,0x81,0x38,0x80,0x4f,0x00,0x00,0x80,0x43,0x00,0x08,0x90,0x41,
0x66,0x00,0x90,0x4d,0x66,0x81,0x30,0x90,0x3f,0x5e,0x00,0x90,0x4b,0x5e,0x14,0x80,
0x4d,0x00,0x00,0x80,0x41,0x00,0x81,0x1c,0x80,0x4b,0x00,0x00,0x80,0x3f,0x00,0x20,
0x90,0x43,0x63,0x00,0x90,0x4f,0x63,0x82,0x5c,0x80,0x4f,0x00,0x00,0x80,0x43,0x00,
0x10,0x90,0x41,0x69,0x00,0x90,0x4d,0x69,0x83,0x58,0x80,0x4d,0x00,0x00,0x80,0x41,
0x00,0x78,0x90,0x41,0x69,0x00,0x90,0x4d,0x69,0x82,0x10,0x80,0x4d,0x00,0x00,0x80,
0x41,0x00,0x14,0x90,0x43,0x63,0x00,0x90,0x4f,0x63,0x82,0x08,0x80,0x4f,0x00,0x00,
0x80,0x43,0x00,0x28,0x90,0x44,0x6c,0x00,0x90,0x50,0x6c,0x82,0x10,0x80,0x50,0x00,
0x00,0x80,0x44,0x00,0x5c,0x90,0x44,0x6c,0x00,0x90,0x50,0x6c,0x64,0x80,0x50,0x00,
0x00,0x80,0x44,0x00,0x5c,0x90,0x44,0x67,0x00,0x90,0x50,0x67,0x58,0x80,0x50,0x00,
0x00,0x80,0x44,0x00,0x6c,0x90,0x44,0x71,0x00,0x90,0x50,0x71,0x81,0x24,0x80,0x50,
0x00,0x00,0x80,0x44,0x00,0x28,0x90,0x43,0x64,0x00,0x90,0x4f,0x64,0x81,0x2c,0x80,
0x4f,0x00,0x00,0x80,0x43,0x00,0x08,0x90,0x41,0x68,0x00,0x90,0x4d,0x68,0x81,0x2c,
0x80,0x4d,0x00,0x00,0x80,0x41,0x00,0x0c,0x90,0x3f,0x64,0x00,0x90,0x4b,0x64,0x6c,
0x80,0x4b,0x00,0x00,0x80,0x3f,0x00,0x64,0x90,0x3f,0x67,0x00,0x90,0x4b,0x67,0x81,
0x1c,0x80,0x4b,0x00,0x00,0x80,0x3f,0x00,0x1c,0x90,0x41,0x5e,0x00,0x90,0x4d,0x5e,
0x81,0x34,0x80,0x4d,0x00,0x00,0x80,0x41,0x00,0x14,0x90,0x43,0x5f,0x00,0x90,0x4f,
0x5f,0x81,0x24,0x80,0x4f,0x00,0x00,0x80,0x43,0x00,0x2c,0x90,0x41,0x60,0x00,0x90,
0x4d,0x60,0x82,0x08,0x80,0x4d,0x00,0x00,0x80,0x41,0x00,0x58,0x90,0x41,0x69,0x00,
0x90,0x4d,0x69,0x82,0x24,0x90,0x43,0x72,0x00,0x90,0x4f,0x72,0x04,0x80,0x4d,0x00,
0x00,0x80,0x41,0x00,0x81,0x58,0x80,0x4f,0x00,0x00,0x80,0x43,0x00,0x40,0x90,0x44,
0x7d,0x00,0x90,0x50,0x7d,0x81,0x7c,0x80,0x50,0x00,0x00,0x80,0x44,0x00,0x1c,0x90,
0x43,0x79,0x00,0x90,0x4f,0x79,0x81,0x50,0x80,0x4f,0x00,0x00,0x80,0x43,0x00,0x2c,
0x90,0x44,0x71,0x00,0x90,0x50,0x71,0x81,0x5c,0x80,0x50,0x00,0x00,0x80,0x44,0x00,
0x1c,0x90,0x46,0x75,0x00,0x90,0x52,0x75,0x81,0x64,0x80,0x52,0x00,0x00,0x80,0x46,
0x00,0x30,0x90,0x44,0x6a,0x00,0x90,0x50,0x6a,0x81,0x40,0x80,0x50,0x00,0x00,0x80,
0x44,0x00,0x2c,0x90,0x46,0x66,0x00,0x90,0x52,0x66,0x81,0x54,0x80,0x52,0x00,0x00,
0x80,0x46,0x00,0x28,0x90,0x48,0x63,0x00,0x90,0x54,0x63,0x86,0x30,0x80,0x54,0x00,
0x00,0x80,0x48,0x00,0x82,0x40,0x90,0x41,0x70,0x00,0x90,0x4d,0x70,0x81,0x44,0x80,
0x4d,0x00,0x00,0x80,0x41,0x00,0x00,0x90,0x3f,0x5a,0x00,0x90,0x4b,0x5a,0x44,0x80,
0x4b,0x00,0x00,0x80,0x3f,0x00,0x08,0x90,0x41,0x5f,0x00,0x90,0x4d,0x5f,0x82,0x3c,
0x90,0x3f,0x58,0x00,0x90,0x4b,0x58,0x04,0x80,0x4d,0x00,0x00,0x80,0x41,0x00,0x83,
0x00,0x80,0x4b,0x00,0x00,0x80,0x3f,0x00,0x96,0x48,0x90,0x43,0x70,0x00,0x90,0x4f,
0x70,0x81,0x28,0x80,0x4f,0x00,0x00,0x80,0x43,0x00,0x08,0x90,0x46,0x68,0x00,0x90,
0x52,0x68,0x58,0x80,0x52,0x00,0x00,0x80,0x46,0x00,0x0c,0x90,0x43,0x6d,0x00,0x90,
0x4f,0x6d,0x83,0x78,0x80,0x4f,0x00,0x00,0x80,0x43,0x00,0x82,0x6c,0x90,0x41,0x7d,
0x00,0x90,0x4d,0x7d,0x81,0x38,0x80,0x4d,0x00,0x00,0x80,0x41,0x00,0x08,0x90,0x3f,
0x66,0x00,0x90,0x4b,0x66,0x81,0x24,0x80,0x4b,0x00,0x00,0x80,0x3f,0x00,0x14,0x90,
0x43,0x5f,0x00,0x90,0x4f,0x5f,0x81,0x44,0x80,0x4f,0x00,0x00,0x80,0x43,0x00,0x10,
0x90,0x41,0x69,0x00,0x90,0x4d,0x69,0x82,0x64,0x80,0x4d,0x00,0x00,0x80,0x41,0x00,
0x0c,0x90,0x3f,0x71,0x00,0x90,0x4b,0x71,0x81,0x78,0x80,0x4b,0x00,0x00,0x80,0x3f,
0x00,0x81,0x08,0x90,0x3f,0x6e,0x00,0x90,0x4b,0x6e,0x81,0x28,0x80,0x4b,0x00,0x00,
0x80,0x3f,0x00,0x18,0x90,0x41,0x66,0x00,0x90,0x4d,0x66,0x81,0x78,0x80,0x4d,0x00,
0x00,0x80,0x41,0x00,0x81,0x0c,0x90,0x41,0x75,0x00,0x90,0x4d,0x75,0x81,0x40,0x90,
0x3f,0x62,0x00,0x90,0x4b,0x62,0x04,0x80,0x4d,0x00,0x00,0x80,0x41,0x00,0x81,0x2c,
0x80,0x4b,0x00,0x00,0x80,0x3f,0x00,0x14,0x90,0x41,0x60,0x00,0x90,0x4d,0x60,0x81,
0x48,0x90,0x3f,0x59,0x00,0x90,0x4b,0x59,0x14,0x80,0x4d,0x00,0x00,0x80,0x41,0x00,
0x81,0x20,0x80,0x4b,0x00,0x00,0x80,0x3f,0x00,0x08,0x90,0x43,0x5f,0x00,0x90,0x4f,
0x5f,0x81,0x34,0x80,0x4f,0x00,0x00,0x80,0x43,0x00,0x08,0x90,0x41,0x5e,0x00,0x90,
0x4d,0x5e,0x82,0x24,0x90,0x3f,0x66,0x00,0x90,0x4b,0x66,0x04,0x80,0x4d,0x00,0x00,
0x80,0x41,0x00,0x84,0x10,0x80,0x4b,0x00,0x00,0x80,0x3f,0x00,0x88,0x44,0x90,0x43,
0x60,0x00,0x90,0x4f,0x60,0x60,0x80,0x4f,0x00,0x00,0x80,0x43,0x00,0x5c,0x90,0x43,
0x5f,0x00,0x90,0x4f,0x5f,0x5c,0x90,0x46,0x67,0x00,0x90,0x52,0x67,0x04,0x80,0x4f,
0x00,0x00,0x80,0x43,0x00,0x81,0x2c,0x80,0x52,0x00,0x00,0x80,0x46,0x00,0x08,0x90,
0x48,0x60,0x00,0x90,0x54,0x60,0x82,0x1c,0x80,0x54,0x00,0x00,0x80,0x48,0x00,0x1c,
0x90,0x43,0x6b,0x00,0x90,0x4f,0x6b,0x81,0x68,0x80,0x4f,0x00,0x00,0x80,0x43,0x00,
0x81,0x08,0x90,0x43,0x68,0x00,0x90,0x4f,0x68,0x81,0x38,0x80,0x4f,0x00,0x00,0x80,
0x43,0x00,0x08,0x90,0x41,0x69,0x00,0x90,0x4d,0x69,0x81,0x44,0x80,0x4d,0x00,0x00,
0x80,0x41,0x00,0x08,0x90,0x3f,0x65,0x00,0x90,0x4b,0x65,0x81,0x38,0x80,0x4b,0x00,
0x00,0x80,0x3f,0x00,0x00,0x90,0x43,0x5d,0x00,0x90,0x4f,0x5d,0x81,0x38,0x80,0x4f,
0x00,0x00,0x80,0x43,0x00,0x14,0x90,0x41,0x63,0x00,0x90,0x4d,0x63,0x82,0x64,0x80,
0x4d,0x00,0x00,0x80,0x41,0x00,0x14,0x90,0x3f,0x6e,0x00,0x90,0x4b,0x6e,0x81,0x30,
0x80,0x4b,0x00,0x00,0x80,0x3f,0x00,0x82,0x38,0x90,0x3f,0x6a,0x00,0x90,0x4b,0x6a,
0x5c,0x90,0x41,0x63,0x00,0x90,0x4d,0x63,0x04,0x80,0x4b,0x00,0x00,0x80,0x3f,0x00,
0x7c,0x80,0x4d,0x00,0x00,0x80,0x41,0x00,0x38,0x90,0x41,0x64,0x00,0x90,0x4d,0x64,
0x81,0x00,0x80,0x4d,0x00,0x00,0x80,0x41,0x00,0x40,0x90,0x41,0x63,0x00,0x90,0x4d,
0x63,0x81,0x30,0x80,0x4d,0x00,0x00,0x80,0x41,0x00,0x04,0x90,0x3f,0x60,0x00,0x90,
0x4b,0x60,0x81,0x40,0x90,0x41,0x60,0x00,0x90,0x4d,0x60,0x14,0x80,0x4b,0x00,0x00,
0x80,0x3f,0x00,0x81,0x34,0x80,0x4d,0x00,0x00,0x80,0x41,0x00,0x08,0x90,0x3f,0x5e,
0x00,0x90,0x4b,0x5e,0x81,0x40,0x90,0x43,0x5b,0x00,0x90,0x4f,0x5b,0x14,0x80,0x4b,
0x00,0x00,0x80,0x3f,0x00,0x81,0x20,0x80,0x4f,0x00,0x00,0x80,0x43,0x00,0x14,0x90,
0x41,0x66,0x00,0x90,0x4d,0x66,0x82,0x44,0x80,0x4d,0x00,0x00,0x80,0x41,0x00,0x38,
0x90,0x3f,0x6c,0x00,0x90,0x4b,0x6c,0x84,0x24,0x80,0x4b,0x00,0x00,0x80,0x3f,0x00,
0x81,0x58,0x90,0x41,0x79,0x00,0x90,0x4d,0x79,0x82,0x20,0x80,0x4d,0x00,0x00,0x80,
0x41,0x00,0x10,0x90,0x43,0x72,0x00,0x90,0x4f,0x72,0x82,0x10,0x80,0x4f,0x00,0x00,
0x80,0x43,0x00,0x08,0x90,0x44,0x6c,0x00,0x90,0x50,0x6c,0x81,0x78,0x80,0x50,0x00,
0x00,0x80,0x44,0x00,0x78,0x90,0x44,0x79,0x00,0x90,0x50,0x79,0x50,0x80,0x50,0x00,
0x00,0x80,0x44,0x00,0x68,0x90,0x44,0x75,0x00,0x90,0x50,0x75,0x40,0x80,0x50,0x00,
0x00,0x80,0x44,0x00,0x81,0x08,0x90,0x44,0x7f,0x00,0x90,0x50,0x7f,0x81,0x24,0x80,
0x50,0x00,0x00,0x80,0x44,0x00,0x1c,0x90,0x43,0x69,0x00,0x90,0x4f,0x69,0x81,0x3c,
0x80,0x4f,0x00,0x00,0x80,0x43,0x00,0x08,0x90,0x41,0x6d,0x00,0x90,0x4d,0x6d,0x81,
0x28,0x80,0x4d,0x00,0x00,0x80,0x41,0x00,0x08,0x90,0x3f,0x66,0x00,0x90,0x4b,0x66,
0x68,0x80,0x4b,0x00,0x00,0x80,0x3f,0x00,0x78,0x90,0x3f,0x79,0x00,0x90,0x4b,0x79,
0x81,0x2c,0x80,0x4b,0x00,0x00,0x80,0x3f,0x00,0x10,0x90,0x41,0x63,0x00,0x90,0x4d,
0x63,0x81,0x38,0x80,0x4d,0x00,0x00,0x80,0x41,0x00,0x08,0x90,0x43,0x60,0x00,0x90,
0x4f,0x60,0x81,0x10,0x80,0x4f,0x00,0x00,0x80,0x43,0x00,0x24,0x90,0x41,0x68,0x00,
0x90,0x4d,0x68,0x82,0x24,0x80,0x4d,0x00,0x00,0x80,0x41,0x00,0x6c,0x90,0x41,0x68,
0x00,0x90,0x4d,0x68,0x82,0x00,0x80,0x4d,0x00,0x00,0x80,0x41,0x00,0x1c,0x90,0x43,
0x7d,0x00,0x90,0x4f,0x7d,0x82,0x1c,0x80,0x4f,0x00,0x00,0x80,0x43,0x00,0x14,0x90,
0x44,0x6e,0x00,0x90,0x50,0x6e,0x82,0x00,0x80,0x50,0x00,0x00,0x80,0x44,0x00,0x64,
0x90,0x44,0x79,0x00,0x90,0x50,0x79,0x78,0x80,0x50,0x00,0x00,0x80,0x44,0x00,0x3c,
0x90,0x44,0x6a,0x00,0x90,0x50,0x6a,0x5c,0x80,0x50,0x00,0x00,0x80,0x44,0x00,0x6c,
0x90,0x44,0x7d,0x00,0x90,0x50,0x7d,0x81,0x1c,0x80,0x50,0x00,0x00,0x80,0x44,0x00,
0x24,0x90,0x43,0x70,0x00,0x90,0x4f,0x70,0x81,0x30,0x80,0x4f,0x00,0x00,0x80,0x43,
0x00,0x08,0x90,0x41,0x68,0x00,0x90,0x4d,0x68,0x81,0x1c,0x80,0x4d,0x00,0x00,0x80,
0x41,0x00,0x24,0x90,0x3f,0x62,0x00,0x90,0x4b,0x62,0x78,0x80,0x4b,0x00,0x00,0x80,
0x3f,0x00,0x48,0x90,0x43,0x64,0x00,0x90,0x4f,0x64,0x82,0x4c,0x80,0x4f,0x00,0x00,
0x80,0x43,0x00,0x40,0x90,0x41,0x68,0x00,0x90,0x4d,0x68,0x83,0x48,0x80,0x4d,0x00,
0x00,0x80,0x41,0x00,0x78,0x90,0x41,0x79,0x00,0x90,0x4d,0x79,0x82,0x10,0x80,0x4d,
0x00,0x00,0x80,0x41,0x00,0x14,0x90,0x43,0x79,0x00,0x90,0x4f,0x79,0x82,0x1c,0x80,
0x4f,0x00,0x00,0x80,0x43,0x00,0x08,0x90,0x44,0x71,0x00,0x90,0x50,0x71,0x82,0x24,
0x80,0x50,0x00,0x00,0x80,0x44,0x00,0x48,0x90,0x44,0x6a,0x00,0x90,0x50,0x6a,0x64,
0x80,0x50,0x00,0x00,0x80,0x44,0x00,0x64,0x90,0x44,0x67,0x00,0x90,0x50,0x67,0x50,
0x80,0x50,0x00,0x00,0x80,0x44,0x00,0x70,0x90,0x44,0x71,0x00,0x90,0x50,0x71,0x81,
0x24,0x80,0x50,0x00,0x00,0x80,0x44,0x00,0x24,0x90,0x43,0x63,0x00,0x90,0x4f,0x63,
0x81,0x2c,0x80,0x4f,0x00,0x00,0x80,0x43,0x00,0x0c,0x90,0x41,0x5f,0x00,0x90,0x4d,
0x5f,0x81,0x2c,0x90,0x3f,0x5e,0x00,0x90,0x4b,0x5e,0x10,0x80,0x4d,0x00,0x00,0x80,
0x41,0x00,0x6c,0x80,0x4b,0x00,0x00,0x80,0x3f,0x00,0x5c,0x90,0x3f,0x66,0x00,0x90,
0x4b,0x66,0x81,0x48,0x80,0x4b,0x00,0x00,0x80,0x3f,0x00,0x08,0x90,0x41,0x60,0x00,
0x90,0x4d,0x60,0x81,0x38,0x80,0x4d,0x00,0x00,0x80,0x41,0x00,0x10,0x90,0x43,0x5e,
0x00,0x90,0x4f,0x5e,0x81,0x28,0x80,0x4f,0x00,0x00,0x80,0x43,0x00,0x18,0x90,0x41,
0x5f,0x00,0x90,0x4d,0x5f,0x82,0x0c,0x80,0x4d,0x00,0x00,0x80,0x41,0x00,0x6c,0x90,
0x41,0x69,0x00,0x90,0x4d,0x69,0x82,0x0c,0x80,0x4d,0x00,0x00,0x80,0x41,0x00,0x1c,
0x90,0x43,0x79,0x00,0x90,0x4f,0x79,0x81,0x4c,0x80,0x4f,0x00,0x00,0x80,0x43,0x00,
0x40,0x90,0x44,0x75,0x00,0x90,0x50,0x75,0x82,0x08,0x80,0x50,0x00,0x00,0x80,0x44,
0x00,0x14,0x90,0x43,0x75,0x00,0x90,0x4f,0x75,0x81,0x44,0x80,0x4f,0x00,0x00,0x80,
0x43,0x00,0x2c,0x90,0x44,0x6e,0x00,0x90,0x50,0x6e,0x81,0x60,0x80,0x50,0x00,0x00,
0x80,0x44,0x00,0x14,0x90,0x46,0x71,0x00,0x90,0x52,0x71,0x82,0x04,0x80,0x52,0x00,
0x00,0x80,0x46,0x00,0x24,0x90,0x44,0x6c,0x00,0x90,0x50,0x6c,0x81,0x44,0x80,0x50,
0x00,0x00,0x80,0x44,0x00,0x24,0x90,0x46,0x6c,0x00,0x90,0x52,0x6c,0x81,0x4c,0x80,
0x52,0x00,0x00,0x80,0x46,0x00,0x24,0x90,0x48,0x62,0x00,0x90,0x54,0x62,0x86,0x2c,
0x80,0x54,0x00,0x00,0x80,0x48,0x00,0x82,0x48,0x90,0x41,0x79,0x00,0x90,0x4d,0x79,
0x81,0x48,0x80,0x4d,0x00,0x00,0x80,0x41,0x00,0x08,0x90,0x3f,0x5a,0x00,0x90,0x4b,
0x5a,0x48,0x80,0x4b,0x00,0x00,0x80,0x3f,0x00,0x04,0x90,0x41,0x5a,0x00,0x90,0x4d,
0x5a,0x82,0x24,0x80,0x4d,0x00,0x00,0x80,0x41,0x00,0x00,0x90,0x3f,0x58,0x00,0x90,
0x4b,0x58,0x84,0x5c,0x80,0x4b,0x00,0x00,0x80,0x3f,0x00,0xac,0x74,0x90,0x43,0x72,
0x00,0x90,0x4f,0x72,0x81,0x2c,0x90,0x46,0x5d,0x00,0x90,0x52,0x5d,0x04,0x80,0x4f,
0x00,0x00,0x80,0x43,0x00,0x58,0x80,0x52,0x00,0x00,0x80,0x46,0x00,0x14,0x90,0x43,
0x64,0x00,0x90,0x4f,0x64,0x84,0x00,0x80,0x4f,0x00,0x00,0x80,0x43,0x00,0x82,0x60,
0x90,0x41,0x7d,0x00,0x90,0x4d,0x7d,0x81,0x44,0x90,0x3f,0x62,0x00,0x90,0x4b,0x62,
0x04,0x80,0x4d,0x00,0x00,0x80,0x41,0x00,0x81,0x2c,0x80,0x4b,0x00,0x00,0x80,0x3f,
0x00,0x08,0x90,0x43,0x5d,0x00,0x90,0x4f,0x5d,0x81,0x50,0x90,0x41,0x63,0x00,0x90,
0x4d,0x63,0x04,0x80,0x4f,0x00,0x00,0x80,0x43,0x00,0x82,0x74,0x80,0x4d,0x00,0x00,
0x80,0x41,0x00,0x00,0x90,0x3f,0x66,0x00,0x90,0x4b,0x66,0x82,0x14,0x80,0x4b,0x00,
0x00,0x80,0x3f,0x00,0x83,0x5c,0x90,0x41,0x5e,0x00,0x90,0x4d,0x5e,0x83,0x00,0x80,
0x4d,0x00,0x00,0x80,0x41,0x00,0x08,0x90,0x3f,0x58,0x00,0x90,0x4b,0x58,0x5c,0x80,
0x4b,0x00,0x00,0x80,0x3f,0x00,0x6c,0x90,0x41,0x5d,0x00,0x90,0x4d,0x5d,0x81,0x50,
0x80,0x4d,0x00,0x00,0x80,0x41,0x00,0x81,0x30,0x90,0x41,0x5d,0x00,0x90,0x4d,0x5d,
0x81,0x34,0x80,0x4d,0x00,0x00,0x80,0x41,0x00,0x00,0x90,0x3f,0x55,0x00,0x90,0x4b,
0x55,0x82,0x4c,0x80,0x4b,0x00,0x00,0x80,0x3f,0x00,0x1c,0x90,0x43,0x53,0x00,0x90,
0x4f,0x53,0x81,0x4c,0x90,0x3f,0x57,0x00,0x90,0x4b,0x57,0x04,0x80,0x4f,0x00,0x00,
0x80,0x43,0x00,0x83,0x54,0x80,0x4b,0x00,0x00,0x80,0x3f,0x00,0x86,0x78,0x90,0x43,
0x63,0x00,0x90,0x4f,0x63,0x58,0x80,0x4f,0x00,0x00,0x80,0x43,0x00,0x64,0x90,0x43,
0x64,0x00,0x90,0x4f,0x64,0x5c,0x90,0x46,0x6a,0x00,0x90,0x52,0x6a,0x14,0x80,0x4f,
0x00,0x00,0x80,0x43,0x00,0x81,0x24,0x80,0x52,0x00,0x00,0x80,0x46,0x00,0x00,0x90,
0x48,0x62,0x00,0x90,0x54,0x62,0x82,0x24,0x80,0x54,0x00,0x00,0x80,0x48,0x00,0x10,
0x90,0x43,0x6b,0x00,0x90,0x4f,0x6b,0x81,0x60,0x80,0x4f,0x00,0x00,0x80,0x43,0x00,
0x81,0x1c,0x90,0x43,0x72,0x00,0x90,0x4f,0x72,0x81,0x44,0x80,0x4f,0x00,0x00,0x80,
0x43,0x00,0x08,0x90,0x41,0x6d,0x00,0x90,0x4d,0x6d,0x81,0x44,0x80,0x4d,0x00,0x00,
0x80,0x41,0x00,0x08,0x90,0x3f,0x60,0x00,0x90,0x4b,0x60,0x81,0x2c,0x90,0x43,0x5c,
0x00,0x90,0x4f,0x5c,0x14,0x80,0x4b,0x00,0x00,0x80,0x3f,0x00,0x81,0x24,0x80,0x4f,
0x00,0x00,0x80,0x43,0x00,0x1c,0x90,0x41,0x62,0x00,0x90,0x4d,0x62,0x82,0x6c,0x90,
0x3f,0x66,0x00,0x90,0x4b,0x66,0x04,0x80,0x4d,0x00,0x00,0x80,0x41,0x00,0x81,0x64,
0x80,0x4b,0x00,0x00,0x80,0x3f,0x00,0x81,0x00,0x90,0x3f,0x67,0x00,0x90,0x4b,0x67,
0x81,0x3c,0x90,0x41,0x62,0x00,0x90,0x4d,0x62,0x10,0x80,0x4b,0x00,0x00,0x80,0x3f,
0x00,0x81,0x64,0x80,0x4d,0x00,0x00,0x80,0x41,0x00,0x81,0x18,0x90,0x41,0x63,0x00,
0x90,0x4d,0x63,0x81,0x40,0x80,0x4d,0x00,0x00,0x80,0x41,0x00,0x0c,0x90,0x3f,0x5a,
0x00,0x90,0x4b,0x5a,0x6c,0x80,0x4b,0x00,0x00,0x80,0x3f,0x00,0x5c,0x90,0x41,0x62,
0x00,0x90,0x4d,0x62,0x81,0x2c,0x80,0x4d,0x00,0x00,0x80,0x41,0x00,0x08,0x90,0x3f,
0x53,0x00,0x90,0x4b,0x53,0x58,0x90,0x41,0x60,0x00,0x90,0x4d,0x60,0x04,0x80,0x4b,
0x00,0x00,0x80,0x3f,0x00,0x82,0x14,0x80,0x4d,0x00,0x00,0x80,0x41,0x00,0x08,0x90,
0x3f,0x58,0x00,0x90,0x4b,0x58,0x81,0x4c,0x80,0x4b,0x00,0x00,0x80,0x3f,0x00,0x00,
0x90,0x43,0x6b,0x00,0x90,0x4f,0x6b,0x84,0x1c,0x80,0x4f,0x00,0x00,0x80,0x43,0x00,
0x83,0x24,0x90,0x41,0x75,0x00,0x90,0x4d,0x75,0x82,0x18,0x80,0x4d,0x00,0x00,0x80,
0x41,0x00,0x10,0x90,0x43,0x63,0x00,0x90,0x4f,0x63,0x82,0x24,0x80,0x4f,0x00,0x00,
0x80,0x43,0x00,0x08,0x90,0x44,0x6e,0x00,0x90,0x50,0x6e,0x82,0x10,0x80,0x50,0x00,
0x00,0x80,0x44,0x00,0x5c,0x90,0x44,0x68,0x00,0x90,0x50,0x68,0x50,0x80,0x50,0x00,
0x00,0x80,0x44,0x00,0x6c,0x90,0x44,0x65,0x00,0x90,0x50,0x65,0x4c,0x80,0x50,0x00,
0x00,0x80,0x44,0x00,0x74,0x90,0x44,0x79,0x00,0x90,0x50,0x79,0x81,0x38,0x80,0x50,
0x00,0x00,0x80,0x44,0x00,0x10,0x90,0x43,0x69,0x00,0x90,0x4f,0x69,0x81,0x30,0x80,
0x4f,0x00,0x00,0x80,0x43,0x00,0x0c,0x90,0x41,0x69,0x00,0x90,0x4d,0x69,0x81,0x34,
0x90,0x3f,0x66,0x00,0x90,0x4b,0x66,0x14,0x80,0x4d,0x00,0x00,0x80,0x41,0x00,0x58,
0x80,0x4b,0x00,0x00,0x80,0x3f,0x00,0x6c,0x90,0x3f,0x75,0x00,0x90,0x4b,0x75,0x81,
0x40,0x90,0x41,0x63,0x00,0x90,0x4d,0x63,0x04,0x80,0x4b,0x00,0x00,0x80,0x3f,0x00,
0x81,0x2c,0x80,0x4d,0x00,0x00,0x80,0x41,0x00,0x08,0x90,0x43,0x63,0x00,0x90,0x4f,
0x63,0x81,0x2c,0x80,0x4f,0x00,0x00,0x80,0x43,0x00,0x10,0x90,0x41,0x68,0x00,0x90,
0x4d,0x68,0x82,0x10,0x80,0x4d,0x00,0x00,0x80,0x41,0x00,0x78,0x90,0x41,0x79,0x00,
0x90,0x4d,0x79,0x82,0x1c,0x80,0x4d,0x00,0x00,0x80,0x41,0x00,0x08,0x90,0x43,0x72,
0x00,0x90,0x4f,0x72,0x82,0x0c,0x80,0x4f,0x00,0x00,0x80,0x43,0x00,0x14,0x90,0x44,
0x71,0x00,0x90,0x50,0x71,0x82,0x0c,0x80,0x50,0x00,0x00,0x80,0x44,0x00,0x58,0x90,
0x44,0x75,0x00,0x90,0x50,0x75,0x81,0x00,0x80,0x50,0x00,0x00,0x80,0x44,0x00,0x48,
0x90,0x44,0x61,0x00,0x90,0x50,0x61,0x5c,0x80,0x50,0x00,0x00,0x80,0x44,0x00,0x6c,
0x90,0x44,0x79,0x00,0x90,0x50,0x79,0x81,0x24,0x80,0x50,0x00,0x00,0x80,0x44,0x00,
0x1c,0x90,0x43,0x66,0x00,0x90,0x4f,0x66,0x81,0x28,0x80,0x4f,0x00,0x00,0x80,0x43,
0x00,0x08,0x90,0x41,0x68,0x00,0x90,0x4d,0x68,0x81,0x3c,0x80,0x4d,0x00,0x00,0x80,
0x41,0x00,0x08,0x90,0x3f,0x61,0x00,0x90,0x4b,0x61,0x81,0x30,0x80,0x4b,0x00,0x00,
0x80,0x3f,0x00,0x10,0x90,0x43,0x60,0x00,0x90,0x4f,0x60,0x82,0x58,0x80,0x4f,0x00,
0x00,0x80,0x43,0x00,0x24,0x90,0x41,0x66,0x00,0x90,0x4d,0x66,0x83,0x58,0x80,0x4d,
0x00,0x00,0x80,0x41,0x00,0x81,0x00,0x90,0x41,0x69,0x00,0x90,0x4d,0x69,0x82,0x10,
0x80,0x4d,0x00,0x00,0x80,0x41,0x00,0x14,0x90,0x43,0x69,0x00,0x90,0x4f,0x69,0x82,
0x18,0x80,0x4f,0x00,0x00,0x80,0x43,0x00,0x08,0x90,0x44,0x6a,0x00,0x90,0x50,0x6a,
0x82,0x14,0x80,0x50,0x00,0x00,0x80,0x44,0x00,0x4c,0x90,0x44,0x5c,0x00,0x90,0x50,
0x5c,0x68,0x80,0x50,0x00,0x00,0x80,0x44,0x00,0x60,0x90,0x44,0x5d,0x00,0x90,0x50,
0x5d,0x5c,0x80,0x50,0x00,0x00,0x80,0x44,0x00,0x6c,0x90,0x44,0x67,0x00,0x90,0x50,
0x67,0x81,0x2c,0x80,0x50,0x00,0x00,0x80,0x44,0x00,0x14,0x90,0x43,0x62,0x00,0x90,
0x4f,0x62,0x81,0x3c,0x80,0x4f,0x00,0x00,0x80,0x43,0x00,0x0c,0x90,0x41,0x5f,0x00,
0x90,0x4d,0x5f,0x81,0x30,0x90,0x3f,0x5b,0x00,0x90,0x4b,0x5b,0x14,0x80,0x4d,0x00,
0x00,0x80,0x41,0x00,0x4c,0x80,0x4b,0x00,0x00,0x80,0x3f,0x00,0x70,0x90,0x3f,0x62,
0x00,0x90,0x4b,0x62,0x81,0x34,0x80,0x4b,0x00,0x00,0x80,0x3f,0x00,0x08,0x90,0x41,
0x5b,0x00,0x90,0x4d,0x5b,0x81,0x40,0x80,0x4d,0x00,0x00,0x80,0x41,0x00,0x08,0x90,
0x43,0x58,0x00,0x90,0x4f,0x58,0x81,0x40,0x80,0x4f,0x00,0x00,0x80,0x43,0x00,0x08,
0x90,0x41,0x5e,0x00,0x90,0x4d,0x5e,0x82,0x18,0x80,0x4d,0x00,0x00,0x80,0x41,0x00,
0x64,0x90,0x41,0x69,0x00,0x90,0x4d,0x69,0x82,0x0c,0x80,0x4d,0x00,0x00,0x80,0x41,
0x00,0x14,0x90,0x43,0x66,0x00,0x90,0x4f,0x66,0x81,0x54,0x80,0x4f,0x00,0x00,0x80,
0x43,0x00,0x4c,0x90,0x44,0x75,0x00,0x90,0x50,0x75,0x81,0x78,0x80,0x50,0x00,0x00,
0x80,0x44,0x00,0x10,0x90,0x43,0x64,0x00,0x90,0x4f,0x64,0x81,0x5c,0x80,0x4f,0x00,
0x00,0x80,0x43,0x00,0x24,0x90,0x44,0x71,0x00,0x90,0x50,0x71,0x81,0x74,0x80,0x50,
0x00,0x00,0x80,0x44,0x00,0x08,0x90,0x46,0x6e,0x00,0x90,0x52,0x6e,0x82,0x08,0x80,
0x52,0x00,0x00,0x80,0x46,0x00,0x08,0x90,0x44,0x68,0x00,0x90,0x50,0x68,0x81,0x54,
0x80,0x50,0x00,0x00,0x80,0x44,0x00,0x1c,0x90,0x46,0x6e,0x00,0x90,0x52,0x6e,0x81,
0x5c,0x80,0x52,0x00,0x00,0x80,0x46,0x00,0x14,0x90,0x48,0x64,0x00,0x90,0x54,0x64,
0x90,0x3c,0x80,0x54,0x00,0x00,0x80,0x48,0x00,0x84,0x38,0x90,0x41,0x7f,0x00,0x90,
0x4d,0x7f,0x81,0x48,0x90,0x3f,0x65,0x00,0x90,0x4b,0x65,0x04,0x80,0x4d,0x00,0x00,
0x80,0x41,0x00,0x50,0x90,0x41,0x5b,0x00,0x90,0x4d,0x5b,0x10,0x80,0x4b,0x00,0x00,
0x80,0x3f,0x00,0x82,0x24,0x90,0x3f,0x56,0x00,0x90,0x4b,0x56,0x04,0x80,0x4d,0x00,
0x00,0x80,0x41,0x00,0x84,0x38,0x80,0x4b,0x00,0x00,0x80,0x3f,0x00,0x81,0xde,0x08,
0xb0,0x40,0x00,0x00,0xd0,0x00,0x00,0xb0,0x40,0x00,0x00,0xd0,0x00,0x00,0xe0,0x00,
0x40,0x81,0x40,0xff,0x2f,0x00,0x4d,0x54,0x72,0x6b,0x00,0x00,0x10,0x02,0x00,0xff,
0x03,0x0a,0x46,0x49,0x4e,0x47,0x45,0x52,0x44,0x42,0x41,0x53,0x98,0x00,0xb1,0x5b,
0x28,0x04,0xb1,0x5d,0x00,0x04,0xb1,0x0a,0x40,0x58,0xf0,0x0a,0x41,0x10,0x42,0x12,
0x40,0x12,0x34,0x41,0x39,0xf7,0x04,0xf0,0x0a,0x41,0x10,0x42,0x12,0x40,0x12,0x35,
0x48,0x31,0xf7,0x04,0xf0,0x0a,0x41,0x10,0x42,0x12,0x40,0x12,0x32,0x32,0x4a,0xf7,
0x04,0xf0,0x0a,0x41,0x10,0x42,0x12,0x40,0x12,0x33,0x2c,0x4f,0xf7,0xbb,0x14,0xb1,
0x07,0x64,0x00,0xc1,0x21,0x04,0x91,0x24,0x79,0x81,0x70,0x81,0x24,0x00,0x84,0x10,
0x91,0x24,0x79,0x81,0x38,0x81,0x24,0x00,0x64,0x91,0x22,0x79,0x81,0x28,0x81,0x22,
0x00,0x78,0x91,0x24,0x79,0x81,0x74,0x81,0x24,0x00,0x85,0x50,0x91,0x24,0x79,0x81,
0x2c,0x81,0x24,0x00,0x70,0x91,0x22,0x79,0x81,0x24,0x81,0x22,0x00,0x7c,0x91,0x24,
0x79,0x81,0x58,0x81,0x24,0x00,0x85,0x68,0x91,0x24,0x79,0x81,0x20,0x81,0x24,0x00,
0x81,0x00,0x91,0x1f,0x79,0x81,0x28,0x81,0x1f,0x00,0x78,0x91,0x20,0x79,0x8a,0x64,
0x81,0x20,0x00,0x82,0x60,0x91,0x24,0x79,0x81,0x70,0x81,0x24,0x00,0x84,0x0c,0x91,
0x24,0x79,0x81,0x24,0x81,0x24,0x00,0x7c,0x91,0x22,0x79,0x81,0x24,0x81,0x22,0x00,
0x7c,0x91,0x24,0x79,0x81,0x58,0x81,0x24,0x00,0x87,0x28,0x91,0x24,0x79,0x81,0x2c,
0x81,0x24,0x00,0x74,0x91,0x22,0x79,0x81,0x4c,0x81,0x22,0x00,0x58,0x91,0x24,0x79,
0x81,0x60,0x81,0x24,0x00,0x84,0x20,0x91,0x24,0x79,0x81,0x24,0x81,0x24,0x00,0x78,
0x91,0x1f,0x79,0x81,0x24,0x81,0x1f,0x00,0x7c,0x91,0x20,0x79,0x88,0x08,0x81,0x20,
0x00,0x85,0x3c,0x91,0x24,0x79,0x81,0x54,0x81,0x24,0x00,0x81,0x2c,0x91,0x24,0x79,
0x81,0x54,0x81,0x24,0x00,0x81,0x2c,0x91,0x24,0x79,0x81,0x4c,0x81,0x24,0x00,0x81,
0x34,0x91,0x24,0x79,0x81,0x54,0x81,0x24,0x00,0x81,0x2c,0x91,0x24,0x79,0x81,0x68,
0x81,0x24,0x00,0x81,0x18,0x91,0x24,0x79,0x81,0x68,0x81,0x24,0x00,0x81,0x18,0x91,
0x24,0x79,0x81,0x4c,0x81,0x24,0x00,0x81,0x34,0x91,0x24,0x79,0x81,0x60,0x81,0x24,
0x00,0x81,0x20,0x91,0x24,0x79,0x81,0x40,0x81,0x24,0x00,0x81,0x40,0x91,0x24,0x79,
0x81,0x44,0x81,0x24,0x00,0x81,0x3c,0x91,0x24,0x79,0x81,0x14,0x81,0x24,0x00,0x81,
0x08,0x91,0x1d,0x79,0x82,0x20,0x81,0x1d,0x00,0x00,0x91,0x1f,0x79,0x81,0x40,0x81,
0x1f,0x00,0x04,0x91,0x20,0x79,0x81,0x74,0x81,0x20,0x00,0x81,0x0c,0x91,0x20,0x79,
0x81,0x64,0x81,0x20,0x00,0x81,0x1c,0x91,0x20,0x79,0x81,0x60,0x81,0x20,0x00,0x81,
0x20,0x91,0x20,0x79,0x81,0x74,0x81,0x20,0x00,0x81,0x0c,0x91,0x24,0x79,0x81,0x5c,
0x81,0x24,0x00,0x81,0x24,0x91,0x24,0x79,0x81,0x68,0x81,0x24,0x00,0x81,0x18,0x91,
0x24,0x79,0x81,0x4c,0x81,0x24,0x00,0x81,0x34,0x91,0x24,0x79,0x81,0x68,0x81,0x24,
0x00,0x81,0x18,0x91,0x24,0x79,0x81,0x68,0x81,0x24,0x00,0x81,0x18,0x91,0x24,0x79,
0x81,0x5c,0x81,0x24,0x00,0x81,0x24,0x91,0x24,0x79,0x81,0x5c,0x81,0x24,0x00,0x81,
0x24,0x91,0x24,0x79,0x81,0x4c,0x81,0x24,0x00,0x81,0x34,0x91,0x24,0x79,0x81,0x48,
0x81,0x24,0x00,0x81,0x38,0x91,0x24,0x79,0x81,0x48,0x81,0x24,0x00,0x81,0x38,0x91,
0x24,0x79,0x81,0x04,0x81,0x24,0x00,0x81,0x18,0x91,0x1d,0x79,0x82,0x20,0x81,0x1d,
0x00,0x00,0x91,0x1f,0x79,0x81,0x40,0x81,0x1f,0x00,0x04,0x91,0x20,0x79,0x82,0x00,
0x81,0x20,0x00,0x81,0x00,0x91,0x20,0x79,0x81,0x6c,0x81,0x20,0x00,0x81,0x14,0x91,
0x20,0x79,0x81,0x74,0x81,0x20,0x00,0x81,0x0c,0x91,0x20,0x79,0x81,0x68,0x81,0x20,
0x00,0x81,0x18,0x91,0x24,0x79,0x81,0x70,0x81,0x24,0x00,0x81,0x10,0x91,0x24,0x79,
0x81,0x60,0x81,0x24,0x00,0x81,0x20,0x91,0x24,0x79,0x81,0x5c,0x81,0x24,0x00,0x81,
0x24,0x91,0x24,0x79,0x81,0x70,0x81,0x24,0x00,0x81,0x10,0x91,0x24,0x79,0x81,0x54,
0x81,0x24,0x00,0x81,0x2c,0x91,0x24,0x79,0x81,0x40,0x81,0x24,0x00,0x81,0x40,0x91,
0x24,0x79,0x81,0x24,0x81,0x24,0x00,0x18,0x91,0x1f,0x79,0x60,0x81,0x1f,0x00,0x00,
0x91,0x22,0x79,0x81,0x40,0x81,0x22,0x00,0x00,0x91,0x1f,0x79,0x60,0x81,0x1f,0x00,
0x00,0x91,0x23,0x79,0x81,0x3c,0x81,0x23,0x00,0x08,0x91,0x24,0x79,0x81,0x54,0x81,
0x24,0x00,0x81,0x2c,0x91,0x24,0x79,0x81,0x68,0x81,0x24,0x00,0x81,0x18,0x91,0x24,
0x79,0x81,0x54,0x81,0x24,0x00,0x81,0x2c,0x91,0x24,0x79,0x82,0x04,0x81,0x24,0x00,
0x7c,0x91,0x24,0x79,0x81,0x78,0x81,0x24,0x00,0x81,0x08,0x91,0x24,0x79,0x81,0x7c,
0x81,0x24,0x00,0x81,0x04,0x91,0x24,0x79,0x81,0x74,0x81,0x24,0x00,0x81,0x0c,0x91,
0x24,0x79,0x82,0x04,0x81,0x24,0x00,0x7c,0x91,0x24,0x79,0x81,0x68,0x81,0x24,0x00,
0x81,0x18,0x91,0x24,0x79,0x82,0x04,0x81,0x24,0x00,0x7c,0x91,0x24,0x79,0x81,0x70,
0x81,0x24,0x00,0x81,0x10,0x91,0x24,0x79,0x81,0x74,0x81,0x24,0x00,0x81,0x0c,0x91,
0x24,0x79,0x81,0x60,0x81,0x24,0x00,0x81,0x20,0x91,0x24,0x79,0x81,0x5c,0x81,0x24,
0x00,0x81,0x24,0x91,0x24,0x79,0x81,0x30,0x81,0x24,0x00,0x0c,0x91,0x1f,0x79,0x5c,
0x81,0x1f,0x00,0x04,0x91,0x22,0x79,0x81,0x40,0x81,0x22,0x00,0x00,0x91,0x1f,0x79,
0x60,0x81,0x1f,0x00,0x00,0x91,0x23,0x79,0x81,0x3c,0x81,0x23,0x00,0x08,0x91,0x24,
0x79,0x81,0x44,0x81,0x24,0x00,0x81,0x3c,0x91,0x24,0x79,0x81,0x7c,0x81,0x24,0x00,
0x81,0x04,0x91,0x24,0x79,0x81,0x64,0x81,0x24,0x00,0x81,0x1c,0x91,0x24,0x79,0x82,
0x04,0x81,0x24,0x00,0x7c,0x91,0x24,0x79,0x82,0x04,0x81,0x24,0x00,0x7c,0x91,0x24,
0x79,0x81,0x70,0x81,0x24,0x00,0x81,0x10,0x91,0x24,0x79,0x81,0x70,0x81,0x24,0x00,
0x81,0x10,0x91,0x24,0x79,0x82,0x04,0x81,0x24,0x00,0x7c,0x91,0x24,0x79,0x81,0x70,
0x81,0x24,0x00,0x81,0x10,0x91,0x24,0x79,0x82,0x08,0x81,0x24,0x00,0x78,0x91,0x24,
0x79,0x81,0x74,0x81,0x24,0x00,0x81,0x0c,0x91,0x24,0x79,0x82,0x04,0x81,0x24,0x00,
0x7c,0x91,0x24,0x79,0x81,0x68,0x81,0x24,0x00,0x81,0x18,0x91,0x24,0x79,0x81,0x54,
0x81,0x24,0x00,0x81,0x2c,0x91,0x24,0x79,0x81,0x64,0x81,0x24,0x00,0x38,0x91,0x1f,
0x79,0x82,0x20,0x81,0x1f,0x00,0x00,0x91,0x22,0x79,0x81,0x38,0x81,0x22,0x00,0x0c,
0x91,0x24,0x79,0x82,0x00,0x81,0x24,0x00,0x81,0x00,0x91,0x24,0x79,0x82,0x10,0x81,
0x24,0x00,0x70,0x91,0x24,0x79,0x81,0x74,0x81,0x24,0x00,0x81,0x0c,0x91,0x24,0x79,
0x82,0x70,0x81,0x24,0x00,0x10,0x91,0x20,0x79,0x81,0x44,0x81,0x20,0x00,0x81,0x3c,
0x91,0x20,0x79,0x81,0x58,0x81,0x20,0x00,0x81,0x28,0x91,0x20,0x79,0x81,0x50,0x81,
0x20,0x00,0x81,0x30,0x91,0x20,0x79,0x82,0x30,0x81,0x20,0x00,0x50,0x91,0x22,0x79,
0x81,0x74,0x81,0x22,0x00,0x81,0x0c,0x91,0x22,0x79,0x81,0x6c,0x81,0x22,0x00,0x81,
0x14,0x91,0x22,0x79,0x81,0x58,0x81,0x22,0x00,0x81,0x28,0x91,0x22,0x79,0x81,0x7c,
0x81,0x22,0x00,0x81,0x04,0x91,0x24,0x79,0x81,0x7c,0x81,0x24,0x00,0x81,0x04,0x91,
0x24,0x79,0x81,0x64,0x81,0x24,0x00,0x81,0x1c,0x91,0x24,0x79,0x81,0x3c,0x81,0x24,
0x00,0x00,0x91,0x1f,0x79,0x60,0x81,0x1f,0x00,0x00,0x91,0x22,0x79,0x81,0x40,0x81,
0x22,0x00,0x00,0x91,0x1f,0x79,0x82,0x14,0x81,0x1f,0x00,0x10,0x91,0x24,0x79,0x81,
0x58,0x81,0x24,0x00,0x81,0x28,0x91,0x24,0x79,0x81,0x68,0x81,0x24,0x00,0x81,0x18,
0x91,0x24,0x79,0x81,0x78,0x81,0x24,0x00,0x81,0x08,0x91,0x24,0x79,0x82,0x6c,0x81,
0x24,0x00,0x14,0x91,0x20,0x79,0x81,0x3c,0x81,0x20,0x00,0x81,0x44,0x91,0x20,0x79,
0x81,0x50,0x81,0x20,0x00,0x81,0x30,0x91,0x20,0x79,0x81,0x54,0x81,0x20,0x00,0x81,
0x2c,0x91,0x20,0x79,0x82,0x5c,0x81,0x20,0x00,0x24,0x91,0x22,0x79,0x81,0x6c,0x81,
0x22,0x00,0x81,0x14,0x91,0x22,0x79,0x81,0x68,0x81,0x22,0x00,0x81,0x18,0x91,0x22,
0x79,0x81,0x68,0x81,0x22,0x00,0x81,0x18,0x91,0x22,0x79,0x82,0x24,0x81,0x22,0x00,
0x5c,0x91,0x24,0x79,0x82,0x00,0x81,0x24,0x00,0x81,0x00,0x91,0x24,0x79,0x82,0x00,
0x81,0x24,0x00,0x81,0x00,0x91,0x24,0x79,0x74,0x81,0x24,0x00,0x48,0x91,0x22,0x79,
0x82,0x04,0x81,0x22,0x00,0x1c,0x91,0x1f,0x79,0x81,0x70,0x81,0x1f,0x00,0x34,0x91,
0x1d,0x79,0x81,0x7c,0x81,0x1d,0x00,0x81,0x04,0x91,0x1d,0x79,0x81,0x6c,0x81,0x1d,
0x00,0x81,0x14,0x91,0x1d,0x79,0x81,0x74,0x81,0x1d,0x00,0x81,0x0c,0x91,0x1d,0x79,
0x82,0x10,0x81,0x1d,0x00,0x70,0x91,0x22,0x79,0x81,0x7c,0x81,0x22,0x00,0x81,0x04,
0x91,0x22,0x79,0x81,0x74,0x81,0x22,0x00,0x81,0x0c,0x91,0x22,0x79,0x4c,0x81,0x22,
0x00,0x70,0x91,0x22,0x79,0x82,0x14,0x81,0x22,0x00,0x0c,0x91,0x1f,0x79,0x81,0x54,
0x81,0x1f,0x00,0x50,0x91,0x1d,0x79,0x81,0x7c,0x81,0x1d,0x00,0x81,0x04,0x91,0x1d,
0x79,0x82,0x04,0x81,0x1d,0x00,0x7c,0x91,0x1d,0x79,0x81,0x68,0x81,0x1d,0x00,0x81,
0x18,0x91,0x1d,0x79,0x82,0x08,0x81,0x1d,0x00,0x78,0x91,0x1f,0x79,0x82,0x04,0x81,
0x1f,0x00,0x7c,0x91,0x22,0x79,0x82,0x2c,0x81,0x22,0x00,0x54,0x91,0x22,0x79,0x68,
0x81,0x22,0x00,0x54,0x91,0x22,0x79,0x82,0x0c,0x81,0x22,0x00,0x14,0x91,0x1f,0x79,
0x82,0x14,0x81,0x1f,0x00,0x10,0x91,0x1d,0x79,0x82,0x04,0x81,0x1d,0x00,0x7c,0x91,
0x1d,0x79,0x82,0x00,0x81,0x1d,0x00,0x81,0x00,0x91,0x1d,0x79,0x81,0x68,0x81,0x1d,
0x00,0x81,0x18,0x91,0x1d,0x79,0x82,0x00,0x81,0x1d,0x00,0x81,0x00,0x91,0x22,0x79,
0x82,0x10,0x81,0x22,0x00,0x70,0x91,0x22,0x79,0x81,0x74,0x81,0x22,0x00,0x81,0x0c,
0x91,0x22,0x79,0x82,0x04,0x81,0x22,0x00,0x7c,0x91,0x22,0x79,0x81,0x50,0x81,0x22,
0x00,0x81,0x30,0x91,0x1d,0x7f,0x81,0x7c,0x81,0x1d,0x00,0x00,0x91,0x1b,0x7f,0x81,
0x30,0x81,0x1b,0x00,0x50,0x91,0x1d,0x7f,0x81,0x48,0x81,0x1d,0x00,0x3c,0x91,0x1f,
0x7f,0x81,0x7c,0x81,0x1f,0x00,0x00,0x91,0x1d,0x7f,0x81,0x60,0x81,0x1d,0x00,0x20,
0x91,0x1f,0x7f,0x81,0x48,0x81,0x1f,0x00,0x3c,0x91,0x20,0x79,0x85,0x24,0x81,0x20,
0x00,0x5c,0x91,0x20,0x79,0x6c,0x81,0x20,0x00,0x85,0x14,0x91,0x24,0x79,0x81,0x58,
0x81,0x24,0x00,0x81,0x28,0x91,0x24,0x79,0x81,0x60,0x81,0x24,0x00,0x81,0x1c,0x91,
0x24,0x79,0x81,0x68,0x81,0x24,0x00,0x81,0x18,0x91,0x24,0x79,0x81,0x70,0x81,0x24,
0x00,0x81,0x14,0x91,0x24,0x79,0x81,0x5c,0x81,0x24,0x00,0x81,0x20,0x91,0x24,0x79,
0x81,0x68,0x81,0x24,0x00,0x81,0x18,0x91,0x24,0x79,0x81,0x38,0x81,0x24,0x00,0x08,
0x91,0x1f,0x79,0x50,0x81,0x1f,0x00,0x10,0x91,0x22,0x79,0x81,0x40,0x81,0x22,0x00,
0x00,0x91,0x1f,0x79,0x60,0x81,0x1f,0x00,0x00,0x91,0x23,0x79,0x81,0x28,0x81,0x23,
0x00,0x1c,0x91,0x24,0x79,0x81,0x7c,0x81,0x24,0x00,0x81,0x04,0x91,0x24,0x79,0x82,
0x0c,0x81,0x24,0x00,0x74,0x91,0x24,0x79,0x81,0x64,0x81,0x24,0x00,0x81,0x1c,0x91,
0x24,0x79,0x82,0x0c,0x81,0x24,0x00,0x74,0x91,0x24,0x79,0x81,0x7c,0x81,0x24,0x00,
0x81,0x04,0x91,0x24,0x79,0x82,0x04,0x81,0x24,0x00,0x7c,0x91,0x24,0x79,0x81,0x78,
0x81,0x24,0x00,0x81,0x08,0x91,0x24,0x79,0x81,0x68,0x81,0x24,0x00,0x81,0x18,0x91,
0x24,0x79,0x81,0x58,0x81,0x24,0x00,0x81,0x28,0x91,0x24,0x79,0x81,0x48,0x81,0x24,
0x00,0x81,0x38,0x91,0x24,0x79,0x81,0x48,0x81,0x24,0x00,0x81,0x38,0x91,0x24,0x79,
0x81,0x34,0x81,0x24,0x00,0x81,0x4c,0x91,0x24,0x79,0x81,0x64,0x81,0x24,0x00,0x81,
0x1c,0x91,0x24,0x79,0x81,0x7c,0x81,0x24,0x00,0x81,0x04,0x91,0x2b,0x79,0x81,0x3c,
0x81,0x2b,0x00,0x00,0x91,0x2e,0x79,0x81,0x40,0x81,0x2e,0x00,0x04,0x91,0x2b,0x79,
0x58,0x81,0x2b,0x00,0x04,0x91,0x29,0x79,0x60,0x81,0x29,0x00,0x00,0x91,0x27,0x79,
0x81,0x40,0x81,0x27,0x00,0x04,0x91,0x24,0x79,0x81,0x38,0x81,0x24,0x00,0x81,0x48,
0x91,0x24,0x79,0x81,0x58,0x81,0x24,0x00,0x81,0x28,0x91,0x24,0x79,0x81,0x54,0x81,
0x24,0x00,0x81,0x2c,0x91,0x24,0x79,0x81,0x54,0x81,0x24,0x00,0x81,0x2c,0x91,0x24,
0x79,0x81,0x44,0x81,0x24,0x00,0x81,0x3c,0x91,0x24,0x79,0x81,0x54,0x81,0x24,0x00,
0x81,0x2c,0x91,0x24,0x79,0x81,0x40,0x81,0x24,0x00,0x81,0x40,0x91,0x24,0x79,0x81,
0x4c,0x81,0x24,0x00,0x81,0x34,0x91,0x24,0x79,0x81,0x40,0x81,0x24,0x00,0x81,0x40,
0x91,0x24,0x79,0x81,0x40,0x81,0x24,0x00,0x81,0x40,0x91,0x24,0x79,0x81,0x4c,0x81,
0x24,0x00,0x81,0x34,0x91,0x24,0x79,0x81,0x1c,0x81,0x24,0x00,0x81,0x64,0x91,0x24,
0x79,0x81,0x64,0x81,0x24,0x00,0x81,0x1c,0x91,0x24,0x79,0x81,0x60,0x81,0x24,0x00,
0x81,0x20,0x91,0x24,0x79,0x6c,0x81,0x24,0x00,0x50,0x91,0x22,0x79,0x82,0x08,0x81,
0x22,0x00,0x18,0x91,0x1f,0x79,0x81,0x5c,0x81,0x1f,0x00,0x48,0x91,0x1d,0x79,0x81,
0x78,0x81,0x1d,0x00,0x81,0x08,0x91,0x1d,0x79,0x81,0x6c,0x81,0x1d,0x00,0x81,0x14,
0x91,0x1d,0x79,0x81,0x6c,0x81,0x1d,0x00,0x81,0x14,0x91,0x1d,0x79,0x82,0x2c,0x81,
0x1d,0x00,0x54,0x91,0x22,0x79,0x81,0x6c,0x81,0x22,0x00,0x81,0x14,0x91,0x22,0x79,
0x82,0x04,0x81,0x22,0x00,0x7c,0x91,0x22,0x79,0x44,0x81,0x22,0x00,0x78,0x91,0x22,
0x79,0x82,0x08,0x81,0x22,0x00,0x18,0x91,0x1f,0x79,0x82,0x1c,0x81,0x1f,0x00,0x08,
0x91,0x1d,0x79,0x82,0x08,0x81,0x1d,0x00,0x78,0x91,0x1d,0x79,0x81,0x74,0x81,0x1d,
0x00,0x81,0x0c,0x91,0x1d,0x79,0x81,0x5c,0x81,0x1d,0x00,0x81,0x24,0x91,0x1d,0x79,
0x81,0x60,0x81,0x1d,0x00,0x81,0x20,0x91,0x1f,0x79,0x81,0x78,0x81,0x1f,0x00,0x81,
0x08,0x91,0x22,0x79,0x81,0x74,0x81,0x22,0x00,0x81,0x0c,0x91,0x22,0x79,0x40,0x81,
0x22,0x00,0x7c,0x91,0x22,0x79,0x82,0x18,0x81,0x22,0x00,0x08,0x91,0x1f,0x79,0x82,
0x14,0x81,0x1f,0x00,0x10,0x91,0x1d,0x79,0x81,0x7c,0x81,0x1d,0x00,0x81,0x04,0x91,
0x1d,0x79,0x82,0x04,0x81,0x1d,0x00,0x7c,0x91,0x1d,0x79,0x81,0x70,0x81,0x1d,0x00,
0x81,0x10,0x91,0x1d,0x79,0x82,0x0c,0x81,0x1d,0x00,0x74,0x91,0x22,0x79,0x82,0x08,
0x81,0x22,0x00,0x78,0x91,0x22,0x79,0x82,0x08,0x81,0x22,0x00,0x78,0x91,0x22,0x79,
0x82,0x08,0x81,0x22,0x00,0x78,0x91,0x22,0x79,0x81,0x78,0x81,0x22,0x00,0x81,0x08,
0x91,0x1d,0x7c,0x81,0x7c,0x81,0x1d,0x00,0x00,0x91,0x1b,0x7f,0x81,0x58,0x81,0x1b,
0x00,0x28,0x91,0x1d,0x6e,0x81,0x40,0x81,0x1d,0x00,0x44,0x91,0x1f,0x7f,0x81,0x7c,
0x81,0x1f,0x00,0x00,0x91,0x1d,0x7c,0x81,0x60,0x81,0x1d,0x00,0x20,0x91,0x1f,0x7f,
0x81,0x5c,0x81,0x1f,0x00,0x28,0x91,0x20,0x79,0x86,0x24,0x81,0x20,0x00,0x85,0x5c,
0x91,0x24,0x79,0x81,0x4c,0x81,0x24,0x00,0x81,0x30,0x91,0x24,0x79,0x81,0x70,0x81,
0x24,0x00,0x81,0x14,0x91,0x24,0x79,0x81,0x64,0x81,0x24,0x00,0x81,0x1c,0x91,0x24,
0x79,0x81,0x78,0x81,0x24,0x00,0x81,0x08,0x91,0x24,0x79,0x81,0x64,0x81,0x24,0x00,
0x81,0x18,0x91,0x24,0x79,0x81,0x78,0x81,0x24,0x00,0x81,0x0c,0x91,0x24,0x79,0x81,
0x50,0x81,0x24,0x00,0x81,0x30,0x91,0x24,0x79,0x81,0x6c,0x81,0x24,0x00,0x81,0x14,
0x91,0x24,0x79,0x81,0x6c,0x81,0x24,0x00,0x81,0x14,0x91,0x24,0x79,0x81,0x64,0x81,
0x24,0x00,0x81,0x1c,0x91,0x24,0x79,0x81,0x70,0x81,0x24,0x00,0x81,0x10,0x91,0x24,
0x79,0x81,0x7c,0x81,0x24,0x00,0x81,0x04,0x91,0x24,0x79,0x81,0x5c,0x81,0x24,0x00,
0x81,0x24,0x91,0x24,0x79,0x81,0x58,0x81,0x24,0x00,0x81,0x28,0x91,0x24,0x79,0x81,
0x58,0x81,0x24,0x00,0x44,0x91,0x1f,0x79,0x60,0x81,0x1f,0x00,0x04,0x91,0x22,0x79,
0x81,0x3c,0x81,0x22,0x00,0x00,0x91,0x1f,0x79,0x81,0x40,0x81,0x1f,0x00,0x04,0x91,
0x24,0x79,0x81,0x70,0x81,0x24,0x00,0x81,0x10,0x91,0x24,0x79,0x82,0x0c,0x81,0x24,
0x00,0x74,0x91,0x24,0x79,0x81,0x60,0x81,0x24,0x00,0x81,0x20,0x91,0x24,0x79,0x82,
0x04,0x81,0x24,0x00,0x7c,0x91,0x24,0x79,0x82,0x04,0x81,0x24,0x00,0x7c,0x91,0x24,
0x79,0x81,0x74,0x81,0x24,0x00,0x81,0x0c,0x91,0x24,0x79,0x81,0x64,0x81,0x24,0x00,
0x81,0x1c,0x91,0x24,0x79,0x81,0x70,0x81,0x24,0x00,0x81,0x10,0x91,0x24,0x79,0x81,
0x78,0x81,0x24,0x00,0x81,0x08,0x91,0x24,0x79,0x81,0x70,0x81,0x24,0x00,0x81,0x10,
0x91,0x24,0x79,0x81,0x64,0x81,0x24,0x00,0x81,0x1c,0x91,0x24,0x79,0x81,0x70,0x81,
0x24,0x00,0x81,0x10,0x91,0x24,0x79,0x81,0x70,0x81,0x24,0x00,0x81,0x10,0x91,0x24,
0x79,0x81,0x64,0x81,0x24,0x00,0x81,0x1c,0x91,0x24,0x79,0x82,0x1c,0x81,0x24,0x00,
0x00,0x91,0x1f,0x79,0x60,0x81,0x1f,0x00,0x04,0x91,0x22,0x79,0x81,0x38,0x81,0x22,
0x00,0x04,0x91,0x23,0x79,0x81,0x28,0x81,0x23,0x00,0x1c,0x91,0x24,0x79,0x82,0x08,
0x81,0x24,0x00,0x78,0x91,0x24,0x79,0x82,0x04,0x81,0x24,0x00,0x7c,0x91,0x24,0x79,
0x81,0x74,0x81,0x24,0x00,0x81,0x0c,0x91,0x24,0x79,0x82,0x04,0x81,0x24,0x00,0x7c,
0x91,0x24,0x79,0x81,0x7c,0x81,0x24,0x00,0x81,0x04,0x91,0x24,0x79,0x82,0x04,0x81,
0x24,0x00,0x7c,0x91,0x24,0x79,0x81,0x7c,0x81,0x24,0x00,0x81,0x04,0x91,0x24,0x79,
0x81,0x7c,0x81,0x24,0x00,0x81,0x04,0x91,0x24,0x79,0x82,0x00,0x81,0x24,0x00,0x81,
0x00,0x91,0x24,0x79,0x81,0x78,0x81,0x24,0x00,0x81,0x08,0x91,0x24,0x79,0x81,0x78,
0x81,0x24,0x00,0x81,0x08,0x91,0x24,0x79,0x81,0x7c,0x81,0x24,0x00,0x81,0x04,0x91,
0x24,0x79,0x82,0x04,0x81,0x24,0x00,0x7c,0x91,0x24,0x79,0x82,0x00,0x81,0x24,0x00,
0x81,0x00,0x91,0x24,0x79,0x68,0x81,0x24,0x00,0x54,0x91,0x22,0x79,0x82,0x0c,0x81,
0x22,0x00,0x14,0x91,0x1f,0x79,0x81,0x68,0x81,0x1f,0x00,0x3c,0x91,0x1d,0x79,0x81,
0x7c,0x81,0x1d,0x00,0x81,0x04,0x91,0x1d,0x79,0x81,0x68,0x81,0x1d,0x00,0x81,0x18,
0x91,0x1d,0x79,0x81,0x74,0x81,0x1d,0x00,0x81,0x0c,0x91,0x1d,0x79,0x82,0x08,0x81,
0x1d,0x00,0x78,0x91,0x22,0x79,0x81,0x7c,0x81,0x22,0x00,0x81,0x04,0x91,0x22,0x79,
0x82,0x0c,0x81,0x22,0x00,0x74,0x91,0x22,0x79,0x4c,0x81,0x22,0x00,0x70,0x91,0x22,
0x79,0x82,0x18,0x81,0x22,0x00,0x08,0x91,0x1f,0x79,0x82,0x14,0x81,0x1f,0x00,0x10,
0x91,0x1d,0x79,0x81,0x70,0x81,0x1d,0x00,0x81,0x10,0x91,0x1d,0x79,0x81,0x68,0x81,
0x1d,0x00,0x81,0x18,0x91,0x1d,0x79,0x81,0x68,0x81,0x1d,0x00,0x81,0x18,0x91,0x1d,
0x79,0x81,0x70,0x81,0x1d,0x00,0x81,0x10,0x91,0x1f,0x79,0x82,0x08,0x81,0x1f,0x00,
0x78,0x91,0x22,0x79,0x82,0x24,0x81,0x22,0x00,0x5c,0x91,0x22,0x79,0x68,0x81,0x22,
0x00,0x54,0x91,0x22,0x79,0x82,0x08,0x81,0x22,0x00,0x18,0x91,0x1f,0x79,0x82,0x10,
0x81,0x1f,0x00,0x14,0x91,0x1d,0x79,0x81,0x78,0x81,0x1d,0x00,0x81,0x08,0x91,0x1d,
0x79,0x81,0x64,0x81,0x1d,0x00,0x81,0x1c,0x91,0x1d,0x79,0x81,0x7c,0x81,0x1d,0x00,
0x81,0x04,0x91,0x1d,0x79,0x82,0x10,0x81,0x1d,0x00,0x70,0x91,0x22,0x79,0x82,0x24,
0x81,0x22,0x00,0x5c,0x91,0x22,0x79,0x82,0x04,0x81,0x22,0x00,0x7c,0x91,0x22,0x79,
0x82,0x00,0x81,0x22,0x00,0x81,0x00,0x91,0x22,0x79,0x82,0x00,0x81,0x22,0x00,0x81,
0x00,0x91,0x1d,0x7f,0x81,0x7c,0x81,0x1d,0x00,0x00,0x91,0x1b,0x7f,0x81,0x4c,0x81,
0x1b,0x00,0x34,0x91,0x1d,0x6c,0x81,0x48,0x81,0x1d,0x00,0x3c,0x91,0x1f,0x7f,0x81,
0x7c,0x81,0x1f,0x00,0x00,0x91,0x1d,0x77,0x81,0x68,0x81,0x1d,0x00,0x18,0x91,0x1f,
0x7f,0x81,0x3c,0x81,0x1f,0x00,0x48,0x91,0x20,0x79,0x82,0x1c,0x81,0x20,0x00,0x64,
0x91,0x20,0x79,0x82,0x10,0x81,0x20,0x00,0x70,0x91,0x20,0x79,0x82,0x04,0x81,0x20,
0x00,0x7c,0x91,0x20,0x79,0x82,0x20,0x81,0x20,0x00,0x60,0x91,0x20,0x79,0x85,0x1c,
0x81,0x20,0x00,0x64,0x91,0x20,0x79,0x81,0x00,0x81,0x20,0x00,0x85,0x00,0x91,0x24,
0x79,0x81,0x6c,0x81,0x24,0x00,0x81,0x14,0x91,0x24,0x79,0x81,0x70,0x81,0x24,0x00,
0x81,0x10,0x91,0x24,0x79,0x81,0x5c,0x81,0x24,0x00,0x81,0x24,0x91,0x24,0x79,0x81,
0x58,0x81,0x24,0x00,0x81,0x28,0x91,0x24,0x79,0x81,0x50,0x81,0x24,0x00,0x81,0x30,
0x91,0x24,0x79,0x81,0x60,0x81,0x24,0x00,0x81,0x20,0x91,0x24,0x79,0x81,0x48,0x81,
0x24,0x00,0x81,0x38,0x91,0x24,0x79,0x81,0x48,0x81,0x24,0x00,0x81,0x38,0x91,0x24,
0x79,0x81,0x44,0x81,0x24,0x00,0x81,0x3c,0x91,0x24,0x79,0x81,0x1c,0x81,0x24,0x00,
0x81,0x64,0x91,0x24,0x79,0x81,0x10,0x81,0x24,0x00,0x81,0x70,0x91,0x24,0x79,0x81,
0x00,0x81,0x24,0x00,0x82,0x00,0x91,0x24,0x79,0x81,0x08,0x81,0x24,0x00,0x81,0x78,
0x91,0x24,0x79,0x81,0x04,0x81,0x24,0x00,0x81,0x7c,0x91,0x24,0x79,0x81,0x10,0x81,
0x24,0x00,0x81,0x70,0x91,0x24,0x79,0x74,0x81,0x24,0x00,0x82,0x0c,0x91,0x24,0x79,
0x81,0x50,0x81,0x24,0x00,0x81,0x30,0x91,0x24,0x79,0x81,0x20,0x81,0x24,0x00,0x81,
0x60,0x91,0x24,0x79,0x81,0x38,0x81,0x24,0x00,0x04,0x91,0x1d,0x79,0x83,0x00,0x81,
0x1d,0x00,0x00,0x91,0x1f,0x79,0x81,0x38,0x81,0x1f,0x00,0x0c,0x91,0x20,0x79,0x81,
0x70,0x81,0x20,0x00,0x81,0x10,0x91,0x20,0x79,0x81,0x68,0x81,0x20,0x00,0x81,0x18,
0x91,0x20,0x79,0x81,0x60,0x81,0x20,0x00,0x81,0x20,0x91,0x20,0x79,0x81,0x60,0x81,
0x20,0x00,0x81,0x20,0x91,0x24,0x79,0x81,0x7c,0x81,0x24,0x00,0x81,0x04,0x91,0x24,
0x79,0x81,0x38,0x81,0x24,0x00,0x04,0x91,0x22,0x79,0x81,0x14,0x81,0x22,0x00,0x30,
0x91,0x24,0x79,0x81,0x20,0x81,0x24,0x00,0x81,0x60,0x91,0x24,0x79,0x81,0x4c,0x81,
0x24,0x00,0x81,0x34,0x91,0x24,0x79,0x81,0x30,0x81,0x24,0x00,0x81,0x50,0x91,0x24,
0x79,0x81,0x38,0x81,0x24,0x00,0x81,0x48,0x91,0x24,0x79,0x81,0x30,0x81,0x24,0x00,
0x81,0x50,0x91,0x24,0x79,0x81,0x0c,0x81,0x24,0x00,0x30,0x91,0x22,0x79,0x81,0x28,
0x81,0x22,0x00,0x1c,0x91,0x24,0x79,0x81,0x44,0x81,0x24,0x00,0x81,0x3c,0x91,0x24,
0x79,0x81,0x2c,0x81,0x24,0x00,0x81,0x54,0x91,0x24,0x79,0x81,0x3c,0x81,0x24,0x00,
0x00,0x91,0x1d,0x79,0x82,0x6c,0x81,0x1d,0x00,0x14,0x91,0x1f,0x79,0x81,0x34,0x81,
0x1f,0x00,0x10,0x91,0x20,0x79,0x81,0x60,0x81,0x20,0x00,0x81,0x20,0x91,0x20,0x79,
0x81,0x74,0x81,0x20,0x00,0x81,0x0c,0x91,0x20,0x79,0x81,0x50,0x81,0x20,0x00,0x81,
0x30,0x91,0x20,0x79,0x81,0x50,0x81,0x20,0x00,0x81,0x30,0x91,0x24,0x79,0x81,0x44,
0x81,0x24,0x00,0x81,0x3c,0x91,0x24,0x79,0x81,0x1c,0x81,0x24,0x00,0x81,0x64,0x91,
0x24,0x79,0x81,0x24,0x81,0x24,0x00,0x81,0x5c,0x91,0x24,0x79,0x81,0x0c,0x81,0x24,
0x00,0x30,0x91,0x22,0x79,0x81,0x24,0x81,0x22,0x00,0x20,0x91,0x24,0x79,0x81,0x3c,
0x81,0x24,0x00,0x81,0x44,0x91,0x24,0x79,0x81,0x1c,0x81,0x24,0x00,0x81,0x64,0x91,
0x24,0x79,0x81,0x28,0x81,0x24,0x00,0x81,0x58,0x91,0x24,0x79,0x74,0x81,0x24,0x00,
0x48,0x91,0x22,0x79,0x81,0x20,0x81,0x22,0x00,0x24,0x91,0x24,0x79,0x81,0x40,0x81,
0x24,0x00,0x81,0x40,0x91,0x24,0x79,0x81,0x38,0x81,0x24,0x00,0x81,0x48,0x91,0x24,
0x79,0x81,0x3c,0x81,0x24,0x00,0x00,0x91,0x1d,0x79,0x82,0x64,0x81,0x1d,0x00,0x1c,
0x91,0x1f,0x79,0x81,0x40,0x81,0x1f,0x00,0x04,0x91,0x20,0x79,0x81,0x78,0x81,0x20,
0x00,0x81,0x08,0x91,0x20,0x79,0x82,0x08,0x81,0x20,0x00,0x78,0x91,0x20,0x79,0x81,
0x74,0x81,0x20,0x00,0x81,0x0c,0x91,0x20,0x79,0x81,0x74,0x81,0x20,0x00,0x81,0x0c,
0x91,0x24,0x79,0x81,0x68,0x81,0x24,0x00,0x81,0x18,0x91,0x24,0x79,0x81,0x54,0x81,
0x24,0x00,0x81,0x2c,0x91,0x24,0x79,0x81,0x40,0x81,0x24,0x00,0x81,0x40,0x91,0x24,
0x79,0x81,0x14,0x81,0x24,0x00,0x28,0x91,0x22,0x79,0x81,0x2c,0x81,0x22,0x00,0x18,
0x91,0x24,0x79,0x81,0x74,0x81,0x24,0x00,0x81,0x0c,0x91,0x24,0x79,0x81,0x7c,0x81,
0x24,0x00,0x81,0x04,0x91,0x24,0x79,0x81,0x40,0x81,0x24,0x00,0x81,0x40,0x91,0x24,
0x79,0x81,0x10,0x81,0x24,0x00,0x2c,0x91,0x22,0x79,0x81,0x24,0x81,0x22,0x00,0x20,
0x91,0x24,0x79,0x81,0x54,0x81,0x24,0x00,0x81,0x2c,0x91,0x24,0x79,0x81,0x64,0x81,
0x24,0x00,0x81,0x18,0x91,0x24,0x79,0x81,0x10,0x81,0x24,0x00,0x81,0x10,0x91,0x1f,
0x79,0x81,0x44,0x81,0x1f,0x00,0x5c,0x91,0x20,0x79,0x8b,0x2c,0x81,0x20,0x00,0x8e,
0x24,0xb1,0x40,0x00,0x00,0xd1,0x00,0x00,0xe1,0x00,0x40,0x81,0x40,0xff,0x2f,0x00,
0x4d,0x54,0x72,0x6b,0x00,0x00,0x10,0xc6,0x00,0xff,0x03,0x07,0x41,0x2e,0x50,0x49,
0x41,0x4e,0x4f,0x98,0x00,0xb2,0x0a,0x5a,0x00,0xb2,0x5b,0x28,0x00,0xb2,0x5d,0x00,
0xbc,0x04,0xb2,0x07,0x7f,0x00,0xc2,0x00,0x00,0x92,0x3c,0x5e,0x00,0x92,0x3f,0x66,
0x00,0x92,0x43,0x6a,0x78,0x82,0x3f,0x00,0x0c,0x82,0x3c,0x00,0x0c,0x82,0x43,0x00,
0x84,0x70,0x92,0x3c,0x61,0x00,0x92,0x3f,0x66,0x00,0x92,0x43,0x6e,0x64,0x82,0x43,
0x00,0x00,0x82,0x3f,0x00,0x08,0x82,0x3c,0x00,0x81,0x30,0x92,0x41,0x57,0x04,0x92,
0x3a,0x62,0x00,0x92,0x3e,0x63,0x58,0x82,0x3e,0x00,0x04,0x82,0x3a,0x00,0x10,0x82,
0x41,0x00,0x81,0x34,0x92,0x3c,0x5a,0x00,0x92,0x3f,0x5f,0x00,0x92,0x43,0x61,0x70,
0x82,0x3f,0x00,0x14,0x82,0x43,0x00,0x00,0x82,0x3c,0x00,0x86,0x3c,0x92,0x3c,0x61,
0x00,0x92,0x3f,0x62,0x00,0x92,0x43,0x66,0x4c,0x82,0x3f,0x00,0x18,0x82,0x3c,0x00,
0x08,0x82,0x43,0x00,0x81,0x34,0x92,0x3a,0x62,0x00,0x92,0x3e,0x61,0x00,0x92,0x41,
0x55,0x68,0x82,0x41,0x00,0x00,0x82,0x3e,0x00,0x00,0x82,0x3a,0x00,0x81,0x38,0x92,
0x3c,0x63,0x00,0x92,0x3f,0x66,0x00,0x92,0x43,0x6a,0x6c,0x82,0x43,0x00,0x0c,0x82,
0x3f,0x00,0x04,0x82,0x3c,0x00,0x86,0x44,0x92,0x3c,0x66,0x00,0x92,0x3f,0x6a,0x00,
0x92,0x43,0x66,0x81,0x10,0x82,0x43,0x00,0x00,0x82,0x3f,0x00,0x00,0x82,0x3c,0x00,
0x81,0x10,0x92,0x37,0x63,0x00,0x92,0x3e,0x66,0x74,0x82,0x3e,0x00,0x00,0x82,0x37,
0x00,0x81,0x2c,0x92,0x38,0x74,0x00,0x92,0x3c,0x61,0x00,0x92,0x3f,0x6e,0x8b,0x00,
0x82,0x38,0x00,0x20,0x82,0x3c,0x00,0x0c,0x82,0x3f,0x00,0x82,0x14,0x92,0x3c,0x5c,
0x00,0x92,0x3f,0x66,0x00,0x92,0x43,0x61,0x81,0x0c,0x82,0x3f,0x00,0x08,0x82,0x3c,
0x00,0x0c,0x82,0x43,0x00,0x84,0x60,0x92,0x3c,0x5c,0x00,0x92,0x3f,0x62,0x00,0x92,
0x43,0x63,0x70,0x82,0x3f,0x00,0x00,0x82,0x3c,0x00,0x10,0x82,0x43,0x00,0x81,0x20,
0x92,0x3a,0x62,0x00,0x92,0x3e,0x5e,0x00,0x92,0x41,0x54,0x68,0x82,0x3a,0x00,0x04,
0x82,0x41,0x00,0x00,0x82,0x3e,0x00,0x81,0x34,0x92,0x3c,0x5c,0x00,0x92,0x3f,0x59,
0x00,0x92,0x43,0x63,0x70,0x82,0x3f,0x00,0x00,0x82,0x3c,0x00,0x0c,0x82,0x43,0x00,
0x88,0x04,0x92,0x3c,0x5e,0x00,0x92,0x3f,0x5f,0x00,0x92,0x43,0x61,0x54,0x82,0x3f,
0x00,0x18,0x82,0x3c,0x00,0x0c,0x82,0x43,0x00,0x81,0x28,0x92,0x3a,0x62,0x00,0x92,
0x3e,0x63,0x00,0x92,0x41,0x59,0x70,0x82,0x41,0x00,0x00,0x82,0x3e,0x00,0x04,0x82,
0x3a,0x00,0x81,0x2c,0x92,0x3c,0x63,0x00,0x92,0x3f,0x62,0x00,0x92,0x43,0x66,0x81,
0x04,0x82,0x43,0x00,0x00,0x82,0x3f,0x00,0x00,0x82,0x3c,0x00,0x84,0x7c,0x92,0x3c,
0x5e,0x00,0x92,0x3f,0x62,0x00,0x92,0x43,0x5e,0x81,0x08,0x82,0x43,0x00,0x00,0x82,
0x3f,0x00,0x00,0x82,0x3c,0x00,0x81,0x18,0x92,0x37,0x66,0x00,0x92,0x3e,0x6a,0x68,
0x82,0x3e,0x00,0x18,0x82,0x37,0x00,0x81,0x20,0x92,0x38,0x66,0x00,0x92,0x3c,0x59,
0x00,0x92,0x3f,0x66,0x8a,0x70,0x82,0x38,0x00,0x1c,0x82,0x3f,0x00,0x04,0x82,0x3c,
0x00,0x82,0x30,0x92,0x3c,0x5c,0x00,0x92,0x3f,0x62,0x00,0x92,0x43,0x61,0x81,0x1c,
0x82,0x3f,0x00,0x0c,0x82,0x43,0x00,0x00,0x82,0x3c,0x00,0x84,0x58,0x92,0x3c,0x5c,
0x00,0x92,0x3f,0x62,0x00,0x92,0x43,0x61,0x70,0x82,0x3f,0x00,0x00,0x82,0x3c,0x00,
0x10,0x82,0x43,0x00,0x81,0x1c,0x92,0x3a,0x5d,0x00,0x92,0x3e,0x5c,0x00,0x92,0x41,
0x55,0x6c,0x82,0x3e,0x00,0x04,0x82,0x41,0x00,0x00,0x82,0x3a,0x00,0x81,0x30,0x92,
0x3f,0x58,0x04,0x92,0x3c,0x61,0x00,0x92,0x43,0x5e,0x81,0x0c,0x82,0x3f,0x00,0x0c,
0x82,0x43,0x00,0x00,0x82,0x3c,0x00,0x86,0x28,0x92,0x3c,0x5e,0x00,0x92,0x3f,0x66,
0x00,0x92,0x43,0x66,0x68,0x82,0x3f,0x00,0x00,0x82,0x3c,0x00,0x0c,0x82,0x43,0x00,
0x81,0x28,0x92,0x3a,0x5d,0x00,0x92,0x3e,0x5c,0x00,0x92,0x41,0x53,0x70,0x82,0x41,
0x00,0x00,0x82,0x3e,0x00,0x00,0x82,0x3a,0x00,0x81,0x30,0x92,0x3f,0x56,0x04,0x92,
0x3c,0x5c,0x00,0x92,0x43,0x5e,0x81,0x1c,0x82,0x43,0x00,0x00,0x82,0x3f,0x00,0x04,
0x82,0x3c,0x00,0x86,0x20,0x92,0x3c,0x5e,0x00,0x92,0x3f,0x5f,0x00,0x92,0x43,0x63,
0x68,0x82,0x3f,0x00,0x00,0x82,0x3c,0x00,0x04,0x82,0x43,0x00,0x81,0x30,0x92,0x37,
0x63,0x00,0x92,0x3e,0x6a,0x78,0x82,0x3e,0x00,0x00,0x82,0x37,0x00,0x81,0x2c,0x92,
0x38,0x6a,0x00,0x92,0x3c,0x5a,0x00,0x92,0x3f,0x62,0x8b,0x44,0x82,0x3f,0x00,0x0c,
0x82,0x3c,0x00,0x81,0x08,0x82,0x38,0x00,0x68,0x92,0x3c,0x5c,0x00,0x92,0x3f,0x66,
0x00,0x92,0x43,0x5e,0x81,0x0c,0x82,0x3f,0x00,0x00,0x82,0x3c,0x00,0x0c,0x82,0x43,
0x00,0x84,0x68,0x92,0x3c,0x5c,0x00,0x92,0x3f,0x62,0x00,0x92,0x43,0x61,0x64,0x82,
0x3c,0x00,0x08,0x82,0x3f,0x00,0x04,0x82,0x43,0x00,0x81,0x2c,0x92,0x3e,0x5a,0x00,
0x92,0x41,0x55,0x04,0x92,0x3a,0x59,0x60,0x82,0x3a,0x00,0x00,0x82,0x3e,0x00,0x10,
0x82,0x41,0x00,0x81,0x2c,0x92,0x3f,0x58,0x00,0x92,0x43,0x55,0x04,0x92,0x3c,0x5a,
0x6c,0x82,0x43,0x00,0x0c,0x82,0x3c,0x00,0x04,0x82,0x3f,0x00,0x86,0x44,0x92,0x3c,
0x5c,0x00,0x92,0x3f,0x62,0x00,0x92,0x43,0x5e,0x6c,0x82,0x3c,0x00,0x0c,0x82,0x3f,
0x00,0x14,0x82,0x43,0x00,0x81,0x10,0x92,0x3a,0x62,0x00,0x92,0x3e,0x5a,0x00,0x92,
0x41,0x54,0x6c,0x82,0x3e,0x00,0x00,0x82,0x3a,0x00,0x10,0x82,0x41,0x00,0x81,0x24,
0x92,0x43,0x54,0x04,0x92,0x3c,0x61,0x00,0x92,0x3f,0x5b,0x78,0x82,0x3c,0x00,0x08,
0x82,0x3f,0x00,0x00,0x82,0x43,0x00,0x86,0x40,0x92,0x3c,0x5e,0x00,0x92,0x3f,0x66,
0x00,0x92,0x43,0x66,0x60,0x82,0x3f,0x00,0x0c,0x82,0x43,0x00,0x00,0x82,0x3c,0x00,
0x81,0x34,0x92,0x37,0x61,0x00,0x92,0x3e,0x6a,0x70,0x82,0x37,0x00,0x04,0x82,0x3e,
0x00,0x81,0x2c,0x92,0x38,0x62,0x00,0x92,0x3c,0x5a,0x00,0x92,0x3f,0x62,0x8a,0x74,
0x82,0x38,0x00,0x81,0x4c,0x82,0x3f,0x00,0x08,0x82,0x3c,0x00,0x98,0x78,0x92,0x3c,
0x63,0x00,0x92,0x3f,0x66,0x00,0x92,0x43,0x61,0x8a,0x44,0x82,0x43,0x00,0x28,0x82,
0x3f,0x00,0x0c,0x82,0x3c,0x00,0x81,0x08,0x92,0x3c,0x59,0x00,0x92,0x3f,0x57,0x00,
0x92,0x38,0x62,0x8a,0x2c,0x82,0x3f,0x00,0x04,0x82,0x38,0x00,0x40,0x82,0x3c,0x00,
0x81,0x10,0x92,0x3a,0x5b,0x00,0x92,0x41,0x54,0x00,0x92,0x3e,0x57,0x89,0x70,0x82,
0x3e,0x00,0x68,0x82,0x3a,0x00,0x28,0x82,0x41,0x00,0x81,0x00,0x92,0x3c,0x57,0x00,
0x92,0x43,0x61,0x00,0x92,0x3f,0x5f,0x8a,0x20,0x82,0x3f,0x00,0x08,0x82,0x43,0x00,
0x10,0x82,0x3c,0x00,0x81,0x48,0x92,0x3c,0x5e,0x00,0x92,0x3f,0x66,0x00,0x92,0x43,
0x5e,0x8a,0x30,0x82,0x43,0x00,0x14,0x82,0x3f,0x00,0x44,0x82,0x3c,0x00,0x78,0x92,
0x38,0x6a,0x00,0x92,0x3c,0x5e,0x00,0x92,0x3f,0x59,0x8a,0x2c,0x82,0x3f,0x00,0x4c,
0x82,0x38,0x00,0x28,0x82,0x3c,0x00,0x60,0x92,0x3a,0x5f,0x00,0x92,0x3e,0x57,0x00,
0x92,0x41,0x5e,0x89,0x58,0x82,0x3e,0x00,0x20,0x82,0x3a,0x00,0x1c,0x82,0x41,0x00,
0x81,0x6c,0x92,0x3c,0x5e,0x00,0x92,0x3f,0x62,0x00,0x92,0x43,0x61,0x89,0x78,0x82,
0x3f,0x00,0x08,0x82,0x43,0x00,0x0c,0x82,0x3c,0x00,0x81,0x74,0x92,0x3c,0x5e,0x00,
0x92,0x3f,0x5f,0x00,0x92,0x43,0x61,0x89,0x60,0x82,0x43,0x00,0x24,0x82,0x3f,0x00,
0x00,0x82,0x3c,0x00,0x81,0x7c,0x92,0x38,0x6e,0x00,0x92,0x3f,0x59,0x00,0x92,0x3c,
0x5a,0x89,0x7c,0x82,0x3f,0x00,0x30,0x82,0x38,0x00,0x18,0x82,0x3c,0x00,0x81,0x3c,
0x92,0x3a,0x59,0x00,0x92,0x41,0x59,0x00,0x92,0x3e,0x59,0x89,0x2c,0x82,0x3e,0x00,
0x34,0x82,0x3a,0x00,0x14,0x82,0x41,0x00,0x82,0x0c,0x92,0x3f,0x5f,0x00,0x92,0x43,
0x5e,0x00,0x92,0x3c,0x5c,0x00,0x92,0x3d,0x3b,0x24,0x82,0x3d,0x00,0x89,0x08,0x82,
0x3f,0x00,0x08,0x82,0x3c,0x00,0x10,0x82,0x43,0x00,0x82,0x3c,0x92,0x3f,0x5f,0x00,
0x92,0x43,0x5c,0x00,0x92,0x3c,0x57,0x89,0x44,0x82,0x43,0x00,0x2c,0x82,0x3c,0x00,
0x00,0x82,0x3f,0x00,0x82,0x10,0x92,0x38,0x66,0x00,0x92,0x3c,0x57,0x00,0x92,0x3f,
0x57,0x89,0x6c,0x82,0x3f,0x00,0x00,0x82,0x38,0x00,0x14,0x82,0x3c,0x00,0x82,0x00,
0x92,0x3e,0x51,0x00,0x92,0x41,0x55,0x00,0x92,0x3a,0x5b,0x88,0x6c,0x82,0x3e,0x00,
0x4c,0x82,0x41,0x00,0x14,0x82,0x3a,0x00,0x82,0x34,0x92,0x3c,0x5e,0x00,0x92,0x3f,
0x5f,0x00,0x92,0x43,0x5a,0x86,0x08,0x82,0x3c,0x00,0x1c,0x82,0x3f,0x00,0x0c,0x82,
0x43,0x00,0x81,0x10,0x92,0x3a,0x6a,0x00,0x92,0x3e,0x5e,0x00,0x92,0x41,0x57,0x81,
0x38,0x82,0x3a,0x00,0x20,0x82,0x41,0x00,0x00,0x82,0x3e,0x00,0x44,0x92,0x3f,0x58,
0x04,0x92,0x3a,0x5f,0x00,0x92,0x43,0x66,0x81,0x3c,0x82,0x43,0x00,0x00,0x82,0x3a,
0x00,0x00,0x82,0x3f,0x00,0x64,0x92,0x3c,0x61,0x00,0x92,0x3f,0x5b,0x00,0x92,0x44,
0x5d,0x89,0x30,0x82,0x3c,0x00,0x20,0x82,0x3f,0x00,0x14,0x82,0x44,0x00,0x82,0x1c,
0x92,0x3a,0x5f,0x00,0x92,0x3f,0x55,0x00,0x92,0x41,0x53,0x85,0x04,0x82,0x41,0x00,
0x0c,0x82,0x3a,0x00,0x20,0x82,0x3f,0x00,0x50,0x92,0x3e,0x57,0x00,0x92,0x41,0x54,
0x00,0x92,0x3a,0x58,0x83,0x18,0x82,0x3a,0x00,0x14,0x82,0x41,0x00,0x00,0x82,0x3e,
0x00,0x30,0x92,0x43,0x5c,0x04,0x92,0x3a,0x58,0x00,0x92,0x3f,0x56,0x81,0x30,0x82,
0x3a,0x00,0x0c,0x82,0x43,0x00,0x04,0x82,0x3f,0x00,0x60,0x92,0x3c,0x5c,0x00,0x92,
0x3f,0x59,0x00,0x92,0x44,0x5b,0x89,0x14,0x82,0x44,0x00,0x30,0x82,0x3c,0x00,0x14,
0x82,0x3f,0x00,0x82,0x28,0x92,0x3a,0x5f,0x00,0x92,0x43,0x66,0x00,0x92,0x3f,0x59,
0x81,0x60,0x82,0x43,0x00,0x0c,0x82,0x3f,0x00,0x00,0x82,0x3a,0x00,0x81,0x14,0x92,
0x3e,0x57,0x00,0x92,0x41,0x51,0x00,0x92,0x3a,0x57,0x83,0x44,0x82,0x41,0x00,0x0c,
0x82,0x3a,0x00,0x00,0x82,0x3e,0x00,0x70,0x92,0x3a,0x5b,0x00,0x92,0x3e,0x5c,0x00,
0x92,0x41,0x55,0x81,0x40,0x82,0x3a,0x00,0x14,0x82,0x41,0x00,0x00,0x82,0x3e,0x00,
0x48,0x92,0x3f,0x57,0x00,0x92,0x43,0x5c,0x04,0x92,0x3a,0x5b,0x81,0x30,0x82,0x3a,
0x00,0x04,0x82,0x43,0x00,0x0c,0x82,0x3f,0x00,0x60,0x92,0x3c,0x57,0x00,0x92,0x3f,
0x57,0x00,0x92,0x44,0x5b,0x89,0x58,0x82,0x3c,0x00,0x0c,0x82,0x3f,0x00,0x18,0x82,
0x44,0x00,0x82,0x04,0x92,0x3f,0x59,0x00,0x92,0x41,0x54,0x00,0x92,0x3a,0x62,0x84,
0x60,0x82,0x41,0x00,0x28,0x82,0x3a,0x00,0x30,0x82,0x3f,0x00,0x48,0x92,0x3e,0x5a,
0x00,0x92,0x41,0x54,0x00,0x92,0x3a,0x5b,0x84,0x2c,0x82,0x3a,0x00,0x0c,0x82,0x41,
0x00,0x00,0x82,0x3e,0x00,0x81,0x48,0x92,0x3c,0x59,0x00,0x92,0x3f,0x5d,0x00,0x92,
0x44,0x58,0x83,0x6c,0x82,0x3f,0x00,0x0c,0x82,0x44,0x00,0x00,0x82,0x3c,0x00,0x82,
0x08,0x92,0x43,0x5e,0x00,0x92,0x46,0x56,0x00,0x92,0x3f,0x5f,0x83,0x3c,0x82,0x3f,
0x00,0x00,0x82,0x43,0x00,0x20,0x82,0x46,0x00,0x82,0x24,0x92,0x3c,0x5a,0x00,0x92,
0x3f,0x5f,0x00,0x92,0x44,0x5d,0x04,0x82,0x44,0x00,0x00,0x92,0x48,0x6a,0x86,0x38,
0x82,0x3f,0x00,0x04,0x82,0x3c,0x00,0x20,0x82,0x48,0x00,0x85,0x20,0x92,0x3c,0x5c,
0x00,0x92,0x3f,0x66,0x00,0x92,0x43,0x5e,0x8c,0x44,0x82,0x43,0x00,0x00,0x82,0x3f,
0x00,0x00,0x82,0x3c,0x00,0x8b,0x3c,0x92,0x3f,0x62,0x00,0x92,0x43,0x63,0x00,0x92,
0x3c,0x5e,0x8a,0x64,0x82,0x43,0x00,0x0c,0x82,0x3f,0x00,0x14,0x82,0x3c,0x00,0x7c,
0x92,0x3c,0x5a,0x00,0x92,0x3f,0x58,0x00,0x92,0x38,0x66,0x8a,0x48,0x82,0x38,0x00,
0x00,0x82,0x3f,0x00,0x2c,0x82,0x3c,0x00,0x81,0x0c,0x92,0x3a,0x59,0x00,0x92,0x3e,
0x53,0x00,0x92,0x41,0x53,0x89,0x60,0x82,0x3e,0x00,0x34,0x82,0x3a,0x00,0x24,0x82,
0x41,0x00,0x81,0x48,0x92,0x3c,0x54,0x00,0x92,0x3f,0x62,0x00,0x92,0x43,0x5c,0x89,
0x04,0x82,0x43,0x00,0x18,0x82,0x3f,0x00,0x00,0x82,0x3c,0x00,0x82,0x64,0x92,0x3c,
0x5a,0x00,0x92,0x3f,0x62,0x00,0x92,0x43,0x63,0x8a,0x18,0x82,0x43,0x00,0x1c,0x82,
0x3f,0x00,0x00,0x82,0x3c,0x00,0x81,0x4c,0x92,0x3c,0x5c,0x00,0x92,0x3f,0x57,0x00,
0x92,0x38,0x6a,0x89,0x78,0x82,0x38,0x00,0x0c,0x82,0x3f,0x00,0x00,0x82,0x3c,0x00,
0x81,0x7c,0x92,0x3e,0x57,0x00,0x92,0x41,0x53,0x00,0x92,0x3a,0x5d,0x89,0x50,0x82,
0x3e,0x00,0x14,0x82,0x3a,0x00,0x14,0x82,0x41,0x00,0x82,0x08,0x92,0x3c,0x59,0x00,
0x92,0x3f,0x66,0x00,0x92,0x43,0x63,0x86,0x14,0x82,0x3c,0x00,0x38,0x82,0x43,0x00,
0x00,0x82,0x3f,0x00,0x74,0x92,0x3a,0x62,0x00,0x92,0x3e,0x61,0x00,0x92,0x41,0x54,
0x81,0x4c,0x82,0x3a,0x00,0x0c,0x82,0x41,0x00,0x00,0x82,0x3e,0x00,0x44,0x92,0x3f,
0x5d,0x00,0x92,0x43,0x61,0x04,0x92,0x3a,0x5d,0x81,0x30,0x82,0x3a,0x00,0x04,0x82,
0x43,0x00,0x0c,0x82,0x3f,0x00,0x60,0x92,0x3f,0x5d,0x00,0x92,0x3c,0x5c,0x00,0x92,
0x44,0x5d,0x8a,0x0c,0x82,0x3c,0x00,0x38,0x82,0x3f,0x00,0x24,0x82,0x44,0x00,0x81,
0x18,0x92,0x3f,0x58,0x00,0x92,0x41,0x55,0x00,0x92,0x3a,0x5f,0x85,0x18,0x82,0x41,
0x00,0x0c,0x82,0x3a,0x00,0x0c,0x82,0x3f,0x00,0x50,0x92,0x3a,0x5b,0x00,0x92,0x3e,
0x5a,0x00,0x92,0x41,0x57,0x83,0x20,0x82,0x41,0x00,0x00,0x82,0x3a,0x00,0x0c,0x82,
0x3e,0x00,0x30,0x92,0x43,0x53,0x04,0x92,0x3a,0x56,0x00,0x92,0x3f,0x57,0x81,0x30,
0x82,0x3a,0x00,0x10,0x82,0x3f,0x00,0x10,0x82,0x43,0x00,0x50,0x92,0x3c,0x57,0x00,
0x92,0x3f,0x55,0x00,0x92,0x44,0x58,0x89,0x40,0x82,0x44,0x00,0x0c,0x82,0x3c,0x00,
0x14,0x82,0x3f,0x00,0x82,0x20,0x92,0x43,0x5c,0x00,0x92,0x3a,0x5b,0x00,0x92,0x3f,
0x55,0x81,0x68,0x82,0x3f,0x00,0x00,0x82,0x3a,0x00,0x00,0x82,0x43,0x00,0x81,0x18,
0x92,0x3a,0x59,0x00,0x92,0x3e,0x5c,0x00,0x92,0x41,0x57,0x83,0x40,0x82,0x41,0x00,
0x08,0x82,0x3a,0x00,0x04,0x82,0x3e,0x00,0x74,0x92,0x3a,0x55,0x00,0x92,0x3e,0x54,
0x00,0x92,0x41,0x50,0x81,0x4c,0x82,0x3a,0x00,0x08,0x82,0x41,0x00,0x04,0x82,0x3e,
0x00,0x44,0x92,0x43,0x54,0x04,0x92,0x3a,0x55,0x00,0x92,0x3f,0x56,0x81,0x38,0x82,
0x3f,0x00,0x04,0x82,0x3a,0x00,0x10,0x82,0x43,0x00,0x54,0x92,0x3c,0x59,0x00,0x92,
0x3f,0x56,0x00,0x92,0x44,0x5b,0x89,0x68,0x82,0x3c,0x00,0x28,0x82,0x3f,0x00,0x10,
0x82,0x44,0x00,0x81,0x60,0x92,0x3a,0x5b,0x00,0x92,0x3f,0x53,0x00,0x92,0x41,0x53,
0x84,0x4c,0x82,0x41,0x00,0x34,0x82,0x3a,0x00,0x2c,0x82,0x3f,0x00,0x54,0x92,0x3a,
0x5f,0x00,0x92,0x41,0x55,0x00,0x92,0x3e,0x5c,0x83,0x6c,0x82,0x3a,0x00,0x04,0x82,
0x3e,0x00,0x00,0x82,0x41,0x00,0x82,0x10,0x92,0x3c,0x55,0x00,0x92,0x3f,0x58,0x00,
0x92,0x44,0x58,0x84,0x20,0x82,0x44,0x00,0x20,0x82,0x3c,0x00,0x14,0x82,0x3f,0x00,
0x81,0x2c,0x92,0x3a,0x62,0x00,0x92,0x3f,0x57,0x00,0x92,0x43,0x55,0x84,0x2c,0x82,
0x43,0x00,0x0c,0x82,0x3f,0x00,0x0c,0x82,0x3a,0x00,0x81,0x3c,0x92,0x3f,0x5f,0x00,
0x92,0x3c,0x5a,0x00,0x92,0x44,0x59,0x87,0x04,0x82,0x3f,0x00,0x04,0x82,0x3c,0x00,
0x08,0x82,0x44,0x00,0xb4,0x70,0x92,0x3c,0x5e,0x00,0x92,0x3f,0x5f,0x00,0x92,0x43,
0x63,0x8a,0x1c,0x82,0x43,0x00,0x28,0x82,0x3f,0x00,0x00,0x82,0x3c,0x00,0x81,0x3c,
0x92,0x3c,0x5a,0x00,0x92,0x3f,0x58,0x00,0x92,0x38,0x6a,0x8a,0x3c,0x82,0x3f,0x00,
0x30,0x82,0x38,0x00,0x18,0x82,0x3c,0x00,0x7c,0x92,0x3a,0x66,0x00,0x92,0x41,0x5c,
0x00,0x92,0x3e,0x54,0x8a,0x00,0x82,0x3e,0x00,0x5c,0x82,0x3a,0x00,0x38,0x82,0x41,
0x00,0x6c,0x92,0x3c,0x61,0x00,0x92,0x3f,0x6a,0x00,0x92,0x43,0x61,0x86,0x44,0x82,
0x3c,0x00,0x0c,0x82,0x43,0x00,0x00,0x82,0x3f,0x00,0x6c,0x92,0x3c,0x50,0x04,0x92,
0x38,0x58,0x00,0x92,0x3f,0x4e,0x2c,0x82,0x3f,0x00,0x00,0x82,0x38,0x00,0x1c,0x82,
0x3c,0x00,0x14,0x92,0x3c,0x53,0x04,0x92,0x38,0x5d,0x00,0x92,0x3f,0x59,0x81,0x24,
0x82,0x3f,0x00,0x00,0x82,0x38,0x00,0x04,0x82,0x3c,0x00,0x14,0x92,0x3a,0x59,0x00,
0x92,0x3e,0x53,0x04,0x92,0x35,0x54,0x81,0x50,0x82,0x3a,0x00,0x20,0x82,0x3e,0x00,
0x30,0x92,0x3c,0x5d,0x00,0x92,0x3f,0x62,0x00,0x92,0x43,0x5f,0x04,0x82,0x35,0x00,
0x89,0x00,0x82,0x43,0x00,0x00,0x82,0x3c,0x00,0x0c,0x82,0x3f,0x00,0x82,0x70,0x92,
0x38,0x66,0x00,0x92,0x3f,0x59,0x00,0x92,0x3c,0x66,0x89,0x4c,0x82,0x3f,0x00,0x24,
0x82,0x3c,0x00,0x00,0x82,0x38,0x00,0x82,0x10,0x92,0x41,0x5a,0x00,0x92,0x3a,0x66,
0x00,0x92,0x3e,0x59,0x89,0x5c,0x82,0x3e,0x00,0x28,0x82,0x3a,0x00,0x0c,0x82,0x41,
0x00,0x81,0x70,0x92,0x3c,0x59,0x00,0x92,0x3f,0x56,0x00,0x92,0x43,0x5a,0x04,0x82,
0x43,0x00,0x00,0x82,0x3f,0x00,0x86,0x00,0x82,0x3c,0x00,0x81,0x3c,0x92,0x3a,0x62,
0x00,0x92,0x3e,0x5a,0x00,0x92,0x41,0x55,0x81,0x54,0x82,0x3a,0x00,0x20,0x82,0x41,
0x00,0x00,0x82,0x3e,0x00,0x28,0x92,0x43,0x5c,0x04,0x92,0x3a,0x58,0x00,0x92,0x3f,
0x57,0x81,0x38,0x82,0x43,0x00,0x0c,0x82,0x3f,0x00,0x00,0x82,0x3a,0x00,0x5c,0x92,
0x3c,0x5a,0x00,0x92,0x3f,0x58,0x00,0x92,0x44,0x5d,0x8a,0x44,0x82,0x3f,0x00,0x00,
0x82,0x3c,0x00,0x24,0x82,0x44,0x00,0x81,0x18,0x92,0x3f,0x53,0x00,0x92,0x41,0x54,
0x00,0x92,0x3a,0x5f,0x84,0x68,0x82,0x41,0x00,0x0c,0x82,0x3a,0x00,0x1c,0x82,0x3f,
0x00,0x70,0x92,0x3e,0x59,0x00,0x92,0x41,0x53,0x00,0x92,0x3a,0x58,0x44,0x82,0x3a,
0x00,0x00,0x82,0x41,0x00,0x00,0x82,0x3e,0x00,0x7c,0x92,0x3a,0x57,0x00,0x92,0x3e,
0x5a,0x00,0x92,0x41,0x50,0x81,0x64,0x82,0x3a,0x00,0x0c,0x82,0x41,0x00,0x0c,0x82,
0x3e,0x00,0x20,0x92,0x3f,0x5b,0x04,0x92,0x3a,0x5b,0x00,0x92,0x43,0x6e,0x81,0x44,
0x82,0x3a,0x00,0x0c,0x82,0x43,0x00,0x04,0x82,0x3f,0x00,0x4c,0x92,0x3c,0x5c,0x00,
0x92,0x3f,0x58,0x00,0x92,0x44,0x5b,0x89,0x20,0x82,0x44,0x00,0x24,0x82,0x3c,0x00,
0x20,0x82,0x3f,0x00,0x82,0x1c,0x92,0x3a,0x5f,0x00,0x92,0x3f,0x59,0x00,0x92,0x43,
0x66,0x81,0x48,0x82,0x43,0x00,0x00,0x82,0x3f,0x00,0x1c,0x82,0x3a,0x00,0x81,0x1c,
0x92,0x3e,0x59,0x00,0x92,0x41,0x52,0x00,0x92,0x3a,0x59,0x83,0x4c,0x82,0x41,0x00,
0x00,0x82,0x3e,0x00,0x04,0x82,0x3a,0x00,0x70,0x92,0x3a,0x57,0x00,0x92,0x3e,0x57,
0x00,0x92,0x41,0x50,0x81,0x4c,0x82,0x3a,0x00,0x0c,0x82,0x41,0x00,0x0c,0x82,0x3e,
0x00,0x38,0x92,0x43,0x51,0x04,0x92,0x3a,0x56,0x00,0x92,0x3f,0x58,0x81,0x2c,0x82,
0x3a,0x00,0x10,0x82,0x3f,0x00,0x00,0x82,0x43,0x00,0x64,0x92,0x3c,0x55,0x00,0x92,
0x3f,0x56,0x00,0x92,0x44,0x59,0x8a,0x18,0x82,0x3c,0x00,0x24,0x82,0x44,0x00,0x00,
0x82,0x3f,0x00,0x81,0x44,0x92,0x3f,0x57,0x00,0x92,0x41,0x52,0x00,0x92,0x3a,0x5b,
0x85,0x04,0x82,0x3a,0x00,0x00,0x82,0x41,0x00,0x18,0x82,0x3f,0x00,0x64,0x92,0x3e,
0x5c,0x00,0x92,0x41,0x57,0x00,0x92,0x3a,0x5b,0x83,0x40,0x82,0x3a,0x00,0x1c,0x82,
0x3e,0x00,0x10,0x82,0x41,0x00,0x82,0x14,0x92,0x3f,0x5b,0x00,0x92,0x44,0x57,0x00,
0x92,0x3c,0x55,0x84,0x2c,0x82,0x44,0x00,0x28,0x82,0x3c,0x00,0x1c,0x82,0x3f,0x00,
0x81,0x10,0x92,0x3a,0x5b,0x00,0x92,0x43,0x59,0x00,0x92,0x3f,0x57,0x84,0x44,0x82,
0x3a,0x00,0x18,0x82,0x3f,0x00,0x04,0x82,0x43,0x00,0x81,0x20,0x92,0x3c,0x51,0x00,
0x92,0x3f,0x56,0x00,0x92,0x44,0x56,0x89,0x70,0x82,0x3c,0x00,0x20,0x82,0x3f,0x00,
0x14,0x82,0x44,0x00,0x81,0x5c,0x92,0x38,0x58,0x00,0x92,0x3c,0x4f,0x00,0x92,0x3f,
0x50,0x81,0x78,0x82,0x38,0x00,0x0c,0x82,0x3c,0x00,0x18,0x82,0x3f,0x00,0xa1,0x64,
0x92,0x3c,0x54,0x00,0x92,0x3f,0x56,0x00,0x92,0x43,0x52,0x60,0x82,0x3f,0x00,0x00,
0x82,0x3c,0x00,0x10,0x82,0x43,0x00,0x85,0x10,0x92,0x3c,0x53,0x00,0x92,0x3f,0x55,
0x00,0x92,0x43,0x5a,0x4c,0x82,0x3c,0x00,0x10,0x82,0x3f,0x00,0x08,0x82,0x43,0x00,
0x81,0x38,0x92,0x3a,0x56,0x00,0x92,0x3e,0x54,0x00,0x92,0x41,0x4d,0x58,0x82,0x3e,
0x00,0x04,0x82,0x3a,0x00,0x0c,0x82,0x41,0x00,0x81,0x38,0x92,0x3c,0x55,0x00,0x92,
0x3f,0x55,0x04,0x92,0x43,0x5c,0x5c,0x82,0x43,0x00,0x0c,0x82,0x3f,0x00,0x0c,0x82,
0x3c,0x00,0x86,0x4c,0x92,0x3c,0x57,0x00,0x92,0x3f,0x5d,0x00,0x92,0x43,0x5a,0x68,
0x82,0x3c,0x00,0x04,0x82,0x43,0x00,0x00,0x82,0x3f,0x00,0x81,0x30,0x92,0x3e,0x55,
0x00,0x92,0x41,0x50,0x04,0x92,0x3a,0x58,0x60,0x82,0x3e,0x00,0x04,0x82,0x3a,0x00,
0x0c,0x82,0x41,0x00,0x81,0x2c,0x92,0x3c,0x54,0x00,0x92,0x3f,0x53,0x04,0x92,0x43,
0x5a,0x6c,0x82,0x3f,0x00,0x0c,0x82,0x3c,0x00,0x0c,0x82,0x43,0x00,0x86,0x3c,0x92,
0x3f,0x59,0x00,0x92,0x43,0x59,0x00,0x92,0x3c,0x55,0x60,0x82,0x3f,0x00,0x0c,0x82,
0x3c,0x00,0x00,0x82,0x43,0x00,0x81,0x30,0x92,0x37,0x5c,0x00,0x92,0x3e,0x61,0x68,
0x82,0x3e,0x00,0x00,0x82,0x37,0x00,0x81,0x3c,0x92,0x38,0x5d,0x00,0x92,0x3c,0x51,
0x00,0x92,0x3f,0x5b,0x8a,0x64,0x82,0x38,0x00,0x18,0x82,0x3f,0x00,0x00,0x82,0x3c,
0x00,0x82,0x44,0x92,0x3c,0x52,0x00,0x92,0x3f,0x5b,0x00,0x92,0x43,0x59,0x58,0x82,
0x3f,0x00,0x00,0x82,0x3c,0x00,0x0c,0x82,0x43,0x00,0x85,0x1c,0x92,0x3c,0x51,0x00,
0x92,0x3f,0x50,0x00,0x92,0x43,0x55,0x54,0x82,0x3f,0x00,0x0c,0x82,0x43,0x00,0x00,
0x82,0x3c,0x00,0x81,0x3c,0x92,0x3a,0x53,0x00,0x92,0x3e,0x51,0x00,0x92,0x41,0x50,
0x68,0x82,0x3e,0x00,0x10,0x82,0x41,0x00,0x00,0x82,0x3a,0x00,0x81,0x28,0x92,0x43,
0x55,0x04,0x92,0x3c,0x50,0x00,0x92,0x3f,0x4f,0x78,0x82,0x3f,0x00,0x00,0x82,0x3c,
0x00,0x00,0x82,0x43,0x00,0x86,0x48,0x92,0x3f,0x57,0x00,0x92,0x43,0x54,0x00,0x92,
0x3c,0x53,0x4c,0x82,0x3c,0x00,0x20,0x82,0x3f,0x00,0x0c,0x82,0x43,0x00,0x81,0x24,
0x92,0x3a,0x57,0x00,0x92,0x3e,0x50,0x00,0x92,0x41,0x4c,0x78,0x82,0x41,0x00,0x00,
0x82,0x3e,0x00,0x00,0x82,0x3a,0x00,0x81,0x2c,0x92,0x3c,0x54,0x00,0x92,0x3f,0x52,
0x00,0x92,0x43,0x51,0x64,0x82,0x3c,0x00,0x18,0x82,0x43,0x00,0x00,0x82,0x3f,0x00,
0x86,0x44,0x92,0x3f,0x5d,0x00,0x92,0x43,0x57,0x00,0x92,0x3c,0x55,0x60,0x82,0x3f,
0x00,0x0c,0x82,0x3c,0x00,0x10,0x82,0x43,0x00,0x81,0x20,0x92,0x37,0x5c,0x00,0x92,
0x3e,0x59,0x74,0x82,0x37,0x00,0x14,0x82,0x3e,0x00,0x81,0x1c,0x92,0x38,0x62,0x00,
0x92,0x3c,0x52,0x00,0x92,0x3f,0x55,0x8c,0x34,0x82,0x38,0x00,0x14,0x82,0x3c,0x00,
0x0c,0x82,0x3f,0x00,0x6c,0x92,0x3c,0x51,0x00,0x92,0x3f,0x5b,0x00,0x92,0x43,0x59,
0x6c,0x82,0x3f,0x00,0x0c,0x82,0x43,0x00,0x0c,0x82,0x3c,0x00,0x84,0x7c,0x92,0x3c,
0x53,0x00,0x92,0x3f,0x56,0x00,0x92,0x43,0x53,0x70,0x82,0x3f,0x00,0x00,0x82,0x3c,
0x00,0x10,0x82,0x43,0x00,0x81,0x1c,0x92,0x3a,0x58,0x00,0x92,0x3e,0x55,0x00,0x92,
0x41,0x50,0x58,0x82,0x3e,0x00,0x00,0x82,0x3a,0x00,0x0c,0x82,0x41,0x00,0x81,0x40,
0x92,0x3c,0x54,0x00,0x92,0x3f,0x52,0x00,0x92,0x43,0x50,0x81,0x28,0x82,0x43,0x00,
0x00,0x82,0x3f,0x00,0x0c,0x82,0x3c,0x00,0x86,0x0c,0x92,0x3c,0x54,0x00,0x92,0x3f,
0x56,0x00,0x92,0x43,0x59,0x70,0x82,0x3f,0x00,0x00,0x82,0x3c,0x00,0x04,0x82,0x43,
0x00,0x81,0x28,0x92,0x3a,0x58,0x00,0x92,0x3e,0x53,0x00,0x92,0x41,0x4f,0x68,0x82,
0x3e,0x00,0x00,0x82,0x3a,0x00,0x10,0x82,0x41,0x00,0x81,0x2c,0x92,0x3c,0x50,0x00,
0x92,0x3f,0x4f,0x00,0x92,0x43,0x52,0x81,0x28,0x82,0x3f,0x00,0x0c,0x82,0x43,0x00,
0x00,0x82,0x3c,0x00,0x86,0x0c,0x92,0x3c,0x59,0x00,0x92,0x3f,0x5b,0x00,0x92,0x43,
0x57,0x68,0x82,0x3f,0x00,0x0c,0x82,0x43,0x00,0x00,0x82,0x3c,0x00,0x81,0x28,0x92,
0x37,0x55,0x00,0x92,0x3e,0x59,0x7c,0x82,0x3e,0x00,0x00,0x82,0x37,0x00,0x81,0x28,
0x92,0x38,0x5f,0x00,0x92,0x3c,0x50,0x00,0x92,0x3f,0x57,0x8a,0x6c,0x82,0x3c,0x00,
0x00,0x82,0x38,0x00,0x0c,0x82,0x3f,0x00,0x82,0x48,0x92,0x3f,0x56,0x00,0x92,0x43,
0x51,0x00,0x92,0x3c,0x50,0x7c,0x82,0x3c,0x00,0x00,0x82,0x43,0x00,0x00,0x82,0x3f,
0x00,0x85,0x04,0x92,0x3c,0x54,0x00,0x92,0x3f,0x5d,0x00,0x92,0x43,0x59,0x7c,0x82,
0x3f,0x00,0x00,0x82,0x3c,0x00,0x18,0x82,0x43,0x00,0x81,0x08,0x92,0x3e,0x53,0x00,
0x92,0x41,0x50,0x04,0x92,0x3a,0x5d,0x64,0x82,0x3a,0x00,0x08,0x82,0x3e,0x00,0x04,
0x82,0x41,0x00,0x81,0x30,0x92,0x3c,0x52,0x00,0x92,0x3f,0x53,0x00,0x92,0x43,0x52,
0x81,0x0c,0x82,0x3f,0x00,0x00,0x82,0x3c,0x00,0x04,0x82,0x43,0x00,0x86,0x30,0x92,
0x3c,0x52,0x00,0x92,0x3f,0x59,0x00,0x92,0x43,0x5c,0x74,0x82,0x3f,0x00,0x00,0x82,
0x3c,0x00,0x14,0x82,0x43,0x00,0x81,0x14,0x92,0x3a,0x55,0x00,0x92,0x41,0x50,0x04,
0x92,0x3e,0x53,0x60,0x82,0x3e,0x00,0x0c,0x82,0x3a,0x00,0x04,0x82,0x41,0x00,0x81,
0x30,0x92,0x3c,0x53,0x00,0x92,0x3f,0x50,0x00,0x92,0x43,0x54,0x81,0x14,0x82,0x3f,
0x00,0x08,0x82,0x3c,0x00,0x04,0x82,0x43,0x00,0x86,0x20,0x92,0x3c,0x53,0x00,0x92,
0x3f,0x5b,0x00,0x92,0x43,0x59,0x5c,0x82,0x43,0x00,0x00,0x82,0x3c,0x00,0x08,0x82,
0x3f,0x00,0x81,0x3c,0x92,0x37,0x66,0x00,0x92,0x3e,0x66,0x74,0x82,0x3e,0x00,0x00,
0x82,0x37,0x00,0x81,0x2c,0x92,0x38,0x6a,0x00,0x92,0x3c,0x59,0x00,0x92,0x3f,0x5f,
0x8c,0x08,0x82,0x3c,0x00,0x18,0x82,0x3f,0x00,0x00,0x82,0x38,0x00,0x8d,0x2c,0xb2,
0x40,0x00,0x00,0xd2,0x00,0x00,0xe2,0x00,0x40,0x81,0x40,0xff,0x2f,0x00,0x4d,0x54,
0x72,0x6b,0x00,0x00,0x01,0x09,0x00,0xff,0x03,0x07,0x53,0x54,0x52,0x49,0x4e,0x47,
0x53,0x98,0x00,0xb3,0x0a,0x1e,0x00,0xb3,0x5b,0x28,0x00,0xb3,0x5d,0x00,0x88,0xb6,
0x30,0xb3,0x07,0x7f,0x00,0xc3,0x30,0x00,0x93,0x4f,0x32,0x00,0x93,0x54,0x32,0x00,
0x93,0x57,0x32,0x8c,0x6c,0x83,0x4f,0x00,0x14,0x83,0x54,0x00,0x0c,0x83,0x57,0x00,
0x2c,0x93,0x54,0x32,0x00,0x93,0x57,0x32,0x00,0x93,0x5c,0x32,0x8b,0x2c,0x83,0x5c,
0x00,0x34,0x93,0x4f,0x32,0x84,0x30,0x83,0x54,0x00,0x0c,0x83,0x4f,0x00,0x14,0x83,
0x57,0x00,0x92,0x14,0x93,0x4f,0x32,0x04,0x93,0x54,0x32,0x00,0x93,0x57,0x32,0x8d,
0x10,0x83,0x57,0x00,0x0c,0x83,0x54,0x00,0x00,0x83,0x4f,0x00,0x2c,0x93,0x57,0x32,
0x00,0x93,0x5c,0x32,0x04,0x93,0x54,0x32,0x8a,0x20,0x83,0x5c,0x00,0x20,0x93,0x4f,
0x32,0x86,0x70,0x83,0x4f,0x00,0x08,0x83,0x54,0x00,0x0c,0x83,0x57,0x00,0x8d,0x64,
0x93,0x4f,0x32,0x00,0x93,0x54,0x32,0x00,0x93,0x57,0x32,0x8f,0x74,0x83,0x4f,0x00,
0x1c,0x83,0x57,0x00,0x00,0x83,0x54,0x00,0x38,0x93,0x54,0x32,0x00,0x93,0x57,0x32,
0x04,0x93,0x5c,0x32,0x8a,0x34,0x83,0x5c,0x00,0x60,0x93,0x4f,0x32,0x85,0x48,0x83,
0x4f,0x00,0x00,0x83,0x57,0x00,0x00,0x83,0x54,0x00,0x8f,0x0c,0x93,0x4f,0x32,0x00,
0x93,0x57,0x32,0x14,0x93,0x54,0x32,0x8d,0x60,0x83,0x4f,0x00,0x81,0x00,0x93,0x50,
0x32,0x83,0x38,0x83,0x57,0x00,0x1c,0x83,0x50,0x00,0x00,0x83,0x54,0x00,0x95,0x70,
0xb3,0x40,0x00,0x00,0xd3,0x00,0x00,0xe3,0x00,0x40,0x81,0x40,0xff,0x2f,0x00,0x4d,
0x54,0x72,0x6b,0x00,0x00,0x12,0xab,0x00,0xff,0x03,0x09,0x4f,0x56,0x45,0x52,0x44,
0x52,0x49,0x56,0x45,0x98,0x00,0xb4,0x0a,0x6e,0x00,0xb4,0x5b,0x28,0x00,0xb4,0x5d,
0x00,0xbc,0x08,0xc4,0x1d,0x00,0xb4,0x07,0x7f,0x00,0x94,0x37,0x74,0x00,0x94,0x3c,
0x79,0x10,0xd4,0x01,0x34,0xd4,0x11,0x34,0xd4,0x12,0x40,0xd4,0x0c,0x20,0x84,0x3c,
0x00,0x00,0x84,0x37,0x00,0x14,0xd4,0x00,0x84,0x14,0x94,0x37,0x6f,0x00,0x94,0x3c,
0x6f,0x08,0xd4,0x03,0x34,0xd4,0x08,0x34,0xd4,0x00,0x28,0x84,0x3c,0x00,0x0c,0x84,
0x37,0x00,0x78,0x94,0x3a,0x6b,0x04,0x94,0x35,0x67,0x04,0xd4,0x01,0x44,0xd4,0x00,
0x4c,0x84,0x3a,0x00,0x0c,0x84,0x35,0x00,0x7c,0x94,0x37,0x6f,0x00,0x94,0x3c,0x67,
0x20,0xd4,0x0b,0x34,0xd4,0x1c,0x44,0xd4,0x17,0x38,0xd4,0x09,0x2c,0x84,0x37,0x00,
0x04,0xd4,0x00,0x0c,0x84,0x3c,0x00,0x85,0x38,0x94,0x37,0x6b,0x00,0x94,0x3c,0x74,
0x04,0xd4,0x05,0x38,0xd4,0x08,0x34,0xd4,0x00,0x28,0x84,0x3c,0x00,0x00,0x84,0x37,
0x00,0x81,0x04,0x94,0x3a,0x6f,0x04,0x94,0x35,0x67,0x2c,0xd4,0x04,0x30,0xd4,0x00,
0x28,0x84,0x3a,0x00,0x08,0x84,0x35,0x00,0x81,0x10,0x94,0x37,0x74,0x00,0x94,0x3c,
0x6f,0x34,0xd4,0x0e,0x3c,0xd4,0x1f,0x34,0xd4,0x27,0x50,0xd4,0x12,0x24,0x84,0x3c,
0x00,0x00,0x84,0x37,0x00,0x10,0xd4,0x00,0x85,0x1c,0x94,0x37,0x74,0x00,0x94,0x3c,
0x5d,0x1c,0xd4,0x0d,0x34,0xd4,0x0b,0x38,0xd4,0x00,0x14,0x84,0x3c,0x00,0x14,0x84,
0x37,0x00,0x6c,0x94,0x32,0x6b,0x00,0x94,0x37,0x79,0x34,0xd4,0x0a,0x44,0xd4,0x07,
0x34,0x84,0x37,0x00,0x04,0xd4,0x00,0x10,0x84,0x32,0x00,0x60,0x94,0x33,0x6b,0x04,
0x94,0x38,0x67,0x85,0x64,0xd4,0x00,0x30,0xd4,0x07,0x40,0xd4,0x0a,0x30,0xd4,0x0d,
0x30,0xd4,0x12,0x30,0xd4,0x18,0x4c,0xd4,0x0c,0x30,0xd4,0x07,0x24,0x84,0x33,0x00,
0x04,0x84,0x38,0x00,0x0c,0xd4,0x00,0x84,0x2c,0x94,0x37,0x79,0x00,0x94,0x3c,0x64,
0x30,0xd4,0x16,0x38,0xd4,0x1f,0x3c,0xd4,0x0f,0x34,0x84,0x37,0x00,0x00,0xd4,0x00,
0x0c,0x84,0x3c,0x00,0x84,0x18,0x94,0x3c,0x6f,0x04,0x94,0x37,0x74,0x2c,0xd4,0x08,
0x38,0xd4,0x00,0x40,0x84,0x37,0x00,0x00,0x84,0x3c,0x00,0x78,0x94,0x3a,0x7c,0x04,
0x94,0x35,0x6b,0x0c,0xd4,0x04,0x40,0xd4,0x00,0x40,0x84,0x3a,0x00,0x08,0x84,0x35,
0x00,0x81,0x08,0x94,0x3c,0x67,0x04,0x94,0x37,0x6f,0x30,0xd4,0x0d,0x38,0xd4,0x15,
0x34,0xd4,0x25,0x34,0xd4,0x2f,0x3c,0xd4,0x10,0x0c,0x84,0x37,0x00,0x00,0x84,0x3c,
0x00,0x24,0xd4,0x00,0x86,0x40,0x94,0x3c,0x6f,0x04,0x94,0x37,0x79,0x1c,0xd4,0x11,
0x38,0xd4,0x11,0x34,0xd4,0x00,0x14,0x84,0x37,0x00,0x0c,0x84,0x3c,0x00,0x74,0x94,
0x3a,0x75,0x04,0x94,0x35,0x6f,0x34,0xd4,0x08,0x3c,0xd4,0x00,0x1c,0x84,0x35,0x00,
0x00,0x84,0x3a,0x00,0x81,0x14,0x94,0x37,0x6b,0x00,0x94,0x3c,0x5f,0x10,0xd4,0x09,
0x38,0xd4,0x24,0x3c,0xd4,0x29,0x38,0xd4,0x33,0x3c,0xd4,0x0d,0x08,0x84,0x37,0x00,
0x0c,0x84,0x3c,0x00,0x1c,0xd4,0x00,0x83,0x54,0xd4,0x03,0x04,0x94,0x37,0x74,0x00,
0x94,0x3c,0x6b,0x3c,0xd4,0x0f,0x38,0xd4,0x00,0x14,0x84,0x3c,0x00,0x0c,0x84,0x37,
0x00,0x81,0x08,0x94,0x32,0x6b,0x00,0x94,0x37,0x74,0x20,0xd4,0x04,0x34,0xd4,0x00,
0x34,0x84,0x37,0x00,0x00,0x84,0x32,0x00,0x81,0x18,0x94,0x33,0x67,0x00,0x94,0x38,
0x5c,0x85,0x5c,0xd4,0x00,0x30,0xd4,0x06,0x30,0xd4,0x0c,0x30,0xd4,0x0f,0x30,0xd4,
0x13,0x30,0xd4,0x18,0x38,0xd4,0x0e,0x1c,0x84,0x33,0x00,0x10,0x84,0x38,0x00,0x0c,
0xd4,0x00,0x85,0x08,0x94,0x3f,0x63,0x00,0x94,0x43,0x64,0x28,0xd4,0x12,0x64,0xd4,
0x17,0x30,0xd4,0x1c,0x38,0xd4,0x0d,0x34,0xd4,0x00,0x18,0x84,0x43,0x00,0x00,0x84,
0x3f,0x00,0x83,0x40,0x94,0x3f,0x75,0x00,0x94,0x43,0x6b,0x20,0xd4,0x0a,0x30,0xd4,
0x09,0x38,0xd4,0x08,0x34,0xd4,0x00,0x0c,0x84,0x43,0x00,0x00,0x84,0x3f,0x00,0x54,
0x94,0x3e,0x64,0x00,0x94,0x41,0x64,0x28,0xd4,0x0b,0x38,0xd4,0x07,0x30,0xd4,0x08,
0x34,0xd4,0x07,0x30,0xd4,0x00,0x08,0x84,0x41,0x00,0x00,0x84,0x3e,0x00,0x24,0x94,
0x3f,0x67,0x00,0x94,0x43,0x62,0x14,0xd4,0x02,0x40,0xd4,0x0d,0x6c,0xd4,0x15,0x34,
0xd4,0x20,0x3c,0xd4,0x28,0x34,0xd4,0x2f,0x44,0xd4,0x10,0x08,0x84,0x3f,0x00,0x0c,
0x84,0x43,0x00,0x1c,0xd4,0x00,0x83,0x6c,0x94,0x3f,0x75,0x00,0x94,0x43,0x6f,0x18,
0xd4,0x06,0x40,0xd4,0x0c,0x34,0xd4,0x00,0x0c,0x84,0x43,0x00,0x0c,0x84,0x3f,0x00,
0x78,0x94,0x3e,0x67,0x00,0x94,0x41,0x5f,0x14,0xd4,0x03,0x38,0xd4,0x07,0x34,0xd4,
0x00,0x1c,0x84,0x3e,0x00,0x0c,0x84,0x41,0x00,0x78,0x94,0x3f,0x5c,0x00,0x94,0x43,
0x5f,0x38,0xd4,0x0e,0x40,0xd4,0x04,0x34,0xd4,0x16,0x34,0xd4,0x1d,0x44,0xd4,0x1d,
0x30,0xd4,0x1d,0x34,0xd4,0x28,0x30,0xd4,0x2a,0x30,0xd4,0x2f,0x30,0xd4,0x34,0x4c,
0xd4,0x19,0x10,0x84,0x43,0x00,0x04,0x84,0x3f,0x00,0x24,0xd4,0x00,0x82,0x28,0x94,
0x3f,0x6b,0x00,0x94,0x43,0x62,0x3c,0xd4,0x0e,0x38,0xd4,0x00,0x10,0x84,0x43,0x00,
0x0c,0x84,0x3f,0x00,0x81,0x0c,0x94,0x3b,0x67,0x00,0x94,0x3e,0x6f,0x48,0xd4,0x07,
0x34,0xd4,0x00,0x20,0x84,0x3e,0x00,0x00,0x84,0x3b,0x00,0x81,0x04,0x94,0x3f,0x67,
0x04,0x94,0x3c,0x5d,0x38,0xd4,0x06,0x38,0xd4,0x00,0x38,0xd4,0x00,0x30,0xd4,0x02,
0x50,0xd4,0x00,0x40,0xd4,0x00,0x30,0xd4,0x05,0x54,0xd4,0x02,0x50,0xd4,0x08,0x34,
0xd4,0x12,0x3c,0xd4,0x0b,0x54,0xd4,0x0f,0x30,0xd4,0x1b,0x34,0xd4,0x19,0x30,0xd4,
0x0d,0x34,0xd4,0x11,0x30,0xd4,0x1e,0x54,0xd4,0x16,0x34,0xd4,0x12,0x30,0xd4,0x1d,
0x30,0xd4,0x18,0x30,0xd4,0x0f,0x44,0xd4,0x18,0x34,0xd4,0x0f,0x0c,0x84,0x3c,0x00,
0x0c,0x84,0x3f,0x00,0x20,0xd4,0x00,0x82,0x00,0x94,0x3f,0x75,0x00,0x94,0x43,0x67,
0x10,0xd4,0x02,0x34,0xd4,0x11,0x34,0xd4,0x11,0x34,0xd4,0x1c,0x30,0xd4,0x12,0x34,
0xd4,0x00,0x04,0x84,0x3f,0x00,0x08,0x84,0x43,0x00,0x83,0x64,0x94,0x3f,0x75,0x00,
0x94,0x43,0x6f,0x10,0xd4,0x04,0x38,0xd4,0x0f,0x34,0xd4,0x0c,0x3c,0x84,0x43,0x00,
0x00,0x84,0x3f,0x00,0x04,0xd4,0x00,0x60,0x94,0x3e,0x6b,0x00,0x94,0x41,0x64,0x14,
0xd4,0x04,0x34,0xd4,0x0c,0x48,0xd4,0x15,0x3c,0xd4,0x10,0x34,0xd4,0x00,0x04,0x84,
0x41,0x00,0x00,0x84,0x3e,0x00,0x1c,0x94,0x3f,0x63,0x00,0x94,0x43,0x6f,0x18,0xd4,
0x06,0x30,0xd4,0x17,0x38,0xd4,0x16,0x5c,0xd4,0x1e,0x30,0xd4,0x1d,0x34,0xd4,0x1e,
0x30,0xd4,0x2a,0x34,0xd4,0x33,0x50,0xd4,0x1c,0x04,0x84,0x3f,0x00,0x10,0x84,0x43,
0x00,0x24,0xd4,0x00,0x83,0x18,0x94,0x3f,0x6b,0x00,0x94,0x43,0x67,0x10,0xd4,0x04,
0x40,0xd4,0x0a,0x38,0xd4,0x00,0x2c,0x84,0x43,0x00,0x00,0x84,0x3f,0x00,0x68,0x94,
0x3e,0x6b,0x00,0x94,0x41,0x5f,0x10,0xd4,0x02,0x34,0xd4,0x0b,0x70,0xd4,0x00,0x10,
0x84,0x41,0x00,0x00,0x84,0x3e,0x00,0x5c,0x94,0x3f,0x63,0x04,0x94,0x43,0x62,0x20,
0xd4,0x02,0x44,0xd4,0x03,0x3c,0xd4,0x0c,0x34,0xd4,0x19,0x34,0xd4,0x23,0x34,0xd4,
0x26,0x30,0xd4,0x2c,0x34,0xd4,0x37,0x30,0xd4,0x3c,0x81,0x04,0xd4,0x1a,0x04,0x84,
0x3f,0x00,0x0c,0x84,0x43,0x00,0x28,0xd4,0x00,0x82,0x34,0x94,0x3f,0x75,0x00,0x94,
0x43,0x6b,0x10,0xd4,0x07,0x34,0xd4,0x0b,0x38,0xd4,0x00,0x14,0x84,0x43,0x00,0x0c,
0x84,0x3f,0x00,0x81,0x00,0x94,0x3b,0x67,0x00,0x94,0x3e,0x6b,0x14,0xd4,0x06,0x40,
0xd4,0x0b,0x38,0xd4,0x00,0x1c,0x84,0x3e,0x00,0x00,0x84,0x3b,0x00,0x78,0x94,0x3f,
0x5a,0x04,0x94,0x3c,0x54,0x1c,0xd4,0x01,0x44,0xd4,0x00,0x74,0xd4,0x01,0x30,0xd4,
0x00,0x70,0xd4,0x05,0x58,0xd4,0x05,0x30,0xd4,0x0f,0x30,0xd4,0x0e,0x3c,0xd4,0x15,
0x30,0xd4,0x16,0x30,0xd4,0x13,0x30,0xd4,0x1b,0x30,0xd4,0x19,0x48,0xd4,0x1b,0x40,
0xd4,0x17,0x34,0xd4,0x0a,0x30,0xd4,0x06,0x60,0xd4,0x02,0x30,0xd4,0x00,0x81,0x30,
0x84,0x3c,0x00,0x0c,0x84,0x3f,0x00,0x81,0x1c,0x94,0x37,0x7f,0x00,0x94,0x3c,0x7f,
0x18,0xd4,0x04,0x1c,0x84,0x3c,0x00,0x00,0x84,0x37,0x00,0x20,0xd4,0x00,0x08,0x94,
0x37,0x5d,0x00,0x94,0x3c,0x5d,0x30,0x84,0x3c,0x00,0x04,0x84,0x37,0x00,0x08,0xd4,
0x01,0x28,0x94,0x37,0x74,0x00,0x94,0x3c,0x6f,0x14,0xd4,0x0c,0x30,0xd4,0x23,0x7c,
0xd4,0x22,0x38,0xd4,0x18,0x30,0xd4,0x11,0x34,0xd4,0x0d,0x34,0x84,0x3c,0x00,0x0c,
0x84,0x37,0x00,0x08,0xd4,0x00,0x81,0xd4,0x5c,0x94,0x30,0x67,0x00,0x94,0x35,0x62,
0x34,0xd4,0x06,0x34,0xd4,0x07,0x34,0xd4,0x00,0x38,0xd4,0x00,0x84,0x68,0x84,0x30,
0x00,0x08,0x84,0x35,0x00,0x78,0x94,0x30,0x64,0x04,0x94,0x35,0x5f,0x34,0xd4,0x04,
0x30,0xd4,0x00,0x4c,0xd4,0x06,0x34,0xd4,0x04,0x08,0x84,0x30,0x00,0x2c,0xd4,0x00,
0x40,0x84,0x35,0x00,0x24,0x94,0x30,0x5a,0x50,0xd4,0x00,0x44,0x84,0x30,0x00,0x30,
0x94,0x3a,0x5a,0x00,0x94,0x3f,0x54,0x00,0x94,0x41,0x51,0x30,0xd4,0x01,0x34,0xd4,
0x00,0x82,0x34,0xd4,0x07,0x30,0xd4,0x12,0x34,0xd4,0x20,0x30,0xd4,0x22,0x30,0xd4,
0x0b,0x34,0xd4,0x00,0x40,0x84,0x41,0x00,0x0c,0x84,0x3f,0x00,0x00,0x84,0x3a,0x00,
0x24,0x94,0x3a,0x53,0x00,0x94,0x3e,0x53,0x00,0x94,0x41,0x52,0x14,0xd4,0x00,0x64,
0xd4,0x00,0x81,0x04,0xd4,0x00,0x81,0x54,0xd4,0x00,0x70,0x84,0x3e,0x00,0x24,0x84,
0x41,0x00,0x28,0x84,0x3a,0x00,0x74,0x94,0x30,0x56,0x00,0x94,0x35,0x62,0x00,0x94,
0x3d,0x43,0x18,0x84,0x3d,0x00,0x14,0xd4,0x05,0x34,0xd4,0x03,0x30,0xd4,0x00,0x82,
0x54,0xd4,0x00,0x81,0x78,0xd4,0x02,0x30,0xd4,0x04,0x5c,0xd4,0x00,0x34,0x84,0x35,
0x00,0x00,0x84,0x30,0x00,0x20,0x94,0x30,0x5a,0x00,0x94,0x35,0x5d,0x50,0xd4,0x12,
0x34,0xd4,0x0c,0x30,0xd4,0x09,0x30,0xd4,0x08,0x20,0x84,0x30,0x00,0x3c,0xd4,0x05,
0x30,0xd4,0x00,0x10,0x94,0x30,0x54,0x04,0x84,0x35,0x00,0x2c,0xd4,0x02,0x30,0xd4,
0x00,0x24,0x84,0x30,0x00,0x40,0x94,0x33,0x63,0x00,0x94,0x3a,0x5a,0x14,0xd4,0x00,
0x44,0xd4,0x03,0x34,0xd4,0x0d,0x30,0xd4,0x0f,0x34,0xd4,0x00,0x24,0x84,0x33,0x00,
0x0c,0x84,0x3a,0x00,0x60,0x94,0x35,0x5b,0x00,0x94,0x3a,0x5e,0x10,0xd4,0x00,0x38,
0xd4,0x05,0x44,0xd4,0x00,0x58,0xd4,0x03,0x30,0xd4,0x07,0x44,0xd4,0x0e,0x34,0xd4,
0x19,0x34,0xd4,0x1e,0x44,0xd4,0x1c,0x3c,0xd4,0x18,0x2c,0xd4,0x11,0x30,0xd4,0x0f,
0x6c,0xd4,0x0c,0x30,0xd4,0x0a,0x30,0xd4,0x08,0x3c,0xd4,0x00,0x7c,0x84,0x35,0x00,
0x30,0x84,0x3a,0x00,0x30,0x94,0x30,0x56,0x00,0x94,0x35,0x58,0x18,0xd4,0x06,0x30,
0xd4,0x00,0x81,0x4c,0xd4,0x01,0x81,0x30,0xd4,0x03,0x30,0xd4,0x05,0x81,0x00,0xd4,
0x06,0x81,0x44,0xd4,0x05,0x30,0xd4,0x00,0x30,0x84,0x30,0x00,0x08,0x84,0x35,0x00,
0x1c,0x94,0x35,0x58,0x04,0x94,0x30,0x5a,0x30,0xd4,0x0f,0x34,0xd4,0x12,0x30,0xd4,
0x0d,0x3c,0xd4,0x0c,0x30,0x84,0x30,0x00,0x0c,0xd4,0x07,0x34,0xd4,0x00,0x3c,0x94,
0x30,0x5b,0x04,0x84,0x35,0x00,0x1c,0xd4,0x05,0x38,0xd4,0x03,0x38,0xd4,0x00,0x34,
0x94,0x3a,0x57,0x00,0x94,0x3f,0x56,0x00,0x94,0x41,0x4e,0x08,0x84,0x30,0x00,0x81,
0x10,0xd4,0x00,0x68,0xd4,0x00,0x30,0x84,0x41,0x00,0x14,0x84,0x3a,0x00,0x04,0x84,
0x3f,0x00,0x38,0x94,0x3a,0x50,0x00,0x94,0x3e,0x51,0x00,0x94,0x41,0x55,0x18,0xd4,
0x01,0x34,0xd4,0x00,0x84,0x20,0x84,0x3a,0x00,0x6c,0xd4,0x03,0x14,0x84,0x3e,0x00,
0x30,0xd4,0x00,0x10,0x84,0x41,0x00,0x30,0x94,0x43,0x62,0x48,0xd4,0x02,0x34,0xd4,
0x02,0x30,0xd4,0x00,0x14,0x84,0x43,0x00,0x81,0x00,0x94,0x44,0x6f,0x82,0x00,0x84,
0x44,0x00,0x08,0x94,0x43,0x6b,0x81,0x68,0x84,0x43,0x00,0x1c,0x94,0x44,0x67,0x81,
0x3c,0x84,0x44,0x00,0x1c,0x94,0x46,0x6b,0x82,0x20,0x84,0x46,0x00,0x08,0x94,0x44,
0x60,0x81,0x3c,0x84,0x44,0x00,0x18,0x94,0x46,0x67,0x81,0x6c,0x84,0x46,0x00,0x1c,
0x94,0x48,0x58,0x86,0x68,0x84,0x48,0x00,0x9d,0x18,0x94,0x43,0x4f,0x98,0x04,0x94,
0x41,0x59,0x10,0x84,0x43,0x00,0x8c,0x00,0x94,0x3f,0x5a,0x04,0x84,0x41,0x00,0x8b,
0x10,0x84,0x3f,0x00,0x54,0x94,0x43,0x5b,0x98,0x00,0x94,0x41,0x51,0x1c,0x84,0x43,
0x00,0x8b,0x68,0x94,0x3f,0x57,0x04,0x84,0x41,0x00,0x89,0x04,0x84,0x3f,0x00,0x82,
0x78,0x94,0x30,0x5f,0x00,0x94,0x35,0x5d,0x01,0x84,0x35,0x00,0x00,0x84,0x30,0x00,
0x13,0xd4,0x00,0x3c,0xd4,0x06,0x30,0xd4,0x00,0x84,0x3c,0xd4,0x00,0x38,0xd4,0x02,
0x54,0xd4,0x00,0x70,0x94,0x30,0x5f,0x04,0x94,0x35,0x5b,0x00,0xd4,0x03,0x38,0xd4,
0x09,0x38,0xd4,0x06,0x81,0x20,0x84,0x30,0x00,0x14,0xd4,0x03,0x34,0xd4,0x00,0x24,
0x94,0x30,0x67,0x20,0xd4,0x03,0x1c,0x84,0x35,0x00,0x1c,0xd4,0x01,0x38,0xd4,0x00,
0x2c,0x84,0x30,0x00,0x08,0x94,0x3a,0x56,0x00,0x94,0x3f,0x53,0x00,0x94,0x41,0x51,
0x48,0xd4,0x00,0x30,0xd4,0x00,0x3c,0xd4,0x02,0x70,0xd4,0x00,0x38,0xd4,0x00,0x6c,
0xd4,0x0c,0x30,0xd4,0x24,0x34,0xd4,0x2f,0x30,0xd4,0x28,0x30,0xd4,0x10,0x34,0xd4,
0x00,0x1c,0x84,0x3a,0x00,0x0c,0x84,0x41,0x00,0x10,0x84,0x3f,0x00,0x08,0x94,0x3a,
0x51,0x00,0x94,0x3e,0x52,0x00,0x94,0x41,0x50,0x84,0x54,0x84,0x41,0x00,0x64,0x84,
0x3e,0x00,0x48,0x94,0x30,0x4d,0x00,0x94,0x35,0x5b,0x04,0x84,0x3a,0x00,0x40,0xd4,
0x01,0x30,0xd4,0x00,0x7c,0xd4,0x03,0x6c,0xd4,0x04,0x34,0xd4,0x08,0x30,0xd4,0x0c,
0x34,0xd4,0x11,0x30,0xd4,0x15,0x30,0xd4,0x19,0x30,0xd4,0x1a,0x60,0xd4,0x1c,0x48,
0xd4,0x1d,0x50,0xd4,0x1e,0x30,0xd4,0x21,0x34,0xd4,0x25,0x38,0xd4,0x28,0x48,0xd4,
0x29,0x58,0xd4,0x23,0x34,0xd4,0x17,0x30,0xd4,0x0b,0x34,0xd4,0x02,0x38,0xd4,0x00,
0x08,0x84,0x35,0x00,0x40,0x84,0x30,0x00,0x30,0x94,0x33,0x6f,0x00,0x94,0x3a,0x58,
0x34,0xd4,0x00,0x60,0xd4,0x01,0x30,0xd4,0x00,0x40,0x84,0x3a,0x00,0x14,0x84,0x33,
0x00,0x68,0x94,0x35,0x5d,0x00,0x94,0x3a,0x57,0x28,0xd4,0x01,0x44,0xd4,0x00,0x81,
0x78,0xd4,0x00,0x34,0xd4,0x08,0x34,0xd4,0x0f,0x30,0xd4,0x0e,0x30,0xd4,0x08,0x4c,
0xd4,0x06,0x30,0xd4,0x01,0x34,0xd4,0x00,0x82,0x30,0x84,0x35,0x00,0x54,0x84,0x3a,
0x00,0x20,0x94,0x35,0x62,0x04,0x94,0x30,0x54,0x01,0x84,0x30,0x00,0x4b,0xd4,0x00,
0x48,0xd4,0x00,0x68,0x84,0x35,0x00,0x81,0x00,0x94,0x30,0x5a,0x00,0x94,0x35,0x5f,
0x18,0xd4,0x02,0x34,0xd4,0x02,0x34,0xd4,0x00,0x81,0x04,0xd4,0x01,0x4c,0xd4,0x04,
0x68,0xd4,0x05,0x30,0xd4,0x00,0x08,0x84,0x30,0x00,0x0c,0x84,0x35,0x00,0x40,0x94,
0x30,0x5b,0x04,0x94,0x35,0x5b,0x3c,0xd4,0x13,0x34,0xd4,0x0d,0x40,0xd4,0x0f,0x44,
0xd4,0x0b,0x18,0x84,0x30,0x00,0x0c,0x84,0x35,0x00,0x0c,0xd4,0x00,0x58,0x94,0x30,
0x56,0x04,0x94,0x35,0x56,0x30,0xd4,0x0c,0x30,0xd4,0x01,0x2c,0x84,0x35,0x00,0x10,
0xd4,0x00,0x24,0x94,0x3a,0x54,0x00,0x94,0x3f,0x4e,0x00,0x94,0x41,0x51,0x10,0x84,
0x30,0x00,0x81,0x0c,0xd4,0x01,0x6c,0xd4,0x00,0x81,0x04,0xd4,0x0b,0x38,0xd4,0x10,
0x34,0xd4,0x1d,0x30,0xd4,0x1f,0x34,0xd4,0x0d,0x30,0xd4,0x00,0x40,0x84,0x3a,0x00,
0x0c,0x84,0x41,0x00,0x00,0x84,0x3f,0x00,0x28,0x94,0x3a,0x4d,0x00,0x94,0x3e,0x4b,
0x00,0x94,0x41,0x4a,0x82,0x04,0x84,0x3e,0x00,0x0c,0xd4,0x02,0x30,0xd4,0x05,0x28,
0x84,0x3a,0x00,0x18,0xd4,0x07,0x44,0xd4,0x06,0x34,0xd4,0x00,0x44,0x94,0x43,0x43,
0x10,0x84,0x43,0x00,0x28,0xd4,0x00,0x40,0x84,0x41,0x00,0x54,0x94,0x44,0x6b,0x38,
0xd4,0x00,0x81,0x58,0x94,0x43,0x74,0x04,0x84,0x44,0x00,0x24,0xd4,0x04,0x30,0xd4,
0x01,0x44,0xd4,0x00,0x5c,0x94,0x44,0x59,0x10,0x84,0x43,0x00,0x24,0xd4,0x03,0x38,
0xd4,0x00,0x78,0x94,0x46,0x63,0x04,0x84,0x44,0x00,0x30,0xd4,0x04,0x4c,0xd4,0x0e,
0x30,0xd4,0x1b,0x38,0xd4,0x17,0x34,0xd4,0x01,0x0c,0x94,0x44,0x60,0x1c,0x84,0x46,
0x00,0x08,0xd4,0x04,0x30,0xd4,0x04,0x40,0xd4,0x03,0x34,0xd4,0x00,0x30,0x94,0x46,
0x5e,0x04,0x84,0x44,0x00,0x30,0xd4,0x04,0x48,0xd4,0x03,0x30,0xd4,0x00,0x2c,0x84,
0x46,0x00,0x08,0x94,0x48,0x52,0x28,0xd4,0x00,0x30,0xd4,0x00,0x4c,0xd4,0x00,0x48,
0xd4,0x04,0x30,0xd4,0x11,0x5c,0xd4,0x19,0x30,0xd4,0x18,0x38,0xd4,0x1f,0x38,0xd4,
0x1e,0x3c,0xd4,0x26,0x58,0xd4,0x28,0x30,0xd4,0x2d,0x38,0xd4,0x31,0x30,0xd4,0x18,
0x04,0x84,0x48,0x00,0x30,0xd4,0x00,0x81,0x95,0x14,0x94,0x30,0x5b,0x00,0x94,0x35,
0x5a,0x58,0xd4,0x00,0x82,0x34,0xd4,0x03,0x34,0xd4,0x07,0x30,0xd4,0x0b,0x38,0xd4,
0x0f,0x30,0xd4,0x13,0x34,0xd4,0x18,0x7c,0xd4,0x16,0x30,0xd4,0x0e,0x24,0x84,0x30,
0x00,0x0c,0xd4,0x00,0x08,0x84,0x35,0x00,0x4c,0x94,0x35,0x58,0x04,0x94,0x30,0x55,
0x18,0xd4,0x01,0x34,0xd4,0x00,0x81,0x40,0x84,0x30,0x00,0x04,0x84,0x35,0x00,0x6c,
0x94,0x35,0x58,0x04,0x94,0x30,0x56,0x3c,0x84,0x30,0x00,0x18,0x84,0x35,0x00,0x6c,
0x94,0x3a,0x57,0x00,0x94,0x3f,0x57,0x00,0x94,0x41,0x53,0x81,0x0c,0xd4,0x04,0x81,
0x2c,0xd4,0x0b,0x30,0xd4,0x16,0x34,0xd4,0x1b,0x30,0xd4,0x1c,0x48,0xd4,0x1e,0x44,
0xd4,0x19,0x30,0xd4,0x11,0x28,0x84,0x3a,0x00,0x0c,0x84,0x41,0x00,0x00,0xd4,0x00,
0x10,0x84,0x3f,0x00,0x34,0x94,0x3a,0x5e,0x00,0x94,0x3e,0x4e,0x00,0x94,0x41,0x50,
0x08,0xd4,0x01,0x44,0xd4,0x07,0x34,0xd4,0x03,0x38,0xd4,0x02,0x60,0xd4,0x00,0x58,
0xd4,0x0b,0x30,0xd4,0x15,0x48,0xd4,0x1a,0x30,0xd4,0x24,0x30,0xd4,0x23,0x34,0xd4,
0x0f,0x30,0xd4,0x00,0x1c,0x84,0x41,0x00,0x00,0x84,0x3a,0x00,0x0c,0x84,0x3e,0x00,
0x2c,0x94,0x30,0x4c,0x00,0x94,0x35,0x5d,0x18,0xd4,0x02,0x3c,0xd4,0x03,0x30,0xd4,
0x00,0x81,0x70,0xd4,0x02,0x38,0xd4,0x03,0x4c,0xd4,0x04,0x81,0x18,0xd4,0x03,0x40,
0xd4,0x04,0x30,0xd4,0x09,0x4c,0xd4,0x00,0x14,0x84,0x35,0x00,0x04,0x84,0x30,0x00,
0x58,0x94,0x30,0x62,0x00,0x94,0x35,0x5f,0x0c,0xd4,0x02,0x34,0xd4,0x0a,0x34,0xd4,
0x07,0x5c,0xd4,0x08,0x38,0xd4,0x09,0x81,0x04,0xd4,0x08,0x34,0xd4,0x00,0x58,0x84,
0x35,0x00,0x20,0x84,0x30,0x00,0x0c,0x94,0x33,0x60,0x00,0x94,0x3a,0x60,0x82,0x48,
0x84,0x3a,0x00,0x38,0x94,0x35,0x58,0x00,0x94,0x3a,0x57,0x08,0x84,0x33,0x00,0x24,
0xd4,0x08,0x3c,0xd4,0x04,0x34,0xd4,0x01,0x54,0xd4,0x00,0x82,0x08,0xd4,0x00,0x34,
0xd4,0x11,0x30,0xd4,0x1b,0x44,0xd4,0x14,0x78,0xd4,0x0c,0x30,0xd4,0x07,0x34,0xd4,
0x00,0x3c,0xd4,0x00,0x74,0x84,0x35,0x00,0x34,0x84,0x3a,0x00,0x18,0xd4,0x00,0x08,
0x94,0x30,0x58,0x00,0x94,0x35,0x5b,0x3c,0xd4,0x00,0x86,0x38,0x84,0x35,0x00,0x08,
0x84,0x30,0x00,0x40,0x94,0x35,0x62,0x04,0x94,0x30,0x55,0x28,0xd4,0x05,0x38,0xd4,
0x05,0x30,0xd4,0x02,0x3c,0xd4,0x00,0x30,0xd4,0x00,0x3c,0x84,0x30,0x00,0x00,0x84,
0x35,0x00,0x48,0x94,0x30,0x50,0x00,0x94,0x35,0x55,0x0c,0xd4,0x02,0x38,0xd4,0x12,
0x38,0xd4,0x0c,0x38,0xd4,0x00,0x0c,0x94,0x3a,0x54,0x00,0x94,0x3f,0x50,0x00,0x94,
0x41,0x54,0x04,0x84,0x35,0x00,0x00,0x84,0x30,0x00,0x82,0x58,0xd4,0x08,0x30,0xd4,
0x16,0x44,0xd4,0x17,0x54,0xd4,0x09,0x34,0xd4,0x00,0x40,0x84,0x3a,0x00,0x0c,0x84,
0x3f,0x00,0x04,0x84,0x41,0x00,0x58,0x94,0x3a,0x4f,0x00,0x94,0x3e,0x50,0x00,0x94,
0x41,0x4e,0x82,0x74,0x84,0x3a,0x00,0x0c,0xd4,0x00,0x2c,0xd4,0x01,0x44,0xd4,0x04,
0x38,0xd4,0x06,0x54,0xd4,0x00,0x0c,0x84,0x3e,0x00,0x18,0x84,0x41,0x00,0x70,0x94,
0x44,0x67,0x40,0xd4,0x00,0x81,0x48,0x84,0x44,0x00,0x08,0x94,0x43,0x67,0x1c,0xd4,
0x05,0x30,0xd4,0x03,0x70,0xd4,0x00,0x44,0x94,0x44,0x67,0x1c,0x84,0x43,0x00,0x14,
0xd4,0x01,0x30,0xd4,0x00,0x81,0x10,0x94,0x46,0x6b,0x04,0x84,0x44,0x00,0x24,0xd4,
0x04,0x30,0xd4,0x02,0x30,0xd4,0x00,0x81,0x08,0x94,0x44,0x63,0x10,0x84,0x46,0x00,
0x18,0xd4,0x02,0x74,0xd4,0x00,0x54,0x94,0x46,0x63,0x1c,0xd4,0x01,0x08,0x84,0x44,
0x00,0x30,0xd4,0x01,0x50,0xd4,0x00,0x34,0x84,0x46,0x00,0x18,0x94,0x48,0x5f,0x28,
0xd4,0x04,0x38,0xd4,0x04,0x30,0xd4,0x01,0x38,0xd4,0x00,0x4c,0xd4,0x08,0x30,0xd4,
0x08,0x30,0xd4,0x09,0x30,0xd4,0x11,0x30,0xd4,0x0d,0x44,0xd4,0x15,0x30,0xd4,0x11,
0x30,0xd4,0x10,0x30,0xd4,0x10,0x30,0xd4,0x08,0x30,0xd4,0x0e,0x40,0xd4,0x07,0x3c,
0xd4,0x0e,0x48,0xd4,0x08,0x3c,0xd4,0x12,0x40,0xd4,0x0c,0x30,0xd4,0x14,0x30,0xd4,
0x15,0x30,0xd4,0x13,0x30,0xd4,0x1a,0x44,0xd4,0x17,0x30,0xd4,0x1e,0x40,0xd4,0x21,
0x30,0xd4,0x26,0x30,0xd4,0x2a,0x38,0x84,0x48,0x00,0x04,0xd4,0x14,0x30,0xd4,0x00,
0xa2,0x7c,0x94,0x37,0x64,0x00,0x94,0x3c,0x62,0x3c,0xd4,0x07,0x34,0xd4,0x09,0x34,
0xd4,0x18,0x30,0x84,0x37,0x00,0x04,0xd4,0x0d,0x08,0x84,0x3c,0x00,0x28,0xd4,0x00,
0x83,0x78,0x94,0x37,0x6f,0x00,0x94,0x3c,0x6b,0x08,0xd4,0x02,0x34,0xd4,0x09,0x4c,
0xd4,0x00,0x14,0x84,0x37,0x00,0x0c,0x84,0x3c,0x00,0x74,0x94,0x35,0x67,0x00,0x94,
0x3a,0x67,0x08,0xd4,0x01,0x40,0xd4,0x00,0x64,0x84,0x35,0x00,0x04,0x84,0x3a,0x00,
0x70,0x94,0x37,0x6b,0x00,0x94,0x3c,0x67,0x60,0xd4,0x19,0x4c,0xd4,0x28,0x34,0xd4,
0x0e,0x18,0x84,0x3c,0x00,0x00,0x84,0x37,0x00,0x18,0xd4,0x00,0x85,0x34,0x94,0x37,
0x6f,0x00,0x94,0x3c,0x6f,0x00,0xd4,0x05,0x70,0xd4,0x00,0x2c,0x84,0x3c,0x00,0x00,
0x84,0x37,0x00,0x81,0x00,0x94,0x35,0x62,0x00,0x94,0x3a,0x63,0x10,0xd4,0x02,0x58,
0xd4,0x00,0x30,0x84,0x3a,0x00,0x04,0x84,0x35,0x00,0x81,0x04,0x94,0x37,0x67,0x00,
0x94,0x3c,0x64,0x58,0xd4,0x1e,0x4c,0xd4,0x27,0x44,0xd4,0x0d,0x0c,0x84,0x37,0x00,
0x10,0x84,0x3c,0x00,0x14,0xd4,0x00,0x85,0x2c,0x94,0x37,0x6f,0x00,0x94,0x3c,0x62,
0x20,0xd4,0x0b,0x64,0xd4,0x00,0x08,0x84,0x37,0x00,0x08,0x84,0x3c,0x00,0x81,0x08,
0x94,0x32,0x64,0x00,0x94,0x37,0x6f,0x28,0xd4,0x09,0x4c,0xd4,0x00,0x28,0x84,0x37,
0x00,0x04,0x84,0x32,0x00,0x81,0x04,0x94,0x33,0x67,0x00,0x94,0x38,0x63,0x85,0x34,
0xd4,0x03,0x30,0xd4,0x03,0x54,0xd4,0x0c,0x81,0x04,0xd4,0x15,0x44,0xd4,0x16,0x30,
0xd4,0x1e,0x81,0x1c,0xd4,0x22,0x3c,0xd4,0x24,0x58,0xd4,0x0c,0x0c,0x84,0x38,0x00,
0x00,0x84,0x33,0x00,0x24,0xd4,0x00,0x82,0x30,0x94,0x37,0x6f,0x00,0x94,0x3c,0x62,
0x40,0xd4,0x12,0x4c,0xd4,0x14,0x34,0xd4,0x11,0x24,0x84,0x3c,0x00,0x00,0x84,0x37,
0x00,0x10,0xd4,0x00,0x84,0x0c,0x94,0x37,0x79,0x00,0x94,0x3c,0x6f,0x00,0xd4,0x02,
0x34,0xd4,0x0b,0x34,0xd4,0x0a,0x34,0xd4,0x00,0x24,0x84,0x3c,0x00,0x00,0x84,0x37,
0x00,0x5c,0x94,0x35,0x67,0x00,0x94,0x3a,0x67,0x04,0xd4,0x00,0x30,0xd4,0x07,0x34,
0xd4,0x00,0x40,0x84,0x3a,0x00,0x00,0x84,0x35,0x00,0x78,0x94,0x37,0x6b,0x00,0x94,
0x3c,0x5f,0x5c,0xd4,0x01,0x40,0xd4,0x09,0x34,0xd4,0x17,0x30,0xd4,0x1b,0x34,0xd4,
0x23,0x34,0xd4,0x2a,0x34,0xd4,0x30,0x40,0xd4,0x1c,0x18,0x84,0x3c,0x00,0x00,0x84,
0x37,0x00,0x20,0xd4,0x00,0x83,0x30,0x94,0x37,0x6b,0x00,0x94,0x3c,0x6b,0x3c,0xd4,
0x08,0x40,0xd4,0x00,0x28,0x84,0x3c,0x00,0x00,0x84,0x37,0x00,0x78,0x94,0x35,0x5f,
0x00,0x94,0x3a,0x67,0x20,0xd4,0x06,0x38,0xd4,0x00,0x44,0x84,0x3a,0x00,0x0c,0x84,
0x35,0x00,0x78,0x94,0x3c,0x5a,0x04,0x94,0x37,0x62,0x18,0xd4,0x03,0x30,0xd4,0x03,
0x38,0xd4,0x05,0x34,0xd4,0x15,0x38,0xd4,0x1d,0x34,0xd4,0x28,0x30,0xd4,0x30,0x34,
0xd4,0x37,0x4c,0x84,0x37,0x00,0x00,0xd4,0x1a,0x0c,0x84,0x3c,0x00,0x2c,0xd4,0x00,
0x83,0x38,0x94,0x37,0x6f,0x00,0x94,0x3c,0x5f,0x1c,0xd4,0x0a,0x58,0xd4,0x00,0x20,
0x84,0x3c,0x00,0x2c,0x84,0x37,0x00,0x5c,0x94,0x37,0x67,0x00,0x94,0x32,0x6b,0x38,
0xd4,0x0f,0x4c,0xd4,0x09,0x34,0xd4,0x00,0x0c,0x84,0x32,0x00,0x1c,0x84,0x37,0x00,
0x40,0x94,0x38,0x60,0x04,0x94,0x33,0x67,0x48,0xd4,0x00,0x85,0x18,0xd4,0x06,0x30,
0xd4,0x0a,0x34,0xd4,0x12,0x30,0xd4,0x1a,0x30,0xd4,0x20,0x5c,0xd4,0x2a,0x44,0xd4,
0x26,0x50,0xd4,0x17,0x34,0xd4,0x0a,0x30,0xd4,0x07,0x60,0xd4,0x00,0x04,0x84,0x33,
0x00,0x08,0x84,0x38,0x00,0x82,0x5c,0x94,0x3f,0x67,0x00,0x94,0x43,0x5a,0x44,0xd4,
0x04,0x34,0xd4,0x09,0x34,0xd4,0x0e,0x3c,0xd4,0x11,0x38,0xd4,0x0d,0x1c,0x84,0x3f,
0x00,0x04,0x84,0x43,0x00,0x18,0xd4,0x00,0x83,0x28,0x94,0x3f,0x67,0x00,0x94,0x43,
0x64,0x30,0xd4,0x0b,0x6c,0xd4,0x0e,0x34,0x84,0x43,0x00,0x00,0x84,0x3f,0x00,0x00,
0xd4,0x00,0x4c,0x94,0x3e,0x56,0x00,0x94,0x41,0x55,0x3c,0xd4,0x10,0x7c,0xd4,0x0a,
0x34,0xd4,0x00,0x18,0x84,0x41,0x00,0x00,0x84,0x3e,0x00,0x1c,0x94,0x3f,0x5a,0x04,
0x94,0x43,0x62,0x40,0xd4,0x05,0x30,0xd4,0x08,0x54,0xd4,0x17,0x34,0xd4,0x23,0x38,
0xd4,0x29,0x34,0xd4,0x30,0x30,0xd4,0x35,0x38,0x84,0x43,0x00,0x04,0x84,0x3f,0x00,
0x00,0xd4,0x10,0x30,0xd4,0x00,0x83,0x40,0x94,0x3f,0x63,0x00,0x94,0x43,0x62,0x38,
0xd4,0x0b,0x30,0xd4,0x09,0x5c,0xd4,0x00,0x04,0x84,0x43,0x00,0x0c,0x84,0x3f,0x00,
0x48,0x94,0x3e,0x5f,0x00,0x94,0x41,0x62,0x34,0xd4,0x0d,0x34,0xd4,0x0e,0x30,0xd4,
0x0d,0x34,0xd4,0x00,0x10,0x84,0x41,0x00,0x10,0x84,0x3e,0x00,0x34,0x94,0x3f,0x59,
0x04,0x94,0x43,0x56,0x6c,0xd4,0x06,0x3c,0xd4,0x1e,0x60,0xd4,0x2d,0x30,0xd4,0x36,
0x60,0xd4,0x40,0x30,0xd4,0x3e,0x30,0x84,0x43,0x00,0x00,0xd4,0x0d,0x0c,0x84,0x3f,
0x00,0x24,0xd4,0x00,0x83,0x18,0x94,0x3f,0x63,0x00,0x94,0x43,0x5f,0x3c,0xd4,0x09,
0x38,0xd4,0x00,0x30,0x84,0x43,0x00,0x0c,0x84,0x3f,0x00,0x6c,0x94,0x3e,0x64,0x00,
0x94,0x3b,0x64,0x3c,0xd4,0x09,0x34,0xd4,0x02,0x44,0xd4,0x00,0x14,0x84,0x3b,0x00,
0x14,0x84,0x3e,0x00,0x44,0x94,0x3f,0x58,0x04,0x94,0x3c,0x52,0x3c,0xd4,0x01,0x30,
0xd4,0x00,0x81,0x04,0xd4,0x02,0x40,0xd4,0x03,0x4c,0xd4,0x04,0x30,0xd4,0x08,0x30,
0xd4,0x08,0x30,0xd4,0x02,0x3c,0xd4,0x05,0x30,0xd4,0x0d,0x68,0xd4,0x0a,0x30,0xd4,
0x0f,0x30,0xd4,0x16,0x74,0xd4,0x16,0x34,0xd4,0x1e,0x40,0xd4,0x1b,0x6c,0xd4,0x22,
0x40,0xd4,0x1e,0x34,0xd4,0x16,0x3c,0xd4,0x0e,0x30,0x84,0x3c,0x00,0x04,0xd4,0x00,
0x08,0x84,0x3f,0x00,0x82,0x40,0x94,0x3f,0x63,0x00,0x94,0x43,0x5d,0x04,0xd4,0x01,
0x4c,0xd4,0x05,0x3c,0xd4,0x18,0x34,0xd4,0x27,0x34,0xd4,0x12,0x30,0x84,0x3f,0x00,
0x04,0x84,0x43,0x00,0x00,0xd4,0x00,0x83,0x58,0x94,0x3f,0x60,0x00,0x94,0x43,0x64,
0x2c,0xd4,0x0d,0x58,0xd4,0x09,0x30,0xd4,0x00,0x18,0x84,0x3f,0x00,0x0c,0x84,0x43,
0x00,0x44,0x94,0x3e,0x5f,0x00,0x94,0x41,0x5b,0x3c,0xd4,0x0d,0x30,0xd4,0x0e,0x3c,
0xd4,0x0c,0x34,0xd4,0x00,0x20,0x84,0x41,0x00,0x00,0x84,0x3e,0x00,0x24,0x94,0x3f,
0x5c,0x00,0x94,0x43,0x5d,0x44,0xd4,0x09,0x48,0xd4,0x14,0x34,0xd4,0x25,0x34,0xd4,
0x30,0x44,0xd4,0x2e,0x5c,0xd4,0x0b,0x0c,0x84,0x43,0x00,0x00,0x84,0x3f,0x00,0x24,
0xd4,0x00,0x84,0x00,0x94,0x3f,0x60,0x00,0x94,0x43,0x67,0x50,0xd4,0x0c,0x34,0xd4,
0x00,0x34,0x84,0x43,0x00,0x00,0x84,0x3f,0x00,0x64,0x94,0x3e,0x5f,0x00,0x94,0x41,
0x64,0x38,0xd4,0x0c,0x3c,0xd4,0x0a,0x34,0xd4,0x00,0x14,0x84,0x41,0x00,0x00,0x84,
0x3e,0x00,0x64,0x94,0x3f,0x5a,0x00,0x94,0x43,0x55,0x44,0xd4,0x02,0x34,0xd4,0x01,
0x34,0xd4,0x16,0x34,0xd4,0x1e,0x3c,0xd4,0x1b,0x64,0xd4,0x28,0x30,0xd4,0x2d,0x3c,
0xd4,0x31,0x58,0xd4,0x14,0x24,0x84,0x43,0x00,0x00,0x84,0x3f,0x00,0x10,0xd4,0x00,
0x82,0x48,0x94,0x3f,0x75,0x04,0x94,0x43,0x6f,0x64,0xd4,0x0e,0x34,0xd4,0x00,0x08,
0x84,0x43,0x00,0x00,0x84,0x3f,0x00,0x7c,0x94,0x37,0x79,0x00,0x94,0x3e,0x7f,0x40,
0xd4,0x18,0x40,0xd4,0x0e,0x30,0xd4,0x00,0x14,0x84,0x3e,0x00,0x00,0x84,0x37,0x00,
0x5c,0x94,0x38,0x75,0x00,0x94,0x3f,0x60,0x3c,0xd4,0x06,0x3c,0xd4,0x01,0x30,0xd4,
0x00,0x40,0xd4,0x00,0x83,0x0c,0xd4,0x01,0x34,0xd4,0x02,0x54,0xd4,0x05,0x38,0xd4,
0x08,0x30,0xd4,0x0b,0x81,0x14,0xd4,0x0a,0x30,0xd4,0x06,0x48,0xd4,0x07,0x44,0xd4,
0x06,0x81,0x08,0xd4,0x05,0x81,0x00,0x84,0x3f,0x00,0x00,0x84,0x38,0x00,0x04,0xd4,
0x00,0x8e,0x0c,0xb4,0x40,0x00,0x00,0xd4,0x00,0x00,0xe4,0x00,0x40,0x81,0x40,0xff,
0x2f,0x00,0x4d,0x54,0x72,0x6b,0x00,0x00,0x09,0xba,0x00,0xff,0x03,0x0a,0x44,0x49,
0x53,0x54,0x4f,0x52,0x54,0x49,0x4f,0x4e,0x98,0x00,0xb5,0x0a,0x14,0x00,0xb5,0x5b,
0x28,0x00,0xb5,0x5d,0x00,0xbc,0x04,0xb5,0x07,0x7f,0x00,0xc5,0x1e,0x00,0x95,0x30,
0x6b,0x00,0x95,0x37,0x6b,0x2c,0xd5,0x16,0x34,0xd5,0x11,0x34,0xd5,0x00,0x04,0x85,
0x37,0x00,0x10,0x85,0x30,0x00,0x84,0x58,0x95,0x30,0x66,0x00,0x95,0x37,0x78,0x10,
0xd5,0x06,0x3c,0xd5,0x0c,0x30,0xd5,0x00,0x08,0x85,0x37,0x00,0x18,0x85,0x30,0x00,
0x81,0x04,0x95,0x2e,0x76,0x00,0x95,0x35,0x61,0x34,0xd5,0x09,0x34,0xd5,0x00,0x20,
0x85,0x35,0x00,0x20,0x85,0x2e,0x00,0x78,0x95,0x30,0x72,0x00,0x95,0x37,0x72,0x3c,
0xd5,0x14,0x38,0xd5,0x0b,0x30,0x85,0x37,0x00,0x08,0xd5,0x00,0x04,0x85,0x30,0x00,
0x86,0x10,0x95,0x30,0x6b,0x00,0x95,0x37,0x72,0x14,0xd5,0x04,0x38,0xd5,0x11,0x34,
0xd5,0x00,0x14,0x85,0x37,0x00,0x00,0x85,0x30,0x00,0x81,0x0c,0x95,0x2e,0x76,0x00,
0x95,0x35,0x66,0x30,0xd5,0x0b,0x38,0xd5,0x00,0x38,0x85,0x35,0x00,0x08,0x85,0x2e,
0x00,0x78,0x95,0x30,0x72,0x00,0x95,0x37,0x78,0x14,0xd5,0x0b,0x44,0xd5,0x16,0x2c,
0x85,0x37,0x00,0x0c,0xd5,0x00,0x08,0x85,0x30,0x00,0x86,0x28,0x95,0x30,0x6b,0x00,
0x95,0x37,0x6b,0x04,0xd5,0x07,0x44,0xd5,0x0e,0x24,0x85,0x37,0x00,0x0c,0x85,0x30,
0x00,0x00,0xd5,0x00,0x81,0x28,0x95,0x2b,0x6b,0x00,0x95,0x32,0x6b,0x30,0xd5,0x09,
0x38,0xd5,0x00,0x14,0x85,0x32,0x00,0x0c,0x85,0x2b,0x00,0x81,0x18,0x95,0x2c,0x6e,
0x00,0x95,0x33,0x6e,0x20,0xd5,0x01,0x38,0xd5,0x01,0x44,0xd5,0x02,0x81,0x10,0xd5,
0x00,0x87,0x7c,0x85,0x2c,0x00,0x0c,0x85,0x33,0x00,0x83,0x0c,0x95,0x30,0x7d,0x00,
0x95,0x37,0x7d,0x20,0xd5,0x14,0x38,0xd5,0x15,0x34,0xd5,0x00,0x14,0x85,0x37,0x00,
0x00,0x85,0x30,0x00,0x84,0x60,0x95,0x30,0x78,0x00,0x95,0x37,0x78,0x08,0xd5,0x09,
0x38,0xd5,0x11,0x34,0xd5,0x00,0x10,0x85,0x37,0x00,0x18,0x85,0x30,0x00,0x81,0x04,
0x95,0x2e,0x67,0x00,0x95,0x35,0x66,0x28,0xd5,0x09,0x34,0xd5,0x00,0x44,0x85,0x35,
0x00,0x14,0x85,0x2e,0x00,0x6c,0x95,0x30,0x78,0x00,0x95,0x37,0x78,0x2c,0xd5,0x18,
0x38,0xd5,0x0f,0x30,0x85,0x37,0x00,0x04,0xd5,0x00,0x28,0x85,0x30,0x00,0x87,0x40,
0x95,0x30,0x72,0x00,0x95,0x37,0x78,0x08,0xd5,0x08,0x38,0xd5,0x17,0x34,0xd5,0x00,
0x10,0x85,0x37,0x00,0x0c,0x85,0x30,0x00,0x81,0x10,0x95,0x2e,0x76,0x00,0x95,0x35,
0x66,0x14,0xd5,0x05,0x30,0xd5,0x0c,0x34,0xd5,0x00,0x10,0x85,0x35,0x00,0x00,0x85,
0x2e,0x00,0x81,0x18,0x95,0x30,0x66,0x00,0x95,0x37,0x78,0x1c,0xd5,0x15,0x30,0xd5,
0x28,0x34,0xd5,0x0d,0x1c,0x85,0x37,0x00,0x14,0xd5,0x00,0x0c,0x85,0x30,0x00,0x84,
0x44,0x95,0x30,0x72,0x00,0x95,0x37,0x6b,0x04,0xd5,0x08,0x38,0xd5,0x14,0x34,0x85,
0x37,0x00,0x04,0xd5,0x00,0x2c,0x85,0x30,0x00,0x81,0x00,0x95,0x2b,0x4d,0x00,0x95,
0x32,0x61,0x40,0xd5,0x0b,0x38,0x85,0x32,0x00,0x00,0xd5,0x00,0x24,0x85,0x2b,0x00,
0x81,0x04,0x95,0x2c,0x67,0x00,0x95,0x33,0x67,0x24,0xd5,0x03,0x30,0xd5,0x00,0x89,
0x68,0x85,0x2c,0x00,0x18,0x85,0x33,0x00,0x82,0x6c,0x95,0x30,0x78,0x04,0x95,0x37,
0x7d,0x24,0xd5,0x21,0x34,0xd5,0x11,0x38,0xd5,0x00,0x18,0x85,0x30,0x00,0x0c,0x85,
0x37,0x00,0x84,0x48,0x95,0x30,0x6b,0x00,0x95,0x37,0x72,0x0c,0xd5,0x08,0x44,0xd5,
0x11,0x34,0xd5,0x00,0x0c,0x85,0x37,0x00,0x0c,0x85,0x30,0x00,0x81,0x04,0x95,0x2e,
0x67,0x00,0x95,0x35,0x5d,0x20,0xd5,0x03,0x38,0xd5,0x00,0x34,0x85,0x35,0x00,0x14,
0x85,0x2e,0x00,0x81,0x00,0x95,0x30,0x5d,0x00,0x95,0x37,0x59,0x20,0xd5,0x0a,0x40,
0xd5,0x0d,0x34,0xd5,0x07,0x50,0xd5,0x0a,0x50,0xd5,0x07,0x81,0x00,0xd5,0x0a,0x44,
0xd5,0x09,0x40,0xd5,0x08,0x38,0xd5,0x00,0x04,0x85,0x30,0x00,0x0c,0x85,0x37,0x00,
0x82,0x40,0x95,0x30,0x72,0x00,0x95,0x37,0x72,0x44,0xd5,0x13,0x34,0xd5,0x00,0x1c,
0x85,0x37,0x00,0x00,0x85,0x30,0x00,0x81,0x0c,0x95,0x2e,0x67,0x00,0x95,0x35,0x61,
0x34,0xd5,0x09,0x38,0xd5,0x00,0x30,0x85,0x35,0x00,0x0c,0x85,0x2e,0x00,0x78,0x95,
0x30,0x5d,0x00,0x95,0x37,0x61,0x48,0xd5,0x16,0x3c,0xd5,0x02,0x34,0xd5,0x03,0x30,
0xd5,0x04,0x81,0x0c,0xd5,0x00,0x34,0xd5,0x00,0x81,0x14,0x85,0x30,0x00,0x24,0x85,
0x37,0x00,0x82,0x60,0x95,0x37,0x6b,0x04,0x95,0x30,0x6b,0x3c,0xd5,0x11,0x2c,0x85,
0x37,0x00,0x0c,0xd5,0x00,0x18,0x85,0x30,0x00,0x81,0x10,0x95,0x32,0x61,0x00,0x95,
0x33,0x3d,0x00,0x95,0x2b,0x48,0x1c,0x85,0x33,0x00,0x08,0xd5,0x06,0x3c,0xd5,0x00,
0x1c,0x85,0x32,0x00,0x20,0x85,0x2b,0x00,0x81,0x04,0x95,0x2c,0x55,0x00,0x95,0x33,
0x67,0x48,0xd5,0x00,0x83,0x60,0xd5,0x04,0x34,0xd5,0x0b,0x34,0xd5,0x0e,0x34,0xd5,
0x12,0x3c,0xd5,0x1c,0x34,0xd5,0x27,0x34,0xd5,0x2d,0x30,0xd5,0x34,0x3c,0xd5,0x3a,
0x34,0xd5,0x3d,0x64,0xd5,0x3b,0x68,0xd5,0x3a,0x34,0xd5,0x34,0x30,0xd5,0x27,0x34,
0xd5,0x12,0x30,0x85,0x2c,0x00,0x08,0xd5,0x00,0x10,0x85,0x33,0x00,0x82,0x0c,0x95,
0x30,0x61,0x00,0x95,0x37,0x78,0x24,0xd5,0x15,0x38,0xd5,0x10,0x34,0xd5,0x00,0x20,
0x85,0x30,0x00,0x0c,0x85,0x37,0x00,0x84,0x44,0x95,0x30,0x72,0x00,0x95,0x37,0x78,
0x08,0xd5,0x06,0x44,0xd5,0x0f,0x34,0xd5,0x00,0x20,0x85,0x37,0x00,0x0c,0x85,0x30,
0x00,0x74,0x95,0x2e,0x6e,0x00,0x95,0x35,0x61,0x10,0xd5,0x01,0x30,0xd5,0x0a,0x34,
0xd5,0x00,0x24,0x85,0x35,0x00,0x14,0x85,0x2e,0x00,0x74,0x95,0x30,0x5d,0x00,0x95,
0x37,0x59,0x1c,0xd5,0x03,0x38,0xd5,0x13,0x38,0xd5,0x06,0x44,0xd5,0x09,0x64,0xd5,
0x0d,0x34,0xd5,0x15,0x34,0xd5,0x26,0x38,0xd5,0x33,0x34,0xd5,0x3a,0x30,0xd5,0x3b,
0x30,0x85,0x30,0x00,0x04,0xd5,0x0f,0x14,0x85,0x37,0x00,0x1c,0xd5,0x00,0x82,0x24,
0x95,0x30,0x72,0x00,0x95,0x37,0x78,0x10,0xd5,0x07,0x40,0xd5,0x0f,0x38,0xd5,0x00,
0x14,0x85,0x37,0x00,0x00,0x85,0x30,0x00,0x81,0x04,0x95,0x2e,0x6e,0x00,0x95,0x35,
0x61,0x44,0xd5,0x0c,0x38,0xd5,0x00,0x10,0x85,0x35,0x00,0x00,0x85,0x2e,0x00,0x81,
0x14,0x95,0x2e,0x33,0x00,0x95,0x30,0x6b,0x00,0x95,0x37,0x66,0x1c,0x85,0x2e,0x00,
0x04,0xd5,0x05,0x30,0xd5,0x16,0x38,0xd5,0x08,0x30,0xd5,0x09,0x48,0xd5,0x05,0x34,
0xd5,0x00,0x82,0x1c,0x85,0x30,0x00,0x14,0x85,0x37,0x00,0x82,0x5c,0x95,0x30,0x72,
0x00,0x95,0x37,0x78,0x10,0xd5,0x08,0x38,0xd5,0x0f,0x30,0x85,0x37,0x00,0x08,0xd5,
0x00,0x20,0x85,0x30,0x00,0x81,0x00,0x95,0x32,0x5d,0x00,0x95,0x2b,0x4a,0x2c,0xd5,
0x0a,0x44,0xd5,0x00,0x10,0x85,0x32,0x00,0x2c,0x85,0x2b,0x00,0x74,0x95,0x2c,0x55,
0x00,0x95,0x33,0x6e,0x58,0xd5,0x00,0x86,0x7c,0xd5,0x00,0x34,0xd5,0x08,0x30,0xd5,
0x0e,0x34,0xd5,0x14,0x34,0xd5,0x1a,0x34,0xd5,0x23,0x30,0xd5,0x2c,0x34,0xd5,0x33,
0x50,0xd5,0x2a,0x34,0xd5,0x1c,0x30,0xd5,0x12,0x3c,0xd5,0x0f,0x50,0xd5,0x0b,0x24,
0x85,0x33,0x00,0x00,0x85,0x2c,0x00,0x10,0xd5,0x00,0x14,0x95,0x37,0x56,0x00,0x95,
0x30,0x66,0x20,0xd5,0x16,0x30,0xd5,0x28,0x34,0xd5,0x2f,0x3c,0xd5,0x1a,0x34,0x85,
0x30,0x00,0x00,0x85,0x37,0x00,0x04,0xd5,0x00,0x82,0xce,0x10,0x95,0x3f,0x13,0x97,
0x68,0x85,0x3f,0x00,0x14,0x95,0x3e,0x13,0x8b,0x68,0x85,0x3e,0x00,0x08,0x95,0x3c,
0x17,0x8b,0x38,0x85,0x3c,0x00,0x48,0x95,0x3f,0x21,0x97,0x30,0x85,0x3f,0x00,0x34,
0x95,0x3e,0x1f,0x8c,0x20,0x85,0x3e,0x00,0x0c,0x95,0x3c,0x27,0x8a,0x74,0x85,0x3c,
0x00,0x82,0xf5,0x08,0x95,0x30,0x72,0x00,0x95,0x37,0x78,0x04,0xd5,0x05,0x40,0xd5,
0x1c,0x60,0xd5,0x00,0x1c,0x85,0x30,0x00,0x18,0x85,0x37,0x00,0x84,0x28,0x95,0x30,
0x61,0x00,0x95,0x37,0x6b,0x3c,0xd5,0x1f,0x38,0xd5,0x0e,0x34,0xd5,0x00,0x18,0x85,
0x30,0x00,0x14,0x85,0x37,0x00,0x4c,0x95,0x2e,0x61,0x00,0x95,0x35,0x5d,0x38,0xd5,
0x0a,0x38,0xd5,0x06,0x34,0xd5,0x00,0x64,0x85,0x35,0x00,0x00,0x85,0x2e,0x00,0x18,
0x95,0x30,0x51,0x00,0x95,0x37,0x5d,0x08,0xd5,0x06,0x30,0xd5,0x21,0x54,0xd5,0x11,
0x40,0xd5,0x00,0x24,0x85,0x30,0x00,0x10,0x85,0x37,0x00,0x85,0x40,0x95,0x30,0x6b,
0x00,0x95,0x37,0x6b,0x14,0xd5,0x0a,0x34,0xd5,0x0e,0x34,0xd5,0x00,0x14,0x85,0x30,
0x00,0x10,0x85,0x37,0x00,0x81,0x00,0x95,0x2e,0x59,0x00,0x95,0x35,0x5d,0x30,0xd5,
0x0b,0x48,0xd5,0x0f,0x34,0xd5,0x07,0x34,0xd5,0x00,0x18,0x85,0x35,0x00,0x10,0x85,
0x2e,0x00,0x18,0x95,0x30,0x51,0x00,0x95,0x37,0x61,0x2c,0xd5,0x11,0x58,0xd5,0x08,
0x34,0xd5,0x00,0x81,0x34,0x85,0x30,0x00,0x0c,0x85,0x37,0x00,0x84,0x48,0x95,0x30,
0x66,0x00,0x95,0x37,0x6b,0x58,0xd5,0x0d,0x34,0x85,0x37,0x00,0x04,0xd5,0x00,0x28,
0x85,0x30,0x00,0x68,0x95,0x2b,0x48,0x00,0x95,0x32,0x66,0x18,0xd5,0x05,0x34,0xd5,
0x08,0x34,0xd5,0x00,0x20,0x85,0x32,0x00,0x08,0x85,0x2b,0x00,0x78,0x95,0x2c,0x52,
0x00,0x95,0x33,0x5d,0x1c,0xd5,0x01,0x30,0xd5,0x00,0x84,0x18,0xd5,0x04,0x34,0xd5,
0x09,0x3c,0xd5,0x11,0x50,0xd5,0x1d,0x34,0xd5,0x23,0x48,0xd5,0x2a,0x30,0xd5,0x2e,
0x54,0xd5,0x2d,0x34,0xd5,0x30,0x30,0xd5,0x35,0x81,0x00,0xd5,0x23,0x4c,0x85,0x2c,
0x00,0x0c,0x85,0x33,0x00,0x00,0xd5,0x00,0x82,0x60,0x95,0x30,0x66,0x04,0x95,0x37,
0x7d,0x28,0xd5,0x1b,0x34,0xd5,0x15,0x40,0xd5,0x00,0x24,0x85,0x30,0x00,0x04,0x85,
0x37,0x00,0x84,0x38,0x95,0x30,0x66,0x00,0x95,0x37,0x72,0x3c,0xd5,0x14,0x40,0xd5,
0x00,0x1c,0x85,0x30,0x00,0x08,0x85,0x37,0x00,0x81,0x00,0x95,0x2e,0x67,0x00,0x95,
0x35,0x5d,0x58,0xd5,0x00,0x50,0x85,0x35,0x00,0x10,0x85,0x2e,0x00,0x68,0x95,0x30,
0x5d,0x00,0x95,0x37,0x5d,0x34,0xd5,0x1a,0x34,0xd5,0x0c,0x38,0xd5,0x00,0x24,0x85,
0x30,0x00,0x0c,0x85,0x37,0x00,0x85,0x70,0x95,0x30,0x66,0x04,0x95,0x37,0x61,0x18,
0xd5,0x0f,0x60,0xd5,0x00,0x38,0x85,0x37,0x00,0x00,0x85,0x30,0x00,0x6c,0x95,0x2e,
0x61,0x00,0x95,0x35,0x54,0x54,0xd5,0x00,0x5c,0x85,0x35,0x00,0x0c,0x85,0x2e,0x00,
0x64,0x95,0x30,0x59,0x00,0x95,0x37,0x66,0x20,0xd5,0x0f,0x34,0xd5,0x18,0x60,0xd5,
0x00,0x20,0x85,0x37,0x00,0x08,0x85,0x30,0x00,0x85,0x64,0x95,0x30,0x66,0x00,0x95,
0x37,0x6b,0x54,0xd5,0x0e,0x34,0xd5,0x00,0x04,0x85,0x37,0x00,0x14,0x85,0x30,0x00,
0x81,0x00,0x95,0x2b,0x4c,0x00,0x95,0x32,0x61,0x14,0xd5,0x05,0x3c,0xd5,0x05,0x38,
0xd5,0x00,0x18,0x85,0x32,0x00,0x08,0x85,0x2b,0x00,0x78,0x95,0x2c,0x4b,0x00,0x95,
0x33,0x59,0x18,0xd5,0x00,0x3c,0xd5,0x00,0x82,0x68,0xd5,0x02,0x3c,0xd5,0x09,0x34,
0xd5,0x15,0x34,0xd5,0x1d,0x5c,0xd5,0x24,0x3c,0xd5,0x2c,0x30,0xd5,0x2f,0x30,0xd5,
0x30,0x81,0x20,0xd5,0x2a,0x40,0xd5,0x1b,0x3c,0xd5,0x0e,0x30,0xd5,0x08,0x34,0xd5,
0x03,0x58,0xd5,0x00,0x24,0x85,0x33,0x00,0x04,0x85,0x2c,0x00,0x82,0x68,0x95,0x30,
0x66,0x04,0x95,0x37,0x7f,0x10,0xd5,0x0a,0x64,0xd5,0x00,0x20,0x85,0x37,0x00,0x24,
0x85,0x30,0x00,0x84,0x44,0x95,0x30,0x6b,0x00,0x95,0x37,0x6b,0x30,0xd5,0x10,0x40,
0xd5,0x00,0x28,0x85,0x37,0x00,0x00,0x85,0x30,0x00,0x81,0x08,0x95,0x2e,0x6e,0x00,
0x95,0x35,0x5d,0x40,0xd5,0x06,0x34,0xd5,0x00,0x54,0x85,0x35,0x00,0x0c,0x85,0x2e,
0x00,0x4c,0x95,0x30,0x61,0x00,0x95,0x37,0x61,0x28,0xd5,0x15,0x38,0xd5,0x14,0x40,
0xd5,0x00,0x20,0x85,0x37,0x00,0x0c,0x85,0x30,0x00,0x85,0x74,0x95,0x30,0x66,0x00,
0x95,0x37,0x78,0x1c,0xd5,0x12,0x30,0xd5,0x0e,0x34,0xd5,0x00,0x28,0x85,0x37,0x00,
0x04,0x85,0x30,0x00,0x74,0x95,0x2e,0x61,0x00,0x95,0x35,0x66,0x34,0xd5,0x08,0x34,
0xd5,0x00,0x34,0xd5,0x00,0x54,0x85,0x35,0x00,0x1c,0x85,0x2e,0x00,0x14,0x95,0x30,
0x59,0x00,0x95,0x37,0x61,0x44,0xd5,0x16,0x34,0xd5,0x07,0x68,0xd5,0x14,0x54,0xd5,
0x12,0x38,0xd5,0x0d,0x34,0x85,0x37,0x00,0x00,0x85,0x30,0x00,0x04,0xd5,0x00,0x84,
0x1c,0x95,0x30,0x6b,0x00,0x95,0x37,0x72,0x1c,0xd5,0x10,0x58,0xd5,0x00,0x10,0x85,
0x37,0x00,0x20,0x85,0x30,0x00,0x7c,0x95,0x2b,0x47,0x00,0x95,0x32,0x5d,0x10,0xd5,
0x02,0x48,0xd5,0x00,0x4c,0x85,0x32,0x00,0x18,0x85,0x2b,0x00,0x64,0x95,0x2c,0x52,
0x00,0x95,0x33,0x5d,0x4c,0xd5,0x00,0x84,0x3c,0xd5,0x00,0x30,0xd5,0x07,0x34,0xd5,
0x12,0x50,0xd5,0x1f,0x50,0xd5,0x2c,0x54,0xd5,0x36,0x70,0xd5,0x31,0x34,0xd5,0x24,
0x30,0xd5,0x13,0x34,0xd5,0x02,0x30,0xd5,0x00,0x4c,0x85,0x33,0x00,0x00,0x85,0x2c,
0x00,0x82,0x5c,0x95,0x30,0x6b,0x00,0x95,0x37,0x78,0x34,0xd5,0x13,0x54,0xd5,0x00,
0x3c,0x85,0x30,0x00,0x14,0x85,0x37,0x00,0x84,0x28,0x95,0x30,0x66,0x00,0x95,0x37,
0x6b,0x28,0xd5,0x0e,0x44,0xd5,0x00,0x10,0x85,0x30,0x00,0x04,0x85,0x37,0x00,0x81,
0x20,0x95,0x2e,0x67,0x00,0x95,0x35,0x61,0x14,0xd5,0x04,0x34,0xd5,0x04,0x34,0xd5,
0x00,0x28,0x85,0x35,0x00,0x24,0x85,0x2e,0x00,0x58,0x95,0x30,0x59,0x00,0x95,0x37,
0x5d,0x28,0xd5,0x16,0x60,0xd5,0x0e,0x58,0xd5,0x0c,0x81,0x04,0xd5,0x28,0x54,0xd5,
0x35,0x34,0xd5,0x38,0x3c,0x85,0x37,0x00,0x0c,0xd5,0x0f,0x14,0x85,0x30,0x00,0x1c,
0xd5,0x00,0x82,0x5c,0x95,0x30,0x78,0x00,0x95,0x37,0x78,0x28,0xd5,0x17,0x58,0xd5,
0x00,0x10,0x85,0x30,0x00,0x04,0x85,0x37,0x00,0x81,0x0c,0x95,0x2e,0x67,0x00,0x95,
0x35,0x66,0x04,0xd5,0x00,0x44,0xd5,0x03,0x34,0xd5,0x00,0x34,0x85,0x35,0x00,0x0c,
0x85,0x2e,0x00,0x64,0x95,0x30,0x59,0x00,0x95,0x37,0x61,0x18,0xd5,0x08,0x30,0xd5,
0x12,0x34,0xd5,0x03,0x81,0x14,0xd5,0x05,0x3c,0xd5,0x27,0x40,0xd5,0x36,0x3c,0xd5,
0x38,0x50,0x85,0x30,0x00,0x00,0xd5,0x0d,0x08,0x85,0x37,0x00,0x28,0xd5,0x00,0x82,
0x78,0x95,0x2e,0x35,0x00,0x95,0x30,0x78,0x00,0x95,0x37,0x78,0x18,0x85,0x2e,0x00,
0x1c,0xd5,0x19,0x50,0x85,0x37,0x00,0x14,0xd5,0x00,0x04,0x85,0x30,0x00,0x81,0x04,
0x95,0x2b,0x4c,0x00,0x95,0x32,0x66,0x00,0x95,0x33,0x39,0x04,0x85,0x33,0x00,0x0c,
0xd5,0x06,0x64,0xd5,0x00,0x0c,0x85,0x32,0x00,0x0c,0x85,0x2b,0x00,0x81,0x14,0x95,
0x2c,0x52,0x00,0x95,0x33,0x59,0x0c,0xd5,0x00,0x68,0xd5,0x04,0x3c,0xd5,0x01,0x60,
0xd5,0x00,0x81,0x34,0xd5,0x02,0x34,0xd5,0x04,0x44,0xd5,0x08,0x3c,0xd5,0x0b,0x5c,
0xd5,0x0e,0x4c,0xd5,0x0f,0x74,0xd5,0x11,0x82,0x1c,0xd5,0x13,0x30,0xd5,0x17,0x30,
0xd5,0x1c,0x34,0xd5,0x2b,0x30,0xd5,0x26,0x14,0x85,0x33,0x00,0x00,0x85,0x2c,0x00,
0x30,0xd5,0x00,0x8e,0x14,0xb5,0x40,0x00,0x00,0xd5,0x00,0x00,0xe5,0x00,0x40,0x81,
0x40,0xff,0x2f,0x00,0x4d,0x54,0x72,0x6b,0x00,0x00,0x22,0xd8,0x00,0xff,0x03,0x09,
0x4d,0x55,0x54,0x45,0x44,0x20,0x47,0x54,0x52,0x98,0x00,0xb6,0x0a,0x50,0x00,0xb6,
0x5b,0x28,0x00,0xb6,0x5d,0x00,0x8c,0x00,0xb6,0x07,0x7f,0x00,0xc6,0x1c,0x00,0x96,
0x30,0x57,0x3c,0x86,0x30,0x00,0x24,0x96,0x30,0x3a,0x44,0x86,0x30,0x00,0x1c,0x96,
0x30,0x38,0x38,0x86,0x30,0x00,0x28,0x96,0x30,0x32,0x3c,0x86,0x30,0x00,0x24,0x96,
0x30,0x57,0x38,0x86,0x30,0x00,0x28,0x96,0x30,0x32,0x34,0x86,0x30,0x00,0x2c,0x96,
0x30,0x2a,0x34,0x86,0x30,0x00,0x2c,0x96,0x30,0x2c,0x40,0x86,0x30,0x00,0x20,0x96,
0x30,0x57,0x44,0x86,0x30,0x00,0x1c,0x96,0x30,0x36,0x40,0x86,0x30,0x00,0x20,0x96,
0x30,0x30,0x34,0x86,0x30,0x00,0x2c,0x96,0x30,0x30,0x48,0x86,0x30,0x00,0x18,0x96,
0x30,0x57,0x40,0x86,0x30,0x00,0x20,0x96,0x30,0x32,0x40,0x86,0x30,0x00,0x20,0x96,
0x30,0x34,0x34,0x86,0x30,0x00,0x2c,0x96,0x30,0x2c,0x3c,0x86,0x30,0x00,0x24,0x96,
0x30,0x57,0x40,0x86,0x30,0x00,0x20,0x96,0x30,0x38,0x3c,0x86,0x30,0x00,0x24,0x96,
0x30,0x34,0x38,0x86,0x30,0x00,0x28,0x96,0x30,0x32,0x40,0x86,0x30,0x00,0x20,0x96,
0x30,0x57,0x40,0x86,0x30,0x00,0x20,0x96,0x30,0x36,0x3c,0x86,0x30,0x00,0x24,0x96,
0x30,0x38,0x34,0x86,0x30,0x00,0x2c,0x96,0x30,0x2c,0x40,0x86,0x30,0x00,0x20,0x96,
0x30,0x57,0x40,0x86,0x30,0x00,0x20,0x96,0x30,0x2e,0x3c,0x86,0x30,0x00,0x24,0x96,
0x30,0x38,0x34,0x86,0x30,0x00,0x2c,0x96,0x30,0x34,0x3c,0x86,0x30,0x00,0x24,0x96,
0x30,0x57,0x38,0x86,0x30,0x00,0x28,0x96,0x30,0x38,0x40,0x86,0x30,0x00,0x20,0x96,
0x30,0x3a,0x38,0x86,0x30,0x00,0x28,0x96,0x30,0x34,0x3c,0x86,0x30,0x00,0x24,0x96,
0x30,0x57,0x38,0x86,0x30,0x00,0x28,0x96,0x30,0x3a,0x34,0x86,0x30,0x00,0x2c,0x96,
0x30,0x34,0x34,0x86,0x30,0x00,0x2c,0x96,0x30,0x36,0x44,0x86,0x30,0x00,0x1c,0x96,
0x30,0x57,0x38,0x86,0x30,0x00,0x28,0x96,0x30,0x3a,0x40,0x86,0x30,0x00,0x20,0x96,
0x30,0x3a,0x38,0x86,0x30,0x00,0x28,0x96,0x30,0x3a,0x3c,0x86,0x30,0x00,0x24,0x96,
0x30,0x57,0x40,0x86,0x30,0x00,0x20,0x96,0x30,0x38,0x40,0x86,0x30,0x00,0x20,0x96,
0x30,0x30,0x34,0x86,0x30,0x00,0x2c,0x96,0x30,0x32,0x3c,0x86,0x30,0x00,0x24,0x96,
0x30,0x57,0x38,0x86,0x30,0x00,0x28,0x96,0x30,0x3a,0x34,0x86,0x30,0x00,0x2c,0x96,
0x30,0x36,0x34,0x86,0x30,0x00,0x2c,0x96,0x30,0x38,0x3c,0x86,0x30,0x00,0x24,0x96,
0x30,0x57,0x38,0x86,0x30,0x00,0x28,0x96,0x30,0x2c,0x38,0x86,0x30,0x00,0x28,0x96,
0x30,0x34,0x38,0x86,0x30,0x00,0x28,0x96,0x30,0x38,0x34,0x86,0x30,0x00,0x2c,0x96,
0x30,0x57,0x38,0x86,0x30,0x00,0x28,0x96,0x30,0x32,0x34,0x86,0x30,0x00,0x2c,0x96,
0x30,0x38,0x34,0x86,0x30,0x00,0x2c,0x96,0x30,0x2e,0x40,0x86,0x30,0x00,0x20,0x96,
0x30,0x57,0x38,0x86,0x30,0x00,0x28,0x96,0x30,0x34,0x34,0x86,0x30,0x00,0x2c,0x96,
0x30,0x3a,0x38,0x86,0x30,0x00,0x28,0x96,0x30,0x3a,0x3c,0x86,0x30,0x00,0x24,0x96,
0x30,0x57,0x40,0x86,0x30,0x00,0x20,0x96,0x30,0x3a,0x34,0x86,0x30,0x00,0x2c,0x96,
0x30,0x57,0x2c,0x86,0x30,0x00,0x34,0x96,0x30,0x44,0x34,0x86,0x30,0x00,0x30,0x96,
0x30,0x57,0x34,0x86,0x30,0x00,0x28,0x96,0x30,0x38,0x3c,0x86,0x30,0x00,0x24,0x96,
0x30,0x3e,0x40,0x86,0x30,0x00,0x20,0x96,0x30,0x36,0x3c,0x86,0x30,0x00,0x24,0x96,
0x30,0x57,0x40,0x86,0x30,0x00,0x20,0x96,0x30,0x32,0x34,0x86,0x30,0x00,0x2c,0x96,
0x30,0x40,0x34,0x86,0x30,0x00,0x2c,0x96,0x30,0x38,0x40,0x86,0x30,0x00,0x24,0x96,
0x30,0x57,0x34,0x86,0x30,0x00,0x28,0x96,0x30,0x34,0x40,0x86,0x30,0x00,0x20,0x96,
0x30,0x40,0x34,0x86,0x30,0x00,0x30,0x96,0x30,0x3e,0x38,0x86,0x30,0x00,0x24,0x96,
0x30,0x4c,0x40,0x86,0x30,0x00,0x20,0x96,0x30,0x34,0x3c,0x86,0x30,0x00,0x28,0x96,
0x30,0x57,0x3c,0x86,0x30,0x00,0x20,0x96,0x30,0x2a,0x40,0x86,0x30,0x00,0x20,0x96,
0x30,0x40,0x34,0x86,0x30,0x00,0x2c,0x96,0x30,0x32,0x3c,0x86,0x30,0x00,0x24,0x96,
0x30,0x3c,0x34,0x86,0x30,0x00,0x2c,0x96,0x30,0x34,0x48,0x86,0x30,0x00,0x18,0x96,
0x30,0x57,0x44,0x86,0x30,0x00,0x1c,0x96,0x30,0x32,0x3c,0x86,0x30,0x00,0x24,0x96,
0x30,0x38,0x3c,0x86,0x30,0x00,0x24,0x96,0x30,0x36,0x40,0x86,0x30,0x00,0x24,0x96,
0x30,0x57,0x38,0x86,0x30,0x00,0x24,0x96,0x30,0x34,0x34,0x86,0x30,0x00,0x2c,0x96,
0x30,0x3a,0x3c,0x86,0x30,0x00,0x28,0x96,0x30,0x38,0x44,0x86,0x30,0x00,0x18,0x96,
0x30,0x4c,0x38,0x86,0x30,0x00,0x28,0x96,0x30,0x32,0x3c,0x86,0x30,0x00,0x28,0x96,
0x30,0x57,0x3c,0x86,0x30,0x00,0x20,0x96,0x30,0x30,0x3c,0x86,0x30,0x00,0x24,0x96,
0x30,0x44,0x40,0x86,0x30,0x00,0x20,0x96,0x30,0x30,0x40,0x86,0x30,0x00,0x20,0x96,
0x30,0x3a,0x34,0x86,0x30,0x00,0x2c,0x96,0x30,0x2c,0x34,0x86,0x30,0x00,0x2c,0x96,
0x30,0x57,0x38,0x86,0x30,0x00,0x28,0x96,0x30,0x38,0x3c,0x86,0x30,0x00,0x24,0x96,
0x30,0x3a,0x34,0x86,0x30,0x00,0x2c,0x96,0x30,0x32,0x34,0x86,0x30,0x00,0x30,0x96,
0x30,0x57,0x38,0x86,0x30,0x00,0x24,0x96,0x30,0x34,0x40,0x86,0x30,0x00,0x20,0x96,
0x30,0x32,0x40,0x86,0x30,0x00,0x24,0x96,0x30,0x36,0x3c,0x86,0x30,0x00,0x20,0x96,
0x30,0x3c,0x34,0x86,0x30,0x00,0x2c,0x96,0x30,0x36,0x40,0x86,0x30,0x00,0x24,0x96,
0x30,0x48,0x30,0x86,0x30,0x00,0x2c,0x96,0x30,0x36,0x3c,0x86,0x30,0x00,0x24,0x96,
0x30,0x57,0x40,0x86,0x30,0x00,0x20,0x96,0x30,0x2c,0x3c,0x86,0x30,0x00,0x24,0x96,
0x30,0x30,0x34,0x86,0x30,0x00,0x2c,0x96,0x30,0x30,0x40,0x86,0x30,0x00,0x20,0x96,
0x30,0x57,0x34,0x86,0x30,0x00,0x2c,0x96,0x30,0x38,0x3c,0x86,0x30,0x00,0x24,0x96,
0x30,0x3e,0x38,0x86,0x30,0x00,0x28,0x96,0x30,0x36,0x34,0x86,0x30,0x00,0x2c,0x96,
0x30,0x57,0x40,0x86,0x30,0x00,0x20,0x96,0x30,0x3e,0x3c,0x86,0x30,0x00,0x24,0x96,
0x30,0x42,0x34,0x86,0x30,0x00,0x2c,0x96,0x30,0x3a,0x44,0x86,0x30,0x00,0x1c,0x96,
0x30,0x57,0x44,0x86,0x30,0x00,0x1c,0x96,0x30,0x44,0x48,0x86,0x30,0x00,0x18,0x96,
0x30,0x3a,0x34,0x86,0x30,0x00,0x2c,0x96,0x30,0x3a,0x40,0x86,0x30,0x00,0x24,0x96,
0x30,0x57,0x34,0x86,0x30,0x00,0x28,0x96,0x30,0x40,0x48,0x86,0x30,0x00,0x18,0x96,
0x30,0x3e,0x34,0x86,0x30,0x00,0x2c,0x96,0x30,0x3a,0x3c,0x86,0x30,0x00,0x24,0x96,
0x30,0x57,0x38,0x86,0x30,0x00,0x28,0x96,0x30,0x3c,0x40,0x86,0x30,0x00,0x20,0x96,
0x30,0x3c,0x34,0x86,0x30,0x00,0x2c,0x96,0x30,0x40,0x40,0x86,0x30,0x00,0x24,0x96,
0x30,0x57,0x38,0x86,0x30,0x00,0x24,0x96,0x30,0x40,0x3c,0x86,0x30,0x00,0x24,0x96,
0x30,0x3c,0x38,0x86,0x30,0x00,0x2c,0x96,0x30,0x57,0x40,0x86,0x30,0x00,0x1c,0x96,
0x30,0x3a,0x2c,0x86,0x30,0x00,0x34,0x96,0x30,0x3c,0x48,0x86,0x30,0x00,0x1c,0x96,
0x30,0x57,0x34,0x86,0x30,0x00,0x28,0x96,0x30,0x38,0x40,0x86,0x30,0x00,0x20,0x96,
0x30,0x3a,0x2c,0x86,0x30,0x00,0x34,0x96,0x30,0x32,0x3c,0x86,0x30,0x00,0x24,0x96,
0x30,0x57,0x38,0x86,0x30,0x00,0x28,0x96,0x30,0x44,0x3c,0x86,0x30,0x00,0x24,0x96,
0x30,0x57,0x38,0x86,0x30,0x00,0x28,0x96,0x30,0x3a,0x40,0x86,0x30,0x00,0x20,0x96,
0x30,0x3a,0x2c,0x86,0x30,0x00,0x34,0x96,0x30,0x3a,0x3c,0x86,0x30,0x00,0x24,0x96,
0x30,0x57,0x44,0x86,0x30,0x00,0x1c,0x96,0x30,0x36,0x40,0x86,0x30,0x00,0x24,0x96,
0x30,0x36,0x34,0x86,0x30,0x00,0x28,0x96,0x30,0x3a,0x40,0x86,0x30,0x00,0x20,0x96,
0x30,0x57,0x34,0x86,0x30,0x00,0x30,0x96,0x30,0x3a,0x44,0x86,0x30,0x00,0x18,0x96,
0x30,0x42,0x38,0x86,0x30,0x00,0x28,0x96,0x30,0x3a,0x40,0x86,0x30,0x00,0x24,0x96,
0x30,0x57,0x34,0x86,0x30,0x00,0x28,0x96,0x30,0x38,0x40,0x86,0x30,0x00,0x20,0x96,
0x30,0x3a,0x34,0x86,0x30,0x00,0x2c,0x96,0x30,0x36,0x40,0x86,0x30,0x00,0x20,0x96,
0x30,0x57,0x3c,0x86,0x30,0x00,0x24,0x96,0x30,0x3a,0x34,0x86,0x30,0x00,0x2c,0x96,
0x30,0x3a,0x34,0x86,0x30,0x00,0x2c,0x96,0x30,0x3a,0x3c,0x86,0x30,0x00,0x28,0x96,
0x30,0x57,0x40,0x86,0x30,0x00,0x1c,0x96,0x30,0x36,0x34,0x86,0x30,0x00,0x2c,0x96,
0x30,0x3a,0x2c,0x86,0x30,0x00,0x38,0x96,0x30,0x34,0x44,0x86,0x30,0x00,0x18,0x96,
0x30,0x57,0x38,0x86,0x30,0x00,0x28,0x96,0x30,0x2c,0x3c,0x86,0x30,0x00,0x28,0x96,
0x30,0x57,0x3c,0x86,0x30,0x00,0x20,0x96,0x30,0x32,0x3c,0x86,0x30,0x00,0x24,0x96,
0x30,0x36,0x34,0x86,0x30,0x00,0x2c,0x96,0x30,0x2a,0x3c,0x86,0x30,0x00,0x24,0x96,
0x30,0x57,0x34,0x86,0x30,0x00,0x2c,0x96,0x30,0x2e,0x40,0x86,0x30,0x00,0x20,0x96,
0x30,0x57,0x38,0x86,0x30,0x00,0x28,0x96,0x30,0x2e,0x40,0x86,0x30,0x00,0x20,0x96,
0x30,0x40,0x34,0x86,0x30,0x00,0x2c,0x96,0x30,0x2c,0x48,0x86,0x30,0x00,0x18,0x96,
0x30,0x57,0x40,0x86,0x30,0x00,0x20,0x96,0x30,0x36,0x40,0x86,0x30,0x00,0x20,0x96,
0x30,0x40,0x30,0x86,0x30,0x00,0x30,0x96,0x30,0x40,0x3c,0x86,0x30,0x00,0x24,0x96,
0x30,0x57,0x38,0x86,0x30,0x00,0x28,0x96,0x30,0x40,0x40,0x86,0x30,0x00,0x20,0x96,
0x30,0x40,0x34,0x86,0x30,0x00,0x2c,0x96,0x30,0x3e,0x44,0x86,0x30,0x00,0x20,0x96,
0x30,0x57,0x34,0x86,0x30,0x00,0x28,0x96,0x30,0x40,0x3c,0x86,0x30,0x00,0x24,0x96,
0x30,0x3e,0x34,0x86,0x30,0x00,0x2c,0x96,0x30,0x3a,0x40,0x86,0x30,0x00,0x24,0x96,
0x30,0x57,0x44,0x86,0x30,0x00,0x18,0x96,0x30,0x2e,0x3c,0x86,0x30,0x00,0x24,0x96,
0x30,0x42,0x38,0x86,0x30,0x00,0x28,0x96,0x30,0x36,0x44,0x86,0x30,0x00,0x20,0x96,
0x30,0x57,0x3c,0x86,0x30,0x00,0x20,0x96,0x30,0x32,0x40,0x86,0x30,0x00,0x20,0x96,
0x30,0x3a,0x30,0x86,0x30,0x00,0x34,0x96,0x30,0x3e,0x3c,0x86,0x30,0x00,0x24,0x96,
0x30,0x57,0x34,0x86,0x30,0x00,0x28,0x96,0x30,0x3c,0x40,0x86,0x30,0x00,0x24,0x96,
0x30,0x3a,0x30,0x86,0x30,0x00,0x2c,0x96,0x30,0x3a,0x40,0x86,0x30,0x00,0x24,0x96,
0x30,0x57,0x34,0x86,0x30,0x00,0x28,0x96,0x30,0x32,0x38,0x86,0x30,0x00,0x28,0x96,
0x30,0x3c,0x34,0x86,0x30,0x00,0x2c,0x96,0x30,0x40,0x40,0x86,0x30,0x00,0x24,0x96,
0x30,0x57,0x3c,0x86,0x30,0x00,0x20,0x96,0x30,0x34,0x40,0x86,0x30,0x00,0x20,0x96,
0x30,0x3e,0x3c,0x86,0x30,0x00,0x24,0x96,0x30,0x38,0x3c,0x86,0x30,0x00,0x28,0x96,
0x30,0x57,0x40,0x86,0x30,0x00,0x1c,0x96,0x30,0x32,0x40,0x86,0x30,0x00,0x20,0x96,
0x30,0x3e,0x38,0x86,0x30,0x00,0x2c,0x96,0x30,0x3a,0x38,0x86,0x30,0x00,0x28,0x96,
0x30,0x57,0x40,0x86,0x30,0x00,0x1c,0x96,0x30,0x34,0x40,0x86,0x30,0x00,0x24,0x96,
0x30,0x3e,0x30,0x86,0x30,0x00,0x2c,0x96,0x30,0x3a,0x40,0x86,0x30,0x00,0x24,0x96,
0x30,0x57,0x40,0x86,0x30,0x00,0x1c,0x96,0x30,0x32,0x48,0x86,0x30,0x00,0x18,0x96,
0x30,0x3c,0x34,0x86,0x30,0x00,0x2c,0x96,0x30,0x3c,0x40,0x86,0x30,0x00,0x24,0x96,
0x30,0x57,0x3c,0x86,0x30,0x00,0x20,0x96,0x30,0x36,0x3c,0x86,0x30,0x00,0x24,0x96,
0x30,0x3e,0x40,0x86,0x30,0x00,0x20,0x96,0x30,0x36,0x3c,0x86,0x30,0x00,0x28,0x96,
0x30,0x57,0x40,0x86,0x30,0x00,0x1c,0x96,0x30,0x38,0x40,0x86,0x30,0x00,0x20,0x96,
0x30,0x3c,0x3c,0x86,0x30,0x00,0x28,0x96,0x30,0x3c,0x38,0x86,0x30,0x00,0x28,0x96,
0x30,0x57,0x40,0x86,0x30,0x00,0x1c,0x96,0x30,0x34,0x40,0x86,0x30,0x00,0x24,0x96,
0x30,0x44,0x3c,0x86,0x30,0x00,0x20,0x96,0x30,0x30,0x34,0x86,0x30,0x00,0x30,0x96,
0x30,0x57,0x40,0x86,0x30,0x00,0x1c,0x96,0x30,0x34,0x3c,0x86,0x30,0x00,0x24,0x96,
0x30,0x3a,0x40,0x86,0x30,0x00,0x20,0x96,0x30,0x3a,0x3c,0x86,0x30,0x00,0x28,0x96,
0x30,0x57,0x3c,0x86,0x30,0x00,0x20,0x96,0x30,0x3a,0x3c,0x86,0x30,0x00,0x24,0x96,
0x30,0x3e,0x40,0x86,0x30,0x00,0x20,0x96,0x30,0x3e,0x48,0x86,0x30,0x00,0x1c,0x96,
0x30,0x57,0x40,0x86,0x30,0x00,0x1c,0x96,0x30,0x3a,0x40,0x86,0x30,0x00,0x20,0x96,
0x30,0x36,0x34,0x86,0x30,0x00,0x2c,0x96,0x30,0x3a,0x3c,0x86,0x30,0x00,0x28,0x96,
0x30,0x57,0x40,0x86,0x30,0x00,0x1c,0x96,0x30,0x36,0x48,0x86,0x30,0x00,0x18,0x96,
0x30,0x34,0x34,0x86,0x30,0x00,0x2c,0x96,0x30,0x34,0x3c,0x86,0x30,0x00,0x28,0x96,
0x30,0x57,0x34,0x86,0x30,0x00,0x28,0x96,0x30,0x3c,0x40,0x86,0x30,0x00,0x20,0x96,
0x30,0x3e,0x38,0x86,0x30,0x00,0x28,0x96,0x30,0x3e,0x3c,0x86,0x30,0x00,0x28,0x96,
0x30,0x57,0x3c,0x86,0x30,0x00,0x20,0x96,0x30,0x2c,0x40,0x86,0x30,0x00,0x20,0x96,
0x30,0x36,0x3c,0x86,0x30,0x00,0x24,0x96,0x30,0x3a,0x48,0x86,0x30,0x00,0x1c,0x96,
0x30,0x57,0x34,0x86,0x30,0x00,0x28,0x96,0x30,0x3a,0x44,0x86,0x30,0x00,0x20,0x96,
0x30,0x3c,0x3c,0x86,0x30,0x00,0x24,0x96,0x30,0x3c,0x44,0x86,0x30,0x00,0x1c,0x96,
0x30,0x57,0x34,0x86,0x30,0x00,0x28,0x96,0x30,0x3a,0x40,0x86,0x30,0x00,0x24,0x96,
0x30,0x3e,0x30,0x86,0x30,0x00,0x2c,0x96,0x30,0x3a,0x48,0x86,0x30,0x00,0x1c,0x96,
0x30,0x57,0x3c,0x86,0x30,0x00,0x20,0x96,0x30,0x3a,0x44,0x86,0x30,0x00,0x1c,0x96,
0x30,0x3c,0x40,0x86,0x30,0x00,0x20,0x96,0x30,0x38,0x44,0x86,0x30,0x00,0x20,0x96,
0x30,0x57,0x40,0x86,0x30,0x00,0x1c,0x96,0x30,0x36,0x44,0x86,0x30,0x00,0x1c,0x96,
0x30,0x44,0x40,0x86,0x30,0x00,0x20,0x96,0x30,0x3c,0x3c,0x86,0x30,0x00,0x28,0x96,
0x30,0x57,0x3c,0x86,0x30,0x00,0x20,0x96,0x30,0x30,0x40,0x86,0x30,0x00,0x20,0x96,
0x30,0x48,0x38,0x86,0x30,0x00,0x2c,0x96,0x30,0x3c,0x40,0x86,0x30,0x00,0x20,0x96,
0x30,0x52,0x34,0x86,0x30,0x00,0x28,0x96,0x30,0x34,0x44,0x86,0x30,0x00,0x20,0x96,
0x30,0x57,0x38,0x86,0x30,0x00,0x24,0x96,0x30,0x3a,0x48,0x86,0x30,0x00,0x1c,0x96,
0x30,0x57,0x3c,0x86,0x30,0x00,0x20,0x96,0x30,0x32,0x3c,0x86,0x30,0x00,0x24,0x96,
0x30,0x3a,0x40,0x86,0x30,0x00,0x20,0x96,0x30,0x36,0x40,0x86,0x30,0x00,0x24,0x96,
0x30,0x57,0x40,0x86,0x30,0x00,0x1c,0x96,0x30,0x32,0x40,0x86,0x30,0x00,0x20,0x96,
0x30,0x3a,0x38,0x86,0x30,0x00,0x28,0x96,0x30,0x3a,0x3c,0x86,0x30,0x00,0x28,0x96,
0x30,0x57,0x3c,0x86,0x30,0x00,0x20,0x96,0x30,0x34,0x40,0x86,0x30,0x00,0x20,0x96,
0x30,0x3e,0x40,0x86,0x30,0x00,0x24,0x96,0x30,0x3a,0x4c,0x86,0x30,0x00,0x14,0x96,
0x30,0x57,0x38,0x86,0x30,0x00,0x24,0x96,0x30,0x2c,0x3c,0x86,0x30,0x00,0x28,0x96,
0x30,0x57,0x3c,0x86,0x30,0x00,0x20,0x96,0x30,0x32,0x4c,0x86,0x30,0x00,0x18,0x96,
0x30,0x4c,0x34,0x86,0x30,0x00,0x28,0x96,0x30,0x2e,0x44,0x86,0x30,0x00,0x1c,0x96,
0x30,0x3e,0x38,0x86,0x30,0x00,0x28,0x96,0x30,0x36,0x48,0x86,0x30,0x00,0x1c,0x96,
0x30,0x57,0x40,0x86,0x30,0x00,0x1c,0x96,0x30,0x34,0x48,0x86,0x30,0x00,0x18,0x96,
0x30,0x34,0x3c,0x86,0x30,0x00,0x24,0x96,0x30,0x34,0x48,0x86,0x30,0x00,0x1c,0x96,
0x30,0x57,0x3c,0x86,0x30,0x00,0x20,0x96,0x30,0x3a,0x44,0x86,0x30,0x00,0x1c,0x96,
0x30,0x2e,0x38,0x86,0x30,0x00,0x28,0x96,0x30,0x38,0x40,0x86,0x30,0x00,0x24,0x96,
0x30,0x57,0x3c,0x86,0x30,0x00,0x20,0x96,0x30,0x3e,0x4c,0x86,0x30,0x00,0x14,0x96,
0x30,0x3e,0x40,0x86,0x30,0x00,0x20,0x96,0x30,0x40,0x40,0x86,0x30,0x00,0x24,0x96,
0x30,0x57,0x40,0x86,0x30,0x00,0x1c,0x96,0x30,0x3c,0x3c,0x86,0x30,0x00,0x24,0x96,
0x30,0x3c,0x38,0x86,0x30,0x00,0x28,0x96,0x30,0x3e,0x48,0x86,0x30,0x00,0x1c,0x96,
0x30,0x57,0x3c,0x86,0x30,0x00,0x20,0x96,0x30,0x3e,0x44,0x86,0x30,0x00,0x1c,0x96,
0x30,0x3c,0x34,0x86,0x30,0x00,0x2c,0x96,0x30,0x3e,0x40,0x86,0x30,0x00,0x24,0x96,
0x30,0x57,0x40,0x86,0x30,0x00,0x1c,0x96,0x30,0x3a,0x3c,0x86,0x30,0x00,0x24,0x96,
0x30,0x40,0x38,0x86,0x30,0x00,0x28,0x96,0x30,0x3c,0x48,0x86,0x30,0x00,0x1c,0x96,
0x30,0x57,0x3c,0x86,0x30,0x00,0x20,0x96,0x30,0x22,0x3c,0x86,0x30,0x00,0x24,0x96,
0x30,0x3a,0x3c,0x86,0x30,0x00,0x24,0x96,0x30,0x38,0x48,0x86,0x30,0x00,0x1c,0x96,
0x30,0x57,0x40,0x86,0x30,0x00,0x1c,0x96,0x30,0x2c,0x3c,0x86,0x30,0x00,0x24,0x96,
0x30,0x30,0x2c,0x86,0x30,0x00,0x34,0x96,0x30,0x3a,0x3c,0x86,0x30,0x00,0x28,0x96,
0x30,0x57,0x3c,0x86,0x30,0x00,0x20,0x96,0x30,0x2e,0x3c,0x86,0x30,0x00,0x24,0x96,
0x30,0x38,0x3c,0x86,0x30,0x00,0x24,0x96,0x30,0x32,0x3c,0x86,0x30,0x00,0x28,0x96,
0x30,0x57,0x3c,0x86,0x30,0x00,0x81,0x04,0x96,0x30,0x3e,0x38,0x86,0x30,0x00,0x24,
0x96,0x30,0x3a,0x44,0x86,0x30,0x00,0x20,0x96,0x30,0x57,0x3c,0x86,0x30,0x00,0x20,
0x96,0x30,0x3c,0x44,0x86,0x30,0x00,0x20,0x96,0x30,0x44,0x3c,0x86,0x30,0x00,0x20,
0x96,0x30,0x3a,0x44,0x86,0x30,0x00,0x20,0x96,0x30,0x57,0x40,0x86,0x30,0x00,0x1c,
0x96,0x30,0x10,0x34,0x86,0x30,0x00,0x2c,0x96,0x30,0x3a,0x40,0x86,0x30,0x00,0x20,
0x96,0x30,0x3c,0x40,0x86,0x30,0x00,0x24,0x96,0x30,0x57,0x40,0x86,0x30,0x00,0x1c,
0x96,0x30,0x01,0x20,0x86,0x30,0x00,0x40,0x96,0x30,0x44,0x40,0x86,0x30,0x00,0x20,
0x96,0x30,0x3c,0x48,0x86,0x30,0x00,0x1c,0x96,0x30,0x57,0x3c,0x86,0x30,0x00,0x20,
0x96,0x30,0x0a,0x28,0x86,0x30,0x00,0x38,0x96,0x30,0x3c,0x38,0x86,0x30,0x00,0x28,
0x96,0x30,0x36,0x3c,0x86,0x30,0x00,0x28,0x96,0x30,0x57,0x48,0x86,0x30,0x00,0x14,
0x96,0x30,0x26,0x34,0x86,0x30,0x00,0x2c,0x96,0x30,0x3a,0x38,0x86,0x30,0x00,0x28,
0x96,0x30,0x3a,0x40,0x86,0x30,0x00,0x24,0x96,0x30,0x57,0x3c,0x86,0x30,0x00,0x20,
0x96,0x30,0x1a,0x34,0x86,0x30,0x00,0x2c,0x96,0x30,0x3a,0x38,0x86,0x30,0x00,0x28,
0x96,0x30,0x36,0x44,0x86,0x30,0x00,0x20,0x96,0x30,0x57,0x3c,0x86,0x30,0x00,0x20,
0x96,0x30,0x28,0x40,0x86,0x30,0x00,0x20,0x96,0x30,0x3e,0x40,0x86,0x30,0x00,0x20,
0x96,0x30,0x3c,0x3c,0x86,0x30,0x00,0x28,0x96,0x30,0x57,0x40,0x86,0x30,0x00,0x1c,
0x96,0x30,0x2c,0x3c,0x86,0x30,0x00,0x24,0x96,0x30,0x38,0x38,0x86,0x30,0x00,0x28,
0x96,0x30,0x3a,0x40,0x86,0x30,0x00,0x24,0x96,0x30,0x57,0x3c,0x86,0x30,0x00,0x20,
0x96,0x30,0x3a,0x40,0x86,0x30,0x00,0x20,0x96,0x30,0x4c,0x40,0x86,0x30,0x00,0x20,
0x96,0x30,0x4e,0x40,0x86,0x30,0x00,0x24,0x96,0x30,0x57,0x3c,0x86,0x30,0x00,0x81,
0x00,0x96,0x30,0x56,0x34,0x86,0x30,0x00,0x2c,0x96,0x30,0x4c,0x40,0x86,0x30,0x00,
0x24,0x96,0x30,0x57,0x34,0x86,0x30,0x00,0x81,0x08,0x96,0x30,0x56,0x38,0x86,0x30,
0x00,0x28,0x96,0x30,0x4e,0x4c,0x86,0x30,0x00,0x18,0x96,0x30,0x57,0x34,0x86,0x30,
0x00,0x28,0x96,0x30,0x18,0x2c,0x86,0x30,0x00,0x34,0x96,0x30,0x4e,0x40,0x86,0x30,
0x00,0x20,0x96,0x30,0x4c,0x48,0x86,0x30,0x00,0x1c,0x96,0x30,0x57,0x48,0x86,0x30,
0x00,0x14,0x96,0x30,0x42,0x44,0x86,0x30,0x00,0x1c,0x96,0x30,0x57,0x40,0x86,0x30,
0x00,0x20,0x96,0x30,0x4c,0x48,0x86,0x30,0x00,0x1c,0x96,0x30,0x57,0x40,0x86,0x30,
0x00,0x1c,0x96,0x30,0x2e,0x40,0x86,0x30,0x00,0x20,0x96,0x30,0x3e,0x40,0x86,0x30,
0x00,0x20,0x96,0x30,0x48,0x48,0x86,0x30,0x00,0x1c,0x96,0x30,0x57,0x40,0x86,0x30,
0x00,0x1c,0x96,0x30,0x34,0x34,0x86,0x30,0x00,0x2c,0x96,0x30,0x44,0x38,0x86,0x30,
0x00,0x28,0x96,0x30,0x4c,0x40,0x86,0x30,0x00,0x24,0x96,0x30,0x57,0x3c,0x86,0x30,
0x00,0x20,0x96,0x30,0x18,0x2c,0x86,0x30,0x00,0x38,0x96,0x30,0x42,0x34,0x86,0x30,
0x00,0x28,0x96,0x30,0x4e,0x48,0x86,0x30,0x00,0x1c,0x96,0x30,0x57,0x40,0x86,0x30,
0x00,0x1c,0x96,0x30,0x44,0x40,0x86,0x30,0x00,0x24,0x96,0x30,0x57,0x40,0x86,0x30,
0x00,0x1c,0x96,0x30,0x4e,0x48,0x86,0x30,0x00,0x1c,0x96,0x30,0x57,0x34,0x86,0x30,
0x00,0x81,0x08,0x96,0x30,0x4e,0x38,0x86,0x30,0x00,0x28,0x96,0x30,0x48,0x4c,0x86,
0x30,0x00,0x18,0x96,0x30,0x57,0x40,0x86,0x30,0x00,0x1c,0x96,0x30,0x04,0x28,0x86,
0x30,0x00,0x38,0x96,0x30,0x42,0x3c,0x86,0x30,0x00,0x24,0x96,0x30,0x48,0x48,0x86,
0x30,0x00,0x1c,0x96,0x30,0x57,0x40,0x86,0x30,0x00,0x1c,0x96,0x30,0x18,0x2c,0x86,
0x30,0x00,0x34,0x96,0x30,0x3a,0x38,0x86,0x30,0x00,0x28,0x96,0x30,0x3c,0x40,0x86,
0x30,0x00,0x24,0x96,0x30,0x57,0x3c,0x86,0x30,0x00,0x20,0x96,0x30,0x3a,0x3c,0x86,
0x30,0x00,0x24,0x96,0x30,0x3c,0x40,0x86,0x30,0x00,0x20,0x96,0x30,0x3e,0x48,0x86,
0x30,0x00,0x1c,0x96,0x30,0x57,0x3c,0x86,0x30,0x00,0x81,0x00,0x96,0x30,0x4c,0x40,
0x86,0x30,0x00,0x20,0x96,0x30,0x48,0x40,0x86,0x30,0x00,0x24,0x96,0x30,0x57,0x3c,
0x86,0x30,0x00,0x20,0x96,0x30,0x0c,0x20,0x86,0x30,0x00,0x40,0x96,0x30,0x48,0x34,
0x86,0x30,0x00,0x2c,0x96,0x30,0x44,0x48,0x86,0x30,0x00,0x1c,0x96,0x30,0x57,0x3c,
0x86,0x30,0x00,0x20,0x96,0x30,0x04,0x20,0x86,0x30,0x00,0x40,0x96,0x30,0x4e,0x44,
0x86,0x30,0x00,0x1c,0x96,0x30,0x44,0x3c,0x86,0x30,0x00,0x28,0x96,0x30,0x57,0x40,
0x86,0x30,0x00,0x1c,0x96,0x30,0x3e,0x3c,0x86,0x30,0x00,0x24,0x96,0x30,0x52,0x44,
0x86,0x30,0x00,0x1c,0x96,0x30,0x48,0x40,0x86,0x30,0x00,0x24,0x96,0x30,0x57,0x3c,
0x86,0x30,0x00,0x20,0x96,0x30,0x01,0x24,0x86,0x30,0x00,0x3c,0x96,0x30,0x52,0x44,
0x86,0x30,0x00,0x1c,0x96,0x30,0x48,0x40,0x86,0x30,0x00,0x24,0x96,0x30,0x57,0x40,
0x86,0x30,0x00,0x1c,0x96,0x30,0x10,0x2c,0x86,0x30,0x00,0x34,0x96,0x30,0x4c,0x40,
0x86,0x30,0x00,0x20,0x96,0x30,0x48,0x3c,0x86,0x30,0x00,0x28,0x96,0x30,0x57,0x40,
0x86,0x30,0x00,0x1c,0x96,0x30,0x16,0x30,0x86,0x30,0x00,0x30,0x96,0x30,0x44,0x38,
0x86,0x30,0x00,0x28,0x96,0x30,0x44,0x48,0x86,0x30,0x00,0x1c,0x96,0x30,0x57,0x40,
0x86,0x30,0x00,0x1c,0x96,0x30,0x20,0x34,0x86,0x30,0x00,0x30,0x96,0x30,0x4c,0x3c,
0x86,0x30,0x00,0x20,0x96,0x30,0x40,0x48,0x86,0x30,0x00,0x1c,0x96,0x30,0x57,0x40,
0x86,0x30,0x00,0x7c,0x96,0x30,0x42,0x40,0x86,0x30,0x00,0x20,0x96,0x30,0x3a,0x48,
0x86,0x30,0x00,0x1c,0x96,0x30,0x57,0x34,0x86,0x30,0x00,0x28,0x96,0x30,0x12,0x34,
0x86,0x30,0x00,0x2c,0x96,0x30,0x3a,0x38,0x86,0x30,0x00,0x28,0x96,0x30,0x3c,0x40,
0x86,0x30,0x00,0x24,0x96,0x30,0x57,0x40,0x86,0x30,0x00,0x1c,0x96,0x30,0x36,0x40,
0x86,0x30,0x00,0x20,0x96,0x30,0x3c,0x38,0x86,0x30,0x00,0x28,0x96,0x30,0x42,0x3c,
0x86,0x30,0x00,0x28,0x96,0x30,0x57,0x3c,0x86,0x30,0x00,0x20,0x96,0x30,0x3e,0x40,
0x86,0x30,0x00,0x20,0x96,0x30,0x38,0x2c,0x86,0x30,0x00,0x34,0x96,0x30,0x48,0x44,
0x86,0x30,0x00,0x20,0x96,0x30,0x57,0x40,0x86,0x30,0x00,0x1c,0x96,0x30,0x26,0x34,
0x86,0x30,0x00,0x2c,0x96,0x30,0x3a,0x34,0x86,0x30,0x00,0x2c,0x96,0x30,0x42,0x40,
0x86,0x30,0x00,0x24,0x96,0x30,0x57,0x44,0x86,0x30,0x00,0x18,0x96,0x30,0x12,0x2c,
0x86,0x30,0x00,0x34,0x96,0x30,0x3e,0x38,0x86,0x30,0x00,0x28,0x96,0x30,0x3e,0x48,
0x86,0x30,0x00,0x1c,0x96,0x30,0x57,0x40,0x86,0x30,0x00,0x1c,0x96,0x30,0x2c,0x40,
0x86,0x30,0x00,0x20,0x96,0x30,0x3a,0x3c,0x86,0x30,0x00,0x24,0x96,0x30,0x3c,0x48,
0x86,0x30,0x00,0x1c,0x96,0x30,0x57,0x40,0x86,0x30,0x00,0x1c,0x96,0x30,0x36,0x40,
0x86,0x30,0x00,0x20,0x96,0x30,0x42,0x40,0x86,0x30,0x00,0x20,0x96,0x30,0x3e,0x48,
0x86,0x30,0x00,0x1c,0x96,0x30,0x57,0x40,0x86,0x30,0x00,0x1c,0x96,0x30,0x2a,0x34,
0x86,0x30,0x00,0x2c,0x96,0x30,0x40,0x34,0x86,0x30,0x00,0x2c,0x96,0x30,0x3e,0x40,
0x86,0x30,0x00,0x24,0x96,0x30,0x57,0x40,0x86,0x30,0x00,0x1c,0x96,0x30,0x1a,0x38,
0x86,0x30,0x00,0x28,0x96,0x30,0x42,0x34,0x86,0x30,0x00,0x2c,0x96,0x30,0x3e,0x40,
0x86,0x30,0x00,0x24,0x96,0x30,0x57,0x40,0x86,0x30,0x00,0x1c,0x96,0x30,0x1a,0x34,
0x86,0x30,0x00,0x2c,0x96,0x30,0x44,0x38,0x86,0x30,0x00,0x28,0x96,0x30,0x4c,0x40,
0x86,0x30,0x00,0x24,0x96,0x30,0x57,0x40,0x86,0x30,0x00,0x1c,0x96,0x30,0x3e,0x34,
0x86,0x30,0x00,0x2c,0x96,0x30,0x48,0x34,0x86,0x30,0x00,0x2c,0x96,0x30,0x48,0x40,
0x86,0x30,0x00,0x24,0x96,0x30,0x57,0x40,0x86,0x30,0x00,0x1c,0x96,0x30,0x10,0x34,
0x86,0x30,0x00,0x2c,0x96,0x30,0x44,0x38,0x86,0x30,0x00,0x28,0x96,0x30,0x48,0x3c,
0x86,0x30,0x00,0x28,0x96,0x30,0x57,0x34,0x86,0x30,0x00,0x28,0x96,0x30,0x0e,0x28,
0x86,0x30,0x00,0x38,0x96,0x30,0x40,0x38,0x86,0x30,0x00,0x28,0x96,0x30,0x48,0x40,
0x86,0x30,0x00,0x24,0x96,0x30,0x57,0x3c,0x86,0x30,0x00,0x20,0x96,0x30,0x1a,0x2c,
0x86,0x30,0x00,0x34,0x96,0x30,0x3a,0x34,0x86,0x30,0x00,0x2c,0x96,0x30,0x48,0x3c,
0x86,0x30,0x00,0x28,0x96,0x30,0x57,0x34,0x86,0x30,0x00,0x28,0x96,0x30,0x44,0x3c,
0x86,0x30,0x00,0x24,0x96,0x30,0x4c,0x38,0x86,0x30,0x00,0x28,0x96,0x30,0x44,0x48,
0x86,0x30,0x00,0x1c,0x96,0x30,0x57,0x38,0x86,0x30,0x00,0x24,0x96,0x30,0x12,0x20,
0x86,0x30,0x00,0x40,0x96,0x30,0x40,0x34,0x86,0x30,0x00,0x2c,0x96,0x30,0x48,0x40,
0x86,0x30,0x00,0x24,0x96,0x30,0x57,0x44,0x86,0x30,0x00,0x18,0x96,0x30,0x01,0x24,
0x86,0x30,0x00,0x3c,0x96,0x30,0x42,0x38,0x86,0x30,0x00,0x28,0x96,0x30,0x44,0x40,
0x86,0x30,0x00,0x24,0x96,0x30,0x57,0x40,0x86,0x30,0x00,0x1c,0x96,0x30,0x0c,0x28,
0x86,0x30,0x00,0x3c,0x96,0x30,0x42,0x34,0x86,0x30,0x00,0x28,0x96,0x30,0x42,0x48,
0x86,0x30,0x00,0x1c,0x96,0x30,0x57,0x40,0x86,0x30,0x00,0x1c,0x96,0x30,0x4c,0x40,
0x86,0x30,0x00,0x20,0x96,0x30,0x52,0x38,0x86,0x30,0x00,0x28,0x96,0x30,0x48,0x40,
0x86,0x30,0x00,0x24,0x96,0x30,0x57,0x34,0x86,0x30,0x00,0x28,0x96,0x30,0x3e,0x34,
0x86,0x30,0x00,0x2c,0x96,0x30,0x34,0x2c,0x86,0x30,0x00,0x34,0x96,0x30,0x48,0x3c,
0x86,0x30,0x00,0x28,0x96,0x30,0x57,0x3c,0x86,0x30,0x00,0x20,0x96,0x30,0x44,0x34,
0x86,0x30,0x00,0x2c,0x96,0x30,0x42,0x34,0x86,0x30,0x00,0x2c,0x96,0x30,0x52,0x40,
0x86,0x30,0x00,0x24,0x96,0x30,0x57,0x34,0x86,0x30,0x00,0x28,0x96,0x30,0x42,0x3c,
0x86,0x30,0x00,0x24,0x96,0x30,0x3a,0x38,0x86,0x30,0x00,0x28,0x96,0x30,0x3e,0x40,
0x86,0x30,0x00,0x24,0x96,0x30,0x57,0x38,0x86,0x30,0x00,0x24,0x96,0x30,0x3e,0x40,
0x86,0x30,0x00,0x20,0x96,0x30,0x57,0x34,0x86,0x30,0x00,0x2c,0x96,0x30,0x52,0x3c,
0x86,0x30,0x00,0x28,0x96,0x30,0x57,0x2c,0x86,0x30,0x00,0x30,0x96,0x30,0x10,0x24,
0x86,0x30,0x00,0x3c,0x96,0x30,0x52,0x38,0x86,0x30,0x00,0x28,0x96,0x30,0x52,0x40,
0x86,0x30,0x00,0x24,0x96,0x30,0x57,0x34,0x86,0x30,0x00,0x28,0x96,0x30,0x18,0x34,
0x86,0x30,0x00,0x2c,0x96,0x30,0x3a,0x38,0x86,0x30,0x00,0x28,0x96,0x30,0x44,0x4c,
0x86,0x30,0x00,0x18,0x96,0x30,0x57,0x34,0x86,0x30,0x00,0x81,0x08,0x96,0x30,0x44,
0x40,0x86,0x30,0x00,0x20,0x96,0x30,0x48,0x40,0x86,0x30,0x00,0x24,0x96,0x30,0x57,
0x40,0x86,0x30,0x00,0x7c,0x96,0x30,0x4c,0x34,0x86,0x30,0x00,0x2c,0x96,0x30,0x4c,
0x3c,0x86,0x30,0x00,0x28,0x96,0x30,0x57,0x30,0x86,0x30,0x00,0x2c,0x96,0x30,0x42,
0x34,0x86,0x30,0x00,0x2c,0x96,0x30,0x3c,0x38,0x86,0x30,0x00,0x28,0x96,0x30,0x38,
0x40,0x86,0x30,0x00,0x24,0x96,0x30,0x57,0x38,0x86,0x30,0x00,0x24,0x96,0x30,0x42,
0x3c,0x86,0x30,0x00,0x24,0x96,0x30,0x57,0x38,0x86,0x30,0x00,0x28,0x96,0x30,0x4c,
0x40,0x86,0x30,0x00,0x24,0x96,0x30,0x57,0x34,0x86,0x30,0x00,0x28,0x96,0x30,0x20,
0x38,0x86,0x30,0x00,0x28,0x96,0x30,0x4c,0x38,0x86,0x30,0x00,0x28,0x96,0x30,0x44,
0x44,0x86,0x30,0x00,0x20,0x96,0x30,0x57,0x40,0x86,0x30,0x00,0x1c,0x96,0x30,0x16,
0x34,0x86,0x30,0x00,0x2c,0x96,0x30,0x44,0x38,0x86,0x30,0x00,0x28,0x96,0x30,0x44,
0x40,0x86,0x30,0x00,0x24,0x96,0x30,0x57,0x4c,0x86,0x30,0x00,0x70,0x96,0x30,0x40,
0x3c,0x86,0x30,0x00,0x24,0x96,0x30,0x52,0x30,0x86,0x30,0x00,0x34,0x96,0x30,0x57,
0x44,0x86,0x30,0x00,0x78,0x96,0x30,0x42,0x40,0x86,0x30,0x00,0x20,0x96,0x30,0x57,
0x3c,0x86,0x30,0x00,0x28,0x96,0x30,0x57,0x5c,0x86,0x30,0x00,0xe5,0x24,0x96,0x30,
0x57,0x38,0x86,0x30,0x00,0x81,0x04,0x96,0x30,0x4e,0x3c,0x86,0x30,0x00,0x24,0x96,
0x30,0x52,0x38,0x86,0x30,0x00,0x2c,0x96,0x30,0x57,0x38,0x86,0x30,0x00,0x81,0x04,
0x96,0x30,0x4c,0x3c,0x86,0x30,0x00,0x24,0x96,0x30,0x48,0x34,0x86,0x30,0x00,0x30,
0x96,0x30,0x57,0x3c,0x86,0x30,0x00,0x81,0x00,0x96,0x30,0x3e,0x34,0x86,0x30,0x00,
0x2c,0x96,0x30,0x56,0x34,0x86,0x30,0x00,0x30,0x96,0x30,0x57,0x30,0x86,0x30,0x00,
0x2c,0x96,0x30,0x22,0x24,0x86,0x30,0x00,0x3c,0x96,0x30,0x42,0x34,0x86,0x30,0x00,
0x2c,0x96,0x30,0x4e,0x34,0x86,0x30,0x00,0x30,0x96,0x30,0x57,0x2c,0x86,0x30,0x00,
0x81,0x10,0x96,0x30,0x40,0x34,0x86,0x30,0x00,0x2c,0x96,0x30,0x57,0x34,0x86,0x30,
0x00,0x30,0x96,0x30,0x57,0x2c,0x86,0x30,0x00,0x81,0x10,0x96,0x30,0x3e,0x28,0x86,
0x30,0x00,0x38,0x96,0x30,0x44,0x34,0x86,0x30,0x00,0x30,0x96,0x30,0x57,0x28,0x86,
0x30,0x00,0x34,0x96,0x30,0x48,0x34,0x86,0x30,0x00,0x2c,0x96,0x30,0x42,0x2c,0x86,
0x30,0x00,0x34,0x96,0x30,0x57,0x34,0x86,0x30,0x00,0x30,0x96,0x30,0x57,0x34,0x86,
0x30,0x00,0x28,0x96,0x30,0x57,0x34,0x86,0x30,0x00,0x30,0x96,0x30,0x57,0x2c,0x86,
0x30,0x00,0x30,0x96,0x30,0x57,0x40,0x86,0x30,0x00,0x24,0x96,0x30,0x57,0x2c,0x86,
0x30,0x00,0x81,0x10,0x96,0x30,0x4e,0x38,0x86,0x30,0x00,0x28,0x96,0x30,0x4e,0x3c,
0x86,0x30,0x00,0x28,0x96,0x30,0x57,0x34,0x86,0x30,0x00,0x81,0x08,0x96,0x30,0x40,
0x30,0x86,0x30,0x00,0x30,0x96,0x30,0x56,0x34,0x86,0x30,0x00,0x30,0x96,0x30,0x57,
0x34,0x86,0x30,0x00,0x81,0x08,0x96,0x30,0x48,0x34,0x86,0x30,0x00,0x2c,0x96,0x30,
0x57,0x2c,0x86,0x30,0x00,0x38,0x96,0x30,0x57,0x34,0x86,0x30,0x00,0x81,0x08,0x96,
0x30,0x40,0x38,0x86,0x30,0x00,0x28,0x96,0x30,0x4c,0x3c,0x86,0x30,0x00,0x28,0x96,
0x30,0x57,0x2c,0x86,0x30,0x00,0x81,0x10,0x96,0x30,0x3c,0x34,0x86,0x30,0x00,0x2c,
0x96,0x30,0x4c,0x34,0x86,0x30,0x00,0x30,0x96,0x30,0x57,0x30,0x86,0x30,0x00,0x81,
0x0c,0x96,0x30,0x42,0x34,0x86,0x30,0x00,0x2c,0x96,0x30,0x44,0x34,0x86,0x30,0x00,
0x30,0x96,0x30,0x57,0x2c,0x86,0x30,0x00,0x81,0x10,0x96,0x30,0x42,0x38,0x86,0x30,
0x00,0x28,0x96,0x30,0x4c,0x34,0x86,0x30,0x00,0x30,0x96,0x30,0x57,0x2c,0x86,0x30,
0x00,0x81,0x10,0x96,0x30,0x40,0x34,0x86,0x30,0x00,0x2c,0x96,0x30,0x57,0x38,0x86,
0x30,0x00,0x2c,0x96,0x30,0x57,0x28,0x86,0x30,0x00,0x81,0x14,0x96,0x30,0x42,0x2c,
0x86,0x30,0x00,0x34,0x96,0x30,0x44,0x34,0x86,0x30,0x00,0x30,0x96,0x30,0x57,0x34,
0x86,0x30,0x00,0x81,0x08,0x96,0x30,0x3e,0x34,0x86,0x30,0x00,0x2c,0x96,0x30,0x52,
0x38,0x86,0x30,0x00,0x2c,0x96,0x30,0x57,0x34,0x86,0x30,0x00,0x81,0x08,0x96,0x30,
0x44,0x34,0x86,0x30,0x00,0x2c,0x96,0x30,0x4e,0x34,0x86,0x30,0x00,0x30,0x96,0x30,
0x57,0x3c,0x86,0x30,0x00,0x20,0x96,0x30,0x4c,0x38,0x86,0x30,0x00,0x28,0x96,0x30,
0x57,0x38,0x86,0x30,0x00,0x28,0x96,0x30,0x56,0x40,0x86,0x30,0x00,0x24,0x96,0x30,
0x57,0x2c,0x86,0x30,0x00,0x81,0x10,0x96,0x30,0x44,0x34,0x86,0x30,0x00,0x2c,0x96,
0x30,0x4c,0x3c,0x86,0x30,0x00,0x28,0x96,0x30,0x57,0x40,0x86,0x30,0x00,0x7c,0x96,
0x30,0x3a,0x38,0x86,0x30,0x00,0x28,0x96,0x30,0x42,0x34,0x86,0x30,0x00,0x30,0x96,
0x30,0x57,0x3c,0x86,0x30,0x00,0x81,0x00,0x96,0x30,0x42,0x34,0x86,0x30,0x00,0x2c,
0x96,0x30,0x48,0x3c,0x86,0x30,0x00,0x28,0x96,0x30,0x57,0x34,0x86,0x30,0x00,0x28,
0x96,0x30,0x4c,0x38,0x86,0x30,0x00,0x81,0x08,0x96,0x30,0x52,0x40,0x86,0x30,0x00,
0x24,0x96,0x30,0x57,0x40,0x86,0x30,0x00,0x7c,0x96,0x30,0x44,0x34,0x86,0x30,0x00,
0x2c,0x96,0x30,0x48,0x3c,0x86,0x30,0x00,0x28,0x96,0x30,0x57,0x34,0x86,0x30,0x00,
0x81,0x08,0x96,0x30,0x42,0x34,0x86,0x30,0x00,0x2c,0x96,0x30,0x48,0x3c,0x86,0x30,
0x00,0x28,0x96,0x30,0x57,0x34,0x86,0x30,0x00,0x81,0x08,0x96,0x30,0x44,0x2c,0x86,
0x30,0x00,0x34,0x96,0x30,0x48,0x34,0x86,0x30,0x00,0x30,0x96,0x30,0x57,0x34,0x86,
0x30,0x00,0x28,0x96,0x30,0x1c,0x2c,0x86,0x30,0x00,0x34,0x96,0x30,0x52,0x38,0x86,
0x30,0x00,0x28,0x96,0x30,0x57,0x34,0x86,0x30,0x00,0x30,0x96,0x30,0x57,0x2c,0x86,
0x30,0x00,0x81,0x10,0x96,0x30,0x48,0x2c,0x86,0x30,0x00,0x34,0x96,0x30,0x4c,0x34,
0x86,0x30,0x00,0x30,0x96,0x30,0x57,0x38,0x86,0x30,0x00,0x81,0x04,0x96,0x30,0x44,
0x38,0x86,0x30,0x00,0x28,0x96,0x30,0x48,0x38,0x86,0x30,0x00,0x2c,0x96,0x30,0x57,
0x30,0x86,0x30,0x00,0x81,0x0c,0x96,0x30,0x48,0x34,0x86,0x30,0x00,0x2c,0x96,0x30,
0x48,0x34,0x86,0x30,0x00,0x30,0x96,0x30,0x57,0x34,0x86,0x30,0x00,0x28,0x96,0x30,
0x56,0x38,0x86,0x30,0x00,0x28,0x96,0x30,0x2c,0x20,0x86,0x30,0x00,0x40,0x96,0x30,
0x4c,0x34,0x86,0x30,0x00,0x30,0x96,0x30,0x57,0x38,0x86,0x30,0x00,0x81,0x04,0x96,
0x30,0x42,0x34,0x86,0x30,0x00,0x2c,0x96,0x30,0x57,0x3c,0x86,0x30,0x00,0x28,0x96,
0x30,0x57,0x30,0x86,0x30,0x00,0x81,0x0c,0x96,0x30,0x52,0x34,0x86,0x30,0x00,0x2c,
0x96,0x30,0x57,0x38,0x86,0x30,0x00,0x2c,0x96,0x30,0x57,0x40,0x86,0x30,0x00,0x7c,
0x96,0x30,0x48,0x30,0x86,0x30,0x00,0x30,0x96,0x30,0x4c,0x38,0x86,0x30,0x00,0x2c,
0x96,0x30,0x57,0x38,0x86,0x30,0x00,0x81,0x04,0x96,0x30,0x48,0x2c,0x86,0x30,0x00,
0x34,0x96,0x30,0x4c,0x34,0x86,0x30,0x00,0x30,0x96,0x30,0x57,0x40,0x86,0x30,0x00,
0x7c,0x96,0x30,0x44,0x34,0x86,0x30,0x00,0x2c,0x96,0x30,0x56,0x34,0x86,0x30,0x00,
0x30,0x96,0x30,0x57,0x3c,0x86,0x30,0x00,0x81,0x00,0x96,0x30,0x44,0x38,0x86,0x30,
0x00,0x28,0x96,0x30,0x52,0x34,0x86,0x30,0x00,0x30,0x96,0x30,0x57,0x34,0x86,0x30,
0x00,0x81,0x0c,0x96,0x30,0x48,0x34,0x86,0x30,0x00,0x28,0x96,0x30,0x52,0x40,0x86,
0x30,0x00,0x24,0x96,0x30,0x44,0x28,0x86,0x30,0x00,0x38,0x96,0x30,0x57,0x34,0x86,
0x30,0x00,0xe1,0x6c,0x96,0x30,0x57,0x38,0x86,0x30,0x00,0x81,0x04,0x96,0x30,0x52,
0x3c,0x86,0x30,0x00,0x24,0x96,0x30,0x4e,0x34,0x86,0x30,0x00,0x30,0x96,0x30,0x57,
0x3c,0x86,0x30,0x00,0x81,0x00,0x96,0x30,0x48,0x34,0x86,0x30,0x00,0x2c,0x96,0x30,
0x4e,0x38,0x86,0x30,0x00,0x2c,0x96,0x30,0x57,0x3c,0x86,0x30,0x00,0x81,0x00,0x96,
0x30,0x48,0x34,0x86,0x30,0x00,0x2c,0x96,0x30,0x48,0x2c,0x86,0x30,0x00,0x38,0x96,
0x30,0x57,0x2c,0x86,0x30,0x00,0x30,0x96,0x30,0x52,0x34,0x86,0x30,0x00,0x81,0x0c,
0x96,0x30,0x57,0x34,0x86,0x30,0x00,0x30,0x96,0x30,0x57,0x2c,0x86,0x30,0x00,0x81,
0x10,0x96,0x30,0x42,0x34,0x86,0x30,0x00,0x2c,0x96,0x30,0x52,0x2c,0x86,0x30,0x00,
0x38,0x96,0x30,0x57,0x34,0x86,0x30,0x00,0x81,0x08,0x96,0x30,0x42,0x2c,0x86,0x30,
0x00,0x34,0x96,0x30,0x4e,0x2c,0x86,0x30,0x00,0x38,0x96,0x30,0x57,0x2c,0x86,0x30,
0x00,0x81,0x10,0x96,0x30,0x44,0x2c,0x86,0x30,0x00,0x34,0x96,0x30,0x57,0x34,0x86,
0x30,0x00,0x30,0x96,0x30,0x57,0x2c,0x86,0x30,0x00,0x30,0x96,0x30,0x57,0x2c,0x86,
0x30,0x00,0x34,0x96,0x30,0x57,0x2c,0x86,0x30,0x00,0x34,0x96,0x30,0x57,0x34,0x86,
0x30,0x00,0x30,0x96,0x30,0x57,0x28,0x86,0x30,0x00,0x81,0x14,0x96,0x30,0x3e,0x2c,
0x86,0x30,0x00,0x34,0x96,0x30,0x48,0x2c,0x86,0x30,0x00,0x38,0x96,0x30,0x57,0x34,
0x86,0x30,0x00,0x81,0x08,0x96,0x30,0x40,0x28,0x86,0x30,0x00,0x38,0x96,0x30,0x4e,
0x30,0x86,0x30,0x00,0x34,0x96,0x30,0x57,0x34,0x86,0x30,0x00,0x81,0x08,0x96,0x30,
0x40,0x34,0x86,0x30,0x00,0x2c,0x96,0x30,0x4e,0x38,0x86,0x30,0x00,0x2c,0x96,0x30,
0x57,0x2c,0x86,0x30,0x00,0x30,0x96,0x30,0x48,0x2c,0x86,0x30,0x00,0x34,0x96,0x30,
0x57,0x34,0x86,0x30,0x00,0x2c,0x96,0x30,0x57,0x34,0x86,0x30,0x00,0x30,0x96,0x30,
0x57,0x34,0x86,0x30,0x00,0x81,0x08,0x96,0x30,0x44,0x2c,0x86,0x30,0x00,0x34,0x96,
0x30,0x4e,0x34,0x86,0x30,0x00,0x30,0x96,0x30,0x57,0x38,0x86,0x30,0x00,0x24,0x96,
0x30,0x48,0x2c,0x86,0x30,0x00,0x34,0x96,0x30,0x3a,0x2c,0x86,0x30,0x00,0x34,0x96,
0x30,0x57,0x34,0x86,0x30,0x00,0x30,0x96,0x30,0x57,0x28,0x86,0x30,0x00,0x34,0x96,
0x30,0x4c,0x38,0x86,0x30,0x00,0x28,0x96,0x30,0x3e,0x2c,0x86,0x30,0x00,0x34,0x96,
0x30,0x52,0x34,0x86,0x30,0x00,0x30,0x96,0x30,0x57,0x2c,0x86,0x30,0x00,0x30,0x96,
0x30,0x57,0x2c,0x86,0x30,0x00,0x38,0x96,0x30,0x57,0x2c,0x86,0x30,0x00,0x30,0x96,
0x30,0x57,0x2c,0x86,0x30,0x00,0x38,0x96,0x30,0x57,0x2c,0x86,0x30,0x00,0x81,0x10,
0x96,0x30,0x4c,0x2c,0x86,0x30,0x00,0x34,0x96,0x30,0x57,0x24,0x86,0x30,0x00,0x40,
0x96,0x30,0x57,0x28,0x86,0x30,0x00,0x81,0x14,0x96,0x30,0x44,0x34,0x86,0x30,0x00,
0x2c,0x96,0x30,0x52,0x2c,0x86,0x30,0x00,0x38,0x96,0x30,0x57,0x34,0x86,0x30,0x00,
0x81,0x08,0x96,0x30,0x40,0x2c,0x86,0x30,0x00,0x34,0x96,0x30,0x4e,0x2c,0x86,0x30,
0x00,0x38,0x96,0x30,0x57,0x28,0x86,0x30,0x00,0x81,0x14,0x96,0x30,0x42,0x30,0x86,
0x30,0x00,0x30,0x96,0x30,0x42,0x38,0x86,0x30,0x00,0x2c,0x96,0x30,0x57,0x2c,0x86,
0x30,0x00,0x81,0x10,0x96,0x30,0x42,0x34,0x86,0x30,0x00,0x2c,0x96,0x30,0x4e,0x38,
0x86,0x30,0x00,0x2c,0x96,0x30,0x57,0x28,0x86,0x30,0x00,0x81,0x14,0x96,0x30,0x42,
0x38,0x86,0x30,0x00,0x28,0x96,0x30,0x48,0x34,0x86,0x30,0x00,0x30,0x96,0x30,0x57,
0x34,0x86,0x30,0x00,0x81,0x08,0x96,0x30,0x38,0x34,0x86,0x30,0x00,0x2c,0x96,0x30,
0x40,0x2c,0x86,0x30,0x00,0x38,0x96,0x30,0x57,0x2c,0x86,0x30,0x00,0x81,0x10,0x96,
0x30,0x40,0x38,0x86,0x30,0x00,0x28,0x96,0x30,0x44,0x34,0x86,0x30,0x00,0x30,0x96,
0x30,0x57,0x34,0x86,0x30,0x00,0x81,0x08,0x96,0x30,0x44,0x34,0x86,0x30,0x00,0x2c,
0x96,0x30,0x4c,0x34,0x86,0x30,0x00,0x30,0x96,0x30,0x57,0x34,0x86,0x30,0x00,0x81,
0x08,0x96,0x30,0x42,0x34,0x86,0x30,0x00,0x2c,0x96,0x30,0x4e,0x34,0x86,0x30,0x00,
0x30,0x96,0x30,0x57,0x2c,0x86,0x30,0x00,0x81,0x10,0x96,0x30,0x44,0x34,0x86,0x30,
0x00,0x2c,0x96,0x30,0x48,0x38,0x86,0x30,0x00,0x2c,0x96,0x30,0x57,0x30,0x86,0x30,
0x00,0x81,0x0c,0x96,0x30,0x3e,0x34,0x86,0x30,0x00,0x2c,0x96,0x30,0x4c,0x34,0x86,
0x30,0x00,0x30,0x96,0x30,0x57,0x2c,0x86,0x30,0x00,0x81,0x10,0x96,0x30,0x44,0x34,
0x86,0x30,0x00,0x2c,0x96,0x30,0x52,0x34,0x86,0x30,0x00,0x30,0x96,0x30,0x57,0x30,
0x86,0x30,0x00,0x81,0x0c,0x96,0x30,0x48,0x30,0x86,0x30,0x00,0x30,0x96,0x30,0x44,
0x38,0x86,0x30,0x00,0x2c,0x96,0x30,0x57,0x2c,0x86,0x30,0x00,0x81,0x14,0x96,0x30,
0x48,0x34,0x86,0x30,0x00,0x2c,0x96,0x30,0x52,0x34,0x86,0x30,0x00,0x2c,0x96,0x30,
0x57,0x34,0x86,0x30,0x00,0x2c,0x96,0x30,0x32,0x28,0x86,0x30,0x00,0x38,0x96,0x30,
0x57,0x2c,0x86,0x30,0x00,0x30,0x96,0x30,0x48,0x38,0x86,0x30,0x00,0x2c,0x96,0x30,
0x57,0x2c,0x86,0x30,0x00,0x81,0x10,0x96,0x30,0x48,0x34,0x86,0x30,0x00,0x2c,0x96,
0x30,0x42,0x38,0x86,0x30,0x00,0x2c,0x96,0x30,0x57,0x34,0x86,0x30,0x00,0x81,0x08,
0x96,0x30,0x44,0x40,0x86,0x30,0x00,0x20,0x96,0x30,0x4c,0x34,0x86,0x30,0x00,0x30,
0x96,0x30,0x57,0x34,0x86,0x30,0x00,0x81,0x08,0x96,0x30,0x44,0x2c,0x86,0x30,0x00,
0x34,0x96,0x30,0x42,0x38,0x86,0x30,0x00,0x2c,0x96,0x30,0x57,0x40,0x86,0x30,0x00,
0x7c,0x96,0x30,0x44,0x38,0x86,0x30,0x00,0x28,0x96,0x30,0x4c,0x34,0x86,0x30,0x00,
0x30,0x96,0x30,0x57,0x2c,0x86,0x30,0x00,0x81,0x10,0x96,0x30,0x44,0x38,0x86,0x30,
0x00,0x28,0x96,0x30,0x42,0x34,0x86,0x30,0x00,0x30,0x96,0x30,0x57,0x34,0x86,0x30,
0x00,0x81,0x08,0x96,0x30,0x48,0x34,0x86,0x30,0x00,0x2c,0x96,0x30,0x48,0x40,0x86,
0x30,0x00,0x24,0x96,0x30,0x57,0x38,0x86,0x30,0x00,0x81,0x04,0x96,0x30,0x40,0x2c,
0x86,0x30,0x00,0x34,0x96,0x30,0x4c,0x34,0x86,0x30,0x00,0x30,0x96,0x30,0x57,0x2c,
0x86,0x30,0x00,0x81,0x10,0x96,0x30,0x40,0x30,0x86,0x30,0x00,0x30,0x96,0x30,0x42,
0x2c,0x86,0x30,0x00,0x38,0x96,0x30,0x57,0x34,0x86,0x30,0x00,0x81,0x08,0x96,0x30,
0x40,0x34,0x86,0x30,0x00,0x2c,0x96,0x30,0x48,0x34,0x86,0x30,0x00,0x30,0x96,0x30,
0x57,0x28,0x86,0x30,0x00,0x81,0x14,0x96,0x30,0x44,0x34,0x86,0x30,0x00,0x2c,0x96,
0x30,0x40,0x38,0x86,0x30,0x00,0x2c,0x96,0x30,0x57,0x30,0x86,0x30,0x00,0x81,0x0c,
0x96,0x30,0x40,0x34,0x86,0x30,0x00,0x2c,0x96,0x30,0x4c,0x38,0x86,0x30,0x00,0x2c,
0x96,0x30,0x57,0x2c,0x86,0x30,0x00,0x81,0x10,0x96,0x30,0x40,0x34,0x86,0x30,0x00,
0x2c,0x96,0x30,0x40,0x34,0x86,0x30,0x00,0x30,0x96,0x30,0x57,0x34,0x86,0x30,0x00,
0x81,0x08,0x96,0x30,0x42,0x38,0x86,0x30,0x00,0x28,0x96,0x30,0x42,0x2c,0x86,0x30,
0x00,0x38,0x96,0x30,0x57,0x34,0x86,0x30,0x00,0x81,0x08,0x96,0x30,0x3e,0x38,0x86,
0x30,0x00,0x28,0x96,0x30,0x3e,0x34,0x86,0x30,0x00,0x30,0x96,0x30,0x57,0x2c,0x86,
0x30,0x00,0x81,0x14,0x96,0x30,0x48,0x34,0x86,0x30,0x00,0x28,0x96,0x30,0x38,0x2c,
0x86,0x30,0x00,0xef,0x38,0x96,0x30,0x57,0x44,0x86,0x30,0x00,0x78,0x96,0x30,0x44,
0x30,0x86,0x30,0x00,0x30,0x96,0x30,0x57,0x34,0x86,0x30,0x00,0x30,0x96,0x30,0x57,
0x38,0x86,0x30,0x00,0x81,0x04,0x96,0x30,0x44,0x38,0x86,0x30,0x00,0x28,0x96,0x30,
0x4e,0x34,0x86,0x30,0x00,0x30,0x96,0x30,0x57,0x2c,0x86,0x30,0x00,0x30,0x96,0x30,
0x3c,0x2c,0x86,0x30,0x00,0x34,0x96,0x30,0x30,0x2c,0x86,0x30,0x00,0x34,0x96,0x30,
0x42,0x34,0x86,0x30,0x00,0x30,0x96,0x30,0x57,0x34,0x86,0x30,0x00,0x28,0x96,0x30,
0x52,0x2c,0x86,0x30,0x00,0x34,0x96,0x30,0x40,0x2c,0x86,0x30,0x00,0x34,0x96,0x30,
0x48,0x34,0x86,0x30,0x00,0x30,0x96,0x30,0x57,0x2c,0x86,0x30,0x00,0x30,0x96,0x30,
0x4c,0x34,0x86,0x30,0x00,0x2c,0x96,0x30,0x3a,0x34,0x86,0x30,0x00,0x2c,0x96,0x30,
0x57,0x34,0x86,0x30,0x00,0x30,0x96,0x30,0x57,0x2c,0x86,0x30,0x00,0x30,0x96,0x30,
0x48,0x34,0x86,0x30,0x00,0x2c,0x96,0x30,0x42,0x2c,0x86,0x30,0x00,0x34,0x96,0x30,
0x56,0x2c,0x86,0x30,0x00,0x38,0x96,0x30,0x57,0x30,0x86,0x30,0x00,0x2c,0x96,0x30,
0x57,0x28,0x86,0x30,0x00,0x38,0x96,0x30,0x57,0x30,0x86,0x30,0x00,0x30,0x96,0x30,
0x57,0x28,0x86,0x30,0x00,0x3c,0x96,0x30,0x57,0x28,0x86,0x30,0x00,0x34,0x96,0x30,
0x57,0x30,0x86,0x30,0x00,0x30,0x96,0x30,0x57,0x2c,0x86,0x30,0x00,0x34,0x96,0x30,
0x57,0x34,0x86,0x30,0x00,0x30,0x96,0x30,0x57,0x28,0x86,0x30,0x00,0x34,0x96,0x30,
0x02,0x24,0x86,0x30,0x00,0x3c,0x96,0x30,0x4e,0x2c,0x86,0x30,0x00,0x34,0x96,0x30,
0x48,0x38,0x86,0x30,0x00,0x2c,0x96,0x30,0x57,0x2c,0x86,0x30,0x00,0x30,0x96,0x30,
0x22,0x2c,0x86,0x30,0x00,0x34,0x96,0x30,0x48,0x34,0x86,0x30,0x00,0x2c,0x96,0x30,
0x48,0x38,0x86,0x30,0x00,0x2c,0x96,0x30,0x57,0x34,0x86,0x30,0x00,0x28,0x96,0x30,
0x38,0x2c,0x86,0x30,0x00,0x34,0x96,0x30,0x40,0x34,0x86,0x30,0x00,0x30,0x96,0x30,
0x4e,0x24,0x86,0x30,0x00,0x3c,0x96,0x30,0x57,0x38,0x86,0x30,0x00,0x24,0x96,0x30,
0x48,0x38,0x86,0x30,0x00,0x2c,0x96,0x30,0x4e,0x28,0x86,0x30,0x00,0x34,0x96,0x30,
0x4e,0x38,0x86,0x30,0x00,0x2c,0x96,0x30,0x57,0x2c,0x86,0x30,0x00,0x30,0x96,0x30,
0x3a,0x38,0x86,0x30,0x00,0x28,0x96,0x30,0x3a,0x20,0x86,0x30,0x00,0x40,0x96,0x30,
0x48,0x34,0x86,0x30,0x00,0x30,0x96,0x30,0x57,0x34,0x86,0x30,0x00,0x28,0x96,0x30,
0x48,0x38,0x86,0x30,0x00,0x28,0x96,0x30,0x3e,0x34,0x86,0x30,0x00,0x2c,0x96,0x30,
0x4c,0x38,0x86,0x30,0x00,0x2c,0x96,0x30,0x57,0x2c,0x86,0x30,0x00,0x30,0x96,0x30,
0x3e,0x2c,0x86,0x30,0x00,0x34,0x96,0x30,0x44,0x2c,0x86,0x30,0x00,0x38,0x96,0x30,
0x57,0x34,0x86,0x30,0x00,0x2c,0x96,0x30,0x57,0x28,0x86,0x30,0x00,0x34,0x96,0x30,
0x48,0x38,0x86,0x30,0x00,0x2c,0x96,0x30,0x57,0x28,0x86,0x30,0x00,0x34,0x96,0x30,
0x4c,0x38,0x86,0x30,0x00,0x2c,0x96,0x30,0x57,0x2c,0x86,0x30,0x00,0x81,0x10,0x96,
0x30,0x4c,0x28,0x86,0x30,0x00,0x38,0x96,0x30,0x48,0x3c,0x86,0x30,0x00,0x28,0x96,
0x30,0x57,0x28,0x86,0x30,0x00,0x34,0x96,0x30,0x04,0x20,0x86,0x30,0x00,0x40,0x96,
0x30,0x42,0x38,0x86,0x30,0x00,0x28,0x96,0x30,0x57,0x34,0x86,0x30,0x00,0x30,0x96,
0x30,0x57,0x2c,0x86,0x30,0x00,0x30,0x96,0x30,0x0a,0x14,0x86,0x30,0x00,0x50,0x96,
0x30,0x48,0x24,0x86,0x30,0x00,0x3c,0x96,0x30,0x57,0x30,0x86,0x30,0x00,0x30,0x96,
0x30,0x57,0x2c,0x86,0x30,0x00,0x30,0x96,0x30,0x48,0x34,0x86,0x30,0x00,0x30,0x96,
0x30,0x56,0x28,0x86,0x30,0x00,0x34,0x96,0x30,0x57,0x44,0x86,0x30,0x00,0x20,0x96,
0x30,0x57,0x38,0x86,0x30,0x00,0x81,0x04,0x96,0x30,0x52,0x38,0x86,0x30,0x00,0x28,
0x96,0x30,0x56,0x3c,0x86,0x30,0x00,0x28,0x96,0x30,0x57,0x34,0x86,0x30,0x00,0x81,
0x08,0x96,0x30,0x40,0x2c,0x86,0x30,0x00,0x34,0x96,0x30,0x4c,0x34,0x86,0x30,0x00,
0x30,0x96,0x30,0x57,0x34,0x86,0x30,0x00,0x28,0x96,0x30,0x0a,0x2c,0x86,0x30,0x00,
0x34,0x96,0x30,0x42,0x34,0x86,0x30,0x00,0x2c,0x96,0x30,0x4c,0x3c,0x86,0x30,0x00,
0x28,0x96,0x30,0x57,0x38,0x86,0x30,0x00,0x24,0x96,0x30,0x57,0x34,0x86,0x30,0x00,
0x2c,0x96,0x30,0x57,0x38,0x86,0x30,0x00,0x28,0x96,0x30,0x57,0x40,0x86,0x30,0x00,
0x24,0x96,0x30,0x57,0x2c,0x86,0x30,0x00,0x81,0x10,0x96,0x30,0x4c,0x34,0x86,0x30,
0x00,0x2c,0x96,0x30,0x57,0x34,0x86,0x30,0x00,0x30,0x96,0x30,0x57,0x30,0x86,0x30,
0x00,0x81,0x10,0x96,0x30,0x48,0x30,0x86,0x30,0x00,0x2c,0x96,0x30,0x48,0x38,0x86,
0x30,0x00,0x2c,0x96,0x30,0x57,0x30,0x86,0x30,0x00,0x81,0x0c,0x96,0x30,0x44,0x2c,
0x86,0x30,0x00,0x38,0x96,0x30,0x4c,0x3c,0x86,0x30,0x00,0x24,0x96,0x30,0x57,0x38,
0x86,0x30,0x00,0x24,0x96,0x30,0x01,0x24,0x86,0x30,0x00,0x40,0x96,0x30,0x44,0x34,
0x86,0x30,0x00,0x28,0x96,0x30,0x42,0x38,0x86,0x30,0x00,0x2c,0x96,0x30,0x57,0x40,
0x86,0x30,0x00,0x7c,0x96,0x30,0x44,0x2c,0x86,0x30,0x00,0x34,0x96,0x30,0x44,0x38,
0x86,0x30,0x00,0x2c,0x96,0x30,0x57,0x34,0x86,0x30,0x00,0x81,0x08,0x96,0x30,0x48,
0x38,0x86,0x30,0x00,0x28,0x96,0x30,0x42,0x3c,0x86,0x30,0x00,0x28,0x96,0x30,0x57,
0x40,0x86,0x30,0x00,0x7c,0x96,0x30,0x42,0x34,0x86,0x30,0x00,0x30,0x96,0x30,0x48,
0x3c,0x86,0x30,0x00,0x24,0x96,0x30,0x57,0x38,0x86,0x30,0x00,0x81,0x08,0x96,0x30,
0x48,0x28,0x86,0x30,0x00,0x34,0x96,0x30,0x42,0x3c,0x86,0x30,0x00,0x28,0x96,0x30,
0x57,0x34,0x86,0x30,0x00,0x81,0x08,0x96,0x30,0x48,0x34,0x86,0x30,0x00,0x2c,0x96,
0x30,0x44,0x38,0x86,0x30,0x00,0x2c,0x96,0x30,0x57,0x3c,0x86,0x30,0x00,0x81,0x00,
0x96,0x30,0x44,0x34,0x86,0x30,0x00,0x2c,0x96,0x30,0x3e,0x40,0x86,0x30,0x00,0x24,
0x96,0x30,0x57,0x3c,0x86,0x30,0x00,0x81,0x04,0x96,0x30,0x4e,0x28,0x86,0x30,0x00,
0x34,0x96,0x30,0x4c,0x34,0x86,0x30,0x00,0x30,0x96,0x30,0x57,0x2c,0x86,0x30,0x00,
0x30,0x96,0x30,0x4c,0x34,0x86,0x30,0x00,0x30,0x96,0x30,0x57,0x34,0x86,0x30,0x00,
0x28,0x96,0x30,0x56,0x34,0x86,0x30,0x00,0x30,0x96,0x30,0x57,0x34,0x86,0x30,0x00,
0x81,0x08,0x96,0x30,0x4c,0x34,0x86,0x30,0x00,0x2c,0x96,0x30,0x4c,0x34,0x86,0x30,
0x00,0x30,0x96,0x30,0x57,0x34,0x86,0x30,0x00,0x28,0x96,0x30,0x0c,0x24,0x86,0x30,
0x00,0x3c,0x96,0x30,0x4c,0x34,0x86,0x30,0x00,0x2c,0x96,0x30,0x44,0x3c,0x86,0x30,
0x00,0x28,0x96,0x30,0x57,0x38,0x86,0x30,0x00,0x24,0x96,0x30,0x20,0x34,0x86,0x30,
0x00,0x2c,0x96,0x30,0x57,0x30,0x86,0x30,0x00,0x30,0x96,0x30,0x57,0x38,0x86,0x30,
0x00,0x2c,0x96,0x30,0x57,0x38,0x86,0x30,0x00,0x24,0x96,0x30,0x52,0x34,0x86,0x30,
0x00,0x2c,0x96,0x30,0x57,0x38,0x86,0x30,0x00,0x28,0x96,0x30,0x57,0x40,0x86,0x30,
0x00,0x24,0x96,0x30,0x57,0x34,0x86,0x30,0x00,0x81,0x0c,0x96,0x30,0x4c,0x28,0x86,
0x30,0x00,0x34,0x96,0x30,0x44,0x34,0x86,0x30,0x00,0x30,0x96,0x30,0x57,0x38,0x86,
0x30,0x00,0x24,0x96,0x30,0x01,0x20,0x86,0x30,0x00,0x40,0x96,0x30,0x4e,0x30,0x86,
0x30,0x00,0x30,0x96,0x30,0x48,0x3c,0x86,0x30,0x00,0x28,0x96,0x30,0x57,0x2c,0x86,
0x30,0x00,0x30,0x96,0x30,0x04,0x20,0x86,0x30,0x00,0x40,0x96,0x30,0x44,0x2c,0x86,
0x30,0x00,0x38,0x96,0x30,0x4c,0x3c,0x86,0x30,0x00,0x24,0x96,0x30,0x57,0x34,0x86,
0x30,0x00,0x28,0x96,0x30,0x18,0x2c,0x86,0x30,0x00,0x38,0x96,0x30,0x57,0x30,0x86,
0x30,0x00,0x2c,0x96,0x30,0x4c,0x40,0x86,0x30,0x00,0x24,0x96,0x30,0x57,0x34,0x86,
0x30,0x00,0x28,0x96,0x30,0x0c,0x24,0x86,0x30,0x00,0x3c,0x96,0x30,0x4e,0x34,0x86,
0x30,0x00,0x2c,0x96,0x30,0x4e,0x38,0x86,0x30,0x00,0x2c,0x96,0x30,0x57,0x34,0x86,
0x30,0x00,0x81,0x08,0x96,0x30,0x4c,0x38,0x86,0x30,0x00,0x28,0x96,0x30,0x3c,0x40,
0x86,0x30,0x00,0x24,0x96,0x30,0x57,0x38,0x86,0x30,0x00,0x24,0x96,0x30,0x44,0x34,
0x86,0x30,0x00,0x2c,0x96,0x30,0x52,0x38,0x86,0x30,0x00,0x2c,0x96,0x30,0x4c,0x34,
0x86,0x30,0x00,0x2c,0x96,0x30,0x57,0x34,0x86,0x30,0x00,0x28,0x96,0x30,0x04,0x24,
0x86,0x30,0x00,0x40,0x96,0x30,0x57,0x34,0x86,0x30,0x00,0x28,0x96,0x30,0x4c,0x40,
0x86,0x30,0x00,0x24,0x96,0x30,0x57,0x30,0x86,0x30,0x00,0x81,0x0c,0x96,0x30,0x56,
0x38,0x86,0x30,0x00,0x28,0x96,0x30,0x4e,0x44,0x86,0x30,0x00,0x20,0x96,0x30,0x57,
0x40,0x86,0x30,0x00,0x1c,0x96,0x30,0x01,0x24,0x86,0x30,0x00,0x3c,0x96,0x30,0x57,
0x38,0x86,0x30,0x00,0x28,0x96,0x30,0x52,0x34,0x86,0x30,0x00,0x30,0x96,0x30,0x57,
0x38,0x86,0x30,0x00,0x24,0x96,0x30,0x10,0x2c,0x86,0x30,0x00,0x38,0x96,0x30,0x57,
0x34,0x86,0x30,0x00,0x2c,0x96,0x30,0x4c,0x34,0x86,0x30,0x00,0x2c,0x96,0x30,0x57,
0x44,0x86,0x30,0x00,0x18,0x96,0x30,0x52,0x44,0x86,0x30,0x00,0x20,0x96,0x30,0x57,
0x38,0x86,0x30,0x00,0x24,0x96,0x30,0x57,0x40,0x86,0x30,0x00,0x24,0x96,0x30,0x57,
0x40,0x86,0x30,0x00,0x7c,0x96,0x30,0x4e,0x40,0x86,0x30,0x00,0x20,0x96,0x30,0x4c,
0x40,0x86,0x30,0x00,0x24,0x96,0x30,0x57,0x3c,0x86,0x30,0x00,0x81,0x00,0x96,0x30,
0x4c,0x34,0x86,0x30,0x00,0x2c,0x96,0x30,0x44,0x40,0x86,0x30,0x00,0x24,0x96,0x30,
0x57,0x40,0x86,0x30,0x00,0x7c,0x96,0x30,0x56,0x34,0x86,0x30,0x00,0x2c,0x96,0x30,
0x4c,0x34,0x86,0x30,0x00,0x30,0x96,0x30,0x57,0x40,0x86,0x30,0x00,0x1c,0x96,0x30,
0x57,0x3c,0x86,0x30,0x00,0x24,0x96,0x30,0x57,0x44,0x86,0x30,0x00,0x1c,0x96,0x30,
0x57,0x38,0x86,0x30,0x00,0x2c,0x96,0x30,0x57,0x3c,0x86,0x30,0x00,0x81,0x00,0x96,
0x30,0x4c,0x38,0x86,0x30,0x00,0x28,0x96,0x30,0x4e,0x34,0x86,0x30,0x00,0x30,0x96,
0x30,0x57,0x3c,0x86,0x30,0x00,0x81,0x00,0x96,0x30,0x52,0x40,0x86,0x30,0x00,0x20,
0x96,0x30,0x4e,0x34,0x86,0x30,0x00,0x30,0x96,0x30,0x57,0x34,0x86,0x30,0x00,0x81,
0x08,0x96,0x30,0x57,0x44,0x86,0x30,0x00,0x20,0x96,0x30,0x4e,0x30,0x86,0x30,0x00,
0x30,0x96,0x30,0x57,0x34,0x86,0x30,0x00,0x28,0x96,0x30,0x0a,0x24,0x86,0x30,0x00,
0x40,0x96,0x30,0x57,0x34,0x86,0x30,0x00,0x28,0x96,0x30,0x4c,0x3c,0x86,0x30,0x00,
0x28,0x96,0x30,0x57,0x40,0x86,0x30,0x00,0x1c,0x96,0x30,0x01,0x24,0x86,0x30,0x00,
0x3c,0x96,0x30,0x4e,0x38,0x86,0x30,0x00,0x28,0x96,0x30,0x52,0x38,0x86,0x30,0x00,
0x2c,0x96,0x30,0x57,0x38,0x86,0x30,0x00,0x81,0x04,0x96,0x30,0x56,0x40,0x86,0x30,
0x00,0x20,0x96,0x30,0x40,0x34,0x86,0x30,0x00,0x30,0x96,0x30,0x57,0x34,0x86,0x30,
0x00,0x81,0x0c,0x96,0x30,0x57,0x34,0x86,0x30,0x00,0x2c,0x96,0x30,0x48,0x34,0x86,
0x30,0x00,0x2c,0x96,0x30,0x57,0x38,0x86,0x30,0x00,0x28,0x96,0x30,0x52,0x30,0x86,
0x30,0x00,0x30,0x96,0x30,0x57,0x34,0x86,0x30,0x00,0x28,0x96,0x30,0x57,0x30,0x86,
0x30,0x00,0x34,0x96,0x30,0x57,0x38,0x86,0x30,0x00,0x81,0x04,0x96,0x30,0x57,0x34,
0x86,0x30,0x00,0x2c,0x96,0x30,0x57,0x2c,0x86,0x30,0x00,0x38,0x96,0x30,0x57,0x34,
0x86,0x30,0x00,0xa0,0x58,0xb6,0x40,0x00,0x00,0xd6,0x00,0x00,0xe6,0x00,0x40,0x81,
0x40,0xff,0x2f,0x00,0x4d,0x54,0x72,0x6b,0x00,0x00,0x2a,0x06,0x00,0xff,0x03,0x05,
0x44,0x52,0x55,0x4d,0x53,0x98,0x00,0xb9,0x0a,0x40,0x00,0xb9,0x5b,0x64,0x00,0xb9,
0x5d,0x00,0xbc,0x00,0x99,0x24,0x7f,0x00,0xc9,0x00,0x08,0xb9,0x07,0x64,0x00,0x99,
0x39,0x7f,0x60,0x89,0x24,0x00,0x24,0x89,0x39,0x00,0x84,0x74,0x99,0x24,0x7f,0x08,
0x99,0x39,0x7f,0x50,0x89,0x24,0x00,0x14,0x89,0x39,0x00,0x81,0x34,0x99,0x24,0x7f,
0x08,0x99,0x39,0x7f,0x48,0x89,0x39,0x00,0x00,0x89,0x24,0x00,0x81,0x50,0x99,0x24,
0x7f,0x08,0x99,0x39,0x7f,0x50,0x89,0x24,0x00,0x4c,0x89,0x39,0x00,0x86,0x1c,0x99,
0x24,0x7f,0x08,0x99,0x39,0x7f,0x58,0x89,0x39,0x00,0x00,0x89,0x24,0x00,0x81,0x40,
0x99,0x24,0x7f,0x08,0x99,0x39,0x7f,0x48,0x89,0x24,0x00,0x10,0x89,0x39,0x00,0x81,
0x40,0x99,0x24,0x7f,0x08,0x99,0x39,0x7f,0x50,0x89,0x24,0x00,0x14,0x89,0x39,0x00,
0x86,0x54,0x99,0x24,0x7f,0x08,0x99,0x39,0x7f,0x4c,0x89,0x24,0x00,0x1c,0x89,0x39,
0x00,0x81,0x30,0x99,0x24,0x7f,0x08,0x99,0x39,0x7f,0x3c,0x89,0x24,0x00,0x18,0x89,
0x39,0x00,0x81,0x44,0x99,0x24,0x7f,0x08,0x99,0x31,0x7f,0x84,0x68,0x89,0x24,0x00,
0x83,0x10,0x89,0x31,0x00,0x85,0x40,0x99,0x24,0x7f,0x08,0x99,0x39,0x7f,0x58,0x89,
0x24,0x00,0x18,0x89,0x39,0x00,0x85,0x08,0x99,0x24,0x7f,0x08,0x99,0x39,0x7f,0x48,
0x89,0x24,0x00,0x08,0x89,0x39,0x00,0x81,0x48,0x99,0x24,0x7f,0x08,0x99,0x39,0x7f,
0x34,0x89,0x24,0x00,0x18,0x89,0x39,0x00,0x81,0x4c,0x99,0x24,0x7f,0x08,0x99,0x39,
0x7f,0x3c,0x89,0x24,0x00,0x1c,0x89,0x39,0x00,0x88,0x20,0x99,0x24,0x7f,0x08,0x99,
0x39,0x7f,0x40,0x89,0x39,0x00,0x10,0x89,0x24,0x00,0x81,0x48,0x99,0x24,0x7f,0x08,
0x99,0x39,0x7f,0x48,0x89,0x39,0x00,0x10,0x89,0x24,0x00,0x81,0x40,0x99,0x24,0x7f,
0x08,0x99,0x39,0x7f,0x4c,0x89,0x24,0x00,0x20,0x89,0x39,0x00,0x85,0x0c,0x99,0x24,
0x7f,0x08,0x99,0x39,0x7f,0x44,0x89,0x24,0x00,0x14,0x89,0x39,0x00,0x81,0x40,0x99,
0x24,0x7f,0x08,0x99,0x39,0x7f,0x40,0x89,0x39,0x00,0x08,0x89,0x24,0x00,0x81,0x50,
0x99,0x24,0x7f,0x08,0x99,0x31,0x7f,0x84,0x60,0x89,0x24,0x00,0x83,0x20,0x89,0x31,
0x00,0x85,0x38,0x99,0x24,0x7f,0x04,0x99,0x2a,0x7f,0x40,0x89,0x2a,0x00,0x24,0x89,
0x24,0x00,0x58,0x99,0x2a,0x7e,0x40,0x89,0x2a,0x00,0x81,0x00,0x99,0x24,0x7f,0x00,
0x99,0x26,0x7f,0x00,0x99,0x2a,0x7f,0x04,0x99,0x36,0x7f,0x3c,0x89,0x2a,0x00,0x18,
0x89,0x24,0x00,0x30,0x89,0x26,0x00,0x38,0x99,0x2a,0x7f,0x38,0x89,0x2a,0x00,0x38,
0x89,0x36,0x00,0x50,0x99,0x24,0x7f,0x00,0x99,0x2a,0x7f,0x48,0x89,0x2a,0x00,0x04,
0x89,0x24,0x00,0x74,0x99,0x2a,0x7f,0x38,0x89,0x2a,0x00,0x81,0x08,0x99,0x24,0x7f,
0x00,0x99,0x26,0x7f,0x00,0x99,0x2a,0x7f,0x3c,0x89,0x2a,0x00,0x1c,0x89,0x24,0x00,
0x08,0x89,0x26,0x00,0x60,0x99,0x2a,0x7f,0x38,0x89,0x2a,0x00,0x81,0x08,0x99,0x24,
0x7f,0x04,0x99,0x2a,0x7f,0x4c,0x89,0x24,0x00,0x04,0x89,0x2a,0x00,0x6c,0x99,0x2a,
0x7f,0x40,0x89,0x2a,0x00,0x81,0x00,0x99,0x24,0x7f,0x00,0x99,0x26,0x7f,0x00,0x99,
0x2a,0x7f,0x04,0x99,0x36,0x7f,0x48,0x89,0x2a,0x00,0x0c,0x89,0x24,0x00,0x0c,0x89,
0x26,0x00,0x5c,0x99,0x2a,0x7d,0x38,0x89,0x2a,0x00,0x78,0x89,0x36,0x00,0x10,0x99,
0x24,0x7f,0x00,0x99,0x2a,0x7f,0x44,0x89,0x2a,0x00,0x0c,0x89,0x24,0x00,0x70,0x99,
0x2a,0x77,0x38,0x89,0x2a,0x00,0x81,0x08,0x99,0x24,0x7f,0x00,0x99,0x26,0x7f,0x04,
0x99,0x2a,0x7f,0x40,0x89,0x2a,0x00,0x08,0x89,0x24,0x00,0x40,0x89,0x26,0x00,0x34,
0x99,0x2a,0x7e,0x38,0x89,0x2a,0x00,0x81,0x08,0x99,0x24,0x7f,0x04,0x99,0x2a,0x7f,
0x40,0x89,0x2a,0x00,0x08,0x89,0x24,0x00,0x74,0x99,0x2a,0x7e,0x38,0x89,0x2a,0x00,
0x81,0x08,0x99,0x24,0x7f,0x00,0x99,0x26,0x7f,0x00,0x99,0x2a,0x7f,0x04,0x99,0x36,
0x7f,0x34,0x89,0x2a,0x00,0x18,0x89,0x24,0x00,0x44,0x89,0x26,0x00,0x2c,0x99,0x2a,
0x7c,0x30,0x89,0x2a,0x00,0x1c,0x89,0x36,0x00,0x74,0x99,0x24,0x7f,0x04,0x99,0x2a,
0x7f,0x30,0x89,0x2a,0x00,0x10,0x89,0x24,0x00,0x7c,0x99,0x2a,0x77,0x38,0x89,0x2a,
0x00,0x81,0x08,0x99,0x24,0x7f,0x00,0x99,0x26,0x7f,0x00,0x99,0x2a,0x7f,0x3c,0x89,
0x2a,0x00,0x14,0x89,0x24,0x00,0x1c,0x89,0x26,0x00,0x54,0x99,0x2a,0x7b,0x38,0x89,
0x2a,0x00,0x81,0x08,0x99,0x24,0x7f,0x00,0x99,0x2a,0x7f,0x3c,0x89,0x2a,0x00,0x10,
0x89,0x24,0x00,0x74,0x99,0x2a,0x7b,0x38,0x89,0x2a,0x00,0x81,0x08,0x99,0x24,0x7f,
0x00,0x99,0x26,0x7f,0x00,0x99,0x2a,0x7f,0x04,0x99,0x36,0x7f,0x40,0x89,0x2a,0x00,
0x0c,0x89,0x24,0x00,0x20,0x89,0x26,0x00,0x50,0x99,0x2a,0x77,0x38,0x89,0x2a,0x00,
0x81,0x08,0x99,0x24,0x7f,0x04,0x99,0x2a,0x7f,0x1c,0x89,0x36,0x00,0x1c,0x89,0x2a,
0x00,0x0c,0x89,0x24,0x00,0x78,0x99,0x2a,0x7c,0x38,0x89,0x2a,0x00,0x81,0x08,0x99,
0x24,0x7f,0x00,0x99,0x26,0x7f,0x00,0x99,0x2a,0x7f,0x38,0x89,0x2a,0x00,0x0c,0x89,
0x24,0x00,0x3c,0x89,0x26,0x00,0x40,0x99,0x2c,0x7f,0x54,0x89,0x2c,0x00,0x6c,0x99,
0x24,0x7f,0x00,0x99,0x2a,0x7f,0x44,0x89,0x2a,0x00,0x18,0x89,0x24,0x00,0x64,0x99,
0x2a,0x7b,0x2c,0x89,0x2a,0x00,0x81,0x14,0x99,0x24,0x7f,0x00,0x99,0x26,0x7f,0x04,
0x99,0x2a,0x7f,0x00,0x99,0x36,0x7f,0x34,0x89,0x2a,0x00,0x20,0x89,0x24,0x00,0x28,
0x89,0x26,0x00,0x40,0x99,0x2a,0x79,0x38,0x89,0x2a,0x00,0x1c,0x89,0x36,0x00,0x6c,
0x99,0x24,0x7f,0x00,0x99,0x2a,0x7f,0x48,0x89,0x2a,0x00,0x08,0x89,0x24,0x00,0x70,
0x99,0x2a,0x7a,0x34,0x89,0x2a,0x00,0x81,0x0c,0x99,0x24,0x7f,0x00,0x99,0x26,0x7f,
0x00,0x99,0x2a,0x7f,0x30,0x89,0x2a,0x00,0x20,0x89,0x24,0x00,0x28,0x89,0x26,0x00,
0x48,0x99,0x2a,0x7b,0x2c,0x89,0x2a,0x00,0x81,0x14,0x99,0x24,0x7f,0x00,0x99,0x2a,
0x7f,0x3c,0x89,0x2a,0x00,0x0c,0x89,0x24,0x00,0x78,0x99,0x2a,0x79,0x38,0x89,0x2a,
0x00,0x81,0x08,0x99,0x24,0x7f,0x00,0x99,0x26,0x7f,0x00,0x99,0x2a,0x7f,0x04,0x99,
0x36,0x7f,0x30,0x89,0x2a,0x00,0x1c,0x89,0x24,0x00,0x30,0x89,0x26,0x00,0x40,0x99,
0x2a,0x77,0x08,0x89,0x36,0x00,0x24,0x89,0x2a,0x00,0x81,0x14,0x99,0x24,0x7f,0x00,
0x99,0x2a,0x7f,0x40,0x89,0x2a,0x00,0x1c,0x89,0x24,0x00,0x64,0x99,0x2a,0x7b,0x40,
0x89,0x2a,0x00,0x81,0x00,0x99,0x24,0x7f,0x00,0x99,0x26,0x7f,0x00,0x99,0x2a,0x7f,
0x44,0x89,0x2a,0x00,0x10,0x89,0x24,0x00,0x18,0x89,0x26,0x00,0x54,0x99,0x2a,0x7a,
0x44,0x89,0x2a,0x00,0x7c,0x99,0x24,0x7f,0x04,0x99,0x2a,0x7f,0x38,0x89,0x2a,0x00,
0x18,0x89,0x24,0x00,0x6c,0x99,0x2a,0x7f,0x38,0x89,0x2a,0x00,0x81,0x08,0x99,0x24,
0x7f,0x00,0x99,0x26,0x7f,0x00,0x99,0x2a,0x7f,0x04,0x99,0x36,0x7f,0x40,0x89,0x2a,
0x00,0x04,0x89,0x24,0x00,0x28,0x89,0x26,0x00,0x48,0x89,0x36,0x00,0x08,0x99,0x2a,
0x7f,0x34,0x89,0x2a,0x00,0x81,0x0c,0x99,0x24,0x7f,0x00,0x99,0x2a,0x7f,0x48,0x89,
0x24,0x00,0x04,0x89,0x2a,0x00,0x74,0x99,0x2a,0x7a,0x38,0x89,0x2a,0x00,0x81,0x08,
0x99,0x24,0x7f,0x00,0x99,0x26,0x7f,0x04,0x99,0x2a,0x7f,0x44,0x89,0x24,0x00,0x08,
0x89,0x2a,0x00,0x14,0x89,0x26,0x00,0x5c,0x99,0x2a,0x7f,0x40,0x89,0x2a,0x00,0x81,
0x00,0x99,0x24,0x7f,0x04,0x99,0x2a,0x7f,0x48,0x89,0x2a,0x00,0x08,0x89,0x24,0x00,
0x6c,0x99,0x2a,0x7f,0x38,0x89,0x2a,0x00,0x81,0x08,0x99,0x24,0x7f,0x00,0x99,0x26,
0x7f,0x00,0x99,0x2a,0x7f,0x04,0x99,0x36,0x7f,0x34,0x89,0x2a,0x00,0x24,0x89,0x24,
0x00,0x24,0x89,0x26,0x00,0x38,0x89,0x36,0x00,0x08,0x99,0x2a,0x7e,0x44,0x89,0x2a,
0x00,0x7c,0x99,0x24,0x7f,0x00,0x99,0x2a,0x7f,0x38,0x89,0x2a,0x00,0x1c,0x89,0x24,
0x00,0x6c,0x99,0x2a,0x7f,0x40,0x89,0x2a,0x00,0x20,0x99,0x24,0x7f,0x48,0x89,0x24,
0x00,0x18,0x99,0x26,0x7f,0x00,0x99,0x2a,0x7f,0x38,0x89,0x2a,0x00,0x40,0x89,0x26,
0x00,0x48,0x99,0x2c,0x7f,0x44,0x89,0x2c,0x00,0x7c,0x99,0x24,0x7f,0x00,0x99,0x2a,
0x7f,0x34,0x89,0x2a,0x00,0x24,0x89,0x24,0x00,0x68,0x99,0x2a,0x7f,0x34,0x89,0x2a,
0x00,0x81,0x0c,0x99,0x24,0x7f,0x00,0x99,0x26,0x7f,0x00,0x99,0x2a,0x7f,0x3c,0x89,
0x2a,0x00,0x20,0x89,0x24,0x00,0x24,0x89,0x26,0x00,0x40,0x99,0x2a,0x77,0x38,0x89,
0x2a,0x00,0x81,0x08,0x99,0x24,0x7f,0x00,0x99,0x2a,0x7f,0x30,0x89,0x2a,0x00,0x2c,
0x89,0x24,0x00,0x64,0x99,0x2a,0x7d,0x38,0x89,0x2a,0x00,0x81,0x08,0x99,0x24,0x7f,
0x00,0x99,0x26,0x7f,0x00,0x99,0x2a,0x7f,0x38,0x89,0x2a,0x00,0x24,0x89,0x24,0x00,
0x10,0x89,0x26,0x00,0x54,0x99,0x2a,0x79,0x38,0x89,0x2a,0x00,0x81,0x08,0x99,0x24,
0x7f,0x00,0x99,0x2a,0x7f,0x3c,0x89,0x2a,0x00,0x14,0x89,0x24,0x00,0x70,0x99,0x2a,
0x7d,0x38,0x89,0x2a,0x00,0x81,0x08,0x99,0x24,0x7f,0x00,0x99,0x26,0x7f,0x04,0x99,
0x2a,0x7f,0x40,0x89,0x2a,0x00,0x0c,0x89,0x24,0x00,0x28,0x89,0x26,0x00,0x48,0x99,
0x2a,0x7f,0x38,0x89,0x2a,0x00,0x81,0x08,0x99,0x24,0x7f,0x00,0x99,0x2a,0x7f,0x48,
0x89,0x2a,0x00,0x00,0x89,0x24,0x00,0x78,0x99,0x2a,0x7c,0x38,0x89,0x2a,0x00,0x81,
0x08,0x99,0x24,0x7f,0x00,0x99,0x26,0x7f,0x00,0x99,0x2a,0x7f,0x44,0x89,0x2a,0x00,
0x0c,0x89,0x24,0x00,0x1c,0x89,0x26,0x00,0x54,0x99,0x2a,0x7c,0x44,0x89,0x2a,0x00,
0x7c,0x99,0x24,0x7f,0x00,0x99,0x2a,0x7f,0x38,0x89,0x2a,0x00,0x18,0x89,0x24,0x00,
0x70,0x99,0x2a,0x7d,0x2c,0x89,0x2a,0x00,0x81,0x14,0x99,0x24,0x7f,0x00,0x99,0x26,
0x7f,0x04,0x99,0x2a,0x7f,0x2c,0x89,0x2a,0x00,0x1c,0x89,0x24,0x00,0x18,0x89,0x26,
0x00,0x5c,0x99,0x2a,0x7b,0x2c,0x89,0x2a,0x00,0x81,0x14,0x99,0x24,0x7f,0x00,0x99,
0x2a,0x7f,0x30,0x89,0x2a,0x00,0x18,0x89,0x24,0x00,0x78,0x99,0x2a,0x79,0x38,0x89,
0x2a,0x00,0x81,0x08,0x99,0x24,0x7f,0x00,0x99,0x26,0x7f,0x00,0x99,0x2a,0x7f,0x38,
0x89,0x2a,0x00,0x18,0x89,0x24,0x00,0x1c,0x89,0x26,0x00,0x54,0x99,0x2a,0x7b,0x38,
0x89,0x2a,0x00,0x81,0x08,0x99,0x24,0x7f,0x04,0x99,0x2a,0x7f,0x34,0x89,0x2a,0x00,
0x08,0x89,0x24,0x00,0x81,0x00,0x99,0x2a,0x79,0x38,0x89,0x2a,0x00,0x81,0x08,0x99,
0x24,0x7f,0x00,0x99,0x26,0x7f,0x00,0x99,0x2a,0x7f,0x44,0x89,0x2a,0x00,0x04,0x89,
0x24,0x00,0x1c,0x89,0x26,0x00,0x5c,0x99,0x2a,0x7a,0x40,0x89,0x2a,0x00,0x81,0x00,
0x99,0x24,0x7f,0x00,0x99,0x2a,0x7f,0x3c,0x89,0x2a,0x00,0x18,0x89,0x24,0x00,0x6c,
0x99,0x2a,0x79,0x2c,0x89,0x2a,0x00,0x81,0x14,0x99,0x24,0x7f,0x00,0x99,0x26,0x7f,
0x00,0x99,0x2a,0x7f,0x3c,0x89,0x2a,0x00,0x20,0x89,0x24,0x00,0x0c,0x89,0x26,0x00,
0x58,0x99,0x2a,0x7b,0x2c,0x89,0x2a,0x00,0x81,0x14,0x99,0x24,0x7f,0x04,0x99,0x2a,
0x7f,0x3c,0x89,0x2a,0x00,0x08,0x89,0x24,0x00,0x78,0x99,0x2a,0x7a,0x34,0x89,0x2a,
0x00,0x81,0x0c,0x99,0x24,0x7f,0x00,0x99,0x26,0x7f,0x00,0x99,0x2a,0x7f,0x30,0x89,
0x2a,0x00,0x24,0x89,0x26,0x00,0x00,0x89,0x24,0x00,0x6c,0x99,0x2a,0x7c,0x38,0x89,
0x2a,0x00,0x81,0x08,0x99,0x24,0x7f,0x00,0x99,0x2a,0x7f,0x34,0x89,0x2a,0x00,0x14,
0x89,0x24,0x00,0x78,0x99,0x2a,0x7f,0x38,0x89,0x2a,0x00,0x81,0x08,0x99,0x24,0x7f,
0x00,0x99,0x26,0x7f,0x04,0x99,0x2a,0x7f,0x40,0x89,0x2a,0x00,0x10,0x89,0x24,0x00,
0x10,0x89,0x26,0x00,0x5c,0x99,0x2a,0x7b,0x2c,0x89,0x2a,0x00,0x81,0x14,0x99,0x24,
0x7f,0x00,0x99,0x2a,0x7f,0x34,0x89,0x2a,0x00,0x14,0x89,0x24,0x00,0x78,0x99,0x2a,
0x77,0x2c,0x89,0x2a,0x00,0x81,0x14,0x99,0x24,0x7f,0x00,0x99,0x26,0x7f,0x00,0x99,
0x2a,0x7f,0x38,0x89,0x2a,0x00,0x18,0x89,0x24,0x00,0x1c,0x89,0x26,0x00,0x54,0x99,
0x2a,0x7a,0x38,0x89,0x2a,0x00,0x81,0x08,0x99,0x24,0x7f,0x04,0x99,0x2a,0x7f,0x2c,
0x89,0x2a,0x00,0x20,0x89,0x24,0x00,0x70,0x99,0x2a,0x7d,0x30,0x89,0x2a,0x00,0x81,
0x10,0x99,0x24,0x7f,0x00,0x99,0x26,0x7f,0x00,0x99,0x2a,0x7f,0x44,0x89,0x2a,0x00,
0x04,0x89,0x24,0x00,0x24,0x89,0x26,0x00,0x54,0x99,0x2a,0x7f,0x2c,0x89,0x2a,0x00,
0x81,0x14,0x99,0x24,0x7f,0x00,0x99,0x2a,0x7f,0x40,0x89,0x2a,0x00,0x24,0x89,0x24,
0x00,0x5c,0x99,0x2a,0x7e,0x2c,0x89,0x2a,0x00,0x81,0x14,0x99,0x24,0x7f,0x00,0x99,
0x26,0x7f,0x00,0x99,0x2a,0x7f,0x30,0x89,0x2a,0x00,0x34,0x89,0x24,0x00,0x08,0x89,
0x26,0x00,0x54,0x99,0x2a,0x7d,0x2c,0x89,0x2a,0x00,0x81,0x14,0x99,0x24,0x7f,0x00,
0x99,0x2a,0x7f,0x40,0x89,0x2a,0x00,0x30,0x89,0x24,0x00,0x50,0x99,0x2a,0x75,0x2c,
0x89,0x2a,0x00,0x81,0x14,0x99,0x24,0x7f,0x00,0x99,0x26,0x7f,0x00,0x99,0x2a,0x7f,
0x44,0x89,0x2a,0x00,0x20,0x89,0x24,0x00,0x08,0x89,0x26,0x00,0x54,0x99,0x2a,0x7e,
0x38,0x89,0x2a,0x00,0x81,0x08,0x99,0x24,0x7f,0x00,0x99,0x2a,0x7f,0x48,0x89,0x2a,
0x00,0x1c,0x89,0x24,0x00,0x5c,0x99,0x2a,0x7b,0x34,0x89,0x2a,0x00,0x81,0x0c,0x99,
0x24,0x7f,0x00,0x99,0x26,0x7f,0x04,0x99,0x2a,0x7f,0x34,0x89,0x2a,0x00,0x20,0x89,
0x24,0x00,0x14,0x89,0x26,0x00,0x54,0x99,0x2a,0x7c,0x2c,0x89,0x2a,0x00,0x81,0x14,
0x99,0x24,0x7f,0x00,0x99,0x2a,0x7f,0x3c,0x89,0x2a,0x00,0x30,0x89,0x24,0x00,0x54,
0x99,0x2a,0x7b,0x38,0x89,0x2a,0x00,0x81,0x08,0x99,0x24,0x7f,0x00,0x99,0x26,0x7f,
0x00,0x99,0x2a,0x7f,0x38,0x89,0x2a,0x00,0x20,0x89,0x24,0x00,0x28,0x89,0x26,0x00,
0x40,0x99,0x2a,0x7c,0x38,0x89,0x2a,0x00,0x81,0x08,0x99,0x24,0x7f,0x00,0x99,0x2a,
0x7f,0x38,0x89,0x2a,0x00,0x24,0x89,0x24,0x00,0x64,0x99,0x2a,0x7b,0x2c,0x89,0x2a,
0x00,0x81,0x14,0x99,0x24,0x7f,0x00,0x99,0x26,0x7f,0x04,0x99,0x2a,0x7f,0x40,0x89,
0x2a,0x00,0x14,0x89,0x24,0x00,0x1c,0x89,0x26,0x00,0x4c,0x99,0x2a,0x77,0x38,0x89,
0x2a,0x00,0x81,0x08,0x99,0x24,0x7f,0x00,0x99,0x2a,0x7f,0x3c,0x89,0x2a,0x00,0x14,
0x89,0x24,0x00,0x70,0x99,0x2a,0x72,0x2c,0x89,0x2a,0x00,0x81,0x14,0x99,0x24,0x7f,
0x00,0x99,0x26,0x7f,0x00,0x99,0x2a,0x7f,0x44,0x89,0x2a,0x00,0x18,0x89,0x24,0x00,
0x10,0x89,0x26,0x00,0x54,0x99,0x2a,0x72,0x34,0x89,0x2a,0x00,0x81,0x0c,0x99,0x24,
0x7f,0x04,0x99,0x2a,0x7f,0x38,0x89,0x2a,0x00,0x18,0x89,0x24,0x00,0x6c,0x99,0x2a,
0x79,0x38,0x89,0x2a,0x00,0x81,0x08,0x99,0x24,0x7f,0x00,0x99,0x26,0x7f,0x00,0x99,
0x2a,0x7f,0x44,0x89,0x2a,0x00,0x0c,0x89,0x26,0x00,0x00,0x89,0x24,0x00,0x70,0x99,
0x2a,0x74,0x38,0x89,0x2a,0x00,0x81,0x08,0x99,0x24,0x7f,0x00,0x99,0x26,0x7f,0x04,
0x99,0x2a,0x7f,0x38,0x89,0x2a,0x00,0x0c,0x89,0x26,0x00,0x08,0x89,0x24,0x00,0x70,
0x99,0x26,0x7f,0x00,0x99,0x2a,0x7f,0x34,0x89,0x2a,0x00,0x28,0x89,0x26,0x00,0x64,
0x99,0x24,0x7f,0x00,0x99,0x2c,0x7f,0x04,0x99,0x30,0x7f,0x30,0x89,0x2c,0x00,0x20,
0x89,0x24,0x00,0x0c,0x99,0x2d,0x7f,0x08,0x89,0x30,0x00,0x58,0x89,0x2d,0x00,0x04,
0x99,0x29,0x7f,0x70,0x89,0x29,0x00,0x4c,0x99,0x24,0x7f,0x04,0x99,0x2a,0x7f,0x3c,
0x89,0x2a,0x00,0x14,0x89,0x24,0x00,0x6c,0x99,0x2a,0x7e,0x38,0x89,0x2a,0x00,0x81,
0x08,0x99,0x24,0x7f,0x00,0x99,0x26,0x7f,0x00,0x99,0x2a,0x7f,0x44,0x89,0x2a,0x00,
0x0c,0x89,0x24,0x00,0x30,0x89,0x26,0x00,0x40,0x99,0x2a,0x7d,0x28,0x89,0x2a,0x00,
0x81,0x18,0x99,0x24,0x7f,0x00,0x99,0x2a,0x7f,0x30,0x89,0x2a,0x00,0x14,0x89,0x24,
0x00,0x7c,0x99,0x2a,0x7f,0x38,0x89,0x2a,0x00,0x81,0x08,0x99,0x24,0x7f,0x00,0x99,
0x26,0x7f,0x00,0x99,0x2a,0x7f,0x40,0x89,0x2a,0x00,0x08,0x89,0x24,0x00,0x34,0x89,
0x26,0x00,0x44,0x99,0x2a,0x7f,0x38,0x89,0x2a,0x00,0x81,0x08,0x99,0x24,0x7f,0x00,
0x99,0x2a,0x7f,0x38,0x89,0x2a,0x00,0x18,0x89,0x24,0x00,0x70,0x99,0x2a,0x7f,0x2c,
0x89,0x2a,0x00,0x81,0x14,0x99,0x24,0x7f,0x00,0x99,0x26,0x7f,0x00,0x99,0x2a,0x7f,
0x3c,0x89,0x2a,0x00,0x0c,0x89,0x24,0x00,0x34,0x89,0x26,0x00,0x44,0x99,0x2a,0x7b,
0x38,0x89,0x2a,0x00,0x81,0x08,0x99,0x24,0x7f,0x04,0x99,0x2a,0x7f,0x3c,0x89,0x2a,
0x00,0x14,0x89,0x24,0x00,0x6c,0x99,0x2a,0x7f,0x2c,0x89,0x2a,0x00,0x81,0x14,0x99,
0x24,0x7f,0x00,0x99,0x26,0x7f,0x00,0x99,0x2a,0x7f,0x30,0x89,0x2a,0x00,0x20,0x89,
0x24,0x00,0x14,0x89,0x26,0x00,0x5c,0x99,0x2a,0x7d,0x30,0x89,0x2a,0x00,0x81,0x10,
0x99,0x24,0x7f,0x04,0x99,0x2a,0x7f,0x34,0x89,0x2a,0x00,0x1c,0x89,0x24,0x00,0x6c,
0x99,0x2a,0x7d,0x2c,0x89,0x2a,0x00,0x81,0x14,0x99,0x24,0x7f,0x00,0x99,0x26,0x7f,
0x00,0x99,0x2a,0x7f,0x44,0x89,0x2a,0x00,0x0c,0x89,0x24,0x00,0x14,0x89,0x26,0x00,
0x5c,0x99,0x2a,0x7f,0x2c,0x89,0x2a,0x00,0x81,0x14,0x99,0x24,0x7f,0x00,0x99,0x2a,
0x7f,0x3c,0x89,0x2a,0x00,0x14,0x89,0x24,0x00,0x70,0x99,0x2a,0x7d,0x2c,0x89,0x2a,
0x00,0x81,0x14,0x99,0x24,0x7f,0x00,0x99,0x26,0x7f,0x00,0x99,0x2a,0x7f,0x38,0x89,
0x2a,0x00,0x1c,0x89,0x24,0x00,0x10,0x89,0x26,0x00,0x5c,0x99,0x2a,0x7f,0x38,0x89,
0x2a,0x00,0x81,0x08,0x99,0x24,0x7f,0x00,0x99,0x2a,0x7f,0x38,0x89,0x2a,0x00,0x18,
0x89,0x24,0x00,0x70,0x99,0x2a,0x7a,0x2c,0x89,0x2a,0x00,0x81,0x14,0x99,0x24,0x7f,
0x00,0x99,0x26,0x7f,0x04,0x99,0x2a,0x7f,0x2c,0x89,0x2a,0x00,0x18,0x89,0x24,0x00,
0x18,0x89,0x26,0x00,0x60,0x99,0x2a,0x7b,0x2c,0x89,0x2a,0x00,0x81,0x14,0x99,0x24,
0x7f,0x00,0x99,0x2a,0x7f,0x30,0x89,0x2a,0x00,0x1c,0x89,0x24,0x00,0x74,0x99,0x2a,
0x7f,0x2c,0x89,0x2a,0x00,0x81,0x14,0x99,0x24,0x7f,0x00,0x99,0x26,0x7f,0x00,0x99,
0x2a,0x7f,0x30,0x89,0x2a,0x00,0x1c,0x89,0x24,0x00,0x1c,0x89,0x26,0x00,0x58,0x99,
0x2a,0x7f,0x2c,0x89,0x2a,0x00,0x81,0x14,0x99,0x24,0x7f,0x04,0x99,0x2a,0x7f,0x38,
0x89,0x2a,0x00,0x18,0x89,0x24,0x00,0x6c,0x99,0x2a,0x7f,0x38,0x89,0x2a,0x00,0x81,
0x08,0x99,0x24,0x7f,0x00,0x99,0x26,0x7f,0x00,0x99,0x2a,0x7f,0x38,0x89,0x2a,0x00,
0x10,0x89,0x24,0x00,0x24,0x89,0x26,0x00,0x54,0x99,0x2a,0x7f,0x2c,0x89,0x2a,0x00,
0x81,0x14,0x99,0x24,0x7f,0x00,0x99,0x2a,0x7f,0x40,0x89,0x2a,0x00,0x08,0x89,0x24,
0x00,0x78,0x99,0x2a,0x7f,0x2c,0x89,0x2a,0x00,0x81,0x14,0x99,0x24,0x7f,0x00,0x99,
0x26,0x7f,0x00,0x99,0x2a,0x7f,0x44,0x89,0x2a,0x00,0x04,0x89,0x24,0x00,0x24,0x89,
0x26,0x00,0x54,0x99,0x2a,0x7f,0x38,0x89,0x2a,0x00,0x81,0x08,0x99,0x24,0x7f,0x04,
0x99,0x2a,0x7f,0x3c,0x89,0x2a,0x00,0x14,0x89,0x24,0x00,0x6c,0x99,0x2a,0x7f,0x38,
0x89,0x2a,0x00,0x81,0x08,0x99,0x24,0x7f,0x00,0x99,0x26,0x7f,0x00,0x99,0x2a,0x7f,
0x38,0x89,0x2a,0x00,0x08,0x89,0x24,0x00,0x2c,0x89,0x26,0x00,0x54,0x99,0x2a,0x7d,
0x2c,0x89,0x2a,0x00,0x81,0x14,0x99,0x24,0x7f,0x00,0x99,0x2a,0x7f,0x30,0x89,0x2a,
0x00,0x10,0x89,0x24,0x00,0x81,0x00,0x99,0x2a,0x7d,0x38,0x89,0x2a,0x00,0x81,0x08,
0x99,0x24,0x7f,0x00,0x99,0x26,0x7f,0x04,0x99,0x2a,0x7f,0x38,0x89,0x2a,0x00,0x08,
0x89,0x24,0x00,0x2c,0x89,0x26,0x00,0x50,0x99,0x2a,0x7f,0x38,0x89,0x2a,0x00,0x81,
0x08,0x99,0x24,0x7f,0x04,0x99,0x2a,0x7f,0x40,0x89,0x2a,0x00,0x10,0x89,0x24,0x00,
0x6c,0x99,0x2a,0x7f,0x34,0x89,0x2a,0x00,0x81,0x0c,0x99,0x24,0x7f,0x00,0x99,0x26,
0x7f,0x00,0x99,0x2a,0x7f,0x44,0x89,0x2a,0x00,0x0c,0x89,0x24,0x00,0x1c,0x89,0x26,
0x00,0x54,0x99,0x2a,0x7d,0x2c,0x89,0x2a,0x00,0x81,0x14,0x99,0x24,0x7f,0x04,0x99,
0x2a,0x7f,0x44,0x89,0x2a,0x00,0x00,0x89,0x24,0x00,0x78,0x99,0x2a,0x7e,0x34,0x89,
0x2a,0x00,0x81,0x0c,0x99,0x24,0x7f,0x00,0x99,0x26,0x7f,0x00,0x99,0x2a,0x7f,0x40,
0x89,0x24,0x00,0x04,0x89,0x2a,0x00,0x20,0x89,0x26,0x00,0x5c,0x99,0x2a,0x7f,0x30,
0x89,0x2a,0x00,0x81,0x10,0x99,0x24,0x7f,0x00,0x99,0x2a,0x7f,0x38,0x89,0x2a,0x00,
0x48,0x89,0x24,0x00,0x40,0x99,0x2a,0x7d,0x30,0x89,0x2a,0x00,0x81,0x10,0x99,0x24,
0x7f,0x00,0x99,0x26,0x7f,0x00,0x99,0x2a,0x7f,0x38,0x89,0x2a,0x00,0x28,0x89,0x24,
0x00,0x28,0x89,0x26,0x00,0x38,0x99,0x2a,0x7f,0x2c,0x89,0x2a,0x00,0x81,0x14,0x99,
0x24,0x7f,0x00,0x99,0x2a,0x7f,0x34,0x89,0x2a,0x00,0x28,0x89,0x24,0x00,0x64,0x99,
0x2a,0x7f,0x20,0x89,0x2a,0x00,0x81,0x20,0x99,0x24,0x7f,0x00,0x99,0x26,0x7f,0x00,
0x99,0x2a,0x7f,0x3c,0x89,0x2a,0x00,0x14,0x89,0x24,0x00,0x1c,0x89,0x26,0x00,0x54,
0x99,0x2c,0x7f,0x34,0x89,0x2c,0x00,0x81,0x0c,0x99,0x24,0x7f,0x00,0x99,0x2a,0x7f,
0x04,0x99,0x31,0x7f,0x38,0x89,0x2a,0x00,0x14,0x89,0x24,0x00,0x70,0x99,0x2a,0x7f,
0x2c,0x89,0x2a,0x00,0x81,0x14,0x99,0x24,0x7f,0x00,0x99,0x26,0x7f,0x04,0x99,0x2a,
0x7f,0x38,0x89,0x2a,0x00,0x18,0x89,0x26,0x00,0x08,0x89,0x24,0x00,0x64,0x99,0x2a,
0x7f,0x30,0x89,0x31,0x00,0x04,0x89,0x2a,0x00,0x81,0x0c,0x99,0x24,0x7f,0x00,0x99,
0x2a,0x7f,0x3c,0x89,0x2a,0x00,0x0c,0x89,0x24,0x00,0x78,0x99,0x2a,0x7f,0x2c,0x89,
0x2a,0x00,0x81,0x14,0x99,0x24,0x7f,0x00,0x99,0x26,0x7f,0x00,0x99,0x2a,0x7f,0x30,
0x89,0x2a,0x00,0x10,0x89,0x24,0x00,0x24,0x89,0x26,0x00,0x5c,0x99,0x2a,0x7f,0x38,
0x89,0x2a,0x00,0x81,0x08,0x99,0x24,0x7f,0x00,0x99,0x2a,0x7f,0x40,0x89,0x2a,0x00,
0x08,0x89,0x24,0x00,0x78,0x99,0x2a,0x7f,0x2c,0x89,0x2a,0x00,0x81,0x14,0x99,0x24,
0x7f,0x00,0x99,0x26,0x7f,0x04,0x99,0x2a,0x7f,0x34,0x89,0x2a,0x00,0x10,0x89,0x24,
0x00,0x1c,0x89,0x26,0x00,0x5c,0x99,0x2a,0x7f,0x38,0x89,0x2a,0x00,0x81,0x08,0x99,
0x24,0x7f,0x00,0x99,0x2a,0x7f,0x3c,0x89,0x2a,0x00,0x08,0x89,0x24,0x00,0x7c,0x99,
0x2a,0x7f,0x2c,0x89,0x2a,0x00,0x81,0x14,0x99,0x24,0x7f,0x00,0x99,0x26,0x7f,0x00,
0x99,0x2a,0x7f,0x38,0x89,0x2a,0x00,0x08,0x89,0x24,0x00,0x38,0x89,0x26,0x00,0x48,
0x99,0x2a,0x7f,0x2c,0x89,0x2a,0x00,0x81,0x14,0x99,0x24,0x7f,0x04,0x99,0x2a,0x7f,
0x38,0x89,0x2a,0x00,0x14,0x89,0x24,0x00,0x70,0x99,0x2a,0x7f,0x38,0x89,0x2a,0x00,
0x81,0x08,0x99,0x24,0x7f,0x00,0x99,0x26,0x7f,0x00,0x99,0x2a,0x7f,0x38,0x89,0x2a,
0x00,0x10,0x89,0x24,0x00,0x24,0x89,0x26,0x00,0x54,0x99,0x2a,0x7f,0x38,0x89,0x2a,
0x00,0x81,0x08,0x99,0x24,0x7f,0x00,0x99,0x2a,0x7f,0x40,0x89,0x2a,0x00,0x10,0x89,
0x24,0x00,0x70,0x99,0x2a,0x7f,0x2c,0x89,0x2a,0x00,0x81,0x14,0x99,0x24,0x7f,0x00,
0x99,0x26,0x7f,0x04,0x99,0x2a,0x7f,0x28,0x89,0x2a,0x00,0x30,0x89,0x24,0x00,0x10,
0x89,0x26,0x00,0x54,0x99,0x2a,0x7f,0x2c,0x89,0x2a,0x00,0x81,0x14,0x99,0x24,0x7f,
0x04,0x99,0x2a,0x7f,0x34,0x89,0x2a,0x00,0x18,0x89,0x24,0x00,0x70,0x99,0x2a,0x7f,
0x30,0x89,0x2a,0x00,0x81,0x10,0x99,0x24,0x7f,0x00,0x99,0x26,0x7f,0x00,0x99,0x2a,
0x7f,0x40,0x89,0x2a,0x00,0x14,0x89,0x24,0x00,0x24,0x89,0x26,0x00,0x48,0x99,0x2a,
0x7e,0x34,0x89,0x2a,0x00,0x81,0x0c,0x99,0x24,0x7f,0x00,0x99,0x2a,0x7f,0x34,0x89,
0x2a,0x00,0x20,0x89,0x24,0x00,0x6c,0x99,0x2a,0x7f,0x38,0x89,0x2a,0x00,0x81,0x08,
0x99,0x24,0x7f,0x00,0x99,0x26,0x7f,0x04,0x99,0x2a,0x7f,0x38,0x89,0x2a,0x00,0x14,
0x89,0x24,0x00,0x20,0x89,0x26,0x00,0x50,0x99,0x2c,0x7f,0x40,0x89,0x2c,0x00,0x81,
0x00,0x99,0x24,0x7f,0x00,0x99,0x2a,0x7f,0x3c,0x89,0x2a,0x00,0x0c,0x89,0x24,0x00,
0x78,0x99,0x2a,0x7f,0x38,0x89,0x2a,0x00,0x81,0x08,0x99,0x24,0x7f,0x00,0x99,0x26,
0x7f,0x00,0x99,0x2a,0x7f,0x30,0x89,0x2a,0x00,0x20,0x89,0x24,0x00,0x1c,0x89,0x26,
0x00,0x54,0x99,0x2a,0x7f,0x38,0x89,0x2a,0x00,0x81,0x08,0x99,0x24,0x7f,0x04,0x99,
0x2a,0x7f,0x2c,0x89,0x2a,0x00,0x20,0x89,0x24,0x00,0x70,0x99,0x2a,0x7f,0x38,0x89,
0x2a,0x00,0x81,0x08,0x99,0x24,0x7f,0x00,0x99,0x26,0x7f,0x00,0x99,0x2a,0x7f,0x30,
0x89,0x2a,0x00,0x24,0x89,0x24,0x00,0x10,0x89,0x26,0x00,0x5c,0x99,0x2a,0x7f,0x38,
0x89,0x2a,0x00,0x81,0x08,0x99,0x24,0x7f,0x00,0x99,0x2a,0x7f,0x40,0x89,0x2a,0x00,
0x1c,0x89,0x24,0x00,0x64,0x99,0x2a,0x7f,0x34,0x89,0x2a,0x00,0x81,0x0c,0x99,0x24,
0x7f,0x00,0x99,0x26,0x7f,0x00,0x99,0x2a,0x7f,0x38,0x89,0x2a,0x00,0x24,0x89,0x24,
0x00,0x08,0x89,0x26,0x00,0x5c,0x99,0x2a,0x7f,0x38,0x89,0x2a,0x00,0x81,0x08,0x99,
0x24,0x7f,0x00,0x99,0x2a,0x7f,0x40,0x89,0x2a,0x00,0x1c,0x89,0x24,0x00,0x64,0x99,
0x2a,0x7f,0x38,0x89,0x2a,0x00,0x81,0x08,0x99,0x24,0x7f,0x00,0x99,0x26,0x7f,0x00,
0x99,0x2a,0x7f,0x28,0x89,0x2a,0x00,0x2c,0x89,0x24,0x00,0x10,0x89,0x26,0x00,0x5c,
0x99,0x2a,0x7f,0x2c,0x89,0x2a,0x00,0x81,0x14,0x99,0x24,0x7f,0x00,0x99,0x2a,0x7f,
0x38,0x89,0x2a,0x00,0x1c,0x89,0x24,0x00,0x6c,0x99,0x2a,0x7f,0x38,0x89,0x2a,0x00,
0x81,0x08,0x99,0x24,0x7f,0x00,0x99,0x26,0x7f,0x04,0x99,0x2a,0x7f,0x28,0x89,0x2a,
0x00,0x20,0x89,0x26,0x00,0x04,0x89,0x24,0x00,0x70,0x99,0x2a,0x7f,0x2c,0x89,0x2a,
0x00,0x81,0x14,0x99,0x24,0x7f,0x00,0x99,0x2a,0x7f,0x34,0x89,0x2a,0x00,0x28,0x89,
0x24,0x00,0x64,0x99,0x2a,0x7f,0x38,0x89,0x2a,0x00,0x81,0x08,0x99,0x24,0x7f,0x00,
0x99,0x26,0x7f,0x00,0x99,0x2a,0x7f,0x38,0x89,0x2a,0x00,0x10,0x89,0x26,0x00,0x00,
0x89,0x24,0x00,0x78,0x99,0x2c,0x7f,0x38,0x89,0x2c,0x00,0x81,0x08,0x99,0x24,0x7f,
0x04,0x99,0x26,0x7f,0x00,0x99,0x2a,0x7f,0x38,0x89,0x26,0x00,0x0c,0x89,0x2a,0x00,
0x00,0x89,0x24,0x00,0x18,0x99,0x26,0x7f,0x40,0x89,0x26,0x00,0x81,0x00,0x99,0x26,
0x7f,0x40,0x89,0x26,0x00,0x20,0x99,0x24,0x7f,0x00,0x99,0x30,0x7f,0x40,0x89,0x30,
0x00,0x10,0x89,0x24,0x00,0x10,0x99,0x2d,0x7f,0x30,0x89,0x2d,0x00,0x30,0x99,0x2d,
0x7f,0x38,0x89,0x2d,0x00,0x28,0x99,0x29,0x7f,0x38,0x89,0x29,0x00,0x28,0x99,0x24,
0x7f,0x00,0x99,0x26,0x7f,0x58,0x89,0x26,0x00,0x10,0x89,0x24,0x00,0x85,0x18,0x99,
0x24,0x7f,0x5c,0x89,0x24,0x00,0x82,0x24,0x99,0x24,0x7f,0x00,0x99,0x26,0x7f,0x64,
0x89,0x24,0x00,0x1c,0x89,0x26,0x00,0x82,0x00,0x99,0x24,0x7f,0x5c,0x89,0x24,0x00,
0x82,0x24,0x99,0x24,0x7f,0x00,0x99,0x26,0x7f,0x5c,0x89,0x24,0x00,0x2c,0x89,0x26,
0x00,0x81,0x78,0x99,0x24,0x7f,0x54,0x89,0x24,0x00,0x82,0x2c,0x99,0x24,0x7f,0x00,
0x99,0x26,0x7f,0x48,0x89,0x24,0x00,0x1c,0x89,0x26,0x00,0x82,0x1c,0x99,0x24,0x7f,
0x54,0x89,0x24,0x00,0x82,0x2c,0x99,0x24,0x7f,0x00,0x99,0x26,0x7f,0x50,0x89,0x24,
0x00,0x28,0x89,0x26,0x00,0x48,0x99,0x2c,0x7f,0x5c,0x89,0x2c,0x00,0x64,0x99,0x24,
0x7f,0x00,0x99,0x2a,0x7f,0x40,0x89,0x2a,0x00,0x1c,0x89,0x24,0x00,0x64,0x99,0x2a,
0x7f,0x38,0x89,0x2a,0x00,0x81,0x08,0x99,0x24,0x7f,0x00,0x99,0x26,0x7f,0x00,0x99,
0x2a,0x7f,0x44,0x89,0x2a,0x00,0x18,0x89,0x24,0x00,0x1c,0x89,0x26,0x00,0x48,0x99,
0x2a,0x7f,0x38,0x89,0x2a,0x00,0x81,0x08,0x99,0x24,0x7f,0x04,0x99,0x2a,0x7f,0x38,
0x89,0x2a,0x00,0x14,0x89,0x24,0x00,0x70,0x99,0x2a,0x7e,0x30,0x89,0x2a,0x00,0x81,
0x10,0x99,0x24,0x7f,0x00,0x99,0x26,0x7f,0x00,0x99,0x2a,0x7f,0x38,0x89,0x2a,0x00,
0x10,0x89,0x24,0x00,0x20,0x89,0x26,0x00,0x58,0x99,0x2a,0x7c,0x2c,0x89,0x2a,0x00,
0x81,0x14,0x99,0x24,0x7f,0x00,0x99,0x2a,0x7f,0x40,0x89,0x2a,0x00,0x10,0x89,0x24,
0x00,0x70,0x99,0x2a,0x7f,0x2c,0x89,0x2a,0x00,0x81,0x14,0x99,0x24,0x7f,0x00,0x99,
0x26,0x7f,0x04,0x99,0x2a,0x7f,0x34,0x89,0x2a,0x00,0x10,0x89,0x24,0x00,0x18,0x89,
0x26,0x00,0x60,0x99,0x2a,0x7c,0x2c,0x89,0x2a,0x00,0x81,0x14,0x99,0x24,0x7f,0x00,
0x99,0x2a,0x7f,0x3c,0x89,0x2a,0x00,0x0c,0x89,0x24,0x00,0x78,0x99,0x2a,0x7f,0x38,
0x89,0x2a,0x00,0x81,0x08,0x99,0x24,0x7f,0x00,0x99,0x26,0x7f,0x00,0x99,0x2a,0x7f,
0x44,0x89,0x2a,0x00,0x04,0x89,0x24,0x00,0x1c,0x89,0x26,0x00,0x5c,0x99,0x2a,0x7f,
0x38,0x89,0x2a,0x00,0x81,0x08,0x99,0x24,0x7f,0x00,0x99,0x2a,0x7f,0x3c,0x89,0x2a,
0x00,0x0c,0x89,0x24,0x00,0x78,0x99,0x2a,0x7f,0x30,0x89,0x2a,0x00,0x81,0x10,0x99,
0x24,0x7f,0x00,0x99,0x26,0x7f,0x04,0x99,0x2a,0x7f,0x40,0x89,0x2a,0x00,0x04,0x89,
0x24,0x00,0x10,0x89,0x26,0x00,0x68,0x99,0x2a,0x78,0x30,0x89,0x2a,0x00,0x81,0x10,
0x99,0x24,0x7f,0x00,0x99,0x2a,0x7f,0x3c,0x89,0x2a,0x00,0x14,0x89,0x24,0x00,0x70,
0x99,0x2a,0x7e,0x2c,0x89,0x2a,0x00,0x81,0x14,0x99,0x24,0x7f,0x00,0x99,0x26,0x7f,
0x00,0x99,0x2a,0x7f,0x44,0x89,0x2a,0x00,0x0c,0x89,0x24,0x00,0x08,0x89,0x26,0x00,
0x68,0x99,0x2a,0x7d,0x2c,0x89,0x2a,0x00,0x81,0x14,0x99,0x24,0x7f,0x04,0x99,0x2a,
0x7f,0x3c,0x89,0x24,0x00,0x08,0x89,0x2a,0x00,0x78,0x99,0x2a,0x7d,0x38,0x89,0x2a,
0x00,0x81,0x08,0x99,0x24,0x7f,0x00,0x99,0x26,0x7f,0x00,0x99,0x2a,0x7f,0x3c,0x89,
0x2a,0x00,0x0c,0x89,0x24,0x00,0x18,0x89,0x26,0x00,0x60,0x99,0x2a,0x7d,0x40,0x89,
0x2a,0x00,0x81,0x00,0x99,0x24,0x7f,0x00,0x99,0x2a,0x7f,0x3c,0x89,0x2a,0x00,0x18,
0x89,0x24,0x00,0x6c,0x99,0x2a,0x7f,0x38,0x89,0x2a,0x00,0x81,0x08,0x99,0x24,0x7f,
0x00,0x99,0x26,0x7f,0x00,0x99,0x2a,0x7f,0x30,0x89,0x2a,0x00,0x18,0x89,0x24,0x00,
0x1c,0x89,0x26,0x00,0x5c,0x99,0x2c,0x7f,0x40,0x89,0x2c,0x00,0x81,0x00,0x99,0x24,
0x7f,0x04,0x99,0x2a,0x7f,0x38,0x89,0x2a,0x00,0x0c,0x89,0x24,0x00,0x78,0x99,0x2a,
0x7f,0x38,0x89,0x2a,0x00,0x81,0x08,0x99,0x24,0x7f,0x00,0x99,0x26,0x7f,0x00,0x99,
0x2a,0x7f,0x40,0x89,0x24,0x00,0x04,0x89,0x2a,0x00,0x1c,0x89,0x26,0x00,0x60,0x99,
0x2a,0x7f,0x38,0x89,0x2a,0x00,0x81,0x08,0x99,0x24,0x7f,0x00,0x99,0x2a,0x7f,0x3c,
0x89,0x2a,0x00,0x18,0x89,0x24,0x00,0x6c,0x99,0x2a,0x7f,0x34,0x89,0x2a,0x00,0x81,
0x0c,0x99,0x24,0x7f,0x00,0x99,0x26,0x7f,0x04,0x99,0x2a,0x7f,0x40,0x89,0x2a,0x00,
0x10,0x89,0x24,0x00,0x0c,0x89,0x26,0x00,0x60,0x99,0x2a,0x7f,0x38,0x89,0x2a,0x00,
0x81,0x08,0x99,0x24,0x7f,0x04,0x99,0x2a,0x7f,0x3c,0x89,0x2a,0x00,0x0c,0x89,0x24,
0x00,0x74,0x99,0x2a,0x7f,0x2c,0x89,0x2a,0x00,0x81,0x14,0x99,0x24,0x7f,0x00,0x99,
0x26,0x7f,0x00,0x99,0x2a,0x7f,0x38,0x89,0x2a,0x00,0x1c,0x89,0x24,0x00,0x04,0x89,
0x26,0x00,0x68,0x99,0x2a,0x7f,0x38,0x89,0x2a,0x00,0x81,0x08,0x99,0x24,0x7f,0x00,
0x99,0x2a,0x7f,0x3c,0x89,0x2a,0x00,0x0c,0x89,0x24,0x00,0x78,0x99,0x2a,0x7f,0x38,
0x89,0x2a,0x00,0x81,0x08,0x99,0x24,0x7f,0x00,0x99,0x26,0x7f,0x00,0x99,0x2a,0x7f,
0x38,0x89,0x2a,0x00,0x18,0x89,0x24,0x00,0x10,0x89,0x26,0x00,0x60,0x99,0x2a,0x7f,
0x38,0x89,0x2a,0x00,0x81,0x08,0x99,0x24,0x7f,0x00,0x99,0x2a,0x7f,0x48,0x89,0x2a,
0x00,0x08,0x89,0x24,0x00,0x70,0x99,0x2a,0x7f,0x38,0x89,0x2a,0x00,0x81,0x08,0x99,
0x24,0x7f,0x00,0x99,0x26,0x7f,0x00,0x99,0x2a,0x7f,0x48,0x89,0x24,0x00,0x08,0x89,
0x2a,0x00,0x08,0x89,0x26,0x00,0x68,0x99,0x2a,0x7f,0x40,0x89,0x2a,0x00,0x81,0x00,
0x99,0x24,0x7f,0x04,0x99,0x2a,0x7f,0x3c,0x89,0x2a,0x00,0x08,0x89,0x24,0x00,0x78,
0x99,0x2a,0x7d,0x38,0x89,0x2a,0x00,0x81,0x08,0x99,0x24,0x7f,0x00,0x99,0x26,0x7f,
0x00,0x99,0x2a,0x7f,0x44,0x89,0x2a,0x00,0x04,0x89,0x24,0x00,0x14,0x89,0x26,0x00,
0x64,0x99,0x2a,0x7f,0x38,0x89,0x2a,0x00,0x81,0x08,0x99,0x24,0x7f,0x00,0x99,0x2a,
0x7f,0x44,0x89,0x2a,0x00,0x10,0x89,0x24,0x00,0x6c,0x99,0x2a,0x7f,0x38,0x89,0x2a,
0x00,0x81,0x08,0x99,0x24,0x7f,0x00,0x99,0x26,0x7f,0x04,0x99,0x2a,0x7f,0x44,0x89,
0x24,0x00,0x04,0x89,0x2a,0x00,0x60,0x89,0x26,0x00,0x14,0x99,0x2a,0x7f,0x2c,0x89,
0x2a,0x00,0x81,0x14,0x99,0x24,0x7f,0x00,0x99,0x2a,0x7f,0x3c,0x89,0x2a,0x00,0x0c,
0x89,0x24,0x00,0x78,0x99,0x2a,0x7f,0x2c,0x89,0x2a,0x00,0x81,0x14,0x99,0x24,0x7f,
0x00,0x99,0x26,0x7f,0x00,0x99,0x2a,0x7f,0x44,0x89,0x2a,0x00,0x04,0x89,0x24,0x00,
0x34,0x89,0x26,0x00,0x44,0x99,0x2c,0x7f,0x38,0x89,0x2c,0x00,0x81,0x08,0x99,0x24,
0x7f,0x04,0x99,0x2a,0x7f,0x04,0x99,0x31,0x7f,0x28,0x89,0x2a,0x00,0x18,0x89,0x24,
0x00,0x78,0x99,0x2a,0x7f,0x2c,0x89,0x2a,0x00,0x81,0x14,0x99,0x24,0x7f,0x00,0x99,
0x26,0x7f,0x04,0x99,0x2a,0x7f,0x40,0x89,0x2a,0x00,0x04,0x89,0x24,0x00,0x38,0x89,
0x26,0x00,0x08,0x89,0x31,0x00,0x38,0x99,0x2a,0x7f,0x38,0x89,0x2a,0x00,0x81,0x08,
0x99,0x24,0x7f,0x00,0x99,0x2a,0x7f,0x44,0x89,0x24,0x00,0x04,0x89,0x2a,0x00,0x78,
0x99,0x2a,0x7f,0x34,0x89,0x2a,0x00,0x81,0x0c,0x99,0x24,0x7f,0x00,0x99,0x26,0x7f,
0x00,0x99,0x2a,0x7f,0x44,0x89,0x2a,0x00,0x04,0x89,0x24,0x00,0x30,0x89,0x26,0x00,
0x48,0x99,0x2a,0x7f,0x38,0x89,0x2a,0x00,0x81,0x08,0x99,0x24,0x7f,0x04,0x99,0x2a,
0x7f,0x3c,0x89,0x2a,0x00,0x10,0x89,0x24,0x00,0x70,0x99,0x2a,0x7f,0x2c,0x89,0x2a,
0x00,0x81,0x14,0x99,0x24,0x7f,0x00,0x99,0x26,0x7f,0x00,0x99,0x2a,0x7f,0x30,0x89,
0x2a,0x00,0x18,0x89,0x24,0x00,0x38,0x89,0x26,0x00,0x40,0x99,0x2a,0x7f,0x3c,0x89,
0x2a,0x00,0x81,0x04,0x99,0x24,0x7f,0x00,0x99,0x2a,0x7f,0x40,0x89,0x2a,0x00,0x00,
0x89,0x24,0x00,0x81,0x00,0x99,0x2a,0x7f,0x38,0x89,0x2a,0x00,0x81,0x08,0x99,0x24,
0x7f,0x00,0x99,0x26,0x7f,0x00,0x99,0x2a,0x7f,0x3c,0x89,0x2a,0x00,0x0c,0x89,0x24,
0x00,0x44,0x89,0x26,0x00,0x34,0x99,0x2a,0x7f,0x38,0x89,0x2a,0x00,0x81,0x08,0x99,
0x24,0x7f,0x04,0x99,0x2a,0x7f,0x44,0x89,0x2a,0x00,0x00,0x89,0x24,0x00,0x78,0x99,
0x2a,0x7f,0x38,0x89,0x2a,0x00,0x81,0x08,0x99,0x24,0x7f,0x00,0x99,0x26,0x7f,0x00,
0x99,0x2a,0x7f,0x3c,0x89,0x2a,0x00,0x0c,0x89,0x24,0x00,0x38,0x89,0x26,0x00,0x40,
0x99,0x2a,0x7f,0x2c,0x89,0x2a,0x00,0x81,0x14,0x99,0x24,0x7f,0x00,0x99,0x2a,0x7f,
0x48,0x89,0x2a,0x00,0x0c,0x89,0x24,0x00,0x6c,0x99,0x2a,0x7f,0x34,0x89,0x2a,0x00,
0x81,0x0c,0x99,0x24,0x7f,0x00,0x99,0x26,0x7f,0x00,0x99,0x2a,0x7f,0x40,0x89,0x2a,
0x00,0x08,0x89,0x24,0x00,0x30,0x89,0x26,0x00,0x48,0x99,0x2a,0x7f,0x40,0x89,0x2a,
0x00,0x81,0x00,0x99,0x24,0x7f,0x00,0x99,0x2a,0x7f,0x44,0x89,0x2a,0x00,0x04,0x89,
0x24,0x00,0x78,0x99,0x2a,0x7f,0x38,0x89,0x2a,0x00,0x81,0x08,0x99,0x24,0x7f,0x00,
0x99,0x26,0x7f,0x00,0x99,0x2a,0x7f,0x38,0x89,0x2a,0x00,0x10,0x89,0x24,0x00,0x38,
0x89,0x26,0x00,0x40,0x99,0x2a,0x7f,0x38,0x89,0x2a,0x00,0x81,0x08,0x99,0x24,0x7f,
0x04,0x99,0x2a,0x7f,0x30,0x89,0x2a,0x00,0x14,0x89,0x24,0x00,0x78,0x99,0x2a,0x7f,
0x30,0x89,0x2a,0x00,0x81,0x10,0x99,0x24,0x7f,0x00,0x99,0x26,0x7f,0x00,0x99,0x2a,
0x7f,0x34,0x89,0x24,0x00,0x10,0x89,0x2a,0x00,0x34,0x89,0x26,0x00,0x48,0x99,0x2c,
0x7f,0x44,0x89,0x2c,0x00,0x7c,0x99,0x24,0x7f,0x00,0x99,0x2a,0x7f,0x38,0x89,0x2a,
0x00,0x10,0x89,0x24,0x00,0x78,0x99,0x2a,0x7f,0x40,0x89,0x2a,0x00,0x81,0x00,0x99,
0x24,0x7f,0x00,0x99,0x26,0x7f,0x04,0x99,0x2a,0x7f,0x38,0x89,0x2a,0x00,0x18,0x89,
0x24,0x00,0x30,0x89,0x26,0x00,0x3c,0x99,0x2a,0x7f,0x2c,0x89,0x2a,0x00,0x81,0x14,
0x99,0x24,0x7f,0x00,0x99,0x2a,0x7f,0x34,0x89,0x2a,0x00,0x1c,0x89,0x24,0x00,0x70,
0x99,0x2a,0x7f,0x30,0x89,0x2a,0x00,0x81,0x10,0x99,0x24,0x7f,0x00,0x99,0x26,0x7f,
0x00,0x99,0x2a,0x7f,0x38,0x89,0x2a,0x00,0x10,0x89,0x24,0x00,0x30,0x89,0x26,0x00,
0x48,0x99,0x2a,0x7f,0x2c,0x89,0x2a,0x00,0x81,0x14,0x99,0x24,0x7f,0x00,0x99,0x2a,
0x7f,0x3c,0x89,0x2a,0x00,0x0c,0x89,0x24,0x00,0x78,0x99,0x2a,0x7f,0x38,0x89,0x2a,
0x00,0x81,0x08,0x99,0x24,0x7f,0x00,0x99,0x26,0x7f,0x04,0x99,0x2a,0x7f,0x34,0x89,
0x2a,0x00,0x08,0x89,0x24,0x00,0x30,0x89,0x26,0x00,0x50,0x99,0x2a,0x7f,0x38,0x89,
0x2a,0x00,0x81,0x08,0x99,0x24,0x7f,0x00,0x99,0x2a,0x7f,0x34,0x89,0x2a,0x00,0x20,
0x89,0x24,0x00,0x6c,0x99,0x2a,0x7f,0x38,0x89,0x2a,0x00,0x81,0x08,0x99,0x24,0x7f,
0x00,0x99,0x26,0x7f,0x00,0x99,0x2a,0x7f,0x38,0x89,0x2a,0x00,0x10,0x89,0x24,0x00,
0x30,0x89,0x26,0x00,0x48,0x99,0x2a,0x7f,0x40,0x89,0x2a,0x00,0x81,0x00,0x99,0x24,
0x7f,0x04,0x99,0x2a,0x7f,0x38,0x89,0x2a,0x00,0x20,0x89,0x24,0x00,0x64,0x99,0x2a,
0x7f,0x38,0x89,0x2a,0x00,0x81,0x08,0x99,0x24,0x7f,0x00,0x99,0x26,0x7f,0x00,0x99,
0x2a,0x7f,0x44,0x89,0x2a,0x00,0x04,0x89,0x24,0x00,0x30,0x89,0x26,0x00,0x48,0x99,
0x2a,0x7f,0x38,0x89,0x2a,0x00,0x81,0x08,0x99,0x24,0x7f,0x00,0x99,0x2a,0x7f,0x3c,
0x89,0x2a,0x00,0x18,0x89,0x24,0x00,0x6c,0x99,0x2a,0x7f,0x38,0x89,0x2a,0x00,0x81,
0x08,0x99,0x24,0x7f,0x00,0x99,0x26,0x7f,0x00,0x99,0x2a,0x7f,0x48,0x89,0x2a,0x00,
0x00,0x89,0x24,0x00,0x14,0x89,0x26,0x00,0x64,0x99,0x2c,0x7f,0x40,0x89,0x2c,0x00,
0x81,0x00,0x99,0x24,0x7f,0x04,0x99,0x26,0x7f,0x00,0x99,0x2a,0x7f,0x34,0x89,0x2a,
0x00,0x00,0x89,0x26,0x00,0x24,0x89,0x24,0x00,0x04,0x99,0x26,0x7f,0x38,0x89,0x26,
0x00,0x81,0x08,0x99,0x26,0x7f,0x40,0x89,0x26,0x00,0x20,0x99,0x24,0x7f,0x00,0x99,
0x30,0x7f,0x3c,0x89,0x24,0x00,0x04,0x89,0x30,0x00,0x20,0x99,0x2d,0x7f,0x2c,0x89,
0x2d,0x00,0x34,0x99,0x2d,0x7f,0x34,0x89,0x2d,0x00,0x2c,0x99,0x29,0x7f,0x34,0x89,
0x29,0x00,0x2c,0x99,0x24,0x7f,0x00,0x99,0x26,0x7f,0x44,0x89,0x26,0x00,0x0c,0x89,
0x24,0x00,0x85,0x30,0x99,0x24,0x7f,0x81,0x08,0x89,0x24,0x00,0x81,0x78,0x99,0x24,
0x7f,0x00,0x99,0x26,0x7f,0x64,0x89,0x24,0x00,0x2c,0x89,0x26,0x00,0x81,0x70,0x99,
0x24,0x7f,0x64,0x89,0x24,0x00,0x82,0x1c,0x99,0x24,0x7f,0x00,0x99,0x26,0x7f,0x5c,
0x89,0x24,0x00,0x24,0x89,0x26,0x00,0x82,0x00,0x99,0x24,0x7f,0x48,0x89,0x24,0x00,
0x82,0x38,0x99,0x24,0x7f,0x00,0x99,0x26,0x7f,0x48,0x89,0x24,0x00,0x2c,0x89,0x26,
0x00,0x82,0x0c,0x99,0x24,0x7f,0x3c,0x89,0x24,0x00,0x82,0x44,0x99,0x24,0x7f,0x00,
0x99,0x26,0x7f,0x40,0x89,0x24,0x00,0x2c,0x89,0x26,0x00,0x82,0x14,0x99,0x24,0x7f,
0x00,0x99,0x2a,0x7f,0x3c,0x89,0x24,0x00,0x0c,0x89,0x2a,0x00,0x78,0x99,0x2a,0x7f,
0x34,0x89,0x2a,0x00,0x81,0x0c,0x99,0x24,0x7f,0x00,0x99,0x26,0x7f,0x04,0x99,0x2a,
0x7f,0x44,0x89,0x24,0x00,0x04,0x89,0x2a,0x00,0x2c,0x89,0x26,0x00,0x48,0x99,0x2a,
0x7f,0x38,0x89,0x2a,0x00,0x81,0x08,0x99,0x24,0x7f,0x00,0x99,0x2a,0x7f,0x34,0x89,
0x24,0x00,0x18,0x89,0x2a,0x00,0x74,0x99,0x2a,0x7e,0x38,0x89,0x2a,0x00,0x81,0x08,
0x99,0x24,0x7f,0x00,0x99,0x26,0x7f,0x00,0x99,0x2a,0x7f,0x40,0x89,0x24,0x00,0x10,
0x89,0x2a,0x00,0x1c,0x89,0x26,0x00,0x54,0x99,0x2a,0x7b,0x34,0x89,0x2a,0x00,0x81,
0x0c,0x99,0x24,0x7f,0x00,0x99,0x2a,0x7f,0x48,0x89,0x2a,0x00,0x00,0x89,0x24,0x00,
0x78,0x99,0x2a,0x7c,0x38,0x89,0x2a,0x00,0x81,0x08,0x99,0x24,0x7f,0x00,0x99,0x26,
0x7f,0x00,0x99,0x2a,0x7f,0x40,0x89,0x24,0x00,0x04,0x89,0x2a,0x00,0x1c,0x89,0x26,
0x00,0x60,0x99,0x2a,0x7e,0x38,0x89,0x2a,0x00,0x81,0x08,0x99,0x24,0x7f,0x00,0x99,
0x2a,0x7f,0x48,0x89,0x24,0x00,0x04,0x89,0x2a,0x00,0x74,0x99,0x2a,0x7e,0x40,0x89,
0x2a,0x00,0x81,0x00,0x99,0x24,0x7f,0x00,0x99,0x26,0x7f,0x00,0x99,0x2a,0x7f,0x40,
0x89,0x24,0x00,0x04,0x89,0x2a,0x00,0x20,0x89,0x26,0x00,0x5c,0x99,0x2a,0x7f,0x38,
0x89,0x2a,0x00,0x81,0x08,0x99,0x24,0x7f,0x04,0x99,0x2a,0x7f,0x44,0x89,0x24,0x00,
0x08,0x89,0x2a,0x00,0x70,0x99,0x2a,0x7d,0x48,0x89,0x2a,0x00,0x78,0x99,0x24,0x7f,
0x00,0x99,0x26,0x7f,0x00,0x99,0x2a,0x7f,0x44,0x89,0x2a,0x00,0x0c,0x89,0x24,0x00,
0x1c,0x89,0x26,0x00,0x54,0x99,0x2a,0x7e,0x38,0x89,0x2a,0x00,0x81,0x08,0x99,0x24,
0x7f,0x00,0x99,0x2a,0x7f,0x40,0x89,0x2a,0x00,0x18,0x89,0x24,0x00,0x68,0x99,0x2a,
0x7c,0x40,0x89,0x2a,0x00,0x81,0x00,0x99,0x24,0x7f,0x00,0x99,0x26,0x7f,0x04,0x99,
0x2a,0x7f,0x40,0x89,0x2a,0x00,0x0c,0x89,0x24,0x00,0x14,0x89,0x26,0x00,0x5c,0x99,
0x2a,0x7e,0x38,0x89,0x2a,0x00,0x81,0x08,0x99,0x24,0x7f,0x04,0x99,0x2a,0x7f,0x38,
0x89,0x2a,0x00,0x1c,0x89,0x24,0x00,0x68,0x99,0x2a,0x7e,0x38,0x89,0x2a,0x00,0x81,
0x08,0x99,0x24,0x7f,0x00,0x99,0x26,0x7f,0x00,0x99,0x2a,0x7f,0x40,0x89,0x2a,0x00,
0x10,0x89,0x24,0x00,0x14,0x89,0x26,0x00,0x5c,0x99,0x2a,0x7f,0x38,0x89,0x2a,0x00,
0x81,0x08,0x99,0x24,0x7f,0x00,0x99,0x2a,0x7f,0x40,0x89,0x2a,0x00,0x10,0x89,0x24,
0x00,0x70,0x99,0x2a,0x7f,0x38,0x89,0x2a,0x00,0x81,0x08,0x99,0x24,0x7f,0x00,0x99,
0x26,0x7f,0x00,0x99,0x2a,0x7f,0x3c,0x89,0x2a,0x00,0x14,0x89,0x24,0x00,0x18,0x89,
0x26,0x00,0x58,0x99,0x2a,0x7f,0x38,0x89,0x2a,0x00,0x81,0x08,0x99,0x24,0x7f,0x00,
0x99,0x2a,0x7f,0x48,0x89,0x2a,0x00,0x14,0x89,0x24,0x00,0x64,0x99,0x2a,0x7f,0x38,
0x89,0x2a,0x00,0x81,0x08,0x99,0x24,0x7f,0x00,0x99,0x26,0x7f,0x00,0x99,0x2a,0x7f,
0x30,0x89,0x2a,0x00,0x24,0x89,0x24,0x00,0x18,0x89,0x26,0x00,0x54,0x99,0x2a,0x7f,
0x30,0x89,0x2a,0x00,0x81,0x10,0x99,0x24,0x7f,0x04,0x99,0x2a,0x7f,0x3c,0x89,0x2a,
0x00,0x1c,0x89,0x24,0x00,0x64,0x99,0x2a,0x7e,0x34,0x89,0x2a,0x00,0x81,0x0c,0x99,
0x24,0x7f,0x00,0x99,0x26,0x7f,0x00,0x99,0x2a,0x7f,0x44,0x89,0x2a,0x00,0x10,0x89,
0x24,0x00,0x1c,0x89,0x26,0x00,0x50,0x99,0x2a,0x7d,0x38,0x89,0x2a,0x00,0x81,0x08,
0x99,0x24,0x7f,0x00,0x99,0x2a,0x7f,0x48,0x89,0x2a,0x00,0x0c,0x89,0x24,0x00,0x6c,
0x99,0x2a,0x7e,0x38,0x89,0x2a,0x00,0x81,0x08,0x99,0x24,0x7f,0x00,0x99,0x26,0x7f,
0x00,0x99,0x2a,0x7f,0x40,0x89,0x2a,0x00,0x08,0x89,0x24,0x00,0x28,0x89,0x26,0x00,
0x50,0x99,0x2a,0x7e,0x38,0x89,0x2a,0x00,0x81,0x08,0x99,0x24,0x7f,0x00,0x99,0x2a,
0x7f,0x3c,0x89,0x2a,0x00,0x18,0x89,0x24,0x00,0x6c,0x99,0x2a,0x7f,0x40,0x89,0x2a,
0x00,0x81,0x00,0x99,0x24,0x7f,0x00,0x99,0x26,0x7f,0x00,0x99,0x2a,0x7f,0x44,0x89,
0x2a,0x00,0x10,0x89,0x24,0x00,0x10,0x89,0x26,0x00,0x5c,0x99,0x2a,0x7f,0x38,0x89,
0x2a,0x00,0x81,0x08,0x99,0x24,0x7f,0x00,0x99,0x2a,0x7f,0x48,0x89,0x2a,0x00,0x00,
0x89,0x24,0x00,0x78,0x99,0x2a,0x7f,0x44,0x89,0x2a,0x00,0x7c,0x99,0x24,0x7f,0x00,
0x99,0x26,0x7f,0x04,0x99,0x2a,0x7f,0x3c,0x89,0x2a,0x00,0x10,0x89,0x24,0x00,0x10,
0x89,0x26,0x00,0x60,0x99,0x2a,0x7f,0x38,0x89,0x2a,0x00,0x81,0x08,0x99,0x24,0x7f,
0x00,0x99,0x2a,0x7f,0x38,0x89,0x2a,0x00,0x18,0x89,0x24,0x00,0x70,0x99,0x2a,0x7f,
0x2c,0x89,0x2a,0x00,0x81,0x14,0x99,0x24,0x7f,0x00,0x99,0x26,0x7f,0x00,0x99,0x2a,
0x7f,0x44,0x89,0x2a,0x00,0x04,0x89,0x24,0x00,0x24,0x89,0x26,0x00,0x54,0x99,0x2a,
0x7f,0x38,0x89,0x2a,0x00,0x81,0x08,0x99,0x24,0x7f,0x04,0x99,0x2a,0x7f,0x44,0x89,
0x2a,0x00,0x00,0x89,0x24,0x00,0x78,0x99,0x2a,0x7f,0x34,0x89,0x2a,0x00,0x81,0x0c,
0x99,0x24,0x7f,0x00,0x99,0x26,0x7f,0x00,0x99,0x2a,0x7f,0x40,0x89,0x2a,0x00,0x08,
0x89,0x24,0x00,0x0c,0x89,0x26,0x00,0x6c,0x99,0x2a,0x7f,0x38,0x89,0x2a,0x00,0x81,
0x08,0x99,0x24,0x7f,0x00,0x99,0x2a,0x7f,0x48,0x89,0x2a,0x00,0x0c,0x89,0x24,0x00,
0x6c,0x99,0x2a,0x7f,0x38,0x89,0x2a,0x00,0x81,0x08,0x99,0x24,0x7f,0x00,0x99,0x26,
0x7f,0x00,0x99,0x2a,0x7f,0x44,0x89,0x2a,0x00,0x04,0x89,0x24,0x00,0x10,0x89,0x26,
0x00,0x68,0x99,0x2a,0x7f,0x38,0x89,0x2a,0x00,0x81,0x08,0x99,0x24,0x7f,0x04,0x99,
0x2a,0x7f,0x48,0x89,0x2a,0x00,0x04,0x89,0x24,0x00,0x70,0x99,0x2a,0x7f,0x38,0x89,
0x2a,0x00,0x81,0x08,0x99,0x24,0x7f,0x00,0x99,0x26,0x7f,0x00,0x99,0x2a,0x7f,0x44,
0x89,0x2a,0x00,0x04,0x89,0x24,0x00,0x24,0x89,0x26,0x00,0x54,0x99,0x2a,0x7f,0x38,
0x89,0x2a,0x00,0x81,0x08,0x99,0x24,0x7f,0x00,0x99,0x2a,0x7f,0x48,0x89,0x2a,0x00,
0x04,0x89,0x24,0x00,0x74,0x99,0x2a,0x7f,0x38,0x89,0x2a,0x00,0x81,0x08,0x99,0x24,
0x7f,0x00,0x99,0x26,0x7f,0x04,0x99,0x2a,0x7f,0x40,0x89,0x2a,0x00,0x10,0x89,0x24,
0x00,0x10,0x89,0x26,0x00,0x5c,0x99,0x2a,0x7f,0x38,0x89,0x2a,0x00,0x81,0x08,0x99,
0x24,0x7f,0x00,0x99,0x2a,0x7f,0x38,0x89,0x2a,0x00,0x10,0x89,0x24,0x00,0x78,0x99,
0x2a,0x7f,0x2c,0x89,0x2a,0x00,0x81,0x14,0x99,0x24,0x7f,0x00,0x99,0x26,0x7f,0x00,
0x99,0x2a,0x7f,0x3c,0x89,0x2a,0x00,0x04,0x89,0x24,0x00,0x2c,0x89,0x26,0x00,0x54,
0x99,0x2a,0x7d,0x2c,0x89,0x2a,0x00,0x81,0x14,0x99,0x24,0x7f,0x04,0x99,0x2a,0x7f,
0x3c,0x89,0x2a,0x00,0x08,0x89,0x24,0x00,0x78,0x99,0x2a,0x7f,0x30,0x89,0x2a,0x00,
0x81,0x10,0x99,0x24,0x7f,0x00,0x99,0x26,0x7f,0x00,0x99,0x2a,0x7f,0x3c,0x89,0x2a,
0x00,0x04,0x89,0x24,0x00,0x40,0x89,0x26,0x00,0x40,0x99,0x2c,0x7f,0x38,0x89,0x2c,
0x00,0x81,0x08,0x99,0x24,0x7f,0x00,0x99,0x2a,0x7f,0x04,0x99,0x31,0x7f,0x34,0x89,
0x2a,0x00,0x10,0x89,0x24,0x00,0x78,0x99,0x2a,0x7f,0x38,0x89,0x2a,0x00,0x81,0x08,
0x99,0x24,0x7f,0x00,0x99,0x26,0x7f,0x00,0x99,0x2a,0x7f,0x38,0x89,0x2a,0x00,0x04,
0x89,0x24,0x00,0x28,0x89,0x26,0x00,0x5c,0x99,0x2a,0x7f,0x2c,0x89,0x2a,0x00,0x30,
0x89,0x31,0x00,0x64,0x99,0x24,0x7f,0x04,0x99,0x2a,0x7f,0x38,0x89,0x24,0x00,0x0c,
0x89,0x2a,0x00,0x78,0x99,0x2a,0x7f,0x38,0x89,0x2a,0x00,0x81,0x08,0x99,0x24,0x7f,
0x00,0x99,0x26,0x7f,0x00,0x99,0x2a,0x7f,0x30,0x89,0x2a,0x00,0x10,0x89,0x24,0x00,
0x38,0x89,0x26,0x00,0x48,0x99,0x2a,0x7f,0x38,0x89,0x2a,0x00,0x81,0x08,0x99,0x24,
0x7f,0x00,0x99,0x2a,0x7f,0x44,0x89,0x2a,0x00,0x04,0x89,0x24,0x00,0x78,0x99,0x2a,
0x7f,0x38,0x89,0x2a,0x00,0x81,0x08,0x99,0x24,0x7f,0x00,0x99,0x26,0x7f,0x04,0x99,
0x2a,0x7f,0x40,0x89,0x2a,0x00,0x04,0x89,0x24,0x00,0x2c,0x89,0x26,0x00,0x4c,0x99,
0x2a,0x7f,0x38,0x89,0x2a,0x00,0x81,0x08,0x99,0x24,0x7f,0x00,0x99,0x2a,0x7f,0x3c,
0x89,0x2a,0x00,0x0c,0x89,0x24,0x00,0x78,0x99,0x2a,0x7f,0x38,0x89,0x2a,0x00,0x81,
0x08,0x99,0x24,0x7f,0x00,0x99,0x26,0x7f,0x00,0x99,0x2a,0x7f,0x34,0x89,0x2a,0x00,
0x0c,0x89,0x24,0x00,0x38,0x89,0x26,0x00,0x48,0x99,0x2a,0x7f,0x38,0x89,0x2a,0x00,
0x81,0x08,0x99,0x24,0x7f,0x00,0x99,0x2a,0x7f,0x3c,0x89,0x2a,0x00,0x04,0x89,0x24,
0x00,0x81,0x00,0x99,0x2a,0x7f,0x38,0x89,0x2a,0x00,0x81,0x08,0x99,0x24,0x7f,0x00,
0x99,0x26,0x7f,0x04,0x99,0x2a,0x7f,0x3c,0x89,0x24,0x00,0x04,0x89,0x2a,0x00,0x28,
0x89,0x26,0x00,0x54,0x99,0x2a,0x7f,0x38,0x89,0x2a,0x00,0x81,0x08,0x99,0x24,0x7f,
0x00,0x99,0x2a,0x7f,0x34,0x89,0x2a,0x00,0x18,0x89,0x24,0x00,0x74,0x99,0x2a,0x7f,
0x38,0x89,0x2a,0x00,0x81,0x08,0x99,0x24,0x7f,0x00,0x99,0x26,0x7f,0x00,0x99,0x2a,
0x7f,0x38,0x89,0x2a,0x00,0x10,0x89,0x24,0x00,0x28,0x89,0x26,0x00,0x50,0x99,0x2a,
0x7f,0x38,0x89,0x2a,0x00,0x81,0x08,0x99,0x24,0x7f,0x04,0x99,0x2a,0x7f,0x38,0x89,
0x2a,0x00,0x14,0x89,0x24,0x00,0x70,0x99,0x2a,0x7f,0x2c,0x89,0x2a,0x00,0x81,0x14,
0x99,0x24,0x7f,0x00,0x99,0x26,0x7f,0x00,0x99,0x2a,0x7f,0x40,0x89,0x24,0x00,0x04,
0x89,0x2a,0x00,0x40,0x89,0x26,0x00,0x3c,0x99,0x2a,0x7f,0x34,0x89,0x2a,0x00,0x81,
0x0c,0x99,0x24,0x7f,0x00,0x99,0x2a,0x7f,0x3c,0x89,0x2a,0x00,0x0c,0x89,0x24,0x00,
0x78,0x99,0x2a,0x7f,0x38,0x89,0x2a,0x00,0x81,0x08,0x99,0x24,0x7f,0x00,0x99,0x26,
0x7f,0x04,0x99,0x2a,0x7f,0x34,0x89,0x2a,0x00,0x08,0x89,0x24,0x00,0x38,0x89,0x26,
0x00,0x48,0x99,0x2c,0x7f,0x4c,0x89,0x2c,0x00,0x74,0x99,0x24,0x7f,0x04,0x99,0x2a,
0x7f,0x34,0x89,0x24,0x00,0x04,0x89,0x2a,0x00,0x81,0x04,0x99,0x2a,0x7f,0x34,0x89,
0x2a,0x00,0x81,0x0c,0x99,0x24,0x7f,0x00,0x99,0x26,0x7f,0x00,0x99,0x2a,0x7f,0x38,
0x89,0x24,0x00,0x10,0x89,0x2a,0x00,0x24,0x89,0x26,0x00,0x54,0x99,0x2a,0x7f,0x38,
0x89,0x2a,0x00,0x81,0x08,0x99,0x24,0x7f,0x00,0x99,0x2a,0x7f,0x3c,0x89,0x2a,0x00,
0x04,0x89,0x24,0x00,0x81,0x00,0x99,0x2a,0x7f,0x38,0x89,0x2a,0x00,0x81,0x08,0x99,
0x24,0x7f,0x00,0x99,0x26,0x7f,0x04,0x99,0x2a,0x7f,0x30,0x89,0x2a,0x00,0x0c,0x89,
0x24,0x00,0x40,0x89,0x26,0x00,0x40,0x99,0x2a,0x7f,0x40,0x89,0x2a,0x00,0x81,0x00,
0x99,0x24,0x7f,0x00,0x99,0x2a,0x7f,0x3c,0x89,0x2a,0x00,0x0c,0x89,0x24,0x00,0x78,
0x99,0x2a,0x7f,0x2c,0x89,0x2a,0x00,0x81,0x14,0x99,0x24,0x7f,0x00,0x99,0x26,0x7f,
0x00,0x99,0x2a,0x7f,0x44,0x89,0x2a,0x00,0x04,0x89,0x24,0x00,0x30,0x89,0x26,0x00,
0x48,0x99,0x2a,0x7f,0x38,0x89,0x2a,0x00,0x81,0x08,0x99,0x24,0x7f,0x04,0x99,0x2a,
0x7f,0x38,0x89,0x2a,0x00,0x04,0x89,0x24,0x00,0x81,0x00,0x99,0x2a,0x7f,0x38,0x89,
0x2a,0x00,0x81,0x08,0x99,0x24,0x7f,0x00,0x99,0x26,0x7f,0x00,0x99,0x2a,0x7f,0x34,
0x89,0x2a,0x00,0x0c,0x89,0x24,0x00,0x38,0x89,0x26,0x00,0x48,0x99,0x2c,0x7f,0x34,
0x89,0x2c,0x00,0x81,0x0c,0x99,0x24,0x7f,0x00,0x99,0x2a,0x7f,0x38,0x89,0x2a,0x00,
0x14,0x89,0x24,0x00,0x74,0x99,0x2a,0x7f,0x34,0x89,0x2a,0x00,0x81,0x0c,0x99,0x24,
0x7f,0x00,0x99,0x26,0x7f,0x00,0x99,0x2a,0x7f,0x40,0x89,0x24,0x00,0x04,0x89,0x2a,
0x00,0x24,0x89,0x26,0x00,0x58,0x99,0x2a,0x7f,0x38,0x89,0x2a,0x00,0x81,0x08,0x99,
0x24,0x7f,0x00,0x99,0x2a,0x7f,0x30,0x89,0x2a,0x00,0x18,0x89,0x24,0x00,0x78,0x99,
0x2a,0x7f,0x30,0x89,0x2a,0x00,0x81,0x10,0x99,0x24,0x7f,0x00,0x99,0x26,0x7f,0x00,
0x99,0x2a,0x7f,0x38,0x89,0x2a,0x00,0x08,0x89,0x24,0x00,0x20,0x89,0x26,0x00,0x60,
0x99,0x2a,0x7f,0x38,0x89,0x2a,0x00,0x81,0x08,0x99,0x24,0x7f,0x00,0x99,0x2a,0x7f,
0x40,0x89,0x2a,0x00,0x04,0x89,0x24,0x00,0x7c,0x99,0x2a,0x7f,0x38,0x89,0x2a,0x00,
0x81,0x08,0x99,0x24,0x7f,0x00,0x99,0x26,0x7f,0x04,0x99,0x2a,0x7f,0x38,0x89,0x2a,
0x00,0x04,0x89,0x24,0x00,0x5c,0x89,0x26,0x00,0x24,0x99,0x2a,0x7f,0x34,0x89,0x2a,
0x00,0x81,0x0c,0x99,0x24,0x7f,0x00,0x99,0x2a,0x7f,0x40,0x89,0x2a,0x00,0x08,0x89,
0x24,0x00,0x78,0x99,0x2a,0x7f,0x38,0x89,0x2a,0x00,0x81,0x08,0x99,0x24,0x7f,0x00,
0x99,0x26,0x7f,0x00,0x99,0x2a,0x7f,0x24,0x89,0x2a,0x00,0x18,0x89,0x24,0x00,0x1c,
0x89,0x26,0x00,0x68,0x99,0x2a,0x7f,0x38,0x89,0x2a,0x00,0x81,0x08,0x99,0x24,0x7f,
0x04,0x99,0x26,0x7f,0x00,0x99,0x2a,0x7f,0x34,0x89,0x26,0x00,0x08,0x89,0x24,0x00,
0x08,0x89,0x2a,0x00,0x18,0x99,0x26,0x7f,0x40,0x89,0x26,0x00,0x81,0x00,0x99,0x26,
0x7f,0x4c,0x89,0x26,0x00,0x14,0x99,0x24,0x7f,0x00,0x99,0x30,0x7f,0x34,0x89,0x24,
0x00,0x2c,0x99,0x2d,0x7f,0x04,0x89,0x30,0x00,0x30,0x89,0x2d,0x00,0x2c,0x99,0x2d,
0x7f,0x38,0x89,0x2d,0x00,0x28,0x99,0x29,0x7f,0x38,0x89,0x29,0x00,0x28,0x99,0x24,
0x7f,0x00,0x99,0x26,0x7f,0x4c,0x89,0x24,0x00,0x44,0x89,0x26,0x00,0x84,0x70,0x99,
0x24,0x7f,0x04,0x99,0x2a,0x7f,0x50,0x89,0x2a,0x00,0x08,0x89,0x24,0x00,0x64,0x99,
0x2a,0x7d,0x44,0x89,0x2a,0x00,0x7c,0x99,0x24,0x7f,0x00,0x99,0x26,0x7f,0x00,0x99,
0x2a,0x7f,0x3c,0x89,0x2a,0x00,0x0c,0x89,0x24,0x00,0x2c,0x89,0x26,0x00,0x4c,0x99,
0x2a,0x7b,0x38,0x89,0x2a,0x00,0x81,0x08,0x99,0x24,0x7f,0x00,0x99,0x2a,0x7f,0x34,
0x89,0x2a,0x00,0x0c,0x89,0x24,0x00,0x81,0x00,0x99,0x2a,0x7a,0x3c,0x89,0x2a,0x00,
0x81,0x04,0x99,0x24,0x7f,0x00,0x99,0x26,0x7f,0x00,0x99,0x2a,0x7f,0x48,0x89,0x24,
0x00,0x04,0x89,0x2a,0x00,0x28,0x89,0x26,0x00,0x4c,0x99,0x2a,0x7f,0x38,0x89,0x2a,
0x00,0x81,0x08,0x99,0x24,0x7f,0x00,0x99,0x2a,0x7f,0x48,0x89,0x24,0x00,0x08,0x89,
0x2a,0x00,0x70,0x99,0x2a,0x7d,0x48,0x89,0x2a,0x00,0x78,0x99,0x24,0x7f,0x00,0x99,
0x26,0x7f,0x00,0x99,0x2a,0x7f,0x4c,0x89,0x2a,0x00,0x00,0x89,0x24,0x00,0x34,0x89,
0x26,0x00,0x40,0x99,0x2a,0x7f,0x48,0x89,0x2a,0x00,0x78,0x99,0x24,0x7f,0x00,0x99,
0x2a,0x7f,0x44,0x89,0x2a,0x00,0x04,0x89,0x24,0x00,0x78,0x99,0x2a,0x7f,0x3c,0x89,
0x2a,0x00,0x81,0x04,0x99,0x24,0x7f,0x00,0x99,0x26,0x7f,0x00,0x99,0x2a,0x7f,0x3c,
0x89,0x2a,0x00,0x04,0x89,0x24,0x00,0x24,0x89,0x26,0x00,0x5c,0x99,0x2a,0x7e,0x3c,
0x89,0x2a,0x00,0x81,0x04,0x99,0x24,0x7f,0x00,0x99,0x2a,0x7f,0x4c,0x89,0x24,0x00,
0x08,0x89,0x2a,0x00,0x6c,0x99,0x2a,0x7f,0x48,0x89,0x2a,0x00,0x78,0x99,0x24,0x7f,
0x00,0x99,0x26,0x7f,0x00,0x99,0x2a,0x7f,0x04,0x99,0x36,0x7f,0x3c,0x89,0x24,0x00,
0x1c,0x89,0x2a,0x00,0x00,0x89,0x26,0x00,0x64,0x99,0x2a,0x79,0x0c,0x89,0x36,0x00,
0x30,0x89,0x2a,0x00,0x81,0x04,0x99,0x24,0x7f,0x00,0x99,0x2a,0x7f,0x40,0x89,0x24,
0x00,0x14,0x89,0x2a,0x00,0x6c,0x99,0x2a,0x7f,0x3c,0x89,0x2a,0x00,0x81,0x04,0x99,
0x24,0x7f,0x00,0x99,0x26,0x7f,0x00,0x99,0x2a,0x7f,0x40,0x89,0x24,0x00,0x0c,0x89,
0x2a,0x00,0x20,0x89,0x26,0x00,0x54,0x99,0x2a,0x7c,0x3c,0x89,0x2a,0x00,0x81,0x04,
0x99,0x24,0x7f,0x00,0x99,0x2a,0x7f,0x4c,0x89,0x24,0x00,0x04,0x89,0x2a,0x00,0x70,
0x99,0x2a,0x7f,0x4c,0x89,0x2a,0x00,0x74,0x99,0x24,0x7f,0x00,0x99,0x26,0x7f,0x04,
0x99,0x2a,0x7f,0x00,0x99,0x36,0x7f,0x38,0x89,0x24,0x00,0x10,0x89,0x2a,0x00,0x18,
0x89,0x26,0x00,0x5c,0x99,0x2a,0x7f,0x04,0x89,0x36,0x00,0x38,0x89,0x2a,0x00,0x81,
0x04,0x99,0x24,0x7f,0x00,0x99,0x2a,0x7f,0x40,0x89,0x24,0x00,0x10,0x89,0x2a,0x00,
0x70,0x99,0x2a,0x7e,0x48,0x89,0x2a,0x00,0x78,0x99,0x24,0x7f,0x00,0x99,0x26,0x7f,
0x00,0x99,0x2a,0x7f,0x48,0x89,0x2a,0x00,0x00,0x89,0x24,0x00,0x28,0x89,0x26,0x00,
0x50,0x99,0x2a,0x7f,0x3c,0x89,0x2a,0x00,0x81,0x04,0x99,0x24,0x7f,0x00,0x99,0x2a,
0x7f,0x40,0x89,0x24,0x00,0x04,0x89,0x2a,0x00,0x7c,0x99,0x2a,0x7f,0x38,0x89,0x2a,
0x00,0x81,0x08,0x99,0x24,0x7f,0x00,0x99,0x26,0x7f,0x04,0x99,0x2a,0x7f,0x00,0x99,
0x36,0x7f,0x3c,0x89,0x24,0x00,0x0c,0x89,0x2a,0x00,0x10,0x89,0x26,0x00,0x58,0x89,
0x36,0x00,0x0c,0x99,0x2a,0x7f,0x3c,0x89,0x2a,0x00,0x81,0x04,0x99,0x24,0x7f,0x00,
0x99,0x2a,0x7f,0x40,0x89,0x2a,0x00,0x00,0x89,0x24,0x00,0x81,0x00,0x99,0x2a,0x7f,
0x3c,0x89,0x2a,0x00,0x81,0x04,0x99,0x24,0x7f,0x00,0x99,0x26,0x7f,0x00,0x99,0x2a,
0x7f,0x48,0x89,0x24,0x00,0x04,0x89,0x2a,0x00,0x18,0x89,0x26,0x00,0x5c,0x99,0x2a,
0x7f,0x38,0x89,0x2a,0x00,0x81,0x08,0x99,0x24,0x7f,0x04,0x99,0x2a,0x7f,0x40,0x89,
0x2a,0x00,0x10,0x89,0x24,0x00,0x6c,0x99,0x2a,0x7e,0x38,0x89,0x2a,0x00,0x81,0x08,
0x99,0x24,0x7f,0x00,0x99,0x26,0x7f,0x04,0x99,0x2a,0x7f,0x00,0x99,0x36,0x7f,0x34,
0x89,0x2a,0x00,0x08,0x89,0x24,0x00,0x24,0x89,0x26,0x00,0x54,0x89,0x36,0x00,0x08,
0x99,0x2a,0x7f,0x30,0x89,0x2a,0x00,0x81,0x10,0x99,0x24,0x7f,0x00,0x99,0x2a,0x7f,
0x44,0x89,0x2a,0x00,0x04,0x89,0x24,0x00,0x78,0x99,0x2a,0x7f,0x38,0x89,0x2a,0x00,
0x81,0x08,0x99,0x24,0x7f,0x00,0x99,0x26,0x7f,0x00,0x99,0x2a,0x7f,0x3c,0x89,0x2a,
0x00,0x04,0x89,0x24,0x00,0x24,0x89,0x26,0x00,0x5c,0x99,0x2c,0x7f,0x48,0x89,0x2c,
0x00,0x78,0x99,0x24,0x7f,0x04,0x99,0x2a,0x7f,0x3c,0x89,0x2a,0x00,0x00,0x89,0x24,
0x00,0x81,0x00,0x99,0x2a,0x7f,0x3c,0x89,0x2a,0x00,0x81,0x04,0x99,0x24,0x7f,0x00,
0x99,0x26,0x7f,0x00,0x99,0x2a,0x7f,0x04,0x99,0x36,0x7f,0x38,0x89,0x2a,0x00,0x0c,
0x89,0x24,0x00,0x10,0x89,0x26,0x00,0x38,0x89,0x36,0x00,0x30,0x99,0x2a,0x7f,0x38,
0x89,0x2a,0x00,0x81,0x08,0x99,0x24,0x7f,0x00,0x99,0x2a,0x7f,0x40,0x89,0x24,0x00,
0x04,0x89,0x2a,0x00,0x7c,0x99,0x2a,0x7f,0x3c,0x89,0x2a,0x00,0x81,0x04,0x99,0x24,
0x7f,0x00,0x99,0x26,0x7f,0x04,0x99,0x2a,0x7f,0x38,0x89,0x2a,0x00,0x00,0x89,0x24,
0x00,0x1c,0x89,0x26,0x00,0x68,0x99,0x2a,0x7f,0x38,0x89,0x2a,0x00,0x81,0x08,0x99,
0x24,0x7f,0x04,0x99,0x2a,0x7f,0x3c,0x89,0x2a,0x00,0x08,0x89,0x24,0x00,0x78,0x99,
0x2a,0x7f,0x48,0x89,0x2a,0x00,0x78,0x99,0x24,0x7f,0x00,0x99,0x26,0x7f,0x00,0x99,
0x2a,0x7f,0x04,0x99,0x36,0x7f,0x3c,0x89,0x2a,0x00,0x00,0x89,0x24,0x00,0x18,0x89,
0x26,0x00,0x48,0x89,0x36,0x00,0x20,0x99,0x2a,0x7f,0x3c,0x89,0x2a,0x00,0x81,0x04,
0x99,0x24,0x7f,0x04,0x99,0x2a,0x7f,0x3c,0x89,0x2a,0x00,0x00,0x89,0x24,0x00,0x81,
0x00,0x99,0x2a,0x7f,0x38,0x89,0x2a,0x00,0x81,0x08,0x99,0x24,0x7f,0x00,0x99,0x26,
0x7f,0x00,0x99,0x2a,0x7f,0x38,0x89,0x24,0x00,0x08,0x89,0x2a,0x00,0x24,0x89,0x26,
0x00,0x5c,0x99,0x2a,0x7f,0x4c,0x89,0x2a,0x00,0x74,0x99,0x24,0x7f,0x00,0x99,0x2a,
0x7f,0x40,0x89,0x24,0x00,0x04,0x89,0x2a,0x00,0x7c,0x99,0x2a,0x7f,0x3c,0x89,0x2a,
0x00,0x81,0x04,0x99,0x24,0x7f,0x00,0x99,0x26,0x7f,0x00,0x99,0x2a,0x7f,0x04,0x99,
0x36,0x7f,0x38,0x89,0x2a,0x00,0x0c,0x89,0x24,0x00,0x14,0x89,0x26,0x00,0x58,0x89,
0x36,0x00,0x0c,0x99,0x2a,0x7f,0x3c,0x89,0x2a,0x00,0x81,0x04,0x99,0x24,0x7f,0x00,
0x99,0x2a,0x7f,0x40,0x89,0x24,0x00,0x04,0x89,0x2a,0x00,0x7c,0x99,0x2a,0x7f,0x3c,
0x89,0x2a,0x00,0x81,0x04,0x99,0x24,0x7f,0x00,0x99,0x26,0x7f,0x00,0x99,0x2a,0x7f,
0x3c,0x89,0x24,0x00,0x10,0x89,0x2a,0x00,0x0c,0x89,0x26,0x00,0x68,0x99,0x2c,0x7f,
0x48,0x89,0x2c,0x00,0x78,0x99,0x24,0x7f,0x00,0x99,0x2a,0x7f,0x40,0x89,0x24,0x00,
0x14,0x89,0x2a,0x00,0x6c,0x99,0x2a,0x7f,0x48,0x89,0x2a,0x00,0x78,0x99,0x24,0x7f,
0x00,0x99,0x26,0x7f,0x04,0x99,0x2a,0x7f,0x00,0x99,0x36,0x7f,0x44,0x89,0x24,0x00,
0x04,0x89,0x2a,0x00,0x14,0x89,0x26,0x00,0x28,0x89,0x36,0x00,0x38,0x99,0x2a,0x7f,
0x48,0x89,0x2a,0x00,0x78,0x99,0x24,0x7f,0x00,0x99,0x2a,0x7f,0x40,0x89,0x24,0x00,
0x10,0x89,0x2a,0x00,0x70,0x99,0x2a,0x7f,0x3c,0x89,0x2a,0x00,0x81,0x04,0x99,0x24,
0x7f,0x00,0x99,0x26,0x7f,0x00,0x99,0x2a,0x7f,0x40,0x89,0x2a,0x00,0x00,0x89,0x24,
0x00,0x18,0x89,0x26,0x00,0x68,0x99,0x2c,0x7f,0x48,0x89,0x2c,0x00,0x78,0x99,0x24,
0x7f,0x04,0x99,0x2a,0x7f,0x3c,0x89,0x24,0x00,0x10,0x89,0x2a,0x00,0x70,0x99,0x2a,
0x7f,0x48,0x89,0x2a,0x00,0x78,0x99,0x24,0x7f,0x00,0x99,0x26,0x7f,0x00,0x99,0x2a,
0x7f,0x04,0x99,0x36,0x7f,0x3c,0x89,0x2a,0x00,0x00,0x89,0x24,0x00,0x1c,0x89,0x26,
0x00,0x08,0x89,0x36,0x00,0x5c,0x99,0x2a,0x7f,0x48,0x89,0x2a,0x00,0x78,0x99,0x24,
0x7f,0x00,0x99,0x2a,0x7f,0x40,0x89,0x2a,0x00,0x00,0x89,0x24,0x00,0x81,0x00,0x99,
0x2a,0x7f,0x48,0x89,0x2a,0x00,0x78,0x99,0x24,0x7f,0x00,0x99,0x26,0x7f,0x00,0x99,
0x2a,0x7f,0x3c,0x89,0x2a,0x00,0x04,0x89,0x24,0x00,0x38,0x89,0x26,0x00,0x48,0x99,
0x2a,0x7f,0x38,0x89,0x2a,0x00,0x81,0x08,0x99,0x24,0x7f,0x04,0x99,0x2a,0x7f,0x38,
0x89,0x2a,0x00,0x00,0x89,0x24,0x00,0x81,0x04,0x99,0x2a,0x7f,0x38,0x89,0x2a,0x00,
0x81,0x08,0x99,0x24,0x7f,0x00,0x99,0x26,0x7f,0x00,0x99,0x2a,0x7f,0x04,0x99,0x36,
0x7f,0x3c,0x89,0x24,0x00,0x08,0x89,0x2a,0x00,0x1c,0x89,0x26,0x00,0x04,0x89,0x36,
0x00,0x58,0x99,0x2a,0x7c,0x44,0x89,0x2a,0x00,0x7c,0x99,0x24,0x7f,0x00,0x99,0x2a,
0x7f,0x3c,0x89,0x24,0x00,0x10,0x89,0x2a,0x00,0x74,0x99,0x2a,0x7f,0x40,0x89,0x2a,
0x00,0x81,0x00,0x99,0x24,0x7f,0x00,0x99,0x26,0x7f,0x04,0x99,0x2a,0x7f,0x34,0x89,
0x2a,0x00,0x08,0x89,0x24,0x00,0x1c,0x89,0x26,0x00,0x64,0x99,0x2a,0x7f,0x44,0x89,
0x2a,0x00,0x7c,0x99,0x24,0x7f,0x04,0x99,0x2a,0x7f,0x3c,0x89,0x2a,0x00,0x00,0x89,
0x24,0x00,0x81,0x00,0x99,0x2a,0x7e,0x40,0x89,0x2a,0x00,0x81,0x00,0x99,0x24,0x7f,
0x00,0x99,0x26,0x7f,0x00,0x99,0x2a,0x7f,0x04,0x99,0x36,0x7f,0x3c,0x89,0x2a,0x00,
0x00,0x89,0x24,0x00,0x24,0x89,0x26,0x00,0x40,0x89,0x36,0x00,0x1c,0x99,0x2a,0x7d,
0x40,0x89,0x2a,0x00,0x81,0x00,0x99,0x24,0x7f,0x00,0x99,0x2a,0x7f,0x40,0x89,0x24,
0x00,0x08,0x89,0x2a,0x00,0x78,0x99,0x2a,0x79,0x40,0x89,0x2a,0x00,0x81,0x00,0x99,
0x24,0x7f,0x00,0x99,0x26,0x7f,0x04,0x99,0x2a,0x7f,0x38,0x89,0x24,0x00,0x10,0x89,
0x2a,0x00,0x18,0x89,0x26,0x00,0x5c,0x99,0x2a,0x78,0x40,0x89,0x2a,0x00,0x81,0x00,
0x99,0x24,0x7f,0x00,0x99,0x2a,0x7f,0x40,0x89,0x2a,0x00,0x08,0x89,0x24,0x00,0x78,
0x99,0x2a,0x7f,0x3c,0x89,0x2a,0x00,0x81,0x04,0x99,0x24,0x7f,0x00,0x99,0x26,0x7f,
0x00,0x99,0x2a,0x7f,0x04,0x99,0x36,0x7f,0x3c,0x89,0x2a,0x00,0x00,0x89,0x24,0x00,
0x2c,0x89,0x26,0x00,0x10,0x89,0x36,0x00,0x44,0x99,0x2a,0x79,0x3c,0x89,0x2a,0x00,
0x81,0x04,0x99,0x24,0x7f,0x04,0x99,0x2a,0x7f,0x3c,0x89,0x2a,0x00,0x00,0x89,0x24,
0x00,0x81,0x00,0x99,0x2a,0x7c,0x3c,0x89,0x2a,0x00,0x81,0x04,0x99,0x24,0x7f,0x00,
0x99,0x26,0x7f,0x00,0x99,0x2a,0x7f,0x38,0x89,0x24,0x00,0x04,0x89,0x2a,0x00,0x30,
0x89,0x26,0x00,0x54,0x99,0x2c,0x7f,0x48,0x89,0x2c,0x00,0x78,0x99,0x24,0x7f,0x00,
0x99,0x2a,0x7f,0x34,0x89,0x2a,0x00,0x10,0x89,0x24,0x00,0x7c,0x99,0x2a,0x7d,0x30,
0x89,0x2a,0x00,0x81,0x10,0x99,0x24,0x7f,0x00,0x99,0x26,0x7f,0x04,0x99,0x2a,0x7f,
0x00,0x99,0x36,0x7f,0x30,0x89,0x24,0x00,0x08,0x89,0x2a,0x00,0x28,0x89,0x26,0x00,
0x28,0x89,0x36,0x00,0x34,0x99,0x2a,0x79,0x30,0x89,0x2a,0x00,0x81,0x10,0x99,0x24,
0x7f,0x00,0x99,0x2a,0x7f,0x34,0x89,0x2a,0x00,0x00,0x89,0x24,0x00,0x81,0x0c,0x99,
0x2a,0x75,0x3c,0x89,0x2a,0x00,0x81,0x04,0x99,0x24,0x7f,0x00,0x99,0x26,0x7f,0x00,
0x99,0x2a,0x7f,0x3c,0x89,0x2a,0x00,0x00,0x89,0x24,0x00,0x28,0x89,0x26,0x00,0x5c,
0x99,0x2a,0x76,0x38,0x89,0x2a,0x00,0x81,0x08,0x99,0x24,0x7f,0x00,0x99,0x2a,0x7f,
0x38,0x89,0x2a,0x00,0x08,0x89,0x24,0x00,0x81,0x00,0x99,0x2a,0x7c,0x38,0x89,0x2a,
0x00,0x81,0x08,0x99,0x24,0x7f,0x00,0x99,0x26,0x7f,0x00,0x99,0x2a,0x7f,0x04,0x99,
0x36,0x7f,0x30,0x89,0x24,0x00,0x08,0x89,0x2a,0x00,0x30,0x89,0x26,0x00,0x40,0x89,
0x36,0x00,0x14,0x99,0x2a,0x75,0x38,0x89,0x2a,0x00,0x81,0x08,0x99,0x24,0x7f,0x00,
0x99,0x2a,0x7f,0x38,0x89,0x24,0x00,0x0c,0x89,0x2a,0x00,0x7c,0x99,0x2a,0x74,0x34,
0x89,0x2a,0x00,0x81,0x0c,0x99,0x24,0x7f,0x00,0x99,0x26,0x7f,0x00,0x99,0x2a,0x7f,
0x40,0x89,0x2a,0x00,0x00,0x89,0x24,0x00,0x2c,0x89,0x26,0x00,0x54,0x99,0x2a,0x6d,
0x34,0x89,0x2a,0x00,0x81,0x0c,0x99,0x24,0x7f,0x04,0x99,0x2a,0x7f,0x3c,0x89,0x2a,
0x00,0x38,0x89,0x24,0x00,0x48,0x99,0x2a,0x7f,0x30,0x89,0x2a,0x00,0x81,0x10,0x99,
0x24,0x7f,0x00,0x99,0x26,0x7f,0x00,0x99,0x2a,0x7f,0x04,0x99,0x36,0x7f,0x38,0x89,
0x2a,0x00,0x1c,0x89,0x24,0x00,0x14,0x89,0x26,0x00,0x58,0x89,0x36,0x00,0x81,0x3c,
0x99,0x24,0x7f,0x08,0x99,0x31,0x7f,0x48,0x89,0x24,0x00,0x18,0x89,0x31,0x00,0x81,
0x38,0x99,0x24,0x7f,0x08,0x99,0x31,0x7f,0x40,0x89,0x24,0x00,0x20,0x89,0x31,0x00,
0x81,0x38,0x99,0x24,0x7f,0x08,0x99,0x31,0x7f,0x24,0x89,0x24,0x00,0x08,0x89,0x31,
0x00,0x89,0x38,0x99,0x26,0x7f,0x34,0x89,0x26,0x00,0x24,0x99,0x26,0x7f,0x30,0xd9,
0x08,0x30,0xd9,0x09,0x38,0xd9,0x0e,0x54,0xd9,0x08,0x34,0xd9,0x00,0x34,0x89,0x26,
0x00,0x8c,0x38,0xb9,0x40,0x00,0x00,0xd9,0x00,0x00,0xe9,0x00,0x40,0x81,0x40,0xff,
0x2f,0x00,
};