#include <stdint.h>
const uint8_t nocaution[] = {
0x4d,0x54,0x68,0x64,0x00,0x00,0x00,0x06,0x00,0x01,0x00,0x1e,0x01,0xe0,0x4d,0x54,
0x72,0x6b,0x00,0x00,0x01,0x53,0x00,0xff,0x58,0x04,0x04,0x02,0x18,0x08,0x00,0xff,
0x59,0x02,0x00,0x00,0x00,0xff,0x51,0x03,0x0f,0x42,0x40,0x00,0xb0,0x79,0x00,0x00,
0xc0,0x34,0x00,0xb0,0x07,0x5e,0x00,0x0a,0x40,0x00,0x5b,0x00,0x00,0x5d,0x00,0x00,
0xff,0x21,0x01,0x00,0x00,0x90,0x51,0x2d,0xa5,0x40,0x53,0x2d,0x96,0x3f,0x51,0x00,
0x01,0xff,0x58,0x04,0x05,0x02,0x18,0x08,0x92,0x5f,0x90,0x53,0x00,0x01,0xff,0x58,
0x04,0x06,0x03,0x18,0x08,0x00,0x90,0x51,0x40,0x83,0x5f,0x51,0x00,0x01,0x54,0x2d,
0x87,0x3f,0x54,0x00,0x01,0x53,0x2d,0x96,0x3f,0x53,0x00,0x01,0x51,0x2d,0x83,0x5f,
0x51,0x00,0x01,0x53,0x2d,0x83,0x5f,0x53,0x00,0x01,0x54,0x2d,0x83,0x5f,0x54,0x00,
0x01,0x53,0x2d,0x83,0x5f,0x53,0x00,0x01,0x51,0x2d,0x83,0x5f,0x51,0x00,0x01,0x53,
0x2d,0x83,0x5f,0x53,0x00,0x01,0x54,0x2d,0x8b,0x1f,0x54,0x00,0x01,0x53,0x2d,0x96,
0x3f,0x53,0x00,0x01,0x51,0x2d,0x87,0x3f,0x51,0x00,0x01,0x58,0x2d,0x83,0x5f,0x58,
0x00,0x01,0x54,0x2d,0x8b,0x1f,0x54,0x00,0x01,0x53,0x2d,0x96,0x3f,0x53,0x00,0x01,
0x51,0x50,0x83,0x5f,0x51,0x00,0x01,0x58,0x50,0x83,0x5f,0x58,0x00,0x01,0x54,0x50,
0x83,0x5f,0x54,0x00,0x01,0x53,0x50,0x83,0x5f,0x53,0x00,0x01,0x51,0x50,0x83,0x5f,
0x51,0x00,0x01,0x53,0x50,0x83,0x5f,0x53,0x00,0x01,0x54,0x50,0x8b,0x1f,0x54,0x00,
0x01,0x53,0x50,0x96,0x3f,0x53,0x00,0x01,0x51,0x50,0x87,0x3f,0x51,0x00,0x01,0x58,
0x50,0x83,0x5f,0x58,0x00,0x01,0x54,0x50,0x8b,0x1f,0x54,0x00,0x01,0x53,0x50,0x96,
0x3f,0x53,0x00,0x01,0x51,0x50,0x83,0x5f,0x51,0x00,0x01,0x58,0x50,0x83,0x5f,0x58,
0x00,0x01,0x54,0x50,0x83,0x5f,0x54,0x00,0x01,0x53,0x50,0x83,0x5f,0x53,0x00,0x01,
0x51,0x50,0x83,0x5f,0x51,0x00,0x01,0x53,0x50,0x83,0x5f,0x53,0x00,0x01,0x54,0x50,
0x8b,0x1f,0x54,0x00,0x01,0x56,0x50,0x8b,0x1f,0x56,0x00,0x81,0x87,0x01,0xff,0x58,
0x04,0x04,0x02,0x18,0x08,0x01,0xff,0x2f,0x00,0x4d,0x54,0x72,0x6b,0x00,0x00,0x02,
0xa3,0x00,0xff,0x59,0x02,0xfe,0x00,0x00,0xb1,0x79,0x00,0x00,0xc1,0x47,0x00,0xb1,
0x07,0x4b,0x00,0x0a,0x40,0x00,0x5b,0x00,0x00,0x5d,0x00,0x00,0xff,0x21,0x01,0x00,
0xce,0x60,0x91,0x51,0x50,0x83,0x5f,0x51,0x00,0x01,0x54,0x50,0x87,0x3f,0x54,0x00,
0x01,0x53,0x50,0x96,0x3f,0x53,0x00,0x01,0x51,0x50,0x83,0x5f,0x51,0x00,0x01,0x53,
0x50,0x83,0x5f,0x53,0x00,0x01,0x54,0x50,0x83,0x5f,0x54,0x00,0x01,0x53,0x50,0x83,
0x5f,0x53,0x00,0x01,0x51,0x50,0x83,0x5f,0x51,0x00,0x01,0x53,0x50,0x83,0x5f,0x53,
0x00,0x01,0x54,0x50,0x8b,0x1f,0x54,0x00,0x01,0x53,0x50,0x96,0x3f,0x53,0x00,0x01,
0x51,0x70,0x87,0x3f,0x51,0x00,0x01,0x58,0x70,0x83,0x5f,0x58,0x00,0x01,0x54,0x70,
0x8b,0x1f,0x54,0x00,0x01,0x53,0x70,0x96,0x3f,0x53,0x00,0x01,0x51,0x70,0x83,0x5f,
0x51,0x00,0x01,0x58,0x70,0x83,0x5f,0x58,0x00,0x01,0x54,0x70,0x83,0x5f,0x54,0x00,
0x01,0x53,0x70,0x83,0x5f,0x53,0x00,0x01,0x51,0x70,0x83,0x5f,0x51,0x00,0x01,0x53,
0x70,0x83,0x5f,0x53,0x00,0x01,0x54,0x70,0x8b,0x1f,0x54,0x00,0x01,0x53,0x70,0x96,
0x3f,0x53,0x00,0x01,0x51,0x70,0x87,0x3f,0x51,0x00,0x01,0x58,0x70,0x83,0x5f,0x58,
0x00,0x01,0x54,0x70,0x8b,0x1f,0x54,0x00,0x01,0x53,0x70,0x96,0x3f,0x53,0x00,0x01,
0x51,0x70,0x83,0x5f,0x51,0x00,0x01,0x58,0x70,0x83,0x5f,0x58,0x00,0x01,0x54,0x70,
0x83,0x5f,0x54,0x00,0x01,0x53,0x70,0x83,0x5f,0x53,0x00,0x01,0x51,0x70,0x83,0x5f,
0x51,0x00,0x01,0x53,0x70,0x83,0x5f,0x53,0x00,0x01,0x54,0x70,0x8b,0x1f,0x54,0x00,
0x01,0x56,0x70,0x8b,0x1f,0x56,0x00,0xad,0x01,0x3c,0x60,0x8b,0x1f,0x3c,0x00,0x01,
0x3e,0x64,0x8b,0x1f,0x3e,0x00,0x01,0x40,0x68,0x96,0x3f,0x40,0x00,0x01,0x43,0x70,
0x8b,0x1f,0x43,0x00,0x01,0x45,0x70,0x8b,0x1f,0x45,0x00,0x01,0x40,0x70,0x96,0x3f,
0x40,0x00,0x01,0x40,0x70,0x82,0x67,0x40,0x00,0x88,0x39,0x40,0x70,0x82,0x67,0x40,
0x00,0x79,0x40,0x70,0x77,0x40,0x00,0x01,0x40,0x70,0x82,0x67,0x40,0x00,0x87,0x41,
0x40,0x70,0x82,0x67,0x40,0x00,0x79,0x40,0x70,0x82,0x67,0x40,0x00,0x88,0x39,0x40,
0x70,0x82,0x67,0x40,0x00,0x79,0x40,0x70,0x82,0x67,0x40,0x00,0x88,0x39,0x40,0x70,
0x81,0x33,0x40,0x00,0x3d,0x40,0x70,0x81,0x33,0x40,0x00,0x3d,0x40,0x70,0x82,0x67,
0x40,0x00,0x88,0x39,0x40,0x70,0x82,0x67,0x40,0x00,0x79,0x40,0x70,0x77,0x40,0x00,
0x01,0x40,0x70,0x82,0x67,0x40,0x00,0x87,0x41,0x40,0x70,0x82,0x67,0x40,0x00,0x79,
0x40,0x70,0x82,0x67,0x40,0x00,0x88,0x39,0x40,0x70,0x82,0x67,0x40,0x00,0x79,0x40,
0x70,0x82,0x67,0x40,0x00,0x88,0x39,0x40,0x70,0x82,0x67,0x40,0x00,0x79,0x40,0x70,
0x77,0x40,0x00,0x01,0x40,0x70,0x82,0x67,0x40,0x00,0x87,0x41,0x40,0x70,0x82,0x67,
0x40,0x00,0x79,0x40,0x70,0x82,0x67,0x40,0x00,0x88,0x39,0x40,0x70,0x82,0x67,0x40,
0x00,0x79,0x40,0x70,0x82,0x67,0x40,0x00,0x88,0x39,0x40,0x70,0x81,0x33,0x40,0x00,
0x3d,0x40,0x70,0x81,0x33,0x40,0x00,0x3d,0x40,0x70,0x82,0x67,0x40,0x00,0x88,0x39,
0x40,0x70,0x82,0x67,0x40,0x00,0x79,0x40,0x70,0x77,0x40,0x00,0x01,0x40,0x70,0x82,
0x67,0x40,0x00,0x87,0x41,0x40,0x70,0x82,0x67,0x40,0x00,0x79,0x40,0x70,0x82,0x67,
0x40,0x00,0x88,0x39,0x40,0x70,0x82,0x67,0x40,0x00,0x79,0x40,0x70,0x82,0x67,0x40,
0x00,0x88,0x39,0x40,0x70,0x81,0x33,0x40,0x00,0x3d,0x40,0x70,0x81,0x33,0x40,0x00,
0x3d,0x40,0x70,0x82,0x67,0x40,0x00,0x88,0x39,0x40,0x70,0x82,0x67,0x40,0x00,0x79,
0x40,0x70,0x77,0x40,0x00,0x01,0x40,0x6e,0x82,0x67,0x40,0x00,0x87,0x41,0x40,0x53,
0x82,0x67,0x40,0x00,0x79,0x40,0x49,0x82,0x67,0x40,0x00,0x88,0x39,0x40,0x2b,0x82,
0x67,0x40,0x00,0x79,0x40,0x21,0x82,0x67,0x40,0x00,0x88,0x39,0x40,0x21,0x81,0x33,
0x40,0x00,0x3d,0x40,0x21,0x81,0x33,0x40,0x00,0x3d,0x40,0x21,0x82,0x67,0x40,0x00,
0x01,0xff,0x2f,0x00,0x4d,0x54,0x72,0x6b,0x00,0x00,0x05,0xc7,0x00,0xff,0x59,0x02,
0xfe,0x00,0x00,0xb2,0x79,0x00,0x00,0xc2,0x47,0x00,0xb2,0x07,0x4b,0x00,0x0a,0x40,
0x00,0x5b,0x00,0x00,0x5d,0x00,0x00,0xff,0x21,0x01,0x00,0xd0,0x50,0x92,0x40,0x50,
0x00,0x48,0x50,0x81,0x6f,0x40,0x00,0x00,0x48,0x00,0x81,0x71,0x40,0x50,0x00,0x48,
0x50,0x81,0x6f,0x40,0x00,0x00,0x48,0x00,0x81,0x71,0x40,0x50,0x00,0x48,0x50,0x81,
0x6f,0x40,0x00,0x00,0x48,0x00,0x81,0x71,0x40,0x50,0x00,0x47,0x50,0x81,0x6f,0x40,
0x00,0x00,0x47,0x00,0x81,0x71,0x40,0x50,0x00,0x47,0x50,0x81,0x6f,0x40,0x00,0x00,
0x47,0x00,0x81,0x71,0x40,0x50,0x00,0x47,0x50,0x81,0x6f,0x40,0x00,0x00,0x47,0x00,
0x81,0x71,0x40,0x50,0x00,0x47,0x50,0x81,0x6f,0x40,0x00,0x00,0x47,0x00,0x81,0x71,
0x40,0x50,0x00,0x47,0x50,0x81,0x6f,0x40,0x00,0x00,0x47,0x00,0x81,0x71,0x40,0x50,
0x00,0x47,0x50,0x81,0x6f,0x40,0x00,0x00,0x47,0x00,0x81,0x71,0x40,0x50,0x00,0x48,
0x50,0x81,0x6f,0x40,0x00,0x00,0x48,0x00,0x81,0x71,0x40,0x50,0x00,0x48,0x50,0x81,
0x6f,0x40,0x00,0x00,0x48,0x00,0x81,0x71,0x40,0x50,0x00,0x48,0x50,0x81,0x6f,0x40,
0x00,0x00,0x48,0x00,0x81,0x71,0x40,0x50,0x00,0x48,0x50,0x81,0x6f,0x40,0x00,0x00,
0x48,0x00,0x81,0x71,0x40,0x50,0x00,0x48,0x50,0x81,0x6f,0x40,0x00,0x00,0x48,0x00,
0x81,0x71,0x40,0x50,0x00,0x48,0x50,0x81,0x6f,0x40,0x00,0x00,0x48,0x00,0x81,0x71,
0x40,0x50,0x00,0x48,0x50,0x81,0x6f,0x40,0x00,0x00,0x48,0x00,0x81,0x71,0x40,0x50,
0x00,0x48,0x50,0x81,0x6f,0x40,0x00,0x00,0x48,0x00,0x81,0x71,0x40,0x50,0x00,0x48,
0x50,0x81,0x6f,0x40,0x00,0x00,0x48,0x00,0x81,0x71,0x40,0x50,0x00,0x47,0x50,0x81,
0x6f,0x40,0x00,0x00,0x47,0x00,0x81,0x71,0x40,0x50,0x00,0x47,0x50,0x81,0x6f,0x40,
0x00,0x00,0x47,0x00,0x81,0x71,0x40,0x50,0x00,0x47,0x50,0x81,0x6f,0x40,0x00,0x00,
0x47,0x00,0x81,0x71,0x40,0x50,0x00,0x47,0x50,0x81,0x6f,0x40,0x00,0x00,0x47,0x00,
0x81,0x71,0x40,0x50,0x00,0x47,0x50,0x81,0x6f,0x40,0x00,0x00,0x47,0x00,0x81,0x71,
0x40,0x50,0x00,0x47,0x50,0x81,0x6f,0x40,0x00,0x00,0x47,0x00,0x81,0x71,0x40,0x50,
0x00,0x48,0x50,0x81,0x6f,0x40,0x00,0x00,0x48,0x00,0x81,0x71,0x40,0x50,0x00,0x48,
0x50,0x81,0x6f,0x40,0x00,0x00,0x48,0x00,0x81,0x71,0x40,0x50,0x00,0x48,0x50,0x81,
0x6f,0x40,0x00,0x00,0x48,0x00,0x81,0x71,0x40,0x50,0x00,0x48,0x50,0x81,0x6f,0x40,
0x00,0x00,0x48,0x00,0x81,0x71,0x40,0x50,0x00,0x48,0x50,0x81,0x6f,0x40,0x00,0x00,
0x48,0x00,0x81,0x71,0x40,0x50,0x00,0x48,0x50,0x81,0x6f,0x40,0x00,0x00,0x48,0x00,
0x81,0x71,0x40,0x50,0x00,0x47,0x50,0x81,0x6f,0x40,0x00,0x00,0x47,0x00,0x81,0x71,
0x40,0x50,0x00,0x47,0x50,0x81,0x6f,0x40,0x00,0x00,0x47,0x00,0x81,0x71,0x40,0x50,
0x00,0x47,0x50,0x81,0x6f,0x40,0x00,0x00,0x47,0x00,0x81,0x71,0x40,0x50,0x00,0x47,
0x50,0x81,0x6f,0x40,0x00,0x00,0x47,0x00,0x81,0x71,0x40,0x50,0x00,0x47,0x50,0x81,
0x6f,0x40,0x00,0x00,0x47,0x00,0x81,0x71,0x40,0x50,0x00,0x47,0x50,0x81,0x6f,0x40,
0x00,0x00,0x47,0x00,0x81,0x71,0x40,0x50,0x00,0x48,0x50,0x81,0x6f,0x40,0x00,0x00,
0x48,0x00,0x81,0x71,0x40,0x50,0x00,0x48,0x50,0x81,0x6f,0x40,0x00,0x00,0x48,0x00,
0x81,0x71,0x40,0x50,0x00,0x48,0x50,0x81,0x6f,0x40,0x00,0x00,0x48,0x00,0x81,0x71,
0x40,0x50,0x00,0x48,0x50,0x81,0x6f,0x40,0x00,0x00,0x48,0x00,0x81,0x71,0x40,0x50,
0x00,0x48,0x50,0x81,0x6f,0x40,0x00,0x00,0x48,0x00,0x81,0x71,0x40,0x50,0x00,0x48,
0x50,0x81,0x6f,0x40,0x00,0x00,0x48,0x00,0x81,0x71,0x40,0x50,0x00,0x48,0x50,0x81,
0x6f,0x40,0x00,0x00,0x48,0x00,0x81,0x71,0x40,0x50,0x00,0x48,0x50,0x81,0x6f,0x40,
0x00,0x00,0x48,0x00,0x81,0x71,0x40,0x50,0x00,0x48,0x50,0x81,0x6f,0x40,0x00,0x00,
0x48,0x00,0x81,0x71,0x40,0x50,0x00,0x47,0x50,0x81,0x6f,0x40,0x00,0x00,0x47,0x00,
0x81,0x71,0x40,0x50,0x00,0x47,0x50,0x81,0x6f,0x40,0x00,0x00,0x47,0x00,0x81,0x71,
0x40,0x50,0x00,0x47,0x50,0x81,0x6f,0x40,0x00,0x00,0x47,0x00,0x81,0x71,0x40,0x50,
0x00,0x47,0x50,0x81,0x6f,0x40,0x00,0x00,0x47,0x00,0x81,0x71,0x40,0x50,0x00,0x47,
0x50,0x81,0x6f,0x40,0x00,0x00,0x47,0x00,0x81,0x71,0x40,0x50,0x00,0x47,0x50,0x81,
0x6f,0x40,0x00,0x00,0x47,0x00,0x81,0x71,0x40,0x60,0x00,0x48,0x60,0x81,0x6f,0x40,
0x00,0x00,0x48,0x00,0x81,0x71,0x40,0x60,0x00,0x48,0x60,0x81,0x6f,0x40,0x00,0x00,
0x48,0x00,0x81,0x71,0x40,0x60,0x00,0x48,0x60,0x81,0x6f,0x40,0x00,0x00,0x48,0x00,
0x81,0x71,0x40,0x60,0x00,0x48,0x60,0x81,0x6f,0x40,0x00,0x00,0x48,0x00,0x81,0x71,
0x40,0x60,0x00,0x48,0x60,0x81,0x6f,0x40,0x00,0x00,0x48,0x00,0x81,0x71,0x40,0x60,
0x00,0x48,0x60,0x81,0x6f,0x40,0x00,0x00,0x48,0x00,0x81,0x71,0x40,0x60,0x00,0x47,
0x60,0x81,0x6f,0x40,0x00,0x00,0x47,0x00,0x81,0x71,0x40,0x60,0x00,0x47,0x60,0x81,
0x6f,0x40,0x00,0x00,0x47,0x00,0x81,0x71,0x40,0x60,0x00,0x47,0x60,0x81,0x6f,0x40,
0x00,0x00,0x47,0x00,0x81,0x71,0x40,0x60,0x00,0x47,0x60,0x81,0x6f,0x40,0x00,0x00,
0x47,0x00,0x81,0x71,0x40,0x60,0x00,0x47,0x60,0x81,0x6f,0x40,0x00,0x00,0x47,0x00,
0x81,0x71,0x40,0x60,0x00,0x47,0x60,0x81,0x6f,0x40,0x00,0x00,0x47,0x00,0x81,0x71,
0x40,0x60,0x00,0x48,0x60,0x81,0x6f,0x40,0x00,0x00,0x48,0x00,0x81,0x71,0x40,0x60,
0x00,0x48,0x60,0x81,0x6f,0x40,0x00,0x00,0x48,0x00,0x81,0x71,0x40,0x60,0x00,0x48,
0x60,0x81,0x6f,0x40,0x00,0x00,0x48,0x00,0x81,0x71,0x40,0x60,0x00,0x48,0x60,0x81,
0x6f,0x40,0x00,0x00,0x48,0x00,0x81,0x71,0x40,0x60,0x00,0x48,0x60,0x81,0x6f,0x40,
0x00,0x00,0x48,0x00,0x81,0x71,0x40,0x60,0x00,0x48,0x60,0x81,0x6f,0x40,0x00,0x00,
0x48,0x00,0x81,0x71,0x40,0x60,0x00,0x48,0x60,0x81,0x6f,0x40,0x00,0x00,0x48,0x00,
0x81,0x71,0x40,0x60,0x00,0x48,0x60,0x81,0x6f,0x40,0x00,0x00,0x48,0x00,0x81,0x71,
0x40,0x60,0x00,0x48,0x60,0x81,0x6f,0x40,0x00,0x00,0x48,0x00,0x81,0x71,0x40,0x60,
0x00,0x4a,0x60,0x81,0x6f,0x40,0x00,0x00,0x4a,0x00,0x81,0x71,0x40,0x60,0x00,0x4a,
0x60,0x81,0x6f,0x40,0x00,0x00,0x4a,0x00,0x81,0x71,0x40,0x60,0x00,0x4a,0x60,0x81,
0x6f,0x40,0x00,0x00,0x4a,0x00,0xad,0x01,0x37,0x60,0x8b,0x1f,0x37,0x00,0x01,0x39,
0x64,0x8b,0x1f,0x39,0x00,0x01,0x3b,0x68,0x96,0x3f,0x3b,0x00,0x01,0x3c,0x70,0x8b,
0x1f,0x3c,0x00,0x01,0x3e,0x70,0x8b,0x1f,0x3e,0x00,0x01,0x3b,0x70,0x96,0x3f,0x3b,
0x00,0x01,0x39,0x60,0x82,0x67,0x39,0x00,0x88,0x39,0x39,0x60,0x82,0x67,0x39,0x00,
0x79,0x39,0x60,0x77,0x39,0x00,0x01,0x3b,0x60,0x82,0x67,0x3b,0x00,0x87,0x41,0x3b,
0x60,0x82,0x67,0x3b,0x00,0x79,0x3c,0x60,0x82,0x67,0x3c,0x00,0x88,0x39,0x3c,0x60,
0x82,0x67,0x3c,0x00,0x79,0x3e,0x60,0x82,0x67,0x3e,0x00,0x88,0x39,0x3e,0x60,0x81,
0x33,0x3e,0x00,0x3d,0x3e,0x60,0x81,0x33,0x3e,0x00,0x3d,0x39,0x60,0x82,0x67,0x39,
0x00,0x88,0x39,0x39,0x60,0x82,0x67,0x39,0x00,0x79,0x39,0x60,0x77,0x39,0x00,0x01,
0x3b,0x60,0x82,0x67,0x3b,0x00,0x87,0x41,0x3b,0x60,0x82,0x67,0x3b,0x00,0x79,0x3c,
0x60,0x82,0x67,0x3c,0x00,0x88,0x39,0x3c,0x60,0x82,0x67,0x3c,0x00,0x79,0x39,0x60,
0x82,0x67,0x39,0x00,0x88,0x39,0x39,0x60,0x82,0x67,0x39,0x00,0x79,0x39,0x60,0x77,
0x39,0x00,0x01,0x3b,0x60,0x82,0x67,0x3b,0x00,0x87,0x41,0x3b,0x60,0x82,0x67,0x3b,
0x00,0x79,0x3c,0x60,0x82,0x67,0x3c,0x00,0x88,0x39,0x3c,0x60,0x82,0x67,0x3c,0x00,
0x79,0x3e,0x60,0x82,0x67,0x3e,0x00,0x88,0x39,0x3e,0x60,0x81,0x33,0x3e,0x00,0x3d,
0x3e,0x60,0x81,0x33,0x3e,0x00,0x3d,0x39,0x60,0x82,0x67,0x39,0x00,0x88,0x39,0x39,
0x60,0x82,0x67,0x39,0x00,0x79,0x39,0x60,0x77,0x39,0x00,0x01,0x3b,0x60,0x82,0x67,
0x3b,0x00,0x87,0x41,0x3b,0x60,0x82,0x67,0x3b,0x00,0x79,0x3c,0x60,0x82,0x67,0x3c,
0x00,0x88,0x39,0x3c,0x60,0x82,0x67,0x3c,0x00,0x79,0x3e,0x60,0x82,0x67,0x3e,0x00,
0x88,0x39,0x3e,0x60,0x81,0x33,0x3e,0x00,0x3d,0x3e,0x60,0x81,0x33,0x3e,0x00,0x3d,
0x39,0x60,0x82,0x67,0x39,0x00,0x88,0x39,0x39,0x60,0x82,0x67,0x39,0x00,0x79,0x39,
0x60,0x77,0x39,0x00,0x01,0x3b,0x5f,0x82,0x67,0x3b,0x00,0x87,0x41,0x3b,0x49,0x82,
0x67,0x3b,0x00,0x79,0x3c,0x41,0x82,0x67,0x3c,0x00,0x88,0x39,0x3c,0x29,0x82,0x67,
0x3c,0x00,0x79,0x3e,0x21,0x82,0x67,0x3e,0x00,0x88,0x39,0x3e,0x21,0x81,0x33,0x3e,
0x00,0x3d,0x3e,0x21,0x81,0x33,0x3e,0x00,0x3d,0x39,0x21,0x82,0x67,0x39,0x00,0x01,
0xff,0x2f,0x00,0x4d,0x54,0x72,0x6b,0x00,0x00,0x0d,0x9b,0x00,0xff,0x59,0x02,0x00,
0x00,0x00,0xb3,0x79,0x00,0x00,0xc3,0x46,0x00,0xb3,0x07,0x7b,0x00,0x0a,0x40,0x00,
0x5b,0x00,0x00,0x5d,0x00,0x00,0xff,0x21,0x01,0x00,0xce,0x60,0x93,0x39,0x50,0x77,
0x39,0x00,0x01,0x34,0x50,0x77,0x34,0x00,0x01,0x3b,0x50,0x77,0x3b,0x00,0x01,0x34,
0x50,0x77,0x34,0x00,0x01,0x3c,0x50,0x77,0x3c,0x00,0x01,0x34,0x50,0x77,0x34,0x00,
0x01,0x3b,0x50,0x77,0x3b,0x00,0x01,0x34,0x50,0x77,0x34,0x00,0x01,0x39,0x50,0x77,
0x39,0x00,0x01,0x34,0x50,0x77,0x34,0x00,0x01,0x3c,0x50,0x77,0x3c,0x00,0x01,0x34,
0x50,0x77,0x34,0x00,0x01,0x3b,0x50,0x77,0x3b,0x00,0x01,0x34,0x50,0x77,0x34,0x00,
0x01,0x39,0x50,0x77,0x39,0x00,0x01,0x34,0x50,0x77,0x34,0x00,0x01,0x37,0x50,0x77,
0x37,0x00,0x01,0x34,0x50,0x77,0x34,0x00,0x01,0x39,0x50,0x77,0x39,0x00,0x01,0x34,
0x50,0x77,0x34,0x00,0x01,0x3b,0x50,0x77,0x3b,0x00,0x01,0x34,0x50,0x77,0x34,0x00,
0x01,0x37,0x50,0x77,0x37,0x00,0x01,0x34,0x50,0x77,0x34,0x00,0x01,0x39,0x50,0x77,
0x39,0x00,0x01,0x34,0x50,0x77,0x34,0x00,0x01,0x3b,0x50,0x77,0x3b,0x00,0x01,0x34,
0x50,0x77,0x34,0x00,0x01,0x37,0x50,0x77,0x37,0x00,0x01,0x34,0x50,0x77,0x34,0x00,
0x01,0x39,0x50,0x77,0x39,0x00,0x01,0x34,0x50,0x77,0x34,0x00,0x01,0x3b,0x50,0x77,
0x3b,0x00,0x01,0x34,0x50,0x77,0x34,0x00,0x01,0x37,0x50,0x77,0x37,0x00,0x01,0x34,
0x50,0x77,0x34,0x00,0x01,0x39,0x50,0x77,0x39,0x00,0x01,0x34,0x50,0x77,0x34,0x00,
0x01,0x30,0x50,0x77,0x30,0x00,0x01,0x34,0x50,0x77,0x34,0x00,0x01,0x3b,0x50,0x77,
0x3b,0x00,0x01,0x34,0x50,0x77,0x34,0x00,0x01,0x30,0x50,0x77,0x30,0x00,0x01,0x34,
0x50,0x77,0x34,0x00,0x01,0x3c,0x50,0x77,0x3c,0x00,0x01,0x34,0x50,0x77,0x34,0x00,
0x01,0x30,0x50,0x77,0x30,0x00,0x01,0x34,0x50,0x77,0x34,0x00,0x01,0x3b,0x50,0x77,
0x3b,0x00,0x01,0x34,0x50,0x77,0x34,0x00,0x01,0x30,0x50,0x77,0x30,0x00,0x01,0x34,
0x50,0x77,0x34,0x00,0x01,0x39,0x50,0x77,0x39,0x00,0x01,0x34,0x50,0x77,0x34,0x00,
0x01,0x30,0x50,0x77,0x30,0x00,0x01,0x34,0x50,0x77,0x34,0x00,0x01,0x3b,0x50,0x77,
0x3b,0x00,0x01,0x34,0x50,0x77,0x34,0x00,0x01,0x30,0x50,0x77,0x30,0x00,0x01,0x34,
0x50,0x77,0x34,0x00,0x01,0x3c,0x50,0x77,0x3c,0x00,0x01,0x34,0x50,0x77,0x34,0x00,
0x01,0x30,0x50,0x77,0x30,0x00,0x01,0x34,0x50,0x77,0x34,0x00,0x01,0x3c,0x50,0x77,
0x3c,0x00,0x01,0x34,0x50,0x77,0x34,0x00,0x01,0x30,0x50,0x77,0x30,0x00,0x01,0x34,
0x50,0x77,0x34,0x00,0x01,0x3c,0x50,0x77,0x3c,0x00,0x01,0x34,0x50,0x77,0x34,0x00,
0x01,0x30,0x50,0x77,0x30,0x00,0x01,0x34,0x50,0x77,0x34,0x00,0x01,0x3b,0x50,0x77,
0x3b,0x00,0x01,0x34,0x50,0x77,0x34,0x00,0x01,0x39,0x50,0x77,0x39,0x00,0x01,0x34,
0x50,0x77,0x34,0x00,0x01,0x37,0x50,0x77,0x37,0x00,0x01,0x34,0x50,0x77,0x34,0x00,
0x01,0x39,0x50,0x77,0x39,0x00,0x01,0x34,0x50,0x77,0x34,0x00,0x01,0x3b,0x50,0x77,
0x3b,0x00,0x01,0x34,0x50,0x77,0x34,0x00,0x01,0x37,0x50,0x77,0x37,0x00,0x01,0x34,
0x50,0x77,0x34,0x00,0x01,0x39,0x50,0x77,0x39,0x00,0x01,0x34,0x50,0x77,0x34,0x00,
0x01,0x3b,0x50,0x77,0x3b,0x00,0x01,0x34,0x50,0x77,0x34,0x00,0x01,0x37,0x50,0x77,
0x37,0x00,0x01,0x34,0x50,0x77,0x34,0x00,0x01,0x39,0x50,0x77,0x39,0x00,0x01,0x34,
0x50,0x77,0x34,0x00,0x01,0x3b,0x50,0x77,0x3b,0x00,0x01,0x34,0x50,0x77,0x34,0x00,
0x01,0x37,0x50,0x77,0x37,0x00,0x01,0x34,0x50,0x77,0x34,0x00,0x01,0x39,0x50,0x77,
0x39,0x00,0x01,0x34,0x50,0x77,0x34,0x00,0x01,0x3b,0x50,0x77,0x3b,0x00,0x01,0x34,
0x50,0x77,0x34,0x00,0x01,0x3c,0x50,0x77,0x3c,0x00,0x01,0x34,0x50,0x77,0x34,0x00,
0x01,0x3b,0x50,0x77,0x3b,0x00,0x01,0x34,0x50,0x77,0x34,0x00,0x01,0x39,0x50,0x77,
0x39,0x00,0x01,0x34,0x50,0x77,0x34,0x00,0x01,0x3c,0x50,0x77,0x3c,0x00,0x01,0x34,
0x50,0x77,0x34,0x00,0x01,0x39,0x50,0x77,0x39,0x00,0x01,0x34,0x50,0x77,0x34,0x00,
0x01,0x3b,0x50,0x77,0x3b,0x00,0x01,0x34,0x50,0x77,0x34,0x00,0x01,0x3c,0x50,0x77,
0x3c,0x00,0x01,0x34,0x50,0x77,0x34,0x00,0x01,0x3b,0x50,0x77,0x3b,0x00,0x01,0x34,
0x50,0x77,0x34,0x00,0x01,0x39,0x50,0x77,0x39,0x00,0x01,0x34,0x50,0x77,0x34,0x00,
0x01,0x3c,0x50,0x77,0x3c,0x00,0x01,0x34,0x50,0x77,0x34,0x00,0x01,0x3b,0x50,0x77,
0x3b,0x00,0x01,0x34,0x50,0x77,0x34,0x00,0x01,0x39,0x50,0x77,0x39,0x00,0x01,0x34,
0x50,0x77,0x34,0x00,0x01,0x37,0x50,0x77,0x37,0x00,0x01,0x34,0x50,0x77,0x34,0x00,
0x01,0x39,0x50,0x77,0x39,0x00,0x01,0x34,0x50,0x77,0x34,0x00,0x01,0x3b,0x50,0x77,
0x3b,0x00,0x01,0x34,0x50,0x77,0x34,0x00,0x01,0x37,0x50,0x77,0x37,0x00,0x01,0x34,
0x50,0x77,0x34,0x00,0x01,0x39,0x50,0x77,0x39,0x00,0x01,0x34,0x50,0x77,0x34,0x00,
0x01,0x3b,0x50,0x77,0x3b,0x00,0x01,0x34,0x50,0x77,0x34,0x00,0x01,0x37,0x50,0x77,
0x37,0x00,0x01,0x34,0x50,0x77,0x34,0x00,0x01,0x39,0x50,0x77,0x39,0x00,0x01,0x34,
0x50,0x77,0x34,0x00,0x01,0x3b,0x50,0x77,0x3b,0x00,0x01,0x34,0x50,0x77,0x34,0x00,
0x01,0x37,0x50,0x77,0x37,0x00,0x01,0x34,0x50,0x77,0x34,0x00,0x01,0x39,0x50,0x77,
0x39,0x00,0x01,0x34,0x50,0x77,0x34,0x00,0x01,0x30,0x50,0x77,0x30,0x00,0x01,0x34,
0x50,0x77,0x34,0x00,0x01,0x3b,0x50,0x77,0x3b,0x00,0x01,0x34,0x50,0x77,0x34,0x00,
0x01,0x30,0x50,0x77,0x30,0x00,0x01,0x34,0x50,0x77,0x34,0x00,0x01,0x3c,0x50,0x77,
0x3c,0x00,0x01,0x34,0x50,0x77,0x34,0x00,0x01,0x30,0x50,0x77,0x30,0x00,0x01,0x34,
0x50,0x77,0x34,0x00,0x01,0x3b,0x50,0x77,0x3b,0x00,0x01,0x34,0x50,0x77,0x34,0x00,
0x01,0x30,0x50,0x77,0x30,0x00,0x01,0x34,0x50,0x77,0x34,0x00,0x01,0x39,0x50,0x77,
0x39,0x00,0x01,0x34,0x50,0x77,0x34,0x00,0x01,0x30,0x50,0x77,0x30,0x00,0x01,0x34,
0x50,0x77,0x34,0x00,0x01,0x3b,0x50,0x77,0x3b,0x00,0x01,0x34,0x50,0x77,0x34,0x00,
0x01,0x30,0x50,0x77,0x30,0x00,0x01,0x34,0x50,0x77,0x34,0x00,0x01,0x3c,0x50,0x77,
0x3c,0x00,0x01,0x34,0x50,0x77,0x34,0x00,0x01,0x30,0x50,0x77,0x30,0x00,0x01,0x34,
0x50,0x77,0x34,0x00,0x01,0x3c,0x50,0x77,0x3c,0x00,0x01,0x34,0x50,0x77,0x34,0x00,
0x01,0x30,0x50,0x77,0x30,0x00,0x01,0x34,0x50,0x77,0x34,0x00,0x01,0x3c,0x50,0x77,
0x3c,0x00,0x01,0x34,0x50,0x77,0x34,0x00,0x01,0x30,0x50,0x77,0x30,0x00,0x01,0x34,
0x50,0x77,0x34,0x00,0x01,0x3b,0x50,0x77,0x3b,0x00,0x01,0x34,0x50,0x77,0x34,0x00,
0x01,0x39,0x50,0x77,0x39,0x00,0x01,0x34,0x50,0x77,0x34,0x00,0x01,0x37,0x50,0x77,
0x37,0x00,0x01,0x34,0x50,0x77,0x34,0x00,0x01,0x39,0x50,0x77,0x39,0x00,0x01,0x34,
0x50,0x77,0x34,0x00,0x01,0x3b,0x50,0x77,0x3b,0x00,0x01,0x34,0x50,0x77,0x34,0x00,
0x01,0x37,0x50,0x77,0x37,0x00,0x01,0x34,0x50,0x77,0x34,0x00,0x01,0x3b,0x50,0x77,
0x3b,0x00,0x01,0x34,0x50,0x77,0x34,0x00,0x01,0x39,0x50,0x77,0x39,0x00,0x01,0x34,
0x50,0x77,0x34,0x00,0x01,0x37,0x50,0x77,0x37,0x00,0x01,0x34,0x50,0x77,0x34,0x00,
0x01,0x39,0x50,0x77,0x39,0x00,0x01,0x34,0x50,0x77,0x34,0x00,0x01,0x3b,0x50,0x77,
0x3b,0x00,0x01,0x34,0x50,0x77,0x34,0x00,0x01,0x37,0x50,0x77,0x37,0x00,0x01,0x34,
0x50,0x77,0x34,0x00,0x01,0x39,0x50,0x77,0x39,0x00,0x01,0x34,0x50,0x77,0x34,0x00,
0x01,0x30,0x50,0x77,0x30,0x00,0x01,0x34,0x50,0x77,0x34,0x00,0x01,0x39,0x50,0x77,
0x39,0x00,0x01,0x34,0x50,0x77,0x34,0x00,0x01,0x30,0x50,0x77,0x30,0x00,0x01,0x34,
0x50,0x77,0x34,0x00,0x01,0x40,0x50,0x77,0x40,0x00,0x01,0x34,0x50,0x77,0x34,0x00,
0x01,0x30,0x50,0x77,0x30,0x00,0x01,0x34,0x50,0x77,0x34,0x00,0x01,0x3c,0x50,0x77,
0x3c,0x00,0x01,0x34,0x50,0x77,0x34,0x00,0x01,0x30,0x50,0x77,0x30,0x00,0x01,0x34,
0x50,0x77,0x34,0x00,0x01,0x3c,0x50,0x77,0x3c,0x00,0x01,0x34,0x50,0x77,0x34,0x00,
0x01,0x30,0x50,0x77,0x30,0x00,0x01,0x34,0x50,0x77,0x34,0x00,0x01,0x3c,0x50,0x77,
0x3c,0x00,0x01,0x34,0x50,0x77,0x34,0x00,0x01,0x30,0x50,0x77,0x30,0x00,0x01,0x34,
0x50,0x77,0x34,0x00,0x01,0x3b,0x50,0x77,0x3b,0x00,0x01,0x34,0x50,0x77,0x34,0x00,
0x01,0x39,0x50,0x77,0x39,0x00,0x01,0x34,0x50,0x77,0x34,0x00,0x01,0x37,0x50,0x77,
0x37,0x00,0x01,0x34,0x50,0x77,0x34,0x00,0x01,0x39,0x50,0x77,0x39,0x00,0x01,0x34,
0x50,0x77,0x34,0x00,0x01,0x3b,0x50,0x77,0x3b,0x00,0x01,0x34,0x50,0x77,0x34,0x00,
0x01,0x37,0x50,0x77,0x37,0x00,0x01,0x34,0x50,0x77,0x34,0x00,0x01,0x3b,0x50,0x77,
0x3b,0x00,0x01,0x34,0x50,0x77,0x34,0x00,0x01,0x39,0x50,0x77,0x39,0x00,0x01,0x34,
0x50,0x77,0x34,0x00,0x01,0x37,0x50,0x77,0x37,0x00,0x01,0x34,0x50,0x77,0x34,0x00,
0x01,0x39,0x50,0x77,0x39,0x00,0x01,0x34,0x50,0x77,0x34,0x00,0x01,0x3b,0x50,0x77,
0x3b,0x00,0x01,0x34,0x50,0x77,0x34,0x00,0x01,0x37,0x50,0x77,0x37,0x00,0x01,0x34,
0x50,0x77,0x34,0x00,0x01,0x39,0x60,0x77,0x39,0x00,0x01,0x34,0x60,0x77,0x34,0x00,
0x01,0x30,0x60,0x77,0x30,0x00,0x01,0x34,0x60,0x77,0x34,0x00,0x01,0x40,0x60,0x77,
0x40,0x00,0x01,0x34,0x60,0x77,0x34,0x00,0x01,0x30,0x60,0x77,0x30,0x00,0x01,0x34,
0x60,0x77,0x34,0x00,0x01,0x3c,0x60,0x77,0x3c,0x00,0x01,0x34,0x60,0x77,0x34,0x00,
0x01,0x30,0x60,0x77,0x30,0x00,0x01,0x34,0x60,0x77,0x34,0x00,0x01,0x3b,0x60,0x77,
0x3b,0x00,0x01,0x34,0x60,0x77,0x34,0x00,0x01,0x30,0x60,0x77,0x30,0x00,0x01,0x34,
0x60,0x77,0x34,0x00,0x01,0x39,0x60,0x77,0x39,0x00,0x01,0x34,0x60,0x77,0x34,0x00,
0x01,0x30,0x60,0x77,0x30,0x00,0x01,0x34,0x60,0x77,0x34,0x00,0x01,0x3b,0x60,0x77,
0x3b,0x00,0x01,0x34,0x60,0x77,0x34,0x00,0x01,0x30,0x60,0x77,0x30,0x00,0x01,0x34,
0x60,0x77,0x34,0x00,0x01,0x3c,0x60,0x77,0x3c,0x00,0x01,0x34,0x60,0x77,0x34,0x00,
0x01,0x30,0x60,0x77,0x30,0x00,0x01,0x34,0x60,0x77,0x34,0x00,0x01,0x3c,0x60,0x77,
0x3c,0x00,0x01,0x34,0x60,0x77,0x34,0x00,0x01,0x30,0x60,0x77,0x30,0x00,0x01,0x34,
0x60,0x77,0x34,0x00,0x01,0x3c,0x60,0x77,0x3c,0x00,0x01,0x34,0x60,0x77,0x34,0x00,
0x01,0x30,0x60,0x77,0x30,0x00,0x01,0x34,0x60,0x77,0x34,0x00,0x01,0x3e,0x60,0x77,
0x3e,0x00,0x01,0x34,0x60,0x77,0x34,0x00,0x01,0x30,0x60,0x77,0x30,0x00,0x01,0x34,
0x60,0x77,0x34,0x00,0x01,0x3e,0x60,0x77,0x3e,0x00,0x01,0x34,0x60,0x77,0x34,0x00,
0x01,0x30,0x60,0x77,0x30,0x00,0x01,0x34,0x60,0x77,0x34,0x00,0x01,0x3e,0x60,0x77,
0x3e,0x00,0x01,0x34,0x60,0x77,0x34,0x00,0x01,0x30,0x60,0x77,0x30,0x00,0x01,0x34,
0x60,0x77,0x34,0x00,0x01,0x34,0x60,0x1d,0x34,0x00,0x1f,0x34,0x60,0x1d,0x34,0x00,
0x1f,0x34,0x60,0x77,0x34,0x00,0x01,0x36,0x60,0x1d,0x36,0x00,0x1f,0x36,0x60,0x1d,
0x36,0x00,0x1f,0x36,0x60,0x77,0x36,0x00,0x01,0x37,0x60,0x1d,0x37,0x00,0x1f,0x37,
0x60,0x1d,0x37,0x00,0x1f,0x37,0x60,0x77,0x37,0x00,0x01,0x36,0x60,0x1d,0x36,0x00,
0x1f,0x36,0x60,0x1d,0x36,0x00,0x1f,0x36,0x60,0x77,0x36,0x00,0x01,0x34,0x60,0x1d,
0x34,0x00,0x1f,0x34,0x60,0x1d,0x34,0x00,0x1f,0x34,0x60,0x77,0x34,0x00,0x01,0x37,
0x60,0x1d,0x37,0x00,0x1f,0x37,0x60,0x1d,0x37,0x00,0x1f,0x37,0x60,0x77,0x37,0x00,
0x01,0x36,0x60,0x1d,0x36,0x00,0x1f,0x36,0x60,0x1d,0x36,0x00,0x1f,0x36,0x60,0x77,
0x36,0x00,0x01,0x34,0x60,0x1d,0x34,0x00,0x1f,0x34,0x60,0x1d,0x34,0x00,0x1f,0x34,
0x60,0x77,0x34,0x00,0x01,0x32,0x60,0x1d,0x32,0x00,0x1f,0x32,0x60,0x1d,0x32,0x00,
0x1f,0x32,0x60,0x77,0x32,0x00,0x01,0x34,0x60,0x1d,0x34,0x00,0x1f,0x34,0x60,0x1d,
0x34,0x00,0x1f,0x34,0x60,0x77,0x34,0x00,0x01,0x36,0x60,0x1d,0x36,0x00,0x1f,0x36,
0x60,0x1d,0x36,0x00,0x1f,0x36,0x60,0x77,0x36,0x00,0x01,0x32,0x60,0x1d,0x32,0x00,
0x1f,0x32,0x60,0x1d,0x32,0x00,0x1f,0x32,0x60,0x77,0x32,0x00,0x01,0x34,0x60,0x1d,
0x34,0x00,0x1f,0x34,0x60,0x1d,0x34,0x00,0x1f,0x34,0x60,0x77,0x34,0x00,0x01,0x36,
0x60,0x1d,0x36,0x00,0x1f,0x36,0x60,0x1d,0x36,0x00,0x1f,0x36,0x60,0x77,0x36,0x00,
0x01,0x37,0x60,0x1d,0x37,0x00,0x1f,0x37,0x60,0x1d,0x37,0x00,0x1f,0x37,0x60,0x77,
0x37,0x00,0x01,0x36,0x60,0x1d,0x36,0x00,0x1f,0x36,0x60,0x1d,0x36,0x00,0x1f,0x36,
0x60,0x77,0x36,0x00,0x01,0x34,0x60,0x1d,0x34,0x00,0x1f,0x34,0x60,0x1d,0x34,0x00,
0x1f,0x34,0x60,0x77,0x34,0x00,0x01,0x37,0x60,0x1d,0x37,0x00,0x1f,0x37,0x60,0x1d,
0x37,0x00,0x1f,0x37,0x60,0x77,0x37,0x00,0x01,0x36,0x60,0x1d,0x36,0x00,0x1f,0x36,
0x60,0x1d,0x36,0x00,0x1f,0x36,0x60,0x77,0x36,0x00,0x01,0x34,0x60,0x1d,0x34,0x00,
0x1f,0x34,0x60,0x1d,0x34,0x00,0x1f,0x34,0x60,0x77,0x34,0x00,0x01,0x36,0x60,0x1d,
0x36,0x00,0x1f,0x36,0x60,0x1d,0x36,0x00,0x1f,0x36,0x60,0x77,0x36,0x00,0x01,0x37,
0x60,0x1d,0x37,0x00,0x1f,0x37,0x60,0x1d,0x37,0x00,0x1f,0x37,0x60,0x77,0x37,0x00,
0x01,0x36,0x60,0x1d,0x36,0x00,0x1f,0x36,0x60,0x1d,0x36,0x00,0x1f,0x36,0x60,0x77,
0x36,0x00,0x01,0x3b,0x60,0x1d,0x3b,0x00,0x1f,0x3b,0x60,0x1d,0x3b,0x00,0x1f,0x3b,
0x60,0x77,0x3b,0x00,0x01,0x34,0x60,0x1d,0x34,0x00,0x1f,0x34,0x60,0x1d,0x34,0x00,
0x1f,0x34,0x60,0x77,0x34,0x00,0x01,0x36,0x60,0x1d,0x36,0x00,0x1f,0x36,0x60,0x1d,
0x36,0x00,0x1f,0x36,0x60,0x77,0x36,0x00,0x01,0x37,0x60,0x1d,0x37,0x00,0x1f,0x37,
0x60,0x1d,0x37,0x00,0x1f,0x37,0x60,0x77,0x37,0x00,0x01,0x36,0x60,0x1d,0x36,0x00,
0x1f,0x36,0x60,0x1d,0x36,0x00,0x1f,0x36,0x60,0x77,0x36,0x00,0x01,0x34,0x60,0x1d,
0x34,0x00,0x1f,0x34,0x60,0x1d,0x34,0x00,0x1f,0x34,0x60,0x77,0x34,0x00,0x01,0x37,
0x60,0x1d,0x37,0x00,0x1f,0x37,0x60,0x1d,0x37,0x00,0x1f,0x37,0x60,0x77,0x37,0x00,
0x01,0x36,0x60,0x1d,0x36,0x00,0x1f,0x36,0x60,0x1d,0x36,0x00,0x1f,0x36,0x60,0x77,
0x36,0x00,0x01,0x34,0x60,0x1d,0x34,0x00,0x1f,0x34,0x60,0x1d,0x34,0x00,0x1f,0x34,
0x60,0x77,0x34,0x00,0x01,0x36,0x60,0x1d,0x36,0x00,0x1f,0x36,0x60,0x1d,0x36,0x00,
0x1f,0x36,0x60,0x77,0x36,0x00,0x01,0x37,0x60,0x1d,0x37,0x00,0x1f,0x37,0x60,0x1d,
0x37,0x00,0x1f,0x37,0x60,0x77,0x37,0x00,0x01,0x36,0x60,0x1d,0x36,0x00,0x1f,0x36,
0x60,0x1d,0x36,0x00,0x1f,0x36,0x60,0x77,0x36,0x00,0x01,0x3b,0x60,0x1d,0x3b,0x00,
0x1f,0x3b,0x60,0x1d,0x3b,0x00,0x1f,0x3b,0x60,0x77,0x3b,0x00,0x01,0x34,0x60,0x1d,
0x34,0x00,0x1f,0x34,0x60,0x1d,0x34,0x00,0x1f,0x34,0x60,0x77,0x34,0x00,0x01,0x36,
0x60,0x1d,0x36,0x00,0x1f,0x36,0x60,0x1d,0x36,0x00,0x1f,0x36,0x60,0x77,0x36,0x00,
0x01,0x37,0x60,0x1d,0x37,0x00,0x1f,0x37,0x60,0x1d,0x37,0x00,0x1f,0x37,0x60,0x77,
0x37,0x00,0x01,0x36,0x60,0x1d,0x36,0x00,0x1f,0x36,0x60,0x1d,0x36,0x00,0x1f,0x36,
0x60,0x77,0x36,0x00,0x01,0x34,0x60,0x1d,0x34,0x00,0x1f,0x34,0x60,0x1d,0x34,0x00,
0x1f,0x34,0x60,0x77,0x34,0x00,0x01,0x37,0x60,0x1d,0x37,0x00,0x1f,0x37,0x60,0x1d,
0x37,0x00,0x1f,0x37,0x60,0x77,0x37,0x00,0x01,0x36,0x60,0x1d,0x36,0x00,0x1f,0x36,
0x60,0x1d,0x36,0x00,0x1f,0x36,0x60,0x77,0x36,0x00,0x01,0x34,0x60,0x1d,0x34,0x00,
0x1f,0x34,0x60,0x1d,0x34,0x00,0x1f,0x34,0x60,0x77,0x34,0x00,0x01,0x32,0x60,0x1d,
0x32,0x00,0x1f,0x32,0x60,0x1d,0x32,0x00,0x1f,0x32,0x60,0x77,0x32,0x00,0x01,0x34,
0x60,0x1d,0x34,0x00,0x1f,0x34,0x60,0x1d,0x34,0x00,0x1f,0x34,0x60,0x77,0x34,0x00,
0x01,0x36,0x60,0x1d,0x36,0x00,0x1f,0x36,0x60,0x1d,0x36,0x00,0x1f,0x36,0x60,0x77,
0x36,0x00,0x01,0x32,0x60,0x1d,0x32,0x00,0x1f,0x32,0x60,0x1d,0x32,0x00,0x1f,0x32,
0x60,0x77,0x32,0x00,0x01,0x34,0x60,0x1d,0x34,0x00,0x1f,0x34,0x60,0x1d,0x34,0x00,
0x1f,0x34,0x60,0x77,0x34,0x00,0x01,0x36,0x60,0x1d,0x36,0x00,0x1f,0x36,0x60,0x1d,
0x36,0x00,0x1f,0x36,0x60,0x77,0x36,0x00,0x01,0x37,0x60,0x1d,0x37,0x00,0x1f,0x37,
0x60,0x1d,0x37,0x00,0x1f,0x37,0x60,0x77,0x37,0x00,0x01,0x36,0x60,0x1d,0x36,0x00,
0x1f,0x36,0x60,0x1d,0x36,0x00,0x1f,0x36,0x60,0x77,0x36,0x00,0x01,0x34,0x60,0x1d,
0x34,0x00,0x1f,0x34,0x60,0x1d,0x34,0x00,0x1f,0x34,0x60,0x77,0x34,0x00,0x01,0x37,
0x60,0x1d,0x37,0x00,0x1f,0x37,0x60,0x1d,0x37,0x00,0x1f,0x37,0x60,0x77,0x37,0x00,
0x01,0x36,0x60,0x1d,0x36,0x00,0x1f,0x36,0x60,0x1d,0x36,0x00,0x1f,0x36,0x60,0x77,
0x36,0x00,0x01,0x34,0x60,0x1d,0x34,0x00,0x1f,0x34,0x60,0x1d,0x34,0x00,0x1f,0x34,
0x60,0x77,0x34,0x00,0x01,0x36,0x60,0x1d,0x36,0x00,0x1f,0x36,0x60,0x1d,0x36,0x00,
0x1f,0x36,0x60,0x77,0x36,0x00,0x01,0x37,0x60,0x1d,0x37,0x00,0x1f,0x37,0x60,0x1d,
0x37,0x00,0x1f,0x37,0x60,0x77,0x37,0x00,0x01,0x36,0x60,0x1d,0x36,0x00,0x1f,0x36,
0x60,0x1d,0x36,0x00,0x1f,0x36,0x60,0x77,0x36,0x00,0x01,0x3b,0x60,0x1d,0x3b,0x00,
0x1f,0x3b,0x60,0x1d,0x3b,0x00,0x1f,0x3b,0x60,0x77,0x3b,0x00,0x01,0x34,0x60,0x1d,
0x34,0x00,0x1f,0x34,0x60,0x1d,0x34,0x00,0x1f,0x34,0x60,0x77,0x34,0x00,0x01,0x36,
0x60,0x1d,0x36,0x00,0x1f,0x36,0x60,0x1d,0x36,0x00,0x1f,0x36,0x60,0x77,0x36,0x00,
0x01,0x37,0x60,0x1d,0x37,0x00,0x1f,0x37,0x60,0x1d,0x37,0x00,0x1f,0x37,0x60,0x77,
0x37,0x00,0x01,0x36,0x60,0x1d,0x36,0x00,0x1f,0x36,0x60,0x1d,0x36,0x00,0x1f,0x36,
0x60,0x77,0x36,0x00,0x01,0x34,0x60,0x1d,0x34,0x00,0x1f,0x34,0x60,0x1d,0x34,0x00,
0x1f,0x34,0x60,0x77,0x34,0x00,0x01,0x37,0x60,0x1d,0x37,0x00,0x1f,0x37,0x60,0x1d,
0x37,0x00,0x1f,0x37,0x60,0x77,0x37,0x00,0x01,0x36,0x60,0x1d,0x36,0x00,0x1f,0x36,
0x60,0x1d,0x36,0x00,0x1f,0x36,0x60,0x77,0x36,0x00,0x01,0x34,0x60,0x1d,0x34,0x00,
0x1f,0x34,0x60,0x1d,0x34,0x00,0x1f,0x34,0x60,0x77,0x34,0x00,0x01,0x32,0x60,0x1d,
0x32,0x00,0x1f,0x32,0x60,0x1d,0x32,0x00,0x1f,0x32,0x60,0x77,0x32,0x00,0x01,0x34,
0x60,0x1d,0x34,0x00,0x1f,0x34,0x60,0x1d,0x34,0x00,0x1f,0x34,0x60,0x77,0x34,0x00,
0x01,0x36,0x60,0x1d,0x36,0x00,0x1f,0x36,0x60,0x1d,0x36,0x00,0x1f,0x36,0x60,0x77,
0x36,0x00,0x01,0x32,0x60,0x1d,0x32,0x00,0x1f,0x32,0x60,0x1d,0x32,0x00,0x1f,0x32,
0x60,0x77,0x32,0x00,0x01,0x35,0x70,0x82,0x67,0x35,0x00,0x88,0x39,0x35,0x70,0x82,
0x67,0x35,0x00,0x79,0x35,0x70,0x77,0x35,0x00,0x01,0x37,0x70,0x82,0x67,0x37,0x00,
0x87,0x41,0x37,0x70,0x82,0x67,0x37,0x00,0x79,0x39,0x70,0x82,0x67,0x39,0x00,0x88,
0x39,0x39,0x70,0x82,0x67,0x39,0x00,0x79,0x3b,0x70,0x82,0x67,0x3b,0x00,0x88,0x39,
0x3b,0x70,0x81,0x33,0x3b,0x00,0x3d,0x3b,0x70,0x81,0x33,0x3b,0x00,0x3d,0x35,0x70,
0x82,0x67,0x35,0x00,0x88,0x39,0x35,0x70,0x82,0x67,0x35,0x00,0x79,0x35,0x70,0x77,
0x35,0x00,0x01,0x37,0x70,0x82,0x67,0x37,0x00,0x87,0x41,0x37,0x70,0x82,0x67,0x37,
0x00,0x79,0x39,0x70,0x82,0x67,0x39,0x00,0x88,0x39,0x39,0x70,0x82,0x67,0x39,0x00,
0x79,0x35,0x70,0x82,0x67,0x35,0x00,0x88,0x39,0x35,0x70,0x82,0x67,0x35,0x00,0x79,
0x35,0x70,0x77,0x35,0x00,0x01,0x37,0x70,0x82,0x67,0x37,0x00,0x87,0x41,0x37,0x70,
0x82,0x67,0x37,0x00,0x79,0x39,0x70,0x82,0x67,0x39,0x00,0x88,0x39,0x39,0x70,0x82,
0x67,0x39,0x00,0x79,0x3b,0x70,0x82,0x67,0x3b,0x00,0x88,0x39,0x3b,0x70,0x81,0x33,
0x3b,0x00,0x3d,0x3b,0x70,0x81,0x33,0x3b,0x00,0x3d,0x35,0x70,0x82,0x67,0x35,0x00,
0x88,0x39,0x35,0x70,0x82,0x67,0x35,0x00,0x79,0x35,0x70,0x77,0x35,0x00,0x01,0x37,
0x70,0x82,0x67,0x37,0x00,0x87,0x41,0x37,0x70,0x82,0x67,0x37,0x00,0x79,0x39,0x70,
0x82,0x67,0x39,0x00,0x88,0x39,0x39,0x70,0x82,0x67,0x39,0x00,0x79,0x3b,0x70,0x82,
0x67,0x3b,0x00,0x88,0x39,0x3b,0x70,0x81,0x33,0x3b,0x00,0x3d,0x3b,0x70,0x81,0x33,
0x3b,0x00,0x3d,0x35,0x70,0x82,0x67,0x35,0x00,0x88,0x39,0x35,0x70,0x82,0x67,0x35,
0x00,0x79,0x35,0x70,0x77,0x35,0x00,0x01,0x37,0x6e,0x82,0x67,0x37,0x00,0x87,0x41,
0x37,0x53,0x82,0x67,0x37,0x00,0x79,0x39,0x49,0x82,0x67,0x39,0x00,0x88,0x39,0x39,
0x2b,0x82,0x67,0x39,0x00,0x79,0x3b,0x21,0x82,0x67,0x3b,0x00,0x88,0x39,0x3b,0x21,
0x81,0x33,0x3b,0x00,0x3d,0x3b,0x21,0x81,0x33,0x3b,0x00,0x3d,0x35,0x21,0x82,0x67,
0x35,0x00,0x01,0xff,0x2f,0x00,0x4d,0x54,0x72,0x6b,0x00,0x00,0x05,0xca,0x00,0xff,
0x59,0x02,0x00,0x00,0x00,0xb4,0x79,0x00,0x00,0xc4,0x46,0x00,0xb4,0x07,0x7a,0x00,
0x0a,0x40,0x00,0x5b,0x00,0x00,0x5d,0x00,0x00,0xff,0x21,0x01,0x00,0xcf,0x58,0x94,
0x28,0x50,0x81,0x6f,0x28,0x00,0x01,0x28,0x50,0x81,0x6f,0x28,0x00,0x01,0x28,0x50,
0x81,0x6f,0x28,0x00,0x01,0x28,0x50,0x81,0x6f,0x28,0x00,0x01,0x28,0x50,0x81,0x6f,
0x28,0x00,0x01,0x28,0x50,0x81,0x6f,0x28,0x00,0x01,0x28,0x50,0x81,0x6f,0x28,0x00,
0x01,0x28,0x50,0x81,0x6f,0x28,0x00,0x01,0x28,0x50,0x81,0x6f,0x28,0x00,0x01,0x28,
0x50,0x81,0x6f,0x28,0x00,0x01,0x28,0x50,0x81,0x6f,0x28,0x00,0x01,0x28,0x50,0x81,
0x6f,0x28,0x00,0x01,0x28,0x50,0x81,0x6f,0x28,0x00,0x01,0x28,0x50,0x81,0x6f,0x28,
0x00,0x01,0x28,0x50,0x81,0x6f,0x28,0x00,0x01,0x28,0x50,0x81,0x6f,0x28,0x00,0x01,
0x28,0x50,0x81,0x6f,0x28,0x00,0x01,0x28,0x50,0x81,0x6f,0x28,0x00,0x79,0x28,0x50,
0x81,0x6f,0x28,0x00,0x81,0x71,0x28,0x50,0x81,0x6f,0x28,0x00,0x81,0x71,0x28,0x50,
0x81,0x6f,0x28,0x00,0x81,0x71,0x28,0x50,0x81,0x6f,0x28,0x00,0x81,0x71,0x28,0x50,
0x81,0x6f,0x28,0x00,0x81,0x71,0x28,0x50,0x81,0x6f,0x28,0x00,0x81,0x71,0x28,0x50,
0x81,0x6f,0x28,0x00,0x79,0x28,0x50,0x81,0x6f,0x28,0x00,0x01,0x28,0x50,0x81,0x6f,
0x28,0x00,0x01,0x28,0x50,0x81,0x6f,0x28,0x00,0x01,0x28,0x50,0x81,0x6f,0x28,0x00,
0x01,0x28,0x50,0x81,0x6f,0x28,0x00,0x01,0x28,0x50,0x81,0x6f,0x28,0x00,0x01,0x28,
0x50,0x81,0x6f,0x28,0x00,0x01,0x28,0x50,0x81,0x6f,0x28,0x00,0x01,0x28,0x50,0x81,
0x6f,0x28,0x00,0x01,0x28,0x50,0x81,0x6f,0x28,0x00,0x01,0x28,0x50,0x81,0x6f,0x28,
0x00,0x01,0x28,0x50,0x81,0x6f,0x28,0x00,0x01,0x28,0x50,0x81,0x6f,0x28,0x00,0x01,
0x28,0x50,0x81,0x6f,0x28,0x00,0x01,0x28,0x50,0x81,0x6f,0x28,0x00,0x01,0x28,0x50,
0x81,0x6f,0x28,0x00,0x01,0x28,0x50,0x81,0x6f,0x28,0x00,0x01,0x28,0x50,0x81,0x6f,
0x28,0x00,0x01,0x28,0x50,0x81,0x6f,0x28,0x00,0x01,0x28,0x50,0x81,0x6f,0x28,0x00,
0x01,0x28,0x50,0x81,0x6f,0x28,0x00,0x01,0x28,0x50,0x81,0x6f,0x28,0x00,0x01,0x28,
0x50,0x81,0x6f,0x28,0x00,0x01,0x28,0x50,0x81,0x6f,0x28,0x00,0x01,0x28,0x50,0x81,
0x6f,0x28,0x00,0x01,0x28,0x50,0x81,0x6f,0x28,0x00,0x01,0x28,0x50,0x81,0x6f,0x28,
0x00,0x01,0x28,0x50,0x81,0x6f,0x28,0x00,0x01,0x28,0x50,0x81,0x6f,0x28,0x00,0x01,
0x28,0x50,0x81,0x6f,0x28,0x00,0x01,0x28,0x50,0x81,0x6f,0x28,0x00,0x01,0x28,0x50,
0x81,0x6f,0x28,0x00,0x01,0x28,0x50,0x81,0x6f,0x28,0x00,0x01,0x28,0x50,0x81,0x6f,
0x28,0x00,0x01,0x28,0x50,0x81,0x6f,0x28,0x00,0x01,0x28,0x50,0x81,0x6f,0x28,0x00,
0x01,0x28,0x50,0x81,0x6f,0x28,0x00,0x01,0x28,0x50,0x81,0x6f,0x28,0x00,0x01,0x28,
0x50,0x81,0x6f,0x28,0x00,0x01,0x28,0x50,0x81,0x6f,0x28,0x00,0x79,0x28,0x50,0x81,
0x6f,0x28,0x00,0x81,0x71,0x28,0x50,0x81,0x6f,0x28,0x00,0x81,0x71,0x28,0x50,0x81,
0x6f,0x28,0x00,0x81,0x71,0x28,0x50,0x81,0x6f,0x28,0x00,0x81,0x71,0x28,0x50,0x81,
0x6f,0x28,0x00,0x81,0x71,0x28,0x50,0x81,0x6f,0x28,0x00,0x81,0x71,0x28,0x50,0x81,
0x6f,0x28,0x00,0x79,0x28,0x50,0x81,0x6f,0x28,0x00,0x01,0x28,0x50,0x81,0x6f,0x28,
0x00,0x01,0x28,0x50,0x81,0x6f,0x28,0x00,0x01,0x28,0x50,0x81,0x6f,0x28,0x00,0x01,
0x28,0x50,0x81,0x6f,0x28,0x00,0x01,0x28,0x50,0x81,0x6f,0x28,0x00,0x01,0x28,0x50,
0x81,0x6f,0x28,0x00,0x01,0x28,0x50,0x81,0x6f,0x28,0x00,0x01,0x28,0x50,0x81,0x6f,
0x28,0x00,0x01,0x28,0x50,0x81,0x6f,0x28,0x00,0x01,0x28,0x50,0x81,0x6f,0x28,0x00,
0x01,0x28,0x50,0x81,0x6f,0x28,0x00,0x01,0x28,0x50,0x81,0x6f,0x28,0x00,0x01,0x28,
0x50,0x81,0x6f,0x28,0x00,0x01,0x28,0x50,0x81,0x6f,0x28,0x00,0x01,0x28,0x50,0x81,
0x6f,0x28,0x00,0x79,0x28,0x50,0x81,0x6f,0x28,0x00,0x81,0x71,0x28,0x50,0x81,0x6f,
0x28,0x00,0x81,0x71,0x28,0x50,0x81,0x6f,0x28,0x00,0x81,0x71,0x28,0x50,0x81,0x6f,
0x28,0x00,0x81,0x71,0x28,0x50,0x81,0x6f,0x28,0x00,0x81,0x71,0x28,0x50,0x81,0x6f,
0x28,0x00,0x79,0x28,0x50,0x81,0x6f,0x28,0x00,0x01,0x28,0x50,0x81,0x6f,0x28,0x00,
0x01,0x28,0x50,0x81,0x6f,0x28,0x00,0x01,0x28,0x50,0x81,0x6f,0x28,0x00,0x01,0x28,
0x50,0x81,0x6f,0x28,0x00,0x01,0x28,0x50,0x81,0x6f,0x28,0x00,0x01,0x28,0x50,0x81,
0x6f,0x28,0x00,0x01,0x28,0x50,0x81,0x6f,0x28,0x00,0x01,0x28,0x50,0x81,0x6f,0x28,
0x00,0x01,0x28,0x50,0x81,0x6f,0x28,0x00,0x01,0x28,0x50,0x81,0x6f,0x28,0x00,0x01,
0x28,0x50,0x81,0x6f,0x28,0x00,0x79,0x28,0x60,0x81,0x6f,0x28,0x00,0x81,0x71,0x28,
0x60,0x81,0x6f,0x28,0x00,0x81,0x71,0x28,0x60,0x81,0x6f,0x28,0x00,0x81,0x71,0x28,
0x60,0x81,0x6f,0x28,0x00,0x81,0x71,0x28,0x60,0x81,0x6f,0x28,0x00,0x81,0x71,0x28,
0x60,0x81,0x6f,0x28,0x00,0x81,0x71,0x28,0x60,0x81,0x6f,0x28,0x00,0x81,0x71,0x28,
0x60,0x81,0x6f,0x28,0x00,0x81,0x71,0x28,0x60,0x81,0x6f,0x28,0x00,0x81,0x71,0x28,
0x60,0x81,0x6f,0x28,0x00,0x81,0x71,0x28,0x60,0x81,0x6f,0x28,0x00,0x81,0x71,0x28,
0x60,0x81,0x6f,0x28,0x00,0x96,0x41,0x28,0x50,0x81,0x6f,0x28,0x00,0x01,0x2a,0x50,
0x81,0x6f,0x2a,0x00,0x01,0x2b,0x50,0x81,0x6f,0x2b,0x00,0x01,0x2a,0x50,0x81,0x6f,
0x2a,0x00,0x01,0x28,0x50,0x81,0x6f,0x28,0x00,0x01,0x2b,0x50,0x81,0x6f,0x2b,0x00,
0x01,0x2a,0x50,0x81,0x6f,0x2a,0x00,0x01,0x28,0x50,0x81,0x6f,0x28,0x00,0x01,0x2a,
0x50,0x81,0x6f,0x2a,0x00,0x01,0x2b,0x50,0x81,0x6f,0x2b,0x00,0x01,0x2a,0x50,0x81,
0x6f,0x2a,0x00,0x01,0x2f,0x50,0x81,0x6f,0x2f,0x00,0x01,0x28,0x50,0x81,0x6f,0x28,
0x00,0x01,0x2a,0x50,0x81,0x6f,0x2a,0x00,0x01,0x2b,0x50,0x81,0x6f,0x2b,0x00,0x01,
0x2a,0x50,0x81,0x6f,0x2a,0x00,0x01,0x28,0x50,0x81,0x6f,0x28,0x00,0x01,0x2b,0x50,
0x81,0x6f,0x2b,0x00,0x01,0x2a,0x50,0x81,0x6f,0x2a,0x00,0x01,0x28,0x50,0x81,0x6f,
0x28,0x00,0x01,0x2a,0x50,0x81,0x6f,0x2a,0x00,0x01,0x2b,0x50,0x81,0x6f,0x2b,0x00,
0x01,0x2a,0x50,0x81,0x6f,0x2a,0x00,0x01,0x2f,0x50,0x81,0x6f,0x2f,0x00,0x01,0x28,
0x50,0x81,0x6f,0x28,0x00,0x01,0x2a,0x50,0x81,0x6f,0x2a,0x00,0x01,0x2b,0x50,0x81,
0x6f,0x2b,0x00,0x01,0x2a,0x50,0x81,0x6f,0x2a,0x00,0x01,0x28,0x50,0x81,0x6f,0x28,
0x00,0x01,0x2b,0x50,0x81,0x6f,0x2b,0x00,0x01,0x2a,0x50,0x81,0x6f,0x2a,0x00,0x01,
0x28,0x50,0x81,0x6f,0x28,0x00,0x01,0x26,0x50,0x81,0x6f,0x26,0x00,0x01,0x28,0x50,
0x81,0x6f,0x28,0x00,0x01,0x2a,0x50,0x81,0x6f,0x2a,0x00,0x01,0x26,0x50,0x81,0x6f,
0x26,0x00,0x01,0x28,0x50,0x81,0x6f,0x28,0x00,0x01,0x2a,0x50,0x81,0x6f,0x2a,0x00,
0x01,0x2b,0x50,0x81,0x6f,0x2b,0x00,0x01,0x2a,0x50,0x81,0x6f,0x2a,0x00,0x01,0x28,
0x50,0x81,0x6f,0x28,0x00,0x01,0x2b,0x50,0x81,0x6f,0x2b,0x00,0x01,0x2a,0x50,0x81,
0x6f,0x2a,0x00,0x01,0x28,0x50,0x81,0x6f,0x28,0x00,0x01,0x2a,0x50,0x81,0x6f,0x2a,
0x00,0x01,0x2b,0x50,0x81,0x6f,0x2b,0x00,0x01,0x2a,0x50,0x81,0x6f,0x2a,0x00,0x01,
0x2f,0x50,0x81,0x6f,0x2f,0x00,0x01,0x28,0x50,0x81,0x6f,0x28,0x00,0x01,0x2a,0x50,
0x81,0x6f,0x2a,0x00,0x01,0x2b,0x50,0x81,0x6f,0x2b,0x00,0x01,0x2a,0x50,0x81,0x6f,
0x2a,0x00,0x01,0x28,0x50,0x81,0x6f,0x28,0x00,0x01,0x2b,0x50,0x81,0x6f,0x2b,0x00,
0x01,0x2a,0x50,0x81,0x6f,0x2a,0x00,0x01,0x28,0x50,0x81,0x6f,0x28,0x00,0x01,0x26,
0x50,0x81,0x6f,0x26,0x00,0x01,0x28,0x50,0x81,0x6f,0x28,0x00,0x01,0x2a,0x50,0x81,
0x6f,0x2a,0x00,0x01,0x26,0x50,0x81,0x6f,0x26,0x00,0x01,0x29,0x60,0x8e,0x7f,0x29,
0x00,0x01,0x29,0x60,0x77,0x29,0x00,0x01,0x2b,0x60,0x8e,0x07,0x2b,0x00,0x01,0x2d,
0x60,0x8e,0x7f,0x2d,0x00,0x01,0x2b,0x60,0x8e,0x7f,0x2b,0x00,0x01,0x29,0x60,0x8e,
0x7f,0x29,0x00,0x01,0x29,0x60,0x77,0x29,0x00,0x01,0x2b,0x60,0x8e,0x07,0x2b,0x00,
0x01,0x2d,0x60,0x8e,0x7f,0x2d,0x00,0x01,0x29,0x60,0x8e,0x7f,0x29,0x00,0x01,0x29,
0x60,0x77,0x29,0x00,0x01,0x2b,0x60,0x8e,0x07,0x2b,0x00,0x01,0x2d,0x60,0x8e,0x7f,
0x2d,0x00,0x01,0x2b,0x60,0x8e,0x7f,0x2b,0x00,0x01,0x29,0x60,0x8e,0x7f,0x29,0x00,
0x01,0x29,0x60,0x77,0x29,0x00,0x01,0x2b,0x60,0x8e,0x07,0x2b,0x00,0x01,0x2d,0x60,
0x8e,0x7f,0x2d,0x00,0x01,0x2b,0x60,0x8e,0x7f,0x2b,0x00,0x01,0x29,0x60,0x8e,0x7f,
0x29,0x00,0x01,0x29,0x60,0x77,0x29,0x00,0x01,0x2b,0x5e,0x8e,0x07,0x2b,0x00,0x01,
0x2d,0x38,0x8e,0x7f,0x2d,0x00,0x01,0x2b,0x10,0x8e,0x7f,0x2b,0x00,0x01,0x29,0x10,
0x8e,0x7f,0x29,0x00,0x01,0xff,0x2f,0x00,0x4d,0x54,0x72,0x6b,0x00,0x00,0x01,0xeb,
0x00,0xff,0x59,0x02,0x00,0x00,0x00,0xb5,0x79,0x00,0x00,0xc5,0x39,0x00,0xb5,0x07,
0x2f,0x00,0x0a,0x40,0x00,0x5b,0x00,0x00,0x5d,0x00,0x00,0xff,0x21,0x01,0x00,0xce,
0x60,0x95,0x2d,0x50,0x00,0x34,0x50,0x8b,0x1f,0x2d,0x00,0x01,0x2b,0x50,0x96,0x3f,
0x2b,0x00,0x01,0x2d,0x50,0xa1,0x5f,0x2d,0x00,0x01,0x2b,0x50,0x96,0x3f,0x2b,0x00,
0x01,0x2d,0x50,0x96,0x3f,0x2d,0x00,0x01,0x2b,0x50,0x96,0x3f,0x2b,0x00,0x01,0x2d,
0x50,0xa1,0x5f,0x2d,0x00,0x01,0x2b,0x50,0x96,0x3f,0x2b,0x00,0x01,0x2d,0x50,0x96,
0x3f,0x2d,0x00,0x01,0x2b,0x50,0x96,0x3f,0x2b,0x00,0x01,0x2d,0x50,0xa1,0x5f,0x2d,
0x00,0x01,0x2f,0x50,0x8b,0x1f,0x34,0x00,0x00,0x2f,0x00,0x01,0x2f,0x60,0x00,0x34,
0x60,0x81,0x86,0x7f,0x2f,0x00,0x00,0x34,0x00,0x01,0x35,0x50,0x82,0x67,0x35,0x00,
0x88,0x39,0x35,0x50,0x82,0x67,0x35,0x00,0x79,0x35,0x50,0x77,0x35,0x00,0x01,0x37,
0x50,0x82,0x67,0x37,0x00,0x87,0x41,0x37,0x50,0x82,0x67,0x37,0x00,0x79,0x39,0x50,
0x82,0x67,0x39,0x00,0x88,0x39,0x39,0x50,0x82,0x67,0x39,0x00,0x79,0x37,0x50,0x82,
0x67,0x37,0x00,0x88,0x39,0x37,0x50,0x81,0x33,0x37,0x00,0x3d,0x37,0x50,0x81,0x33,
0x37,0x00,0x3d,0x35,0x50,0x82,0x67,0x35,0x00,0x88,0x39,0x35,0x50,0x82,0x67,0x35,
0x00,0x79,0x35,0x50,0x77,0x35,0x00,0x01,0x37,0x50,0x82,0x67,0x37,0x00,0x87,0x41,
0x37,0x50,0x82,0x67,0x37,0x00,0x79,0x39,0x50,0x82,0x67,0x39,0x00,0x88,0x39,0x39,
0x50,0x82,0x67,0x39,0x00,0x79,0x35,0x50,0x82,0x67,0x35,0x00,0x88,0x39,0x35,0x50,
0x82,0x67,0x35,0x00,0x79,0x35,0x50,0x77,0x35,0x00,0x01,0x37,0x50,0x82,0x67,0x37,
0x00,0x87,0x41,0x37,0x50,0x82,0x67,0x37,0x00,0x79,0x39,0x50,0x82,0x67,0x39,0x00,
0x88,0x39,0x39,0x50,0x82,0x67,0x39,0x00,0x79,0x37,0x50,0x82,0x67,0x37,0x00,0x88,
0x39,0x37,0x50,0x81,0x33,0x37,0x00,0x3d,0x37,0x50,0x81,0x33,0x37,0x00,0x3d,0x35,
0x50,0x82,0x67,0x35,0x00,0x88,0x39,0x35,0x50,0x82,0x67,0x35,0x00,0x79,0x35,0x50,
0x77,0x35,0x00,0x01,0x37,0x50,0x82,0x67,0x37,0x00,0x87,0x41,0x37,0x50,0x82,0x67,
0x37,0x00,0x79,0x39,0x50,0x82,0x67,0x39,0x00,0x88,0x39,0x39,0x50,0x82,0x67,0x39,
0x00,0x79,0x37,0x50,0x82,0x67,0x37,0x00,0x88,0x39,0x37,0x50,0x81,0x33,0x37,0x00,
0x3d,0x37,0x50,0x81,0x33,0x37,0x00,0x3d,0x35,0x50,0x82,0x67,0x35,0x00,0x88,0x39,
0x35,0x50,0x82,0x67,0x35,0x00,0x79,0x35,0x50,0x77,0x35,0x00,0x01,0x37,0x4f,0x82,
0x67,0x37,0x00,0x87,0x41,0x37,0x3f,0x82,0x67,0x37,0x00,0x79,0x39,0x39,0x82,0x67,
0x39,0x00,0x88,0x39,0x39,0x27,0x82,0x67,0x39,0x00,0x79,0x37,0x21,0x82,0x67,0x37,
0x00,0x88,0x39,0x37,0x21,0x81,0x33,0x37,0x00,0x3d,0x37,0x21,0x81,0x33,0x37,0x00,
0x3d,0x35,0x21,0x82,0x67,0x35,0x00,0x01,0xff,0x2f,0x00,0x4d,0x54,0x72,0x6b,0x00,
0x00,0x01,0xb6,0x00,0xff,0x59,0x02,0x00,0x00,0x00,0xb6,0x79,0x00,0x00,0xc6,0x39,
0x00,0xb6,0x07,0x2f,0x00,0x0a,0x40,0x00,0x5b,0x00,0x00,0x5d,0x00,0x00,0xff,0x21,
0x01,0x00,0xce,0x60,0x96,0x28,0x50,0x82,0x99,0x1f,0x28,0x00,0xad,0x01,0x24,0x60,
0x8b,0x1f,0x24,0x00,0x01,0x26,0x68,0x8b,0x1f,0x26,0x00,0x01,0x28,0x70,0x96,0x3f,
0x28,0x00,0x01,0x24,0x70,0x8b,0x1f,0x24,0x00,0x01,0x26,0x70,0x8b,0x1f,0x26,0x00,
0x01,0x28,0x70,0x96,0x3f,0x28,0x00,0x01,0x29,0x50,0x82,0x67,0x29,0x00,0x88,0x39,
0x29,0x50,0x82,0x67,0x29,0x00,0x79,0x29,0x50,0x77,0x29,0x00,0x01,0x2b,0x50,0x82,
0x67,0x2b,0x00,0x87,0x41,0x2b,0x50,0x82,0x67,0x2b,0x00,0x79,0x2d,0x50,0x82,0x67,
0x2d,0x00,0x88,0x39,0x2d,0x50,0x82,0x67,0x2d,0x00,0x79,0x2b,0x50,0x82,0x67,0x2b,
0x00,0x88,0x39,0x2b,0x50,0x81,0x33,0x2b,0x00,0x3d,0x2b,0x50,0x81,0x33,0x2b,0x00,
0x3d,0x29,0x50,0x82,0x67,0x29,0x00,0x88,0x39,0x29,0x50,0x82,0x67,0x29,0x00,0x79,
0x29,0x50,0x77,0x29,0x00,0x01,0x2b,0x50,0x82,0x67,0x2b,0x00,0x87,0x41,0x2b,0x50,
0x82,0x67,0x2b,0x00,0x79,0x2d,0x50,0x82,0x67,0x2d,0x00,0x88,0x39,0x2d,0x50,0x82,
0x67,0x2d,0x00,0x79,0x29,0x50,0x82,0x67,0x29,0x00,0x88,0x39,0x29,0x50,0x82,0x67,
0x29,0x00,0x79,0x29,0x50,0x77,0x29,0x00,0x01,0x2b,0x50,0x82,0x67,0x2b,0x00,0x87,
0x41,0x2b,0x50,0x82,0x67,0x2b,0x00,0x79,0x2d,0x50,0x82,0x67,0x2d,0x00,0x88,0x39,
0x2d,0x50,0x82,0x67,0x2d,0x00,0x79,0x2b,0x50,0x82,0x67,0x2b,0x00,0x88,0x39,0x2b,
0x50,0x81,0x33,0x2b,0x00,0x3d,0x2b,0x50,0x81,0x33,0x2b,0x00,0x3d,0x29,0x50,0x82,
0x67,0x29,0x00,0x88,0x39,0x29,0x50,0x82,0x67,0x29,0x00,0x79,0x29,0x50,0x77,0x29,
0x00,0x01,0x2b,0x50,0x82,0x67,0x2b,0x00,0x87,0x41,0x2b,0x50,0x82,0x67,0x2b,0x00,
0x79,0x2d,0x50,0x82,0x67,0x2d,0x00,0x88,0x39,0x2d,0x50,0x82,0x67,0x2d,0x00,0x79,
0x2b,0x50,0x82,0x67,0x2b,0x00,0x88,0x39,0x2b,0x50,0x81,0x33,0x2b,0x00,0x3d,0x2b,
0x50,0x81,0x33,0x2b,0x00,0x3d,0x29,0x50,0x82,0x67,0x29,0x00,0x88,0x39,0x29,0x50,
0x82,0x67,0x29,0x00,0x79,0x29,0x50,0x77,0x29,0x00,0x01,0x2b,0x4f,0x82,0x67,0x2b,
0x00,0x87,0x41,0x2b,0x3f,0x82,0x67,0x2b,0x00,0x79,0x2d,0x39,0x82,0x67,0x2d,0x00,
0x88,0x39,0x2d,0x27,0x82,0x67,0x2d,0x00,0x79,0x2b,0x21,0x82,0x67,0x2b,0x00,0x88,
0x39,0x2b,0x21,0x81,0x33,0x2b,0x00,0x3d,0x2b,0x21,0x81,0x33,0x2b,0x00,0x3d,0x29,
0x21,0x82,0x67,0x29,0x00,0x01,0xff,0x2f,0x00,0x4d,0x54,0x72,0x6b,0x00,0x00,0x04,
0x33,0x00,0xff,0x59,0x02,0x00,0x00,0x00,0xb7,0x79,0x00,0x00,0xc7,0x3a,0x00,0xb7,
0x07,0x47,0x00,0x0a,0x40,0x00,0x5b,0x00,0x00,0x5d,0x00,0x00,0xff,0x21,0x01,0x00,
0xcf,0x58,0x97,0x28,0x50,0x3b,0x28,0x00,0x81,0x35,0x28,0x50,0x3b,0x28,0x00,0x81,
0x35,0x28,0x50,0x3b,0x28,0x00,0x81,0x35,0x28,0x50,0x3b,0x28,0x00,0x81,0x35,0x28,
0x50,0x3b,0x28,0x00,0x81,0x35,0x28,0x50,0x3b,0x28,0x00,0x81,0x35,0x28,0x50,0x3b,
0x28,0x00,0x81,0x35,0x28,0x50,0x3b,0x28,0x00,0x81,0x35,0x28,0x50,0x3b,0x28,0x00,
0x81,0x35,0x28,0x50,0x3b,0x28,0x00,0x81,0x35,0x28,0x50,0x3b,0x28,0x00,0x81,0x35,
0x28,0x50,0x3b,0x28,0x00,0x81,0x35,0x28,0x50,0x3b,0x28,0x00,0x81,0x35,0x28,0x50,
0x3b,0x28,0x00,0x81,0x35,0x28,0x50,0x3b,0x28,0x00,0x81,0x35,0x28,0x50,0x3b,0x28,
0x00,0x81,0x35,0x28,0x50,0x3b,0x28,0x00,0x81,0x35,0x28,0x50,0x3b,0x28,0x00,0x82,
0x2d,0x28,0x50,0x77,0x28,0x00,0x82,0x69,0x28,0x50,0x77,0x28,0x00,0x82,0x69,0x28,
0x50,0x77,0x28,0x00,0x82,0x69,0x28,0x50,0x77,0x28,0x00,0x82,0x69,0x28,0x50,0x77,
0x28,0x00,0x82,0x69,0x28,0x50,0x77,0x28,0x00,0x82,0x69,0x28,0x50,0x77,0x28,0x00,
0x81,0x71,0x28,0x50,0x3b,0x28,0x00,0x81,0x35,0x28,0x50,0x3b,0x28,0x00,0x81,0x35,
0x28,0x50,0x3b,0x28,0x00,0x81,0x35,0x28,0x50,0x3b,0x28,0x00,0x81,0x35,0x28,0x50,
0x3b,0x28,0x00,0x81,0x35,0x28,0x50,0x3b,0x28,0x00,0x81,0x35,0x28,0x50,0x3b,0x28,
0x00,0x81,0x35,0x28,0x50,0x3b,0x28,0x00,0x81,0x35,0x28,0x50,0x3b,0x28,0x00,0x81,
0x35,0x28,0x50,0x3b,0x28,0x00,0x81,0x35,0x28,0x50,0x3b,0x28,0x00,0x81,0x35,0x28,
0x50,0x3b,0x28,0x00,0x81,0x35,0x28,0x50,0x3b,0x28,0x00,0x81,0x35,0x28,0x50,0x3b,
0x28,0x00,0x81,0x35,0x28,0x50,0x3b,0x28,0x00,0x81,0x35,0x28,0x50,0x3b,0x28,0x00,
0x81,0x35,0x28,0x50,0x3b,0x28,0x00,0x81,0x35,0x28,0x50,0x3b,0x28,0x00,0x81,0x35,
0x28,0x50,0x3b,0x28,0x00,0x81,0x35,0x28,0x50,0x3b,0x28,0x00,0x81,0x35,0x28,0x50,
0x3b,0x28,0x00,0x81,0x35,0x28,0x50,0x3b,0x28,0x00,0x81,0x35,0x28,0x50,0x3b,0x28,
0x00,0x81,0x35,0x28,0x50,0x3b,0x28,0x00,0x81,0x35,0x28,0x50,0x3b,0x28,0x00,0x81,
0x35,0x28,0x50,0x3b,0x28,0x00,0x81,0x35,0x28,0x50,0x3b,0x28,0x00,0x81,0x35,0x28,
0x50,0x3b,0x28,0x00,0x81,0x35,0x28,0x50,0x3b,0x28,0x00,0x81,0x35,0x28,0x50,0x3b,
0x28,0x00,0x81,0x35,0x28,0x50,0x3b,0x28,0x00,0x81,0x35,0x28,0x50,0x3b,0x28,0x00,
0x81,0x35,0x28,0x50,0x3b,0x28,0x00,0x81,0x35,0x28,0x50,0x3b,0x28,0x00,0x81,0x35,
0x28,0x50,0x3b,0x28,0x00,0x81,0x35,0x28,0x50,0x3b,0x28,0x00,0x81,0x35,0x28,0x50,
0x3b,0x28,0x00,0x81,0x35,0x28,0x50,0x3b,0x28,0x00,0x81,0x35,0x28,0x50,0x3b,0x28,
0x00,0x81,0x35,0x28,0x50,0x3b,0x28,0x00,0x82,0x2d,0x28,0x50,0x77,0x28,0x00,0x82,
0x69,0x28,0x50,0x77,0x28,0x00,0x82,0x69,0x28,0x50,0x77,0x28,0x00,0x82,0x69,0x28,
0x50,0x77,0x28,0x00,0x82,0x69,0x28,0x50,0x77,0x28,0x00,0x82,0x69,0x28,0x50,0x77,
0x28,0x00,0x82,0x69,0x28,0x50,0x77,0x28,0x00,0x81,0x71,0x28,0x50,0x3b,0x28,0x00,
0x81,0x35,0x28,0x50,0x3b,0x28,0x00,0x81,0x35,0x28,0x50,0x3b,0x28,0x00,0x81,0x35,
0x28,0x50,0x3b,0x28,0x00,0x81,0x35,0x28,0x50,0x3b,0x28,0x00,0x81,0x35,0x28,0x50,
0x3b,0x28,0x00,0x81,0x35,0x28,0x50,0x3b,0x28,0x00,0x81,0x35,0x28,0x50,0x3b,0x28,
0x00,0x81,0x35,0x28,0x50,0x3b,0x28,0x00,0x81,0x35,0x28,0x50,0x3b,0x28,0x00,0x81,
0x35,0x28,0x50,0x3b,0x28,0x00,0x81,0x35,0x28,0x50,0x3b,0x28,0x00,0x81,0x35,0x28,
0x50,0x3b,0x28,0x00,0x81,0x35,0x28,0x50,0x3b,0x28,0x00,0x81,0x35,0x28,0x50,0x3b,
0x28,0x00,0x81,0x35,0x28,0x50,0x3b,0x28,0x00,0x82,0x2d,0x28,0x60,0x77,0x28,0x00,
0x82,0x69,0x28,0x60,0x77,0x28,0x00,0x82,0x69,0x28,0x60,0x77,0x28,0x00,0x82,0x69,
0x28,0x60,0x77,0x28,0x00,0x82,0x69,0x28,0x60,0x77,0x28,0x00,0x82,0x69,0x28,0x60,
0x77,0x28,0x00,0x81,0x71,0x28,0x60,0x3b,0x28,0x00,0x81,0x35,0x28,0x60,0x3b,0x28,
0x00,0x81,0x35,0x28,0x60,0x3b,0x28,0x00,0x81,0x35,0x28,0x60,0x3b,0x28,0x00,0x81,
0x35,0x28,0x60,0x3b,0x28,0x00,0x81,0x35,0x28,0x60,0x3b,0x28,0x00,0x81,0x35,0x28,
0x60,0x3b,0x28,0x00,0x81,0x35,0x28,0x60,0x3b,0x28,0x00,0x81,0x35,0x28,0x60,0x3b,
0x28,0x00,0x81,0x35,0x28,0x60,0x3b,0x28,0x00,0x81,0x35,0x28,0x60,0x3b,0x28,0x00,
0x81,0x35,0x28,0x60,0x3b,0x28,0x00,0x82,0x2d,0x28,0x60,0x77,0x28,0x00,0x82,0x69,
0x28,0x60,0x77,0x28,0x00,0x82,0x69,0x28,0x60,0x77,0x28,0x00,0x82,0x69,0x28,0x60,
0x77,0x28,0x00,0x82,0x69,0x28,0x60,0x77,0x28,0x00,0x82,0x69,0x28,0x60,0x77,0x28,
0x00,0x82,0x69,0x28,0x60,0x77,0x28,0x00,0x82,0x69,0x28,0x60,0x77,0x28,0x00,0x82,
0x69,0x28,0x60,0x77,0x28,0x00,0x82,0x69,0x28,0x60,0x77,0x28,0x00,0x82,0x69,0x28,
0x60,0x77,0x28,0x00,0x82,0x69,0x28,0x60,0x77,0x28,0x00,0xad,0x79,0x30,0x60,0x8b,
0x1f,0x30,0x00,0x01,0x32,0x68,0x8b,0x1f,0x32,0x00,0x01,0x2f,0x70,0x96,0x3f,0x2f,
0x00,0x01,0x30,0x70,0x8b,0x1f,0x30,0x00,0x01,0x32,0x70,0x8b,0x1f,0x32,0x00,0x01,
0x2f,0x70,0x96,0x3f,0x2f,0x00,0x01,0x29,0x50,0x8e,0x7f,0x29,0x00,0x01,0x29,0x50,
0x77,0x29,0x00,0x01,0x2b,0x50,0x8e,0x07,0x2b,0x00,0x01,0x2d,0x50,0x8e,0x7f,0x2d,
0x00,0x01,0x2b,0x50,0x8e,0x7f,0x2b,0x00,0x01,0x29,0x50,0x8e,0x7f,0x29,0x00,0x01,
0x29,0x50,0x77,0x29,0x00,0x01,0x2b,0x50,0x8e,0x07,0x2b,0x00,0x01,0x2d,0x50,0x8e,
0x7f,0x2d,0x00,0x01,0x29,0x50,0x8e,0x7f,0x29,0x00,0x01,0x29,0x50,0x77,0x29,0x00,
0x01,0x2b,0x50,0x8e,0x07,0x2b,0x00,0x01,0x2d,0x50,0x8e,0x7f,0x2d,0x00,0x01,0x2b,
0x50,0x8e,0x7f,0x2b,0x00,0x01,0x29,0x50,0x8e,0x7f,0x29,0x00,0x01,0x29,0x50,0x77,
0x29,0x00,0x01,0x2b,0x50,0x8e,0x07,0x2b,0x00,0x01,0x2d,0x50,0x8e,0x7f,0x2d,0x00,
0x01,0x2b,0x50,0x8e,0x7f,0x2b,0x00,0x01,0x29,0x50,0x8e,0x7f,0x29,0x00,0x01,0x29,
0x50,0x77,0x29,0x00,0x01,0x2b,0x4e,0x8e,0x07,0x2b,0x00,0x01,0x2d,0x30,0x8e,0x7f,
0x2d,0x00,0x01,0x2b,0x10,0x8e,0x7f,0x2b,0x00,0x01,0x29,0x10,0x8e,0x7f,0x29,0x00,
0x01,0xff,0x2f,0x00,0x4d,0x54,0x72,0x6b,0x00,0x00,0x14,0x04,0x00,0xff,0x59,0x02,
0x00,0x00,0x00,0xb9,0x79,0x00,0x00,0xc9,0x00,0x00,0xb9,0x07,0x40,0x00,0x0a,0x40,
0x00,0x5b,0x00,0x00,0x5d,0x00,0x00,0xff,0x21,0x01,0x00,0x00,0x99,0x4c,0x30,0x77,
0x4c,0x00,0x01,0x4c,0x28,0x77,0x4c,0x00,0x01,0x4c,0x28,0x77,0x4c,0x00,0x01,0x4c,
0x29,0x77,0x4c,0x00,0x01,0x4c,0x31,0x77,0x4c,0x00,0x01,0x4c,0x29,0x77,0x4c,0x00,
0x01,0x4c,0x2a,0x77,0x4c,0x00,0x01,0x4c,0x2a,0x77,0x4c,0x00,0x01,0x4c,0x32,0x77,
0x4c,0x00,0x01,0x4c,0x2b,0x77,0x4c,0x00,0x01,0x4c,0x2b,0x77,0x4c,0x00,0x01,0x4c,
0x2b,0x77,0x4c,0x00,0x01,0x4c,0x34,0x77,0x4c,0x00,0x01,0x4c,0x2c,0x77,0x4c,0x00,
0x01,0x4c,0x2c,0x77,0x4c,0x00,0x01,0x4c,0x2d,0x77,0x4c,0x00,0x01,0x4c,0x36,0x77,
0x4c,0x00,0x01,0x4c,0x2d,0x77,0x4c,0x00,0x01,0x4c,0x2e,0x77,0x4c,0x00,0x01,0x4c,
0x2e,0x77,0x4c,0x00,0x01,0x4c,0x37,0x77,0x4c,0x00,0x01,0x4c,0x2f,0x77,0x4c,0x00,
0x01,0x4c,0x2f,0x77,0x4c,0x00,0x01,0x4c,0x2f,0x77,0x4c,0x00,0x01,0x4c,0x39,0x77,
0x4c,0x00,0x01,0x4c,0x30,0x77,0x4c,0x00,0x01,0x4c,0x30,0x77,0x4c,0x00,0x01,0x4c,
0x31,0x77,0x4c,0x00,0x01,0x4c,0x3a,0x77,0x4c,0x00,0x01,0x4c,0x31,0x77,0x4c,0x00,
0x01,0x4c,0x32,0x77,0x4c,0x00,0x01,0x4c,0x32,0x77,0x4c,0x00,0x01,0x4c,0x3d,0x77,
0x4c,0x00,0x01,0x4c,0x33,0x77,0x4c,0x00,0x01,0x4c,0x33,0x77,0x4c,0x00,0x01,0x4c,
0x34,0x77,0x4c,0x00,0x01,0x4c,0x3e,0x77,0x4c,0x00,0x01,0x4c,0x34,0x77,0x4c,0x00,
0x01,0x4c,0x35,0x77,0x4c,0x00,0x01,0x4c,0x35,0x77,0x4c,0x00,0x01,0x4c,0x3f,0x77,
0x4c,0x00,0x01,0x4c,0x36,0x77,0x4c,0x00,0x01,0x4c,0x36,0x77,0x4c,0x00,0x01,0x4c,
0x36,0x77,0x4c,0x00,0x01,0x4c,0x42,0x77,0x4c,0x00,0x01,0x4c,0x37,0x77,0x4c,0x00,
0x01,0x4c,0x37,0x77,0x4c,0x00,0x01,0x4c,0x38,0x77,0x4c,0x00,0x01,0x4c,0x43,0x77,
0x4c,0x00,0x01,0x4c,0x38,0x77,0x4c,0x00,0x01,0x4c,0x39,0x77,0x4c,0x00,0x01,0x4c,
0x39,0x77,0x4c,0x00,0x01,0x4c,0x44,0x77,0x4c,0x00,0x01,0x4c,0x3a,0x77,0x4c,0x00,
0x01,0x4c,0x3a,0x77,0x4c,0x00,0x01,0x4c,0x3a,0x77,0x4c,0x00,0x01,0x4c,0x46,0x77,
0x4c,0x00,0x01,0x4c,0x3b,0x77,0x4c,0x00,0x01,0x4c,0x3b,0x77,0x4c,0x00,0x01,0x4c,
0x3c,0x77,0x4c,0x00,0x01,0x4c,0x48,0x77,0x4c,0x00,0x01,0x4c,0x3c,0x77,0x4c,0x00,
0x01,0x4c,0x3d,0x77,0x4c,0x00,0x01,0x4c,0x3d,0x77,0x4c,0x00,0x01,0x4c,0x4a,0x77,
0x4c,0x00,0x01,0x4c,0x3e,0x77,0x4c,0x00,0x01,0x4c,0x3e,0x77,0x4c,0x00,0x01,0x4c,
0x3e,0x77,0x4c,0x00,0x01,0x4c,0x4a,0x77,0x4c,0x00,0x01,0x4c,0x3e,0x77,0x4c,0x00,
0x01,0x4c,0x3e,0x77,0x4c,0x00,0x01,0x4c,0x3e,0x77,0x4c,0x00,0x01,0x4c,0x4a,0x77,
0x4c,0x00,0x01,0x4c,0x3e,0x77,0x4c,0x00,0x01,0x4c,0x3e,0x77,0x4c,0x00,0x01,0x4c,
0x3e,0x77,0x4c,0x00,0x01,0x4c,0x4a,0x77,0x4c,0x00,0x01,0x4c,0x3e,0x77,0x4c,0x00,
0x01,0x4c,0x3e,0x77,0x4c,0x00,0x01,0x4c,0x3e,0x77,0x4c,0x00,0x01,0x4c,0x4a,0x77,
0x4c,0x00,0x01,0x4c,0x3e,0x77,0x4c,0x00,0x01,0x4c,0x3e,0x77,0x4c,0x00,0x01,0x4c,
0x3e,0x77,0x4c,0x00,0x01,0x4c,0x3e,0x77,0x4c,0x00,0x01,0x4c,0x3e,0x77,0x4c,0x00,
0x01,0x4c,0x3e,0x77,0x4c,0x00,0x01,0x4c,0x3e,0x77,0x4c,0x00,0x01,0x4c,0x3e,0x77,
0x4c,0x00,0x01,0x4c,0x3e,0x77,0x4c,0x00,0x01,0x4c,0x3e,0x77,0x4c,0x00,0x01,0x4c,
0x3e,0x77,0x4c,0x00,0x01,0x4c,0x3e,0x77,0x4c,0x00,0x01,0x4c,0x3e,0x77,0x4c,0x00,
0x01,0x4c,0x3e,0x77,0x4c,0x00,0x01,0x4c,0x3e,0x77,0x4c,0x00,0x01,0x4c,0x3e,0x77,
0x4c,0x00,0x01,0x4c,0x3e,0x77,0x4c,0x00,0x01,0x4c,0x3e,0x77,0x4c,0x00,0x01,0x4c,
0x3e,0x77,0x4c,0x00,0x01,0x4c,0x3e,0x77,0x4c,0x00,0x01,0x4c,0x3e,0x77,0x4c,0x00,
0x01,0x4c,0x3e,0x77,0x4c,0x00,0x01,0x4c,0x3e,0x77,0x4c,0x00,0x01,0x4c,0x3e,0x77,
0x4c,0x00,0x01,0x4c,0x3e,0x77,0x4c,0x00,0x01,0x4c,0x3e,0x77,0x4c,0x00,0x01,0x4c,
0x3e,0x77,0x4c,0x00,0x01,0x4c,0x3e,0x77,0x4c,0x00,0x01,0x4c,0x3e,0x77,0x4c,0x00,
0x01,0x4c,0x3e,0x77,0x4c,0x00,0x01,0x4c,0x3e,0x77,0x4c,0x00,0x01,0x4c,0x3e,0x77,
0x4c,0x00,0x01,0x4c,0x3e,0x77,0x4c,0x00,0x01,0x4c,0x3e,0x77,0x4c,0x00,0x01,0x4c,
0x3e,0x77,0x4c,0x00,0x01,0x4c,0x3e,0x77,0x4c,0x00,0x01,0x4c,0x3e,0x77,0x4c,0x00,
0x01,0x4c,0x3e,0x77,0x4c,0x00,0x01,0x4c,0x3e,0x77,0x4c,0x00,0x01,0x4c,0x3e,0x77,
0x4c,0x00,0x01,0x4c,0x3e,0x77,0x4c,0x00,0x01,0x4c,0x3e,0x77,0x4c,0x00,0x01,0x4c,
0x3e,0x77,0x4c,0x00,0x01,0x4c,0x3e,0x77,0x4c,0x00,0x01,0x4c,0x3e,0x77,0x4c,0x00,
0x01,0x4c,0x3e,0x77,0x4c,0x00,0x01,0x4c,0x3e,0x77,0x4c,0x00,0x01,0x4c,0x3e,0x77,
0x4c,0x00,0x01,0x4c,0x3e,0x77,0x4c,0x00,0x01,0x4c,0x3e,0x77,0x4c,0x00,0x01,0x4c,
0x3e,0x77,0x4c,0x00,0x01,0x4c,0x3e,0x77,0x4c,0x00,0x01,0x4c,0x3e,0x77,0x4c,0x00,
0x01,0x4c,0x3e,0x77,0x4c,0x00,0x01,0x4c,0x3e,0x77,0x4c,0x00,0x01,0x4c,0x3e,0x77,
0x4c,0x00,0x01,0x4c,0x3e,0x77,0x4c,0x00,0x01,0x4c,0x3e,0x77,0x4c,0x00,0x01,0x4c,
0x3e,0x77,0x4c,0x00,0x01,0x4c,0x3e,0x77,0x4c,0x00,0x01,0x4c,0x3e,0x77,0x4c,0x00,
0x01,0x4c,0x3e,0x77,0x4c,0x00,0x01,0x4c,0x3e,0x77,0x4c,0x00,0x01,0x4c,0x3e,0x77,
0x4c,0x00,0x01,0x4c,0x3e,0x77,0x4c,0x00,0x01,0x4c,0x3e,0x77,0x4c,0x00,0x01,0x4c,
0x3e,0x77,0x4c,0x00,0x01,0x4c,0x3e,0x77,0x4c,0x00,0x01,0x4c,0x3e,0x77,0x4c,0x00,
0x01,0x4c,0x3e,0x77,0x4c,0x00,0x01,0x4c,0x3e,0x77,0x4c,0x00,0x01,0x4c,0x3e,0x77,
0x4c,0x00,0x01,0x4c,0x3e,0x77,0x4c,0x00,0x01,0x4c,0x3e,0x77,0x4c,0x00,0x01,0x4c,
0x3e,0x77,0x4c,0x00,0x01,0x4c,0x3e,0x77,0x4c,0x00,0x01,0x4c,0x3e,0x77,0x4c,0x00,
0x01,0x4c,0x3e,0x77,0x4c,0x00,0x01,0x4c,0x3e,0x77,0x4c,0x00,0x01,0x4c,0x3e,0x77,
0x4c,0x00,0x01,0x4c,0x3e,0x77,0x4c,0x00,0x01,0x4c,0x3e,0x77,0x4c,0x00,0x01,0x4c,
0x3e,0x77,0x4c,0x00,0x01,0x4c,0x3e,0x77,0x4c,0x00,0x01,0x4c,0x3e,0x77,0x4c,0x00,
0x01,0x4c,0x3e,0x77,0x4c,0x00,0x01,0x4c,0x3e,0x77,0x4c,0x00,0x01,0x4c,0x3e,0x77,
0x4c,0x00,0x01,0x4c,0x3e,0x77,0x4c,0x00,0x01,0x4c,0x3e,0x77,0x4c,0x00,0x01,0x4c,
0x3e,0x77,0x4c,0x00,0x01,0x4c,0x3e,0x77,0x4c,0x00,0x01,0x4c,0x3e,0x77,0x4c,0x00,
0x01,0x4c,0x3e,0x77,0x4c,0x00,0x01,0x4c,0x3e,0x77,0x4c,0x00,0x01,0x4c,0x3e,0x77,
0x4c,0x00,0x01,0x4c,0x3e,0x77,0x4c,0x00,0x01,0x4c,0x3e,0x77,0x4c,0x00,0x01,0x4c,
0x3e,0x77,0x4c,0x00,0x01,0x4c,0x3e,0x77,0x4c,0x00,0x01,0x4c,0x3e,0x77,0x4c,0x00,
0x01,0x4c,0x3e,0x77,0x4c,0x00,0x01,0x4c,0x3e,0x77,0x4c,0x00,0x01,0x4c,0x3e,0x77,
0x4c,0x00,0x01,0x4c,0x3e,0x77,0x4c,0x00,0x01,0x4c,0x3e,0x77,0x4c,0x00,0x01,0x4c,
0x3e,0x77,0x4c,0x00,0x01,0x4c,0x3e,0x77,0x4c,0x00,0x01,0x4c,0x3e,0x77,0x4c,0x00,
0x01,0x4c,0x3e,0x77,0x4c,0x00,0x01,0x4c,0x3e,0x77,0x4c,0x00,0x01,0x4c,0x3e,0x77,
0x4c,0x00,0x01,0x4c,0x3e,0x77,0x4c,0x00,0x01,0x4c,0x3e,0x77,0x4c,0x00,0x01,0x4c,
0x3e,0x77,0x4c,0x00,0x01,0x4c,0x3e,0x77,0x4c,0x00,0x01,0x4c,0x3e,0x77,0x4c,0x00,
0x01,0x4c,0x3e,0x77,0x4c,0x00,0x01,0x4c,0x3e,0x77,0x4c,0x00,0x01,0x4c,0x3e,0x77,
0x4c,0x00,0x01,0x4c,0x3e,0x77,0x4c,0x00,0x01,0x4c,0x3e,0x77,0x4c,0x00,0x01,0x4c,
0x3e,0x77,0x4c,0x00,0x01,0x4c,0x3e,0x77,0x4c,0x00,0x01,0x4c,0x3e,0x77,0x4c,0x00,
0x01,0x4c,0x3e,0x77,0x4c,0x00,0x01,0x4c,0x3e,0x77,0x4c,0x00,0x01,0x4c,0x3e,0x77,
0x4c,0x00,0x01,0x4c,0x3e,0x77,0x4c,0x00,0x01,0x4c,0x3e,0x77,0x4c,0x00,0x01,0x4c,
0x3e,0x77,0x4c,0x00,0x01,0x4c,0x3e,0x77,0x4c,0x00,0x01,0x4c,0x3e,0x77,0x4c,0x00,
0x01,0x4c,0x3e,0x77,0x4c,0x00,0x01,0x4c,0x3e,0x77,0x4c,0x00,0x01,0x4c,0x3e,0x77,
0x4c,0x00,0x01,0x4c,0x3e,0x77,0x4c,0x00,0x01,0x4c,0x3e,0x77,0x4c,0x00,0x01,0x4c,
0x3e,0x77,0x4c,0x00,0x01,0x4c,0x3e,0x77,0x4c,0x00,0x01,0x4c,0x3e,0x77,0x4c,0x00,
0x01,0x4c,0x3e,0x77,0x4c,0x00,0x01,0x4c,0x3e,0x77,0x4c,0x00,0x01,0x4c,0x3e,0x77,
0x4c,0x00,0x01,0x4c,0x3e,0x77,0x4c,0x00,0x01,0x4c,0x3e,0x77,0x4c,0x00,0x01,0x4c,
0x3e,0x77,0x4c,0x00,0x01,0x4c,0x3e,0x77,0x4c,0x00,0x01,0x4c,0x3e,0x77,0x4c,0x00,
0x01,0x4c,0x3e,0x77,0x4c,0x00,0x01,0x4c,0x3e,0x77,0x4c,0x00,0x01,0x4c,0x3e,0x77,
0x4c,0x00,0x01,0x4c,0x3e,0x77,0x4c,0x00,0x01,0x4c,0x3e,0x77,0x4c,0x00,0x01,0x4c,
0x3e,0x77,0x4c,0x00,0x01,0x4c,0x3e,0x77,0x4c,0x00,0x01,0x4c,0x3e,0x77,0x4c,0x00,
0x01,0x4c,0x3e,0x77,0x4c,0x00,0x01,0x4c,0x3e,0x77,0x4c,0x00,0x01,0x4c,0x3e,0x77,
0x4c,0x00,0x01,0x4c,0x3e,0x77,0x4c,0x00,0x01,0x4c,0x3e,0x77,0x4c,0x00,0x01,0x4c,
0x3e,0x77,0x4c,0x00,0x01,0x4c,0x3e,0x77,0x4c,0x00,0x01,0x4c,0x3e,0x77,0x4c,0x00,
0x01,0x4c,0x3e,0x77,0x4c,0x00,0x01,0x4c,0x3e,0x77,0x4c,0x00,0x01,0x4c,0x3e,0x77,
0x4c,0x00,0x01,0x4c,0x3e,0x77,0x4c,0x00,0x01,0x4c,0x3e,0x77,0x4c,0x00,0x01,0x4c,
0x3e,0x77,0x4c,0x00,0x01,0x4c,0x3e,0x77,0x4c,0x00,0x01,0x4c,0x3e,0x77,0x4c,0x00,
0x01,0x4c,0x3e,0x77,0x4c,0x00,0x01,0x4c,0x3e,0x77,0x4c,0x00,0x01,0x4c,0x3e,0x77,
0x4c,0x00,0x01,0x4c,0x3e,0x77,0x4c,0x00,0x01,0x4c,0x3e,0x77,0x4c,0x00,0x01,0x4c,
0x3e,0x77,0x4c,0x00,0x01,0x4c,0x3e,0x77,0x4c,0x00,0x01,0x4c,0x3e,0x77,0x4c,0x00,
0x01,0x4c,0x3e,0x77,0x4c,0x00,0x01,0x4c,0x3e,0x77,0x4c,0x00,0x01,0x4c,0x3e,0x77,
0x4c,0x00,0x01,0x4c,0x3e,0x77,0x4c,0x00,0x01,0x4c,0x3e,0x77,0x4c,0x00,0x01,0x4c,
0x3e,0x77,0x4c,0x00,0x01,0x4c,0x3e,0x77,0x4c,0x00,0x01,0x4c,0x3e,0x77,0x4c,0x00,
0x01,0x4c,0x3e,0x77,0x4c,0x00,0x01,0x4c,0x3e,0x77,0x4c,0x00,0x01,0x4c,0x3e,0x77,
0x4c,0x00,0x01,0x4c,0x3e,0x77,0x4c,0x00,0x01,0x4c,0x3e,0x77,0x4c,0x00,0x01,0x4c,
0x3e,0x77,0x4c,0x00,0x01,0x4c,0x3e,0x77,0x4c,0x00,0x01,0x4c,0x3e,0x77,0x4c,0x00,
0x01,0x4c,0x3e,0x77,0x4c,0x00,0x01,0x4c,0x3e,0x77,0x4c,0x00,0x01,0x4c,0x3e,0x77,
0x4c,0x00,0x01,0x4c,0x3e,0x77,0x4c,0x00,0x01,0x4c,0x3e,0x77,0x4c,0x00,0x01,0x4c,
0x3e,0x77,0x4c,0x00,0x01,0x4c,0x3e,0x77,0x4c,0x00,0x01,0x4c,0x3e,0x77,0x4c,0x00,
0x01,0x4c,0x3e,0x77,0x4c,0x00,0x01,0x4c,0x3e,0x77,0x4c,0x00,0x01,0x4c,0x3e,0x77,
0x4c,0x00,0x01,0x4c,0x3e,0x77,0x4c,0x00,0x01,0x4c,0x3e,0x77,0x4c,0x00,0x01,0x4c,
0x3e,0x77,0x4c,0x00,0x01,0x4c,0x3e,0x77,0x4c,0x00,0x01,0x4c,0x3e,0x77,0x4c,0x00,
0x01,0x4c,0x3e,0x77,0x4c,0x00,0x01,0x4c,0x3e,0x77,0x4c,0x00,0x01,0x4c,0x3e,0x77,
0x4c,0x00,0x01,0x4c,0x3e,0x77,0x4c,0x00,0x01,0x4c,0x3e,0x77,0x4c,0x00,0x01,0x4c,
0x3e,0x77,0x4c,0x00,0x01,0x4c,0x3e,0x77,0x4c,0x00,0x01,0x4c,0x3e,0x77,0x4c,0x00,
0x01,0x4c,0x3e,0x77,0x4c,0x00,0x01,0x4c,0x3e,0x77,0x4c,0x00,0x01,0x4c,0x3e,0x77,
0x4c,0x00,0x01,0x4c,0x3e,0x77,0x4c,0x00,0x01,0x4c,0x3e,0x77,0x4c,0x00,0x01,0x4c,
0x3e,0x77,0x4c,0x00,0x01,0x4c,0x3e,0x77,0x4c,0x00,0x01,0x4c,0x3e,0x77,0x4c,0x00,
0x01,0x4c,0x3e,0x77,0x4c,0x00,0x01,0x4c,0x3e,0x77,0x4c,0x00,0x01,0x4c,0x3e,0x77,
0x4c,0x00,0x01,0x4c,0x3e,0x77,0x4c,0x00,0x01,0x4c,0x3e,0x77,0x4c,0x00,0x01,0x4c,
0x3e,0x77,0x4c,0x00,0x01,0x4c,0x3e,0x77,0x4c,0x00,0x01,0x4c,0x3e,0x77,0x4c,0x00,
0x01,0x4c,0x3e,0x77,0x4c,0x00,0x01,0x4c,0x3e,0x77,0x4c,0x00,0x01,0x4c,0x3e,0x77,
0x4c,0x00,0x01,0x4c,0x3e,0x77,0x4c,0x00,0x01,0x4c,0x3e,0x77,0x4c,0x00,0x01,0x4c,
0x3e,0x77,0x4c,0x00,0x01,0x4c,0x3e,0x77,0x4c,0x00,0x01,0x4c,0x3e,0x77,0x4c,0x00,
0x01,0x4c,0x3e,0x77,0x4c,0x00,0x01,0x4c,0x3e,0x77,0x4c,0x00,0x01,0x4c,0x3e,0x77,
0x4c,0x00,0x01,0x4c,0x3e,0x77,0x4c,0x00,0x01,0x4c,0x3e,0x77,0x4c,0x00,0x01,0x4c,
0x3e,0x77,0x4c,0x00,0x01,0x4c,0x3e,0x77,0x4c,0x00,0x01,0x4c,0x3e,0x77,0x4c,0x00,
0x01,0x4c,0x3e,0x77,0x4c,0x00,0x01,0x4c,0x3e,0x77,0x4c,0x00,0x01,0x4c,0x3e,0x77,
0x4c,0x00,0x01,0x4c,0x3e,0x77,0x4c,0x00,0x01,0x4c,0x3e,0x77,0x4c,0x00,0x01,0x4c,
0x3e,0x77,0x4c,0x00,0x01,0x4c,0x3e,0x77,0x4c,0x00,0x01,0x4c,0x3e,0x77,0x4c,0x00,
0x01,0x4c,0x3e,0x77,0x4c,0x00,0x01,0x4c,0x3e,0x77,0x4c,0x00,0x01,0x4c,0x3e,0x77,
0x4c,0x00,0x01,0x4c,0x3e,0x77,0x4c,0x00,0x01,0x4c,0x3e,0x77,0x4c,0x00,0x01,0x4c,
0x3e,0x77,0x4c,0x00,0x01,0x4c,0x3e,0x77,0x4c,0x00,0x01,0x4c,0x3e,0x77,0x4c,0x00,
0x01,0x4c,0x3e,0x77,0x4c,0x00,0x01,0x4c,0x3e,0x77,0x4c,0x00,0x01,0x4c,0x3e,0x77,
0x4c,0x00,0x01,0x4c,0x3e,0x77,0x4c,0x00,0x01,0x4c,0x3e,0x77,0x4c,0x00,0x01,0x4c,
0x3e,0x77,0x4c,0x00,0x01,0x4c,0x3e,0x77,0x4c,0x00,0x01,0x4c,0x3e,0x77,0x4c,0x00,
0x01,0x4c,0x3e,0x77,0x4c,0x00,0x01,0x4c,0x3e,0x77,0x4c,0x00,0x01,0x4c,0x3e,0x77,
0x4c,0x00,0x01,0x4c,0x3e,0x77,0x4c,0x00,0x01,0x4c,0x3e,0x77,0x4c,0x00,0x01,0x4c,
0x3e,0x77,0x4c,0x00,0x01,0x4c,0x3e,0x77,0x4c,0x00,0x01,0x4c,0x3e,0x77,0x4c,0x00,
0x01,0x4c,0x3e,0x77,0x4c,0x00,0x01,0x4c,0x3e,0x77,0x4c,0x00,0x01,0x4c,0x3e,0x77,
0x4c,0x00,0x01,0x4c,0x3e,0x77,0x4c,0x00,0x01,0x4c,0x3e,0x77,0x4c,0x00,0x01,0x4c,
0x3e,0x77,0x4c,0x00,0x01,0x4c,0x3e,0x77,0x4c,0x00,0x01,0x4c,0x3e,0x77,0x4c,0x00,
0x01,0x4c,0x3e,0x77,0x4c,0x00,0x01,0x4c,0x3e,0x77,0x4c,0x00,0x01,0x4c,0x3e,0x77,
0x4c,0x00,0x01,0x4c,0x3e,0x77,0x4c,0x00,0x01,0x4c,0x3e,0x77,0x4c,0x00,0x01,0x4c,
0x3e,0x77,0x4c,0x00,0x01,0x4c,0x3e,0x77,0x4c,0x00,0x01,0x4c,0x3e,0x77,0x4c,0x00,
0x01,0x4c,0x3e,0x77,0x4c,0x00,0x01,0x4c,0x3e,0x77,0x4c,0x00,0x01,0x4c,0x3e,0x77,
0x4c,0x00,0x01,0x4c,0x3e,0x77,0x4c,0x00,0x01,0x4c,0x3e,0x77,0x4c,0x00,0x01,0x4c,
0x3e,0x77,0x4c,0x00,0x01,0x4c,0x3e,0x77,0x4c,0x00,0x01,0x4c,0x3e,0x77,0x4c,0x00,
0x01,0x4c,0x3e,0x77,0x4c,0x00,0x01,0x4c,0x3e,0x77,0x4c,0x00,0x01,0x4c,0x3e,0x77,
0x4c,0x00,0x01,0x4c,0x3e,0x77,0x4c,0x00,0x01,0x4c,0x3e,0x77,0x4c,0x00,0x01,0x4c,
0x3e,0x77,0x4c,0x00,0x01,0x4c,0x3e,0x77,0x4c,0x00,0x01,0x4c,0x3e,0x77,0x4c,0x00,
0x01,0x4c,0x3e,0x77,0x4c,0x00,0x01,0x4c,0x3e,0x77,0x4c,0x00,0x01,0x4c,0x3e,0x77,
0x4c,0x00,0x01,0x4c,0x3e,0x77,0x4c,0x00,0x01,0x4c,0x3e,0x77,0x4c,0x00,0x01,0x4c,
0x3e,0x77,0x4c,0x00,0x01,0x4c,0x3e,0x77,0x4c,0x00,0x01,0x4c,0x3e,0x77,0x4c,0x00,
0x01,0x4c,0x3e,0x77,0x4c,0x00,0x01,0x4c,0x3e,0x77,0x4c,0x00,0x01,0x4c,0x3e,0x77,
0x4c,0x00,0x01,0x4c,0x3e,0x77,0x4c,0x00,0x01,0x4c,0x3e,0x77,0x4c,0x00,0x01,0x4c,
0x3e,0x77,0x4c,0x00,0x01,0x4c,0x3e,0x77,0x4c,0x00,0x01,0x4c,0x3e,0x77,0x4c,0x00,
0x01,0x4c,0x3e,0x77,0x4c,0x00,0x01,0x4c,0x3e,0x77,0x4c,0x00,0x01,0x4c,0x3e,0x77,
0x4c,0x00,0x01,0x4c,0x3e,0x77,0x4c,0x00,0x01,0x4c,0x3e,0x77,0x4c,0x00,0x01,0x4c,
0x3e,0x77,0x4c,0x00,0x01,0x4c,0x3e,0x77,0x4c,0x00,0x01,0x4c,0x3e,0x77,0x4c,0x00,
0x01,0x4c,0x3e,0x77,0x4c,0x00,0x01,0x4c,0x3e,0x77,0x4c,0x00,0x01,0x4c,0x3e,0x77,
0x4c,0x00,0x01,0x4c,0x3e,0x77,0x4c,0x00,0x01,0x4c,0x3e,0x77,0x4c,0x00,0x01,0x4c,
0x3e,0x77,0x4c,0x00,0x01,0x4c,0x3e,0x77,0x4c,0x00,0x01,0x4c,0x3e,0x77,0x4c,0x00,
0x01,0x4c,0x3e,0x77,0x4c,0x00,0x01,0x4c,0x3e,0x77,0x4c,0x00,0x01,0x4c,0x3e,0x77,
0x4c,0x00,0x01,0x4c,0x3e,0x77,0x4c,0x00,0x01,0x4c,0x3e,0x77,0x4c,0x00,0x01,0x4c,
0x3e,0x77,0x4c,0x00,0x01,0x4c,0x3e,0x77,0x4c,0x00,0x01,0x4c,0x3e,0x77,0x4c,0x00,
0x01,0x4c,0x3e,0x77,0x4c,0x00,0x01,0x4c,0x3e,0x77,0x4c,0x00,0x01,0x4c,0x3e,0x77,
0x4c,0x00,0x01,0x4c,0x3e,0x77,0x4c,0x00,0x01,0x4c,0x3e,0x77,0x4c,0x00,0x01,0x4c,
0x3e,0x77,0x4c,0x00,0x01,0x4c,0x3e,0x77,0x4c,0x00,0x01,0x4c,0x3e,0x77,0x4c,0x00,
0x01,0x4c,0x3e,0x77,0x4c,0x00,0x01,0x4c,0x3e,0x77,0x4c,0x00,0x01,0x4c,0x3e,0x77,
0x4c,0x00,0x01,0x4c,0x3e,0x77,0x4c,0x00,0x01,0x4c,0x3e,0x77,0x4c,0x00,0x01,0x4c,
0x3e,0x77,0x4c,0x00,0x01,0x4c,0x3e,0x77,0x4c,0x00,0x01,0x4c,0x3e,0x77,0x4c,0x00,
0x01,0x4c,0x3e,0x77,0x4c,0x00,0x01,0x4c,0x3e,0x77,0x4c,0x00,0x01,0x4c,0x3e,0x77,
0x4c,0x00,0x01,0x4c,0x3e,0x77,0x4c,0x00,0x01,0x4c,0x3e,0x77,0x4c,0x00,0x01,0x4c,
0x3e,0x77,0x4c,0x00,0x01,0x4c,0x3e,0x77,0x4c,0x00,0x01,0x4c,0x3e,0x77,0x4c,0x00,
0x01,0x4c,0x3e,0x77,0x4c,0x00,0x01,0x4c,0x3e,0x77,0x4c,0x00,0x01,0x4c,0x3e,0x77,
0x4c,0x00,0x01,0x4c,0x3e,0x77,0x4c,0x00,0x01,0x4c,0x3e,0x77,0x4c,0x00,0x01,0x4c,
0x3e,0x77,0x4c,0x00,0x01,0x4c,0x3e,0x77,0x4c,0x00,0x01,0x4c,0x3e,0x77,0x4c,0x00,
0x01,0x4c,0x3e,0x77,0x4c,0x00,0x01,0x4c,0x3e,0x77,0x4c,0x00,0x01,0x4c,0x3e,0x77,
0x4c,0x00,0x01,0x4c,0x3e,0x77,0x4c,0x00,0x01,0x4c,0x3e,0x77,0x4c,0x00,0x01,0x4c,
0x3e,0x77,0x4c,0x00,0x01,0x4c,0x3e,0x77,0x4c,0x00,0x01,0x4c,0x3e,0x77,0x4c,0x00,
0x01,0x4c,0x3e,0x77,0x4c,0x00,0x01,0x4c,0x3e,0x77,0x4c,0x00,0x01,0x4c,0x3e,0x77,
0x4c,0x00,0x01,0x4c,0x3e,0x77,0x4c,0x00,0x01,0x4c,0x3e,0x77,0x4c,0x00,0x01,0x4c,
0x3e,0x77,0x4c,0x00,0x01,0x4c,0x3e,0x77,0x4c,0x00,0x01,0x4c,0x3e,0x77,0x4c,0x00,
0x01,0x4c,0x3e,0x77,0x4c,0x00,0x01,0x4c,0x3e,0x77,0x4c,0x00,0x01,0x4c,0x3e,0x77,
0x4c,0x00,0x01,0x4c,0x3e,0x77,0x4c,0x00,0x01,0x4c,0x3e,0x77,0x4c,0x00,0x01,0x4c,
0x3e,0x77,0x4c,0x00,0x01,0x4c,0x3e,0x77,0x4c,0x00,0x01,0x4c,0x3e,0x77,0x4c,0x00,
0x01,0x4c,0x3e,0x77,0x4c,0x00,0x01,0x4c,0x3e,0x77,0x4c,0x00,0x01,0x4c,0x3e,0x77,
0x4c,0x00,0x01,0x4c,0x3e,0x77,0x4c,0x00,0x01,0x4c,0x3e,0x77,0x4c,0x00,0x01,0x4c,
0x3e,0x77,0x4c,0x00,0x01,0x4c,0x3e,0x77,0x4c,0x00,0x01,0x4c,0x3e,0x77,0x4c,0x00,
0x01,0x4c,0x3e,0x77,0x4c,0x00,0x01,0x4c,0x3e,0x77,0x4c,0x00,0x01,0x4c,0x3e,0x77,
0x4c,0x00,0x01,0x4c,0x3e,0x77,0x4c,0x00,0x01,0x4c,0x3e,0x77,0x4c,0x00,0x01,0x4c,
0x3e,0x77,0x4c,0x00,0x01,0x4c,0x3e,0x77,0x4c,0x00,0x01,0x4c,0x3e,0x77,0x4c,0x00,
0x01,0x4c,0x3e,0x77,0x4c,0x00,0x01,0x4c,0x3e,0x77,0x4c,0x00,0x01,0x4c,0x3e,0x77,
0x4c,0x00,0x01,0x4c,0x3e,0x77,0x4c,0x00,0x01,0x4c,0x3e,0x77,0x4c,0x00,0x01,0x4c,
0x3e,0x77,0x4c,0x00,0x01,0x4c,0x3e,0x77,0x4c,0x00,0x01,0x4c,0x3e,0x77,0x4c,0x00,
0x01,0x4c,0x3e,0x77,0x4c,0x00,0x01,0x4c,0x3e,0x77,0x4c,0x00,0x01,0x4c,0x3e,0x77,
0x4c,0x00,0x01,0x4c,0x3e,0x77,0x4c,0x00,0x01,0x4c,0x3e,0x77,0x4c,0x00,0x01,0x4c,
0x3e,0x77,0x4c,0x00,0x01,0x4c,0x3e,0x77,0x4c,0x00,0x01,0x4c,0x3e,0x77,0x4c,0x00,
0x01,0x4c,0x3e,0x77,0x4c,0x00,0x01,0x4c,0x3e,0x77,0x4c,0x00,0x01,0x4c,0x72,0x77,
0x4c,0x00,0x01,0x4c,0x5f,0x77,0x4c,0x00,0x01,0x4c,0x5f,0x77,0x4c,0x00,0x01,0x4c,
0x5f,0x77,0x4c,0x00,0x01,0x4c,0x72,0x77,0x4c,0x00,0x01,0x4c,0x5f,0x77,0x4c,0x00,
0x01,0x4c,0x5f,0x77,0x4c,0x00,0x01,0x4c,0x5f,0x77,0x4c,0x00,0x01,0x4c,0x72,0x77,
0x4c,0x00,0x01,0x4c,0x5f,0x77,0x4c,0x00,0x01,0x4c,0x5f,0x77,0x4c,0x00,0x01,0x4c,
0x5f,0x77,0x4c,0x00,0x01,0x4c,0x72,0x77,0x4c,0x00,0x01,0x4c,0x5f,0x77,0x4c,0x00,
0x01,0x4c,0x5f,0x77,0x4c,0x00,0x01,0x4c,0x5f,0x77,0x4c,0x00,0x01,0x4c,0x72,0x77,
0x4c,0x00,0x01,0x4c,0x5f,0x77,0x4c,0x00,0x01,0x4c,0x5f,0x77,0x4c,0x00,0x01,0x4c,
0x5f,0x77,0x4c,0x00,0x01,0x4c,0x72,0x77,0x4c,0x00,0x01,0x4c,0x5f,0x77,0x4c,0x00,
0x01,0x4c,0x5f,0x77,0x4c,0x00,0x01,0x4c,0x5f,0x77,0x4c,0x00,0x01,0x4c,0x72,0x77,
0x4c,0x00,0x01,0x4c,0x5f,0x77,0x4c,0x00,0x01,0x4c,0x5f,0x77,0x4c,0x00,0x01,0x4c,
0x5f,0x77,0x4c,0x00,0x01,0x4c,0x72,0x77,0x4c,0x00,0x01,0x4c,0x5f,0x77,0x4c,0x00,
0x01,0x4c,0x5f,0x77,0x4c,0x00,0x01,0x4c,0x5f,0x77,0x4c,0x00,0x01,0x4c,0x72,0x77,
0x4c,0x00,0x01,0x4c,0x5f,0x77,0x4c,0x00,0x01,0x4c,0x5f,0x77,0x4c,0x00,0x01,0x4c,
0x5f,0x77,0x4c,0x00,0x01,0x4c,0x72,0x77,0x4c,0x00,0x01,0x4c,0x5f,0x77,0x4c,0x00,
0x01,0x4c,0x5f,0x77,0x4c,0x00,0x01,0x4c,0x5f,0x77,0x4c,0x00,0x01,0x4c,0x72,0x77,
0x4c,0x00,0x01,0x4c,0x5f,0x77,0x4c,0x00,0x01,0x4c,0x5f,0x77,0x4c,0x00,0x01,0x4c,
0x5f,0x77,0x4c,0x00,0x01,0x4c,0x72,0x77,0x4c,0x00,0x01,0x4c,0x5f,0x77,0x4c,0x00,
0x01,0x4c,0x5f,0x77,0x4c,0x00,0x01,0x4c,0x5f,0x77,0x4c,0x00,0x01,0x4c,0x72,0x77,
0x4c,0x00,0x01,0x4c,0x5f,0x77,0x4c,0x00,0x01,0x4c,0x5f,0x77,0x4c,0x00,0x01,0x4c,
0x5f,0x77,0x4c,0x00,0x01,0x4c,0x72,0x77,0x4c,0x00,0x01,0x4c,0x5f,0x77,0x4c,0x00,
0x01,0x4c,0x5f,0x77,0x4c,0x00,0x01,0x4c,0x5f,0x77,0x4c,0x00,0x01,0x4c,0x72,0x77,
0x4c,0x00,0x01,0x4c,0x5f,0x77,0x4c,0x00,0x01,0x4c,0x5f,0x77,0x4c,0x00,0x01,0x4c,
0x5f,0x77,0x4c,0x00,0x01,0x4c,0x72,0x77,0x4c,0x00,0x01,0x4c,0x5f,0x77,0x4c,0x00,
0x01,0x4c,0x5f,0x77,0x4c,0x00,0x01,0x4c,0x5f,0x77,0x4c,0x00,0x01,0x4c,0x7e,0x77,
0x4c,0x00,0x01,0x4c,0x69,0x77,0x4c,0x00,0x01,0x4c,0x69,0x77,0x4c,0x00,0x01,0x4c,
0x69,0x77,0x4c,0x00,0x01,0x4c,0x7e,0x77,0x4c,0x00,0x01,0x4c,0x69,0x77,0x4c,0x00,
0x01,0x4c,0x69,0x77,0x4c,0x00,0x01,0x4c,0x69,0x77,0x4c,0x00,0x01,0x4c,0x7e,0x77,
0x4c,0x00,0x01,0x4c,0x69,0x77,0x4c,0x00,0x01,0x4c,0x69,0x77,0x4c,0x00,0x01,0x4c,
0x69,0x77,0x4c,0x00,0x01,0x4c,0x7e,0x77,0x4c,0x00,0x01,0x4c,0x69,0x77,0x4c,0x00,
0x01,0x4c,0x69,0x77,0x4c,0x00,0x01,0x4c,0x69,0x77,0x4c,0x00,0x01,0x4c,0x7e,0x77,
0x4c,0x00,0x01,0x4c,0x69,0x77,0x4c,0x00,0x01,0x4c,0x69,0x77,0x4c,0x00,0x01,0x4c,
0x69,0x77,0x4c,0x00,0x01,0x4c,0x7e,0x77,0x4c,0x00,0x01,0x4c,0x69,0x77,0x4c,0x00,
0x01,0x4c,0x69,0x77,0x4c,0x00,0x01,0x4c,0x69,0x77,0x4c,0x00,0x01,0x4c,0x7e,0x77,
0x4c,0x00,0x01,0x4c,0x69,0x77,0x4c,0x00,0x01,0x4c,0x69,0x77,0x4c,0x00,0x01,0x4c,
0x69,0x77,0x4c,0x00,0x01,0x4c,0x7e,0x77,0x4c,0x00,0x01,0x4c,0x69,0x77,0x4c,0x00,
0x01,0x4c,0x69,0x77,0x4c,0x00,0x01,0x4c,0x69,0x77,0x4c,0x00,0x01,0x4c,0x7e,0x77,
0x4c,0x00,0x01,0x4c,0x69,0x77,0x4c,0x00,0x01,0x4c,0x69,0x77,0x4c,0x00,0x01,0x4c,
0x69,0x77,0x4c,0x00,0x01,0x4c,0x7e,0x77,0x4c,0x00,0x01,0x4c,0x69,0x77,0x4c,0x00,
0x01,0x4c,0x69,0x77,0x4c,0x00,0x01,0x4c,0x69,0x77,0x4c,0x00,0x01,0x4c,0x7e,0x77,
0x4c,0x00,0x01,0x4c,0x69,0x77,0x4c,0x00,0x01,0x4c,0x69,0x77,0x4c,0x00,0x01,0x4c,
0x69,0x77,0x4c,0x00,0x01,0x4c,0x7e,0x77,0x4c,0x00,0x01,0x4c,0x69,0x77,0x4c,0x00,
0x01,0x4c,0x69,0x77,0x4c,0x00,0x01,0x4c,0x69,0x77,0x4c,0x00,0x01,0x4c,0x7f,0x77,
0x4c,0x00,0x01,0x4c,0x78,0x77,0x4c,0x00,0x01,0x4c,0x78,0x77,0x4c,0x00,0x01,0x4c,
0x78,0x77,0x4c,0x00,0x01,0x4c,0x7f,0x77,0x4c,0x00,0x01,0x4c,0x78,0x77,0x4c,0x00,
0x01,0x4c,0x78,0x77,0x4c,0x00,0x01,0x4c,0x78,0x77,0x4c,0x00,0x01,0x4c,0x7f,0x77,
0x4c,0x00,0x01,0x4c,0x78,0x77,0x4c,0x00,0x01,0x4c,0x78,0x77,0x4c,0x00,0x01,0x4c,
0x78,0x77,0x4c,0x00,0x01,0x4c,0x7f,0x77,0x4c,0x00,0x01,0x4c,0x78,0x77,0x4c,0x00,
0x01,0x4c,0x78,0x77,0x4c,0x00,0x01,0x4c,0x78,0x77,0x4c,0x00,0x01,0x4c,0x7f,0x77,
0x4c,0x00,0x01,0x4c,0x78,0x77,0x4c,0x00,0x01,0x4c,0x78,0x77,0x4c,0x00,0x01,0x4c,
0x78,0x77,0x4c,0x00,0x01,0x4c,0x7f,0x77,0x4c,0x00,0x01,0x4c,0x78,0x77,0x4c,0x00,
0x01,0x4c,0x78,0x77,0x4c,0x00,0x01,0x4c,0x78,0x77,0x4c,0x00,0x01,0x4c,0x7f,0x77,
0x4c,0x00,0x01,0x4c,0x78,0x77,0x4c,0x00,0x01,0x4c,0x78,0x77,0x4c,0x00,0x01,0x4c,
0x78,0x77,0x4c,0x00,0x01,0x4c,0x7f,0x77,0x4c,0x00,0x01,0x4c,0x78,0x77,0x4c,0x00,
0x01,0x4c,0x78,0x77,0x4c,0x00,0x01,0x4c,0x78,0x77,0x4c,0x00,0x01,0x4c,0x7f,0x77,
0x4c,0x00,0x01,0x4c,0x78,0x77,0x4c,0x00,0x01,0x4c,0x78,0x77,0x4c,0x00,0x01,0x4c,
0x78,0x77,0x4c,0x00,0x01,0x4c,0x7f,0x77,0x4c,0x00,0x01,0x4c,0x78,0x77,0x4c,0x00,
0x01,0x4c,0x78,0x77,0x4c,0x00,0x01,0x4c,0x78,0x77,0x4c,0x00,0x01,0x4c,0x7f,0x77,
0x4c,0x00,0x01,0x4c,0x78,0x77,0x4c,0x00,0x01,0x4c,0x78,0x77,0x4c,0x00,0x01,0x4c,
0x78,0x77,0x4c,0x00,0x01,0x4c,0x7f,0x77,0x4c,0x00,0x01,0x4c,0x78,0x77,0x4c,0x00,
0x01,0x4c,0x78,0x77,0x4c,0x00,0x01,0x4c,0x78,0x77,0x4c,0x00,0x01,0x4c,0x7f,0x77,
0x4c,0x00,0x01,0x4c,0x78,0x77,0x4c,0x00,0x01,0x4c,0x78,0x77,0x4c,0x00,0x01,0x4c,
0x78,0x77,0x4c,0x00,0x01,0x4c,0x7f,0x77,0x4c,0x00,0x01,0x4c,0x78,0x77,0x4c,0x00,
0x01,0x4c,0x78,0x77,0x4c,0x00,0x01,0x4c,0x78,0x77,0x4c,0x00,0x01,0x4c,0x7f,0x77,
0x4c,0x00,0x01,0x4c,0x78,0x77,0x4c,0x00,0x01,0x4c,0x78,0x77,0x4c,0x00,0x01,0x4c,
0x78,0x77,0x4c,0x00,0x01,0x4c,0x7f,0x77,0x4c,0x00,0x01,0x4c,0x78,0x77,0x4c,0x00,
0x01,0x4c,0x78,0x77,0x4c,0x00,0x01,0x4c,0x78,0x77,0x4c,0x00,0x01,0x4c,0x7f,0x77,
0x4c,0x00,0x01,0x4c,0x7e,0x77,0x4c,0x00,0x01,0x4c,0x7e,0x77,0x4c,0x00,0x01,0x4c,
0x7e,0x77,0x4c,0x00,0x01,0x4c,0x7f,0x77,0x4c,0x00,0x01,0x4c,0x7e,0x77,0x4c,0x00,
0x01,0x4c,0x7e,0x77,0x4c,0x00,0x01,0x4c,0x7e,0x77,0x4c,0x00,0x01,0x4c,0x7f,0x77,
0x4c,0x00,0x01,0x4c,0x7e,0x77,0x4c,0x00,0x01,0x4c,0x7e,0x77,0x4c,0x00,0x01,0x4c,
0x7e,0x77,0x4c,0x00,0x01,0x4c,0x7f,0x77,0x4c,0x00,0x01,0x4c,0x7e,0x77,0x4c,0x00,
0x01,0x4c,0x7e,0x77,0x4c,0x00,0x01,0x4c,0x7e,0x77,0x4c,0x00,0x01,0x4c,0x7f,0x77,
0x4c,0x00,0x01,0x4c,0x7e,0x77,0x4c,0x00,0x01,0x4c,0x7e,0x77,0x4c,0x00,0x01,0x4c,
0x7e,0x77,0x4c,0x00,0x01,0x4c,0x7f,0x77,0x4c,0x00,0x01,0x4c,0x7e,0x77,0x4c,0x00,
0x01,0x4c,0x7e,0x77,0x4c,0x00,0x01,0x4c,0x7e,0x77,0x4c,0x00,0x01,0x4c,0x7f,0x77,
0x4c,0x00,0x01,0x4c,0x7e,0x77,0x4c,0x00,0x01,0x4c,0x7e,0x77,0x4c,0x00,0x01,0x4c,
0x7e,0x77,0x4c,0x00,0x01,0x4c,0x7f,0x77,0x4c,0x00,0x01,0x4c,0x7e,0x77,0x4c,0x00,
0x01,0x4c,0x7e,0x77,0x4c,0x00,0x01,0x4c,0x7e,0x77,0x4c,0x00,0x01,0x4c,0x7f,0x77,
0x4c,0x00,0x01,0x4c,0x7e,0x77,0x4c,0x00,0x01,0x4c,0x7e,0x77,0x4c,0x00,0x01,0x4c,
0x7e,0x77,0x4c,0x00,0x01,0x4c,0x7f,0x77,0x4c,0x00,0x01,0x4c,0x7e,0x77,0x4c,0x00,
0x01,0x4c,0x7e,0x77,0x4c,0x00,0x01,0x4c,0x7e,0x77,0x4c,0x00,0x01,0x4c,0x7f,0x77,
0x4c,0x00,0x01,0x4c,0x7e,0x77,0x4c,0x00,0x01,0x4c,0x7e,0x77,0x4c,0x00,0x01,0x4c,
0x7e,0x77,0x4c,0x00,0x01,0x4c,0x7f,0x77,0x4c,0x00,0x01,0x4c,0x7e,0x77,0x4c,0x00,
0x01,0x4c,0x7e,0x77,0x4c,0x00,0x01,0x4c,0x7e,0x77,0x4c,0x00,0x01,0x4c,0x7f,0x77,
0x4c,0x00,0x01,0x4c,0x7e,0x77,0x4c,0x00,0x01,0x4c,0x7e,0x77,0x4c,0x00,0x01,0x4c,
0x7e,0x77,0x4c,0x00,0x01,0x4c,0x7f,0x77,0x4c,0x00,0x01,0x4c,0x7e,0x77,0x4c,0x00,
0x01,0x4c,0x7e,0x77,0x4c,0x00,0x01,0x4c,0x7e,0x77,0x4c,0x00,0x01,0x4c,0x7f,0x77,
0x4c,0x00,0x01,0x4c,0x7e,0x77,0x4c,0x00,0x01,0x4c,0x7e,0x77,0x4c,0x00,0x01,0x4c,
0x7e,0x77,0x4c,0x00,0x01,0x4c,0x7f,0x77,0x4c,0x00,0x01,0x4c,0x7e,0x77,0x4c,0x00,
0x01,0x4c,0x7e,0x77,0x4c,0x00,0x01,0x4c,0x7e,0x77,0x4c,0x00,0x01,0x4c,0x7f,0x77,
0x4c,0x00,0x01,0x4c,0x7e,0x77,0x4c,0x00,0x01,0x4c,0x7e,0x77,0x4c,0x00,0x01,0x4c,
0x7e,0x77,0x4c,0x00,0x01,0x4c,0x7f,0x77,0x4c,0x00,0x01,0x4c,0x7e,0x77,0x4c,0x00,
0x01,0x4c,0x7e,0x77,0x4c,0x00,0x01,0x4c,0x7e,0x77,0x4c,0x00,0x01,0x4c,0x7f,0x77,
0x4c,0x00,0x01,0x4c,0x7e,0x77,0x4c,0x00,0x01,0x4c,0x7e,0x77,0x4c,0x00,0x01,0x4c,
0x7e,0x77,0x4c,0x00,0x01,0x4c,0x7f,0x77,0x4c,0x00,0x01,0x4c,0x7e,0x77,0x4c,0x00,
0x01,0x4c,0x7e,0x77,0x4c,0x00,0x01,0x4c,0x7e,0x77,0x4c,0x00,0x01,0x4c,0x7f,0x77,
0x4c,0x00,0x01,0x4c,0x7d,0x77,0x4c,0x00,0x01,0x4c,0x7b,0x77,0x4c,0x00,0x01,0x4c,
0x79,0x77,0x4c,0x00,0x01,0x4c,0x7f,0x77,0x4c,0x00,0x01,0x4c,0x76,0x77,0x4c,0x00,
0x01,0x4c,0x74,0x77,0x4c,0x00,0x01,0x4c,0x72,0x77,0x4c,0x00,0x01,0x4c,0x7f,0x77,
0x4c,0x00,0x01,0x4c,0x6f,0x77,0x4c,0x00,0x01,0x4c,0x6d,0x77,0x4c,0x00,0x01,0x4c,
0x6b,0x77,0x4c,0x00,0x01,0x4c,0x7f,0x77,0x4c,0x00,0x01,0x4c,0x68,0x77,0x4c,0x00,
0x01,0x4c,0x66,0x77,0x4c,0x00,0x01,0x4c,0x64,0x77,0x4c,0x00,0x01,0x4c,0x76,0x77,
0x4c,0x00,0x01,0x4c,0x61,0x77,0x4c,0x00,0x01,0x4c,0x5f,0x77,0x4c,0x00,0x01,0x4c,
0x5d,0x77,0x4c,0x00,0x01,0x4c,0x6e,0x77,0x4c,0x00,0x01,0x4c,0x5a,0x77,0x4c,0x00,
0x01,0x4c,0x58,0x77,0x4c,0x00,0x01,0x4c,0x56,0x77,0x4c,0x00,0x01,0x4c,0x66,0x77,
0x4c,0x00,0x01,0x4c,0x53,0x77,0x4c,0x00,0x01,0x4c,0x51,0x77,0x4c,0x00,0x01,0x4c,
0x4f,0x77,0x4c,0x00,0x01,0x4c,0x5d,0x77,0x4c,0x00,0x01,0x4c,0x4c,0x77,0x4c,0x00,
0x01,0x4c,0x4a,0x77,0x4c,0x00,0x01,0x4c,0x48,0x77,0x4c,0x00,0x01,0x4c,0x55,0x77,
0x4c,0x00,0x01,0x4c,0x45,0x77,0x4c,0x00,0x01,0x4c,0x43,0x77,0x4c,0x00,0x01,0x4c,
0x41,0x77,0x4c,0x00,0x01,0x4c,0x4c,0x77,0x4c,0x00,0x01,0x4c,0x3e,0x77,0x4c,0x00,
0x01,0x4c,0x3c,0x77,0x4c,0x00,0x01,0x4c,0x3a,0x77,0x4c,0x00,0x01,0x4c,0x44,0x77,
0x4c,0x00,0x01,0x4c,0x37,0x77,0x4c,0x00,0x01,0x4c,0x35,0x77,0x4c,0x00,0x01,0x4c,
0x33,0x77,0x4c,0x00,0x01,0x4c,0x3c,0x77,0x4c,0x00,0x01,0x4c,0x30,0x77,0x4c,0x00,
0x01,0x4c,0x2e,0x77,0x4c,0x00,0x01,0x4c,0x2c,0x77,0x4c,0x00,0x01,0x4c,0x33,0x77,
0x4c,0x00,0x01,0x4c,0x29,0x77,0x4c,0x00,0x01,0x4c,0x27,0x77,0x4c,0x00,0x01,0x4c,
0x25,0x77,0x4c,0x00,0x01,0x4c,0x2b,0x77,0x4c,0x00,0x01,0x4c,0x22,0x77,0x4c,0x00,
0x01,0x4c,0x20,0x77,0x4c,0x00,0x01,0x4c,0x1e,0x77,0x4c,0x00,0x01,0x4c,0x22,0x77,
0x4c,0x00,0x01,0x4c,0x1b,0x77,0x4c,0x00,0x01,0x4c,0x19,0x77,0x4c,0x00,0x01,0x4c,
0x17,0x77,0x4c,0x00,0x01,0x4c,0x1a,0x77,0x4c,0x00,0x01,0x4c,0x14,0x77,0x4c,0x00,
0x01,0x4c,0x12,0x77,0x4c,0x00,0x01,0x4c,0x10,0x77,0x4c,0x00,0x01,0xff,0x2f,0x00,
0x4d,0x54,0x72,0x6b,0x00,0x00,0x07,0x44,0x00,0xff,0x59,0x02,0x00,0x00,0x00,0xb9,
0x79,0x00,0x00,0xc9,0x19,0x00,0xb9,0x07,0x32,0x00,0x0a,0x40,0x00,0x5b,0x00,0x00,
0x5d,0x00,0x00,0xff,0x21,0x01,0x01,0x78,0x99,0x23,0x40,0x82,0x67,0x23,0x00,0x84,
0x59,0x23,0x40,0x82,0x67,0x23,0x00,0x84,0x59,0x23,0x40,0x82,0x67,0x23,0x00,0x84,
0x59,0x23,0x40,0x82,0x67,0x23,0x00,0x84,0x59,0x23,0x40,0x82,0x67,0x23,0x00,0x84,
0x59,0x23,0x40,0x82,0x67,0x23,0x00,0x84,0x59,0x23,0x40,0x82,0x67,0x23,0x00,0x84,
0x59,0x23,0x40,0x82,0x67,0x23,0x00,0x84,0x59,0x23,0x40,0x82,0x67,0x23,0x00,0x84,
0x59,0x23,0x40,0x82,0x67,0x23,0x00,0x84,0x59,0x23,0x40,0x82,0x67,0x23,0x00,0x84,
0x59,0x23,0x50,0x82,0x67,0x23,0x00,0x84,0x59,0x23,0x50,0x82,0x67,0x23,0x00,0x84,
0x59,0x23,0x50,0x82,0x67,0x23,0x00,0x84,0x59,0x23,0x50,0x82,0x67,0x23,0x00,0x84,
0x59,0x23,0x50,0x82,0x67,0x23,0x00,0x84,0x59,0x23,0x50,0x82,0x67,0x23,0x00,0x84,
0x59,0x23,0x50,0x82,0x67,0x23,0x00,0x84,0x59,0x23,0x50,0x82,0x67,0x23,0x00,0x84,
0x59,0x23,0x50,0x82,0x67,0x23,0x00,0x84,0x59,0x23,0x50,0x82,0x67,0x23,0x00,0x84,
0x59,0x23,0x50,0x82,0x67,0x23,0x00,0x84,0x59,0x23,0x50,0x82,0x67,0x23,0x00,0x84,
0x59,0x23,0x50,0x82,0x67,0x23,0x00,0x84,0x59,0x23,0x50,0x82,0x67,0x23,0x00,0x84,
0x59,0x23,0x50,0x82,0x67,0x23,0x00,0x84,0x59,0x23,0x50,0x82,0x67,0x23,0x00,0x84,
0x59,0x23,0x50,0x82,0x67,0x23,0x00,0x84,0x59,0x23,0x50,0x82,0x67,0x23,0x00,0x84,
0x59,0x23,0x50,0x82,0x67,0x23,0x00,0x84,0x59,0x23,0x50,0x82,0x67,0x23,0x00,0x84,
0x59,0x23,0x50,0x82,0x67,0x23,0x00,0x84,0x59,0x23,0x50,0x82,0x67,0x23,0x00,0x84,
0x59,0x23,0x50,0x82,0x67,0x23,0x00,0x84,0x59,0x23,0x50,0x82,0x67,0x23,0x00,0x84,
0x59,0x23,0x50,0x82,0x67,0x23,0x00,0x84,0x59,0x23,0x50,0x82,0x67,0x23,0x00,0x84,
0x59,0x23,0x50,0x82,0x67,0x23,0x00,0x84,0x59,0x23,0x50,0x82,0x67,0x23,0x00,0x84,
0x59,0x23,0x50,0x82,0x67,0x23,0x00,0x84,0x59,0x23,0x50,0x82,0x67,0x23,0x00,0x84,
0x59,0x23,0x50,0x82,0x67,0x23,0x00,0x84,0x59,0x23,0x50,0x82,0x67,0x23,0x00,0x84,
0x59,0x23,0x50,0x82,0x67,0x23,0x00,0x84,0x59,0x23,0x50,0x82,0x67,0x23,0x00,0x84,
0x59,0x23,0x50,0x82,0x67,0x23,0x00,0x84,0x59,0x23,0x50,0x82,0x67,0x23,0x00,0x84,
0x59,0x23,0x50,0x82,0x67,0x23,0x00,0x84,0x59,0x23,0x50,0x82,0x67,0x23,0x00,0x84,
0x59,0x23,0x50,0x82,0x67,0x23,0x00,0x84,0x59,0x23,0x50,0x82,0x67,0x23,0x00,0x84,
0x59,0x23,0x50,0x82,0x67,0x23,0x00,0x9b,0x19,0x23,0x50,0x82,0x67,0x23,0x00,0x84,
0x59,0x23,0x50,0x82,0x67,0x23,0x00,0x84,0x59,0x23,0x50,0x82,0x67,0x23,0x00,0x84,
0x59,0x23,0x50,0x82,0x67,0x23,0x00,0x84,0x59,0x23,0x50,0x82,0x67,0x23,0x00,0x9b,
0x19,0x23,0x50,0x82,0x67,0x23,0x00,0x84,0x59,0x23,0x50,0x82,0x67,0x23,0x00,0x84,
0x59,0x23,0x50,0x82,0x67,0x23,0x00,0xec,0x61,0x23,0x70,0x77,0x23,0x00,0x01,0x23,
0x70,0x77,0x23,0x00,0x01,0x23,0x70,0x77,0x23,0x00,0x01,0x23,0x70,0x77,0x23,0x00,
0x01,0x23,0x70,0x77,0x23,0x00,0x01,0x23,0x70,0x77,0x23,0x00,0x01,0x23,0x70,0x77,
0x23,0x00,0x01,0x23,0x70,0x77,0x23,0x00,0x01,0x23,0x70,0x77,0x23,0x00,0x01,0x23,
0x70,0x77,0x23,0x00,0x01,0x23,0x70,0x77,0x23,0x00,0x01,0x23,0x70,0x77,0x23,0x00,
0x01,0x23,0x70,0x77,0x23,0x00,0x01,0x23,0x70,0x77,0x23,0x00,0x01,0x23,0x70,0x77,
0x23,0x00,0x01,0x23,0x70,0x77,0x23,0x00,0x01,0x23,0x70,0x77,0x23,0x00,0x01,0x23,
0x70,0x77,0x23,0x00,0x01,0x23,0x70,0x77,0x23,0x00,0x01,0x23,0x70,0x77,0x23,0x00,
0x01,0x23,0x70,0x77,0x23,0x00,0x01,0x23,0x70,0x77,0x23,0x00,0x01,0x23,0x70,0x77,
0x23,0x00,0x01,0x23,0x70,0x77,0x23,0x00,0x01,0x23,0x70,0x77,0x23,0x00,0x01,0x23,
0x70,0x77,0x23,0x00,0x01,0x23,0x70,0x77,0x23,0x00,0x01,0x23,0x70,0x77,0x23,0x00,
0x01,0x23,0x70,0x77,0x23,0x00,0x01,0x23,0x70,0x77,0x23,0x00,0x01,0x23,0x70,0x77,
0x23,0x00,0x01,0x23,0x70,0x77,0x23,0x00,0x01,0x23,0x70,0x77,0x23,0x00,0x01,0x23,
0x70,0x77,0x23,0x00,0x01,0x23,0x70,0x77,0x23,0x00,0x01,0x23,0x70,0x77,0x23,0x00,
0x01,0x23,0x70,0x77,0x23,0x00,0x01,0x23,0x70,0x77,0x23,0x00,0x01,0x23,0x70,0x77,
0x23,0x00,0x01,0x23,0x70,0x77,0x23,0x00,0x01,0x23,0x70,0x77,0x23,0x00,0x01,0x23,
0x70,0x77,0x23,0x00,0x01,0x23,0x70,0x77,0x23,0x00,0x01,0x23,0x70,0x77,0x23,0x00,
0x01,0x23,0x70,0x77,0x23,0x00,0x01,0x23,0x70,0x77,0x23,0x00,0x01,0x23,0x70,0x77,
0x23,0x00,0x01,0x23,0x70,0x77,0x23,0x00,0x01,0x23,0x70,0x77,0x23,0x00,0x01,0x23,
0x70,0x77,0x23,0x00,0x01,0x23,0x70,0x77,0x23,0x00,0x01,0x23,0x70,0x77,0x23,0x00,
0x01,0x23,0x70,0x77,0x23,0x00,0x01,0x23,0x70,0x77,0x23,0x00,0x01,0x23,0x70,0x77,
0x23,0x00,0x01,0x23,0x70,0x77,0x23,0x00,0x01,0x23,0x70,0x77,0x23,0x00,0x01,0x23,
0x70,0x77,0x23,0x00,0x01,0x23,0x70,0x77,0x23,0x00,0x01,0x23,0x70,0x77,0x23,0x00,
0x01,0x23,0x70,0x77,0x23,0x00,0x01,0x23,0x70,0x77,0x23,0x00,0x01,0x23,0x70,0x77,
0x23,0x00,0x01,0x23,0x70,0x77,0x23,0x00,0x01,0x23,0x7e,0x77,0x23,0x00,0x01,0x23,
0x7e,0x77,0x23,0x00,0x01,0x23,0x7e,0x77,0x23,0x00,0x01,0x23,0x7e,0x77,0x23,0x00,
0x01,0x23,0x7e,0x77,0x23,0x00,0x01,0x23,0x7e,0x77,0x23,0x00,0x01,0x23,0x7e,0x77,
0x23,0x00,0x01,0x23,0x7e,0x77,0x23,0x00,0x01,0x23,0x7e,0x77,0x23,0x00,0x01,0x23,
0x7e,0x77,0x23,0x00,0x01,0x23,0x7e,0x77,0x23,0x00,0x01,0x23,0x7e,0x77,0x23,0x00,
0x01,0x23,0x7e,0x77,0x23,0x00,0x01,0x23,0x7e,0x77,0x23,0x00,0x01,0x23,0x7e,0x77,
0x23,0x00,0x01,0x23,0x7e,0x77,0x23,0x00,0x01,0x23,0x7e,0x77,0x23,0x00,0x01,0x23,
0x7e,0x77,0x23,0x00,0x01,0x23,0x7e,0x77,0x23,0x00,0x01,0x23,0x7e,0x77,0x23,0x00,
0x01,0x23,0x7e,0x77,0x23,0x00,0x01,0x23,0x7e,0x77,0x23,0x00,0x01,0x23,0x7e,0x77,
0x23,0x00,0x01,0x23,0x7e,0x77,0x23,0x00,0x01,0x23,0x7e,0x77,0x23,0x00,0x01,0x23,
0x7e,0x77,0x23,0x00,0x01,0x23,0x7e,0x77,0x23,0x00,0x01,0x23,0x7e,0x77,0x23,0x00,
0x01,0x23,0x7e,0x77,0x23,0x00,0x01,0x23,0x7e,0x77,0x23,0x00,0x01,0x23,0x7e,0x77,
0x23,0x00,0x01,0x23,0x7e,0x77,0x23,0x00,0x01,0x23,0x7e,0x77,0x23,0x00,0x01,0x23,
0x7e,0x77,0x23,0x00,0x01,0x23,0x7e,0x77,0x23,0x00,0x01,0x23,0x7e,0x77,0x23,0x00,
0x01,0x23,0x7e,0x77,0x23,0x00,0x01,0x23,0x7e,0x77,0x23,0x00,0x01,0x23,0x7e,0x77,
0x23,0x00,0x01,0x23,0x7e,0x77,0x23,0x00,0x01,0x23,0x7e,0x77,0x23,0x00,0x01,0x23,
0x7e,0x77,0x23,0x00,0x01,0x23,0x7e,0x77,0x23,0x00,0x01,0x23,0x7e,0x77,0x23,0x00,
0x01,0x23,0x7e,0x77,0x23,0x00,0x01,0x23,0x7e,0x77,0x23,0x00,0x01,0x23,0x7e,0x77,
0x23,0x00,0x01,0x23,0x7e,0x77,0x23,0x00,0x01,0x23,0x7e,0x77,0x23,0x00,0x01,0x23,
0x7e,0x77,0x23,0x00,0x01,0x23,0x7e,0x77,0x23,0x00,0x01,0x23,0x7e,0x77,0x23,0x00,
0x01,0x23,0x7e,0x77,0x23,0x00,0x01,0x23,0x7e,0x77,0x23,0x00,0x01,0x23,0x7e,0x77,
0x23,0x00,0x01,0x23,0x7e,0x77,0x23,0x00,0x01,0x23,0x7e,0x77,0x23,0x00,0x01,0x23,
0x7e,0x77,0x23,0x00,0x01,0x23,0x7e,0x77,0x23,0x00,0x01,0x23,0x7e,0x77,0x23,0x00,
0x01,0x23,0x7e,0x77,0x23,0x00,0x01,0x23,0x7e,0x77,0x23,0x00,0x01,0x23,0x7e,0x77,
0x23,0x00,0x01,0x23,0x7e,0x77,0x23,0x00,0x01,0x23,0x7e,0x77,0x23,0x00,0x01,0x23,
0x7e,0x77,0x23,0x00,0x01,0x23,0x7e,0x77,0x23,0x00,0x01,0x23,0x7e,0x77,0x23,0x00,
0x01,0x23,0x7e,0x77,0x23,0x00,0x01,0x23,0x7e,0x77,0x23,0x00,0x01,0x23,0x7e,0x77,
0x23,0x00,0x01,0x23,0x7e,0x77,0x23,0x00,0x01,0x23,0x7e,0x77,0x23,0x00,0x01,0x23,
0x7e,0x77,0x23,0x00,0x01,0x23,0x7e,0x77,0x23,0x00,0x01,0x23,0x7e,0x77,0x23,0x00,
0x01,0x23,0x7e,0x77,0x23,0x00,0x01,0x23,0x7e,0x77,0x23,0x00,0x01,0x23,0x7e,0x77,
0x23,0x00,0x01,0x23,0x7e,0x77,0x23,0x00,0x01,0x23,0x7e,0x77,0x23,0x00,0x01,0x23,
0x7e,0x77,0x23,0x00,0x01,0x23,0x7e,0x77,0x23,0x00,0x01,0x23,0x7e,0x77,0x23,0x00,
0x01,0x23,0x7e,0x77,0x23,0x00,0x01,0x23,0x7e,0x77,0x23,0x00,0x01,0x23,0x7e,0x77,
0x23,0x00,0x01,0x23,0x7e,0x77,0x23,0x00,0x01,0x23,0x7e,0x77,0x23,0x00,0x01,0x23,
0x7e,0x77,0x23,0x00,0x01,0x23,0x7e,0x77,0x23,0x00,0x01,0x23,0x7e,0x77,0x23,0x00,
0x01,0x23,0x7e,0x77,0x23,0x00,0x01,0x23,0x7e,0x77,0x23,0x00,0x01,0x23,0x7e,0x77,
0x23,0x00,0x01,0x23,0x7e,0x77,0x23,0x00,0x01,0x23,0x7e,0x77,0x23,0x00,0x01,0x23,
0x7e,0x77,0x23,0x00,0x01,0x23,0x7e,0x77,0x23,0x00,0x01,0x23,0x7e,0x77,0x23,0x00,
0x01,0x23,0x7e,0x77,0x23,0x00,0x01,0x23,0x7e,0x77,0x23,0x00,0x01,0x23,0x7e,0x77,
0x23,0x00,0x01,0x23,0x7e,0x77,0x23,0x00,0x01,0x23,0x7e,0x77,0x23,0x00,0x01,0x23,
0x7e,0x77,0x23,0x00,0x01,0x23,0x7e,0x77,0x23,0x00,0x01,0x23,0x7e,0x77,0x23,0x00,
0x01,0x23,0x7e,0x77,0x23,0x00,0x01,0x23,0x7e,0x77,0x23,0x00,0x01,0x23,0x7e,0x77,
0x23,0x00,0x01,0x23,0x7e,0x77,0x23,0x00,0x01,0x23,0x7e,0x77,0x23,0x00,0x01,0x23,
0x7c,0x77,0x23,0x00,0x01,0x23,0x79,0x77,0x23,0x00,0x01,0x23,0x77,0x77,0x23,0x00,
0x01,0x23,0x74,0x77,0x23,0x00,0x01,0x23,0x71,0x77,0x23,0x00,0x01,0x23,0x6f,0x77,
0x23,0x00,0x01,0x23,0x6c,0x77,0x23,0x00,0x01,0x23,0x69,0x77,0x23,0x00,0x01,0x23,
0x67,0x77,0x23,0x00,0x01,0x23,0x64,0x77,0x23,0x00,0x01,0x23,0x61,0x77,0x23,0x00,
0x01,0x23,0x5f,0x77,0x23,0x00,0x01,0x23,0x5c,0x77,0x23,0x00,0x01,0x23,0x59,0x77,
0x23,0x00,0x01,0x23,0x57,0x77,0x23,0x00,0x01,0x23,0x54,0x77,0x23,0x00,0x01,0x23,
0x51,0x77,0x23,0x00,0x01,0x23,0x4f,0x77,0x23,0x00,0x01,0x23,0x4c,0x77,0x23,0x00,
0x01,0x23,0x49,0x77,0x23,0x00,0x01,0x23,0x47,0x77,0x23,0x00,0x01,0x23,0x44,0x77,
0x23,0x00,0x01,0x23,0x41,0x77,0x23,0x00,0x01,0x23,0x3f,0x77,0x23,0x00,0x01,0x23,
0x3c,0x77,0x23,0x00,0x01,0x23,0x39,0x77,0x23,0x00,0x01,0x23,0x37,0x77,0x23,0x00,
0x01,0x23,0x34,0x77,0x23,0x00,0x01,0x23,0x31,0x77,0x23,0x00,0x01,0x23,0x2f,0x77,
0x23,0x00,0x01,0x23,0x2c,0x77,0x23,0x00,0x01,0x23,0x29,0x77,0x23,0x00,0x01,0x23,
0x27,0x77,0x23,0x00,0x01,0x23,0x24,0x77,0x23,0x00,0x01,0x23,0x21,0x77,0x23,0x00,
0x01,0x23,0x1f,0x77,0x23,0x00,0x01,0x23,0x1c,0x77,0x23,0x00,0x01,0x23,0x19,0x77,
0x23,0x00,0x01,0x23,0x17,0x77,0x23,0x00,0x01,0x23,0x14,0x77,0x23,0x00,0x01,0x23,
0x11,0x77,0x23,0x00,0x01,0x23,0x0f,0x77,0x23,0x00,0x01,0x23,0x0c,0x77,0x23,0x00,
0x01,0x23,0x09,0x77,0x23,0x00,0x01,0x23,0x07,0x77,0x23,0x00,0x01,0x23,0x04,0x77,
0x23,0x00,0x01,0x23,0x01,0x77,0x23,0x00,0x01,0xff,0x2f,0x00,0x4d,0x54,0x72,0x6b,
0x00,0x00,0x0a,0xdf,0x00,0xff,0x59,0x02,0x00,0x00,0x00,0xb9,0x79,0x00,0x00,0xc9,
0x02,0x00,0xb9,0x07,0x26,0x00,0x0a,0x40,0x00,0x5b,0x00,0x00,0x5d,0x00,0x00,0xff,
0x21,0x01,0x02,0x00,0x99,0x29,0x21,0x83,0x5f,0x29,0x00,0x01,0x29,0x21,0x83,0x5f,
0x29,0x00,0x01,0x29,0x22,0x83,0x5f,0x29,0x00,0x01,0x29,0x23,0x83,0x5f,0x29,0x00,
0x01,0x29,0x24,0x83,0x5f,0x29,0x00,0x01,0x29,0x24,0x83,0x5f,0x29,0x00,0x01,0x29,
0x25,0x83,0x5f,0x29,0x00,0x01,0x29,0x26,0x83,0x5f,0x29,0x00,0x01,0x29,0x27,0x83,
0x5f,0x29,0x00,0x01,0x29,0x28,0x83,0x5f,0x29,0x00,0x01,0x29,0x28,0x83,0x5f,0x29,
0x00,0x01,0x29,0x28,0x83,0x5f,0x29,0x00,0x01,0x29,0x28,0x83,0x5f,0x29,0x00,0x01,
0x29,0x28,0x83,0x5f,0x29,0x00,0x01,0x29,0x28,0x83,0x5f,0x29,0x00,0x01,0x29,0x28,
0x83,0x5f,0x29,0x00,0x01,0x29,0x28,0x83,0x5f,0x29,0x00,0x01,0x29,0x28,0x83,0x5f,
0x29,0x00,0x01,0x29,0x28,0x83,0x5f,0x29,0x00,0x01,0x29,0x28,0x83,0x5f,0x29,0x00,
0x01,0x29,0x28,0x83,0x5f,0x29,0x00,0x01,0x29,0x60,0x83,0x5f,0x29,0x00,0x01,0x29,
0x60,0x83,0x5f,0x29,0x00,0x01,0x29,0x60,0x83,0x5f,0x29,0x00,0x01,0x29,0x60,0x83,
0x5f,0x29,0x00,0x01,0x29,0x60,0x83,0x5f,0x29,0x00,0x01,0x29,0x60,0x83,0x5f,0x29,
0x00,0x01,0x29,0x60,0x83,0x5f,0x29,0x00,0x01,0x29,0x60,0x83,0x5f,0x29,0x00,0x01,
0x29,0x60,0x83,0x5f,0x29,0x00,0x01,0x29,0x60,0x83,0x5f,0x29,0x00,0x01,0x29,0x60,
0x83,0x5f,0x29,0x00,0x01,0x29,0x60,0x83,0x5f,0x29,0x00,0x01,0x29,0x60,0x83,0x5f,
0x29,0x00,0x01,0x29,0x60,0x83,0x5f,0x29,0x00,0x01,0x29,0x60,0x83,0x5f,0x29,0x00,
0x01,0x29,0x60,0x83,0x5f,0x29,0x00,0x01,0x29,0x60,0x83,0x5f,0x29,0x00,0x01,0x29,
0x60,0x83,0x5f,0x29,0x00,0x01,0x29,0x60,0x83,0x5f,0x29,0x00,0x01,0x29,0x60,0x83,
0x5f,0x29,0x00,0x01,0x29,0x60,0x83,0x5f,0x29,0x00,0x01,0x29,0x60,0x00,0x25,0x60,
0x00,0x37,0x60,0x83,0x5f,0x29,0x00,0x00,0x25,0x00,0x00,0x37,0x00,0x01,0x29,0x60,
0x83,0x5f,0x29,0x00,0x01,0x29,0x60,0x83,0x5f,0x29,0x00,0x01,0x29,0x60,0x83,0x5f,
0x29,0x00,0x01,0x29,0x60,0x83,0x5f,0x29,0x00,0x01,0x29,0x60,0x83,0x5f,0x29,0x00,
0x01,0x29,0x60,0x83,0x5f,0x29,0x00,0x01,0x29,0x60,0x83,0x5f,0x29,0x00,0x01,0x29,
0x60,0x83,0x5f,0x29,0x00,0x01,0x29,0x60,0x83,0x5f,0x29,0x00,0x01,0x29,0x60,0x83,
0x5f,0x29,0x00,0x01,0x29,0x60,0x83,0x5f,0x29,0x00,0x01,0x29,0x60,0x00,0x25,0x60,
0x00,0x37,0x60,0x83,0x5f,0x29,0x00,0x00,0x25,0x00,0x00,0x37,0x00,0x01,0x29,0x60,
0x83,0x5f,0x29,0x00,0x01,0x29,0x60,0x83,0x5f,0x29,0x00,0x01,0x29,0x60,0x83,0x5f,
0x29,0x00,0x01,0x29,0x60,0x83,0x5f,0x29,0x00,0x01,0x29,0x60,0x83,0x5f,0x29,0x00,
0x01,0x29,0x60,0x83,0x5f,0x29,0x00,0x01,0x29,0x60,0x83,0x5f,0x29,0x00,0x01,0x29,
0x60,0x83,0x5f,0x29,0x00,0x01,0x29,0x60,0x83,0x5f,0x29,0x00,0x01,0x29,0x60,0x83,
0x5f,0x29,0x00,0x01,0x29,0x60,0x83,0x5f,0x29,0x00,0x01,0x29,0x60,0x83,0x5f,0x29,
0x00,0x01,0x29,0x60,0x83,0x5f,0x29,0x00,0x01,0x29,0x60,0x83,0x5f,0x29,0x00,0x01,
0x29,0x60,0x00,0x25,0x60,0x00,0x37,0x60,0x83,0x5f,0x29,0x00,0x00,0x25,0x00,0x00,
0x37,0x00,0x01,0x29,0x60,0x83,0x5f,0x29,0x00,0x01,0x29,0x60,0x83,0x5f,0x29,0x00,
0x01,0x29,0x60,0x83,0x5f,0x29,0x00,0x01,0x29,0x60,0x83,0x5f,0x29,0x00,0x01,0x29,
0x60,0x83,0x5f,0x29,0x00,0x01,0x29,0x60,0x83,0x5f,0x29,0x00,0x01,0x29,0x60,0x83,
0x5f,0x29,0x00,0x01,0x29,0x60,0x83,0x5f,0x29,0x00,0x01,0x29,0x60,0x83,0x5f,0x29,
0x00,0x01,0x29,0x60,0x83,0x5f,0x29,0x00,0x01,0x29,0x60,0x83,0x5f,0x29,0x00,0x01,
0x29,0x60,0x00,0x25,0x60,0x00,0x37,0x60,0x83,0x5f,0x29,0x00,0x00,0x25,0x00,0x00,
0x37,0x00,0x01,0x29,0x60,0x83,0x5f,0x29,0x00,0x01,0x29,0x60,0x83,0x5f,0x29,0x00,
0x01,0x29,0x60,0x83,0x5f,0x29,0x00,0x01,0x29,0x60,0x83,0x5f,0x29,0x00,0x01,0x29,
0x60,0x83,0x5f,0x29,0x00,0x01,0x29,0x60,0x83,0x5f,0x29,0x00,0x01,0x29,0x60,0x83,
0x5f,0x29,0x00,0x01,0x29,0x60,0x83,0x5f,0x29,0x00,0x01,0x29,0x60,0x83,0x5f,0x29,
0x00,0x01,0x29,0x60,0x83,0x5f,0x29,0x00,0x01,0x29,0x60,0x83,0x5f,0x29,0x00,0x01,
0x29,0x60,0x83,0x5f,0x29,0x00,0x01,0x29,0x60,0x83,0x5f,0x29,0x00,0x01,0x29,0x60,
0x83,0x5f,0x29,0x00,0x01,0x29,0x60,0x83,0x5f,0x29,0x00,0x01,0x29,0x60,0x83,0x5f,
0x29,0x00,0x01,0x29,0x60,0x83,0x5f,0x29,0x00,0x01,0x29,0x60,0x00,0x25,0x60,0x00,
0x37,0x60,0x83,0x5f,0x29,0x00,0x00,0x25,0x00,0x00,0x37,0x00,0x01,0x29,0x60,0x83,
0x5f,0x29,0x00,0x01,0x29,0x60,0x83,0x5f,0x29,0x00,0x01,0x29,0x60,0x83,0x5f,0x29,
0x00,0x96,0x41,0x29,0x60,0x83,0x5f,0x29,0x00,0x01,0x29,0x60,0x83,0x5f,0x29,0x00,
0x01,0x29,0x60,0x00,0x25,0x60,0x00,0x37,0x60,0x83,0x5f,0x29,0x00,0x00,0x25,0x00,
0x00,0x37,0x00,0x01,0x29,0x60,0x83,0x5f,0x29,0x00,0x01,0x29,0x60,0x83,0x5f,0x29,
0x00,0x01,0x29,0x60,0x83,0x5f,0x29,0x00,0x01,0x29,0x60,0x83,0x5f,0x29,0x00,0x01,
0x29,0x60,0x83,0x5f,0x29,0x00,0x01,0x29,0x60,0x00,0x25,0x60,0x00,0x37,0x60,0x83,
0x5f,0x29,0x00,0x00,0x25,0x00,0x00,0x37,0x00,0x01,0x29,0x60,0x83,0x5f,0x29,0x00,
0x9a,0x21,0x29,0x60,0x83,0x5f,0x29,0x00,0x01,0x29,0x60,0x83,0x5f,0x29,0x00,0x01,
0x29,0x60,0x83,0x5f,0x29,0x00,0x01,0x29,0x60,0x00,0x25,0x60,0x00,0x37,0x60,0x83,
0x5f,0x29,0x00,0x00,0x25,0x00,0x00,0x37,0x00,0x01,0x29,0x60,0x83,0x5f,0x29,0x00,
0x01,0x29,0x60,0x83,0x5f,0x29,0x00,0x01,0x25,0x40,0x00,0x34,0x40,0x81,0x6f,0x25,
0x00,0x00,0x34,0x00,0x81,0x71,0x25,0x40,0x00,0x34,0x40,0x81,0x6f,0x25,0x00,0x00,
0x34,0x00,0x81,0x71,0x25,0x40,0x00,0x34,0x40,0x81,0x6f,0x25,0x00,0x00,0x34,0x00,
0x81,0x71,0x25,0x40,0x00,0x34,0x40,0x81,0x6f,0x25,0x00,0x00,0x34,0x00,0x81,0x71,
0x25,0x40,0x00,0x34,0x40,0x81,0x6f,0x25,0x00,0x00,0x34,0x00,0x81,0x71,0x25,0x40,
0x00,0x34,0x40,0x81,0x6f,0x25,0x00,0x00,0x34,0x00,0x81,0x71,0x25,0x40,0x00,0x34,
0x40,0x81,0x6f,0x25,0x00,0x00,0x34,0x00,0x81,0x71,0x25,0x40,0x00,0x34,0x40,0x81,
0x6f,0x25,0x00,0x00,0x34,0x00,0x81,0x71,0x25,0x40,0x00,0x34,0x40,0x81,0x6f,0x25,
0x00,0x00,0x34,0x00,0x81,0x71,0x25,0x40,0x00,0x34,0x40,0x81,0x6f,0x25,0x00,0x00,
0x34,0x00,0x81,0x71,0x25,0x40,0x00,0x34,0x40,0x81,0x6f,0x25,0x00,0x00,0x34,0x00,
0x81,0x71,0x25,0x40,0x00,0x34,0x40,0x81,0x6f,0x25,0x00,0x00,0x34,0x00,0x81,0x71,
0x25,0x40,0x00,0x34,0x40,0x81,0x6f,0x25,0x00,0x00,0x34,0x00,0x81,0x71,0x25,0x40,
0x00,0x34,0x40,0x81,0x6f,0x25,0x00,0x00,0x34,0x00,0x81,0x71,0x25,0x40,0x00,0x34,
0x40,0x81,0x6f,0x25,0x00,0x00,0x34,0x00,0x81,0x71,0x25,0x40,0x00,0x34,0x40,0x81,
0x6f,0x25,0x00,0x00,0x34,0x00,0x81,0x71,0x25,0x40,0x00,0x34,0x40,0x81,0x6f,0x25,
0x00,0x00,0x34,0x00,0x81,0x71,0x25,0x40,0x00,0x34,0x40,0x81,0x6f,0x25,0x00,0x00,
0x34,0x00,0x81,0x71,0x25,0x40,0x00,0x34,0x40,0x81,0x6f,0x25,0x00,0x00,0x34,0x00,
0x81,0x71,0x25,0x40,0x00,0x34,0x40,0x81,0x6f,0x25,0x00,0x00,0x34,0x00,0x81,0x71,
0x25,0x40,0x00,0x34,0x40,0x81,0x6f,0x25,0x00,0x00,0x34,0x00,0x81,0x71,0x25,0x40,
0x00,0x34,0x40,0x81,0x6f,0x25,0x00,0x00,0x34,0x00,0x81,0x71,0x25,0x40,0x00,0x34,
0x40,0x81,0x6f,0x25,0x00,0x00,0x34,0x00,0x81,0x71,0x25,0x40,0x00,0x34,0x40,0x81,
0x6f,0x25,0x00,0x00,0x34,0x00,0x81,0x71,0x25,0x40,0x00,0x34,0x40,0x81,0x6f,0x25,
0x00,0x00,0x34,0x00,0x81,0x71,0x25,0x40,0x00,0x34,0x40,0x81,0x6f,0x25,0x00,0x00,
0x34,0x00,0x81,0x71,0x25,0x40,0x00,0x34,0x40,0x81,0x6f,0x25,0x00,0x00,0x34,0x00,
0x81,0x71,0x25,0x40,0x00,0x34,0x40,0x81,0x6f,0x25,0x00,0x00,0x34,0x00,0x81,0x71,
0x25,0x4b,0x00,0x34,0x4b,0x81,0x6f,0x25,0x00,0x00,0x34,0x00,0x81,0x71,0x25,0x4b,
0x00,0x34,0x4b,0x81,0x6f,0x25,0x00,0x00,0x34,0x00,0x81,0x71,0x25,0x4b,0x00,0x34,
0x4b,0x81,0x6f,0x25,0x00,0x00,0x34,0x00,0x81,0x71,0x25,0x4b,0x00,0x34,0x4b,0x81,
0x6f,0x25,0x00,0x00,0x34,0x00,0x81,0x71,0x25,0x4b,0x00,0x34,0x4b,0x81,0x6f,0x25,
0x00,0x00,0x34,0x00,0x81,0x71,0x25,0x4b,0x00,0x34,0x4b,0x81,0x6f,0x25,0x00,0x00,
0x34,0x00,0x81,0x71,0x25,0x4b,0x00,0x34,0x4b,0x81,0x6f,0x25,0x00,0x00,0x34,0x00,
0x81,0x71,0x25,0x4b,0x00,0x34,0x4b,0x81,0x6f,0x25,0x00,0x00,0x34,0x00,0x81,0x71,
0x25,0x4b,0x00,0x34,0x4b,0x81,0x6f,0x25,0x00,0x00,0x34,0x00,0x81,0x71,0x25,0x4b,
0x00,0x34,0x4b,0x81,0x6f,0x25,0x00,0x00,0x34,0x00,0x81,0x71,0x25,0x4b,0x00,0x34,
0x4b,0x81,0x6f,0x25,0x00,0x00,0x34,0x00,0x81,0x71,0x25,0x4b,0x00,0x34,0x4b,0x81,
0x6f,0x25,0x00,0x00,0x34,0x00,0x81,0x71,0x25,0x4b,0x00,0x34,0x4b,0x81,0x6f,0x25,
0x00,0x00,0x34,0x00,0x81,0x71,0x25,0x4b,0x00,0x34,0x4b,0x81,0x6f,0x25,0x00,0x00,
0x34,0x00,0x81,0x71,0x25,0x4b,0x00,0x34,0x4b,0x81,0x6f,0x25,0x00,0x00,0x34,0x00,
0x81,0x71,0x25,0x4b,0x00,0x34,0x4b,0x81,0x6f,0x25,0x00,0x00,0x34,0x00,0x81,0x71,
0x34,0x64,0x00,0x25,0x64,0x77,0x25,0x00,0x01,0x25,0x64,0x77,0x25,0x00,0x01,0x25,
0x64,0x77,0x25,0x00,0x01,0x25,0x64,0x77,0x34,0x00,0x00,0x25,0x00,0x01,0x34,0x64,
0x00,0x25,0x64,0x77,0x25,0x00,0x01,0x25,0x64,0x77,0x25,0x00,0x01,0x25,0x64,0x77,
0x25,0x00,0x01,0x25,0x64,0x77,0x34,0x00,0x00,0x25,0x00,0x01,0x34,0x64,0x00,0x25,
0x64,0x77,0x25,0x00,0x01,0x25,0x64,0x77,0x25,0x00,0x01,0x25,0x64,0x77,0x25,0x00,
0x01,0x25,0x64,0x77,0x34,0x00,0x00,0x25,0x00,0x01,0x34,0x64,0x00,0x25,0x64,0x77,
0x25,0x00,0x01,0x25,0x64,0x77,0x25,0x00,0x01,0x25,0x64,0x77,0x25,0x00,0x01,0x25,
0x64,0x77,0x34,0x00,0x00,0x25,0x00,0x01,0x34,0x64,0x00,0x25,0x64,0x77,0x25,0x00,
0x01,0x25,0x64,0x77,0x25,0x00,0x01,0x25,0x64,0x77,0x25,0x00,0x01,0x25,0x64,0x77,
0x34,0x00,0x00,0x25,0x00,0x01,0x34,0x64,0x00,0x25,0x64,0x77,0x25,0x00,0x01,0x25,
0x64,0x77,0x25,0x00,0x01,0x25,0x64,0x77,0x25,0x00,0x01,0x25,0x64,0x77,0x34,0x00,
0x00,0x25,0x00,0x01,0x34,0x64,0x00,0x25,0x64,0x77,0x25,0x00,0x01,0x25,0x64,0x77,
0x25,0x00,0x01,0x25,0x64,0x77,0x25,0x00,0x01,0x25,0x64,0x77,0x34,0x00,0x00,0x25,
0x00,0x01,0x34,0x64,0x00,0x25,0x64,0x77,0x25,0x00,0x01,0x25,0x64,0x77,0x25,0x00,
0x01,0x25,0x64,0x77,0x25,0x00,0x01,0x25,0x64,0x77,0x34,0x00,0x00,0x25,0x00,0x01,
0x34,0x64,0x00,0x25,0x64,0x77,0x25,0x00,0x01,0x25,0x64,0x77,0x25,0x00,0x01,0x25,
0x64,0x77,0x25,0x00,0x01,0x25,0x64,0x77,0x34,0x00,0x00,0x25,0x00,0x01,0x34,0x64,
0x00,0x25,0x64,0x77,0x25,0x00,0x01,0x25,0x64,0x77,0x25,0x00,0x01,0x25,0x64,0x77,
0x25,0x00,0x01,0x25,0x64,0x77,0x34,0x00,0x00,0x25,0x00,0x01,0x34,0x64,0x00,0x25,
0x64,0x77,0x25,0x00,0x01,0x25,0x64,0x77,0x25,0x00,0x01,0x25,0x64,0x77,0x25,0x00,
0x01,0x25,0x64,0x77,0x34,0x00,0x00,0x25,0x00,0x01,0x34,0x64,0x00,0x25,0x64,0x77,
0x25,0x00,0x01,0x25,0x64,0x77,0x25,0x00,0x01,0x25,0x64,0x77,0x25,0x00,0x01,0x25,
0x64,0x77,0x34,0x00,0x00,0x25,0x00,0x01,0x34,0x64,0x00,0x25,0x64,0x77,0x25,0x00,
0x01,0x25,0x64,0x77,0x25,0x00,0x01,0x25,0x64,0x77,0x25,0x00,0x01,0x25,0x64,0x77,
0x34,0x00,0x00,0x25,0x00,0x01,0x34,0x64,0x00,0x25,0x64,0x77,0x25,0x00,0x01,0x25,
0x64,0x77,0x25,0x00,0x01,0x25,0x64,0x77,0x25,0x00,0x01,0x25,0x64,0x77,0x34,0x00,
0x00,0x25,0x00,0x01,0x34,0x64,0x00,0x25,0x64,0x77,0x25,0x00,0x01,0x25,0x64,0x77,
0x25,0x00,0x01,0x25,0x64,0x77,0x25,0x00,0x01,0x25,0x64,0x77,0x34,0x00,0x00,0x25,
0x00,0x01,0x34,0x64,0x00,0x25,0x64,0x77,0x25,0x00,0x01,0x25,0x64,0x77,0x25,0x00,
0x01,0x25,0x64,0x77,0x25,0x00,0x01,0x25,0x64,0x77,0x34,0x00,0x00,0x25,0x00,0x01,
0x34,0x64,0x00,0x25,0x64,0x77,0x25,0x00,0x01,0x25,0x64,0x77,0x25,0x00,0x01,0x25,
0x64,0x77,0x25,0x00,0x01,0x25,0x64,0x77,0x34,0x00,0x00,0x25,0x00,0x01,0x34,0x64,
0x00,0x25,0x64,0x77,0x25,0x00,0x01,0x25,0x64,0x77,0x25,0x00,0x01,0x25,0x64,0x77,
0x25,0x00,0x01,0x25,0x64,0x77,0x34,0x00,0x00,0x25,0x00,0x01,0x34,0x64,0x00,0x25,
0x64,0x77,0x25,0x00,0x01,0x25,0x64,0x77,0x25,0x00,0x01,0x25,0x64,0x77,0x25,0x00,
0x01,0x25,0x64,0x77,0x34,0x00,0x00,0x25,0x00,0x01,0x34,0x64,0x00,0x25,0x64,0x77,
0x25,0x00,0x01,0x25,0x64,0x77,0x25,0x00,0x01,0x25,0x64,0x77,0x25,0x00,0x01,0x25,
0x64,0x77,0x34,0x00,0x00,0x25,0x00,0x01,0x34,0x64,0x00,0x25,0x64,0x77,0x25,0x00,
0x01,0x25,0x64,0x77,0x25,0x00,0x01,0x25,0x64,0x77,0x25,0x00,0x01,0x25,0x64,0x77,
0x34,0x00,0x00,0x25,0x00,0x01,0x34,0x64,0x00,0x25,0x64,0x77,0x25,0x00,0x01,0x25,
0x64,0x77,0x25,0x00,0x01,0x25,0x64,0x77,0x25,0x00,0x01,0x25,0x64,0x77,0x34,0x00,
0x00,0x25,0x00,0x01,0x34,0x64,0x00,0x25,0x64,0x77,0x25,0x00,0x01,0x25,0x64,0x77,
0x25,0x00,0x01,0x25,0x64,0x77,0x25,0x00,0x01,0x25,0x64,0x77,0x34,0x00,0x00,0x25,
0x00,0x01,0x34,0x64,0x00,0x25,0x64,0x77,0x25,0x00,0x01,0x25,0x64,0x77,0x25,0x00,
0x01,0x25,0x64,0x77,0x25,0x00,0x01,0x25,0x64,0x77,0x34,0x00,0x00,0x25,0x00,0x01,
0x34,0x64,0x00,0x25,0x64,0x77,0x25,0x00,0x01,0x25,0x64,0x77,0x25,0x00,0x01,0x25,
0x64,0x77,0x25,0x00,0x01,0x25,0x64,0x77,0x34,0x00,0x00,0x25,0x00,0x01,0x34,0x64,
0x00,0x25,0x64,0x77,0x25,0x00,0x01,0x25,0x64,0x77,0x25,0x00,0x01,0x25,0x64,0x77,
0x25,0x00,0x01,0x25,0x64,0x77,0x34,0x00,0x00,0x25,0x00,0x01,0x34,0x64,0x00,0x25,
0x64,0x77,0x25,0x00,0x01,0x25,0x64,0x77,0x25,0x00,0x01,0x25,0x64,0x77,0x25,0x00,
0x01,0x25,0x64,0x77,0x34,0x00,0x00,0x25,0x00,0x01,0x34,0x64,0x00,0x25,0x64,0x77,
0x25,0x00,0x01,0x25,0x64,0x77,0x25,0x00,0x01,0x25,0x64,0x77,0x25,0x00,0x01,0x25,
0x64,0x77,0x34,0x00,0x00,0x25,0x00,0x01,0x34,0x64,0x00,0x25,0x64,0x77,0x25,0x00,
0x01,0x25,0x63,0x77,0x25,0x00,0x01,0x25,0x61,0x77,0x25,0x00,0x01,0x25,0x5f,0x77,
0x34,0x00,0x00,0x25,0x00,0x01,0x34,0x5d,0x00,0x25,0x5d,0x77,0x25,0x00,0x01,0x25,
0x5b,0x77,0x25,0x00,0x01,0x25,0x5a,0x77,0x25,0x00,0x01,0x25,0x58,0x77,0x34,0x00,
0x00,0x25,0x00,0x01,0x34,0x56,0x00,0x25,0x56,0x77,0x25,0x00,0x01,0x25,0x54,0x77,
0x25,0x00,0x01,0x25,0x52,0x77,0x25,0x00,0x01,0x25,0x50,0x77,0x34,0x00,0x00,0x25,
0x00,0x01,0x34,0x4f,0x00,0x25,0x4f,0x77,0x25,0x00,0x01,0x25,0x4d,0x77,0x25,0x00,
0x01,0x25,0x4b,0x77,0x25,0x00,0x01,0x25,0x49,0x77,0x34,0x00,0x00,0x25,0x00,0x01,
0x34,0x47,0x00,0x25,0x47,0x77,0x25,0x00,0x01,0x25,0x45,0x77,0x25,0x00,0x01,0x25,
0x44,0x77,0x25,0x00,0x01,0x25,0x42,0x77,0x34,0x00,0x00,0x25,0x00,0x01,0x34,0x40,
0x00,0x25,0x40,0x77,0x25,0x00,0x01,0x25,0x3e,0x77,0x25,0x00,0x01,0x25,0x3c,0x77,
0x25,0x00,0x01,0x25,0x3a,0x77,0x34,0x00,0x00,0x25,0x00,0x01,0x34,0x39,0x00,0x25,
0x39,0x77,0x25,0x00,0x01,0x25,0x37,0x77,0x25,0x00,0x01,0x25,0x35,0x77,0x25,0x00,
0x01,0x25,0x33,0x77,0x34,0x00,0x00,0x25,0x00,0x01,0x34,0x31,0x00,0x25,0x31,0x77,
0x25,0x00,0x01,0x25,0x30,0x77,0x25,0x00,0x01,0x25,0x2e,0x77,0x25,0x00,0x01,0x25,
0x2c,0x77,0x34,0x00,0x00,0x25,0x00,0x01,0x34,0x2a,0x00,0x25,0x2a,0x77,0x25,0x00,
0x01,0x25,0x28,0x77,0x25,0x00,0x01,0x25,0x26,0x77,0x25,0x00,0x01,0x25,0x25,0x77,
0x34,0x00,0x00,0x25,0x00,0x01,0x34,0x23,0x00,0x25,0x23,0x77,0x25,0x00,0x01,0x25,
0x21,0x77,0x25,0x00,0x01,0x25,0x1f,0x77,0x25,0x00,0x01,0x25,0x1d,0x77,0x34,0x00,
0x00,0x25,0x00,0x01,0x34,0x1b,0x00,0x25,0x1b,0x77,0x25,0x00,0x01,0x25,0x1a,0x77,
0x25,0x00,0x01,0x25,0x18,0x77,0x25,0x00,0x01,0x25,0x16,0x77,0x34,0x00,0x00,0x25,
0x00,0x01,0x34,0x14,0x00,0x25,0x14,0x77,0x25,0x00,0x01,0x25,0x12,0x77,0x25,0x00,
0x01,0x25,0x10,0x77,0x25,0x00,0x01,0x25,0x10,0x77,0x34,0x00,0x00,0x25,0x00,0x01,
0xff,0x2f,0x00,0x4d,0x54,0x72,0x6b,0x00,0x00,0x00,0xe8,0x00,0xff,0x59,0x02,0x00,
0x00,0x00,0xb8,0x79,0x00,0x00,0xc8,0x0e,0x00,0xb8,0x07,0x5b,0x00,0x0a,0x40,0x00,
0x5b,0x00,0x00,0x5d,0x00,0x00,0xff,0x21,0x01,0x00,0x00,0x98,0x54,0x14,0x83,0x5f,
0x54,0x00,0x01,0x54,0x15,0x83,0x5f,0x54,0x00,0x01,0x54,0x17,0x83,0x5f,0x54,0x00,
0x01,0x54,0x18,0x83,0x5f,0x54,0x00,0x01,0x54,0x1a,0x83,0x5f,0x54,0x00,0x01,0x54,
0x1b,0x83,0x5f,0x54,0x00,0x01,0x54,0x1d,0x83,0x5f,0x54,0x00,0x01,0x54,0x1e,0x83,
0x5f,0x54,0x00,0x01,0x54,0x20,0x81,0x70,0x3f,0x21,0x00,0x43,0x21,0x81,0x6f,0x54,
0x00,0x01,0x54,0x21,0x83,0x5f,0x54,0x00,0x01,0x54,0x21,0x83,0x5f,0x54,0x00,0x01,
0x54,0x21,0x83,0x5f,0x3f,0x00,0x00,0x43,0x00,0x00,0x54,0x00,0x01,0x54,0x21,0x00,
0x3f,0x21,0x00,0x43,0x21,0x83,0x5f,0x54,0x00,0x01,0x54,0x21,0x83,0x5f,0x54,0x00,
0x01,0x54,0x21,0x83,0x5f,0x3f,0x00,0x00,0x43,0x00,0x00,0x54,0x00,0x01,0x54,0x21,
0x00,0x3f,0x21,0x00,0x43,0x21,0x83,0x5f,0x54,0x00,0x01,0x54,0x21,0x83,0x5f,0x54,
0x00,0x01,0x54,0x21,0x83,0x5f,0x3f,0x00,0x00,0x43,0x00,0x00,0x54,0x00,0x01,0x54,
0x21,0x00,0x3f,0x21,0x00,0x43,0x21,0x83,0x5f,0x54,0x00,0x01,0x54,0x21,0x83,0x5f,
0x54,0x00,0x01,0x54,0x21,0x83,0x5f,0x3f,0x00,0x00,0x43,0x00,0x00,0x54,0x00,0x01,
0xff,0x2f,0x00,0x4d,0x54,0x72,0x6b,0x00,0x00,0x00,0x59,0x00,0xff,0x59,0x02,0x00,
0x00,0x00,0xba,0x79,0x00,0x00,0xca,0x5c,0x00,0xba,0x07,0x5a,0x00,0x0a,0x40,0x00,
0x5b,0x00,0x00,0x5d,0x00,0x00,0xff,0x21,0x01,0x00,0x9f,0x70,0x9a,0x3f,0x31,0x00,
0x43,0x31,0x8d,0x0f,0x3f,0x00,0x00,0x43,0x00,0x01,0x3f,0x40,0x00,0x43,0x40,0x8b,
0x1f,0x3f,0x00,0x00,0x43,0x00,0x01,0x3f,0x40,0x00,0x43,0x40,0x8b,0x1f,0x3f,0x00,
0x00,0x43,0x00,0x01,0x3f,0x50,0x00,0x43,0x50,0x8b,0x1f,0x3f,0x00,0x00,0x43,0x00,
0x01,0xff,0x2f,0x00,0x4d,0x54,0x72,0x6b,0x00,0x00,0x06,0xe6,0x00,0xff,0x59,0x02,
0x00,0x00,0x00,0xbb,0x79,0x00,0x00,0xcb,0x1e,0x00,0xbb,0x07,0x50,0x00,0x0a,0x40,
0x00,0x5b,0x00,0x00,0x5d,0x00,0x00,0xff,0x21,0x01,0x00,0x82,0xe8,0x00,0x9b,0x40,
0x60,0x00,0x47,0x60,0x77,0x40,0x00,0x00,0x47,0x00,0x01,0x40,0x60,0x00,0x47,0x60,
0x77,0x40,0x00,0x00,0x47,0x00,0x01,0x40,0x60,0x00,0x47,0x60,0x77,0x40,0x00,0x00,
0x47,0x00,0x01,0x40,0x60,0x00,0x47,0x60,0x77,0x40,0x00,0x00,0x47,0x00,0x01,0x40,
0x60,0x00,0x47,0x60,0x77,0x40,0x00,0x00,0x47,0x00,0x01,0x40,0x60,0x00,0x47,0x60,
0x77,0x40,0x00,0x00,0x47,0x00,0x01,0x40,0x60,0x00,0x47,0x60,0x77,0x40,0x00,0x00,
0x47,0x00,0x01,0x40,0x60,0x00,0x47,0x60,0x77,0x40,0x00,0x00,0x47,0x00,0x01,0x40,
0x60,0x00,0x47,0x60,0x77,0x40,0x00,0x00,0x47,0x00,0x01,0x40,0x60,0x00,0x47,0x60,
0x77,0x40,0x00,0x00,0x47,0x00,0x01,0x40,0x60,0x00,0x47,0x60,0x77,0x40,0x00,0x00,
0x47,0x00,0x01,0x40,0x60,0x00,0x47,0x60,0x77,0x40,0x00,0x00,0x47,0x00,0x01,0x40,
0x60,0x00,0x47,0x60,0x77,0x40,0x00,0x00,0x47,0x00,0x01,0x40,0x60,0x00,0x47,0x60,
0x77,0x40,0x00,0x00,0x47,0x00,0x01,0x40,0x60,0x00,0x47,0x60,0x77,0x40,0x00,0x00,
0x47,0x00,0x01,0x40,0x60,0x00,0x47,0x60,0x77,0x40,0x00,0x00,0x47,0x00,0x01,0x40,
0x60,0x00,0x47,0x60,0x77,0x40,0x00,0x00,0x47,0x00,0x01,0x40,0x60,0x00,0x47,0x60,
0x77,0x40,0x00,0x00,0x47,0x00,0x01,0x40,0x60,0x00,0x47,0x60,0x77,0x40,0x00,0x00,
0x47,0x00,0x01,0x40,0x60,0x00,0x47,0x60,0x77,0x40,0x00,0x00,0x47,0x00,0x01,0x40,
0x60,0x00,0x47,0x60,0x77,0x40,0x00,0x00,0x47,0x00,0x01,0x40,0x60,0x00,0x47,0x60,
0x77,0x40,0x00,0x00,0x47,0x00,0x01,0x40,0x60,0x00,0x47,0x60,0x77,0x40,0x00,0x00,
0x47,0x00,0x01,0x40,0x60,0x00,0x47,0x60,0x77,0x40,0x00,0x00,0x47,0x00,0x01,0x40,
0x60,0x00,0x47,0x60,0x77,0x40,0x00,0x00,0x47,0x00,0x01,0x40,0x60,0x00,0x47,0x60,
0x77,0x40,0x00,0x00,0x47,0x00,0x01,0x40,0x60,0x00,0x47,0x60,0x77,0x40,0x00,0x00,
0x47,0x00,0x01,0x40,0x60,0x00,0x47,0x60,0x77,0x40,0x00,0x00,0x47,0x00,0x01,0x40,
0x60,0x00,0x47,0x60,0x77,0x40,0x00,0x00,0x47,0x00,0x01,0x40,0x60,0x00,0x47,0x60,
0x77,0x40,0x00,0x00,0x47,0x00,0x01,0x40,0x60,0x00,0x47,0x60,0x77,0x40,0x00,0x00,
0x47,0x00,0x01,0x40,0x60,0x00,0x47,0x60,0x77,0x40,0x00,0x00,0x47,0x00,0x01,0x40,
0x60,0x00,0x47,0x60,0x77,0x40,0x00,0x00,0x47,0x00,0x01,0x40,0x60,0x00,0x47,0x60,
0x77,0x40,0x00,0x00,0x47,0x00,0x01,0x40,0x60,0x00,0x47,0x60,0x77,0x40,0x00,0x00,
0x47,0x00,0x01,0x40,0x60,0x00,0x47,0x60,0x77,0x40,0x00,0x00,0x47,0x00,0x01,0x40,
0x60,0x00,0x47,0x60,0x77,0x40,0x00,0x00,0x47,0x00,0x01,0x40,0x60,0x00,0x47,0x60,
0x77,0x40,0x00,0x00,0x47,0x00,0x01,0x40,0x60,0x00,0x47,0x60,0x77,0x40,0x00,0x00,
0x47,0x00,0x01,0x40,0x60,0x00,0x47,0x60,0x77,0x40,0x00,0x00,0x47,0x00,0x01,0x40,
0x60,0x00,0x47,0x60,0x77,0x40,0x00,0x00,0x47,0x00,0x01,0x40,0x60,0x00,0x47,0x60,
0x77,0x40,0x00,0x00,0x47,0x00,0x01,0x40,0x60,0x00,0x47,0x60,0x77,0x40,0x00,0x00,
0x47,0x00,0x01,0x40,0x60,0x00,0x47,0x60,0x77,0x40,0x00,0x00,0x47,0x00,0x01,0x40,
0x60,0x00,0x47,0x60,0x77,0x40,0x00,0x00,0x47,0x00,0x01,0x40,0x60,0x00,0x47,0x60,
0x77,0x40,0x00,0x00,0x47,0x00,0x01,0x40,0x60,0x00,0x47,0x60,0x77,0x40,0x00,0x00,
0x47,0x00,0x01,0x40,0x60,0x00,0x47,0x60,0x77,0x40,0x00,0x00,0x47,0x00,0x01,0x40,
0x60,0x00,0x47,0x60,0x77,0x40,0x00,0x00,0x47,0x00,0x01,0x40,0x60,0x00,0x47,0x60,
0x77,0x40,0x00,0x00,0x47,0x00,0x01,0x40,0x60,0x00,0x47,0x60,0x77,0x40,0x00,0x00,
0x47,0x00,0x01,0x40,0x60,0x00,0x47,0x60,0x77,0x40,0x00,0x00,0x47,0x00,0x01,0x40,
0x60,0x00,0x47,0x60,0x77,0x40,0x00,0x00,0x47,0x00,0x01,0x40,0x60,0x00,0x47,0x60,
0x77,0x40,0x00,0x00,0x47,0x00,0x01,0x40,0x60,0x00,0x47,0x60,0x77,0x40,0x00,0x00,
0x47,0x00,0x01,0x40,0x60,0x00,0x47,0x60,0x77,0x40,0x00,0x00,0x47,0x00,0x01,0x40,
0x60,0x00,0x47,0x60,0x77,0x40,0x00,0x00,0x47,0x00,0x01,0x40,0x60,0x00,0x47,0x60,
0x77,0x40,0x00,0x00,0x47,0x00,0x01,0x40,0x60,0x00,0x47,0x60,0x77,0x40,0x00,0x00,
0x47,0x00,0x01,0x40,0x60,0x00,0x47,0x60,0x77,0x40,0x00,0x00,0x47,0x00,0x01,0x40,
0x60,0x00,0x47,0x60,0x77,0x40,0x00,0x00,0x47,0x00,0x01,0x40,0x60,0x00,0x47,0x60,
0x77,0x40,0x00,0x00,0x47,0x00,0x01,0x40,0x60,0x00,0x47,0x60,0x77,0x40,0x00,0x00,
0x47,0x00,0x01,0x40,0x60,0x00,0x47,0x60,0x77,0x40,0x00,0x00,0x47,0x00,0x01,0x40,
0x60,0x00,0x47,0x60,0x77,0x40,0x00,0x00,0x47,0x00,0x01,0x40,0x60,0x00,0x47,0x60,
0x77,0x40,0x00,0x00,0x47,0x00,0x01,0x40,0x60,0x00,0x47,0x60,0x77,0x40,0x00,0x00,
0x47,0x00,0x01,0x40,0x60,0x00,0x47,0x60,0x77,0x40,0x00,0x00,0x47,0x00,0x01,0x40,
0x60,0x00,0x47,0x60,0x77,0x40,0x00,0x00,0x47,0x00,0x01,0x40,0x60,0x00,0x47,0x60,
0x77,0x40,0x00,0x00,0x47,0x00,0x01,0x40,0x60,0x00,0x47,0x60,0x77,0x40,0x00,0x00,
0x47,0x00,0x01,0x40,0x60,0x00,0x47,0x60,0x77,0x40,0x00,0x00,0x47,0x00,0x01,0x40,
0x60,0x00,0x47,0x60,0x77,0x40,0x00,0x00,0x47,0x00,0x01,0x40,0x60,0x00,0x47,0x60,
0x77,0x40,0x00,0x00,0x47,0x00,0x01,0x40,0x60,0x00,0x47,0x60,0x77,0x40,0x00,0x00,
0x47,0x00,0x01,0x40,0x60,0x00,0x47,0x60,0x77,0x40,0x00,0x00,0x47,0x00,0x01,0x40,
0x60,0x00,0x47,0x60,0x77,0x40,0x00,0x00,0x47,0x00,0x01,0x40,0x60,0x00,0x47,0x60,
0x77,0x40,0x00,0x00,0x47,0x00,0x01,0x40,0x60,0x00,0x47,0x60,0x77,0x40,0x00,0x00,
0x47,0x00,0x01,0x40,0x60,0x00,0x47,0x60,0x77,0x40,0x00,0x00,0x47,0x00,0x01,0x40,
0x60,0x00,0x47,0x60,0x77,0x40,0x00,0x00,0x47,0x00,0x01,0x40,0x60,0x00,0x47,0x60,
0x77,0x40,0x00,0x00,0x47,0x00,0x01,0x40,0x60,0x00,0x47,0x60,0x77,0x40,0x00,0x00,
0x47,0x00,0x01,0x40,0x60,0x00,0x47,0x60,0x77,0x40,0x00,0x00,0x47,0x00,0x01,0x40,
0x60,0x00,0x47,0x60,0x77,0x40,0x00,0x00,0x47,0x00,0x01,0x40,0x60,0x00,0x47,0x60,
0x77,0x40,0x00,0x00,0x47,0x00,0x01,0x40,0x60,0x00,0x47,0x60,0x77,0x40,0x00,0x00,
0x47,0x00,0x01,0x40,0x60,0x00,0x47,0x60,0x77,0x40,0x00,0x00,0x47,0x00,0x01,0x40,
0x60,0x00,0x47,0x60,0x77,0x40,0x00,0x00,0x47,0x00,0x01,0x40,0x60,0x00,0x47,0x60,
0x77,0x40,0x00,0x00,0x47,0x00,0x01,0x40,0x60,0x00,0x47,0x60,0x77,0x40,0x00,0x00,
0x47,0x00,0x01,0x40,0x60,0x00,0x47,0x60,0x77,0x40,0x00,0x00,0x47,0x00,0x01,0x40,
0x60,0x00,0x47,0x60,0x77,0x40,0x00,0x00,0x47,0x00,0x01,0x40,0x60,0x00,0x47,0x60,
0x77,0x40,0x00,0x00,0x47,0x00,0x01,0x40,0x60,0x00,0x47,0x60,0x77,0x40,0x00,0x00,
0x47,0x00,0x01,0x40,0x60,0x00,0x47,0x60,0x77,0x40,0x00,0x00,0x47,0x00,0x01,0x40,
0x60,0x00,0x47,0x60,0x77,0x40,0x00,0x00,0x47,0x00,0x01,0x40,0x60,0x00,0x47,0x60,
0x77,0x40,0x00,0x00,0x47,0x00,0x01,0x40,0x60,0x00,0x47,0x60,0x77,0x40,0x00,0x00,
0x47,0x00,0x01,0x40,0x60,0x00,0x47,0x60,0x77,0x40,0x00,0x00,0x47,0x00,0x01,0x40,
0x60,0x00,0x47,0x60,0x77,0x40,0x00,0x00,0x47,0x00,0x01,0x40,0x60,0x00,0x47,0x60,
0x77,0x40,0x00,0x00,0x47,0x00,0x01,0x40,0x60,0x00,0x47,0x60,0x77,0x40,0x00,0x00,
0x47,0x00,0x01,0x40,0x60,0x00,0x47,0x60,0x77,0x40,0x00,0x00,0x47,0x00,0x01,0x40,
0x60,0x00,0x47,0x60,0x77,0x40,0x00,0x00,0x47,0x00,0x01,0x40,0x60,0x00,0x47,0x60,
0x77,0x40,0x00,0x00,0x47,0x00,0x01,0x40,0x60,0x00,0x47,0x60,0x77,0x40,0x00,0x00,
0x47,0x00,0x01,0x40,0x60,0x00,0x47,0x60,0x77,0x40,0x00,0x00,0x47,0x00,0x01,0x40,
0x60,0x00,0x47,0x60,0x77,0x40,0x00,0x00,0x47,0x00,0x01,0x40,0x60,0x00,0x47,0x60,
0x77,0x40,0x00,0x00,0x47,0x00,0x01,0x40,0x60,0x00,0x47,0x60,0x77,0x40,0x00,0x00,
0x47,0x00,0x01,0x40,0x60,0x00,0x47,0x60,0x77,0x40,0x00,0x00,0x47,0x00,0x01,0x40,
0x60,0x00,0x47,0x60,0x77,0x40,0x00,0x00,0x47,0x00,0x01,0x40,0x60,0x00,0x47,0x60,
0x77,0x40,0x00,0x00,0x47,0x00,0x01,0x40,0x60,0x00,0x47,0x60,0x77,0x40,0x00,0x00,
0x47,0x00,0x01,0x40,0x60,0x00,0x47,0x60,0x77,0x40,0x00,0x00,0x47,0x00,0x01,0x40,
0x60,0x00,0x47,0x60,0x77,0x40,0x00,0x00,0x47,0x00,0x01,0x40,0x60,0x00,0x47,0x60,
0x77,0x40,0x00,0x00,0x47,0x00,0x01,0x40,0x60,0x00,0x47,0x60,0x77,0x40,0x00,0x00,
0x47,0x00,0x01,0x40,0x60,0x00,0x47,0x60,0x77,0x40,0x00,0x00,0x47,0x00,0x01,0x40,
0x60,0x00,0x47,0x60,0x77,0x40,0x00,0x00,0x47,0x00,0x01,0x40,0x60,0x00,0x47,0x60,
0x77,0x40,0x00,0x00,0x47,0x00,0x01,0x40,0x60,0x00,0x47,0x60,0x77,0x40,0x00,0x00,
0x47,0x00,0x01,0x40,0x60,0x00,0x47,0x60,0x77,0x40,0x00,0x00,0x47,0x00,0x01,0x40,
0x60,0x00,0x47,0x60,0x77,0x40,0x00,0x00,0x47,0x00,0x01,0x40,0x60,0x00,0x47,0x60,
0x77,0x40,0x00,0x00,0x47,0x00,0x01,0x40,0x60,0x00,0x47,0x60,0x77,0x40,0x00,0x00,
0x47,0x00,0x01,0x40,0x60,0x00,0x47,0x60,0x77,0x40,0x00,0x00,0x47,0x00,0x01,0x40,
0x60,0x00,0x47,0x60,0x77,0x40,0x00,0x00,0x47,0x00,0x01,0x40,0x60,0x00,0x47,0x60,
0x77,0x40,0x00,0x00,0x47,0x00,0x01,0x40,0x60,0x00,0x47,0x60,0x77,0x40,0x00,0x00,
0x47,0x00,0x01,0x40,0x60,0x00,0x47,0x60,0x77,0x40,0x00,0x00,0x47,0x00,0x01,0x40,
0x60,0x00,0x47,0x60,0x77,0x40,0x00,0x00,0x47,0x00,0x01,0x40,0x60,0x00,0x47,0x60,
0x77,0x40,0x00,0x00,0x47,0x00,0x01,0x40,0x60,0x00,0x47,0x60,0x77,0x40,0x00,0x00,
0x47,0x00,0x01,0x40,0x60,0x00,0x47,0x60,0x77,0x40,0x00,0x00,0x47,0x00,0x01,0x40,
0x60,0x00,0x47,0x60,0x77,0x40,0x00,0x00,0x47,0x00,0x01,0x40,0x60,0x00,0x47,0x60,
0x77,0x40,0x00,0x00,0x47,0x00,0x01,0x40,0x60,0x00,0x47,0x60,0x77,0x40,0x00,0x00,
0x47,0x00,0x01,0x40,0x60,0x00,0x47,0x60,0x77,0x40,0x00,0x00,0x47,0x00,0x01,0x40,
0x60,0x00,0x47,0x60,0x77,0x40,0x00,0x00,0x47,0x00,0x01,0x40,0x60,0x00,0x47,0x60,
0x77,0x40,0x00,0x00,0x47,0x00,0x01,0x40,0x60,0x00,0x47,0x60,0x77,0x40,0x00,0x00,
0x47,0x00,0x01,0x40,0x60,0x00,0x47,0x60,0x77,0x40,0x00,0x00,0x47,0x00,0x01,0xff,
0x2f,0x00,0x4d,0x54,0x72,0x6b,0x00,0x00,0x18,0x2a,0x00,0xff,0x59,0x02,0x00,0x00,
0x00,0xbc,0x79,0x00,0x00,0xcc,0x21,0x00,0xbc,0x07,0x2a,0x00,0x0a,0x40,0x00,0x5b,
0x00,0x00,0x5d,0x00,0x00,0xff,0x21,0x01,0x00,0x00,0x9c,0x1c,0x40,0x77,0x1c,0x00,
0x01,0x1c,0x40,0x77,0x1c,0x00,0x01,0x1c,0x40,0x77,0x1c,0x00,0x01,0x1c,0x40,0x77,
0x1c,0x00,0x01,0x1c,0x40,0x77,0x1c,0x00,0x01,0x1c,0x40,0x77,0x1c,0x00,0x01,0x1c,
0x40,0x77,0x1c,0x00,0x01,0x1c,0x40,0x77,0x1c,0x00,0x01,0x1c,0x40,0x77,0x1c,0x00,
0x01,0x1c,0x40,0x77,0x1c,0x00,0x01,0x1c,0x40,0x77,0x1c,0x00,0x01,0x1c,0x40,0x77,
0x1c,0x00,0x01,0x1c,0x40,0x77,0x1c,0x00,0x01,0x1c,0x40,0x77,0x1c,0x00,0x01,0x1c,
0x40,0x77,0x1c,0x00,0x01,0x1c,0x40,0x77,0x1c,0x00,0x01,0x1c,0x40,0x77,0x1c,0x00,
0x01,0x1c,0x40,0x77,0x1c,0x00,0x01,0x1c,0x40,0x77,0x1c,0x00,0x01,0x1c,0x40,0x77,
0x1c,0x00,0x01,0x1c,0x40,0x77,0x1c,0x00,0x01,0x1c,0x40,0x77,0x1c,0x00,0x01,0x1c,
0x40,0x77,0x1c,0x00,0x01,0x1c,0x40,0x77,0x1c,0x00,0x01,0x1c,0x40,0x77,0x1c,0x00,
0x01,0x1c,0x40,0x77,0x1c,0x00,0x01,0x1c,0x40,0x77,0x1c,0x00,0x01,0x1c,0x40,0x77,
0x1c,0x00,0x01,0x1c,0x40,0x77,0x1c,0x00,0x01,0x1c,0x40,0x77,0x1c,0x00,0x01,0x1c,
0x40,0x77,0x1c,0x00,0x01,0x1c,0x40,0x77,0x1c,0x00,0x01,0x1c,0x40,0x00,0x21,0x40,
0x77,0x1c,0x00,0x00,0x21,0x00,0x01,0x1c,0x40,0x00,0x21,0x40,0x77,0x1c,0x00,0x00,
0x21,0x00,0x01,0x1c,0x40,0x00,0x21,0x40,0x77,0x1c,0x00,0x00,0x21,0x00,0x01,0x1c,
0x40,0x00,0x21,0x40,0x77,0x1c,0x00,0x00,0x21,0x00,0x01,0x1c,0x40,0x00,0x21,0x40,
0x77,0x1c,0x00,0x00,0x21,0x00,0x01,0x1c,0x40,0x00,0x21,0x40,0x77,0x1c,0x00,0x00,
0x21,0x00,0x01,0x1c,0x40,0x00,0x21,0x40,0x77,0x1c,0x00,0x00,0x21,0x00,0x01,0x1c,
0x40,0x00,0x21,0x40,0x77,0x1c,0x00,0x00,0x21,0x00,0x01,0x1c,0x40,0x00,0x21,0x40,
0x77,0x1c,0x00,0x00,0x21,0x00,0x01,0x1c,0x40,0x00,0x21,0x40,0x77,0x1c,0x00,0x00,
0x21,0x00,0x01,0x1c,0x40,0x00,0x21,0x40,0x77,0x1c,0x00,0x00,0x21,0x00,0x01,0x1c,
0x40,0x00,0x21,0x40,0x77,0x1c,0x00,0x00,0x21,0x00,0x01,0x1c,0x40,0x00,0x21,0x40,
0x77,0x1c,0x00,0x00,0x21,0x00,0x01,0x1c,0x40,0x00,0x21,0x40,0x77,0x1c,0x00,0x00,
0x21,0x00,0x01,0x1c,0x40,0x00,0x21,0x40,0x77,0x1c,0x00,0x00,0x21,0x00,0x01,0x1c,
0x40,0x00,0x21,0x40,0x77,0x1c,0x00,0x00,0x21,0x00,0x01,0x1c,0x40,0x00,0x21,0x40,
0x77,0x1c,0x00,0x00,0x21,0x00,0x01,0x1c,0x40,0x00,0x21,0x40,0x77,0x1c,0x00,0x00,
0x21,0x00,0x01,0x1c,0x40,0x00,0x21,0x40,0x77,0x1c,0x00,0x00,0x21,0x00,0x01,0x1c,
0x40,0x00,0x21,0x40,0x77,0x1c,0x00,0x00,0x21,0x00,0x01,0x1c,0x40,0x00,0x21,0x40,
0x77,0x1c,0x00,0x00,0x21,0x00,0x01,0x1c,0x40,0x00,0x21,0x40,0x77,0x1c,0x00,0x00,
0x21,0x00,0x01,0x1c,0x40,0x00,0x21,0x40,0x77,0x1c,0x00,0x00,0x21,0x00,0x01,0x1c,
0x40,0x00,0x21,0x40,0x77,0x1c,0x00,0x00,0x21,0x00,0x01,0x1c,0x40,0x00,0x21,0x40,
0x77,0x1c,0x00,0x00,0x21,0x00,0x01,0x1c,0x40,0x00,0x21,0x40,0x77,0x1c,0x00,0x00,
0x21,0x00,0x01,0x1c,0x40,0x00,0x21,0x40,0x77,0x1c,0x00,0x00,0x21,0x00,0x01,0x1c,
0x40,0x00,0x21,0x40,0x77,0x1c,0x00,0x00,0x21,0x00,0x01,0x1c,0x40,0x00,0x21,0x40,
0x77,0x1c,0x00,0x00,0x21,0x00,0x01,0x1c,0x40,0x00,0x21,0x40,0x77,0x1c,0x00,0x00,
0x21,0x00,0x01,0x1c,0x40,0x00,0x21,0x40,0x77,0x1c,0x00,0x00,0x21,0x00,0x01,0x1c,
0x40,0x00,0x21,0x40,0x77,0x1c,0x00,0x00,0x21,0x00,0x01,0x1c,0x40,0x00,0x21,0x40,
0x77,0x1c,0x00,0x00,0x21,0x00,0x01,0x1c,0x40,0x00,0x21,0x40,0x77,0x1c,0x00,0x00,
0x21,0x00,0x01,0x1c,0x40,0x00,0x21,0x40,0x77,0x1c,0x00,0x00,0x21,0x00,0x01,0x1c,
0x40,0x00,0x21,0x40,0x77,0x1c,0x00,0x00,0x21,0x00,0x01,0x1c,0x40,0x00,0x21,0x40,
0x77,0x1c,0x00,0x00,0x21,0x00,0x01,0x1c,0x40,0x00,0x21,0x40,0x77,0x1c,0x00,0x00,
0x21,0x00,0x01,0x1c,0x40,0x00,0x21,0x40,0x77,0x1c,0x00,0x00,0x21,0x00,0x01,0x1c,
0x40,0x00,0x21,0x40,0x77,0x1c,0x00,0x00,0x21,0x00,0x01,0x1c,0x40,0x00,0x21,0x40,
0x77,0x1c,0x00,0x00,0x21,0x00,0x01,0x1c,0x40,0x00,0x21,0x40,0x77,0x1c,0x00,0x00,
0x21,0x00,0x01,0x1c,0x40,0x00,0x21,0x40,0x77,0x1c,0x00,0x00,0x21,0x00,0x01,0x1c,
0x40,0x00,0x21,0x40,0x77,0x1c,0x00,0x00,0x21,0x00,0x01,0x1c,0x40,0x00,0x21,0x40,
0x77,0x1c,0x00,0x00,0x21,0x00,0x01,0x1c,0x40,0x00,0x21,0x40,0x77,0x1c,0x00,0x00,
0x21,0x00,0x01,0x1c,0x40,0x00,0x21,0x40,0x77,0x1c,0x00,0x00,0x21,0x00,0x01,0x1c,
0x40,0x00,0x21,0x40,0x77,0x1c,0x00,0x00,0x21,0x00,0x01,0x1c,0x40,0x00,0x21,0x40,
0x77,0x1c,0x00,0x00,0x21,0x00,0x01,0x1c,0x40,0x00,0x21,0x40,0x77,0x1c,0x00,0x00,
0x21,0x00,0x01,0x1c,0x40,0x00,0x21,0x40,0x77,0x1c,0x00,0x00,0x21,0x00,0x01,0x1c,
0x40,0x00,0x21,0x40,0x77,0x1c,0x00,0x00,0x21,0x00,0x01,0x1c,0x50,0x00,0x21,0x50,
0x77,0x1c,0x00,0x00,0x21,0x00,0x01,0x1c,0x50,0x00,0x21,0x50,0x77,0x1c,0x00,0x00,
0x21,0x00,0x01,0x1c,0x50,0x00,0x21,0x50,0x77,0x1c,0x00,0x00,0x21,0x00,0x01,0x1c,
0x50,0x00,0x21,0x50,0x77,0x1c,0x00,0x00,0x21,0x00,0x01,0x1c,0x50,0x00,0x21,0x50,
0x77,0x1c,0x00,0x00,0x21,0x00,0x01,0x1c,0x50,0x00,0x21,0x50,0x77,0x1c,0x00,0x00,
0x21,0x00,0x01,0x1c,0x50,0x00,0x21,0x50,0x77,0x1c,0x00,0x00,0x21,0x00,0x01,0x1c,
0x50,0x00,0x21,0x50,0x77,0x1c,0x00,0x00,0x21,0x00,0x01,0x1c,0x50,0x00,0x21,0x50,
0x77,0x1c,0x00,0x00,0x21,0x00,0x01,0x1c,0x50,0x00,0x21,0x50,0x77,0x1c,0x00,0x00,
0x21,0x00,0x01,0x1c,0x50,0x00,0x21,0x50,0x77,0x1c,0x00,0x00,0x21,0x00,0x01,0x1c,
0x50,0x00,0x21,0x50,0x77,0x1c,0x00,0x00,0x21,0x00,0x01,0x1c,0x50,0x00,0x21,0x50,
0x77,0x1c,0x00,0x00,0x21,0x00,0x01,0x1c,0x50,0x00,0x21,0x50,0x77,0x1c,0x00,0x00,
0x21,0x00,0x01,0x1c,0x50,0x00,0x21,0x50,0x77,0x1c,0x00,0x00,0x21,0x00,0x01,0x1c,
0x50,0x00,0x21,0x50,0x77,0x1c,0x00,0x00,0x21,0x00,0x01,0x1c,0x50,0x00,0x21,0x50,
0x77,0x1c,0x00,0x00,0x21,0x00,0x01,0x1c,0x50,0x00,0x21,0x50,0x77,0x1c,0x00,0x00,
0x21,0x00,0x01,0x1c,0x50,0x00,0x21,0x50,0x77,0x1c,0x00,0x00,0x21,0x00,0x01,0x1c,
0x50,0x00,0x21,0x50,0x77,0x1c,0x00,0x00,0x21,0x00,0x01,0x1c,0x50,0x00,0x21,0x50,
0x77,0x1c,0x00,0x00,0x21,0x00,0x01,0x1c,0x50,0x00,0x21,0x50,0x77,0x1c,0x00,0x00,
0x21,0x00,0x01,0x1c,0x50,0x00,0x21,0x50,0x77,0x1c,0x00,0x00,0x21,0x00,0x01,0x1c,
0x50,0x00,0x21,0x50,0x77,0x1c,0x00,0x00,0x21,0x00,0x01,0x1c,0x50,0x00,0x21,0x50,
0x77,0x1c,0x00,0x00,0x21,0x00,0x01,0x1c,0x50,0x00,0x21,0x50,0x77,0x1c,0x00,0x00,
0x21,0x00,0x01,0x1c,0x50,0x00,0x21,0x50,0x77,0x1c,0x00,0x00,0x21,0x00,0x01,0x1c,
0x50,0x00,0x21,0x50,0x77,0x1c,0x00,0x00,0x21,0x00,0x01,0x1c,0x50,0x00,0x21,0x50,
0x77,0x1c,0x00,0x00,0x21,0x00,0x01,0x1c,0x50,0x00,0x21,0x50,0x77,0x1c,0x00,0x00,
0x21,0x00,0x01,0x1c,0x50,0x00,0x21,0x50,0x77,0x1c,0x00,0x00,0x21,0x00,0x01,0x1c,
0x50,0x00,0x21,0x50,0x77,0x1c,0x00,0x00,0x21,0x00,0x01,0x1c,0x50,0x00,0x21,0x50,
0x77,0x1c,0x00,0x00,0x21,0x00,0x01,0x1c,0x50,0x00,0x21,0x50,0x77,0x1c,0x00,0x00,
0x21,0x00,0x01,0x1c,0x50,0x00,0x21,0x50,0x77,0x1c,0x00,0x00,0x21,0x00,0x01,0x1c,
0x50,0x00,0x21,0x50,0x77,0x1c,0x00,0x00,0x21,0x00,0x01,0x1c,0x50,0x00,0x21,0x50,
0x77,0x1c,0x00,0x00,0x21,0x00,0x01,0x1c,0x50,0x00,0x21,0x50,0x77,0x1c,0x00,0x00,
0x21,0x00,0x01,0x1c,0x50,0x00,0x21,0x50,0x77,0x1c,0x00,0x00,0x21,0x00,0x01,0x1c,
0x50,0x00,0x21,0x50,0x77,0x1c,0x00,0x00,0x21,0x00,0x01,0x1c,0x50,0x00,0x21,0x50,
0x77,0x1c,0x00,0x00,0x21,0x00,0x01,0x1c,0x50,0x00,0x21,0x50,0x77,0x1c,0x00,0x00,
0x21,0x00,0x01,0x1c,0x50,0x00,0x21,0x50,0x77,0x1c,0x00,0x00,0x21,0x00,0x01,0x1c,
0x50,0x00,0x21,0x50,0x77,0x1c,0x00,0x00,0x21,0x00,0x01,0x1c,0x50,0x00,0x21,0x50,
0x77,0x1c,0x00,0x00,0x21,0x00,0x01,0x1c,0x50,0x00,0x21,0x50,0x77,0x1c,0x00,0x00,
0x21,0x00,0x01,0x1c,0x50,0x00,0x21,0x50,0x77,0x1c,0x00,0x00,0x21,0x00,0x01,0x1c,
0x50,0x00,0x21,0x50,0x77,0x1c,0x00,0x00,0x21,0x00,0x01,0x1c,0x50,0x00,0x21,0x50,
0x77,0x1c,0x00,0x00,0x21,0x00,0x01,0x1c,0x50,0x00,0x21,0x50,0x77,0x1c,0x00,0x00,
0x21,0x00,0x01,0x1c,0x50,0x00,0x21,0x50,0x77,0x1c,0x00,0x00,0x21,0x00,0x01,0x1c,
0x50,0x00,0x21,0x50,0x77,0x1c,0x00,0x00,0x21,0x00,0x01,0x1c,0x50,0x00,0x21,0x50,
0x77,0x1c,0x00,0x00,0x21,0x00,0x01,0x1c,0x50,0x00,0x21,0x50,0x77,0x1c,0x00,0x00,
0x21,0x00,0x01,0x1c,0x50,0x00,0x21,0x50,0x77,0x1c,0x00,0x00,0x21,0x00,0x01,0x1c,
0x50,0x00,0x21,0x50,0x77,0x1c,0x00,0x00,0x21,0x00,0x01,0x1c,0x50,0x00,0x21,0x50,
0x77,0x1c,0x00,0x00,0x21,0x00,0x01,0x1c,0x50,0x00,0x21,0x50,0x77,0x1c,0x00,0x00,
0x21,0x00,0x01,0x1c,0x50,0x00,0x21,0x50,0x77,0x1c,0x00,0x00,0x21,0x00,0x01,0x1c,
0x50,0x00,0x21,0x50,0x77,0x1c,0x00,0x00,0x21,0x00,0x01,0x1c,0x50,0x00,0x21,0x50,
0x77,0x1c,0x00,0x00,0x21,0x00,0x01,0x1c,0x50,0x00,0x21,0x50,0x77,0x1c,0x00,0x00,
0x21,0x00,0x01,0x1c,0x50,0x00,0x21,0x50,0x77,0x1c,0x00,0x00,0x21,0x00,0x01,0x1c,
0x50,0x00,0x21,0x50,0x77,0x1c,0x00,0x00,0x21,0x00,0x01,0x1c,0x50,0x00,0x21,0x50,
0x77,0x1c,0x00,0x00,0x21,0x00,0x01,0x1c,0x50,0x00,0x21,0x50,0x77,0x1c,0x00,0x00,
0x21,0x00,0x01,0x1c,0x50,0x00,0x21,0x50,0x77,0x1c,0x00,0x00,0x21,0x00,0x01,0x1c,
0x50,0x00,0x21,0x50,0x77,0x1c,0x00,0x00,0x21,0x00,0x01,0x1c,0x50,0x00,0x21,0x50,
0x77,0x1c,0x00,0x00,0x21,0x00,0x01,0x1c,0x50,0x00,0x21,0x50,0x77,0x1c,0x00,0x00,
0x21,0x00,0x01,0x1c,0x50,0x00,0x21,0x50,0x77,0x1c,0x00,0x00,0x21,0x00,0x01,0x1c,
0x50,0x00,0x21,0x50,0x77,0x1c,0x00,0x00,0x21,0x00,0x01,0x1c,0x50,0x00,0x21,0x50,
0x77,0x1c,0x00,0x00,0x21,0x00,0x01,0x1c,0x50,0x00,0x21,0x50,0x77,0x1c,0x00,0x00,
0x21,0x00,0x01,0x1c,0x50,0x00,0x21,0x50,0x77,0x1c,0x00,0x00,0x21,0x00,0x01,0x1c,
0x50,0x00,0x21,0x50,0x77,0x1c,0x00,0x00,0x21,0x00,0x01,0x1c,0x50,0x00,0x21,0x50,
0x77,0x1c,0x00,0x00,0x21,0x00,0x01,0x1c,0x50,0x00,0x21,0x50,0x77,0x1c,0x00,0x00,
0x21,0x00,0x01,0x1c,0x50,0x00,0x21,0x50,0x77,0x1c,0x00,0x00,0x21,0x00,0x01,0x1c,
0x50,0x00,0x21,0x50,0x77,0x1c,0x00,0x00,0x21,0x00,0x01,0x1c,0x50,0x00,0x21,0x50,
0x77,0x1c,0x00,0x00,0x21,0x00,0x01,0x1c,0x50,0x00,0x21,0x50,0x77,0x1c,0x00,0x00,
0x21,0x00,0x01,0x1c,0x50,0x00,0x21,0x50,0x77,0x1c,0x00,0x00,0x21,0x00,0x01,0x1c,
0x50,0x00,0x21,0x50,0x77,0x1c,0x00,0x00,0x21,0x00,0x01,0x1c,0x50,0x00,0x21,0x50,
0x77,0x1c,0x00,0x00,0x21,0x00,0x01,0x1c,0x50,0x00,0x21,0x50,0x77,0x1c,0x00,0x00,
0x21,0x00,0x01,0x1c,0x50,0x00,0x21,0x50,0x77,0x1c,0x00,0x00,0x21,0x00,0x01,0x1c,
0x50,0x00,0x21,0x50,0x77,0x1c,0x00,0x00,0x21,0x00,0x01,0x1c,0x50,0x00,0x21,0x50,
0x77,0x1c,0x00,0x00,0x21,0x00,0x01,0x1c,0x50,0x00,0x21,0x50,0x77,0x1c,0x00,0x00,
0x21,0x00,0x01,0x1c,0x50,0x00,0x21,0x50,0x77,0x1c,0x00,0x00,0x21,0x00,0x01,0x1c,
0x50,0x00,0x21,0x50,0x77,0x1c,0x00,0x00,0x21,0x00,0x01,0x1c,0x50,0x00,0x21,0x50,
0x77,0x1c,0x00,0x00,0x21,0x00,0x01,0x1c,0x50,0x00,0x21,0x50,0x77,0x1c,0x00,0x00,
0x21,0x00,0x01,0x1c,0x50,0x00,0x21,0x50,0x77,0x1c,0x00,0x00,0x21,0x00,0x01,0x1c,
0x50,0x00,0x21,0x50,0x77,0x1c,0x00,0x00,0x21,0x00,0x01,0x1c,0x50,0x00,0x21,0x50,
0x77,0x1c,0x00,0x00,0x21,0x00,0x01,0x1c,0x50,0x00,0x21,0x50,0x77,0x1c,0x00,0x00,
0x21,0x00,0x01,0x1c,0x50,0x00,0x21,0x50,0x77,0x1c,0x00,0x00,0x21,0x00,0x01,0x1c,
0x50,0x00,0x21,0x50,0x77,0x1c,0x00,0x00,0x21,0x00,0x01,0x1c,0x50,0x00,0x21,0x50,
0x77,0x1c,0x00,0x00,0x21,0x00,0x01,0x1c,0x50,0x00,0x21,0x50,0x77,0x1c,0x00,0x00,
0x21,0x00,0x01,0x1c,0x50,0x00,0x21,0x50,0x77,0x1c,0x00,0x00,0x21,0x00,0x01,0x1c,
0x50,0x00,0x21,0x50,0x77,0x1c,0x00,0x00,0x21,0x00,0x01,0x1c,0x50,0x00,0x21,0x50,
0x77,0x1c,0x00,0x00,0x21,0x00,0x01,0x1c,0x50,0x00,0x21,0x50,0x77,0x1c,0x00,0x00,
0x21,0x00,0x01,0x1c,0x50,0x00,0x21,0x50,0x77,0x1c,0x00,0x00,0x21,0x00,0x01,0x1c,
0x50,0x00,0x21,0x50,0x77,0x1c,0x00,0x00,0x21,0x00,0x01,0x1c,0x50,0x00,0x21,0x50,
0x77,0x1c,0x00,0x00,0x21,0x00,0x01,0x1c,0x50,0x00,0x21,0x50,0x77,0x1c,0x00,0x00,
0x21,0x00,0x01,0x1c,0x50,0x00,0x21,0x50,0x77,0x1c,0x00,0x00,0x21,0x00,0x01,0x1c,
0x50,0x00,0x21,0x50,0x77,0x1c,0x00,0x00,0x21,0x00,0x01,0x1c,0x50,0x00,0x21,0x50,
0x77,0x1c,0x00,0x00,0x21,0x00,0x01,0x1c,0x50,0x00,0x21,0x50,0x77,0x1c,0x00,0x00,
0x21,0x00,0x01,0x1c,0x50,0x00,0x21,0x50,0x77,0x1c,0x00,0x00,0x21,0x00,0x01,0x1c,
0x50,0x00,0x21,0x50,0x77,0x1c,0x00,0x00,0x21,0x00,0x01,0x1c,0x50,0x00,0x21,0x50,
0x77,0x1c,0x00,0x00,0x21,0x00,0x01,0x1c,0x50,0x00,0x21,0x50,0x77,0x1c,0x00,0x00,
0x21,0x00,0x01,0x1c,0x50,0x00,0x21,0x50,0x77,0x1c,0x00,0x00,0x21,0x00,0x01,0x1c,
0x50,0x00,0x21,0x50,0x77,0x1c,0x00,0x00,0x21,0x00,0x01,0x1c,0x50,0x00,0x21,0x50,
0x77,0x1c,0x00,0x00,0x21,0x00,0x01,0x1c,0x50,0x00,0x21,0x50,0x77,0x1c,0x00,0x00,
0x21,0x00,0x01,0x1c,0x50,0x00,0x21,0x50,0x77,0x1c,0x00,0x00,0x21,0x00,0x01,0x1c,
0x50,0x00,0x21,0x50,0x77,0x1c,0x00,0x00,0x21,0x00,0x01,0x1c,0x50,0x00,0x21,0x50,
0x77,0x1c,0x00,0x00,0x21,0x00,0x01,0x1c,0x50,0x00,0x21,0x50,0x77,0x1c,0x00,0x00,
0x21,0x00,0x01,0x1c,0x50,0x00,0x21,0x50,0x77,0x1c,0x00,0x00,0x21,0x00,0x01,0x1c,
0x50,0x00,0x21,0x50,0x77,0x1c,0x00,0x00,0x21,0x00,0x01,0x1c,0x50,0x00,0x21,0x50,
0x77,0x1c,0x00,0x00,0x21,0x00,0x01,0x1c,0x50,0x00,0x21,0x50,0x77,0x1c,0x00,0x00,
0x21,0x00,0x01,0x1c,0x50,0x00,0x21,0x50,0x77,0x1c,0x00,0x00,0x21,0x00,0x01,0x1c,
0x50,0x00,0x21,0x50,0x77,0x1c,0x00,0x00,0x21,0x00,0x01,0x1c,0x50,0x00,0x21,0x50,
0x77,0x1c,0x00,0x00,0x21,0x00,0x01,0x1c,0x50,0x00,0x21,0x50,0x77,0x1c,0x00,0x00,
0x21,0x00,0x01,0x1c,0x50,0x00,0x21,0x50,0x77,0x1c,0x00,0x00,0x21,0x00,0x01,0x1c,
0x50,0x00,0x21,0x50,0x77,0x1c,0x00,0x00,0x21,0x00,0x01,0x1c,0x50,0x00,0x21,0x50,
0x77,0x1c,0x00,0x00,0x21,0x00,0x01,0x1c,0x50,0x00,0x21,0x50,0x77,0x1c,0x00,0x00,
0x21,0x00,0x01,0x1c,0x50,0x00,0x21,0x50,0x77,0x1c,0x00,0x00,0x21,0x00,0x01,0x1c,
0x50,0x00,0x21,0x50,0x77,0x1c,0x00,0x00,0x21,0x00,0x01,0x1c,0x50,0x00,0x21,0x50,
0x77,0x1c,0x00,0x00,0x21,0x00,0x01,0x1c,0x50,0x00,0x21,0x50,0x77,0x1c,0x00,0x00,
0x21,0x00,0x01,0x1c,0x50,0x00,0x21,0x50,0x77,0x1c,0x00,0x00,0x21,0x00,0x01,0x1c,
0x50,0x00,0x21,0x50,0x77,0x1c,0x00,0x00,0x21,0x00,0x01,0x1c,0x50,0x00,0x21,0x50,
0x77,0x1c,0x00,0x00,0x21,0x00,0x01,0x1c,0x50,0x00,0x21,0x50,0x77,0x1c,0x00,0x00,
0x21,0x00,0x01,0x1c,0x50,0x00,0x21,0x50,0x77,0x1c,0x00,0x00,0x21,0x00,0x01,0x1c,
0x50,0x00,0x21,0x50,0x77,0x1c,0x00,0x00,0x21,0x00,0x01,0x1c,0x50,0x00,0x21,0x50,
0x77,0x1c,0x00,0x00,0x21,0x00,0x01,0x1c,0x50,0x00,0x21,0x50,0x77,0x1c,0x00,0x00,
0x21,0x00,0x01,0x1c,0x50,0x00,0x21,0x50,0x77,0x1c,0x00,0x00,0x21,0x00,0x01,0x1c,
0x50,0x00,0x21,0x50,0x77,0x1c,0x00,0x00,0x21,0x00,0x01,0x1c,0x50,0x00,0x21,0x50,
0x77,0x1c,0x00,0x00,0x21,0x00,0x01,0x1c,0x50,0x00,0x21,0x50,0x77,0x1c,0x00,0x00,
0x21,0x00,0x01,0x1c,0x50,0x00,0x21,0x50,0x77,0x1c,0x00,0x00,0x21,0x00,0x01,0x1c,
0x50,0x00,0x21,0x50,0x77,0x1c,0x00,0x00,0x21,0x00,0x01,0x1c,0x50,0x00,0x21,0x50,
0x77,0x1c,0x00,0x00,0x21,0x00,0x01,0x1c,0x50,0x00,0x21,0x50,0x77,0x1c,0x00,0x00,
0x21,0x00,0x01,0x1c,0x50,0x00,0x21,0x50,0x77,0x1c,0x00,0x00,0x21,0x00,0x01,0x1c,
0x50,0x00,0x21,0x50,0x77,0x1c,0x00,0x00,0x21,0x00,0x01,0x1c,0x50,0x00,0x21,0x50,
0x77,0x1c,0x00,0x00,0x21,0x00,0x01,0x1c,0x50,0x00,0x21,0x50,0x77,0x1c,0x00,0x00,
0x21,0x00,0x01,0x1c,0x50,0x00,0x21,0x50,0x77,0x1c,0x00,0x00,0x21,0x00,0x01,0x1c,
0x50,0x00,0x21,0x50,0x77,0x1c,0x00,0x00,0x21,0x00,0x01,0x1c,0x50,0x00,0x21,0x50,
0x77,0x1c,0x00,0x00,0x21,0x00,0x01,0x1c,0x50,0x00,0x21,0x50,0x77,0x1c,0x00,0x00,
0x21,0x00,0x01,0x1c,0x50,0x00,0x21,0x50,0x77,0x1c,0x00,0x00,0x21,0x00,0x01,0x1c,
0x50,0x00,0x21,0x50,0x77,0x1c,0x00,0x00,0x21,0x00,0x01,0x1c,0x50,0x00,0x21,0x50,
0x77,0x1c,0x00,0x00,0x21,0x00,0x01,0x1c,0x50,0x00,0x21,0x50,0x77,0x1c,0x00,0x00,
0x21,0x00,0x01,0x1c,0x50,0x00,0x21,0x50,0x77,0x1c,0x00,0x00,0x21,0x00,0x01,0x1c,
0x50,0x00,0x21,0x50,0x77,0x1c,0x00,0x00,0x21,0x00,0x01,0x1c,0x50,0x00,0x21,0x50,
0x77,0x1c,0x00,0x00,0x21,0x00,0x01,0x1c,0x50,0x00,0x21,0x50,0x77,0x1c,0x00,0x00,
0x21,0x00,0x01,0x1c,0x50,0x00,0x21,0x50,0x77,0x1c,0x00,0x00,0x21,0x00,0x01,0x1c,
0x50,0x00,0x21,0x50,0x77,0x1c,0x00,0x00,0x21,0x00,0x01,0x1c,0x50,0x00,0x21,0x50,
0x77,0x1c,0x00,0x00,0x21,0x00,0x01,0x1c,0x50,0x00,0x21,0x50,0x77,0x1c,0x00,0x00,
0x21,0x00,0x01,0x1c,0x50,0x00,0x21,0x50,0x77,0x1c,0x00,0x00,0x21,0x00,0x01,0x1c,
0x50,0x00,0x21,0x50,0x77,0x1c,0x00,0x00,0x21,0x00,0x01,0x1c,0x50,0x00,0x21,0x50,
0x77,0x1c,0x00,0x00,0x21,0x00,0x01,0x1c,0x50,0x00,0x21,0x50,0x77,0x1c,0x00,0x00,
0x21,0x00,0x01,0x1c,0x50,0x00,0x21,0x50,0x77,0x1c,0x00,0x00,0x21,0x00,0x01,0x1c,
0x50,0x00,0x21,0x50,0x77,0x1c,0x00,0x00,0x21,0x00,0x01,0x1c,0x50,0x00,0x21,0x50,
0x77,0x1c,0x00,0x00,0x21,0x00,0x01,0x1c,0x50,0x00,0x21,0x50,0x77,0x1c,0x00,0x00,
0x21,0x00,0x01,0x1c,0x50,0x00,0x21,0x50,0x77,0x1c,0x00,0x00,0x21,0x00,0x01,0x1c,
0x50,0x00,0x21,0x50,0x77,0x1c,0x00,0x00,0x21,0x00,0x01,0x1c,0x50,0x00,0x21,0x50,
0x77,0x1c,0x00,0x00,0x21,0x00,0x01,0x1c,0x50,0x00,0x21,0x50,0x77,0x1c,0x00,0x00,
0x21,0x00,0x01,0x1c,0x50,0x00,0x21,0x50,0x77,0x1c,0x00,0x00,0x21,0x00,0x01,0x1c,
0x50,0x00,0x21,0x50,0x77,0x1c,0x00,0x00,0x21,0x00,0x01,0x1c,0x50,0x00,0x21,0x50,
0x77,0x1c,0x00,0x00,0x21,0x00,0x01,0x1c,0x50,0x00,0x21,0x50,0x77,0x1c,0x00,0x00,
0x21,0x00,0x01,0x1c,0x50,0x00,0x21,0x50,0x77,0x1c,0x00,0x00,0x21,0x00,0x01,0x1c,
0x50,0x00,0x21,0x50,0x77,0x1c,0x00,0x00,0x21,0x00,0x01,0x1c,0x50,0x00,0x21,0x50,
0x77,0x1c,0x00,0x00,0x21,0x00,0x01,0x1c,0x50,0x00,0x21,0x50,0x77,0x1c,0x00,0x00,
0x21,0x00,0x01,0x1c,0x50,0x00,0x21,0x50,0x77,0x1c,0x00,0x00,0x21,0x00,0x01,0x1c,
0x50,0x00,0x21,0x50,0x77,0x1c,0x00,0x00,0x21,0x00,0x01,0x1c,0x50,0x00,0x21,0x50,
0x77,0x1c,0x00,0x00,0x21,0x00,0x01,0x1c,0x50,0x00,0x21,0x50,0x77,0x1c,0x00,0x00,
0x21,0x00,0x01,0x1c,0x50,0x00,0x21,0x50,0x77,0x1c,0x00,0x00,0x21,0x00,0x01,0x1c,
0x50,0x00,0x21,0x50,0x77,0x1c,0x00,0x00,0x21,0x00,0x01,0x1c,0x50,0x00,0x21,0x50,
0x77,0x1c,0x00,0x00,0x21,0x00,0x01,0x1c,0x50,0x00,0x21,0x50,0x77,0x1c,0x00,0x00,
0x21,0x00,0x01,0x1c,0x50,0x00,0x21,0x50,0x77,0x1c,0x00,0x00,0x21,0x00,0x01,0x1c,
0x50,0x00,0x21,0x50,0x77,0x1c,0x00,0x00,0x21,0x00,0x01,0x1c,0x50,0x00,0x21,0x50,
0x77,0x1c,0x00,0x00,0x21,0x00,0x01,0x1c,0x50,0x00,0x21,0x50,0x77,0x1c,0x00,0x00,
0x21,0x00,0x01,0x1c,0x50,0x00,0x21,0x50,0x77,0x1c,0x00,0x00,0x21,0x00,0x01,0x1c,
0x50,0x00,0x21,0x50,0x77,0x1c,0x00,0x00,0x21,0x00,0x01,0x1c,0x50,0x00,0x21,0x50,
0x77,0x1c,0x00,0x00,0x21,0x00,0x01,0x1c,0x50,0x00,0x21,0x50,0x77,0x1c,0x00,0x00,
0x21,0x00,0x01,0x1c,0x50,0x00,0x21,0x50,0x77,0x1c,0x00,0x00,0x21,0x00,0x01,0x1c,
0x50,0x00,0x21,0x50,0x77,0x1c,0x00,0x00,0x21,0x00,0x01,0x1c,0x50,0x00,0x21,0x50,
0x77,0x1c,0x00,0x00,0x21,0x00,0x01,0x1c,0x50,0x00,0x21,0x50,0x77,0x1c,0x00,0x00,
0x21,0x00,0x01,0x1c,0x50,0x00,0x21,0x50,0x77,0x1c,0x00,0x00,0x21,0x00,0x01,0x1c,
0x50,0x00,0x21,0x50,0x77,0x1c,0x00,0x00,0x21,0x00,0x01,0x1c,0x50,0x00,0x21,0x50,
0x77,0x1c,0x00,0x00,0x21,0x00,0x01,0x1c,0x50,0x00,0x21,0x50,0x77,0x1c,0x00,0x00,
0x21,0x00,0x01,0x1c,0x50,0x00,0x21,0x50,0x77,0x1c,0x00,0x00,0x21,0x00,0x01,0x1c,
0x50,0x00,0x21,0x50,0x77,0x1c,0x00,0x00,0x21,0x00,0x01,0x1c,0x50,0x00,0x21,0x50,
0x77,0x1c,0x00,0x00,0x21,0x00,0x01,0x1c,0x50,0x00,0x21,0x50,0x77,0x1c,0x00,0x00,
0x21,0x00,0x01,0x1c,0x50,0x00,0x21,0x50,0x77,0x1c,0x00,0x00,0x21,0x00,0x01,0x1c,
0x50,0x00,0x21,0x50,0x77,0x1c,0x00,0x00,0x21,0x00,0x01,0x1c,0x50,0x00,0x21,0x50,
0x77,0x1c,0x00,0x00,0x21,0x00,0x01,0x1c,0x50,0x00,0x21,0x50,0x77,0x1c,0x00,0x00,
0x21,0x00,0x01,0x1c,0x50,0x00,0x21,0x50,0x77,0x1c,0x00,0x00,0x21,0x00,0x01,0x1c,
0x50,0x00,0x21,0x50,0x77,0x1c,0x00,0x00,0x21,0x00,0x01,0x1c,0x50,0x00,0x21,0x50,
0x77,0x1c,0x00,0x00,0x21,0x00,0x01,0x1c,0x50,0x00,0x21,0x50,0x77,0x1c,0x00,0x00,
0x21,0x00,0x01,0x1c,0x50,0x00,0x21,0x50,0x77,0x1c,0x00,0x00,0x21,0x00,0x01,0x1c,
0x50,0x00,0x21,0x50,0x77,0x1c,0x00,0x00,0x21,0x00,0x01,0x1c,0x50,0x00,0x21,0x50,
0x77,0x1c,0x00,0x00,0x21,0x00,0x01,0x1c,0x50,0x00,0x21,0x50,0x77,0x1c,0x00,0x00,
0x21,0x00,0x01,0x1c,0x50,0x00,0x21,0x50,0x77,0x1c,0x00,0x00,0x21,0x00,0x01,0x1c,
0x50,0x00,0x21,0x50,0x77,0x1c,0x00,0x00,0x21,0x00,0x01,0x1c,0x50,0x00,0x21,0x50,
0x77,0x1c,0x00,0x00,0x21,0x00,0x01,0x1c,0x50,0x00,0x21,0x50,0x77,0x1c,0x00,0x00,
0x21,0x00,0x01,0x1c,0x50,0x00,0x21,0x50,0x77,0x1c,0x00,0x00,0x21,0x00,0x01,0x1c,
0x50,0x00,0x21,0x50,0x77,0x1c,0x00,0x00,0x21,0x00,0x01,0x1c,0x50,0x00,0x21,0x50,
0x77,0x1c,0x00,0x00,0x21,0x00,0x01,0x1c,0x50,0x00,0x21,0x50,0x77,0x1c,0x00,0x00,
0x21,0x00,0x01,0x1c,0x50,0x00,0x21,0x50,0x77,0x1c,0x00,0x00,0x21,0x00,0x01,0x1c,
0x50,0x00,0x21,0x50,0x77,0x1c,0x00,0x00,0x21,0x00,0x01,0x1c,0x50,0x00,0x21,0x50,
0x77,0x1c,0x00,0x00,0x21,0x00,0x01,0x1c,0x50,0x00,0x21,0x50,0x77,0x1c,0x00,0x00,
0x21,0x00,0x01,0x1c,0x50,0x00,0x21,0x50,0x77,0x1c,0x00,0x00,0x21,0x00,0x01,0x1c,
0x50,0x00,0x21,0x50,0x77,0x1c,0x00,0x00,0x21,0x00,0x01,0x1c,0x50,0x00,0x21,0x50,
0x77,0x1c,0x00,0x00,0x21,0x00,0x01,0x1c,0x50,0x00,0x21,0x50,0x77,0x1c,0x00,0x00,
0x21,0x00,0x01,0x1c,0x50,0x00,0x21,0x50,0x77,0x1c,0x00,0x00,0x21,0x00,0x01,0x1c,
0x50,0x00,0x21,0x50,0x77,0x1c,0x00,0x00,0x21,0x00,0x01,0x1c,0x50,0x00,0x21,0x50,
0x77,0x1c,0x00,0x00,0x21,0x00,0x01,0x1c,0x50,0x00,0x21,0x50,0x77,0x1c,0x00,0x00,
0x21,0x00,0x01,0x1c,0x50,0x00,0x21,0x50,0x77,0x1c,0x00,0x00,0x21,0x00,0x01,0x1c,
0x50,0x00,0x21,0x50,0x77,0x1c,0x00,0x00,0x21,0x00,0x01,0x1c,0x50,0x00,0x21,0x50,
0x77,0x1c,0x00,0x00,0x21,0x00,0x01,0x1c,0x50,0x00,0x21,0x50,0x77,0x1c,0x00,0x00,
0x21,0x00,0x01,0x1c,0x50,0x00,0x21,0x50,0x77,0x1c,0x00,0x00,0x21,0x00,0x01,0x1c,
0x50,0x00,0x21,0x50,0x77,0x1c,0x00,0x00,0x21,0x00,0x01,0x1c,0x50,0x00,0x21,0x50,
0x77,0x1c,0x00,0x00,0x21,0x00,0x01,0x1c,0x50,0x00,0x21,0x50,0x77,0x1c,0x00,0x00,
0x21,0x00,0x01,0x1c,0x50,0x00,0x21,0x50,0x77,0x1c,0x00,0x00,0x21,0x00,0x01,0x1c,
0x50,0x00,0x21,0x50,0x77,0x1c,0x00,0x00,0x21,0x00,0x01,0x1c,0x50,0x00,0x21,0x50,
0x77,0x1c,0x00,0x00,0x21,0x00,0x01,0x1c,0x50,0x00,0x21,0x50,0x77,0x1c,0x00,0x00,
0x21,0x00,0x01,0x1c,0x50,0x00,0x21,0x50,0x77,0x1c,0x00,0x00,0x21,0x00,0x01,0x1c,
0x50,0x00,0x21,0x50,0x77,0x1c,0x00,0x00,0x21,0x00,0x01,0x1c,0x50,0x00,0x21,0x50,
0x77,0x1c,0x00,0x00,0x21,0x00,0x01,0x1c,0x50,0x00,0x21,0x50,0x77,0x1c,0x00,0x00,
0x21,0x00,0x01,0x1c,0x50,0x00,0x21,0x50,0x77,0x1c,0x00,0x00,0x21,0x00,0x01,0x1c,
0x50,0x00,0x21,0x50,0x77,0x1c,0x00,0x00,0x21,0x00,0x01,0x1c,0x50,0x00,0x21,0x50,
0x77,0x1c,0x00,0x00,0x21,0x00,0x01,0x1c,0x50,0x00,0x21,0x50,0x77,0x1c,0x00,0x00,
0x21,0x00,0x01,0x1c,0x50,0x00,0x21,0x50,0x77,0x1c,0x00,0x00,0x21,0x00,0x01,0x1c,
0x50,0x00,0x21,0x50,0x77,0x1c,0x00,0x00,0x21,0x00,0x01,0x1c,0x50,0x00,0x21,0x50,
0x77,0x1c,0x00,0x00,0x21,0x00,0x01,0x1c,0x50,0x00,0x21,0x50,0x77,0x1c,0x00,0x00,
0x21,0x00,0x01,0x1c,0x50,0x00,0x21,0x50,0x77,0x1c,0x00,0x00,0x21,0x00,0x01,0x1c,
0x50,0x00,0x21,0x50,0x77,0x1c,0x00,0x00,0x21,0x00,0x01,0x1c,0x50,0x00,0x21,0x50,
0x77,0x1c,0x00,0x00,0x21,0x00,0x01,0x1c,0x50,0x00,0x21,0x50,0x77,0x1c,0x00,0x00,
0x21,0x00,0x01,0x1c,0x50,0x00,0x21,0x50,0x77,0x1c,0x00,0x00,0x21,0x00,0x01,0x1c,
0x50,0x00,0x21,0x50,0x77,0x1c,0x00,0x00,0x21,0x00,0x01,0x1c,0x50,0x00,0x21,0x50,
0x77,0x1c,0x00,0x00,0x21,0x00,0x01,0x1c,0x50,0x00,0x21,0x50,0x77,0x1c,0x00,0x00,
0x21,0x00,0x01,0x1c,0x50,0x00,0x21,0x50,0x77,0x1c,0x00,0x00,0x21,0x00,0x01,0x1c,
0x50,0x00,0x21,0x50,0x77,0x1c,0x00,0x00,0x21,0x00,0x01,0x1c,0x50,0x00,0x21,0x50,
0x77,0x1c,0x00,0x00,0x21,0x00,0x01,0x1c,0x50,0x00,0x21,0x50,0x77,0x1c,0x00,0x00,
0x21,0x00,0x01,0x1c,0x50,0x00,0x21,0x50,0x77,0x1c,0x00,0x00,0x21,0x00,0x01,0x1c,
0x50,0x00,0x21,0x50,0x77,0x1c,0x00,0x00,0x21,0x00,0x01,0x1c,0x50,0x00,0x21,0x50,
0x77,0x1c,0x00,0x00,0x21,0x00,0x01,0x1c,0x50,0x00,0x21,0x50,0x77,0x1c,0x00,0x00,
0x21,0x00,0x01,0x1c,0x50,0x00,0x21,0x50,0x77,0x1c,0x00,0x00,0x21,0x00,0x01,0x1c,
0x50,0x00,0x21,0x50,0x77,0x1c,0x00,0x00,0x21,0x00,0x01,0x23,0x60,0x00,0x28,0x60,
0x00,0x1c,0x60,0x77,0x23,0x00,0x00,0x28,0x00,0x01,0x23,0x60,0x00,0x28,0x60,0x77,
0x23,0x00,0x00,0x28,0x00,0x01,0x23,0x60,0x00,0x28,0x60,0x77,0x23,0x00,0x00,0x28,
0x00,0x01,0x23,0x60,0x00,0x28,0x60,0x77,0x23,0x00,0x00,0x28,0x00,0x01,0x23,0x60,
0x00,0x28,0x60,0x77,0x23,0x00,0x00,0x28,0x00,0x01,0x23,0x60,0x00,0x28,0x60,0x77,
0x23,0x00,0x00,0x28,0x00,0x01,0x23,0x60,0x00,0x28,0x60,0x77,0x23,0x00,0x00,0x28,
0x00,0x01,0x23,0x60,0x00,0x28,0x60,0x77,0x23,0x00,0x00,0x28,0x00,0x01,0x23,0x60,
0x00,0x28,0x60,0x77,0x23,0x00,0x00,0x28,0x00,0x01,0x23,0x60,0x00,0x28,0x60,0x77,
0x23,0x00,0x00,0x28,0x00,0x01,0x23,0x60,0x00,0x28,0x60,0x77,0x23,0x00,0x00,0x28,
0x00,0x01,0x23,0x60,0x00,0x28,0x60,0x77,0x23,0x00,0x00,0x28,0x00,0x01,0x23,0x60,
0x00,0x28,0x60,0x77,0x23,0x00,0x00,0x28,0x00,0x01,0x23,0x60,0x00,0x28,0x60,0x77,
0x23,0x00,0x00,0x28,0x00,0x01,0x23,0x60,0x00,0x28,0x60,0x77,0x23,0x00,0x00,0x28,
0x00,0x01,0x23,0x60,0x00,0x28,0x60,0x77,0x23,0x00,0x00,0x28,0x00,0x01,0x23,0x60,
0x00,0x28,0x60,0x77,0x23,0x00,0x00,0x28,0x00,0x01,0x23,0x60,0x00,0x28,0x60,0x77,
0x23,0x00,0x00,0x28,0x00,0x01,0x23,0x60,0x00,0x28,0x60,0x77,0x23,0x00,0x00,0x28,
0x00,0x01,0x23,0x60,0x00,0x28,0x60,0x77,0x23,0x00,0x00,0x28,0x00,0x01,0x23,0x60,
0x00,0x28,0x60,0x77,0x23,0x00,0x00,0x28,0x00,0x01,0x23,0x60,0x00,0x28,0x60,0x77,
0x23,0x00,0x00,0x28,0x00,0x01,0x23,0x60,0x00,0x28,0x60,0x77,0x23,0x00,0x00,0x28,
0x00,0x01,0x23,0x60,0x00,0x28,0x60,0x77,0x1c,0x00,0x00,0x23,0x00,0x00,0x28,0x00,
0x01,0x23,0x60,0x00,0x28,0x60,0x77,0x23,0x00,0x00,0x28,0x00,0x01,0x23,0x60,0x00,
0x28,0x60,0x77,0x23,0x00,0x00,0x28,0x00,0x01,0x23,0x60,0x00,0x28,0x60,0x77,0x23,
0x00,0x00,0x28,0x00,0x01,0x23,0x60,0x00,0x28,0x60,0x77,0x23,0x00,0x00,0x28,0x00,
0x01,0x23,0x60,0x00,0x28,0x60,0x77,0x23,0x00,0x00,0x28,0x00,0x01,0x23,0x60,0x00,
0x28,0x60,0x77,0x23,0x00,0x00,0x28,0x00,0x01,0x23,0x60,0x00,0x28,0x60,0x77,0x23,
0x00,0x00,0x28,0x00,0x01,0x23,0x60,0x00,0x28,0x60,0x77,0x23,0x00,0x00,0x28,0x00,
0x01,0x23,0x60,0x00,0x28,0x60,0x77,0x23,0x00,0x00,0x28,0x00,0x01,0x23,0x60,0x00,
0x28,0x60,0x77,0x23,0x00,0x00,0x28,0x00,0x01,0x23,0x60,0x00,0x28,0x60,0x77,0x23,
0x00,0x00,0x28,0x00,0x01,0x23,0x60,0x00,0x28,0x60,0x77,0x23,0x00,0x00,0x28,0x00,
0x01,0x23,0x60,0x00,0x28,0x60,0x77,0x23,0x00,0x00,0x28,0x00,0x01,0x23,0x60,0x00,
0x28,0x60,0x77,0x23,0x00,0x00,0x28,0x00,0x01,0x23,0x60,0x00,0x28,0x60,0x77,0x23,
0x00,0x00,0x28,0x00,0x01,0x23,0x60,0x00,0x28,0x60,0x77,0x23,0x00,0x00,0x28,0x00,
0x01,0x23,0x60,0x00,0x28,0x60,0x77,0x23,0x00,0x00,0x28,0x00,0x01,0x23,0x60,0x00,
0x28,0x60,0x77,0x23,0x00,0x00,0x28,0x00,0x01,0x23,0x60,0x00,0x28,0x60,0x77,0x23,
0x00,0x00,0x28,0x00,0x01,0x23,0x60,0x00,0x28,0x60,0x77,0x23,0x00,0x00,0x28,0x00,
0x01,0x23,0x60,0x00,0x28,0x60,0x77,0x23,0x00,0x00,0x28,0x00,0x01,0x23,0x60,0x00,
0x28,0x60,0x77,0x23,0x00,0x00,0x28,0x00,0x01,0x23,0x60,0x00,0x28,0x60,0x77,0x23,
0x00,0x00,0x28,0x00,0x01,0x23,0x60,0x00,0x28,0x60,0x77,0x23,0x00,0x00,0x28,0x00,
0x01,0x23,0x60,0x00,0x28,0x60,0x77,0x23,0x00,0x00,0x28,0x00,0x01,0x23,0x60,0x00,
0x28,0x60,0x77,0x23,0x00,0x00,0x28,0x00,0x01,0x23,0x60,0x00,0x28,0x60,0x77,0x23,
0x00,0x00,0x28,0x00,0x01,0x23,0x60,0x00,0x28,0x60,0x77,0x23,0x00,0x00,0x28,0x00,
0x01,0x23,0x60,0x00,0x28,0x60,0x77,0x23,0x00,0x00,0x28,0x00,0x01,0x23,0x60,0x00,
0x28,0x60,0x77,0x23,0x00,0x00,0x28,0x00,0x01,0x23,0x60,0x00,0x28,0x60,0x77,0x23,
0x00,0x00,0x28,0x00,0x01,0x23,0x60,0x00,0x28,0x60,0x77,0x23,0x00,0x00,0x28,0x00,
0x01,0x23,0x60,0x00,0x28,0x60,0x77,0x23,0x00,0x00,0x28,0x00,0x01,0x23,0x60,0x00,
0x28,0x60,0x77,0x23,0x00,0x00,0x28,0x00,0x01,0x23,0x60,0x00,0x28,0x60,0x77,0x23,
0x00,0x00,0x28,0x00,0x01,0x23,0x60,0x00,0x28,0x60,0x77,0x23,0x00,0x00,0x28,0x00,
0x01,0x23,0x60,0x00,0x28,0x60,0x77,0x23,0x00,0x00,0x28,0x00,0x01,0x23,0x60,0x00,
0x28,0x60,0x77,0x23,0x00,0x00,0x28,0x00,0x01,0x23,0x60,0x00,0x28,0x60,0x77,0x23,
0x00,0x00,0x28,0x00,0x01,0x23,0x60,0x00,0x28,0x60,0x77,0x23,0x00,0x00,0x28,0x00,
0x01,0x23,0x60,0x00,0x28,0x60,0x77,0x23,0x00,0x00,0x28,0x00,0x01,0x23,0x60,0x00,
0x28,0x60,0x77,0x23,0x00,0x00,0x28,0x00,0x01,0x23,0x60,0x00,0x28,0x60,0x77,0x23,
0x00,0x00,0x28,0x00,0x01,0x23,0x60,0x00,0x28,0x60,0x77,0x23,0x00,0x00,0x28,0x00,
0x01,0x23,0x60,0x00,0x28,0x60,0x77,0x23,0x00,0x00,0x28,0x00,0x01,0x23,0x60,0x00,
0x28,0x60,0x77,0x23,0x00,0x00,0x28,0x00,0x01,0x23,0x60,0x00,0x28,0x60,0x77,0x23,
0x00,0x00,0x28,0x00,0x01,0x23,0x60,0x00,0x28,0x60,0x77,0x23,0x00,0x00,0x28,0x00,
0x01,0x23,0x60,0x00,0x28,0x60,0x77,0x23,0x00,0x00,0x28,0x00,0x01,0x23,0x60,0x00,
0x28,0x60,0x77,0x23,0x00,0x00,0x28,0x00,0x01,0x23,0x60,0x00,0x28,0x60,0x77,0x23,
0x00,0x00,0x28,0x00,0x01,0x23,0x60,0x00,0x28,0x60,0x77,0x23,0x00,0x00,0x28,0x00,
0x01,0x23,0x60,0x00,0x28,0x60,0x77,0x23,0x00,0x00,0x28,0x00,0x01,0x23,0x60,0x00,
0x28,0x60,0x77,0x23,0x00,0x00,0x28,0x00,0x01,0x23,0x60,0x00,0x28,0x60,0x77,0x23,
0x00,0x00,0x28,0x00,0x01,0x23,0x60,0x00,0x28,0x60,0x77,0x23,0x00,0x00,0x28,0x00,
0x01,0x23,0x60,0x00,0x28,0x60,0x77,0x23,0x00,0x00,0x28,0x00,0x01,0x23,0x60,0x00,
0x28,0x60,0x77,0x23,0x00,0x00,0x28,0x00,0x01,0x23,0x60,0x00,0x28,0x60,0x77,0x23,
0x00,0x00,0x28,0x00,0x01,0x23,0x60,0x00,0x28,0x60,0x77,0x23,0x00,0x00,0x28,0x00,
0x01,0x23,0x60,0x00,0x28,0x60,0x77,0x23,0x00,0x00,0x28,0x00,0x01,0x23,0x60,0x00,
0x28,0x60,0x77,0x23,0x00,0x00,0x28,0x00,0x01,0x23,0x60,0x00,0x28,0x60,0x77,0x23,
0x00,0x00,0x28,0x00,0x01,0x23,0x60,0x00,0x28,0x60,0x77,0x23,0x00,0x00,0x28,0x00,
0x01,0x23,0x60,0x00,0x28,0x60,0x77,0x23,0x00,0x00,0x28,0x00,0x01,0x23,0x60,0x00,
0x28,0x60,0x77,0x23,0x00,0x00,0x28,0x00,0x01,0x23,0x60,0x00,0x28,0x60,0x77,0x23,
0x00,0x00,0x28,0x00,0x01,0x23,0x60,0x00,0x28,0x60,0x77,0x23,0x00,0x00,0x28,0x00,
0x01,0x23,0x60,0x00,0x28,0x60,0x77,0x23,0x00,0x00,0x28,0x00,0x01,0x23,0x60,0x00,
0x28,0x60,0x77,0x23,0x00,0x00,0x28,0x00,0x01,0x23,0x60,0x00,0x28,0x60,0x77,0x23,
0x00,0x00,0x28,0x00,0x01,0x23,0x60,0x00,0x28,0x60,0x77,0x23,0x00,0x00,0x28,0x00,
0x01,0x23,0x60,0x00,0x28,0x60,0x77,0x23,0x00,0x00,0x28,0x00,0x01,0x23,0x60,0x00,
0x28,0x60,0x77,0x23,0x00,0x00,0x28,0x00,0x01,0x23,0x60,0x00,0x28,0x60,0x77,0x23,
0x00,0x00,0x28,0x00,0x01,0x23,0x60,0x00,0x28,0x60,0x77,0x23,0x00,0x00,0x28,0x00,
0x01,0x23,0x60,0x00,0x28,0x60,0x77,0x23,0x00,0x00,0x28,0x00,0x01,0x23,0x60,0x00,
0x28,0x60,0x77,0x23,0x00,0x00,0x28,0x00,0x01,0x23,0x60,0x00,0x28,0x60,0x77,0x23,
0x00,0x00,0x28,0x00,0x01,0x23,0x60,0x00,0x28,0x60,0x77,0x23,0x00,0x00,0x28,0x00,
0x01,0x23,0x60,0x00,0x28,0x60,0x77,0x23,0x00,0x00,0x28,0x00,0x01,0x23,0x60,0x00,
0x28,0x60,0x77,0x23,0x00,0x00,0x28,0x00,0x01,0x23,0x60,0x00,0x28,0x60,0x77,0x23,
0x00,0x00,0x28,0x00,0x01,0x23,0x60,0x00,0x28,0x60,0x77,0x23,0x00,0x00,0x28,0x00,
0x01,0x23,0x60,0x00,0x28,0x60,0x77,0x23,0x00,0x00,0x28,0x00,0x01,0x23,0x60,0x00,
0x28,0x60,0x77,0x23,0x00,0x00,0x28,0x00,0x01,0x23,0x60,0x00,0x28,0x60,0x77,0x23,
0x00,0x00,0x28,0x00,0x01,0x23,0x60,0x00,0x28,0x60,0x77,0x23,0x00,0x00,0x28,0x00,
0x01,0x23,0x60,0x00,0x28,0x60,0x77,0x23,0x00,0x00,0x28,0x00,0x01,0x23,0x60,0x00,
0x28,0x60,0x77,0x23,0x00,0x00,0x28,0x00,0x01,0x23,0x60,0x00,0x28,0x60,0x77,0x23,
0x00,0x00,0x28,0x00,0x01,0x23,0x60,0x00,0x28,0x60,0x77,0x23,0x00,0x00,0x28,0x00,
0x01,0x23,0x60,0x00,0x28,0x60,0x77,0x23,0x00,0x00,0x28,0x00,0x01,0x23,0x60,0x00,
0x28,0x60,0x77,0x23,0x00,0x00,0x28,0x00,0x01,0x23,0x60,0x00,0x28,0x60,0x77,0x23,
0x00,0x00,0x28,0x00,0x01,0x23,0x60,0x00,0x28,0x60,0x77,0x23,0x00,0x00,0x28,0x00,
0x01,0x23,0x60,0x00,0x28,0x60,0x77,0x23,0x00,0x00,0x28,0x00,0x01,0x23,0x60,0x00,
0x28,0x60,0x77,0x23,0x00,0x00,0x28,0x00,0x01,0x23,0x60,0x00,0x28,0x60,0x77,0x23,
0x00,0x00,0x28,0x00,0x01,0x23,0x60,0x00,0x28,0x60,0x77,0x23,0x00,0x00,0x28,0x00,
0x01,0x23,0x60,0x00,0x28,0x60,0x77,0x23,0x00,0x00,0x28,0x00,0x01,0x23,0x60,0x00,
0x28,0x60,0x77,0x23,0x00,0x00,0x28,0x00,0x01,0x23,0x60,0x00,0x28,0x60,0x77,0x23,
0x00,0x00,0x28,0x00,0x01,0x23,0x60,0x00,0x28,0x60,0x77,0x23,0x00,0x00,0x28,0x00,
0x01,0x23,0x60,0x00,0x28,0x60,0x77,0x23,0x00,0x00,0x28,0x00,0x01,0x23,0x60,0x00,
0x28,0x60,0x77,0x23,0x00,0x00,0x28,0x00,0x01,0x23,0x60,0x00,0x28,0x60,0x77,0x23,
0x00,0x00,0x28,0x00,0x01,0x23,0x60,0x00,0x28,0x60,0x77,0x23,0x00,0x00,0x28,0x00,
0x01,0x23,0x60,0x00,0x28,0x60,0x77,0x23,0x00,0x00,0x28,0x00,0x01,0x23,0x60,0x00,
0x28,0x60,0x77,0x23,0x00,0x00,0x28,0x00,0x01,0x23,0x60,0x00,0x28,0x60,0x77,0x23,
0x00,0x00,0x28,0x00,0x01,0x23,0x60,0x00,0x28,0x60,0x77,0x23,0x00,0x00,0x28,0x00,
0x01,0x23,0x60,0x00,0x28,0x60,0x77,0x23,0x00,0x00,0x28,0x00,0x01,0x23,0x60,0x00,
0x28,0x60,0x77,0x23,0x00,0x00,0x28,0x00,0x01,0x23,0x60,0x00,0x28,0x60,0x77,0x23,
0x00,0x00,0x28,0x00,0x01,0x23,0x60,0x00,0x28,0x60,0x77,0x23,0x00,0x00,0x28,0x00,
0x01,0x23,0x60,0x00,0x28,0x60,0x77,0x23,0x00,0x00,0x28,0x00,0x01,0x23,0x60,0x00,
0x28,0x60,0x77,0x23,0x00,0x00,0x28,0x00,0x01,0x23,0x60,0x00,0x28,0x60,0x77,0x23,
0x00,0x00,0x28,0x00,0x01,0x23,0x60,0x00,0x28,0x60,0x77,0x23,0x00,0x00,0x28,0x00,
0x01,0xff,0x2f,0x00,0x4d,0x54,0x72,0x6b,0x00,0x00,0x00,0xc2,0x00,0xff,0x59,0x02,
0x00,0x00,0x00,0xbd,0x79,0x00,0x00,0xcd,0x22,0x00,0xbd,0x07,0x7e,0x00,0x0a,0x40,
0x00,0x5b,0x00,0x00,0x5d,0x00,0x00,0xff,0x21,0x01,0x00,0x82,0xe8,0x00,0x9d,0x28,
0x70,0x96,0x3f,0x28,0x00,0xad,0x01,0x28,0x7e,0x96,0x3f,0x28,0x00,0x96,0x41,0x28,
0x7e,0x96,0x3f,0x28,0x00,0x01,0x29,0x46,0x8e,0x7f,0x29,0x00,0x01,0x2b,0x46,0x8e,
0x7f,0x2b,0x00,0x01,0x2d,0x46,0x8e,0x7f,0x2d,0x00,0x01,0x2b,0x46,0x8e,0x7f,0x2b,
0x00,0x01,0x29,0x46,0x8e,0x7f,0x29,0x00,0x01,0x2b,0x46,0x8e,0x7f,0x2b,0x00,0x01,
0x2d,0x46,0x8e,0x7f,0x2d,0x00,0x01,0x29,0x46,0x8e,0x7f,0x29,0x00,0x01,0x2b,0x46,
0x8e,0x7f,0x2b,0x00,0x01,0x2d,0x46,0x8e,0x7f,0x2d,0x00,0x01,0x2b,0x46,0x8e,0x7f,
0x2b,0x00,0x01,0x29,0x46,0x8e,0x7f,0x29,0x00,0x01,0x2b,0x46,0x8e,0x7f,0x2b,0x00,
0x01,0x2d,0x46,0x8e,0x7f,0x2d,0x00,0x01,0x2b,0x3c,0x8e,0x7f,0x2b,0x00,0x01,0x29,
0x3c,0x8e,0x7f,0x29,0x00,0x01,0x2b,0x31,0x8e,0x7f,0x2b,0x00,0x01,0x2d,0x23,0x8e,
0x7f,0x2d,0x00,0x01,0x2b,0x14,0x8e,0x7f,0x2b,0x00,0x01,0xff,0x2f,0x00,0x4d,0x54,
0x72,0x6b,0x00,0x00,0x0f,0x26,0x00,0xff,0x59,0x02,0x00,0x00,0x00,0xbe,0x79,0x00,
0x00,0xce,0x06,0x00,0xbe,0x07,0x64,0x00,0x0a,0x40,0x00,0x5b,0x00,0x00,0x5d,0x00,
0x00,0xff,0x21,0x01,0x00,0x83,0xef,0x00,0x9e,0x69,0x55,0x3b,0x69,0x00,0x01,0x65,
0x55,0x3b,0x65,0x00,0x01,0x64,0x55,0x3b,0x64,0x00,0x01,0x65,0x55,0x3b,0x65,0x00,
0x01,0x69,0x55,0x3b,0x69,0x00,0x01,0x65,0x55,0x3b,0x65,0x00,0x01,0x64,0x55,0x3b,
0x64,0x00,0x01,0x65,0x55,0x3b,0x65,0x00,0x01,0x69,0x55,0x3b,0x69,0x00,0x01,0x65,
0x55,0x3b,0x65,0x00,0x01,0x64,0x55,0x3b,0x64,0x00,0x01,0x65,0x55,0x3b,0x65,0x00,
0x01,0x69,0x55,0x3b,0x69,0x00,0x01,0x65,0x55,0x3b,0x65,0x00,0x01,0x64,0x55,0x3b,
0x64,0x00,0x01,0x65,0x55,0x3b,0x65,0x00,0x01,0x69,0x55,0x3b,0x69,0x00,0x01,0x65,
0x55,0x3b,0x65,0x00,0x01,0x64,0x55,0x3b,0x64,0x00,0x01,0x65,0x55,0x3b,0x65,0x00,
0x01,0x69,0x56,0x3b,0x69,0x00,0x01,0x65,0x56,0x3b,0x65,0x00,0x01,0x64,0x56,0x3b,
0x64,0x00,0x01,0x65,0x56,0x3b,0x65,0x00,0x01,0x69,0x56,0x3b,0x69,0x00,0x01,0x65,
0x56,0x3b,0x65,0x00,0x01,0x64,0x56,0x3b,0x64,0x00,0x01,0x65,0x56,0x3b,0x65,0x00,
0x01,0x69,0x56,0x3b,0x69,0x00,0x01,0x65,0x56,0x3b,0x65,0x00,0x01,0x64,0x56,0x3b,
0x64,0x00,0x01,0x65,0x56,0x3b,0x65,0x00,0x01,0x6b,0x56,0x3b,0x6b,0x00,0x01,0x67,
0x56,0x3b,0x67,0x00,0x01,0x64,0x56,0x3b,0x64,0x00,0x01,0x67,0x56,0x3b,0x67,0x00,
0x01,0x6b,0x56,0x3b,0x6b,0x00,0x01,0x67,0x56,0x3b,0x67,0x00,0x01,0x64,0x56,0x3b,
0x64,0x00,0x01,0x67,0x57,0x3b,0x67,0x00,0x01,0x6b,0x57,0x3b,0x6b,0x00,0x01,0x67,
0x57,0x3b,0x67,0x00,0x01,0x64,0x57,0x3b,0x64,0x00,0x01,0x67,0x57,0x3b,0x67,0x00,
0x01,0x6b,0x57,0x3b,0x6b,0x00,0x01,0x67,0x57,0x3b,0x67,0x00,0x01,0x64,0x57,0x3b,
0x64,0x00,0x01,0x67,0x57,0x3b,0x67,0x00,0x01,0x6b,0x57,0x3b,0x6b,0x00,0x01,0x67,
0x57,0x3b,0x67,0x00,0x01,0x64,0x57,0x3b,0x64,0x00,0x01,0x67,0x57,0x3b,0x67,0x00,
0x01,0x6b,0x57,0x3b,0x6b,0x00,0x01,0x67,0x57,0x3b,0x67,0x00,0x01,0x64,0x57,0x3b,
0x64,0x00,0x01,0x67,0x57,0x3b,0x67,0x00,0x01,0x6b,0x57,0x3b,0x6b,0x00,0x01,0x67,
0x57,0x3b,0x67,0x00,0x01,0x64,0x58,0x3b,0x64,0x00,0x01,0x67,0x58,0x3b,0x67,0x00,
0x01,0x6b,0x58,0x3b,0x6b,0x00,0x01,0x67,0x58,0x3b,0x67,0x00,0x01,0x64,0x58,0x3b,
0x64,0x00,0x01,0x67,0x58,0x3b,0x67,0x00,0x01,0x6c,0x58,0x3b,0x6c,0x00,0x01,0x69,
0x58,0x3b,0x69,0x00,0x01,0x64,0x58,0x3b,0x64,0x00,0x01,0x69,0x58,0x3b,0x69,0x00,
0x01,0x6c,0x58,0x3b,0x6c,0x00,0x01,0x69,0x58,0x3b,0x69,0x00,0x01,0x64,0x58,0x3b,
0x64,0x00,0x01,0x69,0x58,0x3b,0x69,0x00,0x01,0x6c,0x58,0x3b,0x6c,0x00,0x01,0x69,
0x58,0x3b,0x69,0x00,0x01,0x64,0x58,0x3b,0x64,0x00,0x01,0x69,0x58,0x3b,0x69,0x00,
0x01,0x6c,0x58,0x3b,0x6c,0x00,0x01,0x69,0x59,0x3b,0x69,0x00,0x01,0x64,0x59,0x3b,
0x64,0x00,0x01,0x69,0x59,0x3b,0x69,0x00,0x01,0x6c,0x59,0x3b,0x6c,0x00,0x01,0x69,
0x59,0x3b,0x69,0x00,0x01,0x64,0x59,0x3b,0x64,0x00,0x01,0x69,0x59,0x3b,0x69,0x00,
0x01,0x6c,0x59,0x3b,0x6c,0x00,0x01,0x69,0x59,0x3b,0x69,0x00,0x01,0x64,0x59,0x3b,
0x64,0x00,0x01,0x69,0x59,0x3b,0x69,0x00,0x01,0x6c,0x59,0x3b,0x6c,0x00,0x01,0x69,
0x59,0x3b,0x69,0x00,0x01,0x64,0x59,0x3b,0x64,0x00,0x01,0x69,0x59,0x3b,0x69,0x00,
0x01,0x6c,0x59,0x3b,0x6c,0x00,0x01,0x69,0x59,0x3b,0x69,0x00,0x01,0x64,0x59,0x3b,
0x64,0x00,0x01,0x69,0x59,0x3b,0x69,0x00,0x01,0x6e,0x5a,0x3b,0x6e,0x00,0x01,0x6b,
0x5a,0x3b,0x6b,0x00,0x01,0x67,0x5a,0x3b,0x67,0x00,0x01,0x6b,0x5a,0x3b,0x6b,0x00,
0x01,0x6e,0x5a,0x3b,0x6e,0x00,0x01,0x6b,0x5a,0x3b,0x6b,0x00,0x01,0x67,0x5a,0x3b,
0x67,0x00,0x01,0x6b,0x5a,0x3b,0x6b,0x00,0x01,0x6e,0x5a,0x3b,0x6e,0x00,0x01,0x6b,
0x5a,0x3b,0x6b,0x00,0x01,0x67,0x5a,0x3b,0x67,0x00,0x01,0x6b,0x5a,0x3b,0x6b,0x00,
0x01,0x6e,0x5a,0x3b,0x6e,0x00,0x01,0x6b,0x5b,0x3b,0x6b,0x00,0x01,0x67,0x5b,0x3b,
0x67,0x00,0x01,0x6b,0x5b,0x3b,0x6b,0x00,0x01,0x6e,0x5b,0x3b,0x6e,0x00,0x01,0x6b,
0x5b,0x3b,0x6b,0x00,0x01,0x67,0x5b,0x3b,0x67,0x00,0x01,0x6b,0x5b,0x3b,0x6b,0x00,
0x01,0x6e,0x5b,0x3b,0x6e,0x00,0x01,0x6b,0x5b,0x3b,0x6b,0x00,0x01,0x67,0x5b,0x3b,
0x67,0x00,0x01,0x6b,0x5b,0x3b,0x6b,0x00,0x01,0x6e,0x5b,0x3b,0x6e,0x00,0x01,0x6b,
0x5b,0x3b,0x6b,0x00,0x01,0x67,0x5c,0x3b,0x67,0x00,0x01,0x6b,0x5c,0x3b,0x6b,0x00,
0x01,0x6e,0x5c,0x3b,0x6e,0x00,0x01,0x6b,0x5c,0x3b,0x6b,0x00,0x01,0x67,0x5c,0x3b,
0x67,0x00,0x01,0x6b,0x5c,0x3b,0x6b,0x00,0x01,0x69,0x5c,0x3b,0x69,0x00,0x01,0x65,
0x5c,0x3b,0x65,0x00,0x01,0x64,0x5c,0x3b,0x64,0x00,0x01,0x65,0x5c,0x3b,0x65,0x00,
0x01,0x69,0x5c,0x3b,0x69,0x00,0x01,0x65,0x5c,0x3b,0x65,0x00,0x01,0x64,0x5c,0x3b,
0x64,0x00,0x01,0x65,0x5d,0x3b,0x65,0x00,0x01,0x69,0x5d,0x3b,0x69,0x00,0x01,0x65,
0x5d,0x3b,0x65,0x00,0x01,0x64,0x5d,0x3b,0x64,0x00,0x01,0x65,0x5d,0x3b,0x65,0x00,
0x01,0x69,0x5d,0x3b,0x69,0x00,0x01,0x65,0x5d,0x3b,0x65,0x00,0x01,0x64,0x5d,0x3b,
0x64,0x00,0x01,0x65,0x5d,0x3b,0x65,0x00,0x01,0x69,0x5d,0x3b,0x69,0x00,0x01,0x65,
0x5d,0x3b,0x65,0x00,0x01,0x64,0x5d,0x3b,0x64,0x00,0x01,0x65,0x5d,0x3b,0x65,0x00,
0x01,0x69,0x5e,0x3b,0x69,0x00,0x01,0x65,0x5e,0x3b,0x65,0x00,0x01,0x64,0x5e,0x3b,
0x64,0x00,0x01,0x65,0x5e,0x3b,0x65,0x00,0x01,0x69,0x5e,0x3b,0x69,0x00,0x01,0x65,
0x5e,0x3b,0x65,0x00,0x01,0x64,0x5e,0x3b,0x64,0x00,0x01,0x65,0x5e,0x3b,0x65,0x00,
0x01,0x69,0x5e,0x3b,0x69,0x00,0x01,0x65,0x5e,0x3b,0x65,0x00,0x01,0x64,0x5e,0x3b,
0x64,0x00,0x01,0x65,0x5e,0x3b,0x65,0x00,0x01,0x6b,0x5f,0x3b,0x6b,0x00,0x01,0x67,
0x5f,0x3b,0x67,0x00,0x01,0x64,0x5f,0x3b,0x64,0x00,0x01,0x67,0x5f,0x3b,0x67,0x00,
0x01,0x6b,0x5f,0x3b,0x6b,0x00,0x01,0x67,0x5f,0x3b,0x67,0x00,0x01,0x64,0x5f,0x3b,
0x64,0x00,0x01,0x67,0x5f,0x3b,0x67,0x00,0x01,0x6b,0x5f,0x3b,0x6b,0x00,0x01,0x67,
0x5f,0x3b,0x67,0x00,0x01,0x64,0x5f,0x3b,0x64,0x00,0x01,0x67,0x5f,0x3b,0x67,0x00,
0x01,0x6b,0x5f,0x3b,0x6b,0x00,0x01,0x67,0x5f,0x3b,0x67,0x00,0x01,0x64,0x5f,0x3b,
0x64,0x00,0x01,0x67,0x5f,0x3b,0x67,0x00,0x01,0x6b,0x5f,0x3b,0x6b,0x00,0x01,0x67,
0x5f,0x3b,0x67,0x00,0x01,0x64,0x5f,0x3b,0x64,0x00,0x01,0x67,0x5f,0x3b,0x67,0x00,
0x01,0x6b,0x5f,0x3b,0x6b,0x00,0x01,0x67,0x5f,0x3b,0x67,0x00,0x01,0x64,0x5f,0x3b,
0x64,0x00,0x01,0x67,0x5f,0x3b,0x67,0x00,0x01,0x6b,0x5f,0x3b,0x6b,0x00,0x01,0x67,
0x5f,0x3b,0x67,0x00,0x01,0x64,0x5f,0x3b,0x64,0x00,0x01,0x67,0x5f,0x3b,0x67,0x00,
0x01,0x6b,0x5f,0x3b,0x6b,0x00,0x01,0x67,0x5f,0x3b,0x67,0x00,0x01,0x64,0x5f,0x3b,
0x64,0x00,0x01,0x67,0x5f,0x3b,0x67,0x00,0x01,0x6c,0x5f,0x3b,0x6c,0x00,0x01,0x69,
0x5f,0x3b,0x69,0x00,0x01,0x64,0x5f,0x3b,0x64,0x00,0x01,0x69,0x5f,0x3b,0x69,0x00,
0x01,0x6c,0x5f,0x3b,0x6c,0x00,0x01,0x69,0x5f,0x3b,0x69,0x00,0x01,0x64,0x5f,0x3b,
0x64,0x00,0x01,0x69,0x5f,0x3b,0x69,0x00,0x01,0x6c,0x5f,0x3b,0x6c,0x00,0x01,0x69,
0x5f,0x3b,0x69,0x00,0x01,0x64,0x5f,0x3b,0x64,0x00,0x01,0x69,0x5f,0x3b,0x69,0x00,
0x01,0x6c,0x5f,0x3b,0x6c,0x00,0x01,0x69,0x5f,0x3b,0x69,0x00,0x01,0x64,0x5f,0x3b,
0x64,0x00,0x01,0x69,0x5f,0x3b,0x69,0x00,0x01,0x6c,0x5f,0x3b,0x6c,0x00,0x01,0x69,
0x5f,0x3b,0x69,0x00,0x01,0x64,0x5f,0x3b,0x64,0x00,0x01,0x69,0x5f,0x3b,0x69,0x00,
0x01,0x6c,0x5f,0x3b,0x6c,0x00,0x01,0x69,0x5f,0x3b,0x69,0x00,0x01,0x64,0x5f,0x3b,
0x64,0x00,0x01,0x69,0x5f,0x3b,0x69,0x00,0x01,0x6c,0x5f,0x3b,0x6c,0x00,0x01,0x69,
0x5f,0x3b,0x69,0x00,0x01,0x64,0x5f,0x3b,0x64,0x00,0x01,0x69,0x5f,0x3b,0x69,0x00,
0x01,0x6c,0x5f,0x3b,0x6c,0x00,0x01,0x69,0x5f,0x3b,0x69,0x00,0x01,0x64,0x5f,0x3b,
0x64,0x00,0x01,0x69,0x5f,0x3b,0x69,0x00,0x01,0x69,0x69,0x3b,0x69,0x00,0x01,0x65,
0x69,0x3b,0x65,0x00,0x01,0x64,0x69,0x3b,0x64,0x00,0x01,0x65,0x69,0x3b,0x65,0x00,
0x01,0x69,0x69,0x3b,0x69,0x00,0x01,0x65,0x69,0x3b,0x65,0x00,0x01,0x64,0x69,0x3b,
0x64,0x00,0x01,0x65,0x69,0x3b,0x65,0x00,0x01,0x69,0x69,0x3b,0x69,0x00,0x01,0x65,
0x69,0x3b,0x65,0x00,0x01,0x64,0x69,0x3b,0x64,0x00,0x01,0x65,0x69,0x3b,0x65,0x00,
0x01,0x69,0x69,0x3b,0x69,0x00,0x01,0x65,0x69,0x3b,0x65,0x00,0x01,0x64,0x69,0x3b,
0x64,0x00,0x01,0x65,0x69,0x3b,0x65,0x00,0x01,0x69,0x69,0x3b,0x69,0x00,0x01,0x65,
0x69,0x3b,0x65,0x00,0x01,0x64,0x69,0x3b,0x64,0x00,0x01,0x65,0x69,0x3b,0x65,0x00,
0x01,0x69,0x69,0x3b,0x69,0x00,0x01,0x65,0x69,0x3b,0x65,0x00,0x01,0x64,0x69,0x3b,
0x64,0x00,0x01,0x65,0x69,0x3b,0x65,0x00,0x01,0x69,0x69,0x3b,0x69,0x00,0x01,0x65,
0x69,0x3b,0x65,0x00,0x01,0x64,0x69,0x3b,0x64,0x00,0x01,0x65,0x69,0x3b,0x65,0x00,
0x01,0x69,0x69,0x3b,0x69,0x00,0x01,0x65,0x69,0x3b,0x65,0x00,0x01,0x64,0x69,0x3b,
0x64,0x00,0x01,0x65,0x69,0x3b,0x65,0x00,0x01,0x6b,0x69,0x3b,0x6b,0x00,0x01,0x67,
0x69,0x3b,0x67,0x00,0x01,0x64,0x69,0x3b,0x64,0x00,0x01,0x67,0x69,0x3b,0x67,0x00,
0x01,0x6b,0x69,0x3b,0x6b,0x00,0x01,0x67,0x69,0x3b,0x67,0x00,0x01,0x64,0x69,0x3b,
0x64,0x00,0x01,0x67,0x69,0x3b,0x67,0x00,0x01,0x6b,0x69,0x3b,0x6b,0x00,0x01,0x67,
0x69,0x3b,0x67,0x00,0x01,0x64,0x69,0x3b,0x64,0x00,0x01,0x67,0x69,0x3b,0x67,0x00,
0x01,0x6b,0x69,0x3b,0x6b,0x00,0x01,0x67,0x69,0x3b,0x67,0x00,0x01,0x64,0x69,0x3b,
0x64,0x00,0x01,0x67,0x69,0x3b,0x67,0x00,0x01,0x6b,0x69,0x3b,0x6b,0x00,0x01,0x67,
0x69,0x3b,0x67,0x00,0x01,0x64,0x69,0x3b,0x64,0x00,0x01,0x67,0x69,0x3b,0x67,0x00,
0x01,0x6b,0x69,0x3b,0x6b,0x00,0x01,0x67,0x69,0x3b,0x67,0x00,0x01,0x64,0x69,0x3b,
0x64,0x00,0x01,0x67,0x69,0x3b,0x67,0x00,0x01,0x6b,0x69,0x3b,0x6b,0x00,0x01,0x67,
0x69,0x3b,0x67,0x00,0x01,0x64,0x69,0x3b,0x64,0x00,0x01,0x67,0x69,0x3b,0x67,0x00,
0x01,0x6b,0x69,0x3b,0x6b,0x00,0x01,0x67,0x69,0x3b,0x67,0x00,0x01,0x64,0x69,0x3b,
0x64,0x00,0x01,0x67,0x69,0x3b,0x67,0x00,0x01,0x6c,0x69,0x3b,0x6c,0x00,0x01,0x69,
0x69,0x3b,0x69,0x00,0x01,0x64,0x69,0x3b,0x64,0x00,0x01,0x69,0x69,0x3b,0x69,0x00,
0x01,0x6c,0x69,0x3b,0x6c,0x00,0x01,0x69,0x69,0x3b,0x69,0x00,0x01,0x64,0x69,0x3b,
0x64,0x00,0x01,0x69,0x69,0x3b,0x69,0x00,0x01,0x6c,0x69,0x3b,0x6c,0x00,0x01,0x69,
0x69,0x3b,0x69,0x00,0x01,0x64,0x69,0x3b,0x64,0x00,0x01,0x69,0x69,0x3b,0x69,0x00,
0x01,0x6c,0x69,0x3b,0x6c,0x00,0x01,0x69,0x69,0x3b,0x69,0x00,0x01,0x64,0x69,0x3b,
0x64,0x00,0x01,0x69,0x69,0x3b,0x69,0x00,0x01,0x6c,0x69,0x3b,0x6c,0x00,0x01,0x69,
0x69,0x3b,0x69,0x00,0x01,0x64,0x69,0x3b,0x64,0x00,0x01,0x69,0x69,0x3b,0x69,0x00,
0x01,0x6c,0x69,0x3b,0x6c,0x00,0x01,0x69,0x69,0x3b,0x69,0x00,0x01,0x64,0x69,0x3b,
0x64,0x00,0x01,0x69,0x69,0x3b,0x69,0x00,0x01,0x6c,0x69,0x3b,0x6c,0x00,0x01,0x69,
0x69,0x3b,0x69,0x00,0x01,0x64,0x69,0x3b,0x64,0x00,0x01,0x69,0x69,0x3b,0x69,0x00,
0x01,0x6c,0x69,0x3b,0x6c,0x00,0x01,0x69,0x69,0x3b,0x69,0x00,0x01,0x64,0x69,0x3b,
0x64,0x00,0x01,0x69,0x69,0x3b,0x69,0x00,0x01,0x6e,0x69,0x3b,0x6e,0x00,0x01,0x6b,
0x69,0x3b,0x6b,0x00,0x01,0x67,0x69,0x3b,0x67,0x00,0x01,0x6b,0x69,0x3b,0x6b,0x00,
0x01,0x6e,0x69,0x3b,0x6e,0x00,0x01,0x6b,0x69,0x3b,0x6b,0x00,0x01,0x67,0x69,0x3b,
0x67,0x00,0x01,0x6b,0x69,0x3b,0x6b,0x00,0x01,0x6e,0x69,0x3b,0x6e,0x00,0x01,0x6b,
0x69,0x3b,0x6b,0x00,0x01,0x67,0x69,0x3b,0x67,0x00,0x01,0x6b,0x69,0x3b,0x6b,0x00,
0x01,0x6e,0x69,0x3b,0x6e,0x00,0x01,0x6b,0x69,0x3b,0x6b,0x00,0x01,0x67,0x69,0x3b,
0x67,0x00,0x01,0x6b,0x69,0x3b,0x6b,0x00,0x01,0x6e,0x69,0x3b,0x6e,0x00,0x01,0x6b,
0x69,0x3b,0x6b,0x00,0x01,0x67,0x69,0x3b,0x67,0x00,0x01,0x6b,0x69,0x3b,0x6b,0x00,
0x01,0x6e,0x69,0x3b,0x6e,0x00,0x01,0x6b,0x69,0x3b,0x6b,0x00,0x01,0x67,0x69,0x3b,
0x67,0x00,0x01,0x6b,0x69,0x3b,0x6b,0x00,0x01,0x6e,0x69,0x3b,0x6e,0x00,0x01,0x6b,
0x69,0x3b,0x6b,0x00,0x01,0x67,0x69,0x3b,0x67,0x00,0x01,0x6b,0x69,0x3b,0x6b,0x00,
0x01,0x6e,0x69,0x3b,0x6e,0x00,0x01,0x6b,0x69,0x3b,0x6b,0x00,0x01,0x67,0x69,0x3b,
0x67,0x00,0x01,0x6b,0x69,0x3b,0x6b,0x00,0x01,0x69,0x73,0x3b,0x69,0x00,0x01,0x65,
0x73,0x3b,0x65,0x00,0x01,0x64,0x73,0x3b,0x64,0x00,0x01,0x65,0x73,0x3b,0x65,0x00,
0x01,0x69,0x73,0x3b,0x69,0x00,0x01,0x65,0x73,0x3b,0x65,0x00,0x01,0x64,0x73,0x3b,
0x64,0x00,0x01,0x65,0x73,0x3b,0x65,0x00,0x01,0x69,0x73,0x3b,0x69,0x00,0x01,0x65,
0x73,0x3b,0x65,0x00,0x01,0x64,0x73,0x3b,0x64,0x00,0x01,0x65,0x73,0x3b,0x65,0x00,
0x01,0x69,0x73,0x3b,0x69,0x00,0x01,0x65,0x73,0x3b,0x65,0x00,0x01,0x64,0x73,0x3b,
0x64,0x00,0x01,0x65,0x73,0x3b,0x65,0x00,0x01,0x69,0x73,0x3b,0x69,0x00,0x01,0x65,
0x73,0x3b,0x65,0x00,0x01,0x64,0x73,0x3b,0x64,0x00,0x01,0x65,0x73,0x3b,0x65,0x00,
0x01,0x69,0x73,0x3b,0x69,0x00,0x01,0x65,0x73,0x3b,0x65,0x00,0x01,0x64,0x73,0x3b,
0x64,0x00,0x01,0x65,0x73,0x3b,0x65,0x00,0x01,0x69,0x73,0x3b,0x69,0x00,0x01,0x65,
0x73,0x3b,0x65,0x00,0x01,0x64,0x73,0x3b,0x64,0x00,0x01,0x65,0x73,0x3b,0x65,0x00,
0x01,0x69,0x73,0x3b,0x69,0x00,0x01,0x65,0x73,0x3b,0x65,0x00,0x01,0x64,0x73,0x3b,
0x64,0x00,0x01,0x65,0x73,0x3b,0x65,0x00,0x01,0x6b,0x73,0x3b,0x6b,0x00,0x01,0x67,
0x73,0x3b,0x67,0x00,0x01,0x64,0x73,0x3b,0x64,0x00,0x01,0x67,0x73,0x3b,0x67,0x00,
0x01,0x6b,0x73,0x3b,0x6b,0x00,0x01,0x67,0x73,0x3b,0x67,0x00,0x01,0x64,0x73,0x3b,
0x64,0x00,0x01,0x67,0x73,0x3b,0x67,0x00,0x01,0x6b,0x73,0x3b,0x6b,0x00,0x01,0x67,
0x73,0x3b,0x67,0x00,0x01,0x64,0x73,0x3b,0x64,0x00,0x01,0x67,0x73,0x3b,0x67,0x00,
0x01,0x6b,0x73,0x3b,0x6b,0x00,0x01,0x67,0x73,0x3b,0x67,0x00,0x01,0x64,0x73,0x3b,
0x64,0x00,0x01,0x67,0x73,0x3b,0x67,0x00,0x01,0x6b,0x73,0x3b,0x6b,0x00,0x01,0x67,
0x73,0x3b,0x67,0x00,0x01,0x64,0x73,0x3b,0x64,0x00,0x01,0x67,0x73,0x3b,0x67,0x00,
0x01,0x6b,0x73,0x3b,0x6b,0x00,0x01,0x67,0x73,0x3b,0x67,0x00,0x01,0x64,0x73,0x3b,
0x64,0x00,0x01,0x67,0x73,0x3b,0x67,0x00,0x01,0x6b,0x73,0x3b,0x6b,0x00,0x01,0x67,
0x73,0x3b,0x67,0x00,0x01,0x64,0x73,0x3b,0x64,0x00,0x01,0x67,0x73,0x3b,0x67,0x00,
0x01,0x6b,0x73,0x3b,0x6b,0x00,0x01,0x67,0x73,0x3b,0x67,0x00,0x01,0x64,0x73,0x3b,
0x64,0x00,0x01,0x67,0x73,0x3b,0x67,0x00,0x01,0x6c,0x73,0x3b,0x6c,0x00,0x01,0x69,
0x73,0x3b,0x69,0x00,0x01,0x64,0x73,0x3b,0x64,0x00,0x01,0x69,0x73,0x3b,0x69,0x00,
0x01,0x6c,0x73,0x3b,0x6c,0x00,0x01,0x69,0x73,0x3b,0x69,0x00,0x01,0x64,0x73,0x3b,
0x64,0x00,0x01,0x69,0x73,0x3b,0x69,0x00,0x01,0x6c,0x73,0x3b,0x6c,0x00,0x01,0x69,
0x73,0x3b,0x69,0x00,0x01,0x64,0x73,0x3b,0x64,0x00,0x01,0x69,0x73,0x3b,0x69,0x00,
0x01,0x6c,0x73,0x3b,0x6c,0x00,0x01,0x69,0x73,0x3b,0x69,0x00,0x01,0x64,0x73,0x3b,
0x64,0x00,0x01,0x69,0x73,0x3b,0x69,0x00,0x01,0x6c,0x73,0x3b,0x6c,0x00,0x01,0x69,
0x73,0x3b,0x69,0x00,0x01,0x64,0x73,0x3b,0x64,0x00,0x01,0x69,0x73,0x3b,0x69,0x00,
0x01,0x6c,0x73,0x3b,0x6c,0x00,0x01,0x69,0x73,0x3b,0x69,0x00,0x01,0x64,0x73,0x3b,
0x64,0x00,0x01,0x69,0x73,0x3b,0x69,0x00,0x01,0x6c,0x73,0x3b,0x6c,0x00,0x01,0x69,
0x73,0x3b,0x69,0x00,0x01,0x64,0x73,0x3b,0x64,0x00,0x01,0x69,0x73,0x3b,0x69,0x00,
0x01,0x6c,0x73,0x3b,0x6c,0x00,0x01,0x69,0x73,0x3b,0x69,0x00,0x01,0x64,0x73,0x3b,
0x64,0x00,0x01,0x69,0x73,0x3b,0x69,0x00,0x01,0x6e,0x73,0x3b,0x6e,0x00,0x01,0x6b,
0x73,0x3b,0x6b,0x00,0x01,0x67,0x73,0x3b,0x67,0x00,0x01,0x6b,0x73,0x3b,0x6b,0x00,
0x01,0x6e,0x73,0x3b,0x6e,0x00,0x01,0x6b,0x73,0x3b,0x6b,0x00,0x01,0x67,0x73,0x3b,
0x67,0x00,0x01,0x6b,0x73,0x3b,0x6b,0x00,0x01,0x6e,0x73,0x3b,0x6e,0x00,0x01,0x6b,
0x73,0x3b,0x6b,0x00,0x01,0x67,0x73,0x3b,0x67,0x00,0x01,0x6b,0x73,0x3b,0x6b,0x00,
0x01,0x6e,0x73,0x3b,0x6e,0x00,0x01,0x6b,0x73,0x3b,0x6b,0x00,0x01,0x67,0x73,0x3b,
0x67,0x00,0x01,0x6b,0x73,0x3b,0x6b,0x00,0x01,0x6e,0x73,0x3b,0x6e,0x00,0x01,0x6b,
0x73,0x3b,0x6b,0x00,0x01,0x67,0x73,0x3b,0x67,0x00,0x01,0x6b,0x73,0x3b,0x6b,0x00,
0x01,0x6e,0x73,0x3b,0x6e,0x00,0x01,0x6b,0x73,0x3b,0x6b,0x00,0x01,0x67,0x73,0x3b,
0x67,0x00,0x01,0x6b,0x73,0x3b,0x6b,0x00,0x01,0x6e,0x73,0x3b,0x6e,0x00,0x01,0x6b,
0x73,0x3b,0x6b,0x00,0x01,0x67,0x73,0x3b,0x67,0x00,0x01,0x6b,0x73,0x3b,0x6b,0x00,
0x01,0x6e,0x73,0x3b,0x6e,0x00,0x01,0x6b,0x73,0x3b,0x6b,0x00,0x01,0x67,0x73,0x3b,
0x67,0x00,0x01,0x6b,0x73,0x3b,0x6b,0x00,0x01,0x69,0x73,0x3b,0x69,0x00,0x01,0x65,
0x73,0x3b,0x65,0x00,0x01,0x64,0x73,0x3b,0x64,0x00,0x01,0x65,0x73,0x3b,0x65,0x00,
0x01,0x69,0x73,0x3b,0x69,0x00,0x01,0x65,0x73,0x3b,0x65,0x00,0x01,0x64,0x73,0x3b,
0x64,0x00,0x01,0x65,0x73,0x3b,0x65,0x00,0x01,0x69,0x73,0x3b,0x69,0x00,0x01,0x65,
0x73,0x3b,0x65,0x00,0x01,0x64,0x73,0x3b,0x64,0x00,0x01,0x65,0x73,0x3b,0x65,0x00,
0x01,0x69,0x73,0x3b,0x69,0x00,0x01,0x65,0x73,0x3b,0x65,0x00,0x01,0x64,0x73,0x3b,
0x64,0x00,0x01,0x65,0x73,0x3b,0x65,0x00,0x01,0x69,0x73,0x3b,0x69,0x00,0x01,0x65,
0x73,0x3b,0x65,0x00,0x01,0x64,0x73,0x3b,0x64,0x00,0x01,0x65,0x73,0x3b,0x65,0x00,
0x01,0x69,0x73,0x3b,0x69,0x00,0x01,0x65,0x73,0x3b,0x65,0x00,0x01,0x64,0x73,0x3b,
0x64,0x00,0x01,0x65,0x73,0x3b,0x65,0x00,0x01,0x69,0x73,0x3b,0x69,0x00,0x01,0x65,
0x73,0x3b,0x65,0x00,0x01,0x64,0x73,0x3b,0x64,0x00,0x01,0x65,0x73,0x3b,0x65,0x00,
0x01,0x69,0x73,0x3b,0x69,0x00,0x01,0x65,0x73,0x3b,0x65,0x00,0x01,0x64,0x73,0x3b,
0x64,0x00,0x01,0x65,0x73,0x3b,0x65,0x00,0x01,0x6b,0x73,0x3b,0x6b,0x00,0x01,0x67,
0x73,0x3b,0x67,0x00,0x01,0x64,0x72,0x3b,0x64,0x00,0x01,0x67,0x71,0x3b,0x67,0x00,
0x01,0x6b,0x70,0x3b,0x6b,0x00,0x01,0x67,0x70,0x3b,0x67,0x00,0x01,0x64,0x6f,0x3b,
0x64,0x00,0x01,0x67,0x6e,0x3b,0x67,0x00,0x01,0x6b,0x6d,0x3b,0x6b,0x00,0x01,0x67,
0x6c,0x3b,0x67,0x00,0x01,0x64,0x6c,0x3b,0x64,0x00,0x01,0x67,0x6b,0x3b,0x67,0x00,
0x01,0x6b,0x6a,0x3b,0x6b,0x00,0x01,0x67,0x69,0x3b,0x67,0x00,0x01,0x64,0x68,0x3b,
0x64,0x00,0x01,0x67,0x68,0x3b,0x67,0x00,0x01,0x6b,0x67,0x3b,0x6b,0x00,0x01,0x67,
0x66,0x3b,0x67,0x00,0x01,0x64,0x65,0x3b,0x64,0x00,0x01,0x67,0x65,0x3b,0x67,0x00,
0x01,0x6b,0x64,0x3b,0x6b,0x00,0x01,0x67,0x63,0x3b,0x67,0x00,0x01,0x64,0x62,0x3b,
0x64,0x00,0x01,0x67,0x61,0x3b,0x67,0x00,0x01,0x6b,0x61,0x3b,0x6b,0x00,0x01,0x67,
0x60,0x3b,0x67,0x00,0x01,0x64,0x5f,0x3b,0x64,0x00,0x01,0x67,0x5e,0x3b,0x67,0x00,
0x01,0x6b,0x5d,0x3b,0x6b,0x00,0x01,0x67,0x5d,0x3b,0x67,0x00,0x01,0x64,0x5c,0x3b,
0x64,0x00,0x01,0x67,0x5b,0x3b,0x67,0x00,0x01,0x6c,0x5a,0x3b,0x6c,0x00,0x01,0x69,
0x5a,0x3b,0x69,0x00,0x01,0x64,0x59,0x3b,0x64,0x00,0x01,0x69,0x58,0x3b,0x69,0x00,
0x01,0x6c,0x57,0x3b,0x6c,0x00,0x01,0x69,0x56,0x3b,0x69,0x00,0x01,0x64,0x56,0x3b,
0x64,0x00,0x01,0x69,0x55,0x3b,0x69,0x00,0x01,0x6c,0x54,0x3b,0x6c,0x00,0x01,0x69,
0x53,0x3b,0x69,0x00,0x01,0x64,0x52,0x3b,0x64,0x00,0x01,0x69,0x52,0x3b,0x69,0x00,
0x01,0x6c,0x51,0x3b,0x6c,0x00,0x01,0x69,0x50,0x3b,0x69,0x00,0x01,0x64,0x4f,0x3b,
0x64,0x00,0x01,0x69,0x4e,0x3b,0x69,0x00,0x01,0x6c,0x4e,0x3b,0x6c,0x00,0x01,0x69,
0x4d,0x3b,0x69,0x00,0x01,0x64,0x4c,0x3b,0x64,0x00,0x01,0x69,0x4b,0x3b,0x69,0x00,
0x01,0x6c,0x4b,0x3b,0x6c,0x00,0x01,0x69,0x4a,0x3b,0x69,0x00,0x01,0x64,0x49,0x3b,
0x64,0x00,0x01,0x69,0x48,0x3b,0x69,0x00,0x01,0x6c,0x47,0x3b,0x6c,0x00,0x01,0x69,
0x47,0x3b,0x69,0x00,0x01,0x64,0x46,0x3b,0x64,0x00,0x01,0x69,0x45,0x3b,0x69,0x00,
0x01,0x6c,0x44,0x3b,0x6c,0x00,0x01,0x69,0x43,0x3b,0x69,0x00,0x01,0x64,0x43,0x3b,
0x64,0x00,0x01,0x69,0x42,0x3b,0x69,0x00,0x01,0x6e,0x41,0x3b,0x6e,0x00,0x01,0x6b,
0x40,0x3b,0x6b,0x00,0x01,0x67,0x40,0x3b,0x67,0x00,0x01,0x6b,0x3f,0x3b,0x6b,0x00,
0x01,0x6e,0x3e,0x3b,0x6e,0x00,0x01,0x6b,0x3d,0x3b,0x6b,0x00,0x01,0x67,0x3c,0x3b,
0x67,0x00,0x01,0x6b,0x3c,0x3b,0x6b,0x00,0x01,0x6e,0x3b,0x3b,0x6e,0x00,0x01,0x6b,
0x3a,0x3b,0x6b,0x00,0x01,0x67,0x39,0x3b,0x67,0x00,0x01,0x6b,0x38,0x3b,0x6b,0x00,
0x01,0x6e,0x38,0x3b,0x6e,0x00,0x01,0x6b,0x37,0x3b,0x6b,0x00,0x01,0x67,0x36,0x3b,
0x67,0x00,0x01,0x6b,0x35,0x3b,0x6b,0x00,0x01,0x6e,0x34,0x3b,0x6e,0x00,0x01,0x6b,
0x34,0x3b,0x6b,0x00,0x01,0x67,0x33,0x3b,0x67,0x00,0x01,0x6b,0x32,0x3b,0x6b,0x00,
0x01,0x6e,0x31,0x3b,0x6e,0x00,0x01,0x6b,0x31,0x3b,0x6b,0x00,0x01,0x67,0x30,0x3b,
0x67,0x00,0x01,0x6b,0x2f,0x3b,0x6b,0x00,0x01,0x6e,0x2e,0x3b,0x6e,0x00,0x01,0x6b,
0x2d,0x3b,0x6b,0x00,0x01,0x67,0x2d,0x3b,0x67,0x00,0x01,0x6b,0x2c,0x3b,0x6b,0x00,
0x01,0x6e,0x2b,0x3b,0x6e,0x00,0x01,0x6b,0x2a,0x3b,0x6b,0x00,0x01,0x67,0x29,0x3b,
0x67,0x00,0x01,0x6b,0x29,0x3b,0x6b,0x00,0x01,0x69,0x28,0x3b,0x69,0x00,0x01,0x65,
0x27,0x3b,0x65,0x00,0x01,0x64,0x26,0x3b,0x64,0x00,0x01,0x65,0x26,0x3b,0x65,0x00,
0x01,0x69,0x25,0x3b,0x69,0x00,0x01,0x65,0x24,0x3b,0x65,0x00,0x01,0x64,0x23,0x3b,
0x64,0x00,0x01,0x65,0x22,0x3b,0x65,0x00,0x01,0x69,0x22,0x3b,0x69,0x00,0x01,0x65,
0x21,0x3b,0x65,0x00,0x01,0x64,0x20,0x3b,0x64,0x00,0x01,0x65,0x1f,0x3b,0x65,0x00,
0x01,0x69,0x1e,0x3b,0x69,0x00,0x01,0x65,0x1e,0x3b,0x65,0x00,0x01,0x64,0x1d,0x3b,
0x64,0x00,0x01,0x65,0x1c,0x3b,0x65,0x00,0x01,0x69,0x1b,0x3b,0x69,0x00,0x01,0x65,
0x1b,0x3b,0x65,0x00,0x01,0x64,0x1a,0x3b,0x64,0x00,0x01,0x65,0x19,0x3b,0x65,0x00,
0x01,0x69,0x18,0x3b,0x69,0x00,0x01,0x65,0x17,0x3b,0x65,0x00,0x01,0x64,0x17,0x3b,
0x64,0x00,0x01,0x65,0x16,0x3b,0x65,0x00,0x01,0x69,0x15,0x3b,0x69,0x00,0x01,0x65,
0x14,0x3b,0x65,0x00,0x01,0x64,0x13,0x3b,0x64,0x00,0x01,0x65,0x13,0x3b,0x65,0x00,
0x01,0x69,0x12,0x3b,0x69,0x00,0x01,0x65,0x11,0x3b,0x65,0x00,0x01,0x64,0x10,0x3b,
0x64,0x00,0x01,0x65,0x10,0x3b,0x65,0x00,0x01,0xff,0x2f,0x00,0x4d,0x54,0x72,0x6b,
0x00,0x00,0x0f,0x12,0x00,0xff,0x59,0x02,0x00,0x00,0x00,0xff,0x21,0x01,0x00,0x83,
0xef,0x00,0x9e,0x5d,0x55,0x3b,0x5d,0x00,0x01,0x59,0x55,0x3b,0x59,0x00,0x01,0x58,
0x55,0x3b,0x58,0x00,0x01,0x59,0x55,0x3b,0x59,0x00,0x01,0x5d,0x55,0x3b,0x5d,0x00,
0x01,0x59,0x55,0x3b,0x59,0x00,0x01,0x58,0x55,0x3b,0x58,0x00,0x01,0x59,0x55,0x3b,
0x59,0x00,0x01,0x5d,0x55,0x3b,0x5d,0x00,0x01,0x59,0x55,0x3b,0x59,0x00,0x01,0x58,
0x55,0x3b,0x58,0x00,0x01,0x59,0x55,0x3b,0x59,0x00,0x01,0x5d,0x55,0x3b,0x5d,0x00,
0x01,0x59,0x55,0x3b,0x59,0x00,0x01,0x58,0x55,0x3b,0x58,0x00,0x01,0x59,0x55,0x3b,
0x59,0x00,0x01,0x5d,0x55,0x3b,0x5d,0x00,0x01,0x59,0x55,0x3b,0x59,0x00,0x01,0x58,
0x55,0x3b,0x58,0x00,0x01,0x59,0x55,0x3b,0x59,0x00,0x01,0x5d,0x56,0x3b,0x5d,0x00,
0x01,0x59,0x56,0x3b,0x59,0x00,0x01,0x58,0x56,0x3b,0x58,0x00,0x01,0x59,0x56,0x3b,
0x59,0x00,0x01,0x5d,0x56,0x3b,0x5d,0x00,0x01,0x59,0x56,0x3b,0x59,0x00,0x01,0x58,
0x56,0x3b,0x58,0x00,0x01,0x59,0x56,0x3b,0x59,0x00,0x01,0x5d,0x56,0x3b,0x5d,0x00,
0x01,0x59,0x56,0x3b,0x59,0x00,0x01,0x58,0x56,0x3b,0x58,0x00,0x01,0x59,0x56,0x3b,
0x59,0x00,0x01,0x5f,0x56,0x3b,0x5f,0x00,0x01,0x5b,0x56,0x3b,0x5b,0x00,0x01,0x58,
0x56,0x3b,0x58,0x00,0x01,0x5b,0x56,0x3b,0x5b,0x00,0x01,0x5f,0x56,0x3b,0x5f,0x00,
0x01,0x5b,0x56,0x3b,0x5b,0x00,0x01,0x58,0x56,0x3b,0x58,0x00,0x01,0x5b,0x57,0x3b,
0x5b,0x00,0x01,0x5f,0x57,0x3b,0x5f,0x00,0x01,0x5b,0x57,0x3b,0x5b,0x00,0x01,0x58,
0x57,0x3b,0x58,0x00,0x01,0x5b,0x57,0x3b,0x5b,0x00,0x01,0x5f,0x57,0x3b,0x5f,0x00,
0x01,0x5b,0x57,0x3b,0x5b,0x00,0x01,0x58,0x57,0x3b,0x58,0x00,0x01,0x5b,0x57,0x3b,
0x5b,0x00,0x01,0x5f,0x57,0x3b,0x5f,0x00,0x01,0x5b,0x57,0x3b,0x5b,0x00,0x01,0x58,
0x57,0x3b,0x58,0x00,0x01,0x5b,0x57,0x3b,0x5b,0x00,0x01,0x5f,0x57,0x3b,0x5f,0x00,
0x01,0x5b,0x57,0x3b,0x5b,0x00,0x01,0x58,0x57,0x3b,0x58,0x00,0x01,0x5b,0x57,0x3b,
0x5b,0x00,0x01,0x5f,0x57,0x3b,0x5f,0x00,0x01,0x5b,0x57,0x3b,0x5b,0x00,0x01,0x58,
0x58,0x3b,0x58,0x00,0x01,0x5b,0x58,0x3b,0x5b,0x00,0x01,0x5f,0x58,0x3b,0x5f,0x00,
0x01,0x5b,0x58,0x3b,0x5b,0x00,0x01,0x58,0x58,0x3b,0x58,0x00,0x01,0x5b,0x58,0x3b,
0x5b,0x00,0x01,0x60,0x58,0x3b,0x60,0x00,0x01,0x5d,0x58,0x3b,0x5d,0x00,0x01,0x58,
0x58,0x3b,0x58,0x00,0x01,0x5d,0x58,0x3b,0x5d,0x00,0x01,0x60,0x58,0x3b,0x60,0x00,
0x01,0x5d,0x58,0x3b,0x5d,0x00,0x01,0x58,0x58,0x3b,0x58,0x00,0x01,0x5d,0x58,0x3b,
0x5d,0x00,0x01,0x60,0x58,0x3b,0x60,0x00,0x01,0x5d,0x58,0x3b,0x5d,0x00,0x01,0x58,
0x58,0x3b,0x58,0x00,0x01,0x5d,0x58,0x3b,0x5d,0x00,0x01,0x60,0x58,0x3b,0x60,0x00,
0x01,0x5d,0x59,0x3b,0x5d,0x00,0x01,0x58,0x59,0x3b,0x58,0x00,0x01,0x5d,0x59,0x3b,
0x5d,0x00,0x01,0x60,0x59,0x3b,0x60,0x00,0x01,0x5d,0x59,0x3b,0x5d,0x00,0x01,0x58,
0x59,0x3b,0x58,0x00,0x01,0x5d,0x59,0x3b,0x5d,0x00,0x01,0x60,0x59,0x3b,0x60,0x00,
0x01,0x5d,0x59,0x3b,0x5d,0x00,0x01,0x58,0x59,0x3b,0x58,0x00,0x01,0x5d,0x59,0x3b,
0x5d,0x00,0x01,0x60,0x59,0x3b,0x60,0x00,0x01,0x5d,0x59,0x3b,0x5d,0x00,0x01,0x58,
0x59,0x3b,0x58,0x00,0x01,0x5d,0x59,0x3b,0x5d,0x00,0x01,0x60,0x59,0x3b,0x60,0x00,
0x01,0x5d,0x59,0x3b,0x5d,0x00,0x01,0x58,0x59,0x3b,0x58,0x00,0x01,0x5d,0x59,0x3b,
0x5d,0x00,0x01,0x62,0x5a,0x3b,0x62,0x00,0x01,0x5f,0x5a,0x3b,0x5f,0x00,0x01,0x5b,
0x5a,0x3b,0x5b,0x00,0x01,0x5f,0x5a,0x3b,0x5f,0x00,0x01,0x62,0x5a,0x3b,0x62,0x00,
0x01,0x5f,0x5a,0x3b,0x5f,0x00,0x01,0x5b,0x5a,0x3b,0x5b,0x00,0x01,0x5f,0x5a,0x3b,
0x5f,0x00,0x01,0x62,0x5a,0x3b,0x62,0x00,0x01,0x5f,0x5a,0x3b,0x5f,0x00,0x01,0x5b,
0x5a,0x3b,0x5b,0x00,0x01,0x5f,0x5a,0x3b,0x5f,0x00,0x01,0x62,0x5a,0x3b,0x62,0x00,
0x01,0x5f,0x5b,0x3b,0x5f,0x00,0x01,0x5b,0x5b,0x3b,0x5b,0x00,0x01,0x5f,0x5b,0x3b,
0x5f,0x00,0x01,0x62,0x5b,0x3b,0x62,0x00,0x01,0x5f,0x5b,0x3b,0x5f,0x00,0x01,0x5b,
0x5b,0x3b,0x5b,0x00,0x01,0x5f,0x5b,0x3b,0x5f,0x00,0x01,0x62,0x5b,0x3b,0x62,0x00,
0x01,0x5f,0x5b,0x3b,0x5f,0x00,0x01,0x5b,0x5b,0x3b,0x5b,0x00,0x01,0x5f,0x5b,0x3b,
0x5f,0x00,0x01,0x62,0x5b,0x3b,0x62,0x00,0x01,0x5f,0x5b,0x3b,0x5f,0x00,0x01,0x5b,
0x5c,0x3b,0x5b,0x00,0x01,0x5f,0x5c,0x3b,0x5f,0x00,0x01,0x62,0x5c,0x3b,0x62,0x00,
0x01,0x5f,0x5c,0x3b,0x5f,0x00,0x01,0x5b,0x5c,0x3b,0x5b,0x00,0x01,0x5f,0x5c,0x3b,
0x5f,0x00,0x01,0x5d,0x5c,0x3b,0x5d,0x00,0x01,0x59,0x5c,0x3b,0x59,0x00,0x01,0x58,
0x5c,0x3b,0x58,0x00,0x01,0x59,0x5c,0x3b,0x59,0x00,0x01,0x5d,0x5c,0x3b,0x5d,0x00,
0x01,0x59,0x5c,0x3b,0x59,0x00,0x01,0x58,0x5c,0x3b,0x58,0x00,0x01,0x59,0x5d,0x3b,
0x59,0x00,0x01,0x5d,0x5d,0x3b,0x5d,0x00,0x01,0x59,0x5d,0x3b,0x59,0x00,0x01,0x58,
0x5d,0x3b,0x58,0x00,0x01,0x59,0x5d,0x3b,0x59,0x00,0x01,0x5d,0x5d,0x3b,0x5d,0x00,
0x01,0x59,0x5d,0x3b,0x59,0x00,0x01,0x58,0x5d,0x3b,0x58,0x00,0x01,0x59,0x5d,0x3b,
0x59,0x00,0x01,0x5d,0x5d,0x3b,0x5d,0x00,0x01,0x59,0x5d,0x3b,0x59,0x00,0x01,0x58,
0x5d,0x3b,0x58,0x00,0x01,0x59,0x5d,0x3b,0x59,0x00,0x01,0x5d,0x5e,0x3b,0x5d,0x00,
0x01,0x59,0x5e,0x3b,0x59,0x00,0x01,0x58,0x5e,0x3b,0x58,0x00,0x01,0x59,0x5e,0x3b,
0x59,0x00,0x01,0x5d,0x5e,0x3b,0x5d,0x00,0x01,0x59,0x5e,0x3b,0x59,0x00,0x01,0x58,
0x5e,0x3b,0x58,0x00,0x01,0x59,0x5e,0x3b,0x59,0x00,0x01,0x5d,0x5e,0x3b,0x5d,0x00,
0x01,0x59,0x5e,0x3b,0x59,0x00,0x01,0x58,0x5e,0x3b,0x58,0x00,0x01,0x59,0x5e,0x3b,
0x59,0x00,0x01,0x5f,0x5f,0x3b,0x5f,0x00,0x01,0x5b,0x5f,0x3b,0x5b,0x00,0x01,0x58,
0x5f,0x3b,0x58,0x00,0x01,0x5b,0x5f,0x3b,0x5b,0x00,0x01,0x5f,0x5f,0x3b,0x5f,0x00,
0x01,0x5b,0x5f,0x3b,0x5b,0x00,0x01,0x58,0x5f,0x3b,0x58,0x00,0x01,0x5b,0x5f,0x3b,
0x5b,0x00,0x01,0x5f,0x5f,0x3b,0x5f,0x00,0x01,0x5b,0x5f,0x3b,0x5b,0x00,0x01,0x58,
0x5f,0x3b,0x58,0x00,0x01,0x5b,0x5f,0x3b,0x5b,0x00,0x01,0x5f,0x5f,0x3b,0x5f,0x00,
0x01,0x5b,0x5f,0x3b,0x5b,0x00,0x01,0x58,0x5f,0x3b,0x58,0x00,0x01,0x5b,0x5f,0x3b,
0x5b,0x00,0x01,0x5f,0x5f,0x3b,0x5f,0x00,0x01,0x5b,0x5f,0x3b,0x5b,0x00,0x01,0x58,
0x5f,0x3b,0x58,0x00,0x01,0x5b,0x5f,0x3b,0x5b,0x00,0x01,0x5f,0x5f,0x3b,0x5f,0x00,
0x01,0x5b,0x5f,0x3b,0x5b,0x00,0x01,0x58,0x5f,0x3b,0x58,0x00,0x01,0x5b,0x5f,0x3b,
0x5b,0x00,0x01,0x5f,0x5f,0x3b,0x5f,0x00,0x01,0x5b,0x5f,0x3b,0x5b,0x00,0x01,0x58,
0x5f,0x3b,0x58,0x00,0x01,0x5b,0x5f,0x3b,0x5b,0x00,0x01,0x5f,0x5f,0x3b,0x5f,0x00,
0x01,0x5b,0x5f,0x3b,0x5b,0x00,0x01,0x58,0x5f,0x3b,0x58,0x00,0x01,0x5b,0x5f,0x3b,
0x5b,0x00,0x01,0x60,0x5f,0x3b,0x60,0x00,0x01,0x5d,0x5f,0x3b,0x5d,0x00,0x01,0x58,
0x5f,0x3b,0x58,0x00,0x01,0x5d,0x5f,0x3b,0x5d,0x00,0x01,0x60,0x5f,0x3b,0x60,0x00,
0x01,0x5d,0x5f,0x3b,0x5d,0x00,0x01,0x58,0x5f,0x3b,0x58,0x00,0x01,0x5d,0x5f,0x3b,
0x5d,0x00,0x01,0x60,0x5f,0x3b,0x60,0x00,0x01,0x5d,0x5f,0x3b,0x5d,0x00,0x01,0x58,
0x5f,0x3b,0x58,0x00,0x01,0x5d,0x5f,0x3b,0x5d,0x00,0x01,0x60,0x5f,0x3b,0x60,0x00,
0x01,0x5d,0x5f,0x3b,0x5d,0x00,0x01,0x58,0x5f,0x3b,0x58,0x00,0x01,0x5d,0x5f,0x3b,
0x5d,0x00,0x01,0x60,0x5f,0x3b,0x60,0x00,0x01,0x5d,0x5f,0x3b,0x5d,0x00,0x01,0x58,
0x5f,0x3b,0x58,0x00,0x01,0x5d,0x5f,0x3b,0x5d,0x00,0x01,0x60,0x5f,0x3b,0x60,0x00,
0x01,0x5d,0x5f,0x3b,0x5d,0x00,0x01,0x58,0x5f,0x3b,0x58,0x00,0x01,0x5d,0x5f,0x3b,
0x5d,0x00,0x01,0x60,0x5f,0x3b,0x60,0x00,0x01,0x5d,0x5f,0x3b,0x5d,0x00,0x01,0x58,
0x5f,0x3b,0x58,0x00,0x01,0x5d,0x5f,0x3b,0x5d,0x00,0x01,0x60,0x5f,0x3b,0x60,0x00,
0x01,0x5d,0x5f,0x3b,0x5d,0x00,0x01,0x58,0x5f,0x3b,0x58,0x00,0x01,0x5d,0x5f,0x3b,
0x5d,0x00,0x01,0x5d,0x69,0x3b,0x5d,0x00,0x01,0x59,0x69,0x3b,0x59,0x00,0x01,0x58,
0x69,0x3b,0x58,0x00,0x01,0x59,0x69,0x3b,0x59,0x00,0x01,0x5d,0x69,0x3b,0x5d,0x00,
0x01,0x59,0x69,0x3b,0x59,0x00,0x01,0x58,0x69,0x3b,0x58,0x00,0x01,0x59,0x69,0x3b,
0x59,0x00,0x01,0x5d,0x69,0x3b,0x5d,0x00,0x01,0x59,0x69,0x3b,0x59,0x00,0x01,0x58,
0x69,0x3b,0x58,0x00,0x01,0x59,0x69,0x3b,0x59,0x00,0x01,0x5d,0x69,0x3b,0x5d,0x00,
0x01,0x59,0x69,0x3b,0x59,0x00,0x01,0x58,0x69,0x3b,0x58,0x00,0x01,0x59,0x69,0x3b,
0x59,0x00,0x01,0x5d,0x69,0x3b,0x5d,0x00,0x01,0x59,0x69,0x3b,0x59,0x00,0x01,0x58,
0x69,0x3b,0x58,0x00,0x01,0x59,0x69,0x3b,0x59,0x00,0x01,0x5d,0x69,0x3b,0x5d,0x00,
0x01,0x59,0x69,0x3b,0x59,0x00,0x01,0x58,0x69,0x3b,0x58,0x00,0x01,0x59,0x69,0x3b,
0x59,0x00,0x01,0x5d,0x69,0x3b,0x5d,0x00,0x01,0x59,0x69,0x3b,0x59,0x00,0x01,0x58,
0x69,0x3b,0x58,0x00,0x01,0x59,0x69,0x3b,0x59,0x00,0x01,0x5d,0x69,0x3b,0x5d,0x00,
0x01,0x59,0x69,0x3b,0x59,0x00,0x01,0x58,0x69,0x3b,0x58,0x00,0x01,0x59,0x69,0x3b,
0x59,0x00,0x01,0x5f,0x69,0x3b,0x5f,0x00,0x01,0x5b,0x69,0x3b,0x5b,0x00,0x01,0x58,
0x69,0x3b,0x58,0x00,0x01,0x5b,0x69,0x3b,0x5b,0x00,0x01,0x5f,0x69,0x3b,0x5f,0x00,
0x01,0x5b,0x69,0x3b,0x5b,0x00,0x01,0x58,0x69,0x3b,0x58,0x00,0x01,0x5b,0x69,0x3b,
0x5b,0x00,0x01,0x5f,0x69,0x3b,0x5f,0x00,0x01,0x5b,0x69,0x3b,0x5b,0x00,0x01,0x58,
0x69,0x3b,0x58,0x00,0x01,0x5b,0x69,0x3b,0x5b,0x00,0x01,0x5f,0x69,0x3b,0x5f,0x00,
0x01,0x5b,0x69,0x3b,0x5b,0x00,0x01,0x58,0x69,0x3b,0x58,0x00,0x01,0x5b,0x69,0x3b,
0x5b,0x00,0x01,0x5f,0x69,0x3b,0x5f,0x00,0x01,0x5b,0x69,0x3b,0x5b,0x00,0x01,0x58,
0x69,0x3b,0x58,0x00,0x01,0x5b,0x69,0x3b,0x5b,0x00,0x01,0x5f,0x69,0x3b,0x5f,0x00,
0x01,0x5b,0x69,0x3b,0x5b,0x00,0x01,0x58,0x69,0x3b,0x58,0x00,0x01,0x5b,0x69,0x3b,
0x5b,0x00,0x01,0x5f,0x69,0x3b,0x5f,0x00,0x01,0x5b,0x69,0x3b,0x5b,0x00,0x01,0x58,
0x69,0x3b,0x58,0x00,0x01,0x5b,0x69,0x3b,0x5b,0x00,0x01,0x5f,0x69,0x3b,0x5f,0x00,
0x01,0x5b,0x69,0x3b,0x5b,0x00,0x01,0x58,0x69,0x3b,0x58,0x00,0x01,0x5b,0x69,0x3b,
0x5b,0x00,0x01,0x60,0x69,0x3b,0x60,0x00,0x01,0x5d,0x69,0x3b,0x5d,0x00,0x01,0x58,
0x69,0x3b,0x58,0x00,0x01,0x5d,0x69,0x3b,0x5d,0x00,0x01,0x60,0x69,0x3b,0x60,0x00,
0x01,0x5d,0x69,0x3b,0x5d,0x00,0x01,0x58,0x69,0x3b,0x58,0x00,0x01,0x5d,0x69,0x3b,
0x5d,0x00,0x01,0x60,0x69,0x3b,0x60,0x00,0x01,0x5d,0x69,0x3b,0x5d,0x00,0x01,0x58,
0x69,0x3b,0x58,0x00,0x01,0x5d,0x69,0x3b,0x5d,0x00,0x01,0x60,0x69,0x3b,0x60,0x00,
0x01,0x5d,0x69,0x3b,0x5d,0x00,0x01,0x58,0x69,0x3b,0x58,0x00,0x01,0x5d,0x69,0x3b,
0x5d,0x00,0x01,0x60,0x69,0x3b,0x60,0x00,0x01,0x5d,0x69,0x3b,0x5d,0x00,0x01,0x58,
0x69,0x3b,0x58,0x00,0x01,0x5d,0x69,0x3b,0x5d,0x00,0x01,0x60,0x69,0x3b,0x60,0x00,
0x01,0x5d,0x69,0x3b,0x5d,0x00,0x01,0x58,0x69,0x3b,0x58,0x00,0x01,0x5d,0x69,0x3b,
0x5d,0x00,0x01,0x60,0x69,0x3b,0x60,0x00,0x01,0x5d,0x69,0x3b,0x5d,0x00,0x01,0x58,
0x69,0x3b,0x58,0x00,0x01,0x5d,0x69,0x3b,0x5d,0x00,0x01,0x60,0x69,0x3b,0x60,0x00,
0x01,0x5d,0x69,0x3b,0x5d,0x00,0x01,0x58,0x69,0x3b,0x58,0x00,0x01,0x5d,0x69,0x3b,
0x5d,0x00,0x01,0x62,0x69,0x3b,0x62,0x00,0x01,0x5f,0x69,0x3b,0x5f,0x00,0x01,0x5b,
0x69,0x3b,0x5b,0x00,0x01,0x5f,0x69,0x3b,0x5f,0x00,0x01,0x62,0x69,0x3b,0x62,0x00,
0x01,0x5f,0x69,0x3b,0x5f,0x00,0x01,0x5b,0x69,0x3b,0x5b,0x00,0x01,0x5f,0x69,0x3b,
0x5f,0x00,0x01,0x62,0x69,0x3b,0x62,0x00,0x01,0x5f,0x69,0x3b,0x5f,0x00,0x01,0x5b,
0x69,0x3b,0x5b,0x00,0x01,0x5f,0x69,0x3b,0x5f,0x00,0x01,0x62,0x69,0x3b,0x62,0x00,
0x01,0x5f,0x69,0x3b,0x5f,0x00,0x01,0x5b,0x69,0x3b,0x5b,0x00,0x01,0x5f,0x69,0x3b,
0x5f,0x00,0x01,0x62,0x69,0x3b,0x62,0x00,0x01,0x5f,0x69,0x3b,0x5f,0x00,0x01,0x5b,
0x69,0x3b,0x5b,0x00,0x01,0x5f,0x69,0x3b,0x5f,0x00,0x01,0x62,0x69,0x3b,0x62,0x00,
0x01,0x5f,0x69,0x3b,0x5f,0x00,0x01,0x5b,0x69,0x3b,0x5b,0x00,0x01,0x5f,0x69,0x3b,
0x5f,0x00,0x01,0x62,0x69,0x3b,0x62,0x00,0x01,0x5f,0x69,0x3b,0x5f,0x00,0x01,0x5b,
0x69,0x3b,0x5b,0x00,0x01,0x5f,0x69,0x3b,0x5f,0x00,0x01,0x62,0x69,0x3b,0x62,0x00,
0x01,0x5f,0x69,0x3b,0x5f,0x00,0x01,0x5b,0x69,0x3b,0x5b,0x00,0x01,0x5f,0x69,0x3b,
0x5f,0x00,0x01,0x5d,0x73,0x3b,0x5d,0x00,0x01,0x59,0x73,0x3b,0x59,0x00,0x01,0x58,
0x73,0x3b,0x58,0x00,0x01,0x59,0x73,0x3b,0x59,0x00,0x01,0x5d,0x73,0x3b,0x5d,0x00,
0x01,0x59,0x73,0x3b,0x59,0x00,0x01,0x58,0x73,0x3b,0x58,0x00,0x01,0x59,0x73,0x3b,
0x59,0x00,0x01,0x5d,0x73,0x3b,0x5d,0x00,0x01,0x59,0x73,0x3b,0x59,0x00,0x01,0x58,
0x73,0x3b,0x58,0x00,0x01,0x59,0x73,0x3b,0x59,0x00,0x01,0x5d,0x73,0x3b,0x5d,0x00,
0x01,0x59,0x73,0x3b,0x59,0x00,0x01,0x58,0x73,0x3b,0x58,0x00,0x01,0x59,0x73,0x3b,
0x59,0x00,0x01,0x5d,0x73,0x3b,0x5d,0x00,0x01,0x59,0x73,0x3b,0x59,0x00,0x01,0x58,
0x73,0x3b,0x58,0x00,0x01,0x59,0x73,0x3b,0x59,0x00,0x01,0x5d,0x73,0x3b,0x5d,0x00,
0x01,0x59,0x73,0x3b,0x59,0x00,0x01,0x58,0x73,0x3b,0x58,0x00,0x01,0x59,0x73,0x3b,
0x59,0x00,0x01,0x5d,0x73,0x3b,0x5d,0x00,0x01,0x59,0x73,0x3b,0x59,0x00,0x01,0x58,
0x73,0x3b,0x58,0x00,0x01,0x59,0x73,0x3b,0x59,0x00,0x01,0x5d,0x73,0x3b,0x5d,0x00,
0x01,0x59,0x73,0x3b,0x59,0x00,0x01,0x58,0x73,0x3b,0x58,0x00,0x01,0x59,0x73,0x3b,
0x59,0x00,0x01,0x5f,0x73,0x3b,0x5f,0x00,0x01,0x5b,0x73,0x3b,0x5b,0x00,0x01,0x58,
0x73,0x3b,0x58,0x00,0x01,0x5b,0x73,0x3b,0x5b,0x00,0x01,0x5f,0x73,0x3b,0x5f,0x00,
0x01,0x5b,0x73,0x3b,0x5b,0x00,0x01,0x58,0x73,0x3b,0x58,0x00,0x01,0x5b,0x73,0x3b,
0x5b,0x00,0x01,0x5f,0x73,0x3b,0x5f,0x00,0x01,0x5b,0x73,0x3b,0x5b,0x00,0x01,0x58,
0x73,0x3b,0x58,0x00,0x01,0x5b,0x73,0x3b,0x5b,0x00,0x01,0x5f,0x73,0x3b,0x5f,0x00,
0x01,0x5b,0x73,0x3b,0x5b,0x00,0x01,0x58,0x73,0x3b,0x58,0x00,0x01,0x5b,0x73,0x3b,
0x5b,0x00,0x01,0x5f,0x73,0x3b,0x5f,0x00,0x01,0x5b,0x73,0x3b,0x5b,0x00,0x01,0x58,
0x73,0x3b,0x58,0x00,0x01,0x5b,0x73,0x3b,0x5b,0x00,0x01,0x5f,0x73,0x3b,0x5f,0x00,
0x01,0x5b,0x73,0x3b,0x5b,0x00,0x01,0x58,0x73,0x3b,0x58,0x00,0x01,0x5b,0x73,0x3b,
0x5b,0x00,0x01,0x5f,0x73,0x3b,0x5f,0x00,0x01,0x5b,0x73,0x3b,0x5b,0x00,0x01,0x58,
0x73,0x3b,0x58,0x00,0x01,0x5b,0x73,0x3b,0x5b,0x00,0x01,0x5f,0x73,0x3b,0x5f,0x00,
0x01,0x5b,0x73,0x3b,0x5b,0x00,0x01,0x58,0x73,0x3b,0x58,0x00,0x01,0x5b,0x73,0x3b,
0x5b,0x00,0x01,0x60,0x73,0x3b,0x60,0x00,0x01,0x5d,0x73,0x3b,0x5d,0x00,0x01,0x58,
0x73,0x3b,0x58,0x00,0x01,0x5d,0x73,0x3b,0x5d,0x00,0x01,0x60,0x73,0x3b,0x60,0x00,
0x01,0x5d,0x73,0x3b,0x5d,0x00,0x01,0x58,0x73,0x3b,0x58,0x00,0x01,0x5d,0x73,0x3b,
0x5d,0x00,0x01,0x60,0x73,0x3b,0x60,0x00,0x01,0x5d,0x73,0x3b,0x5d,0x00,0x01,0x58,
0x73,0x3b,0x58,0x00,0x01,0x5d,0x73,0x3b,0x5d,0x00,0x01,0x60,0x73,0x3b,0x60,0x00,
0x01,0x5d,0x73,0x3b,0x5d,0x00,0x01,0x58,0x73,0x3b,0x58,0x00,0x01,0x5d,0x73,0x3b,
0x5d,0x00,0x01,0x60,0x73,0x3b,0x60,0x00,0x01,0x5d,0x73,0x3b,0x5d,0x00,0x01,0x58,
0x73,0x3b,0x58,0x00,0x01,0x5d,0x73,0x3b,0x5d,0x00,0x01,0x60,0x73,0x3b,0x60,0x00,
0x01,0x5d,0x73,0x3b,0x5d,0x00,0x01,0x58,0x73,0x3b,0x58,0x00,0x01,0x5d,0x73,0x3b,
0x5d,0x00,0x01,0x60,0x73,0x3b,0x60,0x00,0x01,0x5d,0x73,0x3b,0x5d,0x00,0x01,0x58,
0x73,0x3b,0x58,0x00,0x01,0x5d,0x73,0x3b,0x5d,0x00,0x01,0x60,0x73,0x3b,0x60,0x00,
0x01,0x5d,0x73,0x3b,0x5d,0x00,0x01,0x58,0x73,0x3b,0x58,0x00,0x01,0x5d,0x73,0x3b,
0x5d,0x00,0x01,0x62,0x73,0x3b,0x62,0x00,0x01,0x5f,0x73,0x3b,0x5f,0x00,0x01,0x5b,
0x73,0x3b,0x5b,0x00,0x01,0x5f,0x73,0x3b,0x5f,0x00,0x01,0x62,0x73,0x3b,0x62,0x00,
0x01,0x5f,0x73,0x3b,0x5f,0x00,0x01,0x5b,0x73,0x3b,0x5b,0x00,0x01,0x5f,0x73,0x3b,
0x5f,0x00,0x01,0x62,0x73,0x3b,0x62,0x00,0x01,0x5f,0x73,0x3b,0x5f,0x00,0x01,0x5b,
0x73,0x3b,0x5b,0x00,0x01,0x5f,0x73,0x3b,0x5f,0x00,0x01,0x62,0x73,0x3b,0x62,0x00,
0x01,0x5f,0x73,0x3b,0x5f,0x00,0x01,0x5b,0x73,0x3b,0x5b,0x00,0x01,0x5f,0x73,0x3b,
0x5f,0x00,0x01,0x62,0x73,0x3b,0x62,0x00,0x01,0x5f,0x73,0x3b,0x5f,0x00,0x01,0x5b,
0x73,0x3b,0x5b,0x00,0x01,0x5f,0x73,0x3b,0x5f,0x00,0x01,0x62,0x73,0x3b,0x62,0x00,
0x01,0x5f,0x73,0x3b,0x5f,0x00,0x01,0x5b,0x73,0x3b,0x5b,0x00,0x01,0x5f,0x73,0x3b,
0x5f,0x00,0x01,0x62,0x73,0x3b,0x62,0x00,0x01,0x5f,0x73,0x3b,0x5f,0x00,0x01,0x5b,
0x73,0x3b,0x5b,0x00,0x01,0x5f,0x73,0x3b,0x5f,0x00,0x01,0x62,0x73,0x3b,0x62,0x00,
0x01,0x5f,0x73,0x3b,0x5f,0x00,0x01,0x5b,0x73,0x3b,0x5b,0x00,0x01,0x5f,0x73,0x3b,
0x5f,0x00,0x01,0x5d,0x73,0x3b,0x5d,0x00,0x01,0x59,0x73,0x3b,0x59,0x00,0x01,0x58,
0x73,0x3b,0x58,0x00,0x01,0x59,0x73,0x3b,0x59,0x00,0x01,0x5d,0x73,0x3b,0x5d,0x00,
0x01,0x59,0x73,0x3b,0x59,0x00,0x01,0x58,0x73,0x3b,0x58,0x00,0x01,0x59,0x73,0x3b,
0x59,0x00,0x01,0x5d,0x73,0x3b,0x5d,0x00,0x01,0x59,0x73,0x3b,0x59,0x00,0x01,0x58,
0x73,0x3b,0x58,0x00,0x01,0x59,0x73,0x3b,0x59,0x00,0x01,0x5d,0x73,0x3b,0x5d,0x00,
0x01,0x59,0x73,0x3b,0x59,0x00,0x01,0x58,0x73,0x3b,0x58,0x00,0x01,0x59,0x73,0x3b,
0x59,0x00,0x01,0x5d,0x73,0x3b,0x5d,0x00,0x01,0x59,0x73,0x3b,0x59,0x00,0x01,0x58,
0x73,0x3b,0x58,0x00,0x01,0x59,0x73,0x3b,0x59,0x00,0x01,0x5d,0x73,0x3b,0x5d,0x00,
0x01,0x59,0x73,0x3b,0x59,0x00,0x01,0x58,0x73,0x3b,0x58,0x00,0x01,0x59,0x73,0x3b,
0x59,0x00,0x01,0x5d,0x73,0x3b,0x5d,0x00,0x01,0x59,0x73,0x3b,0x59,0x00,0x01,0x58,
0x73,0x3b,0x58,0x00,0x01,0x59,0x73,0x3b,0x59,0x00,0x01,0x5d,0x73,0x3b,0x5d,0x00,
0x01,0x59,0x73,0x3b,0x59,0x00,0x01,0x58,0x73,0x3b,0x58,0x00,0x01,0x59,0x73,0x3b,
0x59,0x00,0x01,0x5f,0x73,0x3b,0x5f,0x00,0x01,0x5b,0x73,0x3b,0x5b,0x00,0x01,0x58,
0x72,0x3b,0x58,0x00,0x01,0x5b,0x71,0x3b,0x5b,0x00,0x01,0x5f,0x70,0x3b,0x5f,0x00,
0x01,0x5b,0x70,0x3b,0x5b,0x00,0x01,0x58,0x6f,0x3b,0x58,0x00,0x01,0x5b,0x6e,0x3b,
0x5b,0x00,0x01,0x5f,0x6d,0x3b,0x5f,0x00,0x01,0x5b,0x6c,0x3b,0x5b,0x00,0x01,0x58,
0x6c,0x3b,0x58,0x00,0x01,0x5b,0x6b,0x3b,0x5b,0x00,0x01,0x5f,0x6a,0x3b,0x5f,0x00,
0x01,0x5b,0x69,0x3b,0x5b,0x00,0x01,0x58,0x68,0x3b,0x58,0x00,0x01,0x5b,0x68,0x3b,
0x5b,0x00,0x01,0x5f,0x67,0x3b,0x5f,0x00,0x01,0x5b,0x66,0x3b,0x5b,0x00,0x01,0x58,
0x65,0x3b,0x58,0x00,0x01,0x5b,0x65,0x3b,0x5b,0x00,0x01,0x5f,0x64,0x3b,0x5f,0x00,
0x01,0x5b,0x63,0x3b,0x5b,0x00,0x01,0x58,0x62,0x3b,0x58,0x00,0x01,0x5b,0x61,0x3b,
0x5b,0x00,0x01,0x5f,0x61,0x3b,0x5f,0x00,0x01,0x5b,0x60,0x3b,0x5b,0x00,0x01,0x58,
0x5f,0x3b,0x58,0x00,0x01,0x5b,0x5e,0x3b,0x5b,0x00,0x01,0x5f,0x5d,0x3b,0x5f,0x00,
0x01,0x5b,0x5d,0x3b,0x5b,0x00,0x01,0x58,0x5c,0x3b,0x58,0x00,0x01,0x5b,0x5b,0x3b,
0x5b,0x00,0x01,0x60,0x5a,0x3b,0x60,0x00,0x01,0x5d,0x5a,0x3b,0x5d,0x00,0x01,0x58,
0x59,0x3b,0x58,0x00,0x01,0x5d,0x58,0x3b,0x5d,0x00,0x01,0x60,0x57,0x3b,0x60,0x00,
0x01,0x5d,0x56,0x3b,0x5d,0x00,0x01,0x58,0x56,0x3b,0x58,0x00,0x01,0x5d,0x55,0x3b,
0x5d,0x00,0x01,0x60,0x54,0x3b,0x60,0x00,0x01,0x5d,0x53,0x3b,0x5d,0x00,0x01,0x58,
0x52,0x3b,0x58,0x00,0x01,0x5d,0x52,0x3b,0x5d,0x00,0x01,0x60,0x51,0x3b,0x60,0x00,
0x01,0x5d,0x50,0x3b,0x5d,0x00,0x01,0x58,0x4f,0x3b,0x58,0x00,0x01,0x5d,0x4e,0x3b,
0x5d,0x00,0x01,0x60,0x4e,0x3b,0x60,0x00,0x01,0x5d,0x4d,0x3b,0x5d,0x00,0x01,0x58,
0x4c,0x3b,0x58,0x00,0x01,0x5d,0x4b,0x3b,0x5d,0x00,0x01,0x60,0x4b,0x3b,0x60,0x00,
0x01,0x5d,0x4a,0x3b,0x5d,0x00,0x01,0x58,0x49,0x3b,0x58,0x00,0x01,0x5d,0x48,0x3b,
0x5d,0x00,0x01,0x60,0x47,0x3b,0x60,0x00,0x01,0x5d,0x47,0x3b,0x5d,0x00,0x01,0x58,
0x46,0x3b,0x58,0x00,0x01,0x5d,0x45,0x3b,0x5d,0x00,0x01,0x60,0x44,0x3b,0x60,0x00,
0x01,0x5d,0x43,0x3b,0x5d,0x00,0x01,0x58,0x43,0x3b,0x58,0x00,0x01,0x5d,0x42,0x3b,
0x5d,0x00,0x01,0x62,0x41,0x3b,0x62,0x00,0x01,0x5f,0x40,0x3b,0x5f,0x00,0x01,0x5b,
0x40,0x3b,0x5b,0x00,0x01,0x5f,0x3f,0x3b,0x5f,0x00,0x01,0x62,0x3e,0x3b,0x62,0x00,
0x01,0x5f,0x3d,0x3b,0x5f,0x00,0x01,0x5b,0x3c,0x3b,0x5b,0x00,0x01,0x5f,0x3c,0x3b,
0x5f,0x00,0x01,0x62,0x3b,0x3b,0x62,0x00,0x01,0x5f,0x3a,0x3b,0x5f,0x00,0x01,0x5b,
0x39,0x3b,0x5b,0x00,0x01,0x5f,0x38,0x3b,0x5f,0x00,0x01,0x62,0x38,0x3b,0x62,0x00,
0x01,0x5f,0x37,0x3b,0x5f,0x00,0x01,0x5b,0x36,0x3b,0x5b,0x00,0x01,0x5f,0x35,0x3b,
0x5f,0x00,0x01,0x62,0x34,0x3b,0x62,0x00,0x01,0x5f,0x34,0x3b,0x5f,0x00,0x01,0x5b,
0x33,0x3b,0x5b,0x00,0x01,0x5f,0x32,0x3b,0x5f,0x00,0x01,0x62,0x31,0x3b,0x62,0x00,
0x01,0x5f,0x31,0x3b,0x5f,0x00,0x01,0x5b,0x30,0x3b,0x5b,0x00,0x01,0x5f,0x2f,0x3b,
0x5f,0x00,0x01,0x62,0x2e,0x3b,0x62,0x00,0x01,0x5f,0x2d,0x3b,0x5f,0x00,0x01,0x5b,
0x2d,0x3b,0x5b,0x00,0x01,0x5f,0x2c,0x3b,0x5f,0x00,0x01,0x62,0x2b,0x3b,0x62,0x00,
0x01,0x5f,0x2a,0x3b,0x5f,0x00,0x01,0x5b,0x29,0x3b,0x5b,0x00,0x01,0x5f,0x29,0x3b,
0x5f,0x00,0x01,0x5d,0x28,0x3b,0x5d,0x00,0x01,0x59,0x27,0x3b,0x59,0x00,0x01,0x58,
0x26,0x3b,0x58,0x00,0x01,0x59,0x26,0x3b,0x59,0x00,0x01,0x5d,0x25,0x3b,0x5d,0x00,
0x01,0x59,0x24,0x3b,0x59,0x00,0x01,0x58,0x23,0x3b,0x58,0x00,0x01,0x59,0x22,0x3b,
0x59,0x00,0x01,0x5d,0x22,0x3b,0x5d,0x00,0x01,0x59,0x21,0x3b,0x59,0x00,0x01,0x58,
0x20,0x3b,0x58,0x00,0x01,0x59,0x1f,0x3b,0x59,0x00,0x01,0x5d,0x1e,0x3b,0x5d,0x00,
0x01,0x59,0x1e,0x3b,0x59,0x00,0x01,0x58,0x1d,0x3b,0x58,0x00,0x01,0x59,0x1c,0x3b,
0x59,0x00,0x01,0x5d,0x1b,0x3b,0x5d,0x00,0x01,0x59,0x1b,0x3b,0x59,0x00,0x01,0x58,
0x1a,0x3b,0x58,0x00,0x01,0x59,0x19,0x3b,0x59,0x00,0x01,0x5d,0x18,0x3b,0x5d,0x00,
0x01,0x59,0x17,0x3b,0x59,0x00,0x01,0x58,0x17,0x3b,0x58,0x00,0x01,0x59,0x16,0x3b,
0x59,0x00,0x01,0x5d,0x15,0x3b,0x5d,0x00,0x01,0x59,0x14,0x3b,0x59,0x00,0x01,0x58,
0x13,0x3b,0x58,0x00,0x01,0x59,0x13,0x3b,0x59,0x00,0x01,0x5d,0x12,0x3b,0x5d,0x00,
0x01,0x59,0x11,0x3b,0x59,0x00,0x01,0x58,0x10,0x3b,0x58,0x00,0x01,0x59,0x10,0x3b,
0x59,0x00,0x01,0xff,0x2f,0x00,0x4d,0x54,0x72,0x6b,0x00,0x00,0x05,0x8a,0x00,0xff,
0x59,0x02,0x00,0x00,0x00,0xbf,0x79,0x00,0x00,0xcf,0x00,0x00,0xbf,0x07,0x6d,0x00,
0x0a,0x40,0x00,0x5b,0x00,0x00,0x5d,0x00,0x00,0xff,0x21,0x01,0x00,0x83,0xef,0x00,
0x9f,0x58,0x7e,0x00,0x64,0x7e,0x81,0x63,0x58,0x00,0x00,0x64,0x00,0x81,0x7d,0x58,
0x7e,0x00,0x64,0x7e,0x81,0x63,0x58,0x00,0x00,0x64,0x00,0x81,0x7d,0x58,0x7e,0x00,
0x64,0x7e,0x81,0x63,0x58,0x00,0x00,0x64,0x00,0x81,0x7d,0x58,0x7e,0x00,0x64,0x7e,
0x81,0x63,0x58,0x00,0x00,0x64,0x00,0x81,0x7d,0x58,0x7e,0x00,0x64,0x7e,0x81,0x63,
0x58,0x00,0x00,0x64,0x00,0x81,0x7d,0x58,0x7e,0x00,0x64,0x7e,0x81,0x63,0x58,0x00,
0x00,0x64,0x00,0x81,0x7d,0x58,0x7e,0x00,0x64,0x7e,0x81,0x63,0x58,0x00,0x00,0x64,
0x00,0x81,0x7d,0x58,0x7e,0x00,0x64,0x7e,0x81,0x63,0x58,0x00,0x00,0x64,0x00,0x81,
0x7d,0x58,0x7e,0x00,0x64,0x7e,0x81,0x63,0x58,0x00,0x00,0x64,0x00,0x81,0x7d,0x58,
0x7e,0x00,0x64,0x7e,0x81,0x63,0x58,0x00,0x00,0x64,0x00,0x81,0x7d,0x58,0x7e,0x00,
0x64,0x7e,0x81,0x63,0x58,0x00,0x00,0x64,0x00,0x81,0x7d,0x58,0x7e,0x00,0x64,0x7e,
0x81,0x63,0x58,0x00,0x00,0x64,0x00,0x81,0x7d,0x58,0x7e,0x00,0x64,0x7e,0x81,0x63,
0x58,0x00,0x00,0x64,0x00,0x81,0x7d,0x58,0x7e,0x00,0x64,0x7e,0x81,0x63,0x58,0x00,
0x00,0x64,0x00,0x81,0x7d,0x58,0x7e,0x00,0x64,0x7e,0x81,0x63,0x58,0x00,0x00,0x64,
0x00,0x81,0x7d,0x58,0x7e,0x00,0x64,0x7e,0x81,0x63,0x58,0x00,0x00,0x64,0x00,0x81,
0x7d,0x58,0x7e,0x00,0x64,0x7e,0x81,0x63,0x58,0x00,0x00,0x64,0x00,0x81,0x7d,0x58,
0x7e,0x00,0x64,0x7e,0x81,0x63,0x58,0x00,0x00,0x64,0x00,0x81,0x7d,0x58,0x7e,0x00,
0x64,0x7e,0x81,0x63,0x58,0x00,0x00,0x64,0x00,0x81,0x7d,0x58,0x7e,0x00,0x64,0x7e,
0x81,0x63,0x58,0x00,0x00,0x64,0x00,0x81,0x7d,0x58,0x7e,0x00,0x64,0x7e,0x81,0x63,
0x58,0x00,0x00,0x64,0x00,0x81,0x7d,0x58,0x7e,0x00,0x64,0x7e,0x81,0x63,0x58,0x00,
0x00,0x64,0x00,0x81,0x7d,0x58,0x7e,0x00,0x64,0x7e,0x81,0x63,0x58,0x00,0x00,0x64,
0x00,0x81,0x7d,0x58,0x7e,0x00,0x64,0x7e,0x81,0x63,0x58,0x00,0x00,0x64,0x00,0x81,
0x7d,0x58,0x7e,0x00,0x64,0x7e,0x81,0x63,0x58,0x00,0x00,0x64,0x00,0x81,0x7d,0x58,
0x7e,0x00,0x64,0x7e,0x81,0x63,0x58,0x00,0x00,0x64,0x00,0x81,0x7d,0x58,0x7e,0x00,
0x64,0x7e,0x81,0x63,0x58,0x00,0x00,0x64,0x00,0x81,0x7d,0x58,0x7e,0x00,0x64,0x7e,
0x81,0x63,0x58,0x00,0x00,0x64,0x00,0x81,0x7d,0x58,0x7e,0x00,0x64,0x7e,0x81,0x63,
0x58,0x00,0x00,0x64,0x00,0x81,0x7d,0x58,0x7e,0x00,0x64,0x7e,0x81,0x63,0x58,0x00,
0x00,0x64,0x00,0x81,0x7d,0x58,0x7e,0x00,0x64,0x7e,0x81,0x63,0x58,0x00,0x00,0x64,
0x00,0x81,0x7d,0x58,0x7e,0x00,0x64,0x7e,0x81,0x63,0x58,0x00,0x00,0x64,0x00,0x81,
0x7d,0x58,0x7e,0x00,0x64,0x7e,0x81,0x63,0x58,0x00,0x00,0x64,0x00,0x81,0x7d,0x58,
0x7e,0x00,0x64,0x7e,0x81,0x63,0x58,0x00,0x00,0x64,0x00,0x81,0x7d,0x58,0x7e,0x00,
0x64,0x7e,0x81,0x63,0x58,0x00,0x00,0x64,0x00,0x81,0x7d,0x58,0x7e,0x00,0x64,0x7e,
0x81,0x63,0x58,0x00,0x00,0x64,0x00,0x81,0x7d,0x58,0x7e,0x00,0x64,0x7e,0x81,0x63,
0x58,0x00,0x00,0x64,0x00,0x81,0x7d,0x58,0x7e,0x00,0x64,0x7e,0x81,0x63,0x58,0x00,
0x00,0x64,0x00,0x81,0x7d,0x58,0x7e,0x00,0x64,0x7e,0x81,0x63,0x58,0x00,0x00,0x64,
0x00,0x81,0x7d,0x58,0x7e,0x00,0x64,0x7e,0x81,0x63,0x58,0x00,0x00,0x64,0x00,0x81,
0x7d,0x58,0x7e,0x00,0x64,0x7e,0x81,0x63,0x58,0x00,0x00,0x64,0x00,0x81,0x7d,0x58,
0x7e,0x00,0x64,0x7e,0x81,0x63,0x58,0x00,0x00,0x64,0x00,0x81,0x7d,0x58,0x7e,0x00,
0x64,0x7e,0x81,0x63,0x58,0x00,0x00,0x64,0x00,0x81,0x7d,0x58,0x7e,0x00,0x64,0x7e,
0x81,0x63,0x58,0x00,0x00,0x64,0x00,0x81,0x7d,0x58,0x7e,0x00,0x64,0x7e,0x81,0x63,
0x58,0x00,0x00,0x64,0x00,0x81,0x7d,0x58,0x7e,0x00,0x64,0x7e,0x81,0x63,0x58,0x00,
0x00,0x64,0x00,0x81,0x7d,0x58,0x7e,0x00,0x64,0x7e,0x81,0x63,0x58,0x00,0x00,0x64,
0x00,0x81,0x7d,0x58,0x7e,0x00,0x64,0x7e,0x81,0x63,0x58,0x00,0x00,0x64,0x00,0x81,
0x7d,0x58,0x7e,0x00,0x64,0x7e,0x81,0x63,0x58,0x00,0x00,0x64,0x00,0x81,0x7d,0x58,
0x7e,0x00,0x64,0x7e,0x81,0x63,0x58,0x00,0x00,0x64,0x00,0x81,0x7d,0x58,0x7e,0x00,
0x64,0x7e,0x81,0x63,0x58,0x00,0x00,0x64,0x00,0x81,0x7d,0x58,0x7e,0x00,0x64,0x7e,
0x81,0x63,0x58,0x00,0x00,0x64,0x00,0x81,0x7d,0x58,0x7e,0x00,0x64,0x7e,0x81,0x63,
0x58,0x00,0x00,0x64,0x00,0x81,0x7d,0x58,0x7e,0x00,0x64,0x7e,0x81,0x63,0x58,0x00,
0x00,0x64,0x00,0x81,0x7d,0x58,0x7e,0x00,0x64,0x7e,0x81,0x63,0x58,0x00,0x00,0x64,
0x00,0x81,0x7d,0x58,0x7e,0x00,0x64,0x7e,0x81,0x63,0x58,0x00,0x00,0x64,0x00,0x81,
0x7d,0x58,0x7e,0x00,0x64,0x7e,0x81,0x63,0x58,0x00,0x00,0x64,0x00,0x81,0x7d,0x58,
0x7e,0x00,0x64,0x7e,0x81,0x63,0x58,0x00,0x00,0x64,0x00,0x81,0x7d,0x58,0x7e,0x00,
0x64,0x7e,0x81,0x63,0x58,0x00,0x00,0x64,0x00,0x81,0x7d,0x58,0x7e,0x00,0x64,0x7e,
0x81,0x63,0x58,0x00,0x00,0x64,0x00,0x81,0x7d,0x58,0x7e,0x00,0x64,0x7e,0x81,0x63,
0x58,0x00,0x00,0x64,0x00,0x81,0x7d,0x58,0x7e,0x00,0x64,0x7e,0x81,0x63,0x58,0x00,
0x00,0x64,0x00,0x81,0x7d,0x58,0x7e,0x00,0x64,0x7e,0x81,0x63,0x58,0x00,0x00,0x64,
0x00,0x81,0x7d,0x58,0x7e,0x00,0x64,0x7e,0x81,0x63,0x58,0x00,0x00,0x64,0x00,0x81,
0x7d,0x58,0x7e,0x00,0x64,0x7e,0x81,0x63,0x58,0x00,0x00,0x64,0x00,0x81,0x7d,0x58,
0x79,0x00,0x64,0x79,0x81,0x63,0x58,0x00,0x00,0x64,0x00,0x81,0x7d,0x58,0x73,0x00,
0x64,0x73,0x81,0x63,0x58,0x00,0x00,0x64,0x00,0x81,0x7d,0x58,0x6e,0x00,0x64,0x6e,
0x81,0x63,0x58,0x00,0x00,0x64,0x00,0x81,0x7d,0x58,0x68,0x00,0x64,0x68,0x81,0x63,
0x58,0x00,0x00,0x64,0x00,0x81,0x7d,0x58,0x62,0x00,0x64,0x62,0x81,0x63,0x58,0x00,
0x00,0x64,0x00,0x81,0x7d,0x58,0x5d,0x00,0x64,0x5d,0x81,0x63,0x58,0x00,0x00,0x64,
0x00,0x81,0x7d,0x58,0x57,0x00,0x64,0x57,0x81,0x63,0x58,0x00,0x00,0x64,0x00,0x81,
0x7d,0x58,0x51,0x00,0x64,0x51,0x81,0x63,0x58,0x00,0x00,0x64,0x00,0x81,0x7d,0x58,
0x4c,0x00,0x64,0x4c,0x81,0x63,0x58,0x00,0x00,0x64,0x00,0x81,0x7d,0x58,0x46,0x00,
0x64,0x46,0x81,0x63,0x58,0x00,0x00,0x64,0x00,0x81,0x7d,0x58,0x40,0x00,0x64,0x40,
0x81,0x63,0x58,0x00,0x00,0x64,0x00,0x81,0x7d,0x67,0x69,0x12,0x67,0x00,0x02,0x68,
0x69,0x12,0x68,0x00,0x87,0x1a,0x67,0x6e,0x12,0x67,0x00,0x02,0x68,0x6e,0x12,0x68,
0x00,0x82,0x1a,0x67,0x6f,0x12,0x67,0x00,0x02,0x68,0x6f,0x12,0x68,0x00,0x82,0x1a,
0x67,0x71,0x12,0x67,0x00,0x02,0x68,0x71,0x12,0x68,0x00,0x82,0x1a,0x67,0x73,0x2c,
0x67,0x00,0x04,0x68,0x73,0x2c,0x68,0x00,0x64,0x67,0x74,0x2c,0x67,0x00,0x04,0x68,
0x74,0x2c,0x68,0x00,0x64,0x67,0x75,0x2c,0x67,0x00,0x04,0x68,0x75,0x2c,0x68,0x00,
0x54,0x67,0x75,0x12,0x67,0x00,0x02,0x68,0x76,0x12,0x68,0x00,0x2a,0x67,0x76,0x12,
0x67,0x00,0x02,0x68,0x76,0x12,0x68,0x00,0x2a,0x67,0x76,0x12,0x67,0x00,0x02,0x68,
0x76,0x12,0x68,0x00,0x2a,0x67,0x77,0x12,0x67,0x00,0x02,0x68,0x77,0x12,0x68,0x00,
0x2a,0x67,0x77,0x12,0x67,0x00,0x02,0x68,0x77,0x12,0x68,0x00,0x2a,0x67,0x78,0x00,
0x68,0x78,0x38,0x67,0x00,0x00,0x68,0x00,0x04,0x67,0x78,0x00,0x68,0x78,0x38,0x67,
0x00,0x00,0x68,0x00,0x04,0x67,0x78,0x00,0x68,0x78,0x38,0x67,0x00,0x00,0x68,0x00,
0x04,0x67,0x78,0x00,0x68,0x78,0x38,0x67,0x00,0x00,0x68,0x00,0x04,0x67,0x79,0x00,
0x68,0x79,0x38,0x67,0x00,0x00,0x68,0x00,0x04,0x67,0x79,0x00,0x68,0x79,0x38,0x67,
0x00,0x00,0x68,0x00,0x04,0x67,0x79,0x00,0x68,0x79,0x38,0x67,0x00,0x00,0x68,0x00,
0x04,0x67,0x79,0x00,0x68,0x79,0x38,0x67,0x00,0x00,0x68,0x00,0x04,0x67,0x7a,0x00,
0x68,0x7a,0x38,0x67,0x00,0x00,0x68,0x00,0x04,0x67,0x7a,0x00,0x68,0x7a,0x38,0x67,
0x00,0x00,0x68,0x00,0x04,0x67,0x7b,0x00,0x68,0x7b,0x38,0x67,0x00,0x00,0x68,0x00,
0x04,0x67,0x7b,0x00,0x68,0x7b,0x38,0x67,0x00,0x00,0x68,0x00,0x04,0x67,0x7b,0x00,
0x68,0x7b,0x38,0x67,0x00,0x00,0x68,0x00,0x04,0x67,0x7b,0x00,0x68,0x7b,0x38,0x67,
0x00,0x00,0x68,0x00,0x01,0xff,0x2f,0x00,0x4d,0x54,0x72,0x6b,0x00,0x00,0x08,0x68,
0x00,0xff,0x59,0x02,0x00,0x00,0x00,0xff,0x21,0x01,0x00,0xe5,0x20,0x9f,0x23,0x7f,
0x00,0x28,0x7f,0x00,0x2f,0x7f,0x00,0x34,0x7f,0x8b,0x1f,0x23,0x00,0x00,0x28,0x00,
0x00,0x2f,0x00,0x00,0x34,0x00,0xad,0x01,0x23,0x7f,0x00,0x28,0x7f,0x00,0x2f,0x7f,
0x00,0x34,0x7f,0x8b,0x1f,0x23,0x00,0x00,0x28,0x00,0x00,0x2f,0x00,0x00,0x34,0x00,
0x81,0x35,0x28,0x70,0x00,0x2d,0x70,0x00,0x30,0x70,0x38,0x28,0x00,0x00,0x2d,0x00,
0x00,0x30,0x00,0x04,0x28,0x70,0x00,0x2d,0x70,0x00,0x30,0x70,0x81,0x63,0x28,0x00,
0x00,0x2d,0x00,0x00,0x30,0x00,0x85,0x21,0x28,0x70,0x00,0x2d,0x70,0x00,0x30,0x70,
0x38,0x28,0x00,0x00,0x2d,0x00,0x00,0x30,0x00,0x04,0x28,0x70,0x00,0x2d,0x70,0x00,
0x30,0x70,0x81,0x63,0x28,0x00,0x00,0x2d,0x00,0x00,0x30,0x00,0x81,0x41,0x28,0x70,
0x00,0x2d,0x70,0x00,0x30,0x70,0x38,0x28,0x00,0x00,0x2d,0x00,0x00,0x30,0x00,0x04,
0x28,0x70,0x00,0x2d,0x70,0x00,0x30,0x70,0x81,0x63,0x28,0x00,0x00,0x2d,0x00,0x00,
0x30,0x00,0x92,0x6d,0x23,0x7f,0x00,0x28,0x7f,0x00,0x2f,0x7f,0x00,0x34,0x7f,0x8b,
0x1f,0x23,0x00,0x00,0x28,0x00,0x00,0x2f,0x00,0x00,0x34,0x00,0x81,0x35,0x28,0x70,
0x00,0x2d,0x70,0x38,0x28,0x00,0x00,0x2d,0x00,0x04,0x28,0x70,0x00,0x2d,0x70,0x81,
0x63,0x28,0x00,0x00,0x2d,0x00,0x81,0x41,0x28,0x70,0x00,0x30,0x70,0x00,0x34,0x70,
0x38,0x28,0x00,0x00,0x30,0x00,0x00,0x34,0x00,0x04,0x28,0x70,0x00,0x30,0x70,0x00,
0x34,0x70,0x81,0x63,0x28,0x00,0x00,0x30,0x00,0x00,0x34,0x00,0x81,0x41,0x28,0x70,
0x00,0x2d,0x70,0x00,0x30,0x70,0x38,0x28,0x00,0x00,0x2d,0x00,0x00,0x30,0x00,0x04,
0x28,0x70,0x00,0x2d,0x70,0x00,0x30,0x70,0x81,0x63,0x28,0x00,0x00,0x2d,0x00,0x00,
0x30,0x00,0x81,0x41,0x28,0x70,0x00,0x2d,0x70,0x00,0x2f,0x70,0x38,0x28,0x00,0x00,
0x2d,0x00,0x00,0x2f,0x00,0x04,0x28,0x70,0x00,0x2d,0x70,0x00,0x2f,0x70,0x81,0x63,
0x28,0x00,0x00,0x2d,0x00,0x00,0x2f,0x00,0x81,0x41,0x28,0x70,0x00,0x2d,0x70,0x38,
0x28,0x00,0x00,0x2d,0x00,0x04,0x28,0x70,0x00,0x2d,0x70,0x81,0x63,0x28,0x00,0x00,
0x2d,0x00,0x81,0x41,0x28,0x70,0x00,0x2d,0x70,0x00,0x2f,0x70,0x38,0x28,0x00,0x00,
0x2d,0x00,0x00,0x2f,0x00,0x04,0x28,0x70,0x00,0x2d,0x70,0x00,0x2f,0x70,0x81,0x63,
0x28,0x00,0x00,0x2d,0x00,0x00,0x2f,0x00,0x8c,0x61,0x28,0x70,0x00,0x2d,0x70,0x00,
0x2f,0x70,0x38,0x28,0x00,0x00,0x2d,0x00,0x00,0x2f,0x00,0x04,0x28,0x70,0x00,0x2d,
0x70,0x00,0x2f,0x70,0x81,0x63,0x28,0x00,0x00,0x2d,0x00,0x00,0x2f,0x00,0x87,0x4d,
0x23,0x7f,0x00,0x28,0x7f,0x00,0x2f,0x7f,0x00,0x34,0x7f,0x8b,0x1f,0x23,0x00,0x00,
0x28,0x00,0x00,0x2f,0x00,0x00,0x34,0x00,0x81,0x35,0x28,0x70,0x00,0x2d,0x70,0x38,
0x28,0x00,0x00,0x2d,0x00,0x04,0x28,0x70,0x00,0x2d,0x70,0x81,0x63,0x28,0x00,0x00,
0x2d,0x00,0x85,0x21,0x28,0x70,0x00,0x30,0x70,0x00,0x34,0x70,0x38,0x28,0x00,0x00,
0x30,0x00,0x00,0x34,0x00,0x04,0x28,0x70,0x00,0x30,0x70,0x00,0x34,0x70,0x81,0x63,
0x28,0x00,0x00,0x30,0x00,0x00,0x34,0x00,0x81,0x41,0x28,0x70,0x00,0x2d,0x70,0x00,
0x30,0x70,0x38,0x28,0x00,0x00,0x2d,0x00,0x00,0x30,0x00,0x04,0x28,0x70,0x00,0x2d,
0x70,0x00,0x30,0x70,0x81,0x63,0x28,0x00,0x00,0x2d,0x00,0x00,0x30,0x00,0x89,0x01,
0x28,0x70,0x00,0x2d,0x70,0x00,0x2f,0x70,0x38,0x28,0x00,0x00,0x2d,0x00,0x00,0x2f,
0x00,0x04,0x28,0x70,0x00,0x2d,0x70,0x00,0x2f,0x70,0x81,0x63,0x28,0x00,0x00,0x2d,
0x00,0x00,0x2f,0x00,0x87,0x4d,0x23,0x7f,0x00,0x28,0x7f,0x00,0x2f,0x7f,0x00,0x34,
0x7f,0x8b,0x1f,0x23,0x00,0x00,0x28,0x00,0x00,0x2f,0x00,0x00,0x34,0x00,0x81,0x35,
0x28,0x70,0x00,0x2d,0x70,0x38,0x28,0x00,0x00,0x2d,0x00,0x04,0x28,0x70,0x00,0x2d,
0x70,0x81,0x63,0x28,0x00,0x00,0x2d,0x00,0x81,0x41,0x28,0x70,0x00,0x30,0x70,0x00,
0x34,0x70,0x38,0x28,0x00,0x00,0x30,0x00,0x00,0x34,0x00,0x04,0x28,0x70,0x00,0x30,
0x70,0x00,0x34,0x70,0x81,0x63,0x28,0x00,0x00,0x30,0x00,0x00,0x34,0x00,0x81,0x41,
0x28,0x70,0x00,0x2d,0x70,0x00,0x30,0x70,0x38,0x28,0x00,0x00,0x2d,0x00,0x00,0x30,
0x00,0x04,0x28,0x70,0x00,0x2d,0x70,0x00,0x30,0x70,0x81,0x63,0x28,0x00,0x00,0x2d,
0x00,0x00,0x30,0x00,0x81,0x41,0x28,0x70,0x00,0x2d,0x70,0x00,0x2f,0x70,0x38,0x28,
0x00,0x00,0x2d,0x00,0x00,0x2f,0x00,0x04,0x28,0x70,0x00,0x2d,0x70,0x00,0x2f,0x70,
0x81,0x63,0x28,0x00,0x00,0x2d,0x00,0x00,0x2f,0x00,0x81,0x41,0x28,0x70,0x00,0x2d,
0x70,0x38,0x28,0x00,0x00,0x2d,0x00,0x04,0x28,0x70,0x00,0x2d,0x70,0x81,0x63,0x28,
0x00,0x00,0x2d,0x00,0x81,0x41,0x28,0x70,0x00,0x2d,0x70,0x00,0x2f,0x70,0x38,0x28,
0x00,0x00,0x2d,0x00,0x00,0x2f,0x00,0x04,0x28,0x70,0x00,0x2d,0x70,0x00,0x2f,0x70,
0x81,0x63,0x28,0x00,0x00,0x2d,0x00,0x00,0x2f,0x00,0x81,0x41,0x28,0x70,0x00,0x2d,
0x70,0x00,0x30,0x70,0x38,0x28,0x00,0x00,0x2d,0x00,0x00,0x30,0x00,0x04,0x28,0x70,
0x00,0x2d,0x70,0x00,0x30,0x70,0x81,0x63,0x28,0x00,0x00,0x2d,0x00,0x00,0x30,0x00,
0x89,0x01,0x28,0x70,0x00,0x2f,0x70,0x00,0x32,0x70,0x38,0x28,0x00,0x00,0x2f,0x00,
0x00,0x32,0x00,0x04,0x28,0x70,0x00,0x2f,0x70,0x00,0x32,0x70,0x81,0x63,0x28,0x00,
0x00,0x2f,0x00,0x00,0x32,0x00,0x87,0x4d,0x28,0x70,0x00,0x34,0x70,0x95,0x2f,0x28,
0x00,0x00,0x34,0x00,0x82,0x45,0x28,0x70,0x00,0x2b,0x70,0x00,0x30,0x70,0x38,0x28,
0x00,0x00,0x2b,0x00,0x00,0x30,0x00,0x04,0x28,0x70,0x00,0x2b,0x70,0x00,0x30,0x70,
0x81,0x63,0x28,0x00,0x00,0x2b,0x00,0x00,0x30,0x00,0x89,0x01,0x28,0x70,0x00,0x2d,
0x70,0x00,0x32,0x70,0x38,0x28,0x00,0x00,0x2d,0x00,0x00,0x32,0x00,0x04,0x28,0x70,
0x00,0x2d,0x70,0x00,0x32,0x70,0x81,0x63,0x28,0x00,0x00,0x2d,0x00,0x00,0x32,0x00,
0x89,0x01,0x28,0x70,0x00,0x2b,0x70,0x00,0x30,0x70,0x38,0x28,0x00,0x00,0x2b,0x00,
0x00,0x30,0x00,0x04,0x28,0x70,0x00,0x2b,0x70,0x00,0x30,0x70,0x81,0x63,0x28,0x00,
0x00,0x2b,0x00,0x00,0x30,0x00,0x89,0x01,0x28,0x70,0x00,0x2d,0x70,0x00,0x32,0x70,
0x38,0x28,0x00,0x00,0x2d,0x00,0x00,0x32,0x00,0x04,0x28,0x70,0x00,0x2d,0x70,0x00,
0x32,0x70,0x81,0x63,0x28,0x00,0x00,0x2d,0x00,0x00,0x32,0x00,0xcb,0x0d,0x58,0x7e,
0x00,0x64,0x7e,0x81,0x63,0x58,0x00,0x00,0x64,0x00,0x81,0x7d,0x58,0x7e,0x00,0x64,
0x7e,0x81,0x63,0x58,0x00,0x00,0x64,0x00,0x81,0x7d,0x58,0x7e,0x00,0x64,0x7e,0x81,
0x63,0x58,0x00,0x00,0x64,0x00,0x81,0x7d,0x58,0x7e,0x00,0x64,0x7e,0x81,0x63,0x58,
0x00,0x00,0x64,0x00,0x81,0x7d,0x58,0x7e,0x00,0x64,0x7e,0x81,0x63,0x58,0x00,0x00,
0x64,0x00,0x81,0x7d,0x58,0x7e,0x00,0x64,0x7e,0x81,0x63,0x58,0x00,0x00,0x64,0x00,
0x81,0x7d,0x58,0x7e,0x00,0x64,0x7e,0x81,0x63,0x58,0x00,0x00,0x64,0x00,0x81,0x7d,
0x58,0x7e,0x00,0x64,0x7e,0x81,0x63,0x58,0x00,0x00,0x64,0x00,0x81,0x7d,0x58,0x7e,
0x00,0x64,0x7e,0x81,0x63,0x58,0x00,0x00,0x64,0x00,0x81,0x7d,0x58,0x7e,0x00,0x64,
0x7e,0x81,0x63,0x58,0x00,0x00,0x64,0x00,0x81,0x7d,0x58,0x7e,0x00,0x64,0x7e,0x81,
0x63,0x58,0x00,0x00,0x64,0x00,0x81,0x7d,0x58,0x7e,0x00,0x64,0x7e,0x81,0x63,0x58,
0x00,0x00,0x64,0x00,0x81,0x7d,0x58,0x7e,0x00,0x64,0x7e,0x81,0x63,0x58,0x00,0x00,
0x64,0x00,0x81,0x7d,0x58,0x7e,0x00,0x64,0x7e,0x81,0x63,0x58,0x00,0x00,0x64,0x00,
0x81,0x7d,0x58,0x7e,0x00,0x64,0x7e,0x81,0x63,0x58,0x00,0x00,0x64,0x00,0x81,0x7d,
0x58,0x7e,0x00,0x64,0x7e,0x81,0x63,0x58,0x00,0x00,0x64,0x00,0x81,0x7d,0x58,0x7e,
0x00,0x64,0x7e,0x81,0x63,0x58,0x00,0x00,0x64,0x00,0x81,0x7d,0x58,0x7e,0x00,0x64,
0x7e,0x81,0x63,0x58,0x00,0x00,0x64,0x00,0x81,0x7d,0x58,0x7e,0x00,0x64,0x7e,0x81,
0x63,0x58,0x00,0x00,0x64,0x00,0x81,0x7d,0x58,0x7e,0x00,0x64,0x7e,0x81,0x63,0x58,
0x00,0x00,0x64,0x00,0x81,0x7d,0x58,0x7e,0x00,0x64,0x7e,0x81,0x63,0x58,0x00,0x00,
0x64,0x00,0x81,0x7d,0x58,0x7e,0x00,0x64,0x7e,0x81,0x63,0x58,0x00,0x00,0x64,0x00,
0x81,0x7d,0x58,0x7e,0x00,0x64,0x7e,0x81,0x63,0x58,0x00,0x00,0x64,0x00,0x81,0x7d,
0x58,0x7e,0x00,0x64,0x7e,0x81,0x63,0x58,0x00,0x00,0x64,0x00,0x81,0x7d,0x58,0x7e,
0x00,0x64,0x7e,0x81,0x63,0x58,0x00,0x00,0x64,0x00,0x81,0x7d,0x58,0x7e,0x00,0x64,
0x7e,0x81,0x63,0x58,0x00,0x00,0x64,0x00,0x81,0x7d,0x58,0x7e,0x00,0x64,0x7e,0x81,
0x63,0x58,0x00,0x00,0x64,0x00,0x81,0x7d,0x58,0x7e,0x00,0x64,0x7e,0x81,0x63,0x58,
0x00,0x00,0x64,0x00,0x81,0x7d,0x58,0x7e,0x00,0x64,0x7e,0x81,0x63,0x58,0x00,0x00,
0x64,0x00,0x81,0x7d,0x58,0x7e,0x00,0x64,0x7e,0x81,0x63,0x58,0x00,0x00,0x64,0x00,
0x81,0x7d,0x58,0x7e,0x00,0x64,0x7e,0x81,0x63,0x58,0x00,0x00,0x64,0x00,0x81,0x7d,
0x58,0x7e,0x00,0x64,0x7e,0x81,0x63,0x58,0x00,0x00,0x64,0x00,0x81,0x7d,0x58,0x7e,
0x00,0x64,0x7e,0x81,0x63,0x58,0x00,0x00,0x64,0x00,0x81,0x7d,0x58,0x7e,0x00,0x64,
0x7e,0x81,0x63,0x58,0x00,0x00,0x64,0x00,0x81,0x7d,0x58,0x7e,0x00,0x64,0x7e,0x81,
0x63,0x58,0x00,0x00,0x64,0x00,0x81,0x7d,0x58,0x7e,0x00,0x64,0x7e,0x81,0x63,0x58,
0x00,0x00,0x64,0x00,0x81,0x7d,0x58,0x7e,0x00,0x64,0x7e,0x81,0x63,0x58,0x00,0x00,
0x64,0x00,0x81,0x7d,0x58,0x7e,0x00,0x64,0x7e,0x81,0x63,0x58,0x00,0x00,0x64,0x00,
0x81,0x7d,0x58,0x7e,0x00,0x64,0x7e,0x81,0x63,0x58,0x00,0x00,0x64,0x00,0x81,0x7d,
0x58,0x7e,0x00,0x64,0x7e,0x81,0x63,0x58,0x00,0x00,0x64,0x00,0x81,0x7d,0x58,0x7e,
0x00,0x64,0x7e,0x81,0x63,0x58,0x00,0x00,0x64,0x00,0x81,0x7d,0x58,0x7e,0x00,0x64,
0x7e,0x81,0x63,0x58,0x00,0x00,0x64,0x00,0x81,0x7d,0x58,0x7e,0x00,0x64,0x7e,0x81,
0x63,0x58,0x00,0x00,0x64,0x00,0x81,0x7d,0x58,0x7e,0x00,0x64,0x7e,0x81,0x63,0x58,
0x00,0x00,0x64,0x00,0x81,0x7d,0x58,0x7e,0x00,0x64,0x7e,0x81,0x63,0x58,0x00,0x00,
0x64,0x00,0x81,0x7d,0x58,0x7e,0x00,0x64,0x7e,0x81,0x63,0x58,0x00,0x00,0x64,0x00,
0x81,0x7d,0x58,0x7e,0x00,0x64,0x7e,0x81,0x63,0x58,0x00,0x00,0x64,0x00,0x81,0x7d,
0x58,0x7e,0x00,0x64,0x7e,0x81,0x63,0x58,0x00,0x00,0x64,0x00,0x81,0x7d,0x58,0x7e,
0x00,0x64,0x7e,0x81,0x63,0x58,0x00,0x00,0x64,0x00,0x81,0x7d,0x58,0x7e,0x00,0x64,
0x7e,0x81,0x63,0x58,0x00,0x00,0x64,0x00,0x81,0x7d,0x58,0x7e,0x00,0x64,0x7e,0x81,
0x63,0x58,0x00,0x00,0x64,0x00,0x81,0x7d,0x58,0x7e,0x00,0x64,0x7e,0x81,0x63,0x58,
0x00,0x00,0x64,0x00,0x81,0x7d,0x58,0x7e,0x00,0x64,0x7e,0x81,0x63,0x58,0x00,0x00,
0x64,0x00,0x81,0x7d,0x58,0x7e,0x00,0x64,0x7e,0x81,0x63,0x58,0x00,0x00,0x64,0x00,
0x81,0x7d,0x58,0x7e,0x00,0x64,0x7e,0x81,0x63,0x58,0x00,0x00,0x64,0x00,0x81,0x7d,
0x58,0x7e,0x00,0x64,0x7e,0x81,0x63,0x58,0x00,0x00,0x64,0x00,0x81,0x7d,0x58,0x7e,
0x00,0x64,0x7e,0x81,0x63,0x58,0x00,0x00,0x64,0x00,0x81,0x7d,0x58,0x7e,0x00,0x64,
0x7e,0x81,0x63,0x58,0x00,0x00,0x64,0x00,0x81,0x7d,0x58,0x7e,0x00,0x64,0x7e,0x81,
0x63,0x58,0x00,0x00,0x64,0x00,0x81,0x7d,0x58,0x7e,0x00,0x64,0x7e,0x81,0x63,0x58,
0x00,0x00,0x64,0x00,0x81,0x7d,0x58,0x7e,0x00,0x64,0x7e,0x81,0x63,0x58,0x00,0x00,
0x64,0x00,0x81,0x7d,0x58,0x7e,0x00,0x64,0x7e,0x81,0x63,0x58,0x00,0x00,0x64,0x00,
0x81,0x7d,0x58,0x7e,0x00,0x64,0x7e,0x81,0x63,0x58,0x00,0x00,0x64,0x00,0x81,0x7d,
0x58,0x7e,0x00,0x64,0x7e,0x81,0x63,0x58,0x00,0x00,0x64,0x00,0x81,0x7d,0x58,0x7e,
0x00,0x64,0x7e,0x81,0x63,0x58,0x00,0x00,0x64,0x00,0x81,0x7d,0x58,0x79,0x00,0x64,
0x79,0x81,0x63,0x58,0x00,0x00,0x64,0x00,0x81,0x7d,0x58,0x73,0x00,0x64,0x73,0x81,
0x63,0x58,0x00,0x00,0x64,0x00,0x81,0x7d,0x58,0x6e,0x00,0x64,0x6e,0x81,0x63,0x58,
0x00,0x00,0x64,0x00,0x81,0x7d,0x58,0x68,0x00,0x64,0x68,0x81,0x63,0x58,0x00,0x00,
0x64,0x00,0x81,0x7d,0x58,0x62,0x00,0x64,0x62,0x81,0x63,0x58,0x00,0x00,0x64,0x00,
0x81,0x7d,0x58,0x5d,0x00,0x64,0x5d,0x81,0x63,0x58,0x00,0x00,0x64,0x00,0x81,0x7d,
0x58,0x57,0x00,0x64,0x57,0x81,0x63,0x58,0x00,0x00,0x64,0x00,0x81,0x7d,0x58,0x51,
0x00,0x64,0x51,0x81,0x63,0x58,0x00,0x00,0x64,0x00,0x81,0x7d,0x58,0x4c,0x00,0x64,
0x4c,0x81,0x63,0x58,0x00,0x00,0x64,0x00,0x81,0x7d,0x58,0x46,0x00,0x64,0x46,0x81,
0x63,0x58,0x00,0x00,0x64,0x00,0x81,0x7d,0x58,0x40,0x00,0x64,0x40,0x81,0x63,0x58,
0x00,0x00,0x64,0x00,0x01,0xff,0x2f,0x00,0x4d,0x54,0x72,0x6b,0x00,0x00,0x0e,0x2f,
0x00,0xff,0x59,0x02,0x00,0x00,0x00,0xb0,0x79,0x00,0x00,0xc0,0x13,0x00,0xb0,0x07,
0x65,0x00,0x0a,0x40,0x00,0x5b,0x00,0x00,0x5d,0x00,0x00,0xff,0x21,0x01,0x01,0x00,
0x90,0x4c,0x21,0x81,0x6f,0x4c,0x00,0x01,0x4c,0x21,0x81,0x6f,0x4c,0x00,0x01,0x4c,
0x21,0x81,0x6f,0x4c,0x00,0x01,0x4c,0x21,0x81,0x6f,0x4c,0x00,0x01,0x4c,0x21,0x81,
0x6f,0x4c,0x00,0x01,0x4c,0x21,0x81,0x6f,0x4c,0x00,0x01,0x4c,0x21,0x81,0x6f,0x4c,
0x00,0x01,0x4c,0x21,0x81,0x6f,0x4c,0x00,0x01,0x4c,0x21,0x81,0x6f,0x4c,0x00,0x01,
0x4c,0x23,0x81,0x6f,0x4c,0x00,0x01,0x4c,0x25,0x81,0x6f,0x4c,0x00,0x01,0x4c,0x27,
0x81,0x6f,0x4c,0x00,0x01,0x4c,0x29,0x81,0x6f,0x4c,0x00,0x01,0x4c,0x2b,0x81,0x6f,
0x4c,0x00,0x01,0x4c,0x2d,0x81,0x6f,0x4c,0x00,0x01,0x4c,0x2f,0x81,0x6f,0x4c,0x00,
0x01,0x45,0x31,0x00,0x4c,0x31,0x81,0x6f,0x45,0x00,0x00,0x4c,0x00,0x01,0x4c,0x31,
0x81,0x6f,0x4c,0x00,0x01,0x48,0x31,0x00,0x4c,0x31,0x81,0x6f,0x48,0x00,0x00,0x4c,
0x00,0x01,0x4c,0x31,0x81,0x6f,0x4c,0x00,0x01,0x45,0x31,0x00,0x4c,0x31,0x81,0x6f,
0x45,0x00,0x00,0x4c,0x00,0x01,0x4c,0x31,0x81,0x6f,0x4c,0x00,0x01,0x48,0x31,0x00,
0x4c,0x31,0x81,0x6f,0x48,0x00,0x00,0x4c,0x00,0x01,0x4c,0x31,0x81,0x6f,0x4c,0x00,
0x01,0x45,0x31,0x00,0x4c,0x31,0x81,0x6f,0x45,0x00,0x00,0x4c,0x00,0x01,0x4c,0x31,
0x81,0x6f,0x4c,0x00,0x01,0x48,0x31,0x00,0x4c,0x31,0x81,0x6f,0x48,0x00,0x00,0x4c,
0x00,0x01,0x4c,0x31,0x81,0x6f,0x4c,0x00,0x01,0x45,0x31,0x00,0x4c,0x31,0x81,0x6f,
0x45,0x00,0x00,0x4c,0x00,0x01,0x4c,0x31,0x81,0x6f,0x4c,0x00,0x01,0x48,0x31,0x00,
0x4c,0x31,0x81,0x6f,0x48,0x00,0x00,0x4c,0x00,0x01,0x4c,0x31,0x81,0x6f,0x4c,0x00,
0x01,0x45,0x31,0x00,0x4c,0x31,0x81,0x6f,0x45,0x00,0x00,0x4c,0x00,0x01,0x4c,0x34,
0x81,0x6f,0x4c,0x00,0x01,0x48,0x37,0x00,0x4c,0x37,0x81,0x6f,0x48,0x00,0x00,0x4c,
0x00,0x01,0x4c,0x3a,0x81,0x6f,0x4c,0x00,0x01,0x45,0x3d,0x00,0x4c,0x3d,0x81,0x6f,
0x45,0x00,0x00,0x4c,0x00,0x01,0x4c,0x40,0x81,0x6f,0x4c,0x00,0x01,0x48,0x43,0x00,
0x4c,0x43,0x81,0x6f,0x48,0x00,0x00,0x4c,0x00,0x01,0x4c,0x46,0x81,0x6f,0x4c,0x00,
0x01,0x45,0x49,0x00,0x4c,0x49,0x81,0x6f,0x45,0x00,0x00,0x4c,0x00,0x01,0x4c,0x4c,
0x81,0x6f,0x4c,0x00,0x01,0x45,0x50,0x00,0x4c,0x50,0x00,0x51,0x50,0x77,0x45,0x00,
0x00,0x4c,0x00,0x00,0x51,0x00,0x82,0x69,0x45,0x50,0x00,0x4c,0x50,0x00,0x51,0x50,
0x00,0x54,0x50,0x77,0x45,0x00,0x00,0x4c,0x00,0x00,0x51,0x00,0x00,0x54,0x00,0x82,
0x69,0x45,0x50,0x00,0x4c,0x50,0x00,0x51,0x50,0x00,0x54,0x50,0x77,0x45,0x00,0x00,
0x4c,0x00,0x00,0x51,0x00,0x00,0x54,0x00,0x82,0x69,0x43,0x50,0x00,0x4c,0x50,0x00,
0x53,0x50,0x77,0x43,0x00,0x00,0x4c,0x00,0x00,0x53,0x00,0x82,0x69,0x43,0x50,0x00,
0x4c,0x50,0x00,0x53,0x50,0x77,0x43,0x00,0x00,0x4c,0x00,0x00,0x53,0x00,0x82,0x69,
0x43,0x50,0x00,0x4c,0x50,0x00,0x53,0x50,0x77,0x43,0x00,0x00,0x4c,0x00,0x00,0x53,
0x00,0x82,0x69,0x43,0x50,0x00,0x4c,0x50,0x00,0x53,0x50,0x77,0x43,0x00,0x00,0x4c,
0x00,0x00,0x53,0x00,0x82,0x69,0x43,0x50,0x00,0x4c,0x50,0x00,0x53,0x50,0x77,0x43,
0x00,0x00,0x4c,0x00,0x00,0x53,0x00,0x82,0x69,0x43,0x50,0x00,0x4c,0x50,0x00,0x53,
0x50,0x77,0x43,0x00,0x00,0x4c,0x00,0x00,0x53,0x00,0x82,0x69,0x45,0x50,0x00,0x4c,
0x50,0x00,0x51,0x50,0x77,0x45,0x00,0x00,0x4c,0x00,0x00,0x51,0x00,0x82,0x69,0x47,
0x50,0x00,0x4c,0x50,0x00,0x53,0x50,0x77,0x47,0x00,0x00,0x4c,0x00,0x00,0x53,0x00,
0x82,0x69,0x45,0x50,0x00,0x4c,0x50,0x00,0x54,0x50,0x77,0x45,0x00,0x00,0x4c,0x00,
0x00,0x54,0x00,0x82,0x69,0x47,0x50,0x00,0x4c,0x50,0x00,0x53,0x50,0x77,0x47,0x00,
0x00,0x4c,0x00,0x00,0x53,0x00,0x82,0x69,0x45,0x50,0x00,0x4c,0x50,0x00,0x51,0x50,
0x77,0x45,0x00,0x00,0x4c,0x00,0x00,0x51,0x00,0x82,0x69,0x47,0x50,0x00,0x4c,0x50,
0x00,0x53,0x50,0x77,0x47,0x00,0x00,0x4c,0x00,0x00,0x53,0x00,0x82,0x69,0x45,0x50,
0x00,0x4c,0x50,0x00,0x54,0x50,0x77,0x45,0x00,0x00,0x4c,0x00,0x00,0x54,0x00,0x82,
0x69,0x45,0x50,0x00,0x4c,0x50,0x00,0x54,0x50,0x77,0x45,0x00,0x00,0x4c,0x00,0x00,
0x54,0x00,0x82,0x69,0x45,0x50,0x00,0x4c,0x50,0x00,0x54,0x50,0x77,0x45,0x00,0x00,
0x4c,0x00,0x00,0x54,0x00,0x82,0x69,0x43,0x50,0x00,0x4c,0x50,0x00,0x53,0x50,0x77,
0x43,0x00,0x00,0x4c,0x00,0x00,0x53,0x00,0x82,0x69,0x43,0x50,0x00,0x4c,0x50,0x00,
0x53,0x50,0x77,0x43,0x00,0x00,0x4c,0x00,0x00,0x53,0x00,0x82,0x69,0x43,0x50,0x00,
0x4c,0x50,0x00,0x53,0x50,0x77,0x43,0x00,0x00,0x4c,0x00,0x00,0x53,0x00,0x82,0x69,
0x43,0x50,0x00,0x4c,0x50,0x00,0x53,0x50,0x77,0x43,0x00,0x00,0x4c,0x00,0x00,0x53,
0x00,0x82,0x69,0x43,0x50,0x00,0x4c,0x50,0x00,0x53,0x50,0x77,0x43,0x00,0x00,0x4c,
0x00,0x00,0x53,0x00,0x82,0x69,0x43,0x50,0x00,0x4c,0x50,0x00,0x53,0x50,0x77,0x43,
0x00,0x00,0x4c,0x00,0x00,0x53,0x00,0x82,0x69,0x45,0x50,0x00,0x4c,0x50,0x00,0x51,
0x50,0x81,0x6f,0x45,0x00,0x00,0x4c,0x00,0x00,0x51,0x00,0x81,0x71,0x45,0x50,0x00,
0x4c,0x50,0x00,0x51,0x50,0x81,0x6f,0x45,0x00,0x00,0x4c,0x00,0x00,0x51,0x00,0x81,
0x71,0x45,0x50,0x00,0x4c,0x50,0x00,0x51,0x50,0x81,0x6f,0x45,0x00,0x00,0x4c,0x00,
0x00,0x51,0x00,0x81,0x71,0x45,0x50,0x00,0x4c,0x50,0x00,0x54,0x50,0x81,0x6f,0x45,
0x00,0x00,0x4c,0x00,0x00,0x54,0x00,0x81,0x71,0x45,0x50,0x00,0x4c,0x50,0x00,0x54,
0x50,0x81,0x6f,0x45,0x00,0x00,0x4c,0x00,0x00,0x54,0x00,0x81,0x71,0x45,0x50,0x00,
0x4c,0x50,0x00,0x54,0x50,0x81,0x6f,0x45,0x00,0x00,0x4c,0x00,0x00,0x54,0x00,0x81,
0x71,0x43,0x50,0x00,0x4c,0x50,0x00,0x53,0x50,0x77,0x43,0x00,0x00,0x4c,0x00,0x00,
0x53,0x00,0x82,0x69,0x43,0x50,0x00,0x4c,0x50,0x00,0x53,0x50,0x77,0x43,0x00,0x00,
0x4c,0x00,0x00,0x53,0x00,0x82,0x69,0x43,0x50,0x00,0x4c,0x50,0x00,0x53,0x50,0x77,
0x43,0x00,0x00,0x4c,0x00,0x00,0x53,0x00,0x82,0x69,0x43,0x50,0x00,0x4c,0x50,0x00,
0x53,0x50,0x77,0x43,0x00,0x00,0x4c,0x00,0x00,0x53,0x00,0x82,0x69,0x43,0x50,0x00,
0x4c,0x50,0x00,0x53,0x50,0x77,0x43,0x00,0x00,0x4c,0x00,0x00,0x53,0x00,0x82,0x69,
0x43,0x50,0x00,0x4c,0x50,0x00,0x53,0x50,0x77,0x43,0x00,0x00,0x4c,0x00,0x00,0x53,
0x00,0x82,0x69,0x45,0x50,0x00,0x4c,0x50,0x00,0x51,0x50,0x77,0x45,0x00,0x00,0x4c,
0x00,0x00,0x51,0x00,0x82,0x69,0x45,0x50,0x00,0x4c,0x50,0x00,0x51,0x50,0x77,0x45,
0x00,0x00,0x4c,0x00,0x00,0x51,0x00,0x82,0x69,0x45,0x50,0x00,0x4c,0x50,0x00,0x54,
0x50,0x77,0x45,0x00,0x00,0x4c,0x00,0x00,0x54,0x00,0x82,0x69,0x47,0x50,0x00,0x4c,
0x50,0x00,0x53,0x50,0x77,0x47,0x00,0x00,0x4c,0x00,0x00,0x53,0x00,0x82,0x69,0x45,
0x50,0x00,0x4c,0x50,0x00,0x51,0x50,0x77,0x45,0x00,0x00,0x4c,0x00,0x00,0x51,0x00,
0x82,0x69,0x47,0x50,0x00,0x4c,0x50,0x00,0x53,0x50,0x77,0x47,0x00,0x00,0x4c,0x00,
0x00,0x53,0x00,0x82,0x69,0x45,0x50,0x00,0x4c,0x50,0x00,0x54,0x50,0x77,0x45,0x00,
0x00,0x4c,0x00,0x00,0x54,0x00,0x82,0x69,0x45,0x50,0x00,0x4c,0x50,0x00,0x54,0x50,
0x77,0x45,0x00,0x00,0x4c,0x00,0x00,0x54,0x00,0x82,0x69,0x45,0x50,0x00,0x4c,0x50,
0x00,0x54,0x50,0x77,0x45,0x00,0x00,0x4c,0x00,0x00,0x54,0x00,0x82,0x69,0x43,0x50,
0x00,0x4c,0x50,0x00,0x53,0x50,0x77,0x43,0x00,0x00,0x4c,0x00,0x00,0x53,0x00,0x82,
0x69,0x43,0x50,0x00,0x4c,0x50,0x00,0x53,0x50,0x77,0x43,0x00,0x00,0x4c,0x00,0x00,
0x53,0x00,0x82,0x69,0x43,0x50,0x00,0x4c,0x50,0x00,0x53,0x50,0x77,0x43,0x00,0x00,
0x4c,0x00,0x00,0x53,0x00,0x82,0x69,0x43,0x50,0x00,0x4c,0x50,0x00,0x53,0x50,0x77,
0x43,0x00,0x00,0x4c,0x00,0x00,0x53,0x00,0x82,0x69,0x43,0x50,0x00,0x4c,0x50,0x00,
0x53,0x50,0x77,0x43,0x00,0x00,0x4c,0x00,0x00,0x53,0x00,0x82,0x69,0x43,0x50,0x00,
0x4c,0x50,0x00,0x53,0x50,0x77,0x43,0x00,0x00,0x4c,0x00,0x00,0x53,0x00,0x82,0x69,
0x45,0x50,0x00,0x4c,0x50,0x00,0x51,0x50,0x77,0x45,0x00,0x00,0x4c,0x00,0x00,0x51,
0x00,0x82,0x69,0x45,0x50,0x00,0x4c,0x50,0x00,0x51,0x50,0x77,0x45,0x00,0x00,0x4c,
0x00,0x00,0x51,0x00,0x82,0x69,0x45,0x50,0x00,0x4c,0x50,0x00,0x54,0x50,0x77,0x45,
0x00,0x00,0x4c,0x00,0x00,0x54,0x00,0x82,0x69,0x45,0x50,0x00,0x4c,0x50,0x00,0x54,
0x50,0x77,0x45,0x00,0x00,0x4c,0x00,0x00,0x54,0x00,0x82,0x69,0x45,0x50,0x00,0x4c,
0x50,0x00,0x54,0x50,0x77,0x45,0x00,0x00,0x4c,0x00,0x00,0x54,0x00,0x82,0x69,0x45,
0x50,0x00,0x4c,0x50,0x00,0x54,0x50,0x77,0x45,0x00,0x00,0x4c,0x00,0x00,0x54,0x00,
0x82,0x69,0x43,0x50,0x00,0x4c,0x50,0x00,0x53,0x50,0x77,0x43,0x00,0x00,0x4c,0x00,
0x00,0x53,0x00,0x82,0x69,0x43,0x50,0x00,0x4c,0x50,0x00,0x53,0x50,0x77,0x43,0x00,
0x00,0x4c,0x00,0x00,0x53,0x00,0x82,0x69,0x43,0x50,0x00,0x4c,0x50,0x00,0x53,0x50,
0x77,0x43,0x00,0x00,0x4c,0x00,0x00,0x53,0x00,0x82,0x69,0x43,0x50,0x00,0x4c,0x50,
0x00,0x53,0x50,0x77,0x43,0x00,0x00,0x4c,0x00,0x00,0x53,0x00,0x82,0x69,0x43,0x50,
0x00,0x4c,0x50,0x00,0x53,0x50,0x77,0x43,0x00,0x00,0x4c,0x00,0x00,0x53,0x00,0x82,
0x69,0x43,0x50,0x00,0x4c,0x50,0x00,0x53,0x50,0x77,0x43,0x00,0x00,0x4c,0x00,0x00,
0x53,0x00,0x82,0x69,0x45,0x50,0x00,0x4c,0x50,0x00,0x51,0x50,0x77,0x45,0x00,0x00,
0x4c,0x00,0x00,0x51,0x00,0x82,0x69,0x45,0x50,0x00,0x4c,0x50,0x00,0x54,0x50,0x77,
0x45,0x00,0x00,0x4c,0x00,0x00,0x54,0x00,0x82,0x69,0x45,0x50,0x00,0x4c,0x50,0x00,
0x54,0x50,0x77,0x45,0x00,0x00,0x4c,0x00,0x00,0x54,0x00,0x82,0x69,0x47,0x50,0x00,
0x4c,0x50,0x00,0x53,0x50,0x77,0x47,0x00,0x00,0x4c,0x00,0x00,0x53,0x00,0x82,0x69,
0x45,0x50,0x00,0x4c,0x50,0x00,0x51,0x50,0x77,0x45,0x00,0x00,0x4c,0x00,0x00,0x51,
0x00,0x82,0x69,0x47,0x50,0x00,0x4c,0x50,0x00,0x53,0x50,0x77,0x47,0x00,0x00,0x4c,
0x00,0x00,0x53,0x00,0x82,0x69,0x45,0x50,0x00,0x4c,0x50,0x00,0x54,0x50,0x77,0x45,
0x00,0x00,0x4c,0x00,0x00,0x54,0x00,0x82,0x69,0x45,0x50,0x00,0x4c,0x50,0x00,0x54,
0x50,0x77,0x45,0x00,0x00,0x4c,0x00,0x00,0x54,0x00,0x82,0x69,0x45,0x50,0x00,0x4c,
0x50,0x00,0x54,0x50,0x77,0x45,0x00,0x00,0x4c,0x00,0x00,0x54,0x00,0x82,0x69,0x47,
0x50,0x00,0x4c,0x50,0x00,0x56,0x50,0x77,0x47,0x00,0x00,0x4c,0x00,0x00,0x56,0x00,
0x82,0x69,0x47,0x50,0x00,0x4c,0x50,0x00,0x56,0x50,0x77,0x47,0x00,0x00,0x4c,0x00,
0x00,0x56,0x00,0x82,0x69,0x47,0x50,0x00,0x4c,0x50,0x00,0x56,0x50,0x77,0x47,0x00,
0x00,0x4c,0x00,0x00,0x56,0x00,0x82,0x69,0x40,0x64,0x00,0x4c,0x64,0x77,0x40,0x00,
0x00,0x4c,0x00,0x79,0x42,0x64,0x00,0x4e,0x64,0x77,0x42,0x00,0x00,0x4e,0x00,0x79,
0x43,0x64,0x00,0x4f,0x64,0x77,0x43,0x00,0x00,0x4f,0x00,0x79,0x42,0x64,0x00,0x4e,
0x64,0x77,0x42,0x00,0x00,0x4e,0x00,0x79,0x40,0x64,0x00,0x4c,0x64,0x77,0x40,0x00,
0x00,0x4c,0x00,0x79,0x43,0x64,0x00,0x4f,0x64,0x77,0x43,0x00,0x00,0x4f,0x00,0x79,
0x42,0x64,0x00,0x4e,0x64,0x77,0x42,0x00,0x00,0x4e,0x00,0x79,0x40,0x64,0x00,0x4c,
0x64,0x77,0x40,0x00,0x00,0x4c,0x00,0x79,0x3e,0x64,0x00,0x4a,0x64,0x77,0x3e,0x00,
0x00,0x4a,0x00,0x79,0x40,0x64,0x00,0x4c,0x64,0x77,0x40,0x00,0x00,0x4c,0x00,0x79,
0x42,0x64,0x00,0x4e,0x64,0x77,0x42,0x00,0x00,0x4e,0x00,0x79,0x3e,0x64,0x00,0x4a,
0x64,0x77,0x3e,0x00,0x00,0x4a,0x00,0x79,0x40,0x64,0x00,0x4c,0x64,0x77,0x40,0x00,
0x00,0x4c,0x00,0x79,0x42,0x64,0x00,0x4e,0x64,0x77,0x42,0x00,0x00,0x4e,0x00,0x79,
0x43,0x64,0x00,0x4f,0x64,0x77,0x43,0x00,0x00,0x4f,0x00,0x79,0x42,0x64,0x00,0x4e,
0x64,0x77,0x42,0x00,0x00,0x4e,0x00,0x79,0x40,0x64,0x00,0x4c,0x64,0x77,0x40,0x00,
0x00,0x4c,0x00,0x79,0x43,0x64,0x00,0x4f,0x64,0x77,0x43,0x00,0x00,0x4f,0x00,0x79,
0x42,0x64,0x00,0x4e,0x64,0x77,0x42,0x00,0x00,0x4e,0x00,0x79,0x40,0x64,0x00,0x4c,
0x64,0x77,0x40,0x00,0x00,0x4c,0x00,0x79,0x42,0x64,0x00,0x4e,0x64,0x77,0x42,0x00,
0x00,0x4e,0x00,0x79,0x43,0x64,0x00,0x4f,0x64,0x77,0x43,0x00,0x00,0x4f,0x00,0x79,
0x42,0x64,0x00,0x4e,0x64,0x77,0x42,0x00,0x00,0x4e,0x00,0x79,0x47,0x64,0x00,0x53,
0x64,0x77,0x47,0x00,0x00,0x53,0x00,0x79,0x40,0x60,0x00,0x4c,0x60,0x77,0x40,0x00,
0x00,0x4c,0x00,0x79,0x42,0x60,0x00,0x4e,0x60,0x77,0x42,0x00,0x00,0x4e,0x00,0x79,
0x43,0x60,0x00,0x4f,0x60,0x77,0x43,0x00,0x00,0x4f,0x00,0x79,0x42,0x60,0x00,0x4e,
0x60,0x77,0x42,0x00,0x00,0x4e,0x00,0x79,0x40,0x60,0x00,0x4c,0x60,0x77,0x40,0x00,
0x00,0x4c,0x00,0x79,0x43,0x60,0x00,0x4f,0x60,0x77,0x43,0x00,0x00,0x4f,0x00,0x79,
0x42,0x60,0x00,0x4e,0x60,0x77,0x42,0x00,0x00,0x4e,0x00,0x79,0x40,0x60,0x00,0x4c,
0x60,0x77,0x40,0x00,0x00,0x4c,0x00,0x79,0x42,0x60,0x00,0x4e,0x60,0x77,0x42,0x00,
0x00,0x4e,0x00,0x79,0x43,0x60,0x00,0x4f,0x60,0x77,0x43,0x00,0x00,0x4f,0x00,0x79,
0x42,0x60,0x00,0x4e,0x60,0x77,0x42,0x00,0x00,0x4e,0x00,0x79,0x47,0x60,0x00,0x53,
0x60,0x77,0x47,0x00,0x00,0x53,0x00,0x79,0x40,0x60,0x00,0x4c,0x60,0x77,0x40,0x00,
0x00,0x4c,0x00,0x79,0x42,0x60,0x00,0x4e,0x60,0x77,0x42,0x00,0x00,0x4e,0x00,0x79,
0x43,0x60,0x00,0x4f,0x60,0x77,0x43,0x00,0x00,0x4f,0x00,0x79,0x42,0x60,0x00,0x4e,
0x60,0x77,0x42,0x00,0x00,0x4e,0x00,0x79,0x40,0x60,0x00,0x4c,0x60,0x77,0x40,0x00,
0x00,0x4c,0x00,0x79,0x43,0x60,0x00,0x4f,0x60,0x77,0x43,0x00,0x00,0x4f,0x00,0x79,
0x42,0x60,0x00,0x4e,0x60,0x77,0x42,0x00,0x00,0x4e,0x00,0x79,0x40,0x60,0x00,0x4c,
0x60,0x77,0x40,0x00,0x00,0x4c,0x00,0x79,0x3e,0x60,0x00,0x4a,0x60,0x77,0x3e,0x00,
0x00,0x4a,0x00,0x79,0x40,0x60,0x00,0x4c,0x60,0x77,0x40,0x00,0x00,0x4c,0x00,0x79,
0x42,0x60,0x00,0x4e,0x60,0x77,0x42,0x00,0x00,0x4e,0x00,0x79,0x3e,0x60,0x00,0x4a,
0x60,0x77,0x3e,0x00,0x00,0x4a,0x00,0x79,0x40,0x60,0x00,0x4c,0x60,0x77,0x40,0x00,
0x00,0x4c,0x00,0x79,0x42,0x60,0x00,0x4e,0x60,0x77,0x42,0x00,0x00,0x4e,0x00,0x79,
0x43,0x60,0x00,0x4f,0x60,0x77,0x43,0x00,0x00,0x4f,0x00,0x79,0x42,0x60,0x00,0x4e,
0x60,0x77,0x42,0x00,0x00,0x4e,0x00,0x79,0x40,0x60,0x00,0x4c,0x60,0x77,0x40,0x00,
0x00,0x4c,0x00,0x79,0x43,0x60,0x00,0x4f,0x60,0x77,0x43,0x00,0x00,0x4f,0x00,0x79,
0x42,0x60,0x00,0x4e,0x60,0x77,0x42,0x00,0x00,0x4e,0x00,0x79,0x40,0x60,0x00,0x4c,
0x60,0x77,0x40,0x00,0x00,0x4c,0x00,0x79,0x42,0x60,0x00,0x4e,0x60,0x77,0x42,0x00,
0x00,0x4e,0x00,0x79,0x43,0x60,0x00,0x4f,0x60,0x77,0x43,0x00,0x00,0x4f,0x00,0x79,
0x42,0x60,0x00,0x4e,0x60,0x77,0x42,0x00,0x00,0x4e,0x00,0x79,0x47,0x60,0x00,0x53,
0x60,0x77,0x47,0x00,0x00,0x53,0x00,0x79,0x40,0x60,0x00,0x4c,0x60,0x77,0x40,0x00,
0x00,0x4c,0x00,0x79,0x42,0x60,0x00,0x4e,0x60,0x77,0x42,0x00,0x00,0x4e,0x00,0x79,
0x43,0x60,0x00,0x4f,0x60,0x77,0x43,0x00,0x00,0x4f,0x00,0x79,0x42,0x60,0x00,0x4e,
0x60,0x77,0x42,0x00,0x00,0x4e,0x00,0x79,0x40,0x60,0x00,0x4c,0x60,0x77,0x40,0x00,
0x00,0x4c,0x00,0x79,0x43,0x60,0x00,0x4f,0x60,0x77,0x43,0x00,0x00,0x4f,0x00,0x79,
0x42,0x60,0x00,0x4e,0x60,0x77,0x42,0x00,0x00,0x4e,0x00,0x79,0x40,0x60,0x00,0x4c,
0x60,0x77,0x40,0x00,0x00,0x4c,0x00,0x79,0x3e,0x60,0x00,0x4a,0x60,0x77,0x3e,0x00,
0x00,0x4a,0x00,0x79,0x40,0x60,0x00,0x4c,0x60,0x77,0x40,0x00,0x00,0x4c,0x00,0x79,
0x42,0x60,0x00,0x4e,0x60,0x77,0x42,0x00,0x00,0x4e,0x00,0x79,0x3e,0x60,0x00,0x4a,
0x60,0x77,0x3e,0x00,0x00,0x4a,0x00,0x79,0x41,0x50,0x00,0x45,0x50,0x00,0x48,0x50,
0x82,0x67,0x41,0x00,0x00,0x45,0x00,0x00,0x48,0x00,0x88,0x39,0x41,0x50,0x00,0x45,
0x50,0x00,0x48,0x50,0x82,0x67,0x41,0x00,0x00,0x45,0x00,0x00,0x48,0x00,0x79,0x41,
0x50,0x00,0x45,0x50,0x00,0x48,0x50,0x77,0x41,0x00,0x00,0x45,0x00,0x00,0x48,0x00,
0x01,0x43,0x50,0x00,0x47,0x50,0x00,0x4a,0x50,0x82,0x67,0x43,0x00,0x00,0x47,0x00,
0x00,0x4a,0x00,0x87,0x41,0x43,0x50,0x00,0x47,0x50,0x00,0x4a,0x50,0x82,0x67,0x43,
0x00,0x00,0x47,0x00,0x00,0x4a,0x00,0x79,0x45,0x50,0x00,0x48,0x50,0x00,0x4c,0x50,
0x82,0x67,0x45,0x00,0x00,0x48,0x00,0x00,0x4c,0x00,0x88,0x39,0x45,0x50,0x00,0x48,
0x50,0x00,0x4c,0x50,0x82,0x67,0x45,0x00,0x00,0x48,0x00,0x00,0x4c,0x00,0x79,0x43,
0x50,0x00,0x47,0x50,0x00,0x4a,0x50,0x82,0x67,0x43,0x00,0x00,0x47,0x00,0x00,0x4a,
0x00,0x88,0x39,0x43,0x50,0x00,0x47,0x50,0x00,0x4a,0x50,0x81,0x33,0x43,0x00,0x00,
0x47,0x00,0x00,0x4a,0x00,0x3d,0x43,0x50,0x00,0x47,0x50,0x00,0x4a,0x50,0x81,0x33,
0x43,0x00,0x00,0x47,0x00,0x00,0x4a,0x00,0x3d,0x41,0x50,0x00,0x45,0x50,0x00,0x48,
0x50,0x00,0x4d,0x50,0x82,0x67,0x41,0x00,0x00,0x45,0x00,0x00,0x48,0x00,0x00,0x4d,
0x00,0x88,0x39,0x41,0x50,0x00,0x45,0x50,0x00,0x48,0x50,0x00,0x4d,0x50,0x82,0x67,
0x41,0x00,0x00,0x45,0x00,0x00,0x48,0x00,0x00,0x4d,0x00,0x79,0x41,0x50,0x00,0x45,
0x50,0x00,0x48,0x50,0x00,0x4d,0x50,0x77,0x41,0x00,0x00,0x45,0x00,0x00,0x48,0x00,
0x00,0x4d,0x00,0x01,0x43,0x50,0x00,0x47,0x50,0x00,0x4a,0x50,0x00,0x4f,0x50,0x82,
0x67,0x43,0x00,0x00,0x47,0x00,0x00,0x4a,0x00,0x00,0x4f,0x00,0x87,0x41,0x43,0x50,
0x00,0x47,0x50,0x00,0x4a,0x50,0x00,0x4f,0x50,0x82,0x67,0x43,0x00,0x00,0x47,0x00,
0x00,0x4a,0x00,0x00,0x4f,0x00,0x79,0x45,0x50,0x00,0x48,0x50,0x00,0x4c,0x50,0x00,
0x51,0x50,0x82,0x67,0x45,0x00,0x00,0x48,0x00,0x00,0x4c,0x00,0x00,0x51,0x00,0x88,
0x39,0x45,0x50,0x00,0x48,0x50,0x00,0x4c,0x50,0x00,0x51,0x50,0x82,0x67,0x45,0x00,
0x00,0x48,0x00,0x00,0x4c,0x00,0x00,0x51,0x00,0x79,0x41,0x50,0x00,0x45,0x50,0x00,
0x48,0x50,0x82,0x67,0x41,0x00,0x00,0x45,0x00,0x00,0x48,0x00,0x88,0x39,0x41,0x50,
0x00,0x45,0x50,0x00,0x48,0x50,0x82,0x67,0x41,0x00,0x00,0x45,0x00,0x00,0x48,0x00,
0x79,0x41,0x50,0x00,0x45,0x50,0x00,0x48,0x50,0x77,0x41,0x00,0x00,0x45,0x00,0x00,
0x48,0x00,0x01,0x43,0x50,0x00,0x47,0x50,0x00,0x4a,0x50,0x82,0x67,0x43,0x00,0x00,
0x47,0x00,0x00,0x4a,0x00,0x87,0x41,0x43,0x50,0x00,0x47,0x50,0x00,0x4a,0x50,0x82,
0x67,0x43,0x00,0x00,0x47,0x00,0x00,0x4a,0x00,0x79,0x45,0x50,0x00,0x48,0x50,0x00,
0x4c,0x50,0x82,0x67,0x45,0x00,0x00,0x48,0x00,0x00,0x4c,0x00,0x88,0x39,0x45,0x50,
0x00,0x48,0x50,0x00,0x4c,0x50,0x82,0x67,0x45,0x00,0x00,0x48,0x00,0x00,0x4c,0x00,
0x79,0x43,0x50,0x00,0x47,0x50,0x00,0x4a,0x50,0x82,0x67,0x43,0x00,0x00,0x47,0x00,
0x00,0x4a,0x00,0x88,0x39,0x43,0x50,0x00,0x47,0x50,0x00,0x4a,0x50,0x81,0x33,0x43,
0x00,0x00,0x47,0x00,0x00,0x4a,0x00,0x3d,0x43,0x50,0x00,0x47,0x50,0x00,0x4a,0x50,
0x81,0x33,0x43,0x00,0x00,0x47,0x00,0x00,0x4a,0x00,0x3d,0x41,0x5a,0x00,0x45,0x5a,
0x00,0x48,0x5a,0x00,0x4d,0x5a,0x83,0x5f,0x41,0x00,0x00,0x45,0x00,0x00,0x48,0x00,
0x00,0x4d,0x00,0x87,0x41,0x41,0x5a,0x00,0x45,0x5a,0x00,0x48,0x5a,0x00,0x4d,0x5a,
0x83,0x5f,0x41,0x00,0x00,0x45,0x00,0x00,0x48,0x00,0x00,0x4d,0x00,0x01,0x41,0x5a,
0x00,0x45,0x5a,0x00,0x48,0x5a,0x00,0x4d,0x5a,0x77,0x41,0x00,0x00,0x45,0x00,0x00,
0x48,0x00,0x00,0x4d,0x00,0x01,0x43,0x5a,0x00,0x47,0x5a,0x00,0x4a,0x5a,0x00,0x4f,
0x5a,0x82,0x67,0x43,0x00,0x00,0x47,0x00,0x00,0x4a,0x00,0x00,0x4f,0x00,0x87,0x41,
0x43,0x5a,0x00,0x47,0x5a,0x00,0x4a,0x5a,0x00,0x4f,0x5a,0x83,0x5f,0x43,0x00,0x00,
0x47,0x00,0x00,0x4a,0x00,0x00,0x4f,0x00,0x01,0x45,0x5a,0x00,0x48,0x5a,0x00,0x4c,
0x5a,0x00,0x51,0x5a,0x83,0x5f,0x45,0x00,0x00,0x48,0x00,0x00,0x4c,0x00,0x00,0x51,
0x00,0x87,0x41,0x45,0x5a,0x00,0x48,0x5a,0x00,0x4c,0x5a,0x00,0x51,0x5a,0x83,0x5f,
0x45,0x00,0x00,0x48,0x00,0x00,0x4c,0x00,0x00,0x51,0x00,0x01,0x47,0x5a,0x00,0x4a,
0x5a,0x00,0x4f,0x5a,0x00,0x53,0x5a,0x83,0x5f,0x47,0x00,0x00,0x4a,0x00,0x00,0x4f,
0x00,0x00,0x53,0x00,0x87,0x41,0x47,0x5a,0x00,0x4f,0x5a,0x00,0x53,0x5a,0x81,0x33,
0x47,0x00,0x00,0x4f,0x00,0x00,0x53,0x00,0x3d,0x47,0x5a,0x00,0x4f,0x5a,0x00,0x53,
0x5a,0x81,0x33,0x47,0x00,0x00,0x4f,0x00,0x00,0x53,0x00,0x3d,0x41,0x5a,0x00,0x48,
0x5a,0x00,0x4d,0x5a,0x83,0x5f,0x41,0x00,0x00,0x48,0x00,0x00,0x4d,0x00,0x87,0x41,
0x41,0x5a,0x00,0x4d,0x5a,0x83,0x5f,0x41,0x00,0x00,0x4d,0x00,0x01,0x41,0x5a,0x00,
0x4d,0x5a,0x77,0x41,0x00,0x00,0x4d,0x00,0x01,0x43,0x59,0x00,0x4f,0x59,0x82,0x67,
0x43,0x00,0x00,0x4f,0x00,0x87,0x41,0x43,0x46,0x00,0x4f,0x46,0x83,0x5f,0x43,0x00,
0x00,0x4f,0x00,0x01,0x45,0x40,0x00,0x51,0x40,0x83,0x5f,0x45,0x00,0x00,0x51,0x00,
0x87,0x41,0x45,0x2b,0x00,0x51,0x2b,0x83,0x5f,0x45,0x00,0x00,0x51,0x00,0x01,0x47,
0x25,0x00,0x53,0x25,0x83,0x5f,0x47,0x00,0x00,0x53,0x00,0x01,0xff,0x2f,0x00,0x4d,
0x54,0x72,0x6b,0x00,0x00,0x11,0xab,0x00,0xff,0x59,0x02,0x00,0x00,0x00,0xff,0x21,
0x01,0x01,0xce,0x60,0x90,0x2d,0x50,0x00,0x39,0x50,0x77,0x2d,0x00,0x00,0x39,0x00,
0x01,0x28,0x50,0x00,0x34,0x50,0x77,0x28,0x00,0x00,0x34,0x00,0x01,0x24,0x50,0x00,
0x30,0x50,0x77,0x24,0x00,0x00,0x30,0x00,0x01,0x28,0x50,0x00,0x34,0x50,0x77,0x28,
0x00,0x00,0x34,0x00,0x01,0x30,0x50,0x00,0x3c,0x50,0x77,0x30,0x00,0x00,0x3c,0x00,
0x01,0x28,0x50,0x00,0x34,0x50,0x77,0x28,0x00,0x00,0x34,0x00,0x01,0x24,0x50,0x00,
0x30,0x50,0x77,0x24,0x00,0x00,0x30,0x00,0x01,0x28,0x50,0x00,0x34,0x50,0x77,0x28,
0x00,0x00,0x34,0x00,0x01,0x2d,0x50,0x00,0x39,0x50,0x77,0x2d,0x00,0x00,0x39,0x00,
0x01,0x28,0x50,0x00,0x34,0x50,0x77,0x28,0x00,0x00,0x34,0x00,0x01,0x24,0x50,0x00,
0x30,0x50,0x77,0x24,0x00,0x00,0x30,0x00,0x01,0x28,0x50,0x00,0x34,0x50,0x77,0x28,
0x00,0x00,0x34,0x00,0x01,0x2f,0x50,0x00,0x3b,0x50,0x77,0x2f,0x00,0x00,0x3b,0x00,
0x01,0x28,0x50,0x00,0x34,0x50,0x77,0x28,0x00,0x00,0x34,0x00,0x01,0x24,0x50,0x00,
0x30,0x50,0x77,0x24,0x00,0x00,0x30,0x00,0x01,0x28,0x50,0x00,0x34,0x50,0x77,0x28,
0x00,0x00,0x34,0x00,0x01,0x2b,0x50,0x00,0x37,0x50,0x77,0x2b,0x00,0x00,0x37,0x00,
0x01,0x28,0x50,0x00,0x34,0x50,0x77,0x28,0x00,0x00,0x34,0x00,0x01,0x24,0x50,0x00,
0x30,0x50,0x77,0x24,0x00,0x00,0x30,0x00,0x01,0x28,0x50,0x00,0x34,0x50,0x77,0x28,
0x00,0x00,0x34,0x00,0x01,0x2f,0x50,0x00,0x3b,0x50,0x77,0x2f,0x00,0x00,0x3b,0x00,
0x01,0x28,0x50,0x00,0x34,0x50,0x77,0x28,0x00,0x00,0x34,0x00,0x01,0x24,0x50,0x00,
0x30,0x50,0x77,0x24,0x00,0x00,0x30,0x00,0x01,0x28,0x50,0x00,0x34,0x50,0x77,0x28,
0x00,0x00,0x34,0x00,0x01,0x2d,0x50,0x00,0x39,0x50,0x77,0x2d,0x00,0x00,0x39,0x00,
0x01,0x28,0x50,0x00,0x34,0x50,0x77,0x28,0x00,0x00,0x34,0x00,0x01,0x24,0x50,0x00,
0x30,0x50,0x77,0x24,0x00,0x00,0x30,0x00,0x01,0x28,0x50,0x00,0x34,0x50,0x77,0x28,
0x00,0x00,0x34,0x00,0x01,0x2b,0x50,0x00,0x37,0x50,0x77,0x2b,0x00,0x00,0x37,0x00,
0x01,0x28,0x50,0x00,0x34,0x50,0x77,0x28,0x00,0x00,0x34,0x00,0x01,0x24,0x50,0x00,
0x30,0x50,0x77,0x24,0x00,0x00,0x30,0x00,0x01,0x28,0x50,0x00,0x34,0x50,0x77,0x28,
0x00,0x00,0x34,0x00,0x01,0x2f,0x50,0x00,0x3b,0x50,0x77,0x2f,0x00,0x00,0x3b,0x00,
0x01,0x28,0x50,0x00,0x34,0x50,0x77,0x28,0x00,0x00,0x34,0x00,0x01,0x24,0x50,0x00,
0x30,0x50,0x77,0x24,0x00,0x00,0x30,0x00,0x01,0x28,0x50,0x00,0x34,0x50,0x77,0x28,
0x00,0x00,0x34,0x00,0x01,0x2d,0x50,0x00,0x39,0x50,0x77,0x2d,0x00,0x00,0x39,0x00,
0x01,0x28,0x50,0x00,0x34,0x50,0x77,0x28,0x00,0x00,0x34,0x00,0x01,0x24,0x50,0x00,
0x30,0x50,0x77,0x24,0x00,0x00,0x30,0x00,0x01,0x28,0x50,0x00,0x34,0x50,0x77,0x28,
0x00,0x00,0x34,0x00,0x01,0x2f,0x50,0x00,0x3b,0x50,0x77,0x2f,0x00,0x00,0x3b,0x00,
0x01,0x28,0x50,0x00,0x34,0x50,0x77,0x28,0x00,0x00,0x34,0x00,0x01,0x24,0x50,0x00,
0x30,0x50,0x77,0x24,0x00,0x00,0x30,0x00,0x01,0x28,0x50,0x00,0x34,0x50,0x77,0x28,
0x00,0x00,0x34,0x00,0x01,0x30,0x50,0x00,0x3c,0x50,0x77,0x30,0x00,0x00,0x3c,0x00,
0x01,0x28,0x50,0x00,0x34,0x50,0x77,0x28,0x00,0x00,0x34,0x00,0x01,0x24,0x50,0x00,
0x30,0x50,0x77,0x24,0x00,0x00,0x30,0x00,0x01,0x28,0x50,0x00,0x34,0x50,0x77,0x28,
0x00,0x00,0x34,0x00,0x01,0x2f,0x50,0x00,0x3b,0x50,0x77,0x2f,0x00,0x00,0x3b,0x00,
0x01,0x28,0x50,0x00,0x34,0x50,0x77,0x28,0x00,0x00,0x34,0x00,0x01,0x24,0x50,0x00,
0x30,0x50,0x77,0x24,0x00,0x00,0x30,0x00,0x01,0x28,0x50,0x00,0x34,0x50,0x77,0x28,
0x00,0x00,0x34,0x00,0x01,0x2d,0x50,0x00,0x39,0x50,0x77,0x2d,0x00,0x00,0x39,0x00,
0x01,0x28,0x50,0x00,0x34,0x50,0x77,0x28,0x00,0x00,0x34,0x00,0x01,0x24,0x50,0x00,
0x30,0x50,0x77,0x24,0x00,0x00,0x30,0x00,0x01,0x28,0x50,0x00,0x34,0x50,0x77,0x28,
0x00,0x00,0x34,0x00,0x01,0x2f,0x50,0x00,0x3b,0x50,0x77,0x2f,0x00,0x00,0x3b,0x00,
0x01,0x28,0x50,0x00,0x34,0x50,0x77,0x28,0x00,0x00,0x34,0x00,0x01,0x24,0x50,0x00,
0x30,0x50,0x77,0x24,0x00,0x00,0x30,0x00,0x01,0x28,0x50,0x00,0x34,0x50,0x77,0x28,
0x00,0x00,0x34,0x00,0x01,0x30,0x50,0x00,0x3c,0x50,0x77,0x30,0x00,0x00,0x3c,0x00,
0x01,0x28,0x50,0x00,0x34,0x50,0x77,0x28,0x00,0x00,0x34,0x00,0x01,0x24,0x50,0x00,
0x30,0x50,0x77,0x24,0x00,0x00,0x30,0x00,0x01,0x28,0x50,0x00,0x34,0x50,0x77,0x28,
0x00,0x00,0x34,0x00,0x01,0x30,0x50,0x00,0x3c,0x50,0x77,0x30,0x00,0x00,0x3c,0x00,
0x01,0x28,0x50,0x00,0x34,0x50,0x77,0x28,0x00,0x00,0x34,0x00,0x01,0x24,0x50,0x00,
0x30,0x50,0x77,0x24,0x00,0x00,0x30,0x00,0x01,0x28,0x50,0x00,0x34,0x50,0x77,0x28,
0x00,0x00,0x34,0x00,0x01,0x30,0x50,0x00,0x3c,0x50,0x77,0x30,0x00,0x00,0x3c,0x00,
0x01,0x28,0x50,0x00,0x34,0x50,0x77,0x28,0x00,0x00,0x34,0x00,0x01,0x24,0x50,0x00,
0x30,0x50,0x77,0x24,0x00,0x00,0x30,0x00,0x01,0x28,0x50,0x00,0x34,0x50,0x77,0x28,
0x00,0x00,0x34,0x00,0x01,0x2f,0x50,0x00,0x3b,0x50,0x77,0x2f,0x00,0x00,0x3b,0x00,
0x01,0x28,0x50,0x00,0x34,0x50,0x77,0x28,0x00,0x00,0x34,0x00,0x01,0x24,0x50,0x00,
0x30,0x50,0x77,0x24,0x00,0x00,0x30,0x00,0x01,0x28,0x50,0x00,0x34,0x50,0x77,0x28,
0x00,0x00,0x34,0x00,0x01,0x2b,0x50,0x00,0x37,0x50,0x77,0x2b,0x00,0x00,0x37,0x00,
0x01,0x28,0x50,0x00,0x34,0x50,0x77,0x28,0x00,0x00,0x34,0x00,0x01,0x24,0x50,0x00,
0x30,0x50,0x77,0x24,0x00,0x00,0x30,0x00,0x01,0x28,0x50,0x00,0x34,0x50,0x77,0x28,
0x00,0x00,0x34,0x00,0x01,0x2f,0x50,0x00,0x3b,0x50,0x77,0x2f,0x00,0x00,0x3b,0x00,
0x01,0x28,0x50,0x00,0x34,0x50,0x77,0x28,0x00,0x00,0x34,0x00,0x01,0x24,0x50,0x00,
0x30,0x50,0x77,0x24,0x00,0x00,0x30,0x00,0x01,0x28,0x50,0x00,0x34,0x50,0x77,0x28,
0x00,0x00,0x34,0x00,0x01,0x2d,0x50,0x00,0x39,0x50,0x77,0x2d,0x00,0x00,0x39,0x00,
0x01,0x28,0x50,0x00,0x34,0x50,0x77,0x28,0x00,0x00,0x34,0x00,0x01,0x24,0x50,0x00,
0x30,0x50,0x77,0x24,0x00,0x00,0x30,0x00,0x01,0x28,0x50,0x00,0x34,0x50,0x77,0x28,
0x00,0x00,0x34,0x00,0x01,0x2b,0x50,0x00,0x37,0x50,0x77,0x2b,0x00,0x00,0x37,0x00,
0x01,0x28,0x50,0x00,0x34,0x50,0x77,0x28,0x00,0x00,0x34,0x00,0x01,0x24,0x50,0x00,
0x30,0x50,0x77,0x24,0x00,0x00,0x30,0x00,0x01,0x28,0x50,0x00,0x34,0x50,0x77,0x28,
0x00,0x00,0x34,0x00,0x01,0x2f,0x50,0x00,0x3b,0x50,0x77,0x2f,0x00,0x00,0x3b,0x00,
0x01,0x28,0x50,0x00,0x34,0x50,0x77,0x28,0x00,0x00,0x34,0x00,0x01,0x24,0x50,0x00,
0x30,0x50,0x77,0x24,0x00,0x00,0x30,0x00,0x01,0x28,0x50,0x00,0x34,0x50,0x77,0x28,
0x00,0x00,0x34,0x00,0x01,0x2d,0x50,0x00,0x39,0x50,0x77,0x2d,0x00,0x00,0x39,0x00,
0x01,0x28,0x50,0x00,0x34,0x50,0x77,0x28,0x00,0x00,0x34,0x00,0x01,0x24,0x50,0x00,
0x30,0x50,0x77,0x24,0x00,0x00,0x30,0x00,0x01,0x28,0x50,0x00,0x34,0x50,0x77,0x28,
0x00,0x00,0x34,0x00,0x01,0x30,0x50,0x00,0x3c,0x50,0x77,0x30,0x00,0x00,0x3c,0x00,
0x01,0x28,0x50,0x00,0x34,0x50,0x77,0x28,0x00,0x00,0x34,0x00,0x01,0x24,0x50,0x00,
0x30,0x50,0x77,0x24,0x00,0x00,0x30,0x00,0x01,0x28,0x50,0x00,0x34,0x50,0x77,0x28,
0x00,0x00,0x34,0x00,0x01,0x2d,0x50,0x00,0x39,0x50,0x77,0x2d,0x00,0x00,0x39,0x00,
0x01,0x28,0x50,0x00,0x34,0x50,0x77,0x28,0x00,0x00,0x34,0x00,0x01,0x24,0x50,0x00,
0x30,0x50,0x77,0x24,0x00,0x00,0x30,0x00,0x01,0x28,0x50,0x00,0x34,0x50,0x77,0x28,
0x00,0x00,0x34,0x00,0x01,0x2d,0x50,0x00,0x39,0x50,0x77,0x2d,0x00,0x00,0x39,0x00,
0x01,0x28,0x50,0x00,0x34,0x50,0x77,0x28,0x00,0x00,0x34,0x00,0x01,0x24,0x50,0x00,
0x30,0x50,0x77,0x24,0x00,0x00,0x30,0x00,0x01,0x28,0x50,0x00,0x34,0x50,0x77,0x28,
0x00,0x00,0x34,0x00,0x01,0x30,0x50,0x00,0x3c,0x50,0x77,0x30,0x00,0x00,0x3c,0x00,
0x01,0x28,0x50,0x00,0x34,0x50,0x77,0x28,0x00,0x00,0x34,0x00,0x01,0x24,0x50,0x00,
0x30,0x50,0x77,0x24,0x00,0x00,0x30,0x00,0x01,0x28,0x50,0x00,0x34,0x50,0x77,0x28,
0x00,0x00,0x34,0x00,0x01,0x2d,0x50,0x00,0x39,0x50,0x77,0x2d,0x00,0x00,0x39,0x00,
0x01,0x28,0x50,0x00,0x34,0x50,0x77,0x28,0x00,0x00,0x34,0x00,0x01,0x24,0x50,0x00,
0x30,0x50,0x77,0x24,0x00,0x00,0x30,0x00,0x01,0x28,0x50,0x00,0x34,0x50,0x77,0x28,
0x00,0x00,0x34,0x00,0x01,0x2f,0x50,0x00,0x3b,0x50,0x77,0x2f,0x00,0x00,0x3b,0x00,
0x01,0x28,0x50,0x00,0x34,0x50,0x77,0x28,0x00,0x00,0x34,0x00,0x01,0x24,0x50,0x00,
0x30,0x50,0x77,0x24,0x00,0x00,0x30,0x00,0x01,0x28,0x50,0x00,0x34,0x50,0x77,0x28,
0x00,0x00,0x34,0x00,0x01,0x2b,0x50,0x00,0x37,0x50,0x77,0x2b,0x00,0x00,0x37,0x00,
0x01,0x28,0x50,0x00,0x34,0x50,0x77,0x28,0x00,0x00,0x34,0x00,0x01,0x24,0x50,0x00,
0x30,0x50,0x77,0x24,0x00,0x00,0x30,0x00,0x01,0x28,0x50,0x00,0x34,0x50,0x77,0x28,
0x00,0x00,0x34,0x00,0x01,0x2f,0x50,0x00,0x3b,0x50,0x77,0x2f,0x00,0x00,0x3b,0x00,
0x01,0x28,0x50,0x00,0x34,0x50,0x77,0x28,0x00,0x00,0x34,0x00,0x01,0x24,0x50,0x00,
0x30,0x50,0x77,0x24,0x00,0x00,0x30,0x00,0x01,0x28,0x50,0x00,0x34,0x50,0x77,0x28,
0x00,0x00,0x34,0x00,0x01,0x2d,0x50,0x00,0x39,0x50,0x77,0x2d,0x00,0x00,0x39,0x00,
0x01,0x28,0x50,0x00,0x34,0x50,0x77,0x28,0x00,0x00,0x34,0x00,0x01,0x24,0x50,0x00,
0x30,0x50,0x77,0x24,0x00,0x00,0x30,0x00,0x01,0x28,0x50,0x00,0x34,0x50,0x77,0x28,
0x00,0x00,0x34,0x00,0x01,0x2b,0x50,0x00,0x37,0x50,0x77,0x2b,0x00,0x00,0x37,0x00,
0x01,0x28,0x50,0x00,0x34,0x50,0x77,0x28,0x00,0x00,0x34,0x00,0x01,0x24,0x50,0x00,
0x30,0x50,0x77,0x24,0x00,0x00,0x30,0x00,0x01,0x28,0x50,0x00,0x34,0x50,0x77,0x28,
0x00,0x00,0x34,0x00,0x01,0x2f,0x50,0x00,0x3b,0x50,0x77,0x2f,0x00,0x00,0x3b,0x00,
0x01,0x28,0x50,0x00,0x34,0x50,0x77,0x28,0x00,0x00,0x34,0x00,0x01,0x24,0x50,0x00,
0x30,0x50,0x77,0x24,0x00,0x00,0x30,0x00,0x01,0x28,0x50,0x00,0x34,0x50,0x77,0x28,
0x00,0x00,0x34,0x00,0x01,0x2d,0x50,0x00,0x39,0x50,0x77,0x2d,0x00,0x00,0x39,0x00,
0x01,0x28,0x50,0x00,0x34,0x50,0x77,0x28,0x00,0x00,0x34,0x00,0x01,0x24,0x50,0x00,
0x30,0x50,0x77,0x24,0x00,0x00,0x30,0x00,0x01,0x28,0x50,0x00,0x34,0x50,0x77,0x28,
0x00,0x00,0x34,0x00,0x01,0x2f,0x50,0x00,0x3b,0x50,0x77,0x2f,0x00,0x00,0x3b,0x00,
0x01,0x28,0x50,0x00,0x34,0x50,0x77,0x28,0x00,0x00,0x34,0x00,0x01,0x24,0x50,0x00,
0x30,0x50,0x77,0x24,0x00,0x00,0x30,0x00,0x01,0x28,0x50,0x00,0x34,0x50,0x77,0x28,
0x00,0x00,0x34,0x00,0x01,0x30,0x50,0x00,0x3c,0x50,0x77,0x30,0x00,0x00,0x3c,0x00,
0x01,0x28,0x50,0x00,0x34,0x50,0x77,0x28,0x00,0x00,0x34,0x00,0x01,0x24,0x50,0x00,
0x30,0x50,0x77,0x24,0x00,0x00,0x30,0x00,0x01,0x28,0x50,0x00,0x34,0x50,0x77,0x28,
0x00,0x00,0x34,0x00,0x01,0x2f,0x50,0x00,0x3b,0x50,0x77,0x2f,0x00,0x00,0x3b,0x00,
0x01,0x28,0x50,0x00,0x34,0x50,0x77,0x28,0x00,0x00,0x34,0x00,0x01,0x24,0x50,0x00,
0x30,0x50,0x77,0x24,0x00,0x00,0x30,0x00,0x01,0x28,0x50,0x00,0x34,0x50,0x77,0x28,
0x00,0x00,0x34,0x00,0x01,0x2d,0x50,0x00,0x39,0x50,0x77,0x2d,0x00,0x00,0x39,0x00,
0x01,0x28,0x50,0x00,0x34,0x50,0x77,0x28,0x00,0x00,0x34,0x00,0x01,0x24,0x50,0x00,
0x30,0x50,0x77,0x24,0x00,0x00,0x30,0x00,0x01,0x28,0x50,0x00,0x34,0x50,0x77,0x28,
0x00,0x00,0x34,0x00,0x01,0x2f,0x50,0x00,0x3b,0x50,0x77,0x2f,0x00,0x00,0x3b,0x00,
0x01,0x28,0x50,0x00,0x34,0x50,0x77,0x28,0x00,0x00,0x34,0x00,0x01,0x24,0x50,0x00,
0x30,0x50,0x77,0x24,0x00,0x00,0x30,0x00,0x01,0x28,0x50,0x00,0x34,0x50,0x77,0x28,
0x00,0x00,0x34,0x00,0x01,0x30,0x50,0x00,0x3c,0x50,0x77,0x30,0x00,0x00,0x3c,0x00,
0x01,0x28,0x50,0x00,0x34,0x50,0x77,0x28,0x00,0x00,0x34,0x00,0x01,0x24,0x50,0x00,
0x30,0x50,0x77,0x24,0x00,0x00,0x30,0x00,0x01,0x28,0x50,0x00,0x34,0x50,0x77,0x28,
0x00,0x00,0x34,0x00,0x01,0x30,0x50,0x00,0x3c,0x50,0x77,0x30,0x00,0x00,0x3c,0x00,
0x01,0x28,0x50,0x00,0x34,0x50,0x77,0x28,0x00,0x00,0x34,0x00,0x01,0x24,0x50,0x00,
0x30,0x50,0x77,0x24,0x00,0x00,0x30,0x00,0x01,0x28,0x50,0x00,0x34,0x50,0x77,0x28,
0x00,0x00,0x34,0x00,0x01,0x2f,0x50,0x00,0x3b,0x50,0x77,0x2f,0x00,0x00,0x3b,0x00,
0x01,0x28,0x50,0x00,0x34,0x50,0x77,0x28,0x00,0x00,0x34,0x00,0x01,0x24,0x50,0x00,
0x30,0x50,0x77,0x24,0x00,0x00,0x30,0x00,0x01,0x28,0x50,0x00,0x34,0x50,0x77,0x28,
0x00,0x00,0x34,0x00,0x01,0x2f,0x50,0x00,0x3b,0x50,0x77,0x2f,0x00,0x00,0x3b,0x00,
0x01,0x28,0x50,0x00,0x34,0x50,0x77,0x28,0x00,0x00,0x34,0x00,0x01,0x24,0x50,0x00,
0x30,0x50,0x77,0x24,0x00,0x00,0x30,0x00,0x01,0x28,0x50,0x00,0x34,0x50,0x77,0x28,
0x00,0x00,0x34,0x00,0x01,0x2b,0x50,0x00,0x37,0x50,0x77,0x2b,0x00,0x00,0x37,0x00,
0x01,0x28,0x50,0x00,0x34,0x50,0x77,0x28,0x00,0x00,0x34,0x00,0x01,0x24,0x50,0x00,
0x30,0x50,0x77,0x24,0x00,0x00,0x30,0x00,0x01,0x28,0x50,0x00,0x34,0x50,0x77,0x28,
0x00,0x00,0x34,0x00,0x01,0x2f,0x50,0x00,0x3b,0x50,0x77,0x2f,0x00,0x00,0x3b,0x00,
0x01,0x28,0x50,0x00,0x34,0x50,0x77,0x28,0x00,0x00,0x34,0x00,0x01,0x24,0x50,0x00,
0x30,0x50,0x77,0x24,0x00,0x00,0x30,0x00,0x01,0x28,0x50,0x00,0x34,0x50,0x77,0x28,
0x00,0x00,0x34,0x00,0x01,0x2f,0x50,0x00,0x3b,0x50,0x77,0x2f,0x00,0x00,0x3b,0x00,
0x01,0x28,0x50,0x00,0x34,0x50,0x77,0x28,0x00,0x00,0x34,0x00,0x01,0x24,0x50,0x00,
0x30,0x50,0x77,0x24,0x00,0x00,0x30,0x00,0x01,0x28,0x50,0x00,0x34,0x50,0x77,0x28,
0x00,0x00,0x34,0x00,0x01,0x2b,0x50,0x00,0x37,0x50,0x77,0x2b,0x00,0x00,0x37,0x00,
0x01,0x28,0x50,0x00,0x34,0x50,0x77,0x28,0x00,0x00,0x34,0x00,0x01,0x24,0x50,0x00,
0x30,0x50,0x77,0x24,0x00,0x00,0x30,0x00,0x01,0x28,0x50,0x00,0x34,0x50,0x77,0x28,
0x00,0x00,0x34,0x00,0x01,0x2f,0x50,0x00,0x3b,0x50,0x77,0x2f,0x00,0x00,0x3b,0x00,
0x01,0x28,0x50,0x00,0x34,0x50,0x77,0x28,0x00,0x00,0x34,0x00,0x01,0x24,0x50,0x00,
0x30,0x50,0x77,0x24,0x00,0x00,0x30,0x00,0x01,0x28,0x50,0x00,0x34,0x50,0x77,0x28,
0x00,0x00,0x34,0x00,0x01,0x2d,0x50,0x00,0x39,0x50,0x77,0x2d,0x00,0x00,0x39,0x00,
0x01,0x28,0x50,0x00,0x34,0x50,0x77,0x28,0x00,0x00,0x34,0x00,0x01,0x24,0x50,0x00,
0x30,0x50,0x77,0x24,0x00,0x00,0x30,0x00,0x01,0x28,0x50,0x00,0x34,0x50,0x77,0x28,
0x00,0x00,0x34,0x00,0x01,0x2d,0x50,0x00,0x39,0x50,0x77,0x2d,0x00,0x00,0x39,0x00,
0x01,0x28,0x50,0x00,0x34,0x50,0x77,0x28,0x00,0x00,0x34,0x00,0x01,0x24,0x50,0x00,
0x30,0x50,0x77,0x24,0x00,0x00,0x30,0x00,0x01,0x28,0x50,0x00,0x34,0x50,0x77,0x28,
0x00,0x00,0x34,0x00,0x01,0x34,0x50,0x00,0x40,0x50,0x77,0x34,0x00,0x00,0x40,0x00,
0x01,0x28,0x50,0x00,0x34,0x50,0x77,0x28,0x00,0x00,0x34,0x00,0x01,0x24,0x50,0x00,
0x30,0x50,0x77,0x24,0x00,0x00,0x30,0x00,0x01,0x28,0x50,0x00,0x34,0x50,0x77,0x28,
0x00,0x00,0x34,0x00,0x01,0x30,0x50,0x00,0x3c,0x50,0x77,0x30,0x00,0x00,0x3c,0x00,
0x01,0x28,0x50,0x00,0x34,0x50,0x77,0x28,0x00,0x00,0x34,0x00,0x01,0x24,0x50,0x00,
0x30,0x50,0x77,0x24,0x00,0x00,0x30,0x00,0x01,0x28,0x50,0x00,0x34,0x50,0x77,0x28,
0x00,0x00,0x34,0x00,0x01,0x30,0x50,0x00,0x3c,0x50,0x77,0x30,0x00,0x00,0x3c,0x00,
0x01,0x28,0x50,0x00,0x34,0x50,0x77,0x28,0x00,0x00,0x34,0x00,0x01,0x24,0x50,0x00,
0x30,0x50,0x77,0x24,0x00,0x00,0x30,0x00,0x01,0x28,0x50,0x00,0x34,0x50,0x77,0x28,
0x00,0x00,0x34,0x00,0x01,0x30,0x50,0x00,0x3c,0x50,0x77,0x30,0x00,0x00,0x3c,0x00,
0x01,0x28,0x50,0x00,0x34,0x50,0x77,0x28,0x00,0x00,0x34,0x00,0x01,0x24,0x50,0x00,
0x30,0x50,0x77,0x24,0x00,0x00,0x30,0x00,0x01,0x28,0x50,0x00,0x34,0x50,0x77,0x28,
0x00,0x00,0x34,0x00,0x01,0x2f,0x50,0x00,0x3b,0x50,0x77,0x2f,0x00,0x00,0x3b,0x00,
0x01,0x28,0x50,0x00,0x34,0x50,0x77,0x28,0x00,0x00,0x34,0x00,0x01,0x24,0x50,0x00,
0x30,0x50,0x77,0x24,0x00,0x00,0x30,0x00,0x01,0x28,0x50,0x00,0x34,0x50,0x77,0x28,
0x00,0x00,0x34,0x00,0x01,0x2b,0x50,0x00,0x37,0x50,0x77,0x2b,0x00,0x00,0x37,0x00,
0x01,0x28,0x50,0x00,0x34,0x50,0x77,0x28,0x00,0x00,0x34,0x00,0x01,0x24,0x50,0x00,
0x30,0x50,0x77,0x24,0x00,0x00,0x30,0x00,0x01,0x28,0x50,0x00,0x34,0x50,0x77,0x28,
0x00,0x00,0x34,0x00,0x01,0x2f,0x50,0x00,0x3b,0x50,0x77,0x2f,0x00,0x00,0x3b,0x00,
0x01,0x28,0x50,0x00,0x34,0x50,0x77,0x28,0x00,0x00,0x34,0x00,0x01,0x24,0x50,0x00,
0x30,0x50,0x77,0x24,0x00,0x00,0x30,0x00,0x01,0x28,0x50,0x00,0x34,0x50,0x77,0x28,
0x00,0x00,0x34,0x00,0x01,0x2f,0x50,0x00,0x3b,0x50,0x77,0x2f,0x00,0x00,0x3b,0x00,
0x01,0x28,0x50,0x00,0x34,0x50,0x77,0x28,0x00,0x00,0x34,0x00,0x01,0x24,0x50,0x00,
0x30,0x50,0x77,0x24,0x00,0x00,0x30,0x00,0x01,0x28,0x50,0x00,0x34,0x50,0x77,0x28,
0x00,0x00,0x34,0x00,0x01,0x2b,0x50,0x00,0x37,0x50,0x77,0x2b,0x00,0x00,0x37,0x00,
0x01,0x28,0x50,0x00,0x34,0x50,0x77,0x28,0x00,0x00,0x34,0x00,0x01,0x24,0x50,0x00,
0x30,0x50,0x77,0x24,0x00,0x00,0x30,0x00,0x01,0x28,0x50,0x00,0x34,0x50,0x77,0x28,
0x00,0x00,0x34,0x00,0x01,0x2f,0x50,0x00,0x3b,0x50,0x77,0x2f,0x00,0x00,0x3b,0x00,
0x01,0x28,0x50,0x00,0x34,0x50,0x77,0x28,0x00,0x00,0x34,0x00,0x01,0x24,0x50,0x00,
0x30,0x50,0x77,0x24,0x00,0x00,0x30,0x00,0x01,0x28,0x50,0x00,0x34,0x50,0x77,0x28,
0x00,0x00,0x34,0x00,0x01,0x2d,0x50,0x00,0x39,0x50,0x77,0x2d,0x00,0x00,0x39,0x00,
0x01,0x28,0x50,0x00,0x34,0x50,0x77,0x28,0x00,0x00,0x34,0x00,0x01,0x24,0x50,0x00,
0x30,0x50,0x77,0x24,0x00,0x00,0x30,0x00,0x01,0x28,0x50,0x00,0x34,0x50,0x77,0x28,
0x00,0x00,0x34,0x00,0x01,0x34,0x50,0x00,0x40,0x50,0x77,0x34,0x00,0x00,0x40,0x00,
0x01,0x28,0x50,0x00,0x34,0x50,0x77,0x28,0x00,0x00,0x34,0x00,0x01,0x24,0x50,0x00,
0x30,0x50,0x77,0x24,0x00,0x00,0x30,0x00,0x01,0x28,0x50,0x00,0x34,0x50,0x77,0x28,
0x00,0x00,0x34,0x00,0x01,0x30,0x50,0x00,0x3c,0x50,0x77,0x30,0x00,0x00,0x3c,0x00,
0x01,0x28,0x50,0x00,0x34,0x50,0x77,0x28,0x00,0x00,0x34,0x00,0x01,0x24,0x50,0x00,
0x30,0x50,0x77,0x24,0x00,0x00,0x30,0x00,0x01,0x28,0x50,0x00,0x34,0x50,0x77,0x28,
0x00,0x00,0x34,0x00,0x01,0x2f,0x50,0x00,0x3b,0x50,0x77,0x2f,0x00,0x00,0x3b,0x00,
0x01,0x28,0x50,0x00,0x34,0x50,0x77,0x28,0x00,0x00,0x34,0x00,0x01,0x24,0x50,0x00,
0x30,0x50,0x77,0x24,0x00,0x00,0x30,0x00,0x01,0x28,0x50,0x00,0x34,0x50,0x77,0x28,
0x00,0x00,0x34,0x00,0x01,0x2d,0x50,0x00,0x39,0x50,0x77,0x2d,0x00,0x00,0x39,0x00,
0x01,0x28,0x50,0x00,0x34,0x50,0x77,0x28,0x00,0x00,0x34,0x00,0x01,0x24,0x50,0x00,
0x30,0x50,0x77,0x24,0x00,0x00,0x30,0x00,0x01,0x28,0x50,0x00,0x34,0x50,0x77,0x28,
0x00,0x00,0x34,0x00,0x01,0x2f,0x50,0x00,0x3b,0x50,0x77,0x2f,0x00,0x00,0x3b,0x00,
0x01,0x28,0x50,0x00,0x34,0x50,0x77,0x28,0x00,0x00,0x34,0x00,0x01,0x24,0x50,0x00,
0x30,0x50,0x77,0x24,0x00,0x00,0x30,0x00,0x01,0x28,0x50,0x00,0x34,0x50,0x77,0x28,
0x00,0x00,0x34,0x00,0x01,0x30,0x50,0x00,0x3c,0x50,0x77,0x30,0x00,0x00,0x3c,0x00,
0x01,0x28,0x50,0x00,0x34,0x50,0x77,0x28,0x00,0x00,0x34,0x00,0x01,0x24,0x50,0x00,
0x30,0x50,0x77,0x24,0x00,0x00,0x30,0x00,0x01,0x28,0x50,0x00,0x34,0x50,0x77,0x28,
0x00,0x00,0x34,0x00,0x01,0x30,0x50,0x00,0x3c,0x50,0x77,0x30,0x00,0x00,0x3c,0x00,
0x01,0x28,0x50,0x00,0x34,0x50,0x77,0x28,0x00,0x00,0x34,0x00,0x01,0x24,0x50,0x00,
0x30,0x50,0x77,0x24,0x00,0x00,0x30,0x00,0x01,0x28,0x50,0x00,0x34,0x50,0x77,0x28,
0x00,0x00,0x34,0x00,0x01,0x30,0x50,0x00,0x3c,0x50,0x77,0x30,0x00,0x00,0x3c,0x00,
0x01,0x28,0x50,0x00,0x34,0x50,0x77,0x28,0x00,0x00,0x34,0x00,0x01,0x24,0x50,0x00,
0x30,0x50,0x77,0x24,0x00,0x00,0x30,0x00,0x01,0x28,0x50,0x00,0x34,0x50,0x77,0x28,
0x00,0x00,0x34,0x00,0x01,0x32,0x50,0x00,0x3e,0x50,0x77,0x32,0x00,0x00,0x3e,0x00,
0x01,0x28,0x50,0x00,0x34,0x50,0x77,0x28,0x00,0x00,0x34,0x00,0x01,0x24,0x50,0x00,
0x30,0x50,0x77,0x24,0x00,0x00,0x30,0x00,0x01,0x28,0x50,0x00,0x34,0x50,0x77,0x28,
0x00,0x00,0x34,0x00,0x01,0x32,0x50,0x00,0x3e,0x50,0x77,0x32,0x00,0x00,0x3e,0x00,
0x01,0x28,0x50,0x00,0x34,0x50,0x77,0x28,0x00,0x00,0x34,0x00,0x01,0x24,0x50,0x00,
0x30,0x50,0x77,0x24,0x00,0x00,0x30,0x00,0x01,0x28,0x50,0x00,0x34,0x50,0x77,0x28,
0x00,0x00,0x34,0x00,0x01,0x32,0x50,0x00,0x3e,0x50,0x77,0x32,0x00,0x00,0x3e,0x00,
0x01,0x28,0x50,0x00,0x34,0x50,0x77,0x28,0x00,0x00,0x34,0x00,0x01,0x24,0x50,0x00,
0x30,0x50,0x77,0x24,0x00,0x00,0x30,0x00,0x01,0x28,0x50,0x00,0x34,0x50,0x77,0x28,
0x00,0x00,0x34,0x00,0x01,0x2f,0x64,0x00,0x34,0x64,0x00,0x3b,0x64,0x00,0x40,0x64,
0x81,0x86,0x7f,0x2f,0x00,0x00,0x34,0x00,0x00,0x3b,0x00,0x00,0x40,0x00,0x01,0x2d,
0x50,0x00,0x30,0x50,0x00,0x34,0x50,0x00,0x39,0x50,0x82,0x67,0x2d,0x00,0x00,0x30,
0x00,0x00,0x34,0x00,0x00,0x39,0x00,0x88,0x39,0x2d,0x50,0x00,0x30,0x50,0x00,0x34,
0x50,0x00,0x39,0x50,0x82,0x67,0x2d,0x00,0x00,0x30,0x00,0x00,0x34,0x00,0x00,0x39,
0x00,0x79,0x2d,0x50,0x00,0x30,0x50,0x00,0x34,0x50,0x00,0x39,0x50,0x77,0x2d,0x00,
0x00,0x30,0x00,0x00,0x34,0x00,0x00,0x39,0x00,0x01,0x2f,0x50,0x00,0x32,0x50,0x00,
0x3b,0x50,0x82,0x67,0x2f,0x00,0x00,0x32,0x00,0x00,0x3b,0x00,0x87,0x41,0x2f,0x50,
0x00,0x32,0x50,0x00,0x3b,0x50,0x82,0x67,0x2f,0x00,0x00,0x32,0x00,0x00,0x3b,0x00,
0x79,0x30,0x50,0x00,0x34,0x50,0x00,0x3b,0x50,0x82,0x67,0x30,0x00,0x00,0x34,0x00,
0x00,0x3b,0x00,0x88,0x39,0x30,0x50,0x00,0x34,0x50,0x00,0x3b,0x50,0x82,0x67,0x30,
0x00,0x00,0x34,0x00,0x00,0x3b,0x00,0x79,0x32,0x50,0x00,0x37,0x50,0x00,0x3c,0x50,
0x82,0x67,0x32,0x00,0x00,0x37,0x00,0x00,0x3c,0x00,0x88,0x39,0x32,0x50,0x00,0x37,
0x50,0x00,0x3c,0x50,0x81,0x33,0x32,0x00,0x00,0x37,0x00,0x00,0x3c,0x00,0x3d,0x32,
0x50,0x00,0x37,0x50,0x00,0x3c,0x50,0x81,0x33,0x32,0x00,0x00,0x37,0x00,0x00,0x3c,
0x00,0x3d,0x2d,0x50,0x00,0x30,0x50,0x00,0x34,0x50,0x00,0x39,0x50,0x82,0x67,0x2d,
0x00,0x00,0x30,0x00,0x00,0x34,0x00,0x00,0x39,0x00,0x88,0x39,0x2d,0x50,0x00,0x30,
0x50,0x00,0x34,0x50,0x00,0x39,0x50,0x82,0x67,0x2d,0x00,0x00,0x30,0x00,0x00,0x34,
0x00,0x00,0x39,0x00,0x79,0x2d,0x50,0x00,0x30,0x50,0x00,0x34,0x50,0x00,0x39,0x50,
0x77,0x2d,0x00,0x00,0x30,0x00,0x00,0x34,0x00,0x00,0x39,0x00,0x01,0x2f,0x50,0x00,
0x32,0x50,0x00,0x3b,0x50,0x82,0x67,0x2f,0x00,0x00,0x32,0x00,0x00,0x3b,0x00,0x87,
0x41,0x2f,0x50,0x00,0x32,0x50,0x00,0x3b,0x50,0x82,0x67,0x2f,0x00,0x00,0x32,0x00,
0x00,0x3b,0x00,0x79,0x30,0x50,0x00,0x34,0x50,0x00,0x3b,0x50,0x82,0x67,0x30,0x00,
0x00,0x34,0x00,0x00,0x3b,0x00,0x88,0x39,0x30,0x50,0x00,0x34,0x50,0x00,0x3b,0x50,
0x82,0x67,0x30,0x00,0x00,0x34,0x00,0x00,0x3b,0x00,0x79,0x2d,0x50,0x00,0x30,0x50,
0x00,0x34,0x50,0x00,0x39,0x50,0x82,0x67,0x2d,0x00,0x00,0x30,0x00,0x00,0x34,0x00,
0x00,0x39,0x00,0x88,0x39,0x2d,0x50,0x00,0x30,0x50,0x00,0x34,0x50,0x00,0x39,0x50,
0x82,0x67,0x2d,0x00,0x00,0x30,0x00,0x00,0x34,0x00,0x00,0x39,0x00,0x79,0x2d,0x50,
0x00,0x30,0x50,0x00,0x34,0x50,0x00,0x39,0x50,0x77,0x2d,0x00,0x00,0x30,0x00,0x00,
0x34,0x00,0x00,0x39,0x00,0x01,0x2f,0x50,0x00,0x32,0x50,0x00,0x3b,0x50,0x82,0x67,
0x2f,0x00,0x00,0x32,0x00,0x00,0x3b,0x00,0x87,0x41,0x2f,0x50,0x00,0x32,0x50,0x00,
0x3b,0x50,0x82,0x67,0x2f,0x00,0x00,0x32,0x00,0x00,0x3b,0x00,0x79,0x30,0x50,0x00,
0x34,0x50,0x00,0x3b,0x50,0x82,0x67,0x30,0x00,0x00,0x34,0x00,0x00,0x3b,0x00,0x88,
0x39,0x30,0x50,0x00,0x34,0x50,0x00,0x3b,0x50,0x82,0x67,0x30,0x00,0x00,0x34,0x00,
0x00,0x3b,0x00,0x79,0x32,0x50,0x00,0x37,0x50,0x00,0x3c,0x50,0x82,0x67,0x32,0x00,
0x00,0x37,0x00,0x00,0x3c,0x00,0x88,0x39,0x32,0x50,0x00,0x37,0x50,0x00,0x3c,0x50,
0x81,0x33,0x32,0x00,0x00,0x37,0x00,0x00,0x3c,0x00,0x3d,0x32,0x50,0x00,0x37,0x50,
0x00,0x3c,0x50,0x81,0x33,0x32,0x00,0x00,0x37,0x00,0x00,0x3c,0x00,0x3d,0x2d,0x5a,
0x00,0x30,0x5a,0x00,0x34,0x5a,0x00,0x39,0x5a,0x83,0x5f,0x2d,0x00,0x00,0x30,0x00,
0x00,0x34,0x00,0x00,0x39,0x00,0x87,0x41,0x2d,0x5a,0x00,0x30,0x5a,0x00,0x34,0x5a,
0x00,0x39,0x5a,0x83,0x5f,0x2d,0x00,0x00,0x30,0x00,0x00,0x34,0x00,0x00,0x39,0x00,
0x01,0x2d,0x5a,0x00,0x30,0x5a,0x00,0x34,0x5a,0x00,0x39,0x5a,0x77,0x2d,0x00,0x00,
0x30,0x00,0x00,0x34,0x00,0x00,0x39,0x00,0x01,0x2f,0x5a,0x00,0x32,0x5a,0x00,0x3b,
0x5a,0x82,0x67,0x2f,0x00,0x00,0x32,0x00,0x00,0x3b,0x00,0x87,0x41,0x2f,0x5a,0x00,
0x32,0x5a,0x00,0x3b,0x5a,0x83,0x5f,0x2f,0x00,0x00,0x32,0x00,0x00,0x3b,0x00,0x01,
0x30,0x5a,0x00,0x34,0x5a,0x00,0x3b,0x5a,0x83,0x5f,0x30,0x00,0x00,0x34,0x00,0x00,
0x3b,0x00,0x87,0x41,0x30,0x5a,0x00,0x34,0x5a,0x00,0x3b,0x5a,0x83,0x5f,0x30,0x00,
0x00,0x34,0x00,0x00,0x3b,0x00,0x01,0x32,0x5a,0x00,0x37,0x5a,0x00,0x3c,0x5a,0x83,
0x5f,0x32,0x00,0x00,0x37,0x00,0x00,0x3c,0x00,0x87,0x41,0x32,0x5a,0x00,0x3c,0x5a,
0x81,0x33,0x32,0x00,0x00,0x3c,0x00,0x3d,0x32,0x5a,0x00,0x3c,0x5a,0x81,0x33,0x32,
0x00,0x00,0x3c,0x00,0x3d,0x2d,0x5a,0x00,0x39,0x5a,0x83,0x5f,0x2d,0x00,0x00,0x39,
0x00,0x87,0x41,0x2d,0x5a,0x00,0x39,0x5a,0x83,0x5f,0x2d,0x00,0x00,0x39,0x00,0x01,
0x2d,0x5a,0x00,0x39,0x5a,0x77,0x2d,0x00,0x00,0x39,0x00,0x01,0x2f,0x59,0x00,0x3b,
0x59,0x82,0x67,0x2f,0x00,0x00,0x3b,0x00,0x87,0x41,0x2f,0x46,0x00,0x3b,0x46,0x83,
0x5f,0x2f,0x00,0x00,0x3b,0x00,0x01,0x30,0x40,0x00,0x3b,0x40,0x83,0x5f,0x30,0x00,
0x00,0x3b,0x00,0x87,0x41,0x30,0x2b,0x00,0x3b,0x2b,0x83,0x5f,0x30,0x00,0x00,0x3b,
0x00,0x01,0x32,0x25,0x00,0x3c,0x25,0x83,0x5f,0x32,0x00,0x00,0x3c,0x00,0x01,0xff,
0x2f,0x00,0x4d,0x54,0x72,0x6b,0x00,0x00,0x01,0xef,0x00,0xff,0x59,0x02,0x00,0x00,
0x00,0xff,0x21,0x01,0x01,0xce,0x60,0x90,0x1c,0x50,0x00,0x28,0x50,0x00,0x2d,0x50,
0x8b,0x1f,0x2d,0x00,0x01,0x2b,0x50,0x96,0x3f,0x2b,0x00,0x01,0x2d,0x50,0xa1,0x5f,
0x2d,0x00,0x01,0x2b,0x50,0x96,0x3f,0x2b,0x00,0x01,0x2d,0x50,0x96,0x3f,0x2d,0x00,
0x01,0x2b,0x50,0x96,0x3f,0x2b,0x00,0x01,0x2d,0x50,0xa1,0x5f,0x2d,0x00,0x01,0x2b,
0x50,0x96,0x3f,0x2b,0x00,0x01,0x2d,0x50,0x96,0x3f,0x2d,0x00,0x01,0x2b,0x50,0x96,
0x3f,0x2b,0x00,0x01,0x2d,0x50,0xa1,0x5f,0x2d,0x00,0x01,0x2f,0x50,0x8b,0x1f,0x1c,
0x00,0x00,0x28,0x00,0x00,0x2f,0x00,0x96,0x41,0x1f,0x64,0x00,0x24,0x64,0x8b,0x1f,
0x1f,0x00,0x00,0x24,0x00,0x01,0x21,0x64,0x00,0x26,0x64,0x8b,0x1f,0x21,0x00,0x00,
0x26,0x00,0x01,0x1f,0x60,0x00,0x24,0x60,0x8b,0x1f,0x1f,0x00,0x00,0x24,0x00,0x01,
0x21,0x60,0x00,0x26,0x60,0x8b,0x1f,0x21,0x00,0x00,0x26,0x00,0x96,0x41,0x1f,0x60,
0x00,0x24,0x60,0x00,0x2b,0x60,0x00,0x30,0x60,0x8b,0x1f,0x1f,0x00,0x00,0x24,0x00,
0x00,0x2b,0x00,0x00,0x30,0x00,0x01,0x21,0x60,0x00,0x26,0x60,0x00,0x2d,0x60,0x00,
0x32,0x60,0x8b,0x1f,0x21,0x00,0x00,0x26,0x00,0x00,0x2d,0x00,0x00,0x32,0x00,0x01,
0x10,0x60,0x00,0x17,0x60,0x00,0x1c,0x60,0x96,0x3f,0x10,0x00,0x00,0x17,0x00,0x00,
0x1c,0x00,0x01,0x11,0x50,0x00,0x1d,0x50,0x8e,0x7f,0x11,0x00,0x00,0x1d,0x00,0x01,
0x11,0x50,0x00,0x1d,0x50,0x77,0x11,0x00,0x00,0x1d,0x00,0x01,0x13,0x50,0x00,0x1f,
0x50,0x8e,0x07,0x13,0x00,0x00,0x1f,0x00,0x01,0x15,0x50,0x00,0x21,0x50,0x8e,0x7f,
0x15,0x00,0x00,0x21,0x00,0x01,0x13,0x50,0x00,0x1f,0x50,0x8e,0x7f,0x13,0x00,0x00,
0x1f,0x00,0x01,0x11,0x50,0x00,0x1d,0x50,0x8e,0x7f,0x11,0x00,0x00,0x1d,0x00,0x01,
0x11,0x50,0x00,0x1d,0x50,0x77,0x11,0x00,0x00,0x1d,0x00,0x01,0x13,0x50,0x00,0x1f,
0x50,0x8e,0x07,0x13,0x00,0x00,0x1f,0x00,0x01,0x15,0x50,0x00,0x21,0x50,0x8e,0x7f,
0x15,0x00,0x00,0x21,0x00,0x01,0x11,0x50,0x00,0x1d,0x50,0x8e,0x7f,0x11,0x00,0x00,
0x1d,0x00,0x01,0x11,0x50,0x00,0x1d,0x50,0x77,0x11,0x00,0x00,0x1d,0x00,0x01,0x13,
0x50,0x00,0x1f,0x50,0x8e,0x07,0x13,0x00,0x00,0x1f,0x00,0x01,0x15,0x50,0x00,0x21,
0x50,0x8e,0x7f,0x15,0x00,0x00,0x21,0x00,0x01,0x13,0x50,0x00,0x1f,0x50,0x8e,0x7f,
0x13,0x00,0x00,0x1f,0x00,0x01,0x11,0x5a,0x00,0x1d,0x5a,0x8e,0x7f,0x11,0x00,0x00,
0x1d,0x00,0x01,0x13,0x5a,0x00,0x1f,0x5a,0x8e,0x7f,0x13,0x00,0x00,0x1f,0x00,0x01,
0x15,0x5a,0x00,0x21,0x5a,0x8e,0x7f,0x15,0x00,0x00,0x21,0x00,0x01,0x17,0x5a,0x00,
0x23,0x5a,0x8e,0x7f,0x17,0x00,0x00,0x23,0x00,0x01,0x1d,0x5a,0x8e,0x7f,0x1d,0x00,
0x01,0x1f,0x5a,0x8e,0x7f,0x1f,0x00,0x01,0x21,0x40,0x8e,0x7f,0x21,0x00,0x01,0x23,
0x25,0x83,0x5f,0x23,0x00,0x01,0xff,0x2f,0x00,0x4d,0x54,0x72,0x6b,0x00,0x00,0x05,
0x27,0x00,0xff,0x59,0x02,0x00,0x00,0x00,0xb1,0x79,0x00,0x00,0xc1,0x13,0x00,0xb1,
0x07,0x64,0x00,0x0a,0x40,0x00,0x5b,0x00,0x00,0x5d,0x00,0x00,0xff,0x21,0x01,0x01,
0xce,0x60,0x91,0x40,0x50,0x00,0x48,0x50,0x00,0x58,0x50,0x8b,0x1f,0x48,0x00,0x01,
0x47,0x50,0x8b,0x1f,0x47,0x00,0x01,0x47,0x50,0x8b,0x1f,0x47,0x00,0x01,0x48,0x50,
0xa1,0x5f,0x48,0x00,0x01,0x47,0x50,0x96,0x3f,0x47,0x00,0x01,0x48,0x50,0x96,0x3f,
0x48,0x00,0x01,0x47,0x50,0x96,0x3f,0x47,0x00,0x01,0x48,0x50,0xa1,0x5f,0x48,0x00,
0x01,0x47,0x50,0x8b,0x1f,0x47,0x00,0x01,0x47,0x50,0x8b,0x1f,0x47,0x00,0x01,0x48,
0x50,0x8b,0x1f,0x48,0x00,0x01,0x48,0x50,0x8b,0x1f,0x48,0x00,0x01,0x47,0x50,0x8b,
0x1f,0x47,0x00,0x01,0x47,0x50,0x8b,0x1f,0x47,0x00,0x01,0x48,0x50,0x8b,0x1f,0x48,
0x00,0x01,0x48,0x50,0x8b,0x1f,0x48,0x00,0x01,0x48,0x50,0x8b,0x1f,0x48,0x00,0x01,
0x4a,0x50,0x8b,0x1f,0x40,0x00,0x00,0x58,0x00,0x00,0x4a,0x00,0x01,0x53,0x46,0x00,
0x58,0x46,0x81,0x6f,0x53,0x00,0x00,0x58,0x00,0x01,0x53,0x46,0x00,0x58,0x46,0x81,
0x6f,0x53,0x00,0x00,0x58,0x00,0x01,0x53,0x46,0x00,0x58,0x46,0x81,0x6f,0x53,0x00,
0x00,0x58,0x00,0x01,0x53,0x46,0x00,0x58,0x46,0x81,0x6f,0x53,0x00,0x00,0x58,0x00,
0x01,0x53,0x46,0x00,0x58,0x46,0x81,0x6f,0x53,0x00,0x00,0x58,0x00,0x01,0x53,0x46,
0x00,0x58,0x46,0x81,0x6f,0x53,0x00,0x00,0x58,0x00,0x01,0x53,0x46,0x00,0x58,0x46,
0x81,0x6f,0x53,0x00,0x00,0x58,0x00,0x01,0x53,0x46,0x00,0x58,0x46,0x81,0x6f,0x53,
0x00,0x00,0x58,0x00,0x01,0x53,0x46,0x00,0x58,0x46,0x81,0x6f,0x53,0x00,0x00,0x58,
0x00,0x01,0x53,0x46,0x00,0x58,0x46,0x81,0x6f,0x53,0x00,0x00,0x58,0x00,0x01,0x53,
0x46,0x00,0x58,0x46,0x81,0x6f,0x53,0x00,0x00,0x58,0x00,0x01,0x53,0x46,0x00,0x58,
0x46,0x81,0x6f,0x53,0x00,0x00,0x58,0x00,0x01,0x53,0x46,0x00,0x58,0x46,0x81,0x6f,
0x53,0x00,0x00,0x58,0x00,0x01,0x53,0x46,0x00,0x58,0x46,0x81,0x6f,0x53,0x00,0x00,
0x58,0x00,0x01,0x53,0x46,0x00,0x58,0x46,0x81,0x6f,0x53,0x00,0x00,0x58,0x00,0x01,
0x53,0x46,0x00,0x58,0x46,0x81,0x6f,0x53,0x00,0x00,0x58,0x00,0x01,0x53,0x46,0x00,
0x58,0x46,0x81,0x6f,0x53,0x00,0x00,0x58,0x00,0x01,0x53,0x46,0x00,0x58,0x46,0x81,
0x6f,0x53,0x00,0x00,0x58,0x00,0x01,0x53,0x46,0x00,0x58,0x46,0x81,0x6f,0x53,0x00,
0x00,0x58,0x00,0x01,0x53,0x46,0x00,0x58,0x46,0x81,0x6f,0x53,0x00,0x00,0x58,0x00,
0x01,0x53,0x46,0x00,0x58,0x46,0x81,0x6f,0x53,0x00,0x00,0x58,0x00,0x01,0x53,0x46,
0x00,0x58,0x46,0x81,0x6f,0x53,0x00,0x00,0x58,0x00,0x01,0x53,0x46,0x00,0x58,0x46,
0x81,0x6f,0x53,0x00,0x00,0x58,0x00,0x01,0x53,0x46,0x00,0x58,0x46,0x81,0x6f,0x53,
0x00,0x00,0x58,0x00,0x01,0x53,0x46,0x00,0x58,0x46,0x81,0x6f,0x53,0x00,0x00,0x58,
0x00,0x01,0x53,0x46,0x00,0x58,0x46,0x81,0x6f,0x53,0x00,0x00,0x58,0x00,0x01,0x53,
0x46,0x00,0x58,0x46,0x81,0x6f,0x53,0x00,0x00,0x58,0x00,0x01,0x53,0x46,0x00,0x58,
0x46,0x81,0x6f,0x53,0x00,0x00,0x58,0x00,0x01,0x53,0x46,0x00,0x58,0x46,0x81,0x6f,
0x53,0x00,0x00,0x58,0x00,0x01,0x53,0x46,0x00,0x58,0x46,0x81,0x6f,0x53,0x00,0x00,
0x58,0x00,0x01,0x53,0x46,0x00,0x58,0x46,0x81,0x6f,0x53,0x00,0x00,0x58,0x00,0x01,
0x53,0x46,0x00,0x58,0x46,0x81,0x6f,0x53,0x00,0x00,0x58,0x00,0x01,0x53,0x46,0x00,
0x58,0x46,0x81,0x6f,0x53,0x00,0x00,0x58,0x00,0x01,0x53,0x46,0x00,0x58,0x46,0x81,
0x6f,0x53,0x00,0x00,0x58,0x00,0x01,0x53,0x46,0x00,0x58,0x46,0x81,0x6f,0x53,0x00,
0x00,0x58,0x00,0x01,0x58,0x46,0x81,0x6f,0x58,0x00,0x01,0x53,0x46,0x00,0x58,0x46,
0x81,0x6f,0x53,0x00,0x00,0x58,0x00,0x01,0x53,0x46,0x00,0x58,0x46,0x81,0x6f,0x53,
0x00,0x00,0x58,0x00,0x01,0x53,0x46,0x00,0x58,0x46,0x81,0x6f,0x53,0x00,0x00,0x58,
0x00,0x01,0x53,0x46,0x00,0x58,0x46,0x81,0x6f,0x53,0x00,0x00,0x58,0x00,0x01,0x53,
0x46,0x00,0x58,0x46,0x81,0x6f,0x53,0x00,0x00,0x58,0x00,0x01,0x53,0x46,0x00,0x58,
0x46,0x81,0x6f,0x53,0x00,0x00,0x58,0x00,0x01,0x53,0x46,0x00,0x58,0x46,0x81,0x6f,
0x53,0x00,0x00,0x58,0x00,0x01,0x53,0x46,0x00,0x58,0x46,0x81,0x6f,0x53,0x00,0x00,
0x58,0x00,0x01,0x53,0x46,0x00,0x58,0x46,0x81,0x6f,0x53,0x00,0x00,0x58,0x00,0x01,
0x53,0x46,0x00,0x58,0x46,0x81,0x6f,0x53,0x00,0x00,0x58,0x00,0x01,0x53,0x46,0x00,
0x58,0x46,0x81,0x6f,0x53,0x00,0x00,0x58,0x00,0x01,0x53,0x46,0x00,0x58,0x46,0x81,
0x6f,0x53,0x00,0x00,0x58,0x00,0x01,0x53,0x46,0x00,0x58,0x46,0x81,0x6f,0x53,0x00,
0x00,0x58,0x00,0x01,0x53,0x46,0x00,0x58,0x46,0x81,0x6f,0x53,0x00,0x00,0x58,0x00,
0x01,0x53,0x46,0x00,0x58,0x46,0x81,0x6f,0x53,0x00,0x00,0x58,0x00,0x01,0x53,0x46,
0x00,0x58,0x46,0x81,0x6f,0x53,0x00,0x00,0x58,0x00,0x01,0x53,0x46,0x00,0x58,0x46,
0x81,0x6f,0x53,0x00,0x00,0x58,0x00,0x01,0x53,0x46,0x00,0x58,0x46,0x81,0x6f,0x53,
0x00,0x00,0x58,0x00,0x01,0x53,0x46,0x00,0x58,0x46,0x81,0x6f,0x53,0x00,0x00,0x58,
0x00,0x01,0x53,0x46,0x00,0x58,0x46,0x81,0x6f,0x53,0x00,0x00,0x58,0x00,0x01,0x53,
0x46,0x00,0x58,0x46,0x81,0x6f,0x53,0x00,0x00,0x58,0x00,0x01,0x53,0x46,0x00,0x58,
0x46,0x81,0x6f,0x53,0x00,0x00,0x58,0x00,0x01,0x53,0x46,0x00,0x58,0x46,0x81,0x6f,
0x53,0x00,0x00,0x58,0x00,0x01,0x53,0x46,0x00,0x58,0x46,0x81,0x6f,0x53,0x00,0x00,
0x58,0x00,0x01,0x53,0x46,0x00,0x58,0x46,0x81,0x6f,0x53,0x00,0x00,0x58,0x00,0x01,
0x53,0x46,0x00,0x58,0x46,0x81,0x6f,0x53,0x00,0x00,0x58,0x00,0x01,0x53,0x46,0x00,
0x58,0x46,0x81,0x6f,0x53,0x00,0x00,0x58,0x00,0x01,0x53,0x46,0x00,0x58,0x46,0x81,
0x6f,0x53,0x00,0x00,0x58,0x00,0x01,0x53,0x46,0x00,0x58,0x46,0x81,0x6f,0x53,0x00,
0x00,0x58,0x00,0x01,0x53,0x46,0x00,0x58,0x46,0x81,0x6f,0x53,0x00,0x00,0x58,0x00,
0x01,0x53,0x46,0x00,0x58,0x46,0x81,0x6f,0x53,0x00,0x00,0x58,0x00,0x01,0x53,0x46,
0x00,0x58,0x46,0x81,0x6f,0x53,0x00,0x00,0x58,0x00,0x01,0x53,0x46,0x00,0x58,0x46,
0x81,0x6f,0x53,0x00,0x00,0x58,0x00,0x01,0x53,0x46,0x00,0x58,0x46,0x81,0x6f,0x53,
0x00,0x00,0x58,0x00,0x01,0x53,0x46,0x00,0x58,0x46,0x81,0x6f,0x53,0x00,0x00,0x58,
0x00,0x01,0x53,0x46,0x00,0x58,0x46,0x81,0x6f,0x53,0x00,0x00,0x58,0x00,0x81,0xb4,
0x01,0x3c,0x10,0x00,0x40,0x10,0x00,0x48,0x10,0x00,0x4f,0x10,0x00,0x50,0x10,0x8e,
0x7f,0x3c,0x00,0x00,0x40,0x00,0x00,0x48,0x00,0x00,0x4f,0x00,0x00,0x50,0x00,0x01,
0x3c,0x21,0x00,0x40,0x21,0x00,0x48,0x21,0x00,0x4f,0x21,0x00,0x50,0x21,0x8e,0x7f,
0x3c,0x00,0x00,0x40,0x00,0x00,0x48,0x00,0x00,0x4f,0x00,0x00,0x50,0x00,0x01,0x3c,
0x31,0x00,0x40,0x31,0x00,0x48,0x31,0x00,0x4f,0x31,0x00,0x50,0x31,0x8e,0x7f,0x3c,
0x00,0x00,0x40,0x00,0x00,0x48,0x00,0x00,0x4f,0x00,0x00,0x50,0x00,0x01,0x3c,0x46,
0x00,0x40,0x46,0x00,0x48,0x46,0x00,0x4f,0x46,0x00,0x50,0x46,0x8e,0x7f,0x3c,0x00,
0x00,0x40,0x00,0x00,0x48,0x00,0x00,0x4f,0x00,0x00,0x50,0x00,0x01,0x3c,0x5a,0x00,
0x40,0x5a,0x00,0x48,0x5a,0x00,0x4f,0x5a,0x00,0x50,0x5a,0x8e,0x7f,0x40,0x00,0x00,
0x4f,0x00,0x00,0x50,0x00,0x01,0x40,0x69,0x00,0x4f,0x69,0x00,0x50,0x69,0x8e,0x7f,
0x3c,0x00,0x00,0x48,0x00,0x00,0x40,0x00,0x00,0x50,0x00,0x01,0x3c,0x73,0x00,0x40,
0x73,0x00,0x48,0x73,0x00,0x50,0x73,0x8e,0x7f,0x4f,0x00,0x00,0x40,0x00,0x01,0x40,
0x7e,0x00,0x4f,0x7e,0x9d,0x7f,0x3c,0x00,0x00,0x48,0x00,0x00,0x50,0x00,0x00,0x40,
0x00,0x00,0x4f,0x00,0x01,0xff,0x2f,0x00,0x4d,0x54,0x72,0x6b,0x00,0x00,0x08,0x4f,
0x00,0xff,0x59,0x02,0x00,0x00,0x00,0xb2,0x79,0x00,0x00,0xc2,0x30,0x00,0xb2,0x07,
0x62,0x00,0x0a,0x40,0x00,0x5b,0x00,0x00,0x5d,0x00,0x00,0xff,0x21,0x01,0x01,0x00,
0xb3,0x79,0x00,0x00,0xc3,0x2d,0x00,0xb3,0x07,0x5e,0x00,0x0a,0x40,0x00,0x5b,0x00,
0x00,0x5d,0x00,0x00,0xff,0x21,0x01,0x01,0x00,0xb4,0x79,0x00,0x00,0xc4,0x2c,0x00,
0xb4,0x07,0x64,0x00,0x0a,0x40,0x00,0x5b,0x00,0x00,0x5d,0x00,0x00,0xff,0x21,0x01,
0x01,0xce,0x60,0x93,0x45,0x50,0x83,0x5f,0x45,0x00,0x87,0x41,0x47,0x50,0x83,0x5f,
0x47,0x00,0x87,0x41,0x45,0x50,0x83,0x5f,0x45,0x00,0x87,0x41,0x45,0x50,0x83,0x5f,
0x45,0x00,0x01,0x47,0x50,0x83,0x5f,0x47,0x00,0x01,0x48,0x50,0x83,0x5f,0x48,0x00,
0x01,0x47,0x50,0x83,0x5f,0x47,0x00,0x01,0x45,0x50,0x83,0x5f,0x45,0x00,0x01,0x47,
0x50,0x83,0x5f,0x47,0x00,0x01,0x48,0x50,0x83,0x5f,0x48,0x00,0x01,0x48,0x50,0x83,
0x5f,0x48,0x00,0x01,0x48,0x50,0x83,0x5f,0x48,0x00,0x01,0x47,0x50,0x83,0x5f,0x47,
0x00,0x01,0x47,0x50,0x83,0x5f,0x47,0x00,0x01,0x47,0x50,0x83,0x5f,0x47,0x00,0x01,
0x47,0x50,0x83,0x5f,0x47,0x00,0x01,0x47,0x50,0x83,0x5f,0x47,0x00,0x01,0x47,0x50,
0x83,0x5f,0x47,0x00,0x01,0x92,0x45,0x50,0x00,0x4c,0x50,0x77,0x45,0x00,0x00,0x4c,
0x00,0x82,0x69,0x45,0x50,0x00,0x4c,0x50,0x77,0x45,0x00,0x00,0x4c,0x00,0x82,0x69,
0x4c,0x50,0x77,0x4c,0x00,0x82,0x69,0x48,0x50,0x00,0x4c,0x50,0x77,0x48,0x00,0x00,
0x4c,0x00,0x82,0x69,0x48,0x50,0x00,0x4c,0x50,0x77,0x48,0x00,0x00,0x4c,0x00,0x82,
0x69,0x48,0x50,0x00,0x4c,0x50,0x77,0x48,0x00,0x00,0x4c,0x00,0x82,0x69,0x47,0x50,
0x00,0x4c,0x50,0x77,0x47,0x00,0x00,0x4c,0x00,0x82,0x69,0x47,0x50,0x00,0x4c,0x50,
0x77,0x47,0x00,0x00,0x4c,0x00,0x82,0x69,0x47,0x50,0x00,0x4c,0x50,0x77,0x47,0x00,
0x00,0x4c,0x00,0x82,0x69,0x47,0x50,0x00,0x4c,0x50,0x77,0x47,0x00,0x00,0x4c,0x00,
0x82,0x69,0x47,0x50,0x00,0x4c,0x50,0x77,0x47,0x00,0x00,0x4c,0x00,0x82,0x69,0x47,
0x50,0x00,0x4c,0x50,0x77,0x47,0x00,0x00,0x4c,0x00,0x82,0x69,0x45,0x60,0x00,0x4c,
0x60,0x77,0x45,0x00,0x00,0x4c,0x00,0x82,0x69,0x4c,0x60,0x77,0x4c,0x00,0x82,0x69,
0x48,0x60,0x00,0x4c,0x60,0x77,0x48,0x00,0x00,0x4c,0x00,0x82,0x69,0x47,0x60,0x00,
0x4c,0x60,0x77,0x47,0x00,0x00,0x4c,0x00,0x82,0x69,0x45,0x60,0x00,0x4c,0x60,0x77,
0x45,0x00,0x00,0x4c,0x00,0x82,0x69,0x47,0x60,0x00,0x4c,0x60,0x77,0x47,0x00,0x00,
0x4c,0x00,0x82,0x69,0x48,0x60,0x00,0x4c,0x60,0x77,0x48,0x00,0x00,0x4c,0x00,0x82,
0x69,0x48,0x60,0x00,0x4c,0x60,0x77,0x48,0x00,0x00,0x4c,0x00,0x82,0x69,0x48,0x60,
0x00,0x4c,0x60,0x77,0x48,0x00,0x00,0x4c,0x00,0x82,0x69,0x47,0x60,0x00,0x4c,0x60,
0x77,0x47,0x00,0x00,0x4c,0x00,0x82,0x69,0x47,0x60,0x00,0x4c,0x60,0x77,0x47,0x00,
0x00,0x4c,0x00,0x82,0x69,0x47,0x60,0x00,0x4c,0x60,0x77,0x47,0x00,0x00,0x4c,0x00,
0x82,0x69,0x47,0x60,0x00,0x4c,0x60,0x77,0x47,0x00,0x00,0x4c,0x00,0x82,0x69,0x47,
0x60,0x00,0x4c,0x60,0x77,0x47,0x00,0x00,0x4c,0x00,0x82,0x69,0x47,0x60,0x00,0x4c,
0x60,0x77,0x47,0x00,0x00,0x4c,0x00,0x82,0x69,0x45,0x60,0x00,0x4c,0x60,0x77,0x45,
0x00,0x00,0x4c,0x00,0x82,0x69,0x45,0x60,0x00,0x4c,0x60,0x77,0x45,0x00,0x00,0x4c,
0x00,0x82,0x69,0x4c,0x60,0x77,0x4c,0x00,0x82,0x69,0x48,0x60,0x00,0x4c,0x60,0x77,
0x48,0x00,0x00,0x4c,0x00,0x82,0x69,0x48,0x60,0x00,0x4c,0x60,0x77,0x48,0x00,0x00,
0x4c,0x00,0x82,0x69,0x48,0x60,0x00,0x4c,0x60,0x77,0x48,0x00,0x00,0x4c,0x00,0x82,
0x69,0x47,0x60,0x00,0x4c,0x60,0x77,0x47,0x00,0x00,0x4c,0x00,0x82,0x69,0x47,0x60,
0x00,0x4c,0x60,0x77,0x47,0x00,0x00,0x4c,0x00,0x82,0x69,0x47,0x60,0x00,0x4c,0x60,
0x77,0x47,0x00,0x00,0x4c,0x00,0x82,0x69,0x47,0x60,0x00,0x4c,0x60,0x77,0x47,0x00,
0x00,0x4c,0x00,0x82,0x69,0x47,0x60,0x00,0x4c,0x60,0x77,0x47,0x00,0x00,0x4c,0x00,
0x82,0x69,0x47,0x60,0x00,0x4c,0x60,0x77,0x47,0x00,0x00,0x4c,0x00,0x82,0x69,0x45,
0x60,0x00,0x4c,0x60,0x77,0x45,0x00,0x00,0x4c,0x00,0x82,0x69,0x4c,0x60,0x77,0x4c,
0x00,0x82,0x69,0x48,0x60,0x00,0x4c,0x60,0x77,0x48,0x00,0x00,0x4c,0x00,0x82,0x69,
0x47,0x60,0x00,0x4c,0x60,0x77,0x47,0x00,0x00,0x4c,0x00,0x82,0x69,0x45,0x60,0x00,
0x4c,0x60,0x77,0x45,0x00,0x00,0x4c,0x00,0x82,0x69,0x47,0x60,0x00,0x4c,0x60,0x77,
0x47,0x00,0x00,0x4c,0x00,0x82,0x69,0x48,0x60,0x00,0x4c,0x60,0x77,0x48,0x00,0x00,
0x4c,0x00,0x82,0x69,0x48,0x60,0x00,0x4c,0x60,0x77,0x48,0x00,0x00,0x4c,0x00,0x82,
0x69,0x48,0x60,0x00,0x4c,0x60,0x77,0x48,0x00,0x00,0x4c,0x00,0x82,0x69,0x4a,0x60,
0x00,0x4c,0x60,0x77,0x4a,0x00,0x00,0x4c,0x00,0x82,0x69,0x4a,0x60,0x00,0x4c,0x60,
0x77,0x4a,0x00,0x00,0x4c,0x00,0x82,0x69,0x4a,0x60,0x00,0x4c,0x60,0x77,0x4a,0x00,
0x00,0x4c,0x00,0x82,0x69,0x4c,0x50,0x3b,0x4c,0x00,0x01,0x4c,0x50,0x3b,0x4c,0x00,
0x01,0x4c,0x50,0x3b,0x4c,0x00,0x01,0x4c,0x50,0x3b,0x4c,0x00,0x01,0x47,0x50,0x77,
0x47,0x00,0x79,0x4c,0x50,0x3b,0x4c,0x00,0x01,0x4c,0x50,0x3b,0x4c,0x00,0x01,0x4c,
0x50,0x3b,0x4c,0x00,0x01,0x4c,0x50,0x3b,0x4c,0x00,0x01,0x47,0x50,0x77,0x47,0x00,
0x79,0x4c,0x50,0x3b,0x4c,0x00,0x01,0x4c,0x50,0x3b,0x4c,0x00,0x01,0x4c,0x50,0x3b,
0x4c,0x00,0x01,0x4c,0x50,0x3b,0x4c,0x00,0x01,0x47,0x50,0x77,0x47,0x00,0x79,0x4c,
0x50,0x3b,0x4c,0x00,0x01,0x4c,0x50,0x3b,0x4c,0x00,0x01,0x4c,0x50,0x3b,0x4c,0x00,
0x01,0x4c,0x50,0x3b,0x4c,0x00,0x01,0x47,0x50,0x77,0x47,0x00,0x79,0x4c,0x50,0x3b,
0x4c,0x00,0x01,0x4c,0x50,0x3b,0x4c,0x00,0x01,0x4c,0x50,0x3b,0x4c,0x00,0x01,0x4c,
0x50,0x3b,0x4c,0x00,0x01,0x47,0x50,0x77,0x47,0x00,0x79,0x4c,0x50,0x3b,0x4c,0x00,
0x01,0x4c,0x50,0x3b,0x4c,0x00,0x01,0x4c,0x50,0x3b,0x4c,0x00,0x01,0x4c,0x50,0x3b,
0x4c,0x00,0x01,0x47,0x50,0x77,0x47,0x00,0x79,0x4c,0x50,0x3b,0x4c,0x00,0x01,0x4c,
0x50,0x3b,0x4c,0x00,0x01,0x4c,0x50,0x3b,0x4c,0x00,0x01,0x4c,0x50,0x3b,0x4c,0x00,
0x01,0x47,0x50,0x77,0x47,0x00,0x79,0x4c,0x50,0x3b,0x4c,0x00,0x01,0x4c,0x50,0x3b,
0x4c,0x00,0x01,0x4c,0x50,0x3b,0x4c,0x00,0x01,0x4c,0x50,0x3b,0x4c,0x00,0x01,0x47,
0x50,0x77,0x47,0x00,0x79,0x4c,0x50,0x3b,0x4c,0x00,0x01,0x4c,0x50,0x3b,0x4c,0x00,
0x01,0x4c,0x50,0x3b,0x4c,0x00,0x01,0x4c,0x50,0x3b,0x4c,0x00,0x01,0x47,0x50,0x77,
0x47,0x00,0x79,0x4c,0x50,0x3b,0x4c,0x00,0x01,0x4c,0x50,0x3b,0x4c,0x00,0x01,0x4c,
0x50,0x3b,0x4c,0x00,0x01,0x4c,0x50,0x3b,0x4c,0x00,0x01,0x47,0x50,0x77,0x47,0x00,
0x79,0x4c,0x50,0x3b,0x4c,0x00,0x01,0x4c,0x50,0x3b,0x4c,0x00,0x01,0x4c,0x50,0x3b,
0x4c,0x00,0x01,0x4c,0x50,0x3b,0x4c,0x00,0x01,0x47,0x50,0x77,0x47,0x00,0x79,0x4c,
0x50,0x3b,0x4c,0x00,0x01,0x4c,0x50,0x3b,0x4c,0x00,0x01,0x4c,0x50,0x3b,0x4c,0x00,
0x01,0x4c,0x50,0x3b,0x4c,0x00,0x01,0x47,0x50,0x77,0x47,0x00,0x79,0x4c,0x50,0x3b,
0x4c,0x00,0x01,0x4c,0x50,0x3b,0x4c,0x00,0x01,0x4c,0x50,0x3b,0x4c,0x00,0x01,0x4c,
0x50,0x3b,0x4c,0x00,0x01,0x47,0x50,0x77,0x47,0x00,0x79,0x4c,0x50,0x3b,0x4c,0x00,
0x01,0x4c,0x50,0x3b,0x4c,0x00,0x01,0x4c,0x50,0x3b,0x4c,0x00,0x01,0x4c,0x50,0x3b,
0x4c,0x00,0x01,0x47,0x50,0x77,0x47,0x00,0x79,0x4c,0x50,0x3b,0x4c,0x00,0x01,0x4c,
0x50,0x3b,0x4c,0x00,0x01,0x4c,0x50,0x3b,0x4c,0x00,0x01,0x4c,0x50,0x3b,0x4c,0x00,
0x01,0x47,0x50,0x77,0x47,0x00,0x79,0x4c,0x50,0x3b,0x4c,0x00,0x01,0x4c,0x50,0x3b,
0x4c,0x00,0x01,0x4c,0x50,0x3b,0x4c,0x00,0x01,0x4c,0x50,0x3b,0x4c,0x00,0x01,0x47,
0x50,0x77,0x47,0x00,0x79,0x4c,0x50,0x3b,0x4c,0x00,0x01,0x4c,0x50,0x3b,0x4c,0x00,
0x01,0x4c,0x50,0x3b,0x4c,0x00,0x01,0x4c,0x50,0x3b,0x4c,0x00,0x01,0x47,0x50,0x77,
0x47,0x00,0x79,0x4c,0x50,0x3b,0x4c,0x00,0x01,0x4c,0x50,0x3b,0x4c,0x00,0x01,0x4c,
0x50,0x3b,0x4c,0x00,0x01,0x4c,0x50,0x3b,0x4c,0x00,0x01,0x47,0x50,0x77,0x47,0x00,
0x79,0x4c,0x50,0x3b,0x4c,0x00,0x01,0x4c,0x50,0x3b,0x4c,0x00,0x01,0x4c,0x50,0x3b,
0x4c,0x00,0x01,0x4c,0x50,0x3b,0x4c,0x00,0x01,0x47,0x50,0x77,0x47,0x00,0x79,0x4c,
0x50,0x3b,0x4c,0x00,0x01,0x4c,0x50,0x3b,0x4c,0x00,0x01,0x4c,0x50,0x3b,0x4c,0x00,
0x01,0x4c,0x50,0x3b,0x4c,0x00,0x01,0x47,0x50,0x77,0x47,0x00,0x79,0x4c,0x50,0x3b,
0x4c,0x00,0x01,0x4c,0x50,0x3b,0x4c,0x00,0x01,0x4c,0x50,0x3b,0x4c,0x00,0x01,0x4c,
0x50,0x3b,0x4c,0x00,0x01,0x47,0x50,0x77,0x47,0x00,0x79,0x4c,0x50,0x3b,0x4c,0x00,
0x01,0x4c,0x50,0x3b,0x4c,0x00,0x01,0x4c,0x50,0x3b,0x4c,0x00,0x01,0x4c,0x50,0x3b,
0x4c,0x00,0x01,0x47,0x50,0x77,0x47,0x00,0x79,0x4c,0x50,0x3b,0x4c,0x00,0x01,0x4c,
0x50,0x3b,0x4c,0x00,0x01,0x4c,0x50,0x3b,0x4c,0x00,0x01,0x4c,0x50,0x3b,0x4c,0x00,
0x01,0x47,0x50,0x77,0x47,0x00,0x79,0x4c,0x50,0x3b,0x4c,0x00,0x01,0x4c,0x50,0x3b,
0x4c,0x00,0x01,0x4c,0x50,0x3b,0x4c,0x00,0x01,0x4c,0x50,0x3b,0x4c,0x00,0x01,0x47,
0x50,0x77,0x47,0x00,0x79,0x4c,0x60,0x3b,0x4c,0x00,0x01,0x4c,0x60,0x3b,0x4c,0x00,
0x01,0x4c,0x60,0x3b,0x4c,0x00,0x01,0x4c,0x60,0x3b,0x4c,0x00,0x01,0x47,0x60,0x77,
0x47,0x00,0x79,0x4c,0x60,0x3b,0x4c,0x00,0x01,0x4c,0x60,0x3b,0x4c,0x00,0x01,0x4c,
0x60,0x3b,0x4c,0x00,0x01,0x4c,0x60,0x3b,0x4c,0x00,0x01,0x47,0x60,0x77,0x47,0x00,
0x79,0x4c,0x60,0x3b,0x4c,0x00,0x01,0x4c,0x60,0x3b,0x4c,0x00,0x01,0x4c,0x60,0x3b,
0x4c,0x00,0x01,0x4c,0x60,0x3b,0x4c,0x00,0x01,0x47,0x60,0x77,0x47,0x00,0x79,0x4c,
0x60,0x3b,0x4c,0x00,0x01,0x4c,0x60,0x3b,0x4c,0x00,0x01,0x4c,0x60,0x3b,0x4c,0x00,
0x01,0x4c,0x60,0x3b,0x4c,0x00,0x01,0x47,0x60,0x77,0x47,0x00,0x79,0x4c,0x60,0x3b,
0x4c,0x00,0x01,0x4c,0x60,0x3b,0x4c,0x00,0x01,0x4c,0x60,0x3b,0x4c,0x00,0x01,0x4c,
0x60,0x3b,0x4c,0x00,0x01,0x47,0x60,0x77,0x47,0x00,0x79,0x4c,0x60,0x3b,0x4c,0x00,
0x01,0x4c,0x60,0x3b,0x4c,0x00,0x01,0x4c,0x60,0x3b,0x4c,0x00,0x01,0x4c,0x60,0x3b,
0x4c,0x00,0x01,0x47,0x60,0x77,0x47,0x00,0x79,0x4c,0x60,0x3b,0x4c,0x00,0x01,0x4c,
0x60,0x3b,0x4c,0x00,0x01,0x4c,0x60,0x3b,0x4c,0x00,0x01,0x4c,0x60,0x3b,0x4c,0x00,
0x01,0x47,0x60,0x77,0x47,0x00,0x79,0x4c,0x60,0x3b,0x4c,0x00,0x01,0x4c,0x60,0x3b,
0x4c,0x00,0x01,0x4c,0x60,0x3b,0x4c,0x00,0x01,0x4c,0x60,0x3b,0x4c,0x00,0x01,0x47,
0x60,0x77,0x47,0x00,0x79,0x4c,0x60,0x3b,0x4c,0x00,0x01,0x4c,0x60,0x3b,0x4c,0x00,
0x01,0x4c,0x60,0x3b,0x4c,0x00,0x01,0x4c,0x60,0x3b,0x4c,0x00,0x01,0x47,0x60,0x77,
0x47,0x00,0x79,0x4c,0x60,0x3b,0x4c,0x00,0x01,0x4c,0x60,0x3b,0x4c,0x00,0x01,0x4c,
0x60,0x3b,0x4c,0x00,0x01,0x4c,0x60,0x3b,0x4c,0x00,0x01,0x47,0x60,0x77,0x47,0x00,
0x79,0x4c,0x60,0x3b,0x4c,0x00,0x01,0x4c,0x60,0x3b,0x4c,0x00,0x01,0x4c,0x60,0x3b,
0x4c,0x00,0x01,0x4c,0x60,0x3b,0x4c,0x00,0x01,0x47,0x60,0x77,0x47,0x00,0x79,0x4c,
0x60,0x3b,0x4c,0x00,0x01,0x4c,0x60,0x3b,0x4c,0x00,0x01,0x4c,0x60,0x3b,0x4c,0x00,
0x01,0x4c,0x60,0x3b,0x4c,0x00,0x01,0x47,0x60,0x77,0x47,0x00,0x79,0x48,0x3c,0x8e,
0x7f,0x48,0x00,0x01,0x48,0x3c,0x77,0x48,0x00,0x01,0x47,0x3c,0x8e,0x07,0x47,0x00,
0x01,0x48,0x3c,0x8e,0x7f,0x48,0x00,0x01,0x4a,0x3c,0x8e,0x7f,0x4a,0x00,0x01,0x48,
0x41,0x8e,0x7f,0x48,0x00,0x01,0x48,0x41,0x77,0x48,0x00,0x01,0x47,0x41,0x8e,0x07,
0x47,0x00,0x01,0x48,0x41,0x8e,0x7f,0x48,0x00,0x01,0x45,0x50,0x8e,0x7f,0x45,0x00,
0x01,0x45,0x50,0x77,0x45,0x00,0x01,0x47,0x50,0x8e,0x07,0x47,0x00,0x01,0x48,0x5a,
0x8e,0x7f,0x48,0x00,0x01,0x4a,0x5a,0x8b,0x1f,0x4a,0x00,0x01,0x4a,0x5a,0x81,0x51,
0x4a,0x00,0x1f,0x4a,0x5a,0x81,0x51,0x4a,0x00,0x1f,0x51,0x40,0x8e,0x7f,0x51,0x00,
0x01,0x51,0x40,0x77,0x51,0x00,0x01,0x53,0x60,0x8e,0x07,0x53,0x00,0x01,0x54,0x60,
0x8e,0x7f,0x54,0x00,0x01,0x56,0x60,0x8b,0x1f,0x56,0x00,0x01,0x56,0x60,0x81,0x51,
0x56,0x00,0x1f,0x56,0x60,0x81,0x51,0x56,0x00,0x1f,0x51,0x40,0x8e,0x7f,0x51,0x00,
0x01,0x51,0x40,0x77,0x51,0x00,0x01,0x53,0x3f,0x8e,0x07,0x53,0x00,0x01,0x54,0x2d,
0x8e,0x7f,0x54,0x00,0x01,0x56,0x19,0x8e,0x7f,0x56,0x00,0x01,0xff,0x2f,0x00,0x4d,
0x54,0x72,0x6b,0x00,0x00,0x06,0x75,0x00,0xff,0x59,0x02,0x00,0x00,0x00,0xb5,0x79,
0x00,0x00,0xc5,0x30,0x00,0xb5,0x07,0x5f,0x00,0x0a,0x40,0x00,0x5b,0x00,0x00,0x5d,
0x00,0x00,0xff,0x21,0x01,0x01,0x00,0xb6,0x79,0x00,0x00,0xc6,0x2d,0x00,0xb6,0x07,
0x4b,0x00,0x0a,0x40,0x00,0x5b,0x00,0x00,0x5d,0x00,0x00,0xff,0x21,0x01,0x01,0x00,
0xb7,0x79,0x00,0x00,0xc7,0x2c,0x00,0xb7,0x07,0x64,0x00,0x0a,0x40,0x00,0x5b,0x00,
0x00,0x5d,0x00,0x00,0xff,0x21,0x01,0x01,0xce,0x60,0x96,0x39,0x50,0x83,0x5f,0x39,
0x00,0x01,0x3c,0x50,0x83,0x5f,0x3c,0x00,0x01,0x39,0x50,0x83,0x5f,0x39,0x00,0x01,
0x3b,0x50,0x83,0x5f,0x3b,0x00,0x01,0x37,0x50,0x83,0x5f,0x37,0x00,0x01,0x3b,0x50,
0x83,0x5f,0x3b,0x00,0x01,0x39,0x50,0x83,0x5f,0x39,0x00,0x01,0x37,0x50,0x83,0x5f,
0x37,0x00,0x01,0x3b,0x50,0x83,0x5f,0x3b,0x00,0x01,0x39,0x50,0x83,0x5f,0x39,0x00,
0x01,0x3b,0x50,0x83,0x5f,0x3b,0x00,0x01,0x3c,0x50,0x83,0x5f,0x3c,0x00,0x01,0x3b,
0x50,0x83,0x5f,0x3b,0x00,0x01,0x39,0x50,0x83,0x5f,0x39,0x00,0x01,0x3b,0x50,0x83,
0x5f,0x3b,0x00,0x01,0x3c,0x50,0x83,0x5f,0x3c,0x00,0x01,0x3c,0x50,0x83,0x5f,0x3c,
0x00,0x01,0x3c,0x50,0x83,0x5f,0x3c,0x00,0x01,0x3b,0x50,0x83,0x5f,0x3b,0x00,0x01,
0x3b,0x50,0x83,0x5f,0x3b,0x00,0x01,0x3b,0x50,0x83,0x5f,0x3b,0x00,0x01,0x3b,0x50,
0x83,0x5f,0x3b,0x00,0x01,0x3b,0x50,0x83,0x5f,0x3b,0x00,0x01,0x3b,0x50,0x83,0x5f,
0x3b,0x00,0x01,0x39,0x50,0x83,0x5f,0x39,0x00,0x01,0x39,0x50,0x83,0x5f,0x39,0x00,
0x01,0x40,0x50,0x83,0x5f,0x40,0x00,0x01,0x3c,0x50,0x83,0x5f,0x3c,0x00,0x01,0x3c,
0x50,0x83,0x5f,0x3c,0x00,0x01,0x3c,0x50,0x83,0x5f,0x3c,0x00,0x01,0x3b,0x50,0x83,
0x5f,0x3b,0x00,0x01,0x3b,0x50,0x83,0x5f,0x3b,0x00,0x01,0x3b,0x50,0x83,0x5f,0x3b,
0x00,0x01,0x3b,0x50,0x83,0x5f,0x3b,0x00,0x01,0x3b,0x50,0x83,0x5f,0x3b,0x00,0x01,
0x3b,0x50,0x83,0x5f,0x3b,0x00,0x01,0x95,0x39,0x50,0x77,0x39,0x00,0x82,0x69,0x40,
0x50,0x77,0x40,0x00,0x82,0x69,0x3c,0x50,0x77,0x3c,0x00,0x82,0x69,0x3b,0x50,0x77,
0x3b,0x00,0x82,0x69,0x39,0x50,0x77,0x39,0x00,0x82,0x69,0x3b,0x50,0x77,0x3b,0x00,
0x82,0x69,0x3c,0x50,0x77,0x3c,0x00,0x82,0x69,0x3c,0x50,0x77,0x3c,0x00,0x82,0x69,
0x3c,0x50,0x77,0x3c,0x00,0x82,0x69,0x3b,0x50,0x77,0x3b,0x00,0x82,0x69,0x3b,0x50,
0x77,0x3b,0x00,0x82,0x69,0x3b,0x50,0x77,0x3b,0x00,0x82,0x69,0x3b,0x50,0x77,0x3b,
0x00,0x82,0x69,0x3b,0x50,0x77,0x3b,0x00,0x82,0x69,0x3b,0x50,0x77,0x3b,0x00,0x82,
0x69,0x39,0x60,0x77,0x39,0x00,0x82,0x69,0x39,0x60,0x77,0x39,0x00,0x82,0x69,0x40,
0x60,0x77,0x40,0x00,0x82,0x69,0x3c,0x60,0x77,0x3c,0x00,0x82,0x69,0x3c,0x60,0x77,
0x3c,0x00,0x82,0x69,0x3c,0x60,0x77,0x3c,0x00,0x82,0x69,0x3b,0x60,0x77,0x3b,0x00,
0x82,0x69,0x3b,0x60,0x77,0x3b,0x00,0x82,0x69,0x3b,0x60,0x77,0x3b,0x00,0x82,0x69,
0x3b,0x60,0x77,0x3b,0x00,0x82,0x69,0x3b,0x60,0x77,0x3b,0x00,0x82,0x69,0x3b,0x60,
0x77,0x3b,0x00,0x82,0x69,0x39,0x60,0x77,0x39,0x00,0x82,0x69,0x40,0x60,0x77,0x40,
0x00,0x82,0x69,0x3c,0x60,0x77,0x3c,0x00,0x82,0x69,0x3b,0x60,0x77,0x3b,0x00,0x82,
0x69,0x39,0x60,0x77,0x39,0x00,0x82,0x69,0x3b,0x60,0x77,0x3b,0x00,0x82,0x69,0x3c,
0x60,0x77,0x3c,0x00,0x82,0x69,0x3c,0x60,0x77,0x3c,0x00,0x82,0x69,0x3c,0x60,0x77,
0x3c,0x00,0x82,0x69,0x3e,0x60,0x77,0x3e,0x00,0x82,0x69,0x3e,0x60,0x77,0x3e,0x00,
0x82,0x69,0x3e,0x60,0x77,0x3e,0x00,0x9d,0x09,0x40,0x73,0x00,0x47,0x73,0x77,0x40,
0x00,0x00,0x47,0x00,0x82,0x69,0x40,0x73,0x00,0x47,0x73,0x77,0x40,0x00,0x00,0x47,
0x00,0x82,0x69,0x40,0x73,0x00,0x47,0x73,0x77,0x40,0x00,0x00,0x47,0x00,0x82,0x69,
0x40,0x73,0x00,0x47,0x73,0x77,0x40,0x00,0x00,0x47,0x00,0x82,0x69,0x40,0x73,0x00,
0x47,0x73,0x77,0x40,0x00,0x00,0x47,0x00,0x82,0x69,0x40,0x73,0x00,0x47,0x73,0x77,
0x40,0x00,0x00,0x47,0x00,0x82,0x69,0x96,0x47,0x73,0x00,0x4c,0x73,0x81,0x6f,0x47,
0x00,0x00,0x4c,0x00,0x81,0x71,0x47,0x73,0x00,0x4c,0x73,0x81,0x6f,0x47,0x00,0x00,
0x4c,0x00,0x81,0x71,0x47,0x74,0x00,0x4c,0x74,0x81,0x6f,0x47,0x00,0x00,0x4c,0x00,
0x81,0x71,0x47,0x75,0x00,0x4c,0x75,0x81,0x6f,0x47,0x00,0x00,0x4c,0x00,0x81,0x71,
0x47,0x76,0x00,0x4c,0x76,0x81,0x6f,0x47,0x00,0x00,0x4c,0x00,0x81,0x71,0x47,0x78,
0x00,0x4c,0x78,0x81,0x6f,0x47,0x00,0x00,0x4c,0x00,0x81,0x71,0x47,0x79,0x00,0x4c,
0x79,0x81,0x6f,0x47,0x00,0x00,0x4c,0x00,0x81,0x71,0x47,0x7a,0x00,0x4c,0x7a,0x81,
0x6f,0x47,0x00,0x00,0x4c,0x00,0x81,0x71,0x47,0x7b,0x00,0x4c,0x7b,0x81,0x6f,0x47,
0x00,0x00,0x4c,0x00,0x81,0x71,0x47,0x7c,0x00,0x4c,0x7c,0x81,0x6f,0x47,0x00,0x00,
0x4c,0x00,0x81,0x71,0x47,0x7e,0x00,0x4c,0x7e,0x81,0x6f,0x47,0x00,0x00,0x4c,0x00,
0x81,0x71,0x47,0x7f,0x00,0x4c,0x7f,0x81,0x6f,0x47,0x00,0x00,0x4c,0x00,0x81,0x71,
0x47,0x7f,0x00,0x4c,0x7f,0x81,0x6f,0x47,0x00,0x00,0x4c,0x00,0x81,0x71,0x47,0x7f,
0x00,0x4c,0x7f,0x81,0x6f,0x47,0x00,0x00,0x4c,0x00,0x81,0x71,0x47,0x7f,0x00,0x4c,
0x7f,0x81,0x6f,0x47,0x00,0x00,0x4c,0x00,0x81,0x71,0x47,0x7f,0x00,0x4c,0x7f,0x81,
0x6f,0x47,0x00,0x00,0x4c,0x00,0x81,0x71,0x47,0x7f,0x00,0x4c,0x7f,0x81,0x6f,0x47,
0x00,0x00,0x4c,0x00,0x81,0x71,0x47,0x7f,0x00,0x4c,0x7f,0x81,0x6f,0x47,0x00,0x00,
0x4c,0x00,0x81,0x71,0x47,0x7f,0x00,0x4c,0x7f,0x81,0x6f,0x47,0x00,0x00,0x4c,0x00,
0x81,0x71,0x47,0x7f,0x00,0x4c,0x7f,0x81,0x6f,0x47,0x00,0x00,0x4c,0x00,0x81,0x71,
0x47,0x7f,0x00,0x4c,0x7f,0x81,0x6f,0x47,0x00,0x00,0x4c,0x00,0x81,0x71,0x47,0x7f,
0x00,0x4c,0x7f,0x81,0x6f,0x47,0x00,0x00,0x4c,0x00,0x81,0x71,0x47,0x7f,0x00,0x4c,
0x7f,0x81,0x6f,0x47,0x00,0x00,0x4c,0x00,0x81,0x71,0x95,0x39,0x70,0x00,0x40,0x70,
0x82,0x67,0x39,0x00,0x00,0x40,0x00,0x88,0x39,0x39,0x70,0x00,0x40,0x70,0x83,0x5f,
0x39,0x00,0x00,0x40,0x00,0x01,0x39,0x70,0x00,0x40,0x70,0x77,0x39,0x00,0x00,0x40,
0x00,0x01,0x3b,0x70,0x00,0x40,0x70,0x82,0x67,0x3b,0x00,0x00,0x40,0x00,0x87,0x41,
0x3b,0x70,0x00,0x40,0x70,0x83,0x5f,0x3b,0x00,0x00,0x40,0x00,0x01,0x3c,0x70,0x00,
0x40,0x70,0x83,0x5f,0x3c,0x00,0x00,0x40,0x00,0x87,0x41,0x3c,0x70,0x00,0x40,0x70,
0x83,0x5f,0x3c,0x00,0x00,0x40,0x00,0x01,0x3e,0x70,0x00,0x40,0x70,0x83,0x5f,0x3e,
0x00,0x00,0x40,0x00,0x87,0x41,0x3e,0x70,0x00,0x40,0x70,0x81,0x51,0x3e,0x00,0x00,
0x40,0x00,0x1f,0x3e,0x70,0x00,0x40,0x70,0x81,0x51,0x3e,0x00,0x00,0x40,0x00,0x1f,
0x39,0x70,0x00,0x40,0x70,0x83,0x5f,0x39,0x00,0x00,0x40,0x00,0x87,0x41,0x39,0x70,
0x00,0x40,0x70,0x83,0x5f,0x39,0x00,0x00,0x40,0x00,0x01,0x39,0x70,0x00,0x40,0x70,
0x77,0x39,0x00,0x00,0x40,0x00,0x01,0x3b,0x70,0x00,0x40,0x70,0x82,0x67,0x3b,0x00,
0x00,0x40,0x00,0x87,0x41,0x3b,0x70,0x00,0x40,0x70,0x83,0x5f,0x3b,0x00,0x00,0x40,
0x00,0x01,0x3c,0x70,0x00,0x40,0x70,0x83,0x5f,0x3c,0x00,0x00,0x40,0x00,0x87,0x41,
0x3c,0x70,0x00,0x40,0x70,0x83,0x5f,0x3c,0x00,0x00,0x40,0x00,0x01,0x45,0x7f,0x00,
0x4c,0x7f,0x83,0x5f,0x45,0x00,0x00,0x4c,0x00,0x87,0x41,0x45,0x7f,0x00,0x4c,0x7f,
0x83,0x5f,0x45,0x00,0x00,0x4c,0x00,0x01,0x45,0x7e,0x00,0x4c,0x7e,0x77,0x45,0x00,
0x00,0x4c,0x00,0x01,0x47,0x7f,0x00,0x4c,0x7f,0x82,0x67,0x47,0x00,0x00,0x4c,0x00,
0x87,0x41,0x47,0x7f,0x00,0x4c,0x7f,0x83,0x5f,0x47,0x00,0x00,0x4c,0x00,0x01,0x48,
0x7f,0x00,0x4c,0x7f,0x83,0x5f,0x48,0x00,0x00,0x4c,0x00,0x87,0x41,0x48,0x7f,0x00,
0x4c,0x7f,0x83,0x5f,0x48,0x00,0x00,0x4c,0x00,0x01,0x4a,0x7f,0x00,0x4c,0x7f,0x83,
0x5f,0x4a,0x00,0x00,0x4c,0x00,0x87,0x41,0x4a,0x7f,0x00,0x4c,0x7f,0x81,0x51,0x4a,
0x00,0x00,0x4c,0x00,0x1f,0x4a,0x7f,0x00,0x4c,0x7f,0x81,0x51,0x4a,0x00,0x00,0x4c,
0x00,0x1f,0x4c,0x73,0x00,0x51,0x73,0x83,0x5f,0x4c,0x00,0x00,0x51,0x00,0x87,0x41,
0x4c,0x73,0x00,0x51,0x73,0x83,0x5f,0x4c,0x00,0x00,0x51,0x00,0x01,0x4c,0x73,0x00,
0x51,0x73,0x77,0x4c,0x00,0x00,0x51,0x00,0x01,0x4c,0x7f,0x00,0x53,0x7f,0x82,0x67,
0x4c,0x00,0x00,0x53,0x00,0x87,0x41,0x4c,0x7f,0x00,0x53,0x7f,0x83,0x5f,0x4c,0x00,
0x00,0x53,0x00,0x01,0x4c,0x7f,0x00,0x54,0x7f,0x83,0x5f,0x4c,0x00,0x00,0x54,0x00,
0x87,0x41,0x4c,0x7f,0x00,0x54,0x7f,0x83,0x5f,0x4c,0x00,0x00,0x54,0x00,0x01,0x4c,
0x7f,0x00,0x56,0x7f,0x83,0x5f,0x4c,0x00,0x00,0x56,0x00,0x87,0x41,0x4c,0x7f,0x00,
0x56,0x7f,0x81,0x51,0x4c,0x00,0x00,0x56,0x00,0x1f,0x4c,0x7f,0x00,0x56,0x7f,0x81,
0x51,0x4c,0x00,0x00,0x56,0x00,0x1f,0x4c,0x73,0x00,0x51,0x73,0x83,0x5f,0x4c,0x00,
0x00,0x51,0x00,0x87,0x41,0x4c,0x60,0x00,0x51,0x60,0x83,0x5f,0x4c,0x00,0x00,0x51,
0x00,0x01,0x4c,0x60,0x00,0x51,0x60,0x77,0x4c,0x00,0x00,0x51,0x00,0x01,0x4c,0x72,
0x00,0x53,0x72,0x82,0x67,0x4c,0x00,0x00,0x53,0x00,0x87,0x41,0x4c,0x50,0x00,0x53,
0x50,0x83,0x5f,0x4c,0x00,0x00,0x53,0x00,0x01,0x4c,0x4a,0x00,0x54,0x4a,0x83,0x5f,
0x4c,0x00,0x00,0x54,0x00,0x87,0x41,0x4c,0x3a,0x00,0x54,0x3a,0x83,0x5f,0x4c,0x00,
0x00,0x54,0x00,0x01,0x4c,0x34,0x00,0x56,0x34,0x83,0x5f,0x4c,0x00,0x00,0x56,0x00,
0x87,0x41,0x4c,0x24,0x00,0x56,0x24,0x81,0x51,0x4c,0x00,0x00,0x56,0x00,0x1f,0x4c,
0x21,0x00,0x56,0x21,0x81,0x51,0x4c,0x00,0x00,0x56,0x00,0x1f,0x4c,0x1e,0x00,0x51,
0x1e,0x83,0x5f,0x4c,0x00,0x00,0x51,0x00,0x01,0xff,0x2f,0x00,0x4d,0x54,0x72,0x6b,
0x00,0x00,0x01,0xf4,0x00,0xff,0x59,0x02,0x00,0x00,0x00,0xb8,0x79,0x00,0x00,0xc8,
0x30,0x00,0xb8,0x07,0x64,0x00,0x0a,0x40,0x00,0x5b,0x00,0x00,0x5d,0x00,0x00,0xff,
0x21,0x01,0x01,0x00,0xba,0x79,0x00,0x00,0xca,0x2d,0x00,0xba,0x07,0x64,0x00,0x0a,
0x40,0x00,0x5b,0x00,0x00,0x5d,0x00,0x00,0xff,0x21,0x01,0x01,0x00,0xbb,0x79,0x00,
0x00,0xcb,0x2c,0x00,0xbb,0x07,0x64,0x00,0x0a,0x40,0x00,0x5b,0x00,0x00,0x5d,0x00,
0x00,0xff,0x21,0x01,0x01,0x84,0xd8,0x00,0x98,0x45,0x70,0x00,0x4c,0x70,0x83,0x5f,
0x45,0x00,0x00,0x4c,0x00,0x87,0x41,0x45,0x70,0x00,0x4c,0x70,0x83,0x5f,0x45,0x00,
0x00,0x4c,0x00,0x01,0x45,0x70,0x00,0x4c,0x70,0x77,0x45,0x00,0x00,0x4c,0x00,0x01,
0x47,0x70,0x00,0x4c,0x70,0x82,0x67,0x47,0x00,0x00,0x4c,0x00,0x87,0x41,0x47,0x70,
0x00,0x4c,0x70,0x83,0x5f,0x47,0x00,0x00,0x4c,0x00,0x01,0x48,0x70,0x00,0x4c,0x70,
0x83,0x5f,0x48,0x00,0x00,0x4c,0x00,0x87,0x41,0x48,0x70,0x00,0x4c,0x70,0x83,0x5f,
0x48,0x00,0x00,0x4c,0x00,0x01,0x4a,0x70,0x00,0x4c,0x70,0x83,0x5f,0x4a,0x00,0x00,
0x4c,0x00,0x87,0x41,0x4a,0x70,0x00,0x4c,0x70,0x81,0x51,0x4a,0x00,0x00,0x4c,0x00,
0x1f,0x4a,0x70,0x00,0x4c,0x70,0x81,0x51,0x4a,0x00,0x00,0x4c,0x00,0x1f,0x4c,0x60,
0x00,0x51,0x60,0x83,0x5f,0x4c,0x00,0x00,0x51,0x00,0x87,0x41,0x4c,0x60,0x00,0x51,
0x60,0x83,0x5f,0x4c,0x00,0x00,0x51,0x00,0x01,0x4c,0x60,0x00,0x51,0x60,0x77,0x4c,
0x00,0x00,0x51,0x00,0x01,0x4c,0x7e,0x00,0x53,0x7e,0x82,0x67,0x4c,0x00,0x00,0x53,
0x00,0x87,0x41,0x4c,0x7e,0x00,0x53,0x7e,0x83,0x5f,0x4c,0x00,0x00,0x53,0x00,0x01,
0x4c,0x7e,0x00,0x54,0x7e,0x83,0x5f,0x4c,0x00,0x00,0x54,0x00,0x87,0x41,0x4c,0x7e,
0x00,0x54,0x7e,0x83,0x5f,0x4c,0x00,0x00,0x54,0x00,0x01,0x4c,0x7e,0x00,0x56,0x7e,
0x83,0x5f,0x4c,0x00,0x00,0x56,0x00,0x87,0x41,0x4c,0x7e,0x00,0x56,0x7e,0x81,0x51,
0x4c,0x00,0x00,0x56,0x00,0x1f,0x4c,0x7e,0x00,0x56,0x7e,0x81,0x51,0x4c,0x00,0x00,
0x56,0x00,0x1f,0x4c,0x64,0x00,0x51,0x64,0x83,0x5f,0x4c,0x00,0x00,0x51,0x00,0x87,
0x41,0x4c,0x64,0x00,0x51,0x64,0x83,0x5f,0x4c,0x00,0x00,0x51,0x00,0x01,0x4c,0x64,
0x00,0x51,0x64,0x77,0x4c,0x00,0x00,0x51,0x00,0x01,0x4c,0x63,0x00,0x53,0x63,0x82,
0x67,0x4c,0x00,0x00,0x53,0x00,0x87,0x41,0x4c,0x4f,0x00,0x53,0x4f,0x83,0x5f,0x4c,
0x00,0x00,0x53,0x00,0x01,0x4c,0x48,0x00,0x54,0x48,0x83,0x5f,0x4c,0x00,0x00,0x54,
0x00,0x87,0x41,0x4c,0x33,0x00,0x54,0x33,0x83,0x5f,0x4c,0x00,0x00,0x54,0x00,0x01,
0x4c,0x2c,0x00,0x56,0x2c,0x83,0x5f,0x4c,0x00,0x00,0x56,0x00,0x87,0x41,0x4c,0x17,
0x00,0x56,0x17,0x81,0x51,0x4c,0x00,0x00,0x56,0x00,0x1f,0x4c,0x14,0x00,0x56,0x14,
0x81,0x51,0x4c,0x00,0x00,0x56,0x00,0x1f,0x4c,0x10,0x00,0x51,0x10,0x83,0x5f,0x4c,
0x00,0x00,0x51,0x00,0x01,0xff,0x2f,0x00,0x4d,0x54,0x72,0x6b,0x00,0x00,0x08,0x40,
0x00,0xff,0x59,0x02,0x00,0x00,0x00,0xbc,0x79,0x00,0x00,0xcc,0x30,0x00,0xbc,0x07,
0x72,0x00,0x0a,0x40,0x00,0x5b,0x00,0x00,0x5d,0x00,0x00,0xff,0x21,0x01,0x01,0x00,
0xbd,0x79,0x00,0x00,0xcd,0x2d,0x00,0xbd,0x07,0x2a,0x00,0x0a,0x40,0x00,0x5b,0x00,
0x00,0x5d,0x00,0x00,0xff,0x21,0x01,0x01,0x00,0xbe,0x79,0x00,0x00,0xce,0x2c,0x00,
0xbe,0x07,0x64,0x00,0x0a,0x40,0x00,0x5b,0x00,0x00,0x5d,0x00,0x00,0xff,0x21,0x01,
0x01,0xce,0x60,0x9c,0x39,0x50,0x77,0x39,0x00,0x79,0x3b,0x50,0x77,0x3b,0x00,0x79,
0x3c,0x50,0x77,0x3c,0x00,0x79,0x3b,0x50,0x77,0x3b,0x00,0x79,0x39,0x50,0x77,0x39,
0x00,0x79,0x3c,0x50,0x77,0x3c,0x00,0x79,0x3b,0x50,0x77,0x3b,0x00,0x79,0x39,0x50,
0x77,0x39,0x00,0x79,0x37,0x50,0x77,0x37,0x00,0x79,0x39,0x50,0x77,0x39,0x00,0x79,
0x3b,0x50,0x77,0x3b,0x00,0x79,0x37,0x50,0x77,0x37,0x00,0x79,0x39,0x50,0x77,0x39,
0x00,0x79,0x3b,0x50,0x77,0x3b,0x00,0x79,0x37,0x50,0x77,0x37,0x00,0x79,0x39,0x50,
0x77,0x39,0x00,0x79,0x3b,0x50,0x77,0x3b,0x00,0x79,0x37,0x50,0x77,0x37,0x00,0x79,
0x39,0x50,0x81,0x6f,0x39,0x00,0x81,0x71,0x3b,0x50,0x81,0x6f,0x3b,0x00,0x81,0x71,
0x3c,0x50,0x81,0x6f,0x3c,0x00,0x81,0x71,0x3b,0x50,0x81,0x6f,0x3b,0x00,0x81,0x71,
0x39,0x50,0x81,0x6f,0x39,0x00,0x81,0x71,0x3b,0x50,0x81,0x6f,0x3b,0x00,0x81,0x71,
0x3c,0x50,0x81,0x6f,0x3c,0x00,0x81,0x71,0x39,0x50,0x77,0x39,0x00,0x79,0x3c,0x50,
0x77,0x3c,0x00,0x79,0x3b,0x50,0x77,0x3b,0x00,0x79,0x39,0x50,0x77,0x39,0x00,0x79,
0x3b,0x50,0x77,0x3b,0x00,0x79,0x39,0x50,0x77,0x39,0x00,0x79,0x37,0x50,0x77,0x37,
0x00,0x79,0x39,0x50,0x77,0x39,0x00,0x79,0x3b,0x50,0x77,0x3b,0x00,0x79,0x37,0x50,
0x77,0x37,0x00,0x79,0x39,0x50,0x77,0x39,0x00,0x79,0x3b,0x50,0x77,0x3b,0x00,0x79,
0x37,0x50,0x77,0x37,0x00,0x79,0x39,0x50,0x77,0x39,0x00,0x79,0x3b,0x50,0x77,0x3b,
0x00,0x79,0x37,0x50,0x77,0x37,0x00,0x79,0x39,0x60,0x77,0x39,0x00,0x79,0x3b,0x60,
0x77,0x3b,0x00,0x79,0x3c,0x60,0x77,0x3c,0x00,0x79,0x3b,0x60,0x77,0x3b,0x00,0x79,
0x39,0x60,0x77,0x39,0x00,0x79,0x3c,0x60,0x77,0x3c,0x00,0x79,0x39,0x60,0x77,0x39,
0x00,0x79,0x3b,0x60,0x77,0x3b,0x00,0x79,0x3c,0x60,0x77,0x3c,0x00,0x79,0x3b,0x60,
0x77,0x3b,0x00,0x79,0x39,0x60,0x77,0x39,0x00,0x79,0x3c,0x60,0x77,0x3c,0x00,0x79,
0x3b,0x60,0x77,0x3b,0x00,0x79,0x39,0x60,0x77,0x39,0x00,0x79,0x37,0x60,0x77,0x37,
0x00,0x79,0x39,0x60,0x77,0x39,0x00,0x79,0x3b,0x60,0x77,0x3b,0x00,0x79,0x37,0x60,
0x77,0x37,0x00,0x79,0x39,0x60,0x77,0x39,0x00,0x79,0x3b,0x60,0x77,0x3b,0x00,0x79,
0x37,0x60,0x77,0x37,0x00,0x79,0x39,0x60,0x77,0x39,0x00,0x79,0x3b,0x60,0x77,0x3b,
0x00,0x79,0x37,0x60,0x77,0x37,0x00,0x79,0x39,0x60,0x81,0x6f,0x39,0x00,0x81,0x71,
0x3b,0x60,0x81,0x6f,0x3b,0x00,0x81,0x71,0x3c,0x60,0x81,0x6f,0x3c,0x00,0x81,0x71,
0x3b,0x60,0x81,0x6f,0x3b,0x00,0x81,0x71,0x39,0x60,0x81,0x6f,0x39,0x00,0x81,0x71,
0x3b,0x60,0x81,0x6f,0x3b,0x00,0x81,0x71,0x3c,0x60,0x81,0x6f,0x3c,0x00,0x81,0x71,
0x39,0x60,0x77,0x39,0x00,0x79,0x3c,0x60,0x77,0x3c,0x00,0x79,0x3b,0x60,0x77,0x3b,
0x00,0x79,0x39,0x60,0x77,0x39,0x00,0x79,0x3b,0x60,0x77,0x3b,0x00,0x79,0x39,0x60,
0x77,0x39,0x00,0x79,0x37,0x60,0x77,0x37,0x00,0x79,0x39,0x60,0x77,0x39,0x00,0x79,
0x3b,0x60,0x77,0x3b,0x00,0x79,0x37,0x60,0x77,0x37,0x00,0x79,0x3b,0x60,0x77,0x3b,
0x00,0x79,0x39,0x60,0x77,0x39,0x00,0x79,0x37,0x60,0x77,0x37,0x00,0x79,0x39,0x60,
0x77,0x39,0x00,0x79,0x3b,0x60,0x77,0x3b,0x00,0x79,0x37,0x60,0x77,0x37,0x00,0x79,
0x39,0x60,0x81,0x6f,0x39,0x00,0x81,0x71,0x39,0x60,0x81,0x6f,0x39,0x00,0x81,0x71,
0x40,0x60,0x81,0x6f,0x40,0x00,0x81,0x71,0x3c,0x60,0x81,0x6f,0x3c,0x00,0x81,0x71,
0x3c,0x60,0x81,0x6f,0x3c,0x00,0x81,0x71,0x3c,0x60,0x81,0x6f,0x3c,0x00,0x81,0x71,
0x3b,0x60,0x77,0x3b,0x00,0x79,0x39,0x60,0x77,0x39,0x00,0x79,0x37,0x60,0x77,0x37,
0x00,0x79,0x39,0x60,0x77,0x39,0x00,0x79,0x3b,0x60,0x77,0x3b,0x00,0x79,0x37,0x60,
0x77,0x37,0x00,0x79,0x3b,0x60,0x77,0x3b,0x00,0x79,0x39,0x60,0x77,0x39,0x00,0x79,
0x37,0x60,0x77,0x37,0x00,0x79,0x39,0x60,0x77,0x39,0x00,0x79,0x3b,0x60,0x77,0x3b,
0x00,0x79,0x37,0x60,0x77,0x37,0x00,0x79,0x39,0x60,0x81,0x6f,0x39,0x00,0x81,0x71,
0x40,0x60,0x81,0x6f,0x40,0x00,0x81,0x71,0x3c,0x60,0x81,0x6f,0x3c,0x00,0x81,0x71,
0x3b,0x60,0x81,0x6f,0x3b,0x00,0x81,0x71,0x39,0x60,0x81,0x6f,0x39,0x00,0x81,0x71,
0x3b,0x60,0x81,0x6f,0x3b,0x00,0x81,0x71,0x3c,0x60,0x81,0x6f,0x3c,0x00,0x81,0x71,
0x3c,0x60,0x81,0x6f,0x3c,0x00,0x81,0x71,0x3c,0x60,0x81,0x6f,0x3c,0x00,0x81,0x71,
0x3e,0x60,0x81,0x6f,0x3e,0x00,0x81,0x71,0x3e,0x60,0x81,0x6f,0x3e,0x00,0x81,0x71,
0x3e,0x60,0x81,0x6f,0x3e,0x00,0x98,0x31,0x34,0x73,0x77,0x34,0x00,0x79,0x36,0x60,
0x77,0x36,0x00,0x79,0x37,0x73,0x77,0x37,0x00,0x79,0x36,0x60,0x77,0x36,0x00,0x79,
0x34,0x73,0x77,0x34,0x00,0x79,0x37,0x60,0x77,0x37,0x00,0x79,0x36,0x73,0x81,0x6f,
0x36,0x00,0x01,0x34,0x60,0x77,0x34,0x00,0x79,0x36,0x73,0x81,0x6f,0x36,0x00,0x01,
0x37,0x60,0x77,0x37,0x00,0x79,0x36,0x73,0x81,0x6f,0x36,0x00,0x01,0x3b,0x60,0x77,
0x3b,0x00,0x79,0x34,0x73,0x77,0x34,0x00,0x79,0x36,0x60,0x77,0x36,0x00,0x79,0x37,
0x73,0x77,0x37,0x00,0x79,0x36,0x60,0x77,0x36,0x00,0x79,0x34,0x73,0x77,0x34,0x00,
0x79,0x37,0x60,0x77,0x37,0x00,0x79,0x36,0x73,0x81,0x6f,0x36,0x00,0x01,0x34,0x60,
0x77,0x34,0x00,0x79,0x36,0x73,0x81,0x6f,0x36,0x00,0x01,0x37,0x60,0x77,0x37,0x00,
0x79,0x36,0x73,0x81,0x6f,0x36,0x00,0x01,0x3b,0x60,0x77,0x3b,0x00,0x79,0x34,0x73,
0x77,0x34,0x00,0x79,0x36,0x60,0x77,0x36,0x00,0x79,0x37,0x73,0x77,0x37,0x00,0x79,
0x36,0x60,0x77,0x36,0x00,0x79,0x34,0x73,0x77,0x34,0x00,0x79,0x37,0x60,0x77,0x37,
0x00,0x79,0x36,0x73,0x81,0x6f,0x36,0x00,0x01,0x34,0x60,0x77,0x34,0x00,0x79,0x32,
0x73,0x81,0x6f,0x32,0x00,0x01,0x34,0x60,0x77,0x34,0x00,0x79,0x36,0x73,0x81,0x6f,
0x36,0x00,0x01,0x32,0x60,0x77,0x32,0x00,0x79,0x34,0x73,0x77,0x34,0x00,0x79,0x36,
0x60,0x77,0x36,0x00,0x79,0x37,0x73,0x77,0x37,0x00,0x79,0x36,0x60,0x77,0x36,0x00,
0x79,0x34,0x73,0x77,0x34,0x00,0x79,0x37,0x60,0x77,0x37,0x00,0x79,0x36,0x73,0x81,
0x6f,0x36,0x00,0x01,0x34,0x60,0x77,0x34,0x00,0x79,0x36,0x73,0x81,0x6f,0x36,0x00,
0x01,0x37,0x60,0x77,0x37,0x00,0x79,0x36,0x73,0x81,0x6f,0x36,0x00,0x01,0x3b,0x60,
0x77,0x3b,0x00,0x79,0x34,0x73,0x77,0x34,0x00,0x79,0x36,0x60,0x77,0x36,0x00,0x79,
0x37,0x73,0x77,0x37,0x00,0x79,0x36,0x60,0x77,0x36,0x00,0x79,0x34,0x73,0x77,0x34,
0x00,0x79,0x37,0x60,0x77,0x37,0x00,0x79,0x36,0x73,0x81,0x6f,0x36,0x00,0x01,0x34,
0x60,0x77,0x34,0x00,0x79,0x32,0x73,0x81,0x6f,0x32,0x00,0x01,0x34,0x60,0x77,0x34,
0x00,0x79,0x36,0x73,0x81,0x6f,0x36,0x00,0x01,0x32,0x60,0x77,0x32,0x00,0x79,0x39,
0x70,0x00,0x40,0x70,0x82,0x67,0x39,0x00,0x00,0x40,0x00,0x88,0x39,0x39,0x70,0x00,
0x40,0x70,0x83,0x5f,0x39,0x00,0x00,0x40,0x00,0x01,0x39,0x70,0x00,0x40,0x70,0x77,
0x39,0x00,0x00,0x40,0x00,0x01,0x3b,0x70,0x00,0x40,0x70,0x82,0x67,0x3b,0x00,0x00,
0x40,0x00,0x87,0x41,0x3b,0x70,0x00,0x40,0x70,0x83,0x5f,0x3b,0x00,0x00,0x40,0x00,
0x01,0x3c,0x70,0x00,0x40,0x70,0x83,0x5f,0x3c,0x00,0x00,0x40,0x00,0x87,0x41,0x3c,
0x70,0x00,0x40,0x70,0x83,0x5f,0x3c,0x00,0x00,0x40,0x00,0x01,0x3e,0x70,0x00,0x40,
0x70,0x83,0x5f,0x3e,0x00,0x00,0x40,0x00,0x87,0x41,0x3e,0x70,0x00,0x40,0x70,0x81,
0x51,0x3e,0x00,0x00,0x40,0x00,0x1f,0x3e,0x70,0x00,0x40,0x70,0x81,0x51,0x3e,0x00,
0x00,0x40,0x00,0x1f,0x35,0x70,0x00,0x39,0x70,0x00,0x40,0x70,0x83,0x5f,0x35,0x00,
0x00,0x39,0x00,0x00,0x40,0x00,0x87,0x41,0x35,0x70,0x00,0x39,0x70,0x00,0x40,0x70,
0x83,0x5f,0x35,0x00,0x00,0x39,0x00,0x00,0x40,0x00,0x01,0x35,0x70,0x00,0x39,0x70,
0x00,0x40,0x70,0x77,0x35,0x00,0x00,0x39,0x00,0x00,0x40,0x00,0x01,0x37,0x70,0x00,
0x3b,0x70,0x00,0x40,0x70,0x82,0x67,0x37,0x00,0x00,0x3b,0x00,0x00,0x40,0x00,0x87,
0x41,0x37,0x70,0x00,0x3b,0x70,0x00,0x40,0x70,0x83,0x5f,0x37,0x00,0x00,0x3b,0x00,
0x00,0x40,0x00,0x01,0x39,0x70,0x00,0x3c,0x70,0x00,0x40,0x70,0x83,0x5f,0x39,0x00,
0x00,0x3c,0x00,0x00,0x40,0x00,0x87,0x41,0x39,0x70,0x00,0x3c,0x70,0x00,0x40,0x70,
0x83,0x5f,0x39,0x00,0x00,0x3c,0x00,0x00,0x40,0x00,0x01,0x39,0x70,0x00,0x40,0x70,
0x00,0x41,0x70,0x83,0x5f,0x39,0x00,0x00,0x40,0x00,0x00,0x41,0x00,0x87,0x41,0x39,
0x70,0x00,0x40,0x70,0x00,0x41,0x70,0x83,0x5f,0x39,0x00,0x00,0x40,0x00,0x00,0x41,
0x00,0x01,0x39,0x70,0x00,0x40,0x70,0x00,0x41,0x70,0x77,0x39,0x00,0x00,0x40,0x00,
0x00,0x41,0x00,0x01,0x3b,0x70,0x00,0x40,0x70,0x00,0x43,0x70,0x82,0x67,0x3b,0x00,
0x00,0x40,0x00,0x00,0x43,0x00,0x87,0x41,0x3b,0x70,0x00,0x40,0x70,0x00,0x43,0x70,
0x83,0x5f,0x3b,0x00,0x00,0x40,0x00,0x00,0x43,0x00,0x01,0x3c,0x70,0x00,0x40,0x70,
0x00,0x45,0x70,0x83,0x5f,0x3c,0x00,0x00,0x40,0x00,0x00,0x45,0x00,0x87,0x41,0x3c,
0x70,0x00,0x40,0x70,0x00,0x45,0x70,0x83,0x5f,0x3c,0x00,0x00,0x40,0x00,0x00,0x45,
0x00,0x01,0x3e,0x70,0x00,0x40,0x70,0x00,0x47,0x70,0x83,0x5f,0x3e,0x00,0x00,0x40,
0x00,0x00,0x47,0x00,0x87,0x41,0x3e,0x70,0x00,0x40,0x70,0x00,0x47,0x70,0x81,0x51,
0x3e,0x00,0x00,0x40,0x00,0x00,0x47,0x00,0x1f,0x3e,0x70,0x00,0x40,0x70,0x00,0x47,
0x70,0x81,0x51,0x3e,0x00,0x00,0x40,0x00,0x00,0x47,0x00,0x1f,0x39,0x70,0x00,0x40,
0x70,0x00,0x41,0x70,0x00,0x45,0x70,0x83,0x5f,0x39,0x00,0x00,0x40,0x00,0x00,0x41,
0x00,0x00,0x45,0x00,0x87,0x41,0x39,0x70,0x00,0x40,0x70,0x00,0x41,0x70,0x00,0x45,
0x70,0x83,0x5f,0x39,0x00,0x00,0x40,0x00,0x00,0x41,0x00,0x00,0x45,0x00,0x01,0x39,
0x70,0x00,0x40,0x70,0x00,0x41,0x70,0x77,0x39,0x00,0x00,0x40,0x00,0x00,0x41,0x00,
0x01,0x3b,0x70,0x00,0x40,0x70,0x00,0x43,0x70,0x82,0x67,0x3b,0x00,0x00,0x40,0x00,
0x00,0x43,0x00,0x87,0x41,0x3b,0x70,0x00,0x40,0x70,0x00,0x43,0x70,0x83,0x5f,0x3b,
0x00,0x00,0x40,0x00,0x00,0x43,0x00,0x01,0x3c,0x70,0x00,0x40,0x70,0x00,0x45,0x70,
0x83,0x5f,0x3c,0x00,0x00,0x40,0x00,0x00,0x45,0x00,0x87,0x41,0x3c,0x70,0x00,0x40,
0x70,0x00,0x45,0x70,0x83,0x5f,0x3c,0x00,0x00,0x40,0x00,0x00,0x45,0x00,0x01,0x3e,
0x70,0x00,0x40,0x70,0x00,0x47,0x70,0x83,0x5f,0x3e,0x00,0x00,0x40,0x00,0x00,0x47,
0x00,0x87,0x41,0x3e,0x70,0x00,0x40,0x70,0x00,0x47,0x70,0x81,0x51,0x3e,0x00,0x00,
0x40,0x00,0x00,0x47,0x00,0x1f,0x3e,0x70,0x00,0x40,0x70,0x00,0x47,0x70,0x81,0x51,
0x3e,0x00,0x00,0x40,0x00,0x00,0x47,0x00,0x1f,0x39,0x70,0x00,0x40,0x70,0x00,0x41,
0x70,0x83,0x5f,0x39,0x00,0x00,0x40,0x00,0x00,0x41,0x00,0x87,0x41,0x39,0x70,0x00,
0x40,0x70,0x00,0x41,0x70,0x83,0x5f,0x39,0x00,0x00,0x40,0x00,0x00,0x41,0x00,0x01,
0x39,0x70,0x00,0x40,0x70,0x00,0x41,0x70,0x77,0x39,0x00,0x00,0x40,0x00,0x00,0x41,
0x00,0x01,0x3b,0x6f,0x00,0x40,0x6f,0x00,0x43,0x6f,0x82,0x67,0x3b,0x00,0x00,0x40,
0x00,0x00,0x43,0x00,0x87,0x41,0x3b,0x5c,0x00,0x40,0x5c,0x00,0x43,0x5c,0x83,0x5f,
0x3b,0x00,0x00,0x40,0x00,0x00,0x43,0x00,0x01,0x3c,0x55,0x00,0x40,0x55,0x00,0x45,
0x55,0x83,0x5f,0x3c,0x00,0x00,0x40,0x00,0x00,0x45,0x00,0x87,0x41,0x3c,0x41,0x00,
0x40,0x41,0x00,0x45,0x41,0x83,0x5f,0x3c,0x00,0x00,0x40,0x00,0x00,0x45,0x00,0x01,
0x3e,0x3a,0x00,0x40,0x3a,0x00,0x47,0x3a,0x83,0x5f,0x3e,0x00,0x00,0x40,0x00,0x00,
0x47,0x00,0x87,0x41,0x3e,0x25,0x00,0x40,0x25,0x00,0x47,0x25,0x81,0x51,0x3e,0x00,
0x00,0x40,0x00,0x00,0x47,0x00,0x1f,0x3e,0x22,0x00,0x40,0x22,0x00,0x47,0x22,0x81,
0x51,0x3e,0x00,0x00,0x40,0x00,0x00,0x47,0x00,0x1f,0x39,0x1e,0x00,0x40,0x1e,0x00,
0x41,0x1e,0x83,0x5f,0x39,0x00,0x00,0x40,0x00,0x00,0x41,0x00,0x01,0xff,0x2f,0x00,
0x4d,0x54,0x72,0x6b,0x00,0x00,0x07,0x80,0x00,0xff,0x59,0x02,0x00,0x00,0x00,0xbf,
0x79,0x00,0x00,0xcf,0x30,0x00,0xbf,0x07,0x6f,0x00,0x0a,0x40,0x00,0x5b,0x00,0x00,
0x5d,0x00,0x00,0xff,0x21,0x01,0x01,0x00,0xb0,0x79,0x00,0x00,0xc0,0x2d,0x00,0xb0,
0x07,0x64,0x00,0x0a,0x40,0x00,0x5b,0x00,0x00,0x5d,0x00,0x00,0xff,0x21,0x01,0x01,
0x00,0xb1,0x79,0x00,0x00,0xc1,0x2c,0x00,0xb1,0x07,0x64,0x00,0x0a,0x40,0x00,0x5b,
0x00,0x00,0x5d,0x00,0x00,0xff,0x21,0x01,0x01,0xce,0x60,0x9f,0x2d,0x50,0x77,0x2d,
0x00,0x79,0x2f,0x50,0x77,0x2f,0x00,0x79,0x30,0x50,0x77,0x30,0x00,0x79,0x2f,0x50,
0x77,0x2f,0x00,0x79,0x2d,0x50,0x77,0x2d,0x00,0x79,0x30,0x50,0x77,0x30,0x00,0x79,
0x2f,0x50,0x77,0x2f,0x00,0x79,0x2d,0x50,0x77,0x2d,0x00,0x79,0x2b,0x50,0x77,0x2b,
0x00,0x79,0x2d,0x50,0x77,0x2d,0x00,0x79,0x2f,0x50,0x77,0x2f,0x00,0x79,0x2b,0x50,
0x77,0x2b,0x00,0x79,0x2d,0x50,0x77,0x2d,0x00,0x79,0x2f,0x50,0x77,0x2f,0x00,0x79,
0x2b,0x50,0x77,0x2b,0x00,0x79,0x2d,0x50,0x77,0x2d,0x00,0x79,0x2f,0x50,0x77,0x2f,
0x00,0x79,0x2b,0x50,0x77,0x2b,0x00,0x79,0x2d,0x50,0x81,0x6f,0x2d,0x00,0x81,0x71,
0x2f,0x50,0x81,0x6f,0x2f,0x00,0x81,0x71,0x30,0x50,0x81,0x6f,0x30,0x00,0x81,0x71,
0x2f,0x50,0x81,0x6f,0x2f,0x00,0x81,0x71,0x2d,0x50,0x81,0x6f,0x2d,0x00,0x81,0x71,
0x2f,0x50,0x81,0x6f,0x2f,0x00,0x81,0x71,0x30,0x50,0x81,0x6f,0x30,0x00,0x81,0x71,
0x2d,0x50,0x77,0x2d,0x00,0x79,0x30,0x50,0x77,0x30,0x00,0x79,0x2f,0x50,0x77,0x2f,
0x00,0x79,0x2d,0x50,0x77,0x2d,0x00,0x79,0x2f,0x50,0x77,0x2f,0x00,0x79,0x2d,0x50,
0x77,0x2d,0x00,0x79,0x2b,0x50,0x77,0x2b,0x00,0x79,0x2d,0x50,0x77,0x2d,0x00,0x79,
0x2f,0x50,0x77,0x2f,0x00,0x79,0x2b,0x50,0x77,0x2b,0x00,0x79,0x2d,0x50,0x77,0x2d,
0x00,0x79,0x2f,0x50,0x77,0x2f,0x00,0x79,0x2b,0x50,0x77,0x2b,0x00,0x79,0x2d,0x50,
0x77,0x2d,0x00,0x79,0x2f,0x50,0x77,0x2f,0x00,0x79,0x2b,0x50,0x77,0x2b,0x00,0x79,
0x2d,0x60,0x77,0x2d,0x00,0x79,0x2f,0x60,0x77,0x2f,0x00,0x79,0x30,0x60,0x77,0x30,
0x00,0x79,0x2f,0x60,0x77,0x2f,0x00,0x79,0x2d,0x60,0x77,0x2d,0x00,0x79,0x30,0x60,
0x77,0x30,0x00,0x79,0x2d,0x60,0x77,0x2d,0x00,0x79,0x2f,0x60,0x77,0x2f,0x00,0x79,
0x30,0x60,0x77,0x30,0x00,0x79,0x2f,0x60,0x77,0x2f,0x00,0x79,0x2d,0x60,0x77,0x2d,
0x00,0x79,0x30,0x60,0x77,0x30,0x00,0x79,0x2f,0x60,0x77,0x2f,0x00,0x79,0x2d,0x60,
0x77,0x2d,0x00,0x79,0x2b,0x60,0x77,0x2b,0x00,0x79,0x2d,0x60,0x77,0x2d,0x00,0x79,
0x2f,0x60,0x77,0x2f,0x00,0x79,0x2b,0x60,0x77,0x2b,0x00,0x79,0x2d,0x60,0x77,0x2d,
0x00,0x79,0x2f,0x60,0x77,0x2f,0x00,0x79,0x2b,0x60,0x77,0x2b,0x00,0x79,0x2d,0x60,
0x77,0x2d,0x00,0x79,0x2f,0x60,0x77,0x2f,0x00,0x79,0x2b,0x60,0x77,0x2b,0x00,0x79,
0x2d,0x60,0x81,0x6f,0x2d,0x00,0x81,0x71,0x2f,0x60,0x81,0x6f,0x2f,0x00,0x81,0x71,
0x30,0x60,0x81,0x6f,0x30,0x00,0x81,0x71,0x2f,0x60,0x81,0x6f,0x2f,0x00,0x81,0x71,
0x2d,0x60,0x81,0x6f,0x2d,0x00,0x81,0x71,0x2f,0x60,0x81,0x6f,0x2f,0x00,0x81,0x71,
0x30,0x60,0x81,0x6f,0x30,0x00,0x81,0x71,0x2d,0x60,0x77,0x2d,0x00,0x79,0x30,0x60,
0x77,0x30,0x00,0x79,0x2f,0x60,0x77,0x2f,0x00,0x79,0x2d,0x60,0x77,0x2d,0x00,0x79,
0x2f,0x60,0x77,0x2f,0x00,0x79,0x2d,0x60,0x77,0x2d,0x00,0x79,0x2b,0x60,0x77,0x2b,
0x00,0x79,0x2d,0x60,0x77,0x2d,0x00,0x79,0x2f,0x60,0x77,0x2f,0x00,0x79,0x2b,0x60,
0x77,0x2b,0x00,0x79,0x2f,0x60,0x77,0x2f,0x00,0x79,0x2d,0x60,0x77,0x2d,0x00,0x79,
0x2b,0x60,0x77,0x2b,0x00,0x79,0x2d,0x60,0x77,0x2d,0x00,0x79,0x2f,0x60,0x77,0x2f,
0x00,0x79,0x2b,0x60,0x77,0x2b,0x00,0x79,0x2d,0x60,0x81,0x6f,0x2d,0x00,0x81,0x71,
0x2d,0x60,0x81,0x6f,0x2d,0x00,0x81,0x71,0x34,0x60,0x81,0x6f,0x34,0x00,0x81,0x71,
0x30,0x60,0x81,0x6f,0x30,0x00,0x81,0x71,0x30,0x60,0x81,0x6f,0x30,0x00,0x81,0x71,
0x30,0x60,0x81,0x6f,0x30,0x00,0x81,0x71,0x2f,0x60,0x77,0x2f,0x00,0x79,0x2d,0x60,
0x77,0x2d,0x00,0x79,0x2b,0x60,0x77,0x2b,0x00,0x79,0x2d,0x60,0x77,0x2d,0x00,0x79,
0x2f,0x60,0x77,0x2f,0x00,0x79,0x2b,0x60,0x77,0x2b,0x00,0x79,0x2f,0x60,0x77,0x2f,
0x00,0x79,0x2d,0x60,0x77,0x2d,0x00,0x79,0x2b,0x60,0x77,0x2b,0x00,0x79,0x2d,0x60,
0x77,0x2d,0x00,0x79,0x2f,0x60,0x77,0x2f,0x00,0x79,0x2b,0x60,0x77,0x2b,0x00,0x79,
0x2d,0x60,0x81,0x6f,0x2d,0x00,0x81,0x71,0x34,0x60,0x81,0x6f,0x34,0x00,0x81,0x71,
0x30,0x60,0x81,0x6f,0x30,0x00,0x81,0x71,0x2f,0x60,0x81,0x6f,0x2f,0x00,0x81,0x71,
0x2d,0x60,0x81,0x6f,0x2d,0x00,0x81,0x71,0x2f,0x60,0x81,0x6f,0x2f,0x00,0x81,0x71,
0x30,0x60,0x81,0x6f,0x30,0x00,0x81,0x71,0x30,0x60,0x81,0x6f,0x30,0x00,0x81,0x71,
0x30,0x60,0x81,0x6f,0x30,0x00,0x81,0x71,0x32,0x60,0x81,0x6f,0x32,0x00,0x81,0x71,
0x32,0x60,0x81,0x6f,0x32,0x00,0x81,0x71,0x32,0x60,0x81,0x6f,0x32,0x00,0x99,0x29,
0x24,0x60,0x77,0x24,0x00,0x01,0x24,0x61,0x81,0x6f,0x24,0x00,0x01,0x24,0x62,0x87,
0x3f,0x24,0x00,0x01,0x26,0x68,0x8b,0x1f,0x26,0x00,0x79,0x24,0x70,0x77,0x24,0x00,
0x01,0x24,0x70,0x77,0x24,0x00,0x01,0x24,0x7f,0x88,0x37,0x24,0x00,0x79,0x26,0x70,
0x77,0x26,0x00,0x01,0x26,0x70,0x77,0x26,0x00,0x01,0x26,0x7f,0x88,0x37,0x26,0x00,
0x01,0x28,0x70,0x96,0x3f,0x28,0x00,0x01,0x2b,0x70,0x8b,0x1f,0x2b,0x00,0x01,0x2d,
0x70,0x8b,0x1f,0x2d,0x00,0x01,0x28,0x60,0x96,0x3f,0x28,0x00,0x01,0x2d,0x73,0x00,
0x35,0x73,0x00,0x39,0x73,0x82,0x67,0x2d,0x00,0x00,0x35,0x00,0x00,0x39,0x00,0x88,
0x39,0x2d,0x73,0x00,0x35,0x73,0x00,0x39,0x73,0x83,0x5f,0x2d,0x00,0x00,0x35,0x00,
0x00,0x39,0x00,0x01,0x2d,0x73,0x00,0x35,0x73,0x00,0x39,0x73,0x77,0x2d,0x00,0x00,
0x35,0x00,0x00,0x39,0x00,0x01,0x2f,0x73,0x00,0x37,0x73,0x00,0x3b,0x73,0x82,0x67,
0x2f,0x00,0x00,0x37,0x00,0x00,0x3b,0x00,0x87,0x41,0x2f,0x73,0x00,0x37,0x73,0x00,
0x3b,0x73,0x83,0x5f,0x2f,0x00,0x00,0x37,0x00,0x00,0x3b,0x00,0x01,0x30,0x73,0x00,
0x39,0x73,0x00,0x3c,0x73,0x83,0x5f,0x30,0x00,0x00,0x39,0x00,0x00,0x3c,0x00,0x87,
0x41,0x30,0x73,0x00,0x39,0x73,0x00,0x3c,0x73,0x83,0x5f,0x30,0x00,0x00,0x39,0x00,
0x00,0x3c,0x00,0x01,0x2b,0x73,0x00,0x32,0x73,0x00,0x3b,0x73,0x00,0x3e,0x73,0x83,
0x5f,0x2b,0x00,0x00,0x32,0x00,0x00,0x3b,0x00,0x00,0x3e,0x00,0x87,0x41,0x2b,0x73,
0x00,0x32,0x73,0x00,0x3b,0x73,0x00,0x3e,0x73,0x81,0x51,0x2b,0x00,0x00,0x32,0x00,
0x00,0x3b,0x00,0x00,0x3e,0x00,0x1f,0x2b,0x73,0x00,0x32,0x73,0x00,0x3b,0x73,0x00,
0x3e,0x73,0x81,0x51,0x2b,0x00,0x00,0x32,0x00,0x00,0x3b,0x00,0x00,0x3e,0x00,0x1f,
0x2d,0x73,0x00,0x35,0x73,0x00,0x39,0x73,0x83,0x5f,0x2d,0x00,0x00,0x35,0x00,0x00,
0x39,0x00,0x87,0x41,0x2d,0x73,0x00,0x35,0x73,0x00,0x39,0x73,0x83,0x5f,0x2d,0x00,
0x00,0x35,0x00,0x00,0x39,0x00,0x01,0x2d,0x73,0x00,0x35,0x73,0x00,0x39,0x73,0x77,
0x2d,0x00,0x00,0x35,0x00,0x00,0x39,0x00,0x01,0x2f,0x73,0x00,0x37,0x73,0x00,0x3b,
0x73,0x82,0x67,0x2f,0x00,0x00,0x37,0x00,0x00,0x3b,0x00,0x87,0x41,0x2f,0x73,0x00,
0x37,0x73,0x00,0x3b,0x73,0x83,0x5f,0x2f,0x00,0x00,0x37,0x00,0x00,0x3b,0x00,0x01,
0x30,0x73,0x00,0x39,0x73,0x00,0x3c,0x73,0x83,0x5f,0x30,0x00,0x00,0x39,0x00,0x00,
0x3c,0x00,0x87,0x41,0x30,0x73,0x00,0x39,0x73,0x00,0x3c,0x73,0x83,0x5f,0x30,0x00,
0x00,0x39,0x00,0x00,0x3c,0x00,0x01,0x35,0x73,0x00,0x39,0x73,0x00,0x40,0x73,0x83,
0x5f,0x35,0x00,0x00,0x39,0x00,0x00,0x40,0x00,0x87,0x41,0x35,0x73,0x00,0x39,0x73,
0x00,0x40,0x73,0x83,0x5f,0x35,0x00,0x00,0x39,0x00,0x00,0x40,0x00,0x01,0x35,0x73,
0x00,0x39,0x73,0x00,0x40,0x73,0x77,0x35,0x00,0x00,0x39,0x00,0x00,0x40,0x00,0x01,
0x37,0x73,0x00,0x3b,0x73,0x00,0x40,0x73,0x82,0x67,0x37,0x00,0x00,0x3b,0x00,0x00,
0x40,0x00,0x87,0x41,0x37,0x73,0x00,0x3b,0x73,0x00,0x40,0x73,0x83,0x5f,0x37,0x00,
0x00,0x3b,0x00,0x00,0x40,0x00,0x01,0x39,0x73,0x00,0x3c,0x73,0x00,0x40,0x73,0x83,
0x5f,0x39,0x00,0x00,0x3c,0x00,0x00,0x40,0x00,0x87,0x41,0x39,0x73,0x00,0x3c,0x73,
0x00,0x40,0x73,0x83,0x5f,0x39,0x00,0x00,0x3c,0x00,0x00,0x40,0x00,0x01,0x3b,0x73,
0x00,0x3e,0x73,0x00,0x40,0x73,0x83,0x5f,0x3b,0x00,0x00,0x3e,0x00,0x00,0x40,0x00,
0x87,0x41,0x3b,0x73,0x00,0x3e,0x73,0x00,0x40,0x73,0x81,0x51,0x3b,0x00,0x00,0x3e,
0x00,0x00,0x40,0x00,0x1f,0x3b,0x73,0x00,0x3e,0x73,0x00,0x40,0x73,0x81,0x51,0x3b,
0x00,0x00,0x3e,0x00,0x00,0x40,0x00,0x1f,0x35,0x73,0x00,0x39,0x73,0x00,0x40,0x73,
0x83,0x5f,0x35,0x00,0x00,0x39,0x00,0x00,0x40,0x00,0x87,0x41,0x35,0x73,0x00,0x39,
0x73,0x00,0x40,0x73,0x83,0x5f,0x35,0x00,0x00,0x39,0x00,0x00,0x40,0x00,0x01,0x35,
0x73,0x00,0x39,0x73,0x00,0x40,0x73,0x77,0x35,0x00,0x00,0x39,0x00,0x00,0x40,0x00,
0x01,0x37,0x73,0x00,0x3b,0x73,0x00,0x40,0x73,0x82,0x67,0x37,0x00,0x00,0x3b,0x00,
0x00,0x40,0x00,0x87,0x41,0x37,0x73,0x00,0x3b,0x73,0x00,0x40,0x73,0x83,0x5f,0x37,
0x00,0x00,0x3b,0x00,0x00,0x40,0x00,0x01,0x39,0x73,0x00,0x3c,0x73,0x00,0x40,0x73,
0x83,0x5f,0x39,0x00,0x00,0x3c,0x00,0x00,0x40,0x00,0x87,0x41,0x39,0x73,0x00,0x3c,
0x73,0x00,0x40,0x73,0x83,0x5f,0x39,0x00,0x00,0x3c,0x00,0x00,0x40,0x00,0x01,0x3b,
0x73,0x00,0x3e,0x73,0x00,0x40,0x73,0x83,0x5f,0x3b,0x00,0x00,0x3e,0x00,0x00,0x40,
0x00,0x87,0x41,0x32,0x73,0x00,0x3b,0x73,0x00,0x3e,0x73,0x00,0x40,0x73,0x81,0x51,
0x32,0x00,0x00,0x3b,0x00,0x00,0x3e,0x00,0x00,0x40,0x00,0x1f,0x32,0x73,0x00,0x3b,
0x73,0x00,0x3e,0x73,0x00,0x40,0x73,0x81,0x51,0x32,0x00,0x00,0x3b,0x00,0x00,0x3e,
0x00,0x00,0x40,0x00,0x1f,0x35,0x73,0x00,0x39,0x73,0x00,0x40,0x73,0x83,0x5f,0x35,
0x00,0x00,0x39,0x00,0x00,0x40,0x00,0x87,0x41,0x35,0x73,0x00,0x39,0x73,0x00,0x40,
0x73,0x83,0x5f,0x35,0x00,0x00,0x39,0x00,0x00,0x40,0x00,0x01,0x35,0x73,0x00,0x39,
0x73,0x00,0x40,0x73,0x77,0x35,0x00,0x00,0x39,0x00,0x00,0x40,0x00,0x01,0x37,0x72,
0x00,0x3b,0x72,0x00,0x40,0x72,0x82,0x67,0x37,0x00,0x00,0x3b,0x00,0x00,0x40,0x00,
0x87,0x41,0x37,0x5e,0x00,0x3b,0x5e,0x00,0x40,0x5e,0x83,0x5f,0x37,0x00,0x00,0x3b,
0x00,0x00,0x40,0x00,0x01,0x39,0x57,0x00,0x3c,0x57,0x00,0x40,0x57,0x83,0x5f,0x39,
0x00,0x00,0x3c,0x00,0x00,0x40,0x00,0x87,0x41,0x39,0x42,0x00,0x3c,0x42,0x00,0x40,
0x42,0x83,0x5f,0x39,0x00,0x00,0x3c,0x00,0x00,0x40,0x00,0x01,0x3b,0x3b,0x00,0x3e,
0x3b,0x00,0x40,0x3b,0x83,0x5f,0x3b,0x00,0x00,0x3e,0x00,0x00,0x40,0x00,0x87,0x41,
0x32,0x26,0x00,0x3b,0x26,0x00,0x3e,0x26,0x00,0x40,0x26,0x81,0x51,0x32,0x00,0x00,
0x3b,0x00,0x00,0x3e,0x00,0x00,0x40,0x00,0x1f,0x32,0x22,0x00,0x3b,0x22,0x00,0x3e,
0x22,0x00,0x40,0x22,0x81,0x51,0x32,0x00,0x00,0x3b,0x00,0x00,0x3e,0x00,0x00,0x40,
0x00,0x1f,0x35,0x1e,0x00,0x39,0x1e,0x00,0x40,0x1e,0x83,0x5f,0x35,0x00,0x00,0x39,
0x00,0x00,0x40,0x00,0x01,0xff,0x2f,0x00,0x4d,0x54,0x72,0x6b,0x00,0x00,0x03,0x18,
0x00,0xff,0x59,0x02,0x00,0x00,0x00,0xb2,0x79,0x00,0x00,0xc2,0x30,0x00,0xb2,0x07,
0x64,0x00,0x0a,0x40,0x00,0x5b,0x00,0x00,0x5d,0x00,0x00,0xff,0x21,0x01,0x02,0x00,
0xb3,0x79,0x00,0x00,0xc3,0x2d,0x00,0xb3,0x07,0x64,0x00,0x0a,0x40,0x00,0x5b,0x00,
0x00,0x5d,0x00,0x00,0xff,0x21,0x01,0x02,0x00,0xb4,0x79,0x00,0x00,0xc4,0x2c,0x00,
0xb4,0x07,0x64,0x00,0x0a,0x40,0x00,0x5b,0x00,0x00,0x5d,0x00,0x00,0xff,0x21,0x01,
0x02,0xe6,0x18,0x92,0x1c,0x60,0x00,0x28,0x60,0x8a,0x27,0x1c,0x00,0x00,0x28,0x00,
0xad,0x79,0x1c,0x60,0x00,0x28,0x60,0x8a,0x27,0x1c,0x00,0x00,0x28,0x00,0x79,0x21,
0x60,0x3b,0x21,0x00,0x01,0x21,0x60,0x3b,0x21,0x00,0x01,0x21,0x60,0x81,0x6f,0x21,
0x00,0x84,0x59,0x21,0x60,0x3b,0x21,0x00,0x01,0x21,0x60,0x3b,0x21,0x00,0x01,0x21,
0x60,0x81,0x6f,0x21,0x00,0x79,0x21,0x60,0x3b,0x21,0x00,0x01,0x21,0x60,0x3b,0x21,
0x00,0x01,0x21,0x60,0x81,0x6f,0x21,0x00,0x93,0x59,0x1c,0x60,0x00,0x28,0x60,0x8a,
0x27,0x1c,0x00,0x00,0x28,0x00,0x79,0x21,0x60,0x3b,0x21,0x00,0x01,0x21,0x60,0x3b,
0x21,0x00,0x01,0x21,0x60,0x81,0x6f,0x21,0x00,0x79,0x28,0x60,0x3b,0x28,0x00,0x01,
0x28,0x60,0x3b,0x28,0x00,0x01,0x28,0x60,0x81,0x6f,0x28,0x00,0x79,0x24,0x60,0x3b,
0x24,0x00,0x01,0x24,0x60,0x3b,0x24,0x00,0x01,0x24,0x60,0x81,0x6f,0x24,0x00,0x79,
0x23,0x60,0x3b,0x23,0x00,0x01,0x23,0x60,0x3b,0x23,0x00,0x01,0x23,0x60,0x81,0x6f,
0x23,0x00,0x79,0x21,0x60,0x3b,0x21,0x00,0x01,0x21,0x60,0x3b,0x21,0x00,0x01,0x21,
0x60,0x81,0x6f,0x21,0x00,0x79,0x23,0x60,0x3b,0x23,0x00,0x01,0x23,0x60,0x3b,0x23,
0x00,0x01,0x23,0x60,0x81,0x6f,0x23,0x00,0x8c,0x19,0x23,0x60,0x3b,0x23,0x00,0x01,
0x23,0x60,0x3b,0x23,0x00,0x01,0x23,0x60,0x81,0x6f,0x23,0x00,0x88,0x39,0x1c,0x60,
0x00,0x28,0x60,0x8a,0x27,0x1c,0x00,0x00,0x28,0x00,0x79,0x21,0x60,0x3b,0x21,0x00,
0x01,0x21,0x60,0x3b,0x21,0x00,0x01,0x21,0x60,0x81,0x6f,0x21,0x00,0x84,0x59,0x28,
0x60,0x3b,0x28,0x00,0x01,0x28,0x60,0x3b,0x28,0x00,0x01,0x28,0x60,0x81,0x6f,0x28,
0x00,0x79,0x24,0x60,0x3b,0x24,0x00,0x01,0x24,0x60,0x3b,0x24,0x00,0x01,0x24,0x60,
0x81,0x6f,0x24,0x00,0x88,0x39,0x23,0x60,0x3b,0x23,0x00,0x01,0x23,0x60,0x3b,0x23,
0x00,0x01,0x23,0x60,0x81,0x6f,0x23,0x00,0x88,0x39,0x1c,0x60,0x00,0x28,0x60,0x8a,
0x27,0x1c,0x00,0x00,0x28,0x00,0x79,0x21,0x60,0x3b,0x21,0x00,0x01,0x21,0x60,0x3b,
0x21,0x00,0x01,0x21,0x60,0x81,0x6f,0x21,0x00,0x79,0x28,0x60,0x3b,0x28,0x00,0x01,
0x28,0x60,0x3b,0x28,0x00,0x01,0x28,0x60,0x81,0x6f,0x28,0x00,0x79,0x24,0x60,0x3b,
0x24,0x00,0x01,0x24,0x60,0x3b,0x24,0x00,0x01,0x24,0x60,0x81,0x6f,0x24,0x00,0x79,
0x23,0x60,0x3b,0x23,0x00,0x01,0x23,0x60,0x3b,0x23,0x00,0x01,0x23,0x60,0x81,0x6f,
0x23,0x00,0x79,0x21,0x60,0x3b,0x21,0x00,0x01,0x21,0x60,0x3b,0x21,0x00,0x01,0x21,
0x60,0x81,0x6f,0x21,0x00,0x79,0x23,0x60,0x3b,0x23,0x00,0x01,0x23,0x60,0x3b,0x23,
0x00,0x01,0x23,0x60,0x81,0x6f,0x23,0x00,0x79,0x24,0x60,0x3b,0x24,0x00,0x01,0x24,
0x60,0x3b,0x24,0x00,0x01,0x24,0x60,0x81,0x6f,0x24,0x00,0x88,0x39,0x26,0x60,0x3b,
0x26,0x00,0x01,0x26,0x60,0x3b,0x26,0x00,0x01,0x26,0x60,0x81,0x6f,0x26,0x00,0x9e,
0x01,0x24,0x60,0x8b,0x1f,0x24,0x00,0x01,0x26,0x60,0x8b,0x1f,0x26,0x00,0x01,0x24,
0x60,0x8b,0x1f,0x24,0x00,0x01,0x26,0x68,0x8b,0x1f,0x26,0x00,0x01,0x28,0x70,0xac,
0x7f,0x28,0x00,0x01,0x28,0x70,0x96,0x3f,0x28,0x00,0x01,0x29,0x70,0x8e,0x7f,0x29,
0x00,0x01,0x29,0x70,0x77,0x29,0x00,0x01,0x2b,0x70,0x8e,0x07,0x2b,0x00,0x01,0x2d,
0x70,0x8e,0x7f,0x2d,0x00,0x01,0x2b,0x70,0x8e,0x7f,0x2b,0x00,0x01,0x29,0x70,0x8e,
0x7f,0x29,0x00,0x01,0x29,0x70,0x77,0x29,0x00,0x01,0x2b,0x70,0x8e,0x07,0x2b,0x00,
0x01,0x2d,0x70,0x8e,0x7f,0x2d,0x00,0x01,0x29,0x70,0x8e,0x7f,0x29,0x00,0x01,0x29,
0x70,0x77,0x29,0x00,0x01,0x2b,0x70,0x8e,0x07,0x2b,0x00,0x01,0x2d,0x70,0x8e,0x7f,
0x2d,0x00,0x01,0x2b,0x70,0x8e,0x7f,0x2b,0x00,0x01,0x29,0x70,0x8e,0x7f,0x29,0x00,
0x01,0x29,0x70,0x77,0x29,0x00,0x01,0x2b,0x70,0x8e,0x07,0x2b,0x00,0x01,0x2d,0x70,
0x8e,0x7f,0x2d,0x00,0x01,0x2b,0x70,0x8e,0x7f,0x2b,0x00,0x01,0x29,0x70,0x8e,0x7f,
0x29,0x00,0x01,0x29,0x70,0x77,0x29,0x00,0x01,0x2b,0x6e,0x8e,0x07,0x2b,0x00,0x01,
0x2d,0x50,0x8e,0x7f,0x2d,0x00,0x01,0x2b,0x30,0x8e,0x7f,0x2b,0x00,0x01,0x29,0x0f,
0x8e,0x7f,0x29,0x00,0x01,0xff,0x2f,0x00,
};
